<svg xmlns="http://www.w3.org/2000/svg" viewBox="0 0 630 630"><defs><style>.a{fill:#776658;}.b{fill:#8e7151;}.c{fill:#b1a48a;}.d{fill:#211b17;}.e{fill:#7a5d41;}.f{fill:#c9bca7;}.g,.n{fill:#5fa190;}.h{fill:#3f6d5e;}.i,.o{fill:#f7f7f7;}.j{fill:#dfdfdf;}.k{fill:#b7b7b7;}.l{fill:#ebbb30;}.m{fill:#8fd8ca;}.n,.o{fill-rule:evenodd;}.p{fill:#1ba492;}</style></defs><title>All-icons</title><path class="a" d="M388.63,525.67c-3-38.92-15-122.11-20.52-159.4a35.12,35.12,0,0,0-21.29-27.32l-0.27-.11h0l-0.64-.24-17.46-6.66-0.65-.25h0l-0.16.12h0l0.13-.13,5.91-6c24.13-24.73,10.82-36.78-11.65-99S284.26,97.88,229.93,97.85h-0.06c-54.33,0-69.62,66.59-92.08,128.79s-35.79,74.27-11.65,99l5.91,6c-7.12,2.53-13.4,5-18.75,7.15h0l-0.38.16a35,35,0,0,0-21.2,27.2c-5.53,37.24-17.56,120.54-20.54,159.49A20.58,20.58,0,0,0,91.7,547.82H368.11A20.58,20.58,0,0,0,388.63,525.67Z"/><polygon class="b" points="229.77 349.61 230.39 350.23 230.99 349.61 229.77 349.61"/><path class="b" d="M273.69,223.1l-27.12-4.74a87.73,87.73,0,0,0-29.86-.07l-26.94,4.59a24.62,24.62,0,0,0-17.89,12.82c3.59,15.46,10.07,29,18.51,39.31,7.13,4.15,11.47,7.55,14.15,12.94,1.76,3.55,2.8,8,3.43,14,0.58,5.58.81,12.56,0.94,21.55q0,2.5.06,5.21l20.8,20.87H231l20.84-21.49c0-2.14.05-4.18,0.08-6.12,0.13-8,.36-14.37.87-19.54,0.69-6.95,1.89-11.76,4.05-15.58,2.42-4.26,6-7.28,11.5-10.62,9.17-10.72,16.15-25.19,19.81-41.8C284.12,228.78,278.72,224,273.69,223.1Z"/><path class="c" d="M251.58,367.37q0-8.7.06-17.77c0.09-8.15.13-15.26,0.2-21.49L231,349.61l-0.6.62-0.62-.62L209,328.74c0.06,6.08.11,13,.19,20.87q0.08,8.07.06,15.87c0,8.84-.13,17.38-0.3,25.51h0v0c-0.14,6.58-.32,12.89-0.52,18.87,5.31,6,13.08,14.85,22.18,25.21,9.07-10.85,16.75-20,21.78-26C251.94,396.44,251.64,382.37,251.58,367.37Z"/><path class="a" d="M328.46,331.92l17.46,6.66C340.87,336.52,335,334.27,328.46,331.92Z"/><path class="a" d="M327.76,331.67l-0.13.13,0.16-.12h0Z"/><path class="d" d="M208.93,391v0h0Z"/><path class="d" d="M189.76,222.89l26.94-4.59a87.73,87.73,0,0,1,29.86.07l27.12,4.74c5,0.88,10.43,5.67,14.47,11.34-3.67,16.61-10.64,31.08-19.81,41.8,3.54-2.17,7.85-4.48,13.11-7.35,31.2-17.06,36.06-42,0-71.83C262,182.5,260,200.4,233.61,201.16q-1.62,0-3.21,0t-3.21,0c-26.35-.76-28.43-18.66-47.84-4.1-36.06,29.82-31.2,54.78,0,71.83,4.28,2.34,7.92,4.3,11,6.12-8.44-10.3-14.92-23.85-18.51-39.31A24.62,24.62,0,0,1,189.76,222.89Z"/><path class="e" d="M252.79,302.45c0.69-6.95,1.89-11.76,4.05-15.58a46.28,46.28,0,0,1-27,9c-0.47,0-.93,0-1.39-0.05A46.08,46.08,0,0,1,204.54,288c1.76,3.55,2.8,8,3.43,14a54.16,54.16,0,0,0,22.79,4.81A62.48,62.48,0,0,0,252.79,302.45Z"/><path class="e" d="M231,349.61l20.84-21.49c0-2.14.05-4.18,0.08-6.12-5.15,5.8-13.11,12.17-23.27,12.17-7.49,0-14.38-5-19.74-10.64q0,2.5.06,5.21l20.8,20.87H231Z"/><path class="f" d="M230.39,350.23l-0.62-.62L209,328.74c0.06,6.08.11,13,.19,20.87q0.08,8.07.06,15.87l0.57,1.31Z"/><path class="f" d="M230.39,350.23l21.19,17.15q0-8.7.06-17.77c0.09-8.15.13-15.26,0.2-21.49L231,349.61Z"/><path class="d" d="M208.29,413.24c-2.33-5.07-4.78-9.16-7.33-11.74-22.35-22.59-52.19-52.77-68.91-69.83l-18.75,7.15h0Z"/><path class="d" d="M258.65,401.7a37.05,37.05,0,0,0-6.21,9.43l94.1-72.29h0l-0.64-.24-17.46-6.66-0.65-.25h0l-0.16.12h0C310.83,348.92,281,379.14,258.65,401.7Z"/><path class="g" d="M295.53,240.12l-0.43.37Z"/><path class="g" d="M297.6,237s0,0.09,0,.14S297.6,237,297.6,237Z"/><path class="g" d="M297,238.6l-0.22.28Z"/><path class="g" d="M296,239.72l-0.37.35Z"/><path class="g" d="M296.67,239l-0.27.3Z"/><path class="g" d="M297.58,237.28c0,0.06,0,.11,0,0.17S297.57,237.34,297.58,237.28Z"/><path class="g" d="M297.19,238.25l-0.17.25Z"/><path class="g" d="M297.37,237.91l-0.12.22Z"/><path class="g" d="M297.5,237.59c0,0.06-.05.13-0.08,0.2S297.48,237.65,297.5,237.59Z"/><path class="g" d="M295.06,240.52l-0.48.39Z"/><path class="g" d="M294.55,240.94l-0.53.41Z"/><path class="g" d="M291.66,237.57a6.82,6.82,0,0,0-4.22-.53q-0.62.56-1.27,1.09a50.68,50.68,0,0,1-7.33,5c-17.94,10.11-42.49,12-42.49,12-2.27-5.05-13.15-5.64-13.15-5.64s-5.29-1.68-11.6,2.61-1,10.36-1,10.36,2.52,3.79,13.64,3.53,12.12-4.29,12.12-4.29c12.84-.58,31.86-6.92,45.29-13.29h0a86.83,86.83,0,0,0,10.84-6l0.3-.2A3.78,3.78,0,0,0,291.66,237.57Z"/><path class="g" d="M287.45,237c0.34-.3.68-0.62,1-0.93Q288,236.58,287.45,237Z"/><path class="g" d="M297.56,236.71s0,0.07,0,.1S297.57,236.74,297.56,236.71Z"/><path class="g" d="M296.33,239.34l-0.32.33Z"/><path class="g" d="M289.51,235.05l-0.71.72Z"/><path class="g" d="M293.08,233a4.36,4.36,0,0,0-2.31.69c-0.31.36-.63,0.71-0.95,1.06,0.32-.35.64-0.7,0.95-1.06A4.36,4.36,0,0,1,293.08,233Z"/><path class="g" d="M294,241.37l-0.58.43Z"/><path class="g" d="M293.4,241.8l-0.63.44Z"/><path class="h" d="M291.66,237.57a6.82,6.82,0,0,0-4.22-.53q-0.62.56-1.27,1.09a50.68,50.68,0,0,1-7.33,5c3.58,0.23,4.27,2.84,2.8,5.3a86.82,86.82,0,0,0,10.84-6l0.3-.2A3.78,3.78,0,0,0,291.66,237.57Z"/><path class="i" d="M103.64,527.84h22.91v-4.56h40.14v4.56H294.22v-4.56h40.15v4.56h22.76c4.3,0,7.78-3.07,7.78-6.85V364.16c0-3.78-3.48-6.85-7.78-6.85H103.78c-4.3,0-7.78,3.07-7.78,6.85V521C96,524.73,99.41,527.77,103.64,527.84Z"/><path class="i" d="M365.4,532.67h-271c-5.21,0-9.44,3.07-9.44,6.85V541c0,3.78,4.23,6.85,9.44,6.85h271c5.21,0,9.43-3.07,9.43-6.85v-1.45C374.84,535.74,370.61,532.67,365.4,532.67Z"/><rect class="i" x="128" y="524.79" width="37.26" height="6.88"/><rect class="j" x="295.64" y="524.79" width="37.27" height="6.88"/><rect class="j" x="128" y="524.79" width="37.26" height="6.88"/><path class="k" d="M243.55,468.42V469h-2.94v1.84h2v0.55h-2v2h3.13v0.55h-3.86V468.6h3.68v-0.18Z"/><path class="k" d="M245,473.75v-5.33h0.74v4.78h2.94v0.55H245Z"/><path class="k" d="M253.3,468.42V469h-2.94v1.84h2v0.55h-2v2h3.13v0.55h-3.86V468.6h3.68v-0.18Z"/><path class="k" d="M254,468.42h0.74l1.47,4.41h0l1.47-4.41h0.74l-1.84,5.33h-0.55Z"/><path class="k" d="M258.08,473.75l1.84-5.33h0.92l1.84,5.33h-0.74l-0.55-1.65h-2l-0.55,1.65h-0.74Zm1.47-2.21h1.84l-0.92-2.76h0Z"/><path class="k" d="M264.88,469v4.78h-0.74V469h-1.84v-0.55h4.41V469h-1.84Z"/><path class="k" d="M268.56,468.42v5.33h-0.74v-5.33h0.74Z"/><path class="k" d="M270.58,473.75v-5.33h0.92l2.57,4h0v-4h0.55v5.33h-0.55L271.13,469h0v4.78h-0.55Z"/><path class="k" d="M280.51,471.17v2.57H280V473.2h0a1,1,0,0,1-.74.37,1.66,1.66,0,0,1-.92.18,1.38,1.38,0,0,1-.92-0.18,2.54,2.54,0,0,1-.74-0.55,4,4,0,0,1-.55-0.92,4.6,4.6,0,0,1,0-2.57c0.18-.37.37-0.55,0.55-0.92a2.54,2.54,0,0,1,.74-0.55,1.66,1.66,0,0,1,.92-0.18H279c0.18,0,.37.18,0.55,0.18l0.55,0.55a2.7,2.7,0,0,1,.37.74l-0.55.18a4,4,0,0,0-.55-0.92,1.38,1.38,0,0,0-.92-0.18,0.68,0.68,0,0,0-.55.18,1,1,0,0,0-.55.37,1,1,0,0,0-.37.74,3.4,3.4,0,0,0,0,2.21,2.7,2.7,0,0,0,.37.74,1,1,0,0,0,.55.37c0.18,0,.37.18,0.55,0.18A0.68,0.68,0,0,0,279,473a0.64,0.64,0,0,0,.37-0.18,0.37,0.37,0,0,0,.18-0.37v-0.92H278.3V471h2.21v0.18Z"/><path class="k" d="M288.23,468.42V469h-2.94v1.84h2v0.55h-2v2h3.13v0.55h-3.86V468.6h3.68v-0.18Z"/><path class="k" d="M289.7,473.75H289l1.84-2.76-1.65-2.57h0.74l1.29,2,1.29-2h0.74L291.54,471l1.84,2.76h-0.74l-1.47-2.21Z"/><path class="k" d="M294.3,473.75v-5.33h2a1.66,1.66,0,0,1,.92.18,1,1,0,0,1,.55.37c0.18,0.18.18,0.37,0.37,0.55,0,0.18.18,0.37,0.18,0.55a1.59,1.59,0,0,1-.55,1.1,3.67,3.67,0,0,1-1.65.37H295v2.39H294.3v-0.18Zm0.74-2.94h1.84a0.64,0.64,0,0,0,.37-0.18c0.18,0,.18-0.18.18-0.37v-0.37a1,1,0,0,0-.37-0.74c0-.18-0.37-0.18-0.74-0.18H295v1.84Z"/><path class="k" d="M303.13,468.42V469h-2.94v1.84h2v0.55h-2v2h3.13v0.55h-3.86V468.6h3.68v-0.18Z"/><path class="k" d="M308.46,472.09c0,0.18-.18.55-0.18,0.74-0.18.18-.18,0.37-0.37,0.55s-0.37.18-.55,0.37c-0.18,0-.55.18-0.74,0.18a1.38,1.38,0,0,1-.92-0.18,2.54,2.54,0,0,1-.74-0.55,4,4,0,0,1-.55-0.92,2.73,2.73,0,0,1-.18-1.29,2.33,2.33,0,0,1,.18-1.1c0.18-.37.18-0.55,0.37-0.92a2.54,2.54,0,0,1,.74-0.55,1.66,1.66,0,0,1,.92-0.18,2.66,2.66,0,0,1,1.29.37,2.34,2.34,0,0,1,.74,1.1l-0.55.18c0-.18-0.18-0.37-0.18-0.55a0.4,0.4,0,0,0-.37-0.37,0.37,0.37,0,0,0-.37-0.18h-0.55a0.68,0.68,0,0,0-.55.18,1,1,0,0,0-.55.37,2.7,2.7,0,0,0-.37.74c0,0.37-.18.55-0.18,0.92a1.38,1.38,0,0,0,.18.92,1,1,0,0,0,.37.74,1,1,0,0,0,.55.37,4.17,4.17,0,0,0,.74.18,0.68,0.68,0,0,0,.55-0.18,0.4,0.4,0,0,0,.37-0.37l0.37-.37c0-.18.18-0.37,0.18-0.55Z"/><path class="k" d="M311.4,469v4.78h-0.55V469H309v-0.55h4.23V469H311.4Z"/><path class="k" d="M313.06,473.75l1.84-5.33h0.92l1.84,5.33h-0.74l-0.55-1.65h-2.21l-0.55,1.65h-0.55Zm1.47-2.21h1.84l-0.92-2.76h0Z"/><path class="k" d="M319.86,469v4.78h-0.74V469h-1.84v-0.55h4.23V469h-1.65Z"/><path class="k" d="M323.54,468.42v5.33H322.8v-5.33h0.74Z"/><path class="k" d="M325,471.17a3,3,0,0,1,.55-2,2.23,2.23,0,0,1,3.31,0,3.3,3.3,0,0,1,.55,2,3,3,0,0,1-.55,2,2.23,2.23,0,0,1-3.31,0A3.3,3.3,0,0,1,325,471.17Zm0.55,0a3.67,3.67,0,0,0,.37,1.65,1.43,1.43,0,0,0,1.29.55,1.67,1.67,0,0,0,1.29-.55,2.23,2.23,0,0,0,.37-1.65,3.67,3.67,0,0,0-.37-1.65,1.78,1.78,0,0,0-2.57,0A2.65,2.65,0,0,0,325.56,471.17Z"/><path class="k" d="M331.08,473.75v-5.33H332l2.57,4h0v-4h0.55v5.33h-0.37L331.63,469h0v4.78h-0.55Z"/><path class="k" d="M339.9,469.7c0-.18-0.18-0.18-0.18-0.37a0.7,0.7,0,0,0-.37-0.37c-0.18,0-.18-0.18-0.37-0.18h-0.55a0.89,0.89,0,0,0-.74.18,1,1,0,0,0-.37.55,0.37,0.37,0,0,0,.18.37l0.37,0.37c0.18,0,.37.18,0.55,0.18s0.37,0.18.55,0.18,0.37,0.18.55,0.18a1,1,0,0,1,.55.37,0.7,0.7,0,0,1,.37.37,0.92,0.92,0,0,1,0,1.1,1,1,0,0,1-.37.55c-0.18.18-.37,0.18-0.55,0.37a8,8,0,0,1-.92.18,1.66,1.66,0,0,1-.92-0.18,1,1,0,0,1-.55-0.37l-0.37-.37c-0.18-.18-0.18-0.37-0.37-0.55l0.55-.18a0.64,0.64,0,0,0,.18.37,0.7,0.7,0,0,0,.37.37,0.37,0.37,0,0,0,.37.18h0.55a1.38,1.38,0,0,0,.92-0.18,1,1,0,0,0,.37-0.74,0.68,0.68,0,0,0-.18-0.55c-0.18-.18-0.37-0.18-0.55-0.37s-0.55-.18-0.74-0.37-0.55-.18-0.74-0.37-0.37-.18-0.55-0.37a0.89,0.89,0,0,1-.18-0.74,0.68,0.68,0,0,1,.18-0.55,0.4,0.4,0,0,1,.37-0.37c0.18-.18.37-0.18,0.55-0.37,0.18,0,.55-0.18.74-0.18a2.66,2.66,0,0,1,1.29.37,1.84,1.84,0,0,1,.74.92Z"/><path class="l" d="M131.2,408.29l-2.76,2.57,7.17,7.17a50.11,50.11,0,0,0-4.23,4.6L124,415.27,121.45,418l7.36,25.19a28.13,28.13,0,0,1,6.25-16.92h0a25.06,25.06,0,0,1,4.41-4.41h0a29.24,29.24,0,0,1,13.79-6.07l1.65-.18Z"/><path class="m" d="M221.85,452.6a11.09,11.09,0,0,1-3.86,8.46,12.51,12.51,0,0,1-8.83,3.49,13.26,13.26,0,0,1-8.83-3.13c-1.65-1.47-3.13-2.94-4.41-4.23l4.23-4.23a14.5,14.5,0,0,0,9.19,5.33,5.67,5.67,0,0,0,5.88-5.88c0-2-1.47-3.68-4.41-5.15-2.76-1.29-5.33-2.57-8.09-3.68a9.12,9.12,0,0,1-.55-15.26,13.68,13.68,0,0,1,8.09-2.57c4.6,0,7.91,1.29,10.3,4l-3.86,4.41a10.13,10.13,0,0,0-6.62-2.39,6.35,6.35,0,0,0-3.31.92,3.31,3.31,0,0,0-1.65,2.94,4.31,4.31,0,0,0,2.57,3.68,28.26,28.26,0,0,0,4.41,1.65,15.94,15.94,0,0,1,5,2.57,10.5,10.5,0,0,1,3.68,4,11.4,11.4,0,0,1,.74,2.57A5.43,5.43,0,0,1,221.85,452.6Z"/><path class="m" d="M247.41,438.81c0.18,3.49-.18,6.07-1.29,7.54-0.92,1.65-2.94,3.13-5.7,4.6a32.47,32.47,0,0,1-8.46,1.29v11.4h-6.62l0.18-37.14h6.8a19,19,0,0,1,8.09.74c2.94,1.29,4.78,2.76,5.7,4.6C247,433.48,247.41,435.87,247.41,438.81Zm-5.88.74c-0.18-4.23-2.76-6.62-7.17-7.17h-2.21V445.8h2.39C239.14,445.43,241.53,443.22,241.53,439.55Z"/><path class="m" d="M267.64,426.49l0.18,23.72c0,5.52-1.29,8.09-4,8.09h-5.15v6.07h4.6c7.54,0,11.22-4.78,11.22-14.16V426.49h-6.8Z"/><path class="m" d="M296,463.64H278.3V426.49H296l0.18,6.62H284.92v7.54H295.4v6.44H284.92v9.56h11.22Z"/><path class="m" d="M329.61,444.7c0,6.07-2,10.85-6.07,14.16-3.86,3.13-8.83,4.78-15.08,4.78h-9V426.49h8.64c6.07,0,11,1.47,15.08,4.41C327.4,434.21,329.61,438.81,329.61,444.7Zm-6.62.37c0-8.27-5.7-12.5-17.1-12.5v25.19h1.84c4.41,0,7.91-.92,10.67-2.94C321.52,452.6,323,449.29,323,445.06Z"/><path class="m" d="M340.46,463.64h-6.62V426.49h6.62v37.14Z"/><path class="m" d="M157.49,471.54h0a27.47,27.47,0,0,0,27.4-27.4h0a27.76,27.76,0,0,0-6.25-17.47V443h0v1.1h0a21,21,0,0,1-21.15,21.15h0a21.15,21.15,0,0,1-21.15-21.15h0a21.1,21.1,0,0,1,16.92-20.59h0v-6.44a27.32,27.32,0,0,0-23,27h0A27.19,27.19,0,0,0,157.49,471.54Z"/><path class="m" d="M145.91,444.14a12.34,12.34,0,0,0,3.31,8.27,11.52,11.52,0,0,0,8.27,3.31h0a11.5,11.5,0,0,0,11.58-11.4h0V419.14a24.86,24.86,0,0,0-6.25-2v27.21h0a5.34,5.34,0,0,1-5.33,5.33h0a5.13,5.13,0,0,1-3.68-1.47,5.47,5.47,0,0,1-1.47-3.68h-6.44v-0.37Z"/><path class="m" d="M178.64,426.86v17.47h0a21,21,0,0,1-21.15,21h0a21.15,21.15,0,0,1-21.15-21.15h0a21.1,21.1,0,0,1,16.92-20.59v-6.44a27.32,27.32,0,0,0-23,27h0a27.47,27.47,0,0,0,27.4,27.4h0a27.47,27.47,0,0,0,27.4-27.4h0A28.07,28.07,0,0,0,178.64,426.86Z"/><path class="k" d="M186.36,442.86v1.47h0a28.92,28.92,0,0,1-28.87,28.87,30.07,30.07,0,0,1-4-.37l2.21,2.57a32.4,32.4,0,0,0,20-6.07,25.13,25.13,0,0,0,4.6-4.23,30.78,30.78,0,0,0,8.27-19.31Z"/><path class="k" d="M169.08,413.25L167.42,411h0a3,3,0,0,0-2.21-.92,3.22,3.22,0,0,0-3.13,3.13,3.86,3.86,0,0,0,.74,2h0a24.86,24.86,0,0,1,6.25,2v-4Z"/><path class="k" d="M131.2,408.29l-2.76,2.57,7.17,7.17a50.11,50.11,0,0,0-4.23,4.6L124,415.27,121.45,418l7.36,25.19a28.13,28.13,0,0,1,6.25-16.92h0a25.06,25.06,0,0,1,4.41-4.41h0a29.24,29.24,0,0,1,13.79-6.07l1.65-.18Z"/><rect class="i" x="385.2" y="145.06" width="183.21" height="175.57" rx="19.32" ry="19.32"/><path class="n" d="M404.52,145.06H549.09a19.38,19.38,0,0,1,19.32,19.32v11.88H385.2V164.38A19.38,19.38,0,0,1,404.52,145.06Z"/><path class="o" d="M439,131.4h0a4.66,4.66,0,0,1,4.64,4.64v23.62a4.66,4.66,0,0,1-4.64,4.64h0a4.66,4.66,0,0,1-4.64-4.64V136A4.66,4.66,0,0,1,439,131.4Z"/><path class="o" d="M514.57,131.4h0a4.66,4.66,0,0,1,4.64,4.64v23.62a4.66,4.66,0,0,1-4.64,4.64h0a4.66,4.66,0,0,1-4.64-4.64V136A4.66,4.66,0,0,1,514.57,131.4Z"/><path class="p" d="M473.36,220.59V228c0,8.69-5.84,14.46-14.46,14.46S444.44,236.7,444.44,228V202.68c0-8.77,5.77-14.46,14.38-14.46s14,5.54,14.24,14.38H462.87c-0.3-2.77-1.5-4.5-4-4.5s-4.12,1.35-4.12,4.42v6.59a9.94,9.94,0,0,1,5.92-1.87C468.26,207.25,473.36,212.95,473.36,220.59Zm-10.26.75c0-3-1.5-4.79-4.12-4.79s-4.27,1.8-4.27,4.79v6.59c0,2.92,1.57,4.65,4.2,4.65s4.2-1.72,4.2-4.65v-6.59Z"/><path class="p" d="M479,226.51V204.33c0-10,5.62-16,15.06-16s15.13,5.92,15.13,16v22.18c0,10-5.62,15.81-15.13,15.81S479,236.47,479,226.51Zm20.45,0V204.33c0-4.27-1.87-6.52-5.39-6.52s-5.32,2.25-5.32,6.52v22.18c0,4.2,1.8,6.37,5.32,6.37S499.43,230.7,499.43,226.51Z"/><path class="p" d="M410.2,251.31h14.38c10.56,0,16.78,6.44,16.78,17.38V286c0,11.16-6.14,17.76-16.63,17.76H410.2V251.31Zm14.53,42.33c3.82,0,5.84-2.62,5.84-7.64V268.7c0-4.79-2-7.27-5.84-7.27h-3.9v32.22h3.9Z"/><path class="p" d="M467.59,295.07H456.5l-1.72,8.69h-11l12.59-52.44h11.39l12.59,52.44h-11ZM465.49,285l-1.2-6c-0.67-3.75-1.57-10.11-2.1-14.38h-0.3c-0.52,4.27-1.35,10.64-2.1,14.38l-1.2,6h6.89Z"/><path class="p" d="M489.69,288.17l-12.36-36.86h11l4.27,14.53c0.52,1.72,1.72,5.84,2.25,8.39h0.3c0.6-2.55,1.8-6.67,2.4-8.62l4.12-14.31h11l-12.36,36.86v15.58H489.69V288.17Z"/><path class="p" d="M513.59,288.47h10.94c0,4.2,2.1,6,5.47,6,3.52,0,5.24-2,5.24-4.65,0-8.69-20.53-9.74-20.53-25.7,0-8,5.62-13.86,15.28-13.86S545.5,256,545.5,265.7H534.57c0-3.45-1.57-5.17-4.65-5.17-2.77,0-4.42,1.5-4.42,3.9,0,8.24,20.83,8.77,20.83,25.47,0,8.62-6.07,14.91-16.48,14.91C519.88,304.81,513.59,299,513.59,288.47Z"/></svg>