<svg xmlns="http://www.w3.org/2000/svg" viewBox="0 0 630 630"><defs><style>.a{fill:#4e4e4e;}.b{fill:#616161;}.c{fill:#747474;}.d{fill:#fff;}.e{fill:#dfdfdf;}.f{fill:#8fd8ca;}.g{fill:#f7f7f7;}</style></defs><title>All-icons</title><path class="a" d="M528.87,485.32H101c-4.75,0-9.77-2.4-10.28-9.37v-6.41L137.54,383a14.91,14.91,0,0,1,13.35-8.28H478.34c6.11,0,19.58,12,22.32,17.5L539.29,471v2.83C539.38,482,534.08,485.32,528.87,485.32Z"/><path class="b" d="M528.91,476.26H101c-4.75,0-12.57-4.17-9.63-9.29l46.19-93a14.91,14.91,0,0,1,13.35-8.28H478.37a16.13,16.13,0,0,1,14.43,8.92l45.73,91.5C541.73,471.9,534.12,476.26,528.91,476.26Z"/><rect class="c" x="139.09" y="144.68" width="350.4" height="221.42" rx="8.09" ry="8.09"/><rect class="d" x="152.54" y="156.76" width="323.37" height="191.86"/><path class="e" d="M377,472.23H250.91a2.27,2.27,0,0,1-2.24-2.63L254,436.39a3.69,3.69,0,0,1,3.65-3.11H371.34a3.25,3.25,0,0,1,3.21,2.78l4.87,33.4A2.46,2.46,0,0,1,377,472.23Z"/><path class="e" d="M169.95,385.54H156.27c-1.91,0-3.22-.56-2.94-1.26l0.83-2c0.28-.68,2-1.24,3.92-1.24H171.6c1.89,0,3.22.55,3,1.24l-0.73,2C173.6,385,171.86,385.54,169.95,385.54Z"/><path class="e" d="M193,385.54H179.34c-1.91,0-3.26-.56-3-1.26l0.71-2c0.24-.68,2-1.24,3.85-1.24H194.4c1.89,0,3.25.55,3,1.24l-0.61,2C196.64,385,194.93,385.54,193,385.54Z"/><path class="e" d="M216.09,385.54H202.41c-1.91,0-3.29-.56-3.09-1.26l0.59-2c0.2-.68,1.89-1.24,3.77-1.24h13.52c1.89,0,3.28.55,3.12,1.24l-0.49,2C219.68,385,218,385.54,216.09,385.54Z"/><path class="e" d="M239.16,385.54H225.48c-1.91,0-3.32-.56-3.16-1.26l0.47-2c0.16-.68,1.81-1.24,3.7-1.24H240c1.89,0,3.32.55,3.19,1.24l-0.36,2C242.71,385,241.07,385.54,239.16,385.54Z"/><path class="e" d="M262.23,385.54H248.55c-1.91,0-3.36-.56-3.24-1.26l0.35-2c0.12-.68,1.74-1.24,3.63-1.24h13.52c1.89,0,3.35.55,3.27,1.24l-0.24,2C265.75,385,264.14,385.54,262.23,385.54Z"/><path class="e" d="M285.3,385.54H271.62c-1.91,0-3.39-.56-3.31-1.26l0.23-2c0.08-.68,1.67-1.24,3.55-1.24h13.52c1.89,0,3.38.55,3.34,1.24l-0.12,2C288.79,385,287.21,385.54,285.3,385.54Z"/><path class="e" d="M308.37,385.54H294.69c-1.91,0-3.42-.56-3.39-1.26l0.11-2c0-.68,1.6-1.24,3.48-1.24h13.52c1.89,0,3.41.55,3.41,1.24v2C311.83,385,310.28,385.54,308.37,385.54Z"/><path class="e" d="M331.44,385.54H317.76c-1.91,0-3.46-.56-3.46-1.26v-2c0-.68,1.52-1.24,3.41-1.24h13.52c1.89,0,3.45.55,3.49,1.24l0.12,2C334.86,385,333.35,385.54,331.44,385.54Z"/><path class="e" d="M354.51,385.54H340.83c-1.91,0-3.49-.56-3.53-1.26l-0.13-2c0-.68,1.45-1.24,3.34-1.24H354c1.89,0,3.48.55,3.56,1.24l0.24,2C357.9,385,356.42,385.54,354.51,385.54Z"/><path class="e" d="M377.58,385.54H363.9c-1.91,0-3.52-.56-3.61-1.26l-0.25-2c-0.08-.68,1.38-1.24,3.26-1.24h13.52c1.89,0,3.51.55,3.63,1.24l0.36,2C380.94,385,379.49,385.54,377.58,385.54Z"/><path class="e" d="M400.65,385.54H387c-1.91,0-3.56-.56-3.68-1.26l-0.37-2c-0.12-.68,1.3-1.24,3.19-1.24h13.52c1.89,0,3.54.55,3.7,1.24l0.48,2C404,385,402.56,385.54,400.65,385.54Z"/><path class="e" d="M423.73,385.54H410c-1.91,0-3.59-.56-3.76-1.26l-0.49-2c-0.16-.68,1.23-1.24,3.12-1.24h13.52c1.89,0,3.58.55,3.78,1.24l0.6,2C427,385,425.63,385.54,423.73,385.54Z"/><path class="e" d="M446.8,385.54H433.12c-1.91,0-3.62-.56-3.83-1.26l-0.61-2c-0.2-.68,1.16-1.24,3-1.24h13.52c1.89,0,3.61.55,3.85,1.24l0.72,2C450.05,385,448.7,385.54,446.8,385.54Z"/><path class="e" d="M469.87,385.54H456.19c-1.91,0-3.66-.56-3.9-1.26l-0.73-2c-0.24-.68,1.09-1.24,3-1.24H468c1.89,0,3.64.55,3.92,1.24l0.84,2C473.09,385,471.77,385.54,469.87,385.54Z"/><path class="e" d="M168.69,393.2H151.23c-0.43,0-.73-0.13-0.67-0.29l2.59-6.39a1.11,1.11,0,0,1,.89-0.28h17.15c0.43,0,.73.13,0.67,0.28l-2.28,6.39A1.07,1.07,0,0,1,168.69,393.2Z"/><path class="e" d="M200.92,401.57H183.09c-0.44,0-.76-0.14-0.71-0.31l2.12-6.65a1,1,0,0,1,.88-0.29H202.9c0.44,0,.75.13,0.71,0.29l-1.81,6.65A1,1,0,0,1,200.92,401.57Z"/><path class="e" d="M203.83,410.31h-18.2c-0.45,0-.78-0.14-0.72-0.32l2.13-6.94a1,1,0,0,1,.9-0.31H205.8c0.45,0,.77.14,0.73,0.31l-1.8,6.94A1,1,0,0,1,203.83,410.31Z"/><path class="e" d="M214.08,419.43h-18.6c-0.46,0-.8-0.15-0.75-0.33l2-7.24a1,1,0,0,1,.91-0.32H215.9c0.45,0,.79.14,0.75,0.32L215,419.1A1,1,0,0,1,214.08,419.43Z"/><path class="e" d="M155.39,430h-19c-0.5,0-.85-0.17-0.76-0.37l3.49-8.6a1.26,1.26,0,0,1,1-.36h18.55c0.49,0,.84.16,0.77,0.36l-3.08,8.6A1.22,1.22,0,0,1,155.39,430Z"/><path class="e" d="M180.71,430h-19c-0.5,0-.85-0.17-0.78-0.37l3-8.6a1.19,1.19,0,0,1,1-.36h18.55c0.49,0,.85.16,0.79,0.36l-2.58,8.6A1.16,1.16,0,0,1,180.71,430Z"/><path class="e" d="M205.26,430h-19c-0.5,0-.86-0.17-0.8-0.37l2.5-8.6a1.13,1.13,0,0,1,1-.36h18.55c0.49,0,.85.16,0.81,0.36l-2.09,8.6A1.1,1.1,0,0,1,205.26,430Z"/><path class="e" d="M236.21,430h-25c-0.58,0-1-.19-0.94-0.42l2-8.5a1.22,1.22,0,0,1,1.12-.41h24.48c0.56,0,1,.18,1,0.41l-1.46,8.5A1.17,1.17,0,0,1,236.21,430Z"/><path class="e" d="M390.1,430h-25a1.11,1.11,0,0,1-1.09-.42l-1-8.5c0-.22.41-0.41,1-0.41h24.48a1.16,1.16,0,0,1,1.09.41l1.53,8.5C391.11,429.84,390.68,430,390.1,430Z"/><path class="e" d="M415.43,430H396.74a1,1,0,0,1-1-.37l-1.64-8.6c0-.2.33-0.35,0.82-0.35h18.29a1.07,1.07,0,0,1,1,.35l2,8.6C416.3,429.86,415.93,430,415.43,430Z"/><path class="e" d="M358.85,430H243.41c-1.21,0-2.13-.4-2-0.89l1.24-7.58c0.08-.47,1.1-0.86,2.28-0.86h113c1.18,0,2.19.38,2.24,0.86l0.84,7.58C361,429.63,360.06,430,358.85,430Z"/><path class="e" d="M238.24,419.43h-18.6c-0.46,0-.81-0.15-0.77-0.33l1.59-7.24a1,1,0,0,1,.89-0.32h18.26c0.45,0,.8.14,0.77,0.32l-1.25,7.24A1,1,0,0,1,238.24,419.43Z"/><path class="e" d="M262.39,419.43h-18.6c-0.46,0-.81-0.15-0.78-0.33l1.18-7.24a0.93,0.93,0,0,1,.88-0.32h18.26c0.45,0,.81.14,0.79,0.32l-0.84,7.24A0.9,0.9,0,0,1,262.39,419.43Z"/><path class="e" d="M286.55,419.43h-18.6c-0.46,0-.82-0.15-0.8-0.33l0.77-7.24a0.88,0.88,0,0,1,.86-0.32H287a0.74,0.74,0,0,1,.8.32l-0.43,7.24A0.85,0.85,0,0,1,286.55,419.43Z"/><path class="e" d="M310.71,419.43H292.1a0.76,0.76,0,0,1-.82-0.33l0.36-7.24a0.83,0.83,0,0,1,.84-0.32h18.26a0.79,0.79,0,0,1,.82.32l0,7.24A0.8,0.8,0,0,1,310.71,419.43Z"/><path class="e" d="M334.86,419.43h-18.6a0.8,0.8,0,0,1-.84-0.33l0-7.24a0.78,0.78,0,0,1,.82-0.32h18.26a0.83,0.83,0,0,1,.84.32l0.39,7.24A0.76,0.76,0,0,1,334.86,419.43Z"/><path class="e" d="M359,419.43h-18.6a0.85,0.85,0,0,1-.86-0.33l-0.46-7.24a0.74,0.74,0,0,1,.8-0.32h18.26a0.88,0.88,0,0,1,.86.32l0.81,7.24C359.84,419.28,359.48,419.43,359,419.43Z"/><path class="e" d="M383.18,419.43h-18.6a0.9,0.9,0,0,1-.88-0.33l-0.87-7.24c0-.18.33-0.32,0.78-0.32h18.26a0.93,0.93,0,0,1,.88.32L384,419.1C384,419.28,383.64,419.43,383.18,419.43Z"/><path class="e" d="M407.34,419.43h-18.6a1,1,0,0,1-.9-0.33l-1.28-7.24c0-.18.31-0.32,0.77-0.32h18.26a1,1,0,0,1,.9.32l1.63,7.24C408.14,419.28,407.8,419.43,407.34,419.43Z"/><path class="e" d="M437.82,430.17h-14.5c-1.84,0-3.49-.61-3.67-1.35l-0.53-2.17c-0.18-.74,1.15-1.33,3-1.33h14.34c1.82,0,3.48.6,3.69,1.33l0.64,2.17C441,429.56,439.67,430.17,437.82,430.17Z"/><path class="e" d="M462.67,430.17h-14.5c-1.84,0-3.52-.61-3.75-1.35l-0.66-2.17c-0.22-.74,1.07-1.33,2.9-1.33H461c1.82,0,3.51.6,3.77,1.33l0.76,2.17C465.79,429.56,464.51,430.17,462.67,430.17Z"/><path class="e" d="M460.8,424.73H446.48c-1.82,0-3.48-.59-3.7-1.32l-0.64-2.12c-0.22-.72,1.07-1.3,2.87-1.3h14.16c1.8,0,3.46.58,3.72,1.3l0.74,2.12C463.89,424.14,462.62,424.73,460.8,424.73Z"/><path class="e" d="M487.51,430.17H473c-1.84,0-3.56-.61-3.82-1.35l-0.78-2.17c-0.27-.74,1-1.33,2.82-1.33h14.34c1.82,0,3.54.6,3.84,1.33l0.89,2.17C490.6,429.56,489.35,430.17,487.51,430.17Z"/><path class="e" d="M227.69,410.31h-18.2c-0.45,0-.79-0.14-0.74-0.32l1.73-6.94a1,1,0,0,1,.88-0.31h17.87c0.45,0,.78.14,0.74,0.31l-1.4,6.94A1,1,0,0,1,227.69,410.31Z"/><path class="e" d="M251.55,410.31h-18.2c-0.45,0-.79-0.14-0.76-0.32l1.33-6.94a0.94,0.94,0,0,1,.86-0.31h17.87c0.45,0,.79.14,0.76,0.31l-1,6.94A0.91,0.91,0,0,1,251.55,410.31Z"/><path class="e" d="M275.41,410.31H257.2c-0.45,0-.8-0.14-0.78-0.32l0.93-6.94a0.89,0.89,0,0,1,.85-0.31h17.87a0.71,0.71,0,0,1,.78.31l-0.6,6.94A0.86,0.86,0,0,1,275.41,410.31Z"/><path class="e" d="M299.12,410.31h-18.2a0.73,0.73,0,0,1-.8-0.32l0.54-6.94a0.84,0.84,0,0,1,.83-0.31h17.87a0.76,0.76,0,0,1,.8.31L299.95,410A0.81,0.81,0,0,1,299.12,410.31Z"/><path class="e" d="M323,410.31h-18.2A0.77,0.77,0,0,1,304,410l0.14-6.94a0.79,0.79,0,0,1,.81-0.31h17.87a0.8,0.8,0,0,1,.81.31l0.19,6.94A0.77,0.77,0,0,1,323,410.31Z"/><path class="e" d="M345.82,410.31h-18.2a0.81,0.81,0,0,1-.83-0.32l-0.24-6.94a0.75,0.75,0,0,1,.8-0.31h17.87a0.84,0.84,0,0,1,.83.31l0.57,6.94A0.73,0.73,0,0,1,345.82,410.31Z"/><path class="e" d="M369.46,410.31h-18.2a0.86,0.86,0,0,1-.85-0.32l-0.63-6.94a0.71,0.71,0,0,1,.78-0.31h17.87a0.89,0.89,0,0,1,.85.31l1,6.94C370.26,410.17,369.91,410.31,369.46,410.31Z"/><path class="e" d="M393.1,410.31h-18.2A0.91,0.91,0,0,1,374,410l-1-6.94c0-.17.32-0.31,0.76-0.31h17.87a0.94,0.94,0,0,1,.87.31l1.36,6.94C393.89,410.17,393.55,410.31,393.1,410.31Z"/><path class="e" d="M416.59,410.31h-18.2a1,1,0,0,1-.89-0.32l-1.42-6.94c0-.17.3-0.31,0.74-0.31H414.7a1,1,0,0,1,.88.31l1.75,6.94C417.38,410.17,417,410.31,416.59,410.31Z"/><path class="e" d="M440.08,410.31h-18.2A1,1,0,0,1,421,410l-1.81-6.94c0-.17.28-0.31,0.73-0.31h17.87a1,1,0,0,1,.9.31l2.14,6.94C440.86,410.17,440.54,410.31,440.08,410.31Z"/><path class="e" d="M431.26,419.43h-18.6a1,1,0,0,1-.92-0.33L410,411.85c0-.18.29-0.32,0.75-0.32h18.26a1,1,0,0,1,.91.32l2,7.24C432.05,419.28,431.72,419.43,431.26,419.43Z"/><path class="e" d="M481.71,410.31H446.56a1.47,1.47,0,0,1-1.27-.44l-2.14-6.71c-0.07-.23.36-0.42,1-0.42h34.51a1.57,1.57,0,0,1,1.28.42l2.74,6.71C482.75,410.11,482.33,410.31,481.71,410.31Z"/><path class="e" d="M485.23,419.43H437.06a1.68,1.68,0,0,1-1.48-.53l-2-6.86c-0.08-.28.44-0.51,1.16-0.51H482a1.84,1.84,0,0,1,1.51.51l2.8,6.86C486.46,419.19,486,419.43,485.23,419.43Z"/><path class="e" d="M180.17,410.31H144.64c-0.63,0-1.05-.2-1-0.44l2.72-6.7a1.58,1.58,0,0,1,1.28-.42h34.88c0.61,0,1.05.19,1,.42l-2.11,6.7A1.47,1.47,0,0,1,180.17,410.31Z"/><path class="e" d="M189.62,419.43H140.75c-0.74,0-1.24-.24-1.12-0.53l2.79-6.86a1.85,1.85,0,0,1,1.52-.51h48c0.72,0,1.25.23,1.17,0.51l-2,6.86A1.68,1.68,0,0,1,189.62,419.43Z"/><path class="e" d="M224.16,401.57H206.33c-0.44,0-.77-0.14-0.72-0.31l1.74-6.65a1,1,0,0,1,.87-0.29h17.51c0.44,0,.76.13,0.73,0.29L225,401.27A1,1,0,0,1,224.16,401.57Z"/><path class="e" d="M247.25,401.57H229.43c-0.44,0-.78-0.14-0.74-0.31l1.37-6.65a0.94,0.94,0,0,1,.85-0.29h17.51c0.44,0,.77.13,0.74,0.29l-1.05,6.65A0.91,0.91,0,0,1,247.25,401.57Z"/><path class="e" d="M270.49,401.57H252.67c-0.44,0-.78-0.14-0.76-0.31l1-6.65a0.89,0.89,0,0,1,.83-0.29h17.51a0.7,0.7,0,0,1,.76.29l-0.67,6.65A0.86,0.86,0,0,1,270.49,401.57Z"/><path class="e" d="M293.73,401.57H275.91a0.71,0.71,0,0,1-.78-0.31l0.61-6.65a0.84,0.84,0,0,1,.82-0.29h17.51a0.74,0.74,0,0,1,.78.29l-0.29,6.65A0.81,0.81,0,0,1,293.73,401.57Z"/><path class="e" d="M316.83,401.57H299a0.75,0.75,0,0,1-.79-0.31l0.23-6.65a0.79,0.79,0,0,1,.8-0.29h17.51a0.78,0.78,0,0,1,.79.29l0.08,6.65A0.77,0.77,0,0,1,316.83,401.57Z"/><path class="e" d="M339.4,401.57H321.58a0.79,0.79,0,0,1-.81-0.31l-0.14-6.65a0.75,0.75,0,0,1,.78-0.29h17.51a0.82,0.82,0,0,1,.81.29l0.45,6.65A0.73,0.73,0,0,1,339.4,401.57Z"/><path class="e" d="M362.83,401.57H345a0.84,0.84,0,0,1-.83-0.31l-0.52-6.65a0.71,0.71,0,0,1,.77-0.29h17.51a0.87,0.87,0,0,1,.83.29l0.83,6.65C363.62,401.44,363.28,401.57,362.83,401.57Z"/><path class="e" d="M386,401.57H368.16a0.89,0.89,0,0,1-.84-0.31l-0.89-6.65c0-.16.31-0.29,0.75-0.29h17.51a0.91,0.91,0,0,1,.84.29l1.21,6.65C386.76,401.44,386.42,401.57,386,401.57Z"/><path class="e" d="M408.74,401.57H390.92a0.93,0.93,0,0,1-.86-0.31l-1.27-6.65c0-.16.3-0.29,0.73-0.29H407a1,1,0,0,1,.86.29l1.58,6.65C409.51,401.44,409.19,401.57,408.74,401.57Z"/><path class="e" d="M432.46,401.57H414.64a1,1,0,0,1-.88-0.31l-1.65-6.65c0-.16.28-0.29,0.72-0.29h17.51a1,1,0,0,1,.88.29l2,6.65C433.22,401.44,432.9,401.57,432.46,401.57Z"/><path class="e" d="M455.13,401.57H437.3a1,1,0,0,1-.9-0.31l-2-6.65c0-.16.26-0.29,0.7-0.29h17.51a1.07,1.07,0,0,1,.89.29l2.34,6.65C455.88,401.44,455.57,401.57,455.13,401.57Z"/><path class="e" d="M478.46,401.57H460.64a1.1,1.1,0,0,1-.91-0.31l-2.4-6.65c-0.06-.16.25-0.29,0.68-0.29h17.51a1.13,1.13,0,0,1,.91.29l2.72,6.65C479.21,401.44,478.91,401.57,478.46,401.57Z"/><path class="e" d="M191.78,393.2H174.32c-0.43,0-.74-0.13-0.69-0.29l2.22-6.39a1.05,1.05,0,0,1,.87-0.28h17.15c0.43,0,.74.13,0.69,0.28l-1.92,6.39A1,1,0,0,1,191.78,393.2Z"/><path class="e" d="M214.17,393.2H196.71c-0.43,0-.75-0.13-0.7-0.29l1.86-6.39a1,1,0,0,1,.86-0.28h17.15c0.43,0,.74.13,0.7,0.28L215,392.9A1,1,0,0,1,214.17,393.2Z"/><path class="e" d="M237.12,393.2H219.66c-0.43,0-.76-0.13-0.72-0.29l1.5-6.39a1,1,0,0,1,.84-0.28h17.15c0.43,0,.75.13,0.72,0.28L238,392.9A0.92,0.92,0,0,1,237.12,393.2Z"/><path class="e" d="M259.49,393.2H242c-0.43,0-.76-0.13-0.73-0.29l1.14-6.39a0.9,0.9,0,0,1,.82-0.28h17.15c0.43,0,.76.13,0.74,0.28l-0.83,6.39A0.87,0.87,0,0,1,259.49,393.2Z"/><path class="e" d="M282.57,393.2H265.12c-0.43,0-.77-0.13-0.75-0.29l0.77-6.39a0.85,0.85,0,0,1,.81-0.28h17.15a0.71,0.71,0,0,1,.75.28l-0.47,6.39A0.82,0.82,0,0,1,282.57,393.2Z"/><path class="e" d="M304.75,393.2H287.3a0.72,0.72,0,0,1-.77-0.29l0.42-6.39a0.81,0.81,0,0,1,.79-0.28h17.15a0.75,0.75,0,0,1,.77.28l-0.11,6.39A0.78,0.78,0,0,1,304.75,393.2Z"/><path class="e" d="M327.8,393.2H310.34a0.76,0.76,0,0,1-.79-0.29l0-6.39a0.76,0.76,0,0,1,.78-0.28h17.15a0.79,0.79,0,0,1,.78.28l0.26,6.39A0.74,0.74,0,0,1,327.8,393.2Z"/><path class="e" d="M350.19,393.2H332.73a0.8,0.8,0,0,1-.8-0.29l-0.31-6.39a0.72,0.72,0,0,1,.76-0.28h17.15a0.83,0.83,0,0,1,.8.28l0.61,6.39A0.7,0.7,0,0,1,350.19,393.2Z"/><path class="e" d="M373.18,393.2H355.72a0.85,0.85,0,0,1-.82-0.29l-0.68-6.39a0.68,0.68,0,0,1,.74-0.28h17.15a0.88,0.88,0,0,1,.82.28l1,6.39C373.95,393.07,373.62,393.2,373.18,393.2Z"/><path class="e" d="M396.13,393.2H378.67a0.9,0.9,0,0,1-.84-0.29l-1-6.39c0-.16.3-0.28,0.73-0.28h17.15a0.93,0.93,0,0,1,.83.28l1.35,6.39C396.89,393.07,396.57,393.2,396.13,393.2Z"/><path class="e" d="M418.85,393.2H401.39a1,1,0,0,1-.85-0.29l-1.41-6.39c0-.16.28-0.28,0.71-0.28H417a1,1,0,0,1,.85.28l1.71,6.39C419.6,393.07,419.28,393.2,418.85,393.2Z"/><path class="e" d="M440.68,393.2H423.22a1,1,0,0,1-.87-0.29l-1.76-6.39c0-.16.27-0.28,0.7-0.28h17.15a1,1,0,0,1,.86.28l2.06,6.39C441.42,393.07,441.11,393.2,440.68,393.2Z"/><path class="e" d="M473.4,393.2H447.29c-1.21,0-2.31-.36-2.46-0.81L443.05,387c-0.14-.44.7-0.79,1.89-0.79H470.6c1.19,0,2.29.35,2.47,0.79l2.19,5.36C475.44,392.83,474.61,393.2,473.4,393.2Z"/><path class="e" d="M175.94,401.57H149.28c-1.23,0-2.08-.38-1.89-0.85l2.26-5.59c0.18-.45,1.31-0.82,2.53-0.82h26.18c1.21,0,2.07.37,1.92,0.82l-1.84,5.59C178.29,401.19,177.17,401.57,175.94,401.57Z"/><rect class="e" x="163.69" y="190.16" width="150.91" height="4.26"/><rect class="e" x="319.11" y="190.16" width="146.54" height="4.26"/><rect class="f" x="163.07" y="199.25" width="47.11" height="28.83"/><rect class="f" x="215.39" y="199.25" width="47.11" height="28.83"/><rect class="f" x="267.71" y="199.25" width="47.11" height="28.83"/><rect class="f" x="423.55" y="198.95" width="42.11" height="28.83"/><rect class="f" x="319.07" y="199.25" width="47.11" height="28.83"/><rect class="f" x="371.39" y="199.25" width="47.11" height="28.83"/><circle class="f" cx="168.97" cy="170.06" r="5.28"/><circle class="e" cx="183.21" cy="170.06" r="5.28"/><circle class="e" cx="197.45" cy="170.06" r="5.28"/><rect class="e" x="163.69" y="235.04" width="63.96" height="2.64"/><rect class="e" x="163.69" y="241.33" width="151.17" height="2.37"/><rect class="e" x="163.69" y="246.75" width="151.17" height="2.37"/><rect class="e" x="163.69" y="252.16" width="151.17" height="2.37"/><rect class="e" x="318.98" y="233.96" width="62.22" height="2.64"/><rect class="e" x="318.98" y="241.33" width="145.83" height="2.37"/><rect class="e" x="318.98" y="246.75" width="145.83" height="2.37"/><rect class="e" x="318.98" y="255.84" width="145.83" height="2.37"/><rect class="e" x="318.98" y="265.02" width="145.83" height="2.37"/><rect class="e" x="318.98" y="271.39" width="145.83" height="2.37"/><rect class="e" x="318.98" y="277.75" width="145.83" height="2.37"/><rect class="e" x="318.98" y="284.11" width="145.83" height="2.37"/><rect class="e" x="318.98" y="290.47" width="145.83" height="2.37"/><rect class="g" x="163.69" y="260.02" width="151.17" height="2.37"/><rect class="g" x="163.69" y="265.02" width="151.17" height="2.37"/><rect class="e" x="164.06" y="304.48" width="151.17" height="2.37"/><rect class="e" x="164.06" y="312.51" width="151.17" height="2.37"/><rect class="e" x="164.07" y="320.54" width="151.17" height="2.37"/><rect class="e" x="164.08" y="326.2" width="257.05" height="2.37"/><rect class="e" x="164.08" y="331.69" width="276.7" height="2.37"/><rect class="e" x="164.08" y="337.53" width="265.8" height="2.37"/><rect class="g" x="164.06" y="271.39" width="151.17" height="2.37"/><rect class="g" x="164.4" y="277.07" width="46.94" height="2.37"/><rect class="g" x="164.4" y="281.27" width="46.94" height="2.37"/><rect class="f" x="164.4" y="288.04" width="45.82" height="11.57"/><rect class="f" x="215.43" y="288.04" width="98.82" height="11.57"/><rect class="f" x="318.71" y="297.82" width="47.82" height="18.49"/><rect class="f" x="371.41" y="297.82" width="46.82" height="18.49"/><rect class="f" x="422.9" y="297.82" width="41.91" height="18.49"/><path class="e" d="M461.32,175.34H213.54a4.72,4.72,0,0,1-4.77-4.67h0a4.72,4.72,0,0,1,4.77-4.67H461.32a4.72,4.72,0,0,1,4.77,4.67h0A4.72,4.72,0,0,1,461.32,175.34Z"/></svg>