<svg xmlns="http://www.w3.org/2000/svg" viewBox="0 0 350 350"><defs><style>.a{fill:#5fa190;}.b{fill:#d4a87b;}.c{fill:#f0c98d;}.d{fill:#b1a48a;}.e{fill:#5b351c;}.f{fill:#3c4045;}.g{fill:#794620;}.h{fill:#3c332c;}.i{fill:#3f6d5e;}.j{fill:#191919;}.k{fill:#fff;}.l{fill:#623f20;}.m{fill:#64686b;}.n{fill:#776658;}.o{fill:#bd7622;}.p{fill:#505050;}</style></defs><title>All-icons</title><path class="a" d="M349,1V349H1V1H349m1-1H0V350H350V0h0Z"/><path class="b" d="M193.82,127v-0.06c0-.18-0.05-0.36-0.08-0.53l0-.11c0-.17-0.06-0.33-0.09-0.5l0-.14-0.1-.48,0-.14-0.11-.46,0-.14-0.12-.45,0-.13-0.13-.45,0-.12-0.14-.46,0-.09-0.16-.47,0,0a24.34,24.34,0,0,0-1-2.5h0l-0.2-.4,0-.09-0.19-.36-0.06-.12-0.18-.33-0.07-.13-0.18-.31-0.08-.14-0.17-.29-0.09-.15-0.17-.28-0.1-.15-0.17-.26-0.1-.15-0.17-.25-0.11-.15-0.17-.24-0.11-.15-0.17-.23-0.11-.15-0.16-.21-0.27-.34-0.1-.12-0.18-.22-0.1-.12-0.18-.21-0.09-.11-0.18-.21-0.09-.1-0.19-.21-0.08-.09-0.2-.21-0.06-.07-0.21-.22-0.05-.05-0.22-.22,0,0-0.24-.24h0a19.45,19.45,0,0,0-2.48-2.09s-7-20.91-32-24.93l-1.11-.17-0.27,0-0.8-.1-0.37,0-0.68-.07-0.39,0-0.62-.05-0.4,0-0.59,0-0.39,0-0.57,0H143.5l-0.85,0h-0.17l-0.65,0-0.31,0-0.49,0-0.33,0-0.44,0-0.34,0-0.41.06-0.33.05-0.39.07-0.32.06-0.38.08-0.31.06-0.39.09-0.28.07-0.61.16-0.28.08-0.34.1-0.3.1-0.29.1-0.3.11-0.27.1-0.29.12-0.25.1-0.29.12-0.23.11-0.28.13-0.21.1-0.28.14-0.17.09q-0.54.29-1,.59l-0.12.08-0.27.18-0.14.09-0.26.18-0.14.1-0.25.19-0.13.1-0.24.19L130,89l-0.24.21-0.08.07a14.36,14.36,0,0,0-1.35,1.36l0,0-0.21.26,0,0-0.2.26,0,0-0.2.26v0a12.83,12.83,0,0,0-2.41,5.64l-0.5,1.09v1h0v0h0v-1l-0.5-1.09a12.91,12.91,0,0,0-2.59-5.88,14.65,14.65,0,0,0-3.9-3.53h0l-0.43-.26,0,0-0.4-.23-0.08,0-0.39-.2-0.12-.06-0.37-.18-0.15-.07-0.36-.16-0.18-.07-0.35-.14-0.21-.08-0.34-.13L114,86l-0.34-.12-0.25-.08-0.34-.11-0.27-.08-0.34-.09-0.29-.07-0.35-.08-0.31-.07-0.35-.08-0.33-.06-0.35-.07-0.35-.06L109.8,85l-0.37,0-0.37,0-0.38,0-0.37,0-0.4,0-0.38,0-0.42,0-0.39,0-0.43,0h-1.36a48.36,48.36,0,0,0-7.41.65c-25,4-32,24.93-32,24.93A25.08,25.08,0,0,0,55.79,135a32.42,32.42,0,0,0,1.12,4.42,11.7,11.7,0,0,0,3.52,5.34h0a10.21,10.21,0,0,0-.71,1.2c-1.81,3.53-3.52,10.68,1.06,15.29a10.58,10.58,0,0,0,4.07,2.58h0q0,0.32.07,0.64h0c0.08,0.65.19,1.31,0.34,2l0,0.08q0.07,0.31.15,0.62v0.05q0.17,0.68.39,1.38l0,0.09,0.2,0.59,0,0.14,0.23,0.59,0,0.09q0.28,0.68.62,1.37l0.08,0.15,0.28,0.53,0.09,0.16,0.34,0.58,0,0.08q0.21,0.34.44,0.67l0,0.07,0.41,0.57,0.12,0.16,0.39,0.5,0.13,0.16,0.52,0.6,0,0q0.29,0.32.6,0.63l0.1,0.1L71.13,177l0.16,0.14,0.55,0.47L72,177.75q0.71,0.58,1.52,1.13L73.61,179l0.7,0.45,0.17,0.11L75.26,180l0.1,0.06q0.93,0.5,2,.95L77.46,181l0.93,0.37,0.17,0.06q0.83,0.31,1.72.58t1.85,0.51l0.14,0,1.19,0.26,0.14,0L85,183.12c-0.47-.08.63,0.44,0.63,0.44a40,40,0,0,0,9.17,5.3,56.44,56.44,0,0,0,14.65,4.28h0q1.83,0.29,3.6.47l0.43,0,6,11.92a53.74,53.74,0,0,0,11.13-.27c0.12-.22,1-1.71,2.07-3.75,1.51-2.9,3.38-6.71,4-8l0.36,0c0.84-.1,1.68-0.21,2.54-0.34h0a56.65,56.65,0,0,0,15-4.34,54.14,54.14,0,0,0,9.17-5.29l0.68-.46h0l0.32-.06h0l-0.11.07h0l1.37-.25,0.14,0,1.19-.26,0.14,0a31.39,31.39,0,0,0,3.57-1.09l0.17-.06,0.93-.37,0.14-.06q1-.45,2-0.95l0.1-.06,0.77-.44,0.17-.11,0.7-.45,0.12-.08q0.81-.54,1.52-1.13l0.14-.11,0.55-.47,0.16-.14,0.53-.51,0.1-.1q0.31-.31.6-0.63l0,0,0.52-.6,0.13-.16,0.39-.5,0.12-.16,0.41-.57,0-.07q0.23-.34.44-0.67l0-.08,0.34-.58,0.09-.16,0.28-.53,0.08-.15q0.34-.68.62-1.37l0-.09,0.23-.59,0-.14,0.2-.59,0-.09q0.22-.7.39-1.38v-0.05q0.08-.31.15-0.62l0-.08c0-.21.08-0.42,0.12-0.62v-0.06c0-.18.06-0.35,0.09-0.53,0.08-.49.14-1,0.19-1.43h0v-0.11c0.23-.09.46-0.18,0.7-0.28a10.63,10.63,0,0,0,2.83-1.94l0.27-.25c4.58-4.61,2.87-11.76,1.06-15.29a10.62,10.62,0,0,0-.62-1.06h0l0.18-.13h0a11.6,11.6,0,0,0,3.43-5.11l0.09-.23,0.11-.36a32.29,32.29,0,0,0,1-4.06l-0.33.36h0l0-.08c0-.18.06-0.36,0.09-0.53l0-.26q0-.27.08-0.53l0-.25q0-.26.06-0.53l0-.24q0-.26.05-0.53l0-.21c0-.18,0-0.36,0-0.54v-0.18c0-.19,0-0.37,0-0.56s0-.08,0-0.12c0-.2,0-0.4,0-0.6h0A24.92,24.92,0,0,0,193.82,127Z"/><path class="c" d="M175.36,235.31l-0.1-.26h0c-2.85-7.26-9.11-22.34-11.67-32.63,0-.1-0.06-0.2-0.08-0.31a13.29,13.29,0,0,0-1-2.67l0,0h0v0c-0.11-.25-0.24-0.48-0.37-0.71l-0.07-.13c-0.13-.22-0.27-0.43-0.41-0.64l-0.1-.14c-0.15-.2-0.3-0.4-0.46-0.58l-0.1-.11q-0.23-.26-0.48-0.51l-0.07-.07c-0.18-.17-0.36-0.33-0.54-0.49l-0.14-.11-0.55-.43-0.15-.11-0.59-.39-0.11-.07-0.56-.32-0.12-.06-0.62-.3-0.15-.07-0.62-.26-0.13-.05-0.65-.22h0l-0.64-.18-0.09,0a26.11,26.11,0,0,0-4.29-.33,14,14,0,0,0-1.65.08l-9.16.06h0c-0.85.13-1.7,0.24-2.54,0.34l-0.36,0c-0.53,1.05-3.35,6.46-6.09,11.73a60.62,60.62,0,0,1-11.13.27l-6-11.92-0.43,0q-1.77-.19-3.6-0.47H97.3c-0.48.06-1,.17-1.54,0.29a11.87,11.87,0,0,0-8.59,6.85,15.55,15.55,0,0,0-.79,2.15c-2.86,9.89-8.63,24.56-11.47,32.13l-0.07.17-0.08.08-0.2.21-0.11.13-0.2.23-0.1.13-0.19.24-0.1.14-0.18.25-0.09.14-0.16.25-0.09.16-0.14.25-0.09.17-0.13.25-0.09.19-0.11.24-0.09.22-0.09.22-0.08.24-0.07.21-0.08.27-0.06.19c0,0.1,0,.2-0.07.3l0,0.18c0,0.11,0,.21-0.06.32l0,0.16c0,0.11,0,.23,0,0.34s0,0.1,0,.15,0,0.24,0,.36,0,0.09,0,.13,0,0.24,0,.36,0,0.1,0,.15a9.69,9.69,0,0,0,1.56,5.28,5.91,5.91,0,0,0,1.18,1.49c0.2,0.21.41,0.4,0.63,0.59-0.06-.15,8.73,2.1,8.73,2.1a9.7,9.7,0,0,0,7.23-11.18v-0.06h0c0.42-1.43.87-3.13,1.33-5,1.86-7.41,3.92-17.22,4.76-21.32,0.09,12.94.18,27.28,0.18,27.28l0.06,11.6h53V213.85c1,4.58,5.65,21,5.65,21h0c0.63,2.25,1.25,4.31,1.8,5.95h0c0,0.13,0,.25,0,0.38s0,0.25,0,.38a9.74,9.74,0,0,0,16.57,7,6.29,6.29,0,0,0,2.2-3.27,9.72,9.72,0,0,0,.71-3.29c0-.13,0-0.26,0-0.39A9.71,9.71,0,0,0,175.36,235.31Z"/><path class="d" d="M163.58,202.41c0-.1-0.06-0.2-0.08-0.31a13.29,13.29,0,0,0-1-2.67l0,0h0v0c-0.11-.25-0.24-0.48-0.37-0.71l-0.07-.13c-0.13-.22-0.27-0.43-0.41-0.64l-0.1-.14c-0.15-.2-0.3-0.4-0.46-0.58l-0.1-.11q-0.23-.26-0.48-0.51l-0.07-.07c-0.18-.17-0.36-0.33-0.54-0.49l-0.14-.11-0.55-.43-0.15-.11-0.59-.39-0.11-.07-0.56-.32-0.12-.06-0.62-.3-0.15-.07-0.62-.26-0.13-.05-0.65-.22h0l-0.64-.18-0.09,0a9.81,9.81,0,0,0-3.39-.31c-0.19,0-.9,0-0.9,0a14,14,0,0,0-1.65.08l-9.16.06h0c-0.85.13-1.7,0.24-2.54,0.34l-0.36,0c-1.09,2.16-11.78,22.64-11.79,22.66v0l0,0,0-.09-11.36-22.54-0.43,0q-1.77-.19-3.6-0.47H97.3c-0.48.06-1,.17-1.54,0.29a11.87,11.87,0,0,0-8.59,6.85,15.55,15.55,0,0,0-.79,2.15c-2.86,9.89-8.63,24.56-11.47,32.13l0,0.1h0a9.71,9.71,0,0,1,6.86-2.82h0a9.69,9.69,0,0,1,6.82,2.8l0.05,0a9.74,9.74,0,0,1,2.7,5.12h0c0.42-1.43.87-3.13,1.33-5,1.86-7.41,3.92-17.22,4.76-21.32,0.09,12.94.18,27.28,0.18,27.28l0.06,11.6h53V213.85c1,4.58,5.65,21,5.65,21h0c0.63,2.25,1.25,4.31,1.8,5.95h0a9.74,9.74,0,0,1,17.2-5.47C172.56,228.14,166.17,212.82,163.58,202.41Z"/><path class="e" d="M290.79,54.22c-6.56-7-25.64-11.87-50.78-12.17h-5.84c-4,0-8.21.19-12.34,0.49l-1.31.1-0.6.05-1.29.12-0.56.05-1.7.18h-0.11l-1.81.22-0.51.07-1.3.18-0.59.09-1.28.2-0.51.08-1.76.31h-0.06l-1.67.33-0.51.11-1.21.27-0.56.13-1.24.3-0.45.11-1.64.45-0.23.07-1.38.42-0.5.16-1.1.37-0.51.18-1.17.43-0.36.14-1.48.61-0.3.13L193,48.9l-0.46.22-1,.49-0.45.23-1.08.6-0.26.15q-0.65.39-1.28,0.8l-0.31.21-0.91.63-0.4.29-0.81.63-0.36.29q-0.49.41-1,.83l-0.14.12q-0.53.49-1,1l-0.28.3c-0.24.25-.47,0.51-0.69,0.77l-0.32.37q-0.32.39-.62,0.79l-0.27.35c-0.28.38-.55,0.77-0.81,1.18h0A33.07,33.07,0,0,0,178.15,64q-0.14.36-.25,0.72a14.87,14.87,0,0,0-.58,2.58l0,0.23q0,0.21,0,.44t0,0.51c0,0.31,0,.63-0.06,1v0.07q0,0.35,0,.72V70.3c0,0.39,0,.8,0,1.24h0c0,4,.32,9.85.32,20.13v2.21c1,1,1.95,2,2.76,3q0.76,0.89,1.42,1.76h0.13v0.17a42.37,42.37,0,0,1,5.32,9.1,29.64,29.64,0,0,1,6,6.63,28.51,28.51,0,0,1,4.3,21.19,13.54,13.54,0,0,1-.25,1.92,24.88,24.88,0,0,1-.73,3.06v0.08a18.6,18.6,0,0,1-2.72,4.74c1.7,4,2.92,10.42-.19,15.76l2-2,1.77-1.71h0l-0.71,3.26-0.29,1.34-0.82,3.31-5.13,20.65c-0.19.56-.38,1.14-0.55,1.72l0,0.12q-0.26.88-.49,1.77l-6.87,26.95a7.76,7.76,0,1,0,14.58,3.83l7.67-29.74c0,0.3,0,.47,0,0.47l2.13-8.58h0v2.22h0V207.6a5.54,5.54,0,0,0-.55.27l-0.05,0q-0.24.13-.46,0.29l-0.09.06-0.39.31-0.1.09a5.68,5.68,0,0,0-.43.44h0q-0.19.21-.35,0.44a5.61,5.61,0,0,0-1,3.4c0,0.09,0,.18,0,0.27a5.73,5.73,0,0,0,.25,1.29,5.6,5.6,0,0,0,1.68,2.59l1.51,1.31v11h0v1.5l1.55,64.76h-0.18a14,14,0,0,0-2,1.08c-2.35,1.47-6,4.54-6.62,9.66a12.88,12.88,0,0,0-.1,1.6h38l-1.55-70.56h2.44L239.73,308h38a14.24,14.24,0,0,0-.12-1.51c-0.07-.53-0.17-1.16-0.33-1.86-0.08-.35-0.17-0.71-0.28-1.08a14.6,14.6,0,0,0-1.1-2.72,9.28,9.28,0,0,0-8.71-5.16h0.18v-0.16l-1.55-51V182.63h0V182.3h0l0.07,0.27h0v0l10,39.35a7.77,7.77,0,0,0,2.51,4.66l0.12,0.11,0.38,0.3,0.2,0.15,0.36,0.24,0.26,0.16,0.35,0.19,0.31,0.15,0.34,0.15,0.36,0.13,0.33,0.11,0.41,0.1,0.31,0.07,0.48,0.07,0.26,0c0.25,0,.5,0,0.75,0h0a7.82,7.82,0,0,0,7.8-7.8c0-.24,0-0.48,0-0.72,0-.07,0-0.14,0-0.22s0-.33-0.08-0.49l0-.24c0-.17-0.08-0.34-0.13-0.51l0-.17c-0.06-.21-0.14-0.41-0.22-0.6l-0.12-.27-0.16-.34-0.15-.29-0.18-.3-0.17-.27h0l-5.65-22.17-1.66-6.52h0l-0.21-.84v0l-0.06-.24,0.1,0.22-6.45-24.65,0-.08,7.39,8.13h0l3.32-4.2,0,0,4.28-5.53,3.31-4.28h0V75.42s0.08-.8.15-2.11C294.78,68.74,294.86,58,290.79,54.22Z"/><path class="f" d="M177.12,70.3v0Z"/><path class="f" d="M177.14,69.53v0Z"/><polygon class="f" points="290.04 216.33 290.04 216.33 284.39 194.16 290.04 216.33 290.04 216.33"/><path class="f" d="M177.3,67.54l0-.23Z"/><polygon class="f" points="206.69 184.89 206.69 184.89 206.7 184.88 206.69 184.89"/><path class="f" d="M177.9,64.73q0.11-.36.25-0.72Q178,64.37,177.9,64.73Z"/><path class="f" d="M177.2,68.49q0-.26,0-0.51Q177.22,68.23,177.2,68.49Z"/><path class="f" d="M203.25,212.94c0,0.09,0,.18,0,0.27a5.73,5.73,0,0,0,.25,1.29,5.72,5.72,0,0,1-.25-1.29C203.25,213.12,203.25,213,203.25,212.94Z"/><path class="f" d="M181.51,219.08q0.06-.29.15-0.57Q181.57,218.8,181.51,219.08Z"/><path class="f" d="M204.62,209.1h0q-0.19.21-.35,0.44,0.16-.23.35-0.44h0Z"/><path class="f" d="M287,227.75a7.79,7.79,0,0,0,4.39-7c0-.24,0-0.48,0-0.72,0,0.24,0,.48,0,0.72A7.79,7.79,0,0,1,287,227.75Z"/><path class="f" d="M181.38,219.88c0-.22.06-0.45,0.1-0.66C181.44,219.44,181.41,219.66,181.38,219.88Z"/><path class="f" d="M181.33,220.74c0-.24,0-0.47,0-0.7C181.34,220.27,181.33,220.5,181.33,220.74Z"/><path class="f" d="M181.69,218.39c0.06-.2.14-0.4,0.22-0.6C181.83,218,181.76,218.19,181.69,218.39Z"/><polygon class="f" points="276.08 162.1 276.06 162.02 276.06 162.02 276.08 162.1"/><path class="f" d="M204.65,186.39a34.29,34.29,0,0,1-.14,4.42h0l-7.59,29.74h0l7.67-29.77A35.58,35.58,0,0,0,204.65,186.39Z"/><polygon class="f" points="206.69 182.67 206.69 182.66 206.69 182.66 206.69 182.67"/><path class="f" d="M182,217.62c0.09-.19.18-0.39,0.28-0.57C182.16,217.23,182.07,217.43,182,217.62Z"/><polygon class="f" points="274.29 154.31 286.68 165.97 283.45 170.14 286.77 165.94 274.25 154.15 274.29 154.31"/><path class="f" d="M189.71,188l0-.12Z"/><path class="f" d="M282.5,186.77l-0.06-.24a54.54,54.54,0,0,0-3-6A55.44,55.44,0,0,1,282.5,186.77Z"/><polygon class="f" points="196.54 160.82 196.25 162.16 195.43 165.47 196.25 162.16 196.54 160.82"/><path class="f" d="M186.49,59.5c10.7-15.91,40.37-17.3,47.79-17.44l-1.62,0h-0.34c-9.57.35-36,2.57-46,17.39-6,9.82-5.09,16.54-4.76,39.09l0.13,0.17C181.4,76.07,180.45,69.34,186.49,59.5Z"/><polygon class="f" points="195.49 159.27 197.26 157.56 197.26 157.56 195.49 159.27"/><polygon class="f" points="265.79 182.64 265.79 182.64 265.79 182.29 265.79 182.29 265.79 182.64"/><path class="f" d="M291.1,218.57c0,0.17.09,0.34,0.13,0.51C291.19,218.91,291.15,218.74,291.1,218.57Z"/><path class="f" d="M278.53,226.66l-0.12-.11Z"/><path class="f" d="M291.28,219.31q0,0.24.08,0.49Q291.32,219.56,291.28,219.31Z"/><path class="f" d="M279.11,227.11l-0.2-.15Z"/><path class="f" d="M290.55,217.19l0.16,0.34Z"/><path class="f" d="M277,303.51c0.11,0.37.2,0.73,0.28,1.08C277.18,304.25,277.08,303.88,277,303.51Z"/><polygon class="f" points="239.73 307.96 239.73 307.96 238.18 237.4 239.73 307.96"/><path class="f" d="M279.72,227.5l-0.26-.16Z"/><path class="f" d="M290.21,216.6l0.18,0.3Z"/><path class="f" d="M265.86,182.57h0v0h0v0Z"/><polygon class="f" points="206.69 230.87 208.24 295.63 208.24 295.63 206.69 230.87"/><path class="f" d="M281.8,228.33l-0.41-.1Z"/><path class="f" d="M268.11,178.67l0.09-.12Z"/><path class="f" d="M282.59,228.47l-0.48-.07Z"/><path class="f" d="M281.07,228.11l-0.36-.13Z"/><path class="f" d="M270.78,176.2l0.27-.14Z"/><path class="f" d="M271.18,176l0.18-.08Z"/><path class="f" d="M280.38,227.84l-0.31-.15Z"/><path class="f" d="M283.6,228.55c-0.25,0-.5,0-0.75,0C283.1,228.53,283.35,228.55,283.6,228.55Z"/><path class="f" d="M290.83,217.79c0.08,0.2.16,0.4,0.22,0.6C291,218.19,290.91,218,290.83,217.79Z"/><path class="f" d="M206.09,207.9l0.05,0Z"/><path class="f" d="M270.74,176.22a8.21,8.21,0,0,0-2.5,2.27A8.28,8.28,0,0,1,270.74,176.22Z"/><path class="f" d="M277,303.51c-1.05-3.53-3.61-7.88-9.82-7.88h0C273.36,295.63,275.92,300,277,303.51Z"/><polygon class="f" points="286.81 165.97 291.08 160.44 286.81 165.97 286.81 165.97"/><path class="f" d="M208.06,295.63h0s-8.74,3.48-8.74,12.34h0C199.31,299.11,208.06,295.63,208.06,295.63Z"/><polygon class="f" points="265.79 244.46 267.34 295.47 267.34 295.63 267.34 295.63 267.34 295.47 265.79 244.46 265.79 243.56 265.79 182.63 265.79 182.63 265.79 243.56 265.79 244.46"/><path class="f" d="M290.79,54.22C284,47,263.91,42,237.55,42c26.36,0,46.47,5,53.24,12.18,4.07,3.8,4,14.52,3.76,19.1C294.78,68.74,294.86,58,290.79,54.22Z"/><path class="f" d="M205.05,208.66l0.1-.09Z"/><path class="f" d="M205.54,208.25l0.09-.06Z"/><path class="f" d="M271.61,175.81l0.09,0Z"/><polygon class="f" points="282.72 187.64 282.72 187.63 282.72 187.64 282.72 187.64"/><path class="g" d="M277.71,308a14.26,14.26,0,0,0-.12-1.51c-0.07-.53-0.17-1.16-0.33-1.86-0.08-.35-0.17-0.71-0.28-1.08-1.05-3.53-3.61-7.88-9.82-7.88h0.18v-0.16a24,24,0,0,0-3.15-1c0.58-2.66.59-37.37,1.6-50.89V182.63h0v0c-0.49.85-.93,1.4-1.46,1.35-2.44-2-3.72-5-12.24-4.57l-1.51.07c-4.87.07-27.25,0.53-30.82,0.56-8.7.05-13,5.22-13,5.22v-0.43h0v44.49h0v1.5c1,13,4.42,60.56,5.08,63.57a22.8,22.8,0,0,0-3.53,1.18h-0.18s-8.74,3.48-8.74,12.34h38s-4.78-51.11-4.3-60.46,2.76-10.1,2.76-10.1h2.44s2,1.63,2.52,10c0.37,9-1,60.53-1,60.53h38Zm-22.58-18.41a0.57,0.57,0,0,1-.57.54h0a0.57,0.57,0,0,1-.53-0.61q0.16-2.35.3-4.63a0.57,0.57,0,1,1,1.15.07Q255.29,287.21,255.13,289.55Zm7-92.52a0.57,0.57,0,0,1,.57-0.57h0a0.57,0.57,0,0,1,.57.57c0,2.42,0,4.92,0,7.43a0.57,0.57,0,0,1-.57.57h0a0.57,0.57,0,0,1-.57-0.58C262.12,201.94,262.13,199.45,262.13,197Zm-0.23,16.26a0.57,0.57,0,1,1,1.15,0c0,1.61-.1,3.27-0.17,5a0.57,0.57,0,0,1-.57.55h0a0.58,0.58,0,0,1-.56-0.6C261.8,216.56,261.85,214.9,261.9,213.29Zm-0.44,19a0.57,0.57,0,0,1,1.15.06c-0.1,2.1-.22,4.19-0.35,6.22a0.57,0.57,0,0,1-.57.54h0a0.57,0.57,0,0,1-.54-0.61C261.24,236.47,261.35,234.38,261.46,232.28Zm-0.86,13.42a0.57,0.57,0,0,1,1.15.09c-0.14,1.76-.29,3.52-0.45,5.22a0.57,0.57,0,0,1-.57.52h-0.05a0.57,0.57,0,0,1-.52-0.63C260.3,249.21,260.46,247.46,260.59,245.71Zm-1.46,22c0.08-5.27.14-8.51,0.2-9a0.57,0.57,0,0,1,1.14.13c-0.06.51-.13,5-0.19,8.93-0.09,5.51-.15,9.17-0.22,9.72a0.57,0.57,0,0,1-.57.5h-0.07a0.57,0.57,0,0,1-.5-0.64C259,276.73,259.07,271.92,259.14,267.67Zm0.55,14.89a0.57,0.57,0,0,1,1.14.17c-0.36,2.38-.75,4.7-1.16,6.89a0.57,0.57,0,0,1-.56.47H259a0.57,0.57,0,0,1-.46-0.67C258.93,287.23,259.32,284.93,259.68,282.56Zm-2.45,13.11c0.21-.91.41-1.85,0.61-2.8a0.57,0.57,0,0,1,1.12.23c-0.2,1-.41,1.91-0.62,2.82a0.57,0.57,0,0,1-.56.45h-0.13A0.57,0.57,0,0,1,257.23,295.66Zm-1.6-106.21a0.57,0.57,0,0,1,.58-0.57,0.57,0.57,0,0,1,.57.58c0,2.35-.08,4.9-0.13,7.57a0.57,0.57,0,0,1-.57.56h0a0.57,0.57,0,0,1-.56-0.59C255.56,194.35,255.6,191.8,255.63,189.45Zm-0.43,18.62q0-1.32.08-2.57a0.56,0.56,0,0,1,0-.18l0-.89a0.56,0.56,0,0,1,.59-0.56,0.57,0.57,0,0,1,.56.59c-0.09,2.75-.19,5.58-0.3,8.41a0.57,0.57,0,0,1-.57.55h0a0.57,0.57,0,0,1-.55-0.6c0.06-1.54.12-3.07,0.17-4.6A0.57,0.57,0,0,1,255.2,208.08Zm-0.39,18.48a0.57,0.57,0,1,1,1.15,0c-0.15,3.76-.32,7.62-0.51,11.47a0.57,0.57,0,0,1-.57.55h0a0.58,0.58,0,0,1-.56-0.6C254.49,234.17,254.66,230.32,254.81,226.56ZM254,260.23c0-2.51.06-4.87,0.17-6.89a0.57,0.57,0,0,1,1.15.06c-0.11,2-.14,4.35-0.17,6.84,0,2.82-.07,5.73-0.23,8.25a0.57,0.57,0,0,1-.57.54h0a0.57,0.57,0,0,1-.54-0.61C253.94,265.93,254,263,254,260.23Zm-11.44-42h0a0.57,0.57,0,0,1-.55-0.6c0.19-3.84.36-7.7,0.51-11.46a0.57,0.57,0,1,1,1.15,0c-0.15,3.76-.32,7.62-0.51,11.47A0.57,0.57,0,0,1,242.57,218.18Zm1.09,42.35c0-3.26-.16-6.24-0.37-8.86a0.57,0.57,0,1,1,1.14-.09c0.22,2.64.34,5.65,0.38,8.94a0.57,0.57,0,0,1-.57.58h0A0.57,0.57,0,0,1,243.66,260.54Zm1.4,30.27a0.57,0.57,0,0,1-.57.52h-0.05a0.57,0.57,0,0,1-.52-0.62c0-.54.1-1.11,0.15-1.71a0.57,0.57,0,1,1,1.14.1C245.16,289.7,245.11,290.27,245.06,290.81Zm0.95-8.14a0.57,0.57,0,0,1-.57.55h0a0.57,0.57,0,0,1-.54-0.6,25.42,25.42,0,0,0-.27-4.79,33.25,33.25,0,0,1-.33-4.57,0.57,0.57,0,0,1,.57-0.57h0a0.57,0.57,0,0,1,.57.58,32.26,32.26,0,0,0,.33,4.42A26.37,26.37,0,0,1,246,282.67Zm1.89-54.16c0.16-1.69.31-3.44,0.45-5.2a0.57,0.57,0,0,1,1.15.09c-0.14,1.76-.29,3.52-0.45,5.22a0.57,0.57,0,0,1-.57.52h-0.05A0.57,0.57,0,0,1,247.9,228.51Zm2.68-26.7a0.57,0.57,0,0,1-.57.58h0a0.57,0.57,0,0,1-.57-0.57q0-.82,0-1.56a0.57,0.57,0,0,1,.57-0.58,0.58,0.58,0,0,1,.58.57Q250.58,201,250.58,201.81Zm-1.91,70.6a0.57,0.57,0,0,1-.55-0.6c0-.29,0-2.92,0-5.24,0-2.48,0-4.82,0-5.12a0.57,0.57,0,1,1,1.15.05c0,0.27,0,2.72,0,5.08,0,2.56,0,5,0,5.28a0.57,0.57,0,0,1-.57.55h0ZM250,294.6a0.57,0.57,0,0,1-.57.54h0a0.57,0.57,0,0,1-.54-0.6l0.09-1.59a0.57,0.57,0,1,1,1.15.06Zm0-43.17a0.57,0.57,0,0,1-.57.56h0a0.58,0.58,0,0,1-.56-0.59c0.15-4.63.28-9.15,0.37-13.43a0.56,0.56,0,0,1,.59-0.56,0.57,0.57,0,0,1,.56.59C250.29,242.27,250.17,246.8,250,251.43Zm0-37.55h0a0.57,0.57,0,0,1-.57-0.58v-1.43a0.57,0.57,0,0,1,.57-0.57h0a0.57,0.57,0,0,1,.57.58v1.43A0.57,0.57,0,0,1,250,213.88ZM251.71,282a0.57,0.57,0,0,1-.57.54h0a0.57,0.57,0,0,1-.53-0.61q0.16-2.35.3-4.63a0.57,0.57,0,1,1,1.15.07Q251.87,279.67,251.71,282Zm-40.08-48.26h-0.1a0.57,0.57,0,0,1-.47-0.66,31.88,31.88,0,0,1,1.1-4.56,0.57,0.57,0,0,1,1.09.36,30.77,30.77,0,0,0-1.06,4.4A0.57,0.57,0,0,1,211.63,233.76Zm0.88,11.3c0.15-1.49.33-2.89,0.55-4.16a0.57,0.57,0,1,1,1.13.19c-0.21,1.24-.39,2.61-0.54,4.07a0.57,0.57,0,0,1-.57.52H213A0.57,0.57,0,0,1,212.51,245.05Zm1.2,14.21h-0.07a0.57,0.57,0,0,1-.57-0.51q-0.15-1.3-.29-2.61a0.57,0.57,0,1,1,1.14-.12q0.14,1.3.29,2.6A0.57,0.57,0,0,1,213.72,259.26ZM215.49,279h0a0.57,0.57,0,0,1-.57-0.56c0-.29-0.18-2.91-0.33-5.23-0.16-2.47-.31-4.81-0.32-5.11a0.57,0.57,0,0,1,1.15,0c0,0.27.16,2.71,0.32,5.06,0.17,2.56.32,5,.33,5.28A0.57,0.57,0,0,1,215.49,279Zm2.09,10.61h-0.1a0.57,0.57,0,0,1-.56-0.47c-0.22-1.2-.44-2.45-0.65-3.7a0.57,0.57,0,1,1,1.13-.19c0.21,1.25.42,2.49,0.64,3.68A0.57,0.57,0,0,1,217.57,289.61Zm-1-57.41a0.57,0.57,0,1,1,1.15,0q0.05,1.41.11,2.86a0.57,0.57,0,0,1-.55.6h0a0.58,0.58,0,0,1-.58-0.55Q216.58,233.61,216.52,232.2Zm1.87,16.85q-0.13-2.2-.24-4.33a0.57,0.57,0,0,1,1.15-.06q0.12,2.13.24,4.32a0.57,0.57,0,0,1-.54.61h0A0.57,0.57,0,0,1,218.39,249.05Zm1.3,12.43a0.57,0.57,0,0,1-.57-0.54q-0.26-4-.49-7.77a0.57,0.57,0,1,1,1.15-.07q0.23,3.79.49,7.76a0.57,0.57,0,0,1-.54.61h0Zm0.56,5.6a0.57,0.57,0,0,1,.64.5c0.15,1.26.31,2.51,0.48,3.71a0.57,0.57,0,0,1-.49.65H220.8a0.57,0.57,0,0,1-.57-0.49c-0.17-1.21-.33-2.46-0.48-3.73A0.57,0.57,0,0,1,220.25,267.09Zm0.46,31.44h0a0.57,0.57,0,0,1-.57-0.54q-0.13-2.2-.24-4.33a0.57,0.57,0,0,1,1.15-.06q0.12,2.13.24,4.32A0.57,0.57,0,0,1,220.72,298.53Zm0.82-12.06h0a0.57,0.57,0,0,1-.57-0.53q-0.18-2.45-.35-4.84a0.57,0.57,0,1,1,1.15-.08q0.17,2.39.35,4.83A0.57,0.57,0,0,1,221.54,286.47Zm1-50.47h-0.1a0.57,0.57,0,0,1-.47-0.66,31.88,31.88,0,0,1,1.1-4.56,0.57,0.57,0,0,1,1.09.36,30.74,30.74,0,0,0-1.06,4.4A0.57,0.57,0,0,1,222.56,236Zm0.5-17.94a0.57,0.57,0,0,1,1.15,0q0,1.83.07,3.8a0.57,0.57,0,0,1-.56.59h0a0.57,0.57,0,0,1-.57-0.56Q223.09,219.88,223.06,218.06ZM224.42,253h0a0.58,0.58,0,0,1-.58-0.55q-0.06-1.45-.11-2.86a0.57,0.57,0,1,1,1.15,0q0.05,1.41.11,2.86A0.57,0.57,0,0,1,224.42,253Zm1.52,24.74h0a0.57,0.57,0,0,1-.57-0.57c0-3.26-.16-6.24-0.37-8.86a0.57,0.57,0,0,1,1.14-.09c0.22,2.64.34,5.65,0.38,8.94A0.57,0.57,0,0,1,225.94,277.71Zm1.39,18.66h0a0.57,0.57,0,0,1-.57-0.54q-0.12-2.09-.22-4.12l-0.14-2.63a0.57,0.57,0,0,1,1.15-.06l0.14,2.63q0.11,2,.22,4.11A0.57,0.57,0,0,1,227.33,296.36Zm2.37-36.3h0a0.57,0.57,0,0,1-.57-0.55c-0.1-2.43-.17-4.62-0.2-6.7a0.57,0.57,0,1,1,1.15,0c0,2.07.1,4.26,0.2,6.67A0.57,0.57,0,0,1,229.71,260.07ZM230,238a0.57,0.57,0,0,1,.52.63c-0.15,1.5-.26,3.15-0.33,4.9h0l0,0.4a0.57,0.57,0,0,1-.57.55h0a0.57,0.57,0,0,1-.55-0.6l0-.4h0c0.07-1.77.19-3.44,0.34-5A0.58,0.58,0,0,1,230,238Zm-0.08-3.64a31.84,31.84,0,0,1,1.1-4.56h0c0.12-.35.24-0.69,0.36-1a0.57,0.57,0,1,1,1.07.42c-0.12.3-.23,0.62-0.34,0.95h0a30.74,30.74,0,0,0-1.06,4.39,0.57,0.57,0,0,1-.57.48h-0.1A0.57,0.57,0,0,1,229.87,234.32Zm1.19,43.61a0.57,0.57,0,0,1-.57-0.54c-0.07-1.22-.12-2.48-0.16-3.76a0.57,0.57,0,1,1,1.15,0c0,1.27.1,2.52,0.16,3.73a0.57,0.57,0,0,1-.54.6h0Zm1.3,17.21h0a0.57,0.57,0,0,1-.57-0.55c-0.1-2.28-.27-4.93-0.43-7.74l-0.06-.93,0-.82a0.57,0.57,0,0,1,1.15-.07l0,0.82,0.06,0.93c0.17,2.81.33,5.47,0.44,7.75A0.57,0.57,0,0,1,232.36,295.14Zm3.16-75.83a30.76,30.76,0,0,0-1.06,4.4,0.57,0.57,0,0,1-.57.48h-0.1a0.57,0.57,0,0,1-.47-0.66,31.88,31.88,0,0,1,1.1-4.56A0.57,0.57,0,1,1,235.51,219.31Zm4.63,7a0.57,0.57,0,0,1,.95-0.65,13,13,0,0,1,1.49,3.14q0.15,0.43.28,0.9a0.57,0.57,0,0,1-.39.71l-0.16,0a0.57,0.57,0,0,1-.55-0.41q-0.13-.44-0.27-0.85A11.83,11.83,0,0,0,240.15,226.28Z"/><path class="g" d="M273.21,175.43a6.62,6.62,0,0,0-1.51.35l-0.09,0-0.25.1-0.18.08-0.14.06-0.27.14,0,0a8.28,8.28,0,0,0-2.5,2.27l0,0.06-0.09.12a35.43,35.43,0,0,0-2.24,3.87h0l10,39.35A7.79,7.79,0,0,1,290,216.33l-5.65-22.17-1.66-6.52h0l-0.21-.84v0a55.44,55.44,0,0,0-3.05-6.26C277.66,177.52,275.54,175.17,273.21,175.43Zm2,6.09a0.38,0.38,0,0,1,.46.28q0.3,1.26.61,2.6a0.38,0.38,0,0,1-.29.46h-0.09a0.38,0.38,0,0,1-.37-0.3q-0.31-1.34-.61-2.6A0.38,0.38,0,0,1,275.23,181.52ZM274.29,192a0.38,0.38,0,0,1,.47.27L275,193a0.38,0.38,0,0,1-.27.47h-0.1a0.38,0.38,0,0,1-.37-0.29l-0.19-.74A0.38,0.38,0,0,1,274.29,192Zm-0.89,7.46c0.48,1.34,1,2.88,1.45,4.58a0.38,0.38,0,0,1-.26.47h-0.1a0.38,0.38,0,0,1-.37-0.28c-0.47-1.68-1-3.2-1.43-4.53A0.38,0.38,0,1,1,273.41,199.41ZM271,180a0.38,0.38,0,0,1,.46.28c0.55,2.23,1.12,4.59,1.69,7a0.38,0.38,0,0,1-.29.46h-0.09a0.38,0.38,0,0,1-.37-0.3c-0.57-2.42-1.13-4.77-1.68-7A0.38,0.38,0,0,1,271,180Zm1.18,17.13h-0.09a0.38,0.38,0,0,1-.37-0.29l-0.32-1.34a0.38,0.38,0,0,1,.74-0.18l0.32,1.34A0.38,0.38,0,0,1,272.19,197.13Zm-1.88-8.9a0.38,0.38,0,0,1,.47.26L271,189.3a0.38,0.38,0,0,1-.27.47h-0.1a0.38,0.38,0,0,1-.37-0.28l-0.23-.81A0.38,0.38,0,0,1,270.32,188.23Zm6.8,26.38H277a0.38,0.38,0,0,1-.37-0.3c-0.46-2.1-.93-4.07-1.4-5.87a0.38,0.38,0,0,1,.74-0.2c0.48,1.8,1,3.79,1.41,5.9A0.38,0.38,0,0,1,277.11,214.61Zm0.61-9.19h-0.09a0.38,0.38,0,0,1-.37-0.3c-0.57-2.42-1.13-4.77-1.68-7a0.38,0.38,0,0,1,.74-0.18c0.55,2.23,1.12,4.59,1.69,7A0.38,0.38,0,0,1,277.72,205.42Zm-0.86-14a0.38,0.38,0,1,1,.75-0.17q0.64,2.81,1.34,6a0.38,0.38,0,0,1-.29.46h-0.08a0.38,0.38,0,0,1-.37-0.3Q277.5,194.26,276.86,191.45ZM279,211.64H278.9a0.38,0.38,0,0,1-.37-0.3l-0.2-.92a0.38,0.38,0,0,1,.75-0.17l0.2,0.92A0.38,0.38,0,0,1,279,211.64Zm2.43-.77h-0.08a0.38,0.38,0,0,1-.37-0.31c-0.48-2.37-1-4.75-1.47-7.1a0.38,0.38,0,1,1,.75-0.16c0.5,2.35,1,4.74,1.47,7.1A0.38,0.38,0,0,1,281.42,210.87Zm2.05-7.26h-0.07a0.38,0.38,0,0,1-.38-0.32q-0.24-1.38-.49-2.75a0.38,0.38,0,0,1,.75-0.14q0.26,1.37.5,2.76A0.38,0.38,0,0,1,283.47,203.61Zm1.23,5.47a0.38,0.38,0,0,1-.33.43h-0.05a0.38,0.38,0,0,1-.38-0.33q-0.12-.89-0.25-1.78a0.38,0.38,0,1,1,.76-0.11Q284.58,208.19,284.7,209.08ZM281.4,193a0.38,0.38,0,0,1,.46.29c0.23,1.07.46,2.16,0.69,3.27a0.38,0.38,0,0,1-.3.45h-0.08a0.38,0.38,0,0,1-.37-0.31q-0.34-1.66-.69-3.26A0.38,0.38,0,0,1,281.4,193Zm-0.64-3.71a0.38,0.38,0,0,1-.29.46h-0.09a0.38,0.38,0,0,1-.37-0.3q-0.54-2.35-1-4.39a0.38,0.38,0,0,1,.75-0.18Q280.22,187,280.76,189.32Z"/><path class="g" d="M189.13,212.95a7.8,7.8,0,0,1,7.79,7.61l7.59-29.74h0a34.29,34.29,0,0,0,.14-4.42c-0.19-3.65-1.07-8.21-4.19-9.37-5.4-2-9.19,5.22-11.19,13.25l1-4.15c-0.19.56-.38,1.14-0.55,1.72l0,0.12q-0.26.88-.49,1.77l-7,27.31A7.8,7.8,0,0,1,189.13,212.95Zm-0.57-7.48c-0.42,1.82-.93,3.79-1.52,5.87a0.38,0.38,0,0,1-.37.28h-0.1a0.38,0.38,0,0,1-.26-0.47c0.58-2.07,1.09-4,1.51-5.84A0.38,0.38,0,1,1,188.56,205.47Zm1.64,4.41-0.25.9a0.38,0.38,0,0,1-.37.28h-0.1a0.38,0.38,0,0,1-.27-0.47l0.25-.9A0.38,0.38,0,1,1,190.2,209.88Zm1.18-6.69h-0.1a0.38,0.38,0,0,1-.27-0.47c0.63-2.4,1.24-4.75,1.8-7a0.38,0.38,0,0,1,.74.19c-0.56,2.23-1.17,4.58-1.8,7A0.38,0.38,0,0,1,191.38,203.2Zm5,6.58q-0.3.85-.61,1.7a0.38,0.38,0,0,1-.36.25l-0.13,0a0.38,0.38,0,0,1-.23-0.49q0.31-.84.61-1.69A0.38,0.38,0,0,1,196.34,209.78Zm2.21-6.63q-0.42,1.33-.86,2.67a0.38,0.38,0,0,1-.36.26l-0.12,0a0.38,0.38,0,0,1-.24-0.48q0.44-1.33.86-2.66A0.38,0.38,0,1,1,198.55,203.15ZM202,191.91l-0.35,1.33a0.38,0.38,0,0,1-.37.29h-0.1a0.38,0.38,0,0,1-.27-0.47l0.35-1.33A0.38,0.38,0,1,1,202,191.91Zm-1.59-3.51q0.36-1.32.68-2.58a0.38,0.38,0,0,1,.74.19q-0.32,1.25-.68,2.58a0.38,0.38,0,0,1-.37.28h-0.1A0.38,0.38,0,0,1,200.43,188.4Zm-0.09,7.35a0.38,0.38,0,0,1,.26.47c-0.3,1.05-.61,2.13-0.93,3.21a0.38,0.38,0,0,1-.37.27l-0.11,0a0.38,0.38,0,0,1-.26-0.48c0.32-1.08.63-2.15,0.92-3.2A0.38,0.38,0,0,1,200.34,195.75Zm-3-9.8q0.63-2.33,1.16-4.36a0.38,0.38,0,1,1,.74.19q-0.53,2-1.16,4.36a0.38,0.38,0,0,1-.37.28h-0.1A0.38,0.38,0,0,1,197.35,186Zm0.2,6a0.38,0.38,0,0,1,.27.47q-0.75,2.78-1.63,5.93a0.38,0.38,0,0,1-.37.28h-0.1a0.38,0.38,0,0,1-.27-0.47q0.88-3.15,1.63-5.93A0.38,0.38,0,0,1,197.55,192Zm-1.71-4.2a0.38,0.38,0,0,1,.25.48q-0.42,1.33-.86,2.67a0.38,0.38,0,0,1-.36.26l-0.12,0a0.38,0.38,0,0,1-.24-0.48q0.44-1.33.86-2.66A0.38,0.38,0,0,1,195.84,187.76Zm-1.43-5.38,0.18-.74a0.38,0.38,0,1,1,.74.18l-0.18.75a0.38,0.38,0,0,1-.37.29h-0.09A0.38,0.38,0,0,1,194.4,182.39Zm-0.17,21.44a0.38,0.38,0,0,1,.26.47c-0.66,2.3-1.35,4.64-2,7a0.38,0.38,0,0,1-.37.27l-0.11,0a0.38,0.38,0,0,1-.26-0.48c0.69-2.32,1.37-4.66,2-7A0.38,0.38,0,0,1,194.24,203.82Zm-3.35-11.45c0.69-2.32,1.37-4.66,2-7a0.38,0.38,0,1,1,.74.21c-0.66,2.3-1.35,4.64-2,7a0.38,0.38,0,0,1-.37.27l-0.11,0A0.38,0.38,0,0,1,190.89,192.37Zm-1.36,5.16a0.38,0.38,0,0,1,.76.11c-0.2,1.41-.49,3-0.87,4.72a0.38,0.38,0,0,1-.37.3H189a0.38,0.38,0,0,1-.29-0.46C189,200.49,189.33,198.92,189.53,197.53Z"/><path class="h" d="M272.32,152.74L270,155.26l-6.42,6.93-6.48-5.5-2.95-2.5a5.67,5.67,0,0,0,.54,5.39L252,162.87a5.66,5.66,0,0,0-7.25,8.68L241.83,175a5.66,5.66,0,0,0-7.24,8.66l-2.49,3-0.3-.26a5.66,5.66,0,0,0-7.42,8.56l0.46,0.4-2.13,2.55-0.51-.44a5.66,5.66,0,0,0-7.42,8.56l0.66,0.58-2.13,2.55-0.71-.62a5.62,5.62,0,0,0-4.11-1.36,5.69,5.69,0,0,0-1.8.43,5.54,5.54,0,0,0-.55.27l-0.05,0q-0.24.13-.46,0.29l-0.09.06-0.39.31-0.1.09a5.68,5.68,0,0,0-.43.44h0q-0.19.21-.35,0.44a5.61,5.61,0,0,0-1,3.4c0,0.09,0,.18,0,0.27a5.73,5.73,0,0,0,.25,1.29,5.6,5.6,0,0,0,1.68,2.59l1.51,1.31v11h0l5.42-6.31a5.61,5.61,0,0,0,3.31,1.07l0.41,0a5.66,5.66,0,0,0,3.63-9.61l2.19-2.55a5.61,5.61,0,0,0,3.36,1.11l0.41,0A5.66,5.66,0,0,0,229,203.4l2.19-2.55a5.61,5.61,0,0,0,3.41,1.15l0.41,0a5.65,5.65,0,0,0,3.53-9.7l2.54-3,0.21,0.19a5.66,5.66,0,0,0,7.42-8.56l-0.25-.22,1-1.17,1.92-2.23a5.66,5.66,0,0,0,7.37-8.58l2.66-3.1,0.78,0.68a5.66,5.66,0,1,0,7.42-8.56l-0.82-.71,3.34-3.89Z"/><path class="i" d="M208.91,208.22h-0.34a4.59,4.59,0,0,0-2.68,8l0.85,0.74,5.89-7.05-0.72-.63A4.55,4.55,0,0,0,208.91,208.22Z"/><path class="i" d="M215.77,223.06a4.59,4.59,0,0,0,3-7.74l-6,6.93A4.55,4.55,0,0,0,215.77,223.06Z"/><path class="i" d="M222,198.72l-0.52-.45a4.55,4.55,0,0,0-3-1.12h-0.34a4.59,4.59,0,0,0-2.68,8l0.65,0.56Z"/><path class="i" d="M225.36,212a4.59,4.59,0,0,0,3-7.78l-6,6.94A4.54,4.54,0,0,0,225.36,212Z"/><path class="i" d="M231.42,187.48l-0.32-.27a4.59,4.59,0,0,0-6,6.94l0.45,0.39Z"/><path class="i" d="M235,200.92a4.59,4.59,0,0,0,2.91-7.83l-6,6.94A4.56,4.56,0,0,0,235,200.92Z"/><path class="i" d="M248.5,188.25a4.61,4.61,0,0,0-.46-6.48l-0.25-.22-6,7,0.22,0.19A4.6,4.6,0,0,0,248.5,188.25Z"/><path class="i" d="M238.16,175a4.58,4.58,0,0,0-2.88,7.86l5.87-7a4.55,4.55,0,0,0-2.65-.85h-0.34Z"/><path class="i" d="M258.49,176a4.6,4.6,0,0,0-.4-6.42l-6,7A4.6,4.6,0,0,0,258.49,176Z"/><path class="i" d="M248.49,162.72h-0.34a4.59,4.59,0,0,0-2.74,8l5.88-7A4.55,4.55,0,0,0,248.49,162.72Z"/><path class="i" d="M262.93,165.54a4.59,4.59,0,1,0,6-6.94l-0.82-.71-6,7Z"/><path class="i" d="M254.82,156.72a4.59,4.59,0,0,0,.62,2l1.69-2L255,154.92A4.61,4.61,0,0,0,254.82,156.72Z"/><polygon class="h" points="272.64 152.64 272.52 152.52 272.46 152.59 272.59 152.71 272.64 152.64"/><path class="g" d="M290.79,54.22C284,47,263.91,42,237.55,42h-3.27c-7.43.14-37.1,1.54-47.8,17.44-6,9.84-5.09,16.57-4.75,39.26a42.37,42.37,0,0,1,5.32,9.1,29.64,29.64,0,0,1,6,6.63,28.51,28.51,0,0,1,4.3,21.19,13.55,13.55,0,0,1-.25,1.92,24.88,24.88,0,0,1-.73,3.06v0.08a18.6,18.6,0,0,1-2.72,4.74c1.7,4,2.92,10.42-.19,15.76l2-2,1.77-1.71,2.85-2.75,4.07-3.81s5.81,8.41,9.3,12.4l8.28-8.59s4.39-3.85,4.46-3.81,8,8.18,11.87,12.14l8-8.33,4.61-3.55,3.45,2.93,0.86,0.73,2.09,1.77,6.48,5.5,6.42-6.93,2.28-2.52,0.14-.16,0.06-.06,0.12,0.12,1.61,1.51,12.52,11.79,0,0h0l4.28-5.53,3.31-4.28h0V75.42s0.08-.8.15-2.11C294.78,68.74,294.86,58,290.79,54.22Zm-2.67,35.38a1,1,0,0,1-1.91,0V65.89a13.31,13.31,0,0,0-2.71-8.26c-2.47-3.12-9.76-9.55-28.82-12,11.34,4,17.07,10.83,17.15,10.93A15.22,15.22,0,0,1,274.94,66V85.5a1,1,0,0,1-1.91,0V66a13.31,13.31,0,0,0-2.71-8.26c-0.08-.1-6.87-8.2-20.44-11.55a24.59,24.59,0,0,1,7.18,7.13c3.58,5.34,4.79,10.94,4.79,12.68V83.26a1,1,0,0,1-1.91,0V66a26.28,26.28,0,0,0-4.46-11.62,21.15,21.15,0,0,0-11.56-8.8,17.38,17.38,0,0,1,3.6,7.68,56.3,56.3,0,0,1,1.25,12.65V82.15a1,1,0,0,1-1.91,0V65.9a54.48,54.48,0,0,0-1.2-12.2c-1.44-5.93-4-8.94-7.67-8.94-8.94,0-9,21-9,21.23V82.11a1,1,0,0,1-1.91,0V66c0-1.84.19-14.71,5.22-20.43C220.45,49.14,215.84,63.3,215.84,66V83.38a1,1,0,0,1-1.91,0V66c0-1.81,1.54-7.4,5.27-12.7a26.69,26.69,0,0,1,7.12-7c-11.81,3.08-19.65,10-20.86,11.48A13.31,13.31,0,0,0,202.75,66V86.17a1,1,0,0,1-1.91,0V66A15.22,15.22,0,0,1,204,56.55c1.14-1.44,7.82-7.36,18-10.93-21.56,2.83-28.63,10.92-29.49,12a13.31,13.31,0,0,0-2.71,8.26V92.22a1,1,0,0,1-1.91,0V65.89a15.22,15.22,0,0,1,3.12-9.44c1.11-1.4,11.87-13.72,47-13.72,32.65,0,43.76,9.6,47,13.72a15.22,15.22,0,0,1,3.12,9.44V89.59Z"/><circle class="j" cx="205.84" cy="102.02" r="8.07"/><circle class="j" cx="264.32" cy="102.02" r="8.07"/><path class="j" d="M214.94,122.52a1.34,1.34,0,0,0-2.07,1.71c0.32,0.39,8.11,9.64,23.37,9.64s23.21-9.23,23.54-9.63a1.34,1.34,0,1,0-2-1.73c-0.07.09-7.47,8.67-21.49,8.67S215,122.62,214.94,122.52Z"/><path class="j" d="M230.05,114.58c0.72-2,4.13-1.61,4.13.36a2.15,2.15,0,1,0,4.31,0c0-2,3.41-2.33,4.13-.36,0.72,2.87,3.95,3.23,3.95,1.61,0.18-3.95-4.66-7.36-10.23-7.36s-10.41,3.41-10.23,7.36C226.11,117.81,229.34,117.45,230.05,114.58Z"/><path class="f" d="M125.62,215l0,0Z"/><path class="f" d="M73,273.27h0Z"/><path class="f" d="M69.8,267.64l0,0Z"/><polygon class="f" points="132.68 201.47 132.72 201.46 132.72 201.46 132.68 201.47 132.68 201.47"/><path class="f" d="M72,240.94c0-.12,0-0.24,0-0.36C72.06,240.7,72.06,240.82,72,240.94Z"/><path class="f" d="M70.12,267.4l0.05,0Z"/><path class="f" d="M70,267.48l0,0Z"/><rect class="f" x="132.75" y="201.33"/><path class="f" d="M73.27,273.23h0Z"/><path class="f" d="M73.6,273l0,0Z"/><path class="f" d="M72.09,240.43c0-.11,0-0.23,0-0.34C72.12,240.2,72.11,240.32,72.09,240.43Z"/><path class="f" d="M75.3,249.33l0.05,0Z"/><path class="f" d="M72,241.43c0-.12,0-0.24,0-0.36C72,241.19,72,241.31,72,241.43Z"/><path class="f" d="M75.14,249.41l0,0Z"/><path class="f" d="M132.67,202.34l0,0,0,0c0,0.3,0,.61,0,0.93,0,0.82,0,1.71,0,2.66,0-.95,0-1.84,0-2.67h0C132.67,202.94,132.67,202.63,132.67,202.34Z"/><path class="f" d="M128.67,209.57l3.18-5.74-0.8,1.44Z"/><path class="f" d="M75,249.57l0,0Z"/><path class="f" d="M76.45,254.64l0.1,0Z"/><path class="f" d="M76.36,254.7l0.07,0Z"/><path class="f" d="M127.06,212.46l-0.08.14Z"/><path class="f" d="M127.37,211.91l0,0Z"/><path class="f" d="M117.43,201.47l0,0.07,0.39,0.77-0.39-.77Z"/><path class="f" d="M127.79,211.15l-0.13.23Z"/><path class="f" d="M128.17,210.47l-0.23.42Z"/><path class="f" d="M132.34,202.94h0Z"/><path class="f" d="M126.4,213.64v0Z"/><path class="f" d="M128.53,209.82l-0.14.25Z"/><path class="f" d="M126.72,213.07l0,0Z"/><path class="f" d="M124.26,215.08l-2.67-5.33Z"/><path class="f" d="M124.9,216.25v0Z"/><path class="f" d="M125.23,215.71l0,0Z"/><path class="f" d="M125,216.15v0Z"/><path class="f" d="M126.12,214.13l0,0Z"/><path class="f" d="M125.08,215.95l0,0Z"/><path class="f" d="M117.43,201.47l-0.07-.14v0Z"/><path class="f" d="M72.71,238l0.09-.22Z"/><path class="f" d="M73.11,237.1l0.09-.17Z"/><path class="f" d="M72.9,237.54l0.09-.19Z"/><path class="f" d="M73.66,268.59h0Z"/><path class="f" d="M73.35,236.68l0.09-.16Z"/><path class="f" d="M72.17,239.93c0-.11,0-0.21.06-0.32C72.2,239.72,72.18,239.82,72.17,239.93Z"/><path class="f" d="M72.26,239.43c0-.1,0-0.2.07-0.3C72.31,239.24,72.29,239.34,72.26,239.43Z"/><path class="f" d="M132.62,232.66c0,4.8,0,8.13.09,8.13S132.62,237.46,132.62,232.66Z"/><path class="f" d="M72.39,238.94l0.08-.27Z"/><path class="f" d="M72.53,238.47l0.08-.24Z"/><path class="f" d="M73.6,236.27l0.09-.14Z"/><path class="f" d="M120.56,207.69L120,206.55l-0.23-.45,0.23,0.45,0.57,1.14,0.83,1.65,0.2,0.4-0.2-.4Z"/><path class="f" d="M117.86,202.32l1.17,2.32,0.22,0.44-0.22-.44Z"/><path class="f" d="M124.6,215.75l0.23,0.45,0,0.09,0-.09Z"/><path class="f" d="M74.45,235.15l0.11-.13Z"/><path class="f" d="M73.87,235.88l0.1-.14Z"/><path class="f" d="M74.15,235.51l0.1-.13Z"/><path class="f" d="M71.52,267.77h0l-0.92-.36a0.69,0.69,0,0,0-.25,0h0a0.68,0.68,0,0,1,.26,0Z"/><path class="f" d="M156.1,193.84l0.13,0.05Z"/><path class="f" d="M78.7,255.43a0.3,0.3,0,0,1,.19.27,0.3,0.3,0,0,0-.18-0.27l-0.75-.3Z"/><path class="f" d="M155.41,193.6h0Z"/><path class="f" d="M83.39,252.77a0.69,0.69,0,0,0-.43-0.62h0A0.69,0.69,0,0,1,83.39,252.77Z"/><path class="f" d="M88.64,234.67a9.74,9.74,0,0,1,2.7,5.12v0.06a9.78,9.78,0,0,1,.16,1.73h0a9.78,9.78,0,0,0-.16-1.73v-0.06h0A9.74,9.74,0,0,0,88.64,234.67Z"/><path class="f" d="M154.68,193.4l0.09,0Z"/><path class="f" d="M74.89,249.73h0l-1.18,3a0.69,0.69,0,0,0,0,.27,0.68,0.68,0,0,1,0-.27Z"/><path class="f" d="M76.67,254.63l-0.1,0h0l0.12,0h0Z"/><path class="f" d="M74.48,268.93a0.69,0.69,0,0,1,.44.62,0.69,0.69,0,0,0-.44-0.63l-0.92-.36h0Z"/><path class="f" d="M69.7,267.8h0l-1.18,3a0.69,0.69,0,0,0,0,.27,0.69,0.69,0,0,1,0-.27Z"/><path class="f" d="M156.85,194.14l0.15,0.07Z"/><path class="f" d="M76.29,254.8a0.29,0.29,0,0,1,.06-0.09,0.29,0.29,0,0,0-.06.09l-4.93,12.59a0.29,0.29,0,0,0,0,.12,0.29,0.29,0,0,1,0-.11Z"/><path class="f" d="M130.87,245.4h19.83v7.28H130a3.23,3.23,0,0,1-.68.45,3.23,3.23,0,0,0,.68-0.45h20.68V278.9l-18.78,0v0h-6.57v0h0l25.36,0v16s6.73,5.23,6.89,8.34c0.05,1,.07,1.81.07,2.44,0-.63,0-1.44-0.07-2.45-0.16-3.11-6.89-8.34-6.89-8.34V245.4H130.87Z"/><path class="f" d="M175.35,235.3h0a9.71,9.71,0,0,1,2.25,6.23c0,0.13,0,.26,0,0.39,0-.13,0-0.26,0-0.39a9.71,9.71,0,0,0-2.25-6.23h0c-2.8-7.16-9.18-22.48-11.78-32.89l-0.08-.3c0,0.1.06,0.2,0.08,0.31C166.17,212.82,172.56,228.14,175.35,235.3Z"/><path class="f" d="M158.15,240.77c0,0.13,0,.25,0,0.38,0-.13,0-0.25,0-0.38h0Z"/><path class="f" d="M162.44,199.4l0,0,0,0v0h0Z"/><path class="f" d="M97.68,252.68h21.45a3.22,3.22,0,0,0,.68.45,3.22,3.22,0,0,1-.68-0.45H97.68v-7.3h0l-0.06-4.59s-0.27-40.31-.31-46.77h0l0,2.26c0,3.7.07,10.27,0.11,17.24h0v-0.06h0c0,0.06.24,43.25,0.24,43.45v-4.22Z"/><path class="f" d="M97.68,294.94h0s-7,5.23-7.14,8.34c0,0.68-.06,1.27-0.07,1.78,0-.51,0-1.1.07-1.78C90.71,300.16,97.68,294.94,97.68,294.94Z"/><path class="f" d="M97.68,278.91h0Z"/><path class="f" d="M95.64,256.91h0a1.8,1.8,0,0,0-1.8,1.8h0A1.8,1.8,0,0,1,95.64,256.91Z"/><path class="f" d="M99.66,278.92h0Z"/><path class="f" d="M83.2,252.19h0Z"/><path class="f" d="M75.89,249.38l-0.11,0h0a0.68,0.68,0,0,0-.25,0h0a0.68,0.68,0,0,1,.26,0Z"/><path class="f" d="M161.48,197.76l0.1,0.14Z"/><path class="f" d="M73.76,268.57h0Z"/><path class="f" d="M162,198.54l0.07,0.13Z"/><path class="f" d="M83.75,251.92l0,0Z"/><path class="f" d="M73.85,268.51l-0.05,0Z"/><path class="f" d="M73.93,268.41l-0.05.08Z"/><path class="f" d="M82.07,256.21l0,0Z"/><path class="f" d="M81.52,256.48h0Z"/><path class="f" d="M81.74,256.45h0Z"/><path class="f" d="M83.42,252.15h0Z"/><path class="f" d="M118.27,245.4v0a3.12,3.12,0,0,1,2.88-1.92h-0.07a3.12,3.12,0,0,0-2.88,1.92v0h0.07Z"/><path class="f" d="M87.17,200.28a11.87,11.87,0,0,1,8.59-6.85h0a11.87,11.87,0,0,0-8.59,6.85,15.56,15.56,0,0,0-.79,2.15c-2.82,9.76-8.47,24.17-11.36,31.82a2.14,2.14,0,0,0-.11.31c2.84-7.57,8.61-22.24,11.47-32.13A15.56,15.56,0,0,1,87.17,200.28Z"/><path class="f" d="M157.62,194.52l0.12,0.06Z"/><path class="f" d="M158.3,194.9l0.11,0.07Z"/><path class="f" d="M81.74,231.83h0a9.71,9.71,0,0,0-6.86,2.82v0l-0.11.11,0.14-.15A9.71,9.71,0,0,1,81.74,231.83Z"/><path class="f" d="M88.59,234.63a9.69,9.69,0,0,0-6.82-2.8h0A9.69,9.69,0,0,1,88.59,234.63Z"/><path class="f" d="M159.7,195.89l0.14,0.11Z"/><path class="f" d="M159,195.35l0.15,0.11Z"/><path class="f" d="M160.93,197.07l0.1,0.11Z"/><path class="f" d="M160.38,196.49l0.07,0.07Z"/><path class="f" d="M72.4,146.21h0l-0.08,0,0.08,0h0l0.08,0h0Z"/><path class="f" d="M72.57,146.15h0c1.46-.39,3.35-2.79,4.9-5.8C75.92,143.36,74,145.76,72.57,146.15Z"/><polygon class="f" points="124.7 99.29 124.7 99.29 124.7 99.28 124.7 99.29"/><path class="f" d="M164.47,183.12h0l-0.68.46a54.13,54.13,0,0,1-9.17,5.29,56.65,56.65,0,0,1-15,4.34h0a56.65,56.65,0,0,0,15-4.34,54.14,54.14,0,0,0,9.17-5.29l0.68-.46,0.32-.06h0Z"/><polygon class="f" points="124.7 99.28 124.7 99.28 124.7 99.28 124.7 99.28"/><path class="f" d="M121.61,91.29a12.91,12.91,0,0,1,2.59,5.88l0.5,1.09v1h0v-1l-0.5-1.09a12.91,12.91,0,0,0-2.59-5.88,14.66,14.66,0,0,0-3.9-3.53A14.66,14.66,0,0,1,121.61,91.29Z"/><path class="f" d="M72.14,146.3l0.1,0h0Z"/><path class="f" d="M183.6,169.34l0.2-.59,0-.09q0.22-.7.39-1.38v-0.05q0.08-.31.15-0.62l0-.08c0.15-.68.26-1.35,0.34-2h0c0-.21.07-0.61,0.07-0.64,0,0.46-.11.94-0.19,1.43,0,0.18-.06.35-0.09,0.53v0.06c0,0.21-.07.41-0.12,0.62l0,0.08q-0.07.31-.15,0.62v0.05q-0.17.68-.39,1.38l0,0.09-0.2.59,0,0.14-0.23.59,0,0.09q-0.28.68-.62,1.37l-0.08.15-0.28.53-0.09.16-0.34.58,0,0.08q-0.21.34-.44,0.67l0,0.07-0.41.57-0.12.16-0.39.5-0.13.16-0.52.6,0,0q-0.29.32-.6,0.63l-0.1.1-0.53.51-0.16.14-0.55.47-0.14.11q-0.71.58-1.52,1.13l-0.12.08-0.7.45-0.17.11-0.77.44-0.1.06q-0.93.5-2,.95l-0.13.06-0.93.37-0.17.06a31.41,31.41,0,0,1-3.57,1.09l-0.14,0-1.19.26-0.14,0-1.37.25h0l1.37-.25,0.14,0,1.19-.26,0.14,0a31.41,31.41,0,0,0,3.57-1.09l0.17-.06,0.93-.37,0.13-.06q1-.45,2-0.95l0.1-.06,0.77-.44,0.17-.11,0.7-.45,0.12-.08q0.81-.54,1.52-1.13l0.14-.11,0.55-.47,0.16-.14,0.53-.51,0.1-.1q0.31-.31.6-0.63l0,0,0.52-.6,0.13-.16,0.39-.5,0.12-.16,0.41-.57,0-.07q0.23-.34.44-0.67l0-.08,0.34-.58,0.09-.16,0.28-.53,0.08-.15q0.34-.68.62-1.37l0-.09,0.23-.59Z"/><path class="f" d="M183.88,110.26a19.44,19.44,0,0,1,2.48,2.09,19.5,19.5,0,0,0-2.48-2.09s-7-20.91-32-24.93l-1.12-.17,1.12,0.17C176.91,89.35,183.88,110.26,183.88,110.26Z"/><path class="f" d="M177.52,158.78l0,0.13a55.31,55.31,0,0,1-.92,9.91c-0.07.3-.15,0.6-0.23,0.9l-0.1.33-0.09.27h0l0.09-.27,0.1-.33c0.08-.3.16-0.59,0.23-0.9a36.13,36.13,0,0,0,.68-4.75h0C177.41,162.39,177.49,160.59,177.52,158.78Z"/><path class="f" d="M127.61,91.52v0Z"/><path class="f" d="M148.64,84.92L149.32,85Z"/><path class="f" d="M140.26,84.92l0.44,0Z"/><path class="f" d="M141.83,84.77l0.65,0Z"/><path class="f" d="M141,84.84l0.49,0Z"/><path class="f" d="M137.39,85.44l0.39-.09Z"/><path class="f" d="M138.78,85.14l0.39-.07Z"/><path class="f" d="M128.06,90.94l0,0Z"/><path class="f" d="M138.08,85.28l0.38-.08Z"/><path class="f" d="M146.64,84.76l0.59,0Z"/><path class="f" d="M145.68,84.71l0.57,0Z"/><path class="f" d="M147.63,84.82l0.62,0.05Z"/><path class="f" d="M144.29,84.69h0Z"/><path class="f" d="M144.73,84.69h0Z"/><path class="f" d="M142.65,84.72l0.85,0Z"/><path class="f" d="M127.82,91.24l0,0Z"/><path class="f" d="M139.51,85l0.41-.06Z"/><path class="f" d="M130.74,88.4l0.14-.1Z"/><path class="f" d="M131.13,88.12l0.14-.09Z"/><path class="f" d="M136.49,85.67l0.61-.16Z"/><path class="f" d="M130,89l0.11-.09Z"/><path class="f" d="M129.69,89.24l0.08-.07Z"/><path class="f" d="M132.7,87.17l0.17-.09Z"/><path class="f" d="M130.37,88.69l0.13-.1Z"/><path class="f" d="M131.55,87.85l0.12-.08Z"/><path class="f" d="M134.72,86.25l0.27-.1Z"/><path class="f" d="M135.29,86l0.29-.1Z"/><path class="f" d="M133.16,86.94l0.21-.1Z"/><path class="f" d="M135.88,85.85l0.34-.1Z"/><path class="f" d="M134.18,86.47l0.25-.1Z"/><path class="f" d="M71.87,146.38h0l0.13,0-0.13,0h0Z"/><path class="f" d="M133.65,86.7l0.23-.11Z"/><path class="f" d="M111.19,85.25l0.35,0.08Z"/><path class="f" d="M149.69,85l0.8,0.1Z"/><path class="f" d="M109.06,84.91l0.37,0Z"/><path class="f" d="M106.72,84.72l0.39,0Z"/><path class="f" d="M109.8,85l0.36,0.06Z"/><path class="f" d="M110.5,85.12l0.35,0.07Z"/><path class="f" d="M108.31,84.83l0.37,0Z"/><path class="f" d="M64.44,146.75c-0.34-.08-0.68-0.17-1-0.29h0c0.34,0.11.68,0.21,1,.29h0a12.44,12.44,0,0,0,2.64.31,12.44,12.44,0,0,1-2.64-.31h0Z"/><path class="f" d="M70.77,146.67h0c-0.48.11-1,.2-1.63,0.28,0.6-.07,1.16-0.17,1.63-0.28h0l0.59-.14h0Z"/><path class="f" d="M62.39,146a9.41,9.41,0,0,1-1.47-.86l0,0-0.43-.33,0.43,0.33,0,0a9.41,9.41,0,0,0,1.47.86h0c0.28,0.13.56,0.25,0.85,0.35-0.28-.1-0.57-0.22-0.85-0.35h0Z"/><path class="f" d="M105.89,84.69h0Z"/><path class="f" d="M105.12,84.69h0Z"/><path class="f" d="M165.21,182.62c5.74-3.85,9.44-7.72,10.95-12.3C174.17,176.09,168.55,180.33,165.21,182.62Z"/><path class="f" d="M107.53,84.77l0.38,0Z"/><path class="f" d="M116.83,87.24l0.4,0.23Z"/><path class="f" d="M116.35,87l0.39,0.2Z"/><path class="f" d="M115.86,86.76l0.37,0.18Z"/><path class="f" d="M128.31,90.64l0,0Z"/><path class="f" d="M117.28,87.49l0.43,0.26Z"/><path class="f" d="M115.36,86.53l0.36,0.16Z"/><path class="f" d="M113.7,85.91L114,86Z"/><path class="f" d="M113.11,85.72l0.34,0.11Z"/><path class="f" d="M112.49,85.55l0.34,0.09Z"/><path class="f" d="M111.85,85.4l0.35,0.08Z"/><path class="f" d="M114.82,86.31l0.35,0.14Z"/><path class="f" d="M114.27,86.1l0.34,0.13Z"/><path class="f" d="M177,147c0.05,0.37.1,0.79,0.15,1.23h0C177.08,147.79,177,147.38,177,147Z"/><polygon class="f" points="184.81 163.88 184.81 163.88 184.81 163.88 184.81 163.88"/><path class="f" d="M180.69,164.5h0a12.15,12.15,0,0,0,4.1-.62h0l0.71-.4a10.53,10.53,0,0,1-1,.4A11.61,11.61,0,0,1,180.69,164.5Z"/><path class="f" d="M193.19,123.82l0,0.13Z"/><path class="f" d="M192.86,122.7l0,0.09Z"/><path class="f" d="M193.82,126.91v0Z"/><path class="f" d="M193,123.25l0,0.12Z"/><path class="f" d="M193.61,125.63l0,0.14Z"/><path class="f" d="M193.48,125l0,0.14Z"/><path class="f" d="M193.34,124.4l0,0.14Z"/><path class="f" d="M191.15,118.7l0.06,0.12Z"/><path class="f" d="M192.68,122.19l0,0Z"/><path class="f" d="M190.89,118.24l0.07,0.13Z"/><path class="f" d="M191.64,119.67h0Z"/><path class="f" d="M191.4,119.18l0,0.09Z"/><path class="f" d="M190.63,117.79l0.08,0.14Z"/><path class="f" d="M193.69,134.53l0,0.26Z"/><path class="f" d="M189.23,144.81l-0.18.13a10.64,10.64,0,0,1,.62,1.06c1.81,3.53,3.52,10.68-1.06,15.29l-0.27.25,0.27-.25c4.58-4.61,2.87-11.76,1.06-15.29a4.11,4.11,0,0,1-.44-1.2h0Z"/><path class="f" d="M193.8,133.76l0,0.25Z"/><path class="f" d="M193.54,135.41v-0.08l0,0.08h0Z"/><path class="f" d="M192.66,139.7l0.09-.23,0.11-.36-0.11.36Z"/><path class="f" d="M193.89,133l0,0.24Z"/><path class="f" d="M194,131.54v0Z"/><path class="f" d="M194,130.85s0,0.08,0,.12S194,130.89,194,130.85Z"/><path class="f" d="M194,132.25l0,0.21Z"/><path class="f" d="M193.72,126.26l0,0.11Z"/><path class="f" d="M187.45,113.49l0.19,0.21Z"/><path class="f" d="M187.72,113.79l0.18,0.21Z"/><path class="f" d="M187.17,113.19l0.2,0.21Z"/><path class="f" d="M188,114.11l0.18,0.21Z"/><path class="f" d="M186.36,112.36l0.24,0.24Z"/><path class="f" d="M186.63,112.63l0.22,0.22Z"/><path class="f" d="M186.9,112.9l0.21,0.22Z"/><path class="f" d="M190.36,117.35l0.09,0.15Z"/><path class="f" d="M189.82,116.51l0.1,0.15Z"/><path class="f" d="M189.55,116.11l0.11,0.15Z"/><path class="f" d="M190.09,116.92l0.1,0.15Z"/><path class="f" d="M189.27,115.72l0.11,0.15Z"/><path class="f" d="M188.56,114.79l0.27,0.34Z"/><path class="f" d="M188.28,114.44l0.18,0.22Z"/><path class="f" d="M189,115.34l0.11,0.15Z"/><polygon class="k" points="124.7 99.28 124.7 99.28 124.7 99.29 124.7 99.28"/><path class="c" d="M80.27,182q-0.89-.27-1.72-0.58Q79.38,181.76,80.27,182Z"/><polygon class="b" points="124.7 99.29 124.7 99.29 124.7 99.69 124.7 99.28 124.7 99.28 124.7 99.29 124.7 99.28 124.7 99.29"/><path class="c" d="M65.27,166.53c-0.15-.68-0.26-1.35-0.34-2C65,165.18,65.12,165.85,65.27,166.53Z"/><path class="c" d="M178.39,148.55a9.92,9.92,0,0,1-1.26-.31h0c-5.86-1.84-8.35-8.78-10.36-15.49-17.88.37-27.17-6.53-32.59-12.15-6.64-6.88-9.48-19.53-9.47-21.31h0v0h0c0,2.84-2.77,15.92-8.64,21.31-7,6.47-14.75,12.54-32.59,12.15-2.15,7.18-4.85,14.62-11.63,15.8,0,9.78,1.9,15.14,4.16,22.3s20.24,22.3,49.11,21.66C154,193.14,172,178,174.23,170.84a94.11,94.11,0,0,0,3.27-11.93l0-.13A58.33,58.33,0,0,0,178.39,148.55Z"/><path class="c" d="M125.29,178.71c10.36,0,19.47-7.53,19.56-7.61a1.34,1.34,0,0,1,1.72,2.05c-0.4.34-10,8.24-21.28,8.24-8.68,0-14.72-3.94-17.62-5.84-0.43-.28-0.92-0.6-1.14-0.72a1.34,1.34,0,0,1-.05-2.65c0.75-.13,1.31.24,2.66,1.12C111.82,175.06,117.41,178.71,125.29,178.71Z"/><circle class="c" cx="100" cy="153.64" r="8.53"/><circle class="c" cx="150.89" cy="154.65" r="8.53"/><circle class="f" cx="150.89" cy="154.65" r="8.53"/><path class="f" d="M106.47,172.18a1.34,1.34,0,0,0,.05,2.65c0.23,0.12.71,0.43,1.14,0.72,2.9,1.9,8.95,5.84,17.62,5.84,11.33,0,20.88-7.9,21.28-8.24a1.34,1.34,0,0,0-1.72-2.05c-0.09.08-9.19,7.61-19.56,7.61-7.88,0-13.47-3.65-16.16-5.4C107.78,172.42,107.22,172.05,106.47,172.18Z"/><path class="h" d="M150.69,294.94v-16l-25.36,0h0v28.69h32.27a18.93,18.93,0,0,0,.05-1.9c0-.63,0-1.44-0.07-2.44C157.43,300.16,150.69,294.94,150.69,294.94Z"/><path class="h" d="M102.12,278.92H97.68v16h0s-7,5.23-7.14,8.34c0,0.68-.06,1.27-0.07,1.78a21.73,21.73,0,0,0,.06,2.51v0.06h33c0.09-4.62.06-17.74,0-28.69H102.12Z"/><path class="d" d="M151.3,193.08l-0.53,0v0.11A4.63,4.63,0,0,1,151.3,193.08Z"/><path class="l" d="M97.68,256.91h-2a1.8,1.8,0,0,0-1.8,1.8h0v16.38a1.8,1.8,0,0,0,1.8,1.8h2v-20Z"/><path class="a" d="M150.69,245.4H130.86a3.12,3.12,0,0,0-2.88-1.92h-6.82a3.12,3.12,0,0,0-2.88,1.92v0H97.68V256.9h0v22h25.83v-1.55l-0.07-15.08h1.9v16.6h6.57v0l18.78,0V245.4Zm-29.53,8a3,3,0,0,1-.57-0.05,3,3,0,0,0,.57.05h0Zm7.66-.13a3,3,0,0,1-.84.13A3,3,0,0,0,128.82,253.32Z"/><path class="f" d="M100.2,145.19a8.4,8.4,0,1,0,8.4,8.4A8.4,8.4,0,0,0,100.2,145.19Zm2.57,8a3,3,0,1,1,3-3A3,3,0,0,1,102.77,153.19Z"/><circle class="m" cx="102.77" cy="150.18" r="3.02"/><circle class="m" cx="152.47" cy="150.18" r="3.02"/><path class="i" d="M131.91,278.9V256.77c-0.48.44-4.68,4-6.57,5.53v16.6h6.57Z"/><path class="i" d="M116.87,256.77V278.9h6.64v-1.53l-0.07-15.08h0C121.53,260.7,117.34,257.21,116.87,256.77Z"/><path class="h" d="M139.59,193.21c-0.85.13-1.7,0.24-2.54,0.34l2.52,5.68-6.85,2.23h0l-0.06.11c0,0.52,0,1.09,0,1.69h0c0,0.82,0,1.72,0,2.67,0,7.58-.05,19-0.06,26.73,0,4.8,0,8.13.09,8.13h18V213.85c0-.12,0-7.77,0-10.93v-9.86a14.45,14.45,0,0,0-2,.08l-9.16.06h0Z"/><path class="n" d="M117.36,201.33v0c-0.28-.55-2.86-5.62-3.89-7.64l-0.43,0-2.49,5.61,6.89,2.25h0Z"/><path class="n" d="M132.72,201.46l6.85-2.23-2.52-5.68-0.36,0C135.6,195.74,132.72,201.46,132.72,201.46Z"/><path class="h" d="M117.53,240.79c0.21,0-.13-29.28-0.1-39.31h0l-6.89-2.25,2.49-5.61q-1.77-.19-3.6-0.47H97.3l0.32,47.64h19.91Z"/><path class="n" d="M97.3,193.15c-0.48.06-1,.17-1.54,0.29a11.87,11.87,0,0,0-8.59,6.85c2.6-.82,5.39-1.1,7.4.49,4.67,3.7-1.9,34-1.9,34,1.87-7.45,3.93-17.24,4.76-21.3h0C97.39,206.54,97.3,193.15,97.3,193.15Z"/><path class="n" d="M150.7,202.92c0,3.15,0,10.81,0,10.93,1,4.58,5.65,21,5.65,21h0c0-.05-7.53-30.35-2.86-34,2-1.59,6.36-2.19,9-1.38h0v0c-0.11-.25-0.24-0.48-0.37-0.71l-0.07-.13c-0.13-.22-0.27-0.43-0.41-0.64l-0.1-.14c-0.15-.2-0.3-0.4-0.46-0.58l-0.1-.11q-0.23-.26-0.48-0.51l-0.07-.07c-0.18-.17-0.36-0.33-0.54-0.49l-0.14-.11-0.55-.43-0.15-.11-0.59-.39-0.11-.07-0.56-.32-0.12-.06-0.62-.3-0.15-.07-0.62-.26-0.13-.05-0.65-.22h0l-0.64-.18-0.09,0a10.62,10.62,0,0,0-2.82-.35,9.88,9.88,0,0,0-1.16,0S150.72,200.27,150.7,202.92Z"/><path class="o" d="M97.68,252.68h21.45a3.1,3.1,0,0,1-1.09-2.35v-3.75a3.11,3.11,0,0,1,.23-1.18H97.68v7.3Z"/><path class="o" d="M131.1,250.33a3.1,3.1,0,0,1-1.09,2.35h20.68V245.4H130.87a3.11,3.11,0,0,1,.23,1.18v3.75Z"/><path class="i" d="M118.28,245.38v0a3.11,3.11,0,0,0-.23,1.18v3.75a3.1,3.1,0,0,0,1.09,2.35,3.22,3.22,0,0,0,.68.45l0.25,0.11a3,3,0,0,0,1.1.21H128a3,3,0,0,0,1.1-.21l0.25-.11a3.23,3.23,0,0,0,.68-0.45,3.1,3.1,0,0,0,1.09-2.35v-3.75a3.11,3.11,0,0,0-.23-1.18h0a3.12,3.12,0,0,0-2.88-1.92h-6.82A3.12,3.12,0,0,0,118.28,245.38Z"/><line class="c" x1="77.47" y1="245.04" x2="77.08" y2="244.15"/><path class="p" d="M85,248.75a0.69,0.69,0,1,1,.5-1.29l1.18-3a0.69,0.69,0,0,0-.39-0.89l-7.17-2.81a0.69,0.69,0,0,0-.89.39l-1.18,3a0.69,0.69,0,0,1-.5,1.29l-1.18,3a0.7,0.7,0,0,0,.39.89h0l0.11,0-0.11,0a0.68,0.68,0,0,0-.26,0l-0.17,0-0.05,0-0.13.06,0,0a0.69,0.69,0,0,0-.13.12l0,0a0.68,0.68,0,0,0-.09.15h0l-1.18,3a0.68,0.68,0,0,0,0,.27,0.69,0.69,0,0,0,.44.63l2.56,1h0l-0.12,0h0l-0.1,0h0l-0.07,0h0a0.29,0.29,0,0,0-.06.09l-4.93,12.59a0.3,0.3,0,0,0,.16.38h0l-0.93-.36a0.68,0.68,0,0,0-.26,0l-0.17,0-0.05,0-0.13.06,0,0a0.69,0.69,0,0,0-.13.12l0,0a0.68,0.68,0,0,0-.09.15h0l-1.18,3a0.69,0.69,0,0,0,0,.27,0.69,0.69,0,0,0,.44.63l3.88,1.52a0.68,0.68,0,0,0,.22,0h0l0.19,0h0a0.69,0.69,0,0,0,.31-0.21l0,0a0.67,0.67,0,0,0,.1-0.17l1.18-3a0.69,0.69,0,0,0-.39-0.89l-0.93-.36h0.21l0,0,0.05,0,0,0,0.05-.08h0l4.93-12.59a0.3,0.3,0,0,0-.17-0.38l-0.75-.29,0.75,0.3,2.57,1a0.68,0.68,0,0,0,.22,0h0l0.19,0h0a0.69,0.69,0,0,0,.31-0.21l0,0a0.68,0.68,0,0,0,.1-0.17l1.18-3a0.68,0.68,0,0,0,0-.27,0.69,0.69,0,0,0-.44-0.62h0a0.68,0.68,0,0,0,.22,0h0l0.19,0h0a0.69,0.69,0,0,0,.31-0.21l0,0a0.68,0.68,0,0,0,.1-0.17l0.28-.72Z"/><path class="g" d="M193.82,127v-0.06c0-.18-0.05-0.36-0.08-0.53l0-.11c0-.17-0.06-0.33-0.09-0.5l0-.14-0.1-.48,0-.14-0.11-.46,0-.14-0.12-.45,0-.13-0.13-.45,0-.12-0.14-.46,0-.09-0.16-.47,0,0a24.34,24.34,0,0,0-1-2.5h0l-0.2-.4,0-.09-0.19-.36-0.06-.12-0.18-.33-0.07-.13-0.18-.31-0.08-.14-0.17-.29-0.09-.15-0.17-.28-0.1-.15-0.17-.26-0.1-.15-0.17-.25-0.11-.15-0.17-.24-0.11-.15-0.17-.23-0.11-.15-0.16-.21-0.27-.34-0.1-.12-0.18-.22-0.1-.12-0.18-.21-0.09-.11-0.18-.21-0.09-.1-0.19-.21-0.08-.09-0.2-.21-0.06-.07-0.21-.22-0.05-.05-0.22-.22,0,0-0.24-.24h0a19.45,19.45,0,0,0-2.48-2.09s-7-20.91-32-24.93l-1.11-.17-0.27,0-0.8-.1-0.37,0-0.68-.07-0.39,0-0.62-.05-0.4,0-0.59,0-0.39,0-0.57,0H143.5l-0.85,0h-0.17l-0.65,0-0.31,0-0.49,0-0.33,0-0.44,0-0.34,0-0.41.06-0.33.05-0.39.07-0.32.06-0.38.08-0.31.06-0.39.09-0.28.07-0.61.16-0.28.08-0.34.1-0.3.1-0.29.1-0.3.11-0.27.1-0.29.12-0.25.1-0.29.12-0.23.11-0.28.13-0.21.1-0.28.14-0.17.09q-0.54.29-1,.59l-0.12.08-0.27.18-0.14.09-0.26.18-0.14.1-0.25.19-0.13.1-0.24.19L130,89l-0.24.21-0.08.07a14.36,14.36,0,0,0-1.35,1.36l0,0-0.21.26,0,0-0.2.26,0,0-0.2.26v0a12.83,12.83,0,0,0-2.41,5.64l-0.5,1.09v1h0c0,2.16,15.11,30.24,39.71,29.91a32.81,32.81,0,0,0,5-.41l0.28,0c-1.54,5.12,4.1,16.52,7.43,17.42h0l0.05,0h0l0.08,0h0l0.12,0h0l0.15,0h0l0.19,0.06h0l0.48,0.13h0l0.59,0.14h0a17,17,0,0,0,1.93.31h0l0.9,0.07h0.64a12.52,12.52,0,0,0,2.84-.31h0c0.34-.08.68-0.17,1-0.29h0a9.88,9.88,0,0,0,1-.41h0a9.4,9.4,0,0,0,1.47-.86l0,0,0.29-.22,0.18-.13h0a11.6,11.6,0,0,0,3.43-5.11l0.09-.23,0.11-.36a32.29,32.29,0,0,0,1-4.06l-0.33.36h0l0-.08c0-.18.06-0.36,0.09-0.53l0-.26q0-.27.08-0.53l0-.25q0-.26.06-0.53l0-.24q0-.26.05-0.53l0-.21c0-.18,0-0.36,0-0.54v-0.18c0-.19,0-0.37,0-0.56s0-.08,0-0.12c0-.2,0-0.4,0-0.6h0A24.92,24.92,0,0,0,193.82,127Z"/><path class="g" d="M72.82,168.82a36.11,36.11,0,0,1-.68-4.75,13.08,13.08,0,0,1-7.28-.19h0q0,0.32.07,0.64h0c0.08,0.65.19,1.31,0.34,2l0,0.08q0.07,0.31.15,0.62v0.05q0.17,0.68.39,1.38l0,0.09,0.2,0.59,0,0.14,0.23,0.59,0,0.09q0.28,0.68.62,1.37l0.08,0.15,0.28,0.53,0.09,0.16,0.34,0.58,0,0.08q0.21,0.34.44,0.67l0,0.07,0.41,0.57,0.12,0.16,0.39,0.5,0.13,0.16,0.52,0.6,0,0q0.29,0.32.6,0.63l0.1,0.1L71.13,177l0.16,0.14,0.55,0.47L72,177.75q0.71,0.58,1.52,1.13L73.61,179l0.7,0.45,0.17,0.11L75.26,180l0.1,0.06q0.93,0.5,2,.95L77.46,181l0.93,0.37,0.17,0.06q0.83,0.31,1.72.58t1.85,0.51l0.14,0,1.19,0.26,0.14,0L85,183.12C77.9,178.67,74.06,174.29,72.82,168.82Z"/><path class="g" d="M121.61,91.29a14.65,14.65,0,0,0-3.9-3.53h0l-0.43-.26,0,0-0.4-.23-0.08,0-0.39-.2-0.12-.06-0.37-.18-0.15-.07-0.36-.16-0.18-.07-0.35-.14-0.21-.08-0.34-.13L114,86l-0.34-.12-0.25-.08-0.34-.11-0.27-.08-0.34-.09-0.29-.07-0.35-.08-0.31-.07-0.35-.08-0.33-.06-0.35-.07-0.35-.06L109.8,85l-0.37,0-0.37,0-0.38,0-0.37,0-0.4,0-0.38,0-0.42,0-0.39,0-0.43,0h-1.36a48.36,48.36,0,0,0-7.41.65c-25,4-32,24.93-32,24.93A25.08,25.08,0,0,0,55.79,135a32.42,32.42,0,0,0,1.12,4.42,11.7,11.7,0,0,0,3.52,5.34h0l0,0,0.43,0.33,0,0a9.41,9.41,0,0,0,1.47.86h0c0.28,0.13.56,0.25,0.85,0.35l0.16,0.06h0c0.34,0.11.68,0.21,1,.29h0a12.44,12.44,0,0,0,2.64.31h0.83l0.9-.07h0l0.3,0c0.6-.07,1.16-0.17,1.63-0.28h0l0.59-.14h0l0.47-.13h0l0.13,0,0.06,0h0l0,0,0.1,0H72.3l0.08,0h0l0.08,0h0.09c1.46-.39,3.35-2.79,4.9-5.8,2-3.87,3.39-8.73,2.53-11.61,27.52,4.61,44.69-27.12,44.7-29.45h0v-1l-0.5-1.09A12.91,12.91,0,0,0,121.61,91.29Z"/><path class="g" d="M184.81,163.88h0a12.15,12.15,0,0,1-4.1.62h0a15.74,15.74,0,0,1-3.43-.43h0a36.13,36.13,0,0,1-.68,4.75c-0.07.3-.15,0.6-0.23,0.9l-0.1.33-0.09.27h0c-1.5,4.58-5.21,8.45-10.95,12.3h0l-0.78.5h0l0.32-.06h0l-0.11.07h0l1.37-.25,0.14,0,1.19-.26,0.14,0a31.39,31.39,0,0,0,3.57-1.09l0.17-.06,0.93-.37,0.14-.06q1-.45,2-0.95l0.1-.06,0.77-.44,0.17-.11,0.7-.45,0.12-.08q0.81-.54,1.52-1.13l0.14-.11,0.55-.47,0.16-.14,0.53-.51,0.1-.1q0.31-.31.6-0.63l0,0,0.52-.6,0.13-.16,0.39-.5,0.12-.16,0.41-.57,0-.07q0.23-.34.44-0.67l0-.08,0.34-.58,0.09-.16,0.28-.53,0.08-.15q0.34-.68.62-1.37l0-.09,0.23-.59,0-.14,0.2-.59,0-.09q0.22-.7.39-1.38v-0.05q0.08-.31.15-0.62l0-.08c0-.21.08-0.42,0.12-0.62v-0.06c0-.18.06-0.35,0.09-0.53,0.08-.49.14-1,0.19-1.43h0Z"/><path class="e" d="M85,183.12c-7.08-4.46-10.91-8.84-12.15-14.31a36.1,36.1,0,0,1-.68-4.75,13.08,13.08,0,0,1-7.28-.19h0q0,0.32.07,0.64h0c0.08,0.65.19,1.31,0.34,2l0,0.08q0.07,0.31.15,0.62v0.05q0.17,0.68.39,1.38l0,0.09,0.2,0.59,0,0.14,0.23,0.59,0,0.09q0.28,0.68.62,1.37l0.08,0.15,0.28,0.53,0.09,0.16,0.34,0.58,0,0.08q0.21,0.34.44,0.67l0,0.07,0.41,0.57,0.12,0.16,0.39,0.5,0.13,0.16,0.52,0.6,0,0q0.29,0.32.6,0.63l0.1,0.1L71.13,177l0.16,0.14,0.55,0.47L72,177.75q0.71,0.58,1.52,1.13L73.61,179l0.7,0.45,0.17,0.11L75.26,180l0.1,0.06q0.93,0.5,2,.95L77.46,181l0.93,0.37,0.17,0.06q0.83,0.31,1.72.58t1.85,0.51l0.14,0,1.19,0.26,0.14,0Z"/><path class="e" d="M60.46,144.83l0.43,0.33,0,0a9.41,9.41,0,0,0,1.47.86h0c0.28,0.13.56,0.25,0.85,0.35l0.16,0.06h0c0.34,0.11.68,0.21,1,.29h0a12.44,12.44,0,0,0,2.64.31h0.83l0.9-.07h0l0.3,0c0.6-.07,1.16-0.17,1.63-0.28h0l0.59-.14h0l0.47-.13h0l0.13,0,0.06,0h0l0,0,0.1,0H72.3l0.08,0h0l0.08,0h0.09c1.46-.39,3.35-2.79,4.9-5.8,2-3.87,3.39-8.73,2.53-11.61,0,0-.63,13.15-9.41,13.59-6,.33-11-3.12-14.79-7.28a32.44,32.44,0,0,0,1.12,4.42,11.71,11.71,0,0,0,3.52,5.34h0Z"/><path class="e" d="M124.7,98.26l-0.5-1.09a12.91,12.91,0,0,0-2.59-5.88,11.55,11.55,0,0,1-1.54,9.68C101.79,129.84,74,120.31,74,120.31l6,8.43c27.52,4.61,44.69-27.12,44.7-29.45h0v-1Z"/><path class="e" d="M166.21,182.84l1.19-.26,0.14,0a31.41,31.41,0,0,0,3.57-1.09l0.17-.06,0.93-.37,0.13-.06q1-.45,2-0.95l0.1-.06,0.77-.44,0.17-.11,0.7-.45,0.12-.08q0.81-.54,1.52-1.13l0.14-.11,0.55-.47,0.16-.14,0.53-.51,0.1-.1q0.31-.31.6-0.63l0,0,0.52-.6,0.13-.16,0.39-.5,0.12-.16,0.41-.57,0-.07q0.23-.34.44-0.67l0-.08,0.34-.58,0.09-.16,0.28-.53,0.08-.15q0.34-.68.62-1.37l0-.09,0.23-.59,0-.14,0.2-.59,0-.09q0.22-.7.39-1.38v-0.05q0.08-.31.15-0.62l0-.08c0-.21.08-0.42,0.12-0.62v-0.06c0-.18.06-0.35,0.09-0.53,0.08-.49.14-1,0.19-1.43h0a12.15,12.15,0,0,1-4.1.62h0a15.74,15.74,0,0,1-3.43-.43h0a36.13,36.13,0,0,1-.68,4.75c-0.07.3-.15,0.6-0.23,0.9l-0.1.33-0.09.27h0c-1.5,4.58-5.21,8.45-10.95,12.3h0l-0.78.5h0l0.32-.06h0l-0.11.07h0l1.37-.25Z"/><path class="e" d="M193.54,135.41h0c-3.75,4-8.65,7.25-14.46,6.92-8.78-.45-9.41-13.59-9.41-13.59l-0.28,0c-1.5,5.14,4.12,16.48,7.44,17.38h0l0.05,0h0l0.08,0h0l0.12,0h0l0.15,0h0l0.19,0.06h0l0.47,0.13h0l0.59,0.14h0a17,17,0,0,0,1.93.31h0l0.9,0.07h0.9a12.52,12.52,0,0,0,2.84-.31h0c0.34-.08.68-0.17,1-0.29h0a9.88,9.88,0,0,0,1-.41h0a9.4,9.4,0,0,0,1.47-.86l0,0,0.29-.22,0.18-.13h0a11.6,11.6,0,0,0,3.43-5.11l0.09-.23,0.11-.36a32.29,32.29,0,0,0,1-4.06Z"/><path class="e" d="M169.4,128.78l0.28,0,6-8.43s-27.82,9.53-46.1-19.34a11.55,11.55,0,0,1-1.54-9.68,12.91,12.91,0,0,0-2.59,5.88L125,98.26v1c0,2.15,15,30,39.45,29.91A32.81,32.81,0,0,0,169.4,128.78Z"/></svg>