<svg xmlns="http://www.w3.org/2000/svg" viewBox="0 0 350 350"><defs><style>.a{fill:#293834;}.b{fill:#776658;}.c{fill:#bd7622;}.d{fill:#b1a48a;}.e{fill:#bd9045;}.f{fill:#5fa190;}.g{fill:#579480;}.h{fill:#d4fff4;}.i{fill:#3f6d5e;}.j{fill:#3c4045;}.k{fill:#fff;}.l{fill:#64686b;}</style></defs><title>All-icons</title><ellipse class="a" cx="176.32" cy="228.96" rx="27.38" ry="42.55"/><path class="b" d="M221.42,214.52c-0.28-.56-1.71-2.59-2.67-3.93-0.39-.57-0.84-1.18-1.32-1.82-1.84-2.39-4.65-5.83-7.26-9l-1.29-1.56-1,.19a8.53,8.53,0,0,0-4,.5c-2.57.71-5.34-.27-7.73,0.83a93.71,93.71,0,0,1-9.4,3.85,13,13,0,0,0-1.53.17c-0.13.72-.25,1.32-0.32,1.6a1.61,1.61,0,0,1,0,.17,19,19,0,0,1-.83,2.4,5.83,5.83,0,0,1,1.21.07h0c7.19-.43,7.23,5.09,6.9,7.57a3.91,3.91,0,0,1,.76.73,3.54,3.54,0,0,1,.5.83,3.93,3.93,0,0,1,1.32,2v0l0.11,0.33a8.73,8.73,0,0,1-1.94,7.79h0s2.45,16.83-1.29,19.61a2,2,0,0,1-.53.29c-1.24.31-3-4.86-4.46-9.72-0.36,6.9-1,15.83-1.83,21.24-0.12.73-.24,1.39-0.36,2,0,0.14-.06.27-0.09,0.4-0.29,3.68-1.2,7.27-1.61,10.94a45.14,45.14,0,0,0-.21,7.95c1.48-.2,3.2-0.49,5.08-0.88,8-1.66,18.89-5,25.31-9.94q0.78-.6,1.46-1.23a15.17,15.17,0,0,0,2.25-2.54,6.35,6.35,0,0,0,.69-1.14h0a6.2,6.2,0,0,0,.42-1.18c0.73-2.13.52-2.65-1.19-11.14q-0.41-2.35-.93-4.67v-0.06h0l-0.12-.54q-0.81-3.55-1.89-7h0s-0.34-1.62-.73-3.28a64.42,64.42,0,0,0,7.26-8.43l0.4-.59,0.12-.19,0.25-.41,0.13-.22,0.21-.39,0.11-.22,0.21-.44,0.08-.17q0.14-.31.26-0.61l0-.1q0.1-.26.19-0.52l0.06-.19,0.07-.25c0.1-.32.18-0.65,0.25-1A12.21,12.21,0,0,0,221.42,214.52Z"/><path class="b" d="M171.94,264.23c-0.31-3.06-.57-6.43-0.8-9.66h0q-0.07-1-.13-2c-0.36-3.32-.64-6.88-0.73-10.38-0.11-4.21-.19-8.16-0.27-11.64V230.3c-0.94,3.88-4.37,17.38-6.35,16.88a2,2,0,0,1-.53-0.29c-3.74-2.79-1.29-19.61-1.29-19.61s2.37-10.62,5.38-11.88h0c0-.15.05-0.3,0.09-0.46h0c0-.1.05-0.2,0.08-0.31l0.06-.18v0l0-.1,0.11-.28,0.09-.21,0.06-.14,0.16-.33,0,0,0.17-.29,0.07-.12,0.16-.25,0.12-.17,0.15-.21,0.18-.23,0.13-.16,0.35-.39h0l0.56-.41L170,211l0.47-.32,0.09-.06,0.53-.33,0.13-.07,0.43-.25,0.07,0a18.8,18.8,0,0,1-1.82-4.4l-0.15-.56-0.14-.72q-1.18-.25-2.36-0.58A13.82,13.82,0,0,1,162,202.1a25.83,25.83,0,0,0-14.58-2.81,12.09,12.09,0,0,0-1.71-.51l-0.91,1.09c-3.56,4.29-7.31,8.88-8.69,10.85-1,1.34-2.4,3.38-2.67,3.93a12.21,12.21,0,0,0-1.12,8.1v0.06c0.07,0.3.15,0.61,0.24,0.91v0l0.09,0.27,0.06,0.19q0.09,0.26.19,0.52l0,0.1q0.12,0.31.26,0.61l0.08,0.17,0.21,0.44,0.11,0.22,0.21,0.39,0.13,0.22,0.25,0.41,0.12,0.19,0.4,0.59a64.34,64.34,0,0,0,7.21,8.38l0.54,0.53h0l0.14,0.14c-0.14.94-.29,2-0.44,3.17l-0.08.34a111.83,111.83,0,0,0-2.78,12.88v0.11l0.07,0a77.89,77.89,0,0,0-1.45,9.76c0,1.58-.16,2.86,1.31,4.36a13.29,13.29,0,0,0,2.52,1.82c0.48,0.28,1,.57,1.62.88,1.78,0.91,4.12,1.93,7.2,3.13,2.09,0.85,6.76,2.42,9.52,3.25a87.61,87.61,0,0,0,11.12,2.88c0.89,0.15,1.79.27,2.73,0.36C173,274.52,172.22,268.13,171.94,264.23Z"/><path class="c" d="M187.08,227.8h0a3.16,3.16,0,0,0-.13-0.64,3.11,3.11,0,0,0-2.2-1.38l-0.24,0h0l-0.26,0h0c-0.6,0-1.19,0-1.75,0a2.69,2.69,0,0,1-2.44.85,4.16,4.16,0,0,1-.32-3.11,3.22,3.22,0,0,1,0-1.29,14.21,14.21,0,0,1-1.79.47c-0.82,1.24-2.23,2.22-3.38,2.06l-0.29-.06a5.09,5.09,0,0,1-.54-1.93c-2.84,1-3.62,3.92-3.71,5.45h-0.06c0,0.35,0,.71,0,1.07,0,0,0,.34,0,0.93v0.35c0.08,3.48.16,7.43,0.27,11.64,0.09,3.5.37,7.06,0.73,10.38q0.07,1,.14,2.07v0.06c0.22,3.22.49,6.46,0.79,9.52,0.28,3.9,1,10.29,2,15.8,0.88,5,1.93,9.37,2.95,10.41a5.38,5.38,0,0,0,1.87.49,2.2,2.2,0,0,0,2.1-.52l1-1.9a36.92,36.92,0,0,0,.72-8c0-.2,0-0.39,0-0.59a45.14,45.14,0,0,1,.21-7.95c0.41-3.66,1.31-7.26,1.61-10.94,0-.13.06-0.26,0.09-0.4,0.13-.59.25-1.25,0.36-2,0.86-5.4,1.47-14.33,1.83-21.24,0.13-2.44.23-4.63,0.29-6.32l-0.15,0s0.11-.53.2-1.24C187,228.88,187.07,228.12,187.08,227.8Z"/><path class="d" d="M184.08,207.93a5.83,5.83,0,0,1,1.21.07h0c7.19-.43,7.23,5.09,6.9,7.57a3.91,3.91,0,0,1,.76.73,3.54,3.54,0,0,1,.5.83,3.93,3.93,0,0,1,1.32,2v0l0.11,0.33a8.73,8.73,0,0,1-1.94,7.79h0s2.45,16.83-1.29,19.61c2.48-1.39,12-5.85,20.47-13.6,0.41-.38.83-0.76,1.23-1.16l0,0,0.9-.78a60.46,60.46,0,0,0,8.27-8.71,12.21,12.21,0,0,0-1.12-8.1c-0.28-.56-1.71-2.59-2.67-3.93-0.39-.57-0.84-1.18-1.32-1.82-1.84-2.39-4.65-5.83-7.26-9a116.94,116.94,0,0,1-25.26,5.75A19,19,0,0,1,184.08,207.93Z"/><path class="d" d="M140.5,231.33l0.9,0.78,0,0q0.8,0.78,1.61,1.51c8.36,7.54,17.64,11.88,20.09,13.26-3.74-2.79-1.29-19.61-1.29-19.61s2.37-10.62,5.38-11.88h0c0-.15.05-0.3,0.09-0.46h0c0-.1.05-0.2,0.08-0.31l0.06-.18v0l0-.1,0.11-.28,0.09-.21,0.06-.14,0.16-.33,0,0,0.17-.29,0.07-.12,0.16-.25,0.12-.17,0.15-.21,0.18-.23,0.13-.16,0.35-.39h0l0.56-.41L170,211l0.47-.32,0.09-.06,0.53-.33,0.13-.07,0.43-.25,0.07,0a18.8,18.8,0,0,1-1.82-4.4l-0.15-.56c0.06,0.31.11,0.51,0.13,0.56a116.79,116.79,0,0,1-25-5.66c-3.56,4.29-7.31,8.88-8.69,10.85-1,1.34-2.4,3.38-2.67,3.93a12.21,12.21,0,0,0-1.12,8.1v0.06A60.94,60.94,0,0,0,140.5,231.33Z"/><path class="d" d="M190.12,259.38l-0.14,0-0.26,0h-0.16l-0.23,0h-1.77l-0.16,0-0.16,0-0.16,0-0.15,0-0.15,0-0.15,0-0.15,0-0.14,0-0.15,0-0.13,0-0.15,0-0.12,0-0.14,0-0.11,0-0.14-.05-0.11,0-0.14-.06-0.1,0-0.14-.07-0.06,0c-0.12.73-.24,1.39-0.36,2,0,0.14-.06.27-0.09,0.4-0.29,3.68-1.2,7.27-1.61,10.94a45.14,45.14,0,0,0-.21,7.95c1.48-.2,3.2-0.49,5.08-0.88,8-1.66,18.89-5,25.31-9.94q0.78-.6,1.46-1.23a15.17,15.17,0,0,0,2.25-2.54,6.35,6.35,0,0,0,.69-1.14h0a6.2,6.2,0,0,0,.42-1.18c0.73-2.13.52-2.65-1.19-11.14q-0.41-2.35-.93-4.67v-0.06h0l-0.12-.54c-7,4.93-18,11.6-25,12.68Z"/><path class="d" d="M143.37,270.42c1.78,0.91,4.12,1.93,7.2,3.13,2.09,0.85,6.76,2.42,9.52,3.25a87.61,87.61,0,0,0,11.12,2.88c0.89,0.15,1.79.27,2.73,0.36-1-5.52-1.71-11.9-2-15.8-0.31-3.06-.57-6.3-0.79-9.52a38.75,38.75,0,0,1-4.83,3.86,6.55,6.55,0,0,1-3.5.75c-5.81,0-16.1-3.21-23.49-5.85v0.11l0.07,0a77.89,77.89,0,0,0-1.45,9.76c0,1.58-.16,2.86,1.31,4.36a13.29,13.29,0,0,0,2.52,1.82C142.23,269.82,142.77,270.12,143.37,270.42Z"/><path class="e" d="M176.82,277.82v0a21.56,21.56,0,0,1-.16-2.19c-0.66-10.82-1.57-42.8-1.57-42.8-0.06-.63-0.12-1.25-0.17-1.85-0.19-2.21-.31-4.27-0.38-6.19l-0.29-.06a5.09,5.09,0,0,1-.54-1.93c-2.84,1-3.62,3.92-3.71,5.45h-0.06c0,0.35,0,.71,0,1.07,0,0,0,.34,0,0.93v0.35c0.08,3.48.16,7.43,0.27,11.65,0.09,3.5.37,7.06,0.73,10.38q0.07,1,.14,2.07v0.06c0.22,3.22.49,6.46,0.79,9.52,0.28,3.9,1,10.29,2,15.8,0.88,5,1.93,9.37,2.95,10.41a5.38,5.38,0,0,0,1.87.49l-0.07,0C177.76,290.79,177.49,285.31,176.82,277.82Z"/><path class="f" d="M324.43,84.73a2.55,2.55,0,0,0-.24-0.22,13.77,13.77,0,0,0-1.64-1.11,14.76,14.76,0,0,0-4.12-1.63,29.3,29.3,0,0,0-9.21-.44,50.55,50.55,0,0,0-9.39,1.78c-3.11.88-6.12,2-9.15,3.15a65,65,0,0,1-9.37,2.7,67.34,67.34,0,0,1-9.52,1.27,73.87,73.87,0,0,1-9.71,0A100.32,100.32,0,0,0,252,89.82c-13.65.42-19.53,3.19-21.28,3.73-0.64-1.18-2.61-7.44-11.1-16.06-5.16-5.24-18.59-19-45.75-18.52-3.91.07-18.64,0.79-34.14,13-17.11,13.46-20,22.09-20,22.09S110,90,91.7,89.83c-3.33,0-6.64.39-10,.35a69.25,69.25,0,0,1-9.92-.78A59.91,59.91,0,0,1,62.16,87c-3.11-1-6.17-2.21-9.3-3.18a66.18,66.18,0,0,0-9.62-2.33,30.05,30.05,0,0,0-9.8,0,28,28,0,0,0-4.14,1.09A19,19,0,0,0,26,84.47c-0.58.36-1.85,1.93-1.48,2.95,0.1,0.28,3.13.83,4.29,1.06a39,39,0,0,1,7.28,2c13.24,5.42,13.49,18.62,17.06,26.29,12.56,27,37,30.94,37,30.94-0.77,4-.32,8,0.21,11.87,1.39,10.12,7,17.78,14.92,23.83a63.66,63.66,0,0,0,5.85,3.95c8.94,5.34,18.84,8.4,29.11,10.57,0.64,0.14,1.29.23,1.94,0.32,1.17,0.16,2.35.29,3.51,0.55a12.09,12.09,0,0,1,1.71.51A25.83,25.83,0,0,1,162,202.1a13.82,13.82,0,0,0,5.16,1.57q1.18,0.33,2.36.58a32.82,32.82,0,0,0,15.6-.47l0.1,0a13,13,0,0,1,1.53-.17,93.71,93.71,0,0,0,9.4-3.85c2.39-1.1,5.16-.12,7.73-0.83a8.53,8.53,0,0,1,4-.5l1-.19,3.41-.66c3.13-.62,6.25-1.29,9.33-2.14,9.95-2.74,19.55-6.25,27.67-12.87,9.57-7.81,13.43-17.91,11.7-30.15l0,0a1.4,1.4,0,0,0-.41.49,1.4,1.4,0,0,1,.41-0.49c-0.25-3.18-.59-5.92-0.69-6.5,9.16-2.16,15.11-5.32,17.84-7.21,7.31-5.22,12.74-13.09,14.09-15a93.74,93.74,0,0,0,7-12.15q1.55-3.18,2.9-6.46,0.68-1.64,1.33-3.3c0.39-1,.75-2,1.22-3a15.55,15.55,0,0,1,3.41-4.6A18.54,18.54,0,0,1,312.91,91a33.5,33.5,0,0,1,7-2.22c1.25-.27,2.51-0.5,3.77-0.74,0.49-.09,1.42-0.2,1.65-0.75h0v0A2.27,2.27,0,0,0,324.43,84.73Z"/><polygon class="a" points="187.08 227.8 187.08 227.8 187.08 227.8 187.08 227.8"/><path class="a" d="M187.08,227.8c0,0.32,0,1.08-.07,2.15A10,10,0,0,0,187.08,227.8Z"/><path class="d" d="M184.91,205.53a1.61,1.61,0,0,0,0-.17Z"/><path class="g" d="M150.57,273.55c-3.08-1.2-5.42-2.22-7.2-3.13-0.6-.31-1.14-0.6-1.62-0.88l0,0,0.18,0.11a4.88,4.88,0,0,0-2.61,3.74l-0.15,0a5.17,5.17,0,0,0,0,1c0,0.07,0,.13,0,0.19,1.33-1.26,3.25-1.41,4.09-.19s0.28,2.3-.74,3.1c1.48,0.2,3,0,3.8.31a2.48,2.48,0,0,0-1.12,1.29c1.33-1.22,3.21-1.36,4.05-.15,0.95,1.36.06,2.69-1.29,3.48a10.19,10.19,0,0,0,3.75,0c-0.37.63,0,1.55,1,2.27,0.24-2.37,2.35-3.93,3.89-3s1.12,2.8,0,4.15a11.69,11.69,0,0,0,5.78-1.68,27.39,27.39,0,0,0,7.11-3.09,15.87,15.87,0,0,0,1.68-1.32,87.61,87.61,0,0,1-11.12-2.88C157.33,276,152.66,274.4,150.57,273.55Z"/><path class="g" d="M214.41,267.91q-0.68.63-1.46,1.23c-6.42,4.94-17.27,8.29-25.31,9.94a26.7,26.7,0,0,0,3.07,2.34,20.3,20.3,0,0,0,9.82,3.48c-0.67-1.2-.73-2.55.56-3.29s3.14,0.32,3.72,2.19a2.57,2.57,0,0,0,.08-2.78,0.53,0.53,0,0,1-.4-0.36c0.05-.1.23,0.05,0.4,0.36a12.51,12.51,0,0,0,4.41,1.08c-1.07-.8-1.64-2-0.81-3.16s2.86-1.06,4.19.28a9,9,0,0,0-1.4-2.11,8.71,8.71,0,0,0,5.8,1.31c-2-.55-3.82-2.26-2.59-4s4.42-.74,5.28,2.14C219.94,274.24,216.4,270.07,214.41,267.91Z"/><path class="h" d="M143.28,274.4c-0.85-1.22-2.76-1.07-4.09.19a4.66,4.66,0,0,0-1.4,3.46c1,1,3.35.55,4.75-.55C143.56,276.7,144.09,275.57,143.28,274.4Z"/><path class="h" d="M149.27,278.94c-0.84-1.21-2.73-1.07-4.05.15a4.65,4.65,0,0,0-1.44,3.5c0.91,0.88,2.8.64,4.2-.17S150.22,280.3,149.27,278.94Z"/><path class="h" d="M156.67,281.61c-1.55-.89-3.65.67-3.89,3a4.91,4.91,0,0,0,.48,2.61c1.06,0.36,2.44-.4,3.38-1.5C157.79,284.4,158.28,282.54,156.67,281.61Z"/><path class="h" d="M214.48,274.4c-1.23,1.77.63,3.47,2.59,4a3,3,0,0,0,2.9-.37,5.24,5.24,0,0,0-.22-1.51C218.89,273.66,215.66,272.71,214.48,274.4Z"/><path class="h" d="M208.49,278.94c-0.83,1.19-.25,2.36.81,3.16,1.41,1.06,3.67,1.48,4.68.49a4.69,4.69,0,0,0-1.31-3.37C211.34,277.88,209.36,277.69,208.49,278.94Z"/><path class="h" d="M201.09,281.61c-1.29.75-1.23,2.09-.56,3.29,0.85,1.52,2.67,2.8,4,2.35a4.72,4.72,0,0,0,.31-3.45C204.23,281.92,202.45,280.82,201.09,281.61Z"/><path class="i" d="M97.85,149.12h0Z"/><path class="i" d="M111.35,148.84l2.33-.05h0Z"/><path class="i" d="M97.56,148.62a10.13,10.13,0,0,1-1-3.09A10.11,10.11,0,0,0,97.56,148.62Z"/><path class="i" d="M165.92,143.24q0.16-.37.31-0.8l0.14-.42-0.14.42Q166.08,142.86,165.92,143.24Z"/><path class="i" d="M168.56,134c-0.34,1.43-.68,2.78-1,4C167.88,136.78,168.22,135.43,168.56,134Z"/><path class="i" d="M183,142l0.14,0.42q0.15,0.43.31,0.8-0.16-.37-0.31-0.8Z"/><path class="i" d="M181.87,138c-0.28-1-.56-2.16-0.84-3.33C181.31,135.86,181.59,137,181.87,138Z"/><path class="i" d="M250.87,149.11h0.69l0,0,0,0h-0.69Z"/><path class="i" d="M252.85,145.53a10.13,10.13,0,0,1-1,3.09A10.11,10.11,0,0,0,252.85,145.53Z"/><path class="i" d="M185.4,145.78a5,5,0,0,1-.6-0.53A5,5,0,0,0,185.4,145.78Z"/><path class="g" d="M169.69,109.3c-2.24.16,1.35,7.35-7.17,13.56-7,4.11-31.75-2.08-46.49,3.2s-17.84,12.18-19.15,15.87a6.9,6.9,0,0,0-.26.94h0c0,0.1,0,.2-0.05.3v0q0,0.14,0,.29v0q0,0.14,0,.28v0q0,0.14,0,.29h0a8.18,8.18,0,0,0,.09,1.43,10.13,10.13,0,0,0,1,3.09h0l0.06,0.11h0l0,0.09v0l0,0.07v0l0,0.06h0l0,0h0l0,0h0v0h1.21L105,149l2,0h0.52l2.17,0,1.73,0,2.33-.05A21.5,21.5,0,0,1,120.5,135c3.84-3.56,9,.82,14.64.82,5.09,0,9.76-4.78,13.45-1.82a21.55,21.55,0,0,1,7.84,13.59l0.55,0,1-.06,0.39,0,0.64-.07a22.64,22.64,0,0,0,3.41-.75l0.49-.19,0.46-.22,0.44-.26,0.21-.15a5,5,0,0,0,.6-0.53,6.43,6.43,0,0,0,1.2-1.78l0.11-.24q0.16-.37.31-0.8l0.14-.42,0-.14,0.1-.31,0.05-.17,0.1-.31,0.06-.19,0.1-.33,0.06-.19L167,140l0.06-.19,0.11-.39,0.05-.18,0.13-.45,0-.15,0.15-.54,0-.08c0.33-1.23.67-2.59,1-4l0.26-1.1h0l0.18-.79h0c0.79-3.5,1.54-7.29,2.07-10.74C172.23,113.73,171.69,109.53,169.69,109.3Z"/><path class="g" d="M252.94,144.1h0q0-.14,0-0.29v0q0-.14,0-0.28v0q0-.14,0-0.29v0c0-.1,0-0.2-0.05-0.29h0a6.9,6.9,0,0,0-.26-0.94c-1.31-3.68-4.4-10.59-19.15-15.87s-39.48.91-46.49-3.2c-8.53-6.2-4.93-13.4-7.17-13.56-2,.22-2.55,4.43-1.37,12.07,0.53,3.44,1.28,7.23,2.07,10.74h0l0.18,0.79h0q0.21,0.91.42,1.78c0.28,1.18.57,2.3,0.84,3.33l0,0.08,0.15,0.54,0,0.15,0.13,0.45,0.05,0.18,0.11,0.39,0.06,0.19,0.11,0.36,0.06,0.19,0.1,0.33,0.06,0.19,0.1,0.31,0.05,0.17,0.1,0.31,0,0.14,0.14,0.42q0.15,0.43.31,0.8l0.11,0.24a6.43,6.43,0,0,0,1.2,1.78,5,5,0,0,0,.6.53l0.21,0.15,0.44,0.26,0.46,0.22,0.49,0.19a22.64,22.64,0,0,0,3.41.75l0.64,0.07,0.39,0,1,0.06,0.91,0,1,0A21.55,21.55,0,0,1,202.19,134h-3.78c1.27,0,29.81-.95,32,1.15a21.5,21.5,0,0,1,6.67,13.71l0.95,0,1.73,0,2.17,0h0.52l2,0,5.91,0.13h1.21l0,0h0l0,0h0l0,0h0l0-.06v0l0-.07v0l0-.09h0l0.06-.11h0a10.13,10.13,0,0,0,1-3.09A8.18,8.18,0,0,0,252.94,144.1Z"/><path class="g" d="M125.07,103.68c-0.19.08-.63-0.21-0.48,0.34Z"/><path class="g" d="M125.09,103.66l0,0h0Z"/><polygon class="g" points="227.45 105.58 227.45 105.58 227.46 105.58 227.45 105.58"/><path class="g" d="M228.07,105.75l-0.62-.17C227.62,105.77,227.73,106.2,228.07,105.75Z"/><path class="g" d="M157.63,168l0.21-.56A1,1,0,0,0,157.63,168Z"/><path class="g" d="M194.93,169.19a0.85,0.85,0,0,0,.18-0.13,2.62,2.62,0,0,0-.19-0.34Q194.92,169,194.93,169.19Z"/><path class="g" d="M222,130.17l0.62,0.2C222.39,130.08,222.18,130,222,130.17Z"/><path class="g" d="M221.43,173.41a17.54,17.54,0,0,0,4.44-2.19c7.51-4.16,15-8.39,23.79-9.28-0.61-.76-1.46-0.42-2.22-0.5-2.79-.28-5.52.42-8.29,0.52l-0.23.18,0.18-.22,4.78-3.38c-3.1.18-4.76,2.39-7.13,2.93a30.71,30.71,0,0,1-6.36,5,21.59,21.59,0,0,1-7.06,4.42C223.12,172.05,221.32,172,221.43,173.41Z"/><path class="g" d="M117.62,163.31c-0.3-.29-0.6-0.58-0.88-0.89-2.61-1-4.76-3-7.69-3.21,1.69,1.37,3.94,1.89,5.33,3.67l0.62,0.19-0.12.18-0.51-.35a30.62,30.62,0,0,0-11-.77l2.44,0.78a53.85,53.85,0,0,1,17.6,6.8c2.65,1.54,5.2,3.36,8.22,4.19-0.35-1.27-1.59-1.7-2.51-2.44A21.62,21.62,0,0,1,117.62,163.31Z"/><path class="i" d="M173.69,80.93c0,1,0,2,.08,2.95s0.08,2,.14,2.95q0,0.73.09,1.44c0,0.48.06,0.95,0.1,1.41,0.14,1.85.31,3.57,0.49,5s0.36,2.71.5,3.57c0.07,0.43.14,0.77,0.18,1l0.07,0.35,0-.36c0-.23.07-0.57,0.1-1,0.08-.87.17-2.11,0.24-3.59s0.11-3.22.11-5.07c0-.46,0-0.93,0-1.41s0-1,0-1.45c0-1,0-2-.08-2.95s-0.08-2-.14-2.95c0-.49-0.06-1-0.09-1.44s-0.06-.95-0.1-1.41c-0.14-1.85-.31-3.57-0.49-5s-0.36-2.71-.5-3.57c-0.07-.43-0.14-0.77-0.18-1L174.17,68l0,0.36c0,0.23-.07.57-0.1,1-0.08.87-.17,2.11-0.24,3.59s-0.11,3.22-.11,5.07c0,0.46,0,.93,0,1.41S173.68,80.44,173.69,80.93Z"/><path class="i" d="M179.39,71.72l1.5,0.38,2.05,0.48,1.14,0.27L184.66,73l0.58,0.15c0.39,0.08.78,0.2,1.16,0.3s0.76,0.21,1.13.3,0.72,0.21,1.06.3l0.5,0.13,0.46,0.14,0.83,0.22L191,74.72l0.44,0.1,0.16,0-0.1-.13c-0.07-.08-0.16-0.2-0.29-0.34l-0.48-.51c-0.19-.19-0.43-0.37-0.69-0.58L189.66,73l-0.46-.29a9.47,9.47,0,0,0-1-.57l-0.57-.26a5.38,5.38,0,0,0-.6-0.23,11.64,11.64,0,0,0-1.26-.38l-0.64-.15L184.44,71a6.24,6.24,0,0,0-.64-0.08l-0.62,0c-0.41,0-.81,0-1.19,0s-0.73.05-1.06,0.1-0.62.11-.89,0.17-0.49.13-.67,0.19a4.62,4.62,0,0,0-.57.23l0.16,0Z"/><path class="i" d="M157.26,73.36l0.69-.08,0.88-.09,1-.13,0.55-.08,0.58-.07,0.59-.09,0.61-.08,0.61-.09,0.62-.08c0.41-.07.83-0.11,1.24-0.18s0.81-.11,1.2-0.18,0.77-.13,1.13-0.18l1-.18,0.87-.18,0.68-.15,0.44-.11,0.16,0a5.55,5.55,0,0,0-.58-0.24,10.56,10.56,0,0,0-1.57-.41c-0.33-.06-0.69-0.11-1.07-0.15s-0.78-.06-1.2-0.08h-0.63c-0.21,0-.43,0-0.65,0-0.44,0-.88.07-1.32,0.13l-0.66.1c-0.22,0-.43.09-0.65,0.14a11.05,11.05,0,0,0-1.24.34l-0.58.2-0.55.22-0.51.23-0.47.24c-0.3.16-.56,0.32-0.79,0.46l-0.58.42-0.36.29-0.12.11h0.17Z"/><path class="i" d="M142.71,84.89c0.38-.09.82-0.22,1.34-0.34l1.75-.39,0.49-.11,0.51-.1,1.07-.22c0.73-.17,1.51-0.28,2.3-0.44s1.63-.27,2.47-0.42l0.63-.11,0.64-.09,1.29-.19c0.43-.08.86-0.12,1.29-0.18l1.28-.18c0.85-.09,1.68-0.22,2.5-0.31l4.45-.54,3.17-.39,1.21-.16-0.31-.07c-0.21,0-.51-0.1-0.89-0.16s-0.85-.12-1.39-0.19-1.15-.12-1.81-0.16-1.39-.08-2.15-0.08-1.57,0-2.4,0c-0.42,0-.84,0-1.27.06l-1.3.09c-0.87.09-1.76,0.18-2.64,0.31l-1.32.21-0.66.11L152.3,81l-1.28.28c-0.42.09-.83,0.2-1.24,0.32-0.81.23-1.59,0.44-2.31,0.71l-1.05.38-0.5.19-0.47.2-1.66.76c-0.49.24-.89,0.49-1.23,0.69l-0.78.47-0.27.17,0.32-.07Z"/><path class="i" d="M185.2,80.2c-1.3.07-2.39,0.18-3.15,0.29l-0.88.13-0.31.06,1.18,0.2c0.75,0.12,1.82.28,3.11,0.45l2.07,0.27,2.3,0.29L192,82.19c0.83,0.11,1.68.21,2.52,0.33l1.26,0.17L197,82.87l0.62,0.1,0.61,0.09,1.19,0.2,1.15,0.21,1.1,0.22,1,0.23,1,0.24,0.88,0.25,0.78,0.25c0.48,0.18.91,0.33,1.25,0.48a8.64,8.64,0,0,1,.79.37l0.28,0.14-0.22-.23a6.22,6.22,0,0,0-.65-0.61,11,11,0,0,0-1.13-.83l-0.74-.44-0.85-.44c-0.3-.15-0.62-0.28-0.95-0.42s-0.68-.26-1-0.4L201,81.91l-1.17-.34c-0.8-.21-1.63-0.41-2.47-0.57s-1.71-.3-2.58-0.42-1.73-.21-2.59-0.28-1.7-.12-2.51-0.15C188,80.1,186.5,80.12,185.2,80.2Z"/><path class="i" d="M126.8,102.67c0.56-.29,1.21-0.67,2-1s1.68-.77,2.66-1.18l1.55-.6,1.67-.59,1.78-.58,1.88-.55c0.64-.16,1.29-0.36,2-0.52l1-.25,1-.24c0.68-.16,1.37-0.31,2.06-0.46l1-.22,1-.2c1.39-.28,2.8-0.51,4.18-0.75l2.06-.32,2-.29c1.32-.19,2.61-0.35,3.83-0.5L162,94l2.92-.32,2.26-.23,2-.19-0.52-.06c-0.34,0-.83-0.09-1.46-0.13s-1.4-.1-2.28-0.13-1.87-.06-3-0.07-2.26,0-3.5.07l-1.91.1c-0.65,0-1.32.09-2,.15a80.36,80.36,0,0,0-8.43,1.16l-1.07.21-1.06.23c-0.71.15-1.41,0.33-2.1,0.51-1.39.35-2.74,0.77-4,1.2l-1.89.68-1.78.73-1.66.76-1.52.78c-1,.54-1.82,1-2.54,1.56s-1.34,1-1.85,1.36a8.46,8.46,0,0,0-.64.55l-0.46.42-0.38.35,0.45-.26C125.84,103.24,126.25,103,126.8,102.67Z"/><path class="i" d="M200.56,94q-1.14-.18-2.27-0.32c-0.75-.1-1.49-0.19-2.22-0.27-2.92-.33-5.65-0.52-8-0.62-1.17-.05-2.25-0.07-3.2-0.08s-1.78,0-2.47,0-1.22,0-1.59,0l-0.56,0L188,93.93c2.31,0.34,5,.74,7.86,1.21L198,95.5l2.23,0.39c1.5,0.27,3,.55,4.53.86s3,0.64,4.5,1,2.92,0.72,4.31,1.11a56.9,56.9,0,0,1,7.42,2.59,29.42,29.42,0,0,1,2.8,1.41,21.49,21.49,0,0,1,2,1.33l0.37,0.3c0.12,0.09.23,0.18,0.33,0.27s0.37,0.32.5,0.45l0.4,0.39-0.32-.46a12.31,12.31,0,0,0-1-1.23,16.46,16.46,0,0,0-1.87-1.66,23.6,23.6,0,0,0-2.71-1.8,35.4,35.4,0,0,0-3.43-1.71c-1.25-.54-2.59-1.06-4-1.53-0.7-.24-1.42-0.46-2.15-0.68l-1.1-.32-1.12-.3c-1.5-.39-3-0.74-4.57-1.06S202.09,94.25,200.56,94Z"/><path class="i" d="M160.42,171.87a3.39,3.39,0,0,0,.18.48,3.59,3.59,0,0,0,.22.34c0.06,0.09.13,0.16,0.16,0.2l0.06,0.07,0-.09,0.12-.23,0.15-.33c0.06-.12.13-0.25,0.2-0.39s0.06-.14.1-0.21l0.12-.21,0.11-.22,0.13-.22,0.12-.22,0.13-.22c0.07-.15.18-0.3,0.26-0.45s0.19-.3.27-0.46,0.18-.31.28-0.46l0.13-.23c0-.08.09-0.15,0.13-0.23s0.17-.3.24-0.44,0.28-.54.37-0.73l0.1-.23,0-.09a1.81,1.81,0,0,0-.36,0,3.18,3.18,0,0,0-.87.18,3.85,3.85,0,0,0-1.08.6,4.24,4.24,0,0,0-.52.48,4.71,4.71,0,0,0-.44.6,3.69,3.69,0,0,0-.32.68c0,0.12-.08.24-0.11,0.35s0,0.24-.06.36,0,0.24,0,.35,0,0.23,0,.34,0,0.22,0,.32A2.72,2.72,0,0,0,160.42,171.87Z"/><path class="i" d="M167.38,173.49a2.86,2.86,0,0,0,.19.53,4.37,4.37,0,0,0,.23.43,3.56,3.56,0,0,0,.24.3l0.18,0.18,0.07,0.06,0-.08c0-.05.06-0.13,0.1-0.23s0.08-.21.12-0.33,0.1-.26.15-0.41,0.1-.3.15-0.45,0-.16.07-0.24,0.06-.16.08-0.25l0.14-.51c0-.17.08-0.35,0.12-0.53s0.08-.36.1-0.54,0.06-.36.08-0.54,0-.36.05-0.52,0-.34,0-0.49,0-.3,0-0.44,0-.26,0-0.36,0-.19,0-0.25v-0.09a2,2,0,0,0-.31.15,3.28,3.28,0,0,0-.67.52,3.78,3.78,0,0,0-.36.41,4.44,4.44,0,0,0-.33.51,4.78,4.78,0,0,0-.27.59,4.67,4.67,0,0,0-.19.64,4.13,4.13,0,0,0-.09.67c0,0.11,0,.22,0,0.33s0,0.22,0,.33,0,0.21,0,.31S167.35,173.4,167.38,173.49Z"/><path class="i" d="M176.73,174.94c0,0.15.08,0.3,0.13,0.44a4.87,4.87,0,0,0,.3.68c0,0.08.09,0.15,0.12,0.2l0,0.07,0.06-.06,0.16-.16,0.22-.26a3.23,3.23,0,0,0,.23-0.35,4.62,4.62,0,0,0,.21-0.43,5.17,5.17,0,0,0,.17-0.49,4.19,4.19,0,0,0,.11-0.54,4.6,4.6,0,0,0,0-.56,4.4,4.4,0,0,0-.13-1.11,4.2,4.2,0,0,0-.16-0.5,3.66,3.66,0,0,0-.21-0.44,3,3,0,0,0-.46-0.62l-0.17-.16-0.07-.05-0.14.28a6.3,6.3,0,0,0-.28.67,6,6,0,0,0-.34,1.91c0,0.17,0,.34,0,0.51s0,0.34.06,0.5A4.85,4.85,0,0,0,176.73,174.94Z"/><path class="i" d="M185.44,169l0.21,0.47,0.11,0.26c0,0.09.08,0.18,0.12,0.28s0.08,0.19.12,0.28,0.08,0.2.12,0.3,0.15,0.41.24,0.61l0.24,0.63c0.07,0.22.16,0.42,0.24,0.64s0.16,0.42.24,0.63,0.15,0.41.24,0.61,0.15,0.39.22,0.56,0.16,0.34.22,0.49,0.13,0.28.19,0.39,0.11,0.2.14,0.26l0.06,0.09,0.05-.09c0-.06.08-0.15,0.14-0.26s0.11-.25.18-0.42,0.06-.17.09-0.26,0-.19.07-0.29,0.08-.43.11-0.67,0-.49,0-0.76a6,6,0,0,0-.11-0.81,6.75,6.75,0,0,0-.24-0.81,7,7,0,0,0-.37-0.77,4.83,4.83,0,0,0-.48-0.68c-0.09-.1-0.17-0.21-0.26-0.3L187,169.1a4.28,4.28,0,0,0-.56-0.41,3.72,3.72,0,0,0-.53-0.27,2.92,2.92,0,0,0-.44-0.14l-0.3,0H185.1l0,0.1c0,0.06.07,0.15,0.12,0.26Z"/><path class="i" d="M168.89,144.41l-0.38.29-0.14.1h0.17a4.41,4.41,0,0,0,.48-0.1c0.41-.1,1-0.27,1.63-0.45a20.53,20.53,0,0,1,4.81-.79h0.65l0.65,0c0.43,0,.86.05,1.27,0.11l0.61,0.08,0.58,0.09c0.38,0.06.74,0.14,1.07,0.21l0.48,0.11,0.44,0.11c0.27,0.08.52,0.12,0.72,0.18l0.47,0.12,0.17,0-0.13-.12-0.37-.31c-0.16-.14-0.37-0.28-0.61-0.45s-0.53-.33-0.85-0.51l-0.51-.25c-0.18-.09-0.37-0.16-0.56-0.24s-0.4-.15-0.61-0.22-0.43-.13-0.65-0.19-0.45-.1-0.69-0.15-0.47-.07-0.71-0.1-0.49,0-.73-0.06-0.49,0-.74,0a11,11,0,0,0-1.46.15,10.25,10.25,0,0,0-1.38.34,10.76,10.76,0,0,0-2.26,1A12.56,12.56,0,0,0,168.89,144.41Z"/><path class="i" d="M181.47,146.18a13.14,13.14,0,0,0-1.87-.56c-0.33-.08-0.67-0.14-1-0.19l-0.52-.08-0.53,0a17.82,17.82,0,0,0-2.15,0l-1.07.08c-0.35,0-.71.08-1.05,0.14l-0.52.08-0.51.1c-0.34.06-.67,0.15-1,0.23-0.64.17-1.26,0.36-1.83,0.57s-1.1.43-1.58,0.65-0.91.44-1.28,0.66-0.69.41-1,.58a9.45,9.45,0,0,0-.78.57l0.94-.21c0.59-.13,1.43-0.32,2.43-0.52,0.5-.1,1-0.21,1.61-0.3s1.17-.2,1.79-0.29a38.57,38.57,0,0,1,3.87-.37c0.66,0,1.31,0,2,0l0.48,0,0.47,0c0.32,0,.62.05,0.93,0.08s0.6,0.08.9,0.12,0.58,0.1.86,0.15,0.55,0.12.81,0.17l0.39,0.09,0.37,0.1c0.49,0.12.92,0.28,1.31,0.4l1,0.38,0.65,0.27,0.24,0.09-0.17-.19c-0.12-.12-0.28-0.3-0.5-0.51s-0.52-.45-0.86-0.72a12,12,0,0,0-1.24-.79l-0.36-.2-0.39-.18C182,146.41,181.76,146.29,181.47,146.18Z"/><path class="g" d="M185.24,154.22c-0.7,2.71-3.8,4.89-9.1,5-6.07.1-10-3.16-9.91-5-3.17.53-7.07,9.91-8.39,13.33l-0.21.56-0.11.3-0.14.37c0.82,0.38,6.22-9.66,8.85-11.41,0.93,1.33,3.72,3.89,9.79,3.89s7.75-2.2,9.43-3.86c6.62,5.89,9,12.3,9.46,11.61C189.62,156.82,186.25,154.62,185.24,154.22Z"/><path class="a" d="M176.15,159.2c5.29-.09,8.4-2.27,9.1-5a4.8,4.8,0,0,0,.15-1.23c0-3.26-3.89-4.22-9.93-4.15-7.14.08-9.18,3.42-9.23,5.31S170.07,159.3,176.15,159.2Z"/><path class="i" d="M167.38,216.16c0-.37-0.07-0.77-0.09-1.22,0,0.15-.07.31-0.09,0.46a6.3,6.3,0,0,0-.08,1.1A3,3,0,0,1,167.38,216.16Z"/><path class="i" d="M171.72,209.91l0,0-0.07,0Z"/><path class="i" d="M167.38,214.64l0.06-.18Z"/><path class="i" d="M167.48,214.33l0.11-.28Z"/><path class="i" d="M167.67,213.84l0.06-.14Z"/><polygon class="i" points="184.22 225.72 184.22 225.72 184.22 225.72 184.22 225.72"/><path class="f" d="M194.88,219.49l-0.11-.33v0a3.93,3.93,0,0,0-1.32-2h0a3.54,3.54,0,0,0-.5-0.83,3.91,3.91,0,0,0-.76-0.73c0.34-2.48.29-8-6.9-7.57h0a5.83,5.83,0,0,0-1.21-.07,7.35,7.35,0,0,0-.85.09l-0.34.06a11.15,11.15,0,0,0-2.6.93h0a4.63,4.63,0,0,0-1.13-.44h0l-0.16,0H179l-0.23,0-0.09,0-0.13,0-0.12,0-0.12,0-0.24,0H176.9l-0.28,0h-0.07l-0.36,0H176.1l-0.31,0h-0.08l-0.4.08-0.07,0-0.35.08-0.1,0-0.44.12h0l-0.42.14-0.11,0-0.44.17h0l-0.48.2-0.12.05-0.42.2-0.09,0-0.51.26-0.11.06-0.43.25-0.13.07-0.53.33-0.09.06L170,211l-0.15.1-0.56.41h0l-0.35.39-0.13.16-0.18.23-0.15.21-0.12.17-0.16.25-0.07.12-0.17.29,0,0-0.16.33-0.06.14-0.09.21-0.11.28,0,0.1v0l-0.06.18c0,0.1-.06.2-0.08,0.31h0c0,0.45,0,.85.09,1.22a2.5,2.5,0,0,1,.54-0.46,2,2,0,0,1,3,1.18,3.7,3.7,0,0,1,0,1.79,5,5,0,0,1-1.71,2.76,2.07,2.07,0,0,1-1.21.45,5.56,5.56,0,0,1-.48-0.56,4.69,4.69,0,0,1-.86-1.91,9,9,0,0,0-1.39,3.63c-0.61,3.19,2.51,5.17,4.73,5.15H170c0.09-1.53.88-4.46,3.71-5.45a4.25,4.25,0,0,1,.71-2.69,2.45,2.45,0,0,1,3.12-1.1c1.47,0.8,1.25,2.4.38,3.72a14.21,14.21,0,0,0,1.79-.47,3.22,3.22,0,0,0,0,1.29c0.5-1.63,2-2.6,3.23-1.95,1.55,0.85,1,2.69-.17,3.92l-0.3.29c0.55,0,1.15-.06,1.75,0h0l0.26,0h0l0.27,0a3.11,3.11,0,0,1,2.18,1.38,3.16,3.16,0,0,1,.13.64h0A10,10,0,0,1,187,230c-0.09.71-.2,1.24-0.2,1.24l0.15,0a14.29,14.29,0,0,0,6-3.86A8.73,8.73,0,0,0,194.88,219.49Z"/><path class="h" d="M167.38,216.16a3,3,0,0,0-.26.34,3.94,3.94,0,0,0-.52,2.91,4.69,4.69,0,0,0,.86,1.91,5.56,5.56,0,0,0,.48.56,2.07,2.07,0,0,0,1.21-.45,5,5,0,0,0,1.71-2.76,3.7,3.7,0,0,0,0-1.79,2,2,0,0,0-3-1.18A2.5,2.5,0,0,0,167.38,216.16Z"/><path class="h" d="M174.54,224.74c1.15,0.15,2.56-.83,3.38-2.06s1.09-2.91-.38-3.72a2.45,2.45,0,0,0-3.12,1.11,4.23,4.23,0,0,0-.7,2.68,5.09,5.09,0,0,0,.54,1.93Z"/><path class="h" d="M180,226.6a2.69,2.69,0,0,0,2.44-.85l0.3-.29c1.15-1.23,1.72-3.08.17-3.92-1.2-.66-2.72.32-3.23,1.95A4.16,4.16,0,0,0,180,226.6Z"/><path class="i" d="M193.68,173.91a31.16,31.16,0,0,1-17.42,5c-9.6,0-17.57-5.58-18.55-4.82a0.64,0.64,0,0,0-.22.66c-0.17,1,1.2,3.22,5.72,7,5.31,4.44,9.86,5.63,13.4,5.63s8.43-2.53,11.49-4.85a24.28,24.28,0,0,0,6.37-6.73,2.69,2.69,0,0,0,.33-1.42C194.86,173.73,194.52,173.26,193.68,173.91Z"/><path class="g" d="M74.9,100.55C65,100.63,58.25,96,53.56,93.18s-10.22-6.49-17.25-5.46C44.79,90,49.37,92.4,55.06,101.4l0.3,0.52S64.3,117,65.83,119.17c1-.63.92-0.9,3.37,0.3s9.75,4.9,12.07,6.7,5.35,8.21,6.93,10.28-2.72,3.16-4.35,4.68-4.24.67-4.24,0.67a43.24,43.24,0,0,0,12.93,4.28,53.13,53.13,0,0,1,5.35-18.63,128.53,128.53,0,0,1,13.63-19.18C104.86,102.67,91.17,99.63,74.9,100.55Z"/><path class="g" d="M297.18,91.54c-4.69,2.82-11.43,7.45-21.34,7.38-16.27-.92-30,2.12-36.61,7.72a128.53,128.53,0,0,1,13.63,19.18,53.13,53.13,0,0,1,5.35,18.63,62.64,62.64,0,0,0,13.09-4.18s-2.76.76-4.4-.77-5.93-2.61-4.35-4.68,4.61-8.47,6.93-10.28,9.63-5.5,12.07-6.7,2.33-.92,3.37-0.3c1.53-2.12,10.46-17.25,10.46-17.25l0.3-.52c5.69-9,10.27-11.36,18.75-13.68C307.4,85.05,301.88,88.72,297.18,91.54Z"/><path class="i" d="M260.49,154.61c1,8.74-3,15.61-8.77,21.44s-13.16,9.36-20.82,12.19a125.7,125.7,0,0,1-19.76,5.23A77,77,0,0,1,196.72,195c0-1.6,1.42-2.6,1.35-4-14.76,14.13-29.38,13.86-44.1-.45,0,2,1.58,2.81,1.86,4.45-0.69,0-1.3,0-1.9,0-8.14-.66-16.18-1.6-24-4.14-9.82-3.18-19.18-7-27-14s-12.41-15.32-12.2-26c0-1.07.4-2.24-.41-3.22-0.77,4-.32,8,0.21,11.87,1.39,10.12,7,17.78,14.92,23.83a63.66,63.66,0,0,0,5.85,3.95c8.94,5.34,18.84,8.4,29.11,10.57,0.64,0.14,1.29.23,1.94,0.32,1.17,0.16,2.35.29,3.51,0.55a12.08,12.08,0,0,1,1.71.51A25.83,25.83,0,0,1,162,202.1a13.82,13.82,0,0,0,5.16,1.57q1.18,0.33,2.36.58a32.82,32.82,0,0,0,15.6-.47l0.1,0a13,13,0,0,1,1.53-.17,93.71,93.71,0,0,0,9.4-3.85c2.39-1.1,5.16-.12,7.73-0.83a8.53,8.53,0,0,1,4-.5l1-.19,3.41-.66c3.13-.62,6.25-1.29,9.33-2.14,9.95-2.74,19.55-6.25,27.67-12.87,9.57-7.81,13.43-17.91,11.7-30.15l0,0C260.21,153,260.4,153.88,260.49,154.61Z"/><path class="i" d="M57.35,100.83c2.26,1.14,26,13,30.49,15.17s3.46,3.55,6.95,8.39a32,32,0,0,0,2.63,3.9l0.47-.84a128.53,128.53,0,0,1,13.63-19.18c-6.65-5.6-20.35-8.64-36.61-7.72C65,100.63,58.25,96,53.56,93.18s-10.22-6.49-17.25-5.46C44.79,90,49.37,92.4,55.06,101.4l0.3,0.52C55.88,99.88,57.35,100.83,57.35,100.83Z"/><path class="i" d="M297.18,91.54c-4.69,2.82-11.43,7.45-21.34,7.38-16.27-.92-30,2.12-36.61,7.72a128.53,128.53,0,0,1,13.63,19.18l0.47,0.84a32,32,0,0,0,2.63-3.9c3.49-4.84,2.41-6.21,6.95-8.39s28.22-14,30.49-15.17c0,0,1.47-.95,2,1.09l0.3-.52c5.69-9,10.27-11.36,18.75-13.68C307.4,85.05,301.88,88.72,297.18,91.54Z"/><path class="j" d="M193.68,173.91a31.16,31.16,0,0,1-17.42,5c-9.6,0-17.57-5.58-18.55-4.82a0.64,0.64,0,0,0-.22.66c0.15,1,1.67,2.75,5.72,5.62,5.31,3.76,9.86,4.76,13.4,4.76S185,183,188.1,181c0,0,4.26-2.51,6.37-5.69a2.09,2.09,0,0,0,.33-1C194.86,173.73,194.52,173.26,193.68,173.91Z"/><path class="i" d="M99,141.39c2.36-3.54,10.38-5.44,21.48-6.43,3.84-3.56,9,.82,14.64.82,5.09,0,9.76-4.78,13.45-1.82H151c9.06,0,14.6-.82,18-1.85,0.79-3.5,1.54-7.29,2.07-10.74,1.18-7.64.63-11.85-1.37-12.07-2.24.16,1.35,7.35-7.17,13.56-7,4.11-31.75-2.08-46.49,3.2s-17.84,12.18-19.15,15.87a6.9,6.9,0,0,0-.26.94A3.74,3.74,0,0,0,99,141.39Z"/><path class="i" d="M230.44,135.11c10.3,1,17.7,2.9,20,6.28a3.74,3.74,0,0,0,2.4,1.48,6.9,6.9,0,0,0-.26-0.94c-1.31-3.68-4.4-10.59-19.15-15.87s-39.48.91-46.49-3.2c-8.53-6.2-4.93-13.4-7.17-13.56-2,.22-2.55,4.43-1.37,12.07,0.53,3.44,1.28,7.23,2.07,10.74,3.39,1,8.93,1.83,18,1.85C199.68,134,228.22,133,230.44,135.11Z"/><path class="j" d="M148.59,134a21.55,21.55,0,0,0-34.92,14.82h0c-0.06.65-.09,1.31-0.09,2A21.55,21.55,0,1,0,148.59,134Z"/><path class="k" d="M135.13,131.4a19.37,19.37,0,1,0,19.37,19.37A19.37,19.37,0,0,0,135.13,131.4Zm0,33.17a13.8,13.8,0,1,1,13.8-13.8A13.8,13.8,0,0,1,135.14,164.57Z"/><circle class="l" cx="139.36" cy="145.16" r="4.95"/><path class="j" d="M230.44,135.11a21.57,21.57,0,0,0-7.85-4.74l-0.62-.2a21.53,21.53,0,1,0,15.23,20.6c0-.66,0-1.31-0.09-2A21.5,21.5,0,0,0,230.44,135.11Z"/><path class="k" d="M215.66,131.4A19.37,19.37,0,1,0,235,150.77,19.37,19.37,0,0,0,215.66,131.4Zm0.57,32a13.8,13.8,0,1,1,13.8-13.8A13.8,13.8,0,0,1,216.23,163.38Z"/><circle class="l" cx="220.45" cy="143.97" r="4.95"/><path class="i" d="M150.57,273.55c-3.08-1.2-5.42-2.22-7.2-3.13,2.42,3.34,8.83,8.66,26.15,10.57a15.87,15.87,0,0,0,1.68-1.32,87.61,87.61,0,0,1-11.12-2.88C157.33,276,152.66,274.4,150.57,273.55Z"/><path class="i" d="M212.95,269.14c-6.42,4.94-17.27,8.29-25.31,9.94a26.71,26.71,0,0,0,3.07,2.34C201.67,279.81,210.36,274.51,212.95,269.14Z"/><path class="g" d="M167.92,215.7a4.58,4.58,0,0,1-.48-1.27v0l-0.06.18c0,0.1-.06.2-0.08,0.31h0c0,0.45,0,.85.09,1.22A2.5,2.5,0,0,1,167.92,215.7Z"/><path class="g" d="M170.86,218.67c1.49-.46,1.31-1.44,1.61-2.72a4.54,4.54,0,0,1-1.57.93A3.7,3.7,0,0,1,170.86,218.67Z"/><path class="g" d="M187,211.08a6.14,6.14,0,0,1,.07,4l0.53-.15c1.06-1.75,1.51-3.59.53-5.16a4,4,0,0,0-2.84-1.79h0a5.83,5.83,0,0,0-1.21-.07,7.35,7.35,0,0,0-.85.09A4.81,4.81,0,0,1,187,211.08Z"/><path class="g" d="M182.76,225.47l-0.3.29c0.55,0,1.15-.06,1.75,0h0l0.26,0h0l0.24,0h0a11.08,11.08,0,0,0,8.39-5.81,3,3,0,0,0,.29-2.85,3.54,3.54,0,0,0-.5-0.83,5.22,5.22,0,0,1-1.28,3.28A17.18,17.18,0,0,1,182.76,225.47Z"/><path class="i" d="M172.82,214.94a4.85,4.85,0,0,0-.35,1c-0.3,1.27-.12,2.26-1.61,2.72a5,5,0,0,1-1.71,2.76,5.62,5.62,0,0,0,.79.73,3.4,3.4,0,0,0,2.19.54A4.39,4.39,0,0,0,170,225a1.74,1.74,0,0,1-.79,1c-1.16.48-3.06-.49-2.1-3.81a5.79,5.79,0,0,1,.34-0.91,4.69,4.69,0,0,1-.86-1.91,9,9,0,0,0-1.39,3.63c-0.61,3.19,2.51,5.17,4.73,5.15H170c0.09-1.53.88-4.46,3.71-5.45a4.23,4.23,0,0,1,.7-2.68,8.9,8.9,0,0,1,.09-4.48c0.92-4.15,5.78-6.58,5.78-6.58a4.63,4.63,0,0,0-1.13-.44C177.74,209,175.2,210.51,172.82,214.94Z"/><path class="i" d="M193.15,220a11.08,11.08,0,0,1-8.39,5.81h0a3.11,3.11,0,0,1,2.2,1.38,3.15,3.15,0,0,1,.13.64h0A10,10,0,0,1,187,230c-0.09.71-.2,1.24-0.2,1.24l0.15,0a14.29,14.29,0,0,0,6-3.86,8.73,8.73,0,0,0,1.94-7.79l-0.11-.33v0a3.93,3.93,0,0,0-1.32-2A3,3,0,0,1,193.15,220Z"/><path class="i" d="M188.12,209.79c1,1.58.52,3.41-.53,5.16h0l0.2,0a6.09,6.09,0,0,1,4.39.66h0c0.34-2.48.29-8-6.9-7.57A4,4,0,0,1,188.12,209.79Z"/><path class="f" d="M349,1V349H1V1H349m1-1H0V350H350V0h0Z"/></svg>