<svg xmlns="http://www.w3.org/2000/svg" viewBox="0 0 350 350"><defs><style>.a{fill:#5fa190;}.b{fill:#b1a48a;}.c{fill:#776658;}.d{fill:#3c332c;}.e{fill:#d5e9f3;}.f{fill:#d4fff4;}.g{fill:#3f6d5e;}.h{fill:#75baa5;}</style></defs><title>All-icons</title><path class="a" d="M349,1V349H1V1H349m1-1H0V350H350V0h0Z"/><path class="b" d="M221.32,229.16a0.28,0.28,0,0,0,.17,0Z"/><path class="b" d="M221.25,229.13l0,0h0a0.07,0.07,0,0,0,0,.05Z"/><path class="b" d="M310.31,233.45c0-.19,0-0.38,0-0.56s0-.38,0-0.56,0-.38,0-0.57,0-.61-0.05-0.92c0-.06,0-0.12,0-0.17s0-.13,0-0.19q-0.07-.88-0.16-1.73l0-.31q-0.1-.92-0.23-1.82l0-.27q-0.13-.85-0.28-1.67l-0.05-.28q-0.16-.88-0.34-1.74l0-.23q-0.18-.82-0.37-1.61l-0.06-.25q-0.21-.84-0.42-1.66l-0.05-.19q-0.21-.78-0.43-1.54l-0.07-.23q-0.23-.8-0.47-1.57l-0.05-.17-0.46-1.45-0.08-.23L306,212l-0.06-.19-0.44-1.31c-0.36-1.05-.7-2.07-1-3l0-.08L304,206h0q-0.21-.66-0.4-1.29l0-.1c-0.13-.43-0.25-0.84-0.35-1.25s-0.19-.7-0.29-1l-0.1-.32-0.22-.69-0.11-.35-0.22-.65L302.2,200l-0.27-.72-0.07-.19q-0.17-.45-0.35-0.87l-0.09-.2-0.28-.64-0.12-.27-0.26-.54-0.13-.26-0.28-.55-0.1-.19-0.39-.72v0l-0.37-.65-0.11-.19-0.28-.46-0.13-.2-0.28-.43-0.11-.17-0.35-.51,0-.05-0.39-.53-0.09-.11-0.29-.38-0.12-.15-0.26-.32-0.12-.14-0.28-.32-0.09-.1-0.35-.39-0.06-.06-0.28-.3-0.11-.11-0.22-.22-0.12-.12-0.2-.19-0.11-.1-0.23-.21-0.06-.05-0.26-.23-0.11-.09-0.14-.11-0.12-.1-0.11-.09-0.12-.09-0.08-.06a8.3,8.3,0,0,0-.74-0.52c-8.09-.4-17.14-0.42-23.13.86-1.37.29-2.58,0.6-3.6,0.91h0l-0.75-.25,0.16,0.05,0.08,0-0.08,0-0.16-.05h0l-1.15-.34h0l-1-.25-0.24-.05-0.83-.16-0.22,0a17.18,17.18,0,0,0-2-.2H259q-0.45,0-.88.06h-0.1l-0.77.11-0.12,0q-0.41.08-.8,0.18l-0.13,0-0.69.22-0.1,0c-0.25.09-.49,0.19-0.73,0.3l-0.14.07-0.64.33-0.08,0c-0.23.13-.45,0.27-0.67,0.42l-0.15.1c-0.2.14-.4,0.29-0.6,0.45l-0.05,0c-0.21.17-.41,0.35-0.61,0.54l-0.14.14c-0.2.19-.4,0.39-0.59,0.6a0.65,0.65,0,0,1-.23.2h0a1.11,1.11,0,0,1-.25.09h0l-0.31,0h-0.5l-0.37,0h-0.1l-0.52-.09-0.16,0-0.42-.09-0.23-.05-0.4-.1-0.26-.07-0.43-.11-0.27-.07-0.48-.14-0.25-.07-0.67-.19-0.08,0-1-.28-0.62-.18-0.34-.1-0.53-.16-0.37-.11-0.54-.15-0.36-.1-0.6-.16-0.31-.09-0.9-.23h0l-0.43-.11-0.09,0-0.37-.09-0.08,0-0.41-.09-0.07,0-0.44-.1h-0.06l-0.47-.1H237l-0.49-.1h-0.05l-0.51-.1h0l-0.53-.09h0l-0.55-.09h0l-0.57-.08h0l-0.59-.07h0c-4-.45-8.3-0.1-9.77,3l0,0,0,0.07-0.06.13,0,0,0,0.08,0,0,0,0.07,0,0.09h0l-0.08.21h0c0-.07,0-0.13.07-0.2h0l-0.07.19h0v0h0l0,0.11c0,0.1-.07.2-0.1,0.3l-0.05.21,0,0.19,0,0.21,0,0.19c0,0.06,0,.13,0,0.19s0,0.21,0,.31,0,0.11,0,.17,0,0.11,0,.16,0,0.1,0,.15,0,0.1,0,.15,0,0.08,0,.12,0,0.15,0,.21v0.32h0v0s5.24,1.22,5.23,16.21c0,15.28-5,17.93-6.7,18.39a2.48,2.48,0,0,1-.56.1s0,0.2-.06.59h0c0-.2,0-0.39,0-0.59-0.22,2.26-.93,10.41-0.91,22.64,0,3.32.06,6.93,0.2,10.81,1,27.86,3.56,37,5.32,38a1.57,1.57,0,0,0,.82.66h0.25l0.55,0,0.31,0,0.47,0,0.32,0,0.44-.06,0.33-.05,0.42-.07L230,301l0.41-.09,0.32-.08,0.4-.11,0.32-.09,0.39-.12,0.31-.1,0.38-.13,0.31-.11,0.38-.15,0.3-.12,0.37-.16,0.29-.13,0.37-.17,0.29-.13,0.38-.18,0.27-.13,0.39-.2,0.26-.13,0.42-.22,0.22-.11,0.63-.34h0c1.27-.7,2.52-1.42,3.78-2.08l1.27-.64q0.83-.4,1.67-0.74l0.5-.19a16.5,16.5,0,0,1,3.14-.85,9.43,9.43,0,0,1,0-1,9.42,9.42,0,0,0,0,1h0c0,0.17,0,.33,0,0.49s0,0.1,0,.15,0,0.2.05,0.3l0,0.17c0,0.09,0,.17.07,0.25L248,295l0.08,0.22,0.07,0.15,0.1,0.2,0.08,0.14,0.11,0.18,0.09,0.13,0.13,0.17,0.09,0.11,0.15,0.15,0.1,0.09,0.17,0.14,0.09,0.07,0.22,0.14,0.07,0,0.31,0.16,0.05,0,0.27,0.11,0.12,0,0.22,0.06,0.14,0,0.22,0,0.16,0,0.22,0h0.53l0.62,0h0.1l0.66-.1h0.06l0.7-.16h0l0.72-.23,0.1,0,0.71-.27,0.12-.05,0.71-.32,0.12-.06,0.73-.38,0.09,0,0.77-.45c4.83-3,9.07-10.58,25.38-17.53,10.87-4.63,18.65-16.23,23.09-23.9,0.19-.47.37-0.94,0.55-1.41l0.13-.35c0.17-.46.33-0.93,0.49-1.38l0-.08c0.15-.44.28-0.87,0.42-1.3l0.11-.36c0.13-.44.26-0.89,0.38-1.33l0-.17q0.16-.58.3-1.16l0.09-.39c0.1-.42.19-0.84,0.28-1.26l0.05-.27q0.1-.52.2-1l0.08-.43c0.07-.4.13-0.79,0.19-1.18l0.05-.37q0.06-.44.12-0.88L310,240c0-.37.08-0.74,0.11-1.1,0-.15,0-0.31,0-0.46s0-.5.06-0.75,0-.35,0-0.53c0-.34,0-0.68,0-1,0-.18,0-0.35,0-0.53s0-.42,0-0.63,0-.38,0-0.56S310.31,233.77,310.31,233.45Z"/><path class="c" d="M247.66,292.06h0c0-.19,0-0.41,0-0.66,0-.08,0-0.17,0-0.26s0-.37,0-0.57,0-.42,0-0.65,0-.47,0-0.73C248,284.26,249,274.12,252,254c-3.45,14.75-4.24,36.14-14.7,44,1.27-.7,2.52-1.42,3.78-2.08l1.27-.64q0.83-.4,1.67-0.74l0.5-.19a16.5,16.5,0,0,1,3.14-.85A11.74,11.74,0,0,1,247.66,292.06Z"/><path class="c" d="M225.71,300.68a5.78,5.78,0,0,0,2-.53c0.49-1.06.93-3.08,1.29-6.95-6.54-9.7-7.78-43.78-7.94-63.37v-0.05h0c0-.2,0-0.39,0-0.59-0.22,2.26-.93,10.41-0.91,22.64,0,3.32.06,6.93,0.2,10.81C221.37,290.5,224,299.67,225.71,300.68Z"/><path class="d" d="M221.18,229.19s0,0.2-.06.59v0.05c0.16,19.59,1.4,53.68,7.94,63.37,0.84-9,1.28-27.89,1-67.74-0.2-33.71-4.2-37.34-6-35.09l-0.06.08-0.11.19-0.12.22-0.1.2-0.1.23-0.06.15h0l0,0.11c0,0.1-.07.2-0.1,0.3l-0.05.21,0,0.19,0,0.21,0,0.19c0,0.06,0,.13,0,0.19s0,0.21,0,.31,0,0.11,0,.17,0,0.11,0,.16,0,0.1,0,.15,0,0.1,0,.15,0,0.08,0,.12,0,0.15,0,.21v0.32h0v0Z"/><path class="c" d="M295.72,243.6c-16.92,18.74-18.13,30.22-37.75,51.67,4.83-3,9.07-10.58,25.38-17.53,10.87-4.63,18.65-16.23,23.09-23.9,0.19-.47.37-0.94,0.55-1.41l0.13-.35c0.17-.46.33-0.93,0.49-1.38l0-.08c0.15-.44.28-0.87,0.42-1.3l0.11-.36c0.13-.44.26-0.89,0.38-1.33l0-.17q0.16-.58.3-1.16l0.09-.39c0.1-.42.19-0.84,0.28-1.26l0.05-.27q0.1-.52.2-1l0.08-.43c0.07-.4.13-0.79,0.19-1.18l0.05-.37q0.06-.44.12-0.88L310,240c0-.37.08-0.74,0.11-1.1,0-.15,0-0.31,0-0.46s0-.5.06-0.75,0-.35,0-0.53c0-.34,0-0.68,0-1,0-.18,0-0.35,0-0.53s0-.42,0-0.63,0-.38,0-0.56,0-.64,0-1,0-.38,0-0.56,0-.38,0-0.56,0-.38,0-0.57,0-.61-0.05-0.92c0-.06,0-0.12,0-0.17A121.39,121.39,0,0,0,295.72,243.6Z"/><path class="e" d="M251.66,92.33a5.07,5.07,0,1,0-5.07-5.07A5.08,5.08,0,0,0,251.66,92.33Zm0-6.37a1.3,1.3,0,1,1-1.3,1.3A1.3,1.3,0,0,1,251.66,86Z"/><path class="e" d="M264.32,123.3H235.24a5.07,5.07,0,1,0-.18,3.77H264.5A5.07,5.07,0,1,0,264.32,123.3Zm-33.87,3a1.3,1.3,0,1,1,1.3-1.3A1.3,1.3,0,0,1,230.45,126.27Zm38.65-2.6a1.3,1.3,0,1,1-1.3,1.3A1.3,1.3,0,0,1,269.1,123.67Z"/><path class="a" d="M223.21,194.49l-1.44-.28-0.08-.06-0.05,0v0.07l-0.34-.33c-0.16-.14-0.32-0.28-0.47-0.42l-0.07-.07h0c-4.82-4.82-9.65-10-17.93-10l-1.1,0v0l-0.26,0a32.86,32.86,0,0,0-11.76,3.43,27.82,27.82,0,0,0-4.7,2.78,15.65,15.65,0,0,0-4.25,4.1h0c-0.28.35-.55,0.7-0.8,1.05-5.53,6.38-17.1,3.86-26.88,5.74-5.43,1-9.83,3-12.68,5.66l1-.28a31.61,31.61,0,0,1,7.78-1.1h0c7.34,0,12.16,3.74,13.21,10.26a10,10,0,0,1-2,8.4,9.4,9.4,0,0,1-1.28,1.23c2.9-.23,4.9-1.28,7.35-2.58,1.18-.62,2.44-1.29,3.9-1.91,4.14-1.78,9.86-3.25,20-2.58,1.74,0.06,3.3,0,4.7-.06,7-.43,9.9-2.34,9.93-2.37a1.87,1.87,0,0,1,2.62.42,1.9,1.9,0,0,1-.43,2.64A14.58,14.58,0,0,1,203,220a40.49,40.49,0,0,1-12.84,1.34h-0.06c-12.6-.84-17.52,1.76-21.87,4.06-3,1.57-5.79,3.06-10.29,3.06h-0.15a42.77,42.77,0,0,1-9.29-1,43.86,43.86,0,0,1-8.33-1.07c-6.1-1.34-12-3.76-14.27-6.21a5,5,0,0,1-1.51-3.81,5.41,5.41,0,0,1,2.34-3.84c0.45-.36.94-0.7,1.43-1s1.19-.74,1.87-1.12l-1.4.29c-5.19-4.94-9.57-5.84-15-5.84-1.2,0-2.46,0-3.78.1-4.75-2.76-8.76-3.75-12.06-3.75a15.33,15.33,0,0,0-3.89.49c0.6,0.33,1.2.66,1.79,1,4.69,2.75,8.67,6.18,9,11.41a7.36,7.36,0,0,1-1.75,5.74,6.06,6.06,0,0,1-2.18,1.47,7.21,7.21,0,0,1-2.71.5,11,11,0,0,1-2.29-.27c5.55,3,12.11,4.76,16.21,6.08,8.46,2.72,3.63,2.72,24.78,9.37,18.13,1.51,17.53,11.18,34.75,7.55,14.73-3.1,29.69-15,49.59-15.41h0.11l0,0,0,0,0,0,0.14,0,0.17,0,0.14,0h0.12c1.7-.46,6.68-3.11,6.7-18.39C228.45,195.72,223.21,194.49,223.21,194.49Z"/><path class="f" d="M89,214.32S94.59,218,98.15,218c1.78,0,3.05-.92,2.88-3.69-0.53-8.31-16.74-11.47-21.88-17C78.35,206,84.15,211.71,89,214.32Z"/><path class="f" d="M149.24,208.52c-9,0-20.94,6.46-21,8.07-0.15,2.38,11.91,7.09,20.95,7.09,5.93,0,10.56-2,9.58-8.08C157.88,210.33,154,208.52,149.24,208.52Z"/><path class="f" d="M114.12,152.73l1.12,1L115.6,154l0.77,0.65,0.45,0.36,0.7,0.56L118,156l0.67,0.51,0.5,0.37,0.67,0.48,0.51,0.36,0.66,0.45,0.52,0.35,0.67,0.43,0.53,0.33,0.67,0.41,0.53,0.32,0.68,0.39,0.53,0.3,0.69,0.38,0.53,0.28,0.7,0.36,0.52,0.26,0.72,0.35,0.51,0.24,0.75,0.34L130,163.1l0.8,0.35,0.43,0.19,0.9,0.36,0.35,0.14,1.23,0.46h0L135,165l0.22,0.07,1,0.34,0.4,0.12,0.85,0.26L138,166l0.79,0.22,0.5,0.13,0.76,0.19,0.51,0.12,0.74,0.17,0.53,0.11,0.73,0.15,0.54,0.1,0.72,0.13,0.54,0.09,0.72,0.11,0.55,0.08,0.71,0.1,0.54,0.07,0.71,0.08,0.54,0.06,0.72,0.07,0.53,0,0.73,0.05,0.52,0,0.75,0,0.49,0,0.8,0h1.66c0.69,0,1.39,0,2.07,0h0.19c0.66,0,1.32-.06,2-0.11l0.26,0q1-.07,1.9-0.17l0.3,0,1.85-.23,0.31,0,1.82-.3,0.29-.05q0.91-.17,1.81-0.36l0.24-.05q0.92-.2,1.83-0.43l0.15,0q0.93-.24,1.83-0.5h0.05q0.91-.27,1.8-0.56l0.18-.06q0.85-.28,1.68-0.59l0.24-.09q0.8-.3,1.59-0.63l0.26-.11q0.77-.33,1.52-0.67l0.26-.12q0.75-.35,1.47-0.72l0.24-.12q0.73-.38,1.43-0.77l0.19-.11q0.72-.41,1.41-0.84l0.12-.08,0.76-.49-1.81-3.39c-12.76,7.2-26.26,9.48-40.55,6.24A54.44,54.44,0,0,1,107.74,139a55.79,55.79,0,0,1,74.62-79A54.66,54.66,0,0,1,206.24,88c5.59,14.48,5,28.88-1,43.19l3.67,1.4c8.54-17.82,7.55-43.92-8.88-63.11q-0.82-1-1.7-1.9l-0.12-.13q-1-1-2-2t-2.17-2q-2.23-2-4.74-3.77c-0.6-.43-1.2-0.84-1.8-1.25l-0.36-.24q-0.88-.58-1.78-1.13L185,56.81q-0.88-.53-1.77-1l-0.14-.08c-0.62-.34-1.25-0.67-1.89-1l-0.36-.18q-0.94-.47-1.89-0.91l-0.24-.11q-0.92-.42-1.85-0.8l-0.21-.09q-1-.4-2-0.75l-0.34-.12c-0.66-.24-1.33-0.47-2-0.68l-0.11,0q-1-.31-2-0.59L170,50.38q-1-.27-2-0.51l-0.32-.07q-2.06-.48-4.14-0.8l-0.32-.05q-1-.15-2-0.27l-0.31,0c-0.67-.07-1.34-0.14-2-0.19H158.8c-0.68-.05-1.36-0.09-2-0.12l-0.39,0q-1,0-2,0h-1.5l-0.59,0-0.94,0-0.61,0-0.94.06-0.59,0-1.07.1-0.45,0-1.47.18-0.56.08-0.94.14-0.66.11-0.84.15-0.69.13-0.81.17-0.68.15-0.83.2-0.65.16-1.06.28-0.87.25-0.92.27-0.67.21-0.78.25-0.7.24-0.75.27-0.7.26-0.75.29-0.67.27-0.81.34-0.6.25-1.32.6-0.59.29-0.79.38-0.64.32-0.74.38-0.64.34-0.73.41-0.62.35-0.77.46-0.56.34-1.05.67-0.51.34-1,.67-0.51.36-0.77.55-0.53.4-0.73.56-0.52.41-0.75.6-0.48.39-0.86.74-0.34.29-1.17,1.06-0.32.3-0.84.81-0.42.42-0.72.73-0.43.45-0.7.75-0.41.45-0.74.84-0.34.39q-0.53.62-1,1.26A60,60,0,0,0,114.12,152.73Z"/><path class="f" d="M153,113.71c0-2.31-.59-2.87-2.88-2.88-3.5,0-7,0-10.49,0v0c-1.81,0-3.63,0-5.44,0s-3.62-.13-5.43-0.13c-2.45,0-3.3.94-3,3.37a64.23,64.23,0,0,0,5.12,19c0.69,1.58,1.69,2.16,3.38,1.5a54.83,54.83,0,0,1,16.26-3.48c1.92-.13,2.56-1.08,2.55-2.89C153,123.42,153.05,118.57,153,113.71Z"/><path class="f" d="M150.24,106.19c2.2,0,2.79-.59,2.79-2.75q0-6.12,0-12.24c0-2.2-.64-3-2.85-3a51.88,51.88,0,0,1-16.8-3.62c-1.76-.65-2.78-0.24-3.46,1.54A67.85,67.85,0,0,0,125.75,103c-0.26,2.37.53,3.21,2.94,3.22,3.56,0,7.12,0,10.68,0v0C143,106.19,146.62,106.21,150.24,106.19Z"/><path class="f" d="M181.19,106.2c2.27,0,3-.86,2.8-3.14a66.23,66.23,0,0,0-4.13-16.91c-0.65-1.71-1.6-2.3-3.42-1.62a52.34,52.34,0,0,1-17,3.65c-2.08.05-2.71,0.85-2.72,3,0,4.08,0,8.16,0,12.23,0,2.25.59,2.81,2.92,2.82,3.56,0,7.12,0,10.68,0h0C173.94,106.21,177.57,106.22,181.19,106.2Z"/><path class="f" d="M104.3,113.24c0.38,2.1.74,4.2,1.13,6.3a47,47,0,0,0,10.63,21.7c0.56,0.67,2.07,1.41,2.57,1.12a69.47,69.47,0,0,0,7.12-4.86,3.14,3.14,0,0,0,.55-1.57,7.55,7.55,0,0,0-.14-1.2c-2.23-7-4.81-13.93-5.1-21.42a2.85,2.85,0,0,0-3.09-2.67c-3.88,0-7.75.06-11.63,0.11C104.68,110.76,104,111.62,104.3,113.24Z"/><path class="f" d="M195.37,77.91c-1.37-1.83-2.25-2-4.32-.89s-4,2.42-6,3.5c-1.52.8-1.77,1.83-1.2,3.35a84.16,84.16,0,0,1,2.79,8c0.94,3.55,1.59,7.19,2.31,10.79a3.72,3.72,0,0,0,3.85,3.37c1.81,0.05,3.62,0,5.43,0v0.14h4.46c2.07,0,3-.83,2.71-2.81A53.31,53.31,0,0,0,195.37,77.91Z"/><path class="f" d="M114.72,77.49c-0.62.83-1.22,1.67-1.8,2.53a53.38,53.38,0,0,0-8.5,23.07c-0.33,2.35.47,3.18,2.9,3.15,1.36,0,2.71,0,4.07,0v-0.14c1.87,0,3.76.12,5.62,0,2.44-.19,3.33-1,3.8-3.39,1.27-6.53,2.49-13.07,5.19-19.23A2.66,2.66,0,0,0,125.3,81c-2.29-1.56-4.74-2.88-7.16-4.24A2.43,2.43,0,0,0,114.72,77.49Z"/><path class="f" d="M158.41,131c3.76,0.67,7.56,1.15,11.41,1.67l-5.36-10-4.76-8.91,9.44,3.62,13.51,5.18c0.5-3.24,1-6.19,1.35-9.17,0.18-1.6-.8-2.56-2.45-2.59-1.42,0-2.84.11-4.26,0.11q-8.82,0-17.65,0c-1.6,0-2.9.34-2.91,2.26,0,5.3-.07,10.6.07,15.9A2.69,2.69,0,0,0,158.41,131Z"/><path class="f" d="M202.7,110.72q-5.22-.09-10.45-0.11c-2.22,0-3.4,1-3.72,3.36-0.46,3.34-.89,6.69-1.36,10.25l13.95,5.34a7.86,7.86,0,0,0,.61-1.48c1.23-4.73,2.47-9.46,3.57-14.23C205.9,111.32,205.35,110.77,202.7,110.72Z"/><path class="f" d="M152.07,58.77a58.82,58.82,0,0,0-18.34,18.62c-0.72,1.17-.43,2,0.9,2.32,5,1.16,10,2.39,15.08,3.34,2.3,0.43,2.9-.31,2.9-2.64,0-5.43,0-10.86,0-16.28V58.76A1.58,1.58,0,0,0,152.07,58.77Z"/><path class="f" d="M156.32,81.08c0,1.69,1.1,2.34,2.6,2,5.11-1.07,10.21-2.21,15.3-3.37,1.46-.33,1.66-1.25.9-2.47A60.31,60.31,0,0,0,156.31,58.4C156.31,66.22,156.3,73.65,156.32,81.08Z"/><path class="f" d="M150.15,135.24c-4.56.87-9.12,1.76-13.64,2.83-2,.46-2.28,1.5-1.13,3.14a59.38,59.38,0,0,0,15,15c1.56,1.08,2.2.7,2.22-1.19,0-2.91,0-5.82,0-8.73s0-5.82,0-8.73C152.65,135.83,151.87,134.91,150.15,135.24Z"/><path class="f" d="M156.33,154.89a2.27,2.27,0,0,0,.57,1.69,2.16,2.16,0,0,0,1.72-.44,59.6,59.6,0,0,0,14.87-14.85,5.64,5.64,0,0,0,.5-0.85l-1.21-2.27-0.44-.12c-4.45-1.06-8.94-2-13.45-2.78-2-.35-2.56.32-2.58,2.37,0,2.78,0,5.56,0,8.34C156.3,148.95,156.27,151.92,156.33,154.89Z"/><path class="f" d="M143,58.36l-0.2.24h0.75Z"/><path class="f" d="M137.59,60a52.39,52.39,0,0,0-16,9.25c-1.91,1.58-1.85,2.49.17,3.92,1.1,0.79,2.25,1.52,3.43,2.19,2.34,1.34,3.24,1.14,4.95-1,2.62-3.28,5.2-6.59,7.84-9.86,1.6-2,3.26-3.91,4.9-5.86a5.64,5.64,0,0,0-1.37.12C140.16,59.06,138.87,59.5,137.59,60Z"/><path class="f" d="M187.15,69A52.83,52.83,0,0,0,167.38,58.7a9.42,9.42,0,0,0-2-.11l-0.12.53C170.73,63.49,175,68.9,179,74.54c0.11,0.16.25,0.3,0.37,0.45a2.6,2.6,0,0,0,3.61.73c1.34-.77,2.68-1.55,4-2.42C189.29,71.72,189.33,70.79,187.15,69Z"/><path class="f" d="M122.41,147.45c1.34,1.11,2.75,2.15,4.19,3.12a42.66,42.66,0,0,0,16.16,6.78c-4.12-5.11-8.27-10.29-12.49-15.41a2,2,0,0,0-1.8-.52c-2,1-4,2.14-5.89,3.34A1.49,1.49,0,0,0,122.41,147.45Z"/><path class="f" d="M178.44,148.78l-1.87-3.49-11,12.21a42.29,42.29,0,0,0,14.56-5.58Z"/><path class="g" d="M205,148.76l14.62-8.08L167.8,120.84l26.14,48.92,6.17-15.41c0.6,0.46,1,.74,1.39,1.07q5.47,4.81,10.93,9.64c1.94,1.72,2.93,2.6,3.83,2.6s1.82-1,3.62-3.09c1-1.18.9-1.88-.23-2.85-3.4-2.9-6.72-5.89-10.07-8.85C208.09,151.57,206.62,150.24,205,148.76Z"/><path class="e" d="M225.48,89.36h13.67a1.89,1.89,0,1,0,0-3.77H225.48A1.89,1.89,0,0,0,225.48,89.36Z"/><path class="e" d="M230.2,99.73h-1.89a1.89,1.89,0,0,0,0,3.77h1.89A1.89,1.89,0,0,0,230.2,99.73Z"/><path class="e" d="M236.8,99.73a1.89,1.89,0,0,0,0,3.77h21.68l0.2,0a5.07,5.07,0,1,0,.12-3.72,1.88,1.88,0,0,0-.32,0H236.8Zm26.65,0.75a1.3,1.3,0,1,1-1.3,1.3A1.3,1.3,0,0,1,263.45,100.48Z"/><path class="e" d="M227.84,112.93a1.89,1.89,0,0,0,1.89,1.89h14.61a1.89,1.89,0,1,0,0-3.77H229.73A1.89,1.89,0,0,0,227.84,112.93Z"/><path class="e" d="M63.59,91.39a5.08,5.08,0,0,0,4.62-3,1.88,1.88,0,0,0,.3,0H82.19a1.89,1.89,0,1,0,0-3.77H68.38A5.07,5.07,0,1,0,63.59,91.39Zm0-6.37a1.3,1.3,0,1,1-1.3,1.3A1.3,1.3,0,0,1,63.59,85Z"/><path class="e" d="M43.07,103.51H45a1.89,1.89,0,1,0,0-3.77H43.07A1.89,1.89,0,1,0,43.07,103.51Z"/><path class="e" d="M51.55,103.51H73.24l0.17,0a5.07,5.07,0,1,0,.19-3.72,1.89,1.89,0,0,0-.36,0H51.55A1.89,1.89,0,1,0,51.55,103.51Zm26.65-2.94a1.3,1.3,0,1,1-1.3,1.3A1.3,1.3,0,0,1,78.21,100.57Z"/><path class="e" d="M64.28,111a1.89,1.89,0,1,0,0,3.77H78.89a1.89,1.89,0,1,0,0-3.77H64.28Z"/><path class="e" d="M81.25,127.07a1.89,1.89,0,1,0,0-3.77H50.94a5.07,5.07,0,1,0-.18,3.77H81.25Zm-35.1-.8a1.3,1.3,0,1,1,1.3-1.3A1.3,1.3,0,0,1,46.15,126.27Z"/><path class="c" d="M270.1,198c-0.77-7-2.09-8.08-.26-9.83L270,188c-1.37.29-2.58,0.6-3.6,0.91h0C267.38,189.7,269.29,192.32,270.1,198Z"/><path class="c" d="M253.19,233.41q0.64,4.29,1.16,9a108.15,108.15,0,0,0,0-11.85q-0.06-1.11-.15-2.19c-0.06-.79-0.13-1.56-0.2-2.32-0.87-9-2.61-16.37-3.6-22.2a41.72,41.72,0,0,1-.75-7.13,10.5,10.5,0,0,1,1.18-5.22h0a1.12,1.12,0,0,1-.25.09h0l-0.31,0h-0.5l-0.37,0h-0.1l-0.52-.09-0.16,0-0.42-.09-0.23-.05-0.4-.1-0.26-.07-0.43-.11-0.27-.07-0.48-.14-0.25-.07-0.67-.19-0.08,0-1-.28-0.62-.18-0.34-.1-0.53-.16-0.37-.11-0.54-.15-0.36-.1-0.6-.16-0.31-.09-0.9-.23h0s3.13,4.83,6.64,14.91A164.22,164.22,0,0,1,253.19,233.41Z"/><path class="h" d="M126.78,212.51c0.45-.36.94-0.7,1.43-1s1.19-.74,1.87-1.12l-1.4.29c-5.19-4.94-9.57-5.84-15-5.84-1.2,0-2.46,0-3.78.1-4.75-2.76-8.76-3.75-12.06-3.75a15.33,15.33,0,0,0-3.89.49c0.6,0.33,1.2.66,1.79,1a21.4,21.4,0,0,1,12.85,5C115.29,206.95,122.34,207.9,126.78,212.51Z"/><path class="h" d="M176.9,198.57c8-4.53,8.33-9.76,23.13-13.29,8.57-2,17.89,5.53,20.74,8.1-4.82-4.82-9.65-10-17.93-10l-1.1,0v0l-0.26,0a32.86,32.86,0,0,0-11.76,3.43,27.82,27.82,0,0,0-4.7,2.78,15.65,15.65,0,0,0-4.25,4.1h0c-0.28.35-.55,0.7-0.8,1.05-5.53,6.38-17.1,3.86-26.88,5.74-5.43,1-9.83,3-12.68,5.66l1-.28a14.2,14.2,0,0,1,6-2.49C156.52,201.89,168.88,203.1,176.9,198.57Z"/><path class="g" d="M183.11,215.69a21.88,21.88,0,0,0-12.7,4.47c4.14-1.78,9.86-3.25,20-2.58,1.74,0.06,3.3,0,4.7-.06C191.24,216.88,188.32,215.45,183.11,215.69Z"/><path class="g" d="M174.26,226.17c5.74-1.68,14.57-4.11,19.49-4.43A30.88,30.88,0,0,0,203,220a40.49,40.49,0,0,1-12.84,1.34h-0.06c-12.6-.84-17.52,1.76-21.87,4.06-3,1.57-5.79,3.06-10.29,3.06h-0.15a42.77,42.77,0,0,1-9.29-1,43.86,43.86,0,0,1-8.33-1.07,26.23,26.23,0,0,0,13.09,4.37C161.36,231.4,168.52,227.84,174.26,226.17Z"/><path class="g" d="M221.2,229.1h0.09l0,0,0,0,0,0,0.14,0,0.17,0,0.14,0h0.12c1.7-.46,6.68-3.11,6.7-18.39,0-15-5.23-16.21-5.23-16.21h0l-1.44-.28-0.12,0s3.87,1.91,4.07,16.61a47.75,47.75,0,0,1-.8,10h0c-5.5,5.92-14.83,8.27-21,9.9l-0.35.09-0.38.1-0.76.2-0.1,0-0.76.21h0l-0.74.21h0l-0.69.22c-7.25,2.42-23.57,9.37-34.39,11.06s-18.19-5.31-28.77-8-18.72-6.65-20.84-8.25c-2-1.48-8.27-2.47-15.17-5.29a7.21,7.21,0,0,1-2.71.5,11,11,0,0,1-2.29-.27c5.55,3,12.11,4.76,16.21,6.08,8.46,2.72,3.63,2.72,24.78,9.37,18.13,1.51,17.53,11.18,34.75,7.55,14.73-3.1,29.69-15,49.59-15.41h0Z"/></svg>