<svg xmlns="http://www.w3.org/2000/svg" viewBox="0 0 210 210"><defs><style>.a{fill:none;stroke:#dedede;stroke-miterlimit:10;}.b{fill:#2d2d2d;}.c{fill:#3f3f3f;}.d,.g,.h,.i{fill:#5fa190;}.d{fill-opacity:0.85;}.e{fill:#fff;}.f{fill:#e7f0f7;}.h{opacity:0.5;}.i{fill-opacity:0.3;}.j{fill:#b2f3f0;opacity:0.85;}.k{fill:#d4a87b;}.l{fill:#f0c98d;}.m{fill:#191919;}.n{fill:#613811;}.o{fill:#422815;}</style></defs><title>All-icons</title><rect class="a" x="32.15" y="33.89" width="142.23" height="142.23" transform="translate(104.49 -42.26) rotate(45)"/><path class="b" d="M207.31,157.59c0-11.67-25.27-21.14-56.45-21.14-30.29,0-55,8.93-56.39,20.14l-0.13.05v5.6c0,11.67,25.27,21.14,56.45,21.14s56.45-9.46,56.45-21.14v-3.61A8.1,8.1,0,0,0,207.31,157.59Z"/><ellipse class="c" cx="150.86" cy="157.59" rx="56.45" ry="21.14"/><path class="d" d="M185.21,40.87a21.67,21.67,0,0,0-3.65-6A23.27,23.27,0,0,0,167.23,27a27.29,27.29,0,0,0-4.16-.36H163c-5.51,0-8.31,2.14-9.69,3.94a8.47,8.47,0,0,0-.94,1.56,8.49,8.49,0,0,0-.94-1.56c-1.38-1.8-4.17-3.94-9.69-3.94h-0.1a27.28,27.28,0,0,0-4.16.36,23.27,23.27,0,0,0-14.33,7.89,21.67,21.67,0,0,0-3.65,6,14.41,14.41,0,0,0-5.41,14.19,18.62,18.62,0,0,0,.64,2.54,7.64,7.64,0,0,0,1.68,2.83l0,0c-1.07,2.09-2.13,6.39.72,9.25A6.64,6.64,0,0,0,119,71.06c0,0.37.11,0.73,0.19,1.09v0l0.09,0.37v0q0.1,0.41.23,0.81v0l0.12,0.35,0,0.08,0.13,0.35v0.05c0.11,0.27.23,0.54,0.36,0.8l0,0.09,0.17,0.32,0,0.09,0.21,0.36,0,0L121,76.37l0,0,0.24,0.34,0.07,0.09,0.24,0.3,0.07,0.09,0.3,0.35,0,0L122.3,78l0.05,0,0.32,0.3,0.09,0.08,0.33,0.28,0.08,0.06c0.28,0.23.58,0.46,0.89,0.66l0.07,0,0.41,0.26,0.11,0.06,0.47,0.27,0,0c0.36,0.2.74,0.38,1.14,0.55l0.08,0,0.54,0.22,0.09,0a18,18,0,0,0,2,.63l0.08,0,0.68,0.15,0.08,0,0.78,0.14h0a22.52,22.52,0,0,0,5.1,2.95c0.52,0.23,1,.45,1.57.65a7.53,7.53,0,0,0-6.2,4.39,9.39,9.39,0,0,0-.48,1.3c-1.27,4.41-3.69,10.76-5.29,15l-0.87,2.29a6.2,6.2,0,0,0-.68,7.57,4.14,4.14,0,0,0,.79,1l0.38,0.36a0.93,0.93,0,0,0,.18.12l-0.48,1.23a0.38,0.38,0,0,0,.21.48l1.39,0.55a0.16,0.16,0,0,0-.21.09l-2.67,6.82a0.16,0.16,0,0,0,.09.21l-0.5-.2a0.38,0.38,0,0,0-.48.21l-0.64,1.63a0.38,0.38,0,0,0,.21.48l2.11,0.82a0.38,0.38,0,0,0,.48-0.21l0.64-1.63a0.38,0.38,0,0,0-.21-0.48l-0.5-.2a0.16,0.16,0,0,0,.21-0.09l2.67-6.82a0.16,0.16,0,0,0-.09-0.21l1.39,0.55a0.38,0.38,0,0,0,.48-0.21l0.64-1.63a0.37,0.37,0,0,0,0-.26,0.93,0.93,0,0,0,.42.1l0.23,0a6.2,6.2,0,0,0,4.71-6,6.07,6.07,0,0,0-.07-0.91c0.2-.7.43-1.55,0.67-2.52,0.3-1.19.6-2.48,0.9-3.77l0,14.16a1.91,1.91,0,0,0-1.64,1.89v8.88a1.91,1.91,0,0,0,1.64,1.89l0.1,8.9c-1.09.85-3.77,3.14-3.87,4.88a16.86,16.86,0,0,0,0,2.45l0.11,0.78h37.81l0.08-.74a17.53,17.53,0,0,0,0-2.49c-0.09-1.74-2.68-4-3.73-4.88V104.44c0.34,1.24.67,2.41,0.91,3.29l0.31,1.09c0,0.13.08,0.27,0.13,0.4h0c0.35,1.24.66,2.27,0.93,3.09,0,0.09,0,.19,0,0.29A6.21,6.21,0,0,0,180,117.07a4.33,4.33,0,0,0,1.46-2.17,6.2,6.2,0,0,0-.89-6.15l-0.79-2a141.51,141.51,0,0,1-5.5-15.58h0a8.27,8.27,0,0,0-.67-1.79,7.45,7.45,0,0,0-6.14-4c0.46-.18.92-0.37,1.37-0.57A30.38,30.38,0,0,0,174,81.88H174l0.78-.14,0.08,0,0.67-.15,0.08,0a18,18,0,0,0,2-.62l0.1,0,0.53-.22,0.08,0c0.39-.17.77-0.35,1.14-0.55l0.06,0,0.45-.26,0.1-.06,0.41-.26,0.07,0c0.31-.21.61-0.43,0.89-0.66l0.08-.07,0.32-.28,0.1-.09,0.31-.3,0.06-.06,0.35-.37h0l0.31-.35,0.07-.09,0.24-.3,0.06-.09,0.25-.35,0,0L184,76l0,0,0.2-.34,0.05-.1,0.16-.31,0-.09c0.13-.27.25-0.54,0.36-0.8l0-.05,0.13-.35,0-.08,0.12-.34,0-.06c0.08-.26.16-0.54,0.23-0.8v0l0.08-.36v0c0.08-.36.14-0.74,0.19-1.11a6.64,6.64,0,0,0,1.89-1.34c2.85-2.87,1.79-7.16.72-9.25h0A7.67,7.67,0,0,0,190,57.58a18.6,18.6,0,0,0,.64-2.52A14.41,14.41,0,0,0,185.21,40.87Z"/><path class="e" d="M80.51,125.65c-1.23-3.15-3.5-8.74-5.32-13.89-0.55-1.56-1.07-3.11-1.52-4.58-0.31-1-.6-2-0.83-3A7.55,7.55,0,0,0,70.26,100a26.19,26.19,0,0,1-4.69,1.82l-1,.3a49.16,49.16,0,0,1-10.82,1A46.48,46.48,0,0,1,43,102.07l-0.66-.17a17.59,17.59,0,0,1-4.16-1.62,8.41,8.41,0,0,0-2.31,3.93c-0.26.89-.55,1.85-0.87,2.84-0.5,1.55-1.07,3.21-1.66,4.87-1.71,4.81-3.73,10-4.93,13.17a6.32,6.32,0,0,0-1.89,4h0c0,0.16,0,.33,0,0.49a6.33,6.33,0,0,0,10.28,5l-5.1,30.88-0.15.9h3.2a9.36,9.36,0,0,0-2.14,2.76,2,2,0,0,0-.16.64,19.29,19.29,0,0,0,0,2.79v0H53.84c0-.49,0-1.13,0-1.89,0-1.19,0-2.68,0-4.34H55v6.22H76a20.51,20.51,0,0,0,0-2.82,2,2,0,0,0-.11-0.52,8.85,8.85,0,0,0-2.1-2.88H76.9l-5.63-32.11a6.33,6.33,0,0,0,8.76-.11A4.09,4.09,0,0,0,81.46,132,6.32,6.32,0,0,0,80.51,125.65Z"/><path class="e" d="M69.95,126.76v0.07a6.33,6.33,0,0,1,5.65-3.53h0A6.33,6.33,0,0,0,69.95,126.76Z"/><path class="e" d="M69.29,129l0,0.1h0a6.31,6.31,0,0,1,.64-2.31v-0.07A6.3,6.3,0,0,0,69.29,129Z"/><path class="e" d="M32.84,123.33h0a6.29,6.29,0,0,1,3.6,1.12,6.33,6.33,0,0,0-8,.63l0,0.09A6.32,6.32,0,0,1,32.84,123.33Z"/><path class="e" d="M36.75,124.67l-0.11-.08Z"/><path class="f" d="M75.2,111.76c-0.55-1.56-1.07-3.11-1.52-4.58-0.31-1-.6-2-0.83-3A7.55,7.55,0,0,0,70.26,100h0a9.56,9.56,0,0,0-5.73-1.85v0.09H64.44V95.73H43v2.49h0a8.41,8.41,0,0,0-4.78,2.09h0a8.41,8.41,0,0,0-2.31,3.93c-0.26.89-.55,1.85-0.87,2.84-0.5,1.55-1.07,3.21-1.66,4.87,1.66,0.16,4,.35,7.24.5L39.1,128.29c0-.06-0.07,0,0,0.21,0.25,0.41.14,0,0-.17,1.24-4.28,2.89-12,3.69-15.81,3.15,0.12,7,.19,11.52.19,3.92,0,7.44-.09,10.55-0.23,0.83,3.49,4.39,17.56,4.39,17.56l-1.85-17.69C70.51,112.19,73.1,112,75.2,111.76Z"/><path class="f" d="M69.63,137.64c0.61,2.78,3.16,13.36,7.27,28.72l-5.63-32.11a6.32,6.32,0,0,1-2-3.83h0A20.9,20.9,0,0,0,69.63,137.64Z"/><path class="f" d="M38.23,137.23c-0.61,2.78-4.68,24.29-6.58,28.25l5.16-31.22a6.32,6.32,0,0,0,2-3.83A22.68,22.68,0,0,1,38.23,137.23Z"/><path class="g" d="M153.57,161.3a0.83,0.83,0,0,1,0-1.66c15.74-.46,28.55-5,28.55-10.16a0.83,0.83,0,0,1,1.66,0c0,3.2-3.13,6.05-9,8.26-5.54,2.06-13,3.33-21.11,3.56h0Z"/><ellipse class="h" cx="150.79" cy="148.13" rx="29.42" ry="10.1"/><path class="i" d="M172.26,80.75c-5.26,2.79-8.9,5.89-21.14,5.89s-17-2-22.51-6c-10.2-1.72-10.26-9.8-10.26-9.8v79.67a2.81,2.81,0,0,0,.51,1.6c1.63,2.35,8.13,8.32,32.27,8.32s30.6-6,32.26-8.32a2.81,2.81,0,0,0,.52-1.62V70.21c-0.18.1-.37,0.19-0.57,0.27C181.81,75.94,179.45,79.6,172.26,80.75Z"/><path class="g" d="M182.36,148.25a0.83,0.83,0,0,1-.73-0.43c-2.68-4.87-15.95-8.54-30.85-8.54a77,77,0,0,0-20.13,2.46c-5.44,1.53-9.2,3.62-10.6,5.87a0.83,0.83,0,0,1-1.41-.87c3.32-5.37,16.54-9.12,32.14-9.12,16,0,29.25,3.86,32.3,9.4A0.83,0.83,0,0,1,182.36,148.25Z"/><path class="g" d="M150.16,161.34h0c-8.54-.06-16.55-1.25-22.57-3.35-6.3-2.2-9.76-5.22-9.76-8.51a0.83,0.83,0,0,1,1.66,0c0,2.49,3.15,5,8.65,6.95,5.84,2,13.67,3.2,22,3.25A0.83,0.83,0,0,1,150.16,161.34Z"/><path class="j" d="M167.45,88l-0.06,9.24c0.49,2.31,3,11.29,3.07,11.39l0.14,0.5,0,0,0.19-.27h0l0.22-.27,0.06-.07,0.17-.19,0.07-.07,0.24-.23h0l0.26-.23,0.08-.06,0.2-.16,0.08-.06,0.28-.19h0l0.3-.18,0.09,0,0.23-.12,0.09,0,0.31-.14h0l0.33-.12,0.1,0,0.25-.07,0.1,0,0.34-.08h0l0.35-.06h0.1l0.26,0h0.47l0.47,0h0.11l0.46,0.06h0.05l0.42,0.09,0.1,0,0.44,0.13h0a135.71,135.71,0,0,1-5.3-15.11A6.4,6.4,0,0,0,172,90.1l0-.09a5.61,5.61,0,0,0-4.53-2.85V88Zm7.93,20.19-0.19,0-0.22,0-0.28.07-0.12,0a4.38,4.38,0,0,0-3.05,3.4h0c0,0.11,0,.23,0,0.35s0,0,0,.07h0c0,0.12,0,.24,0,0.34a4.35,4.35,0,0,0,7.39,3.1l0.08-.07a2.47,2.47,0,0,0,.87-1.3l0-.09a4.34,4.34,0,0,0-.67-4.41h0a4.34,4.34,0,0,0-3.34-1.57Zm-42,3.56h0a4.34,4.34,0,0,0-4.26-3.55h0a4.34,4.34,0,0,0-3.8,6.43l0.13-.33a1.31,1.31,0,0,0,.27-0.7l0.64-1.63a1.31,1.31,0,0,1,1.69-.74l3.88,1.52a1.31,1.31,0,0,1,.74,1.69l-0.46,1.17a4.31,4.31,0,0,0,1.19-3.82v0Zm-0.49-21.2a7.53,7.53,0,0,0-.38,1c-1.29,4.47-3.61,10.56-5.31,15a6.14,6.14,0,0,1,.63-0.16l0.11,0,0.31-.05,0.27,0h0.16l0.4,0h0.46l0.25,0h0.09l0.32,0h0l0.3,0.06,0.1,0,0.23,0.06,0.09,0,0.3,0.1,0,0,0.25,0.1,0.09,0,0.21,0.1,0.08,0,0.28,0.15,0.06,0,0.22,0.13,0.09,0.06,0.19,0.13,0.07,0.05,0.24,0.19,0.06,0,0.18,0.16,0.08,0.07,0.17,0.17,0.06,0.06,0.21,0.23,0.05,0.06,0.15,0.19,0,0,0-.15c1-4,2.1-9.24,2.55-11.41l-0.07-9.81A5.49,5.49,0,0,0,132.91,90.53Zm20.77,41.29h11.87V119.47h-10l0,0-0.06,0-0.13.07-0.06,0-0.19.08h0l-0.2.07-0.06,0-0.15,0H154.6l-0.15,0H150.2l-0.15,0H150l-0.14,0-0.06,0-0.2-.07h0l-0.19-.08-0.06,0-0.13-.07-0.07,0,0,0H138.69v0.13a0.93,0.93,0,0,1,.44.79v10.83a0.93,0.93,0,0,1-.23.61h11.92c0-2.69,0-7.69,0-8a0.93,0.93,0,0,1,.93-1h1a0.93,0.93,0,0,1,.93.93v8Zm-15-16.29v2.08h9.19v0a2.59,2.59,0,0,1,0-.32v-1.74h-9.17Zm0-1.87h9.66a2.62,2.62,0,0,1,2.1-1.05h3.74a2.62,2.62,0,0,1,2.09,1h9.28V113h-8.81l-0.2,0h-0.06l-0.12,0-0.06,0-0.1-.06,0,0h0l-0.09-.1,0,0a1,1,0,0,1-.09-0.15h0a1.3,1.3,0,0,1-.07-0.19v0a1.86,1.86,0,0,1,0-.22v0c0-.08,0-0.17,0-0.26s0-.53,0-0.92c0-.72,0-1.76,0-3.19h0c0-2,0-4.57,0-7.11,0-2,0-4,0-5.71l-0.35.62L154,98.1,153.5,99a1.14,1.14,0,0,1-1,.79h0a0.93,0.93,0,0,1-.42-0.11H152l0-.07a0.93,0.93,0,0,1-.28-0.33l-2.25-4.49c0,1.8,0,3.84,0,5.85,0,2.81,0,5.72,0,7.87,0,4,0,4-.31,4.29a0.94,0.94,0,0,1-.66.28h-9.84v0.63Zm18.1,3.92v0h8.77v-2.08H156.8v1.74A2.55,2.55,0,0,1,156.78,117.58Zm8.81,24.27v-8.16H153.51v13.8h15.86c0-.35,0-0.84,0-1.48,0-.8-1.8-2.65-3.41-3.9Zm-19.8-8.15h-7.27v8.17l-0.33.25c-1.67,1.25-3.49,3.1-3.54,3.9,0,0.64,0,1.13,0,1.48h16.26c0-2.87,0-8.79,0-13.79h-5.08ZM157.4,87.5a39.9,39.9,0,0,1-4.43.24c-1.8,0-3.53-.11-5.32-0.25l4.83,9.36C153.17,95.61,157.13,88,157.4,87.5Zm29.13-25.91h0a6.25,6.25,0,0,1-.63.26h0c-0.19.06-.4,0.13-0.62,0.18h0a7.67,7.67,0,0,1-1.73.19h-0.39l-0.53,0h0a10.15,10.15,0,0,1-1.15-.19L181,61.91l-0.3-.08-0.12,0h0l-0.08,0h0l0,0h-0.11c-1.18-.35-2.25-1.89-2.94-3.13a13.86,13.86,0,0,1-1.87-6.11c-5.38.54-10.71-1.31-15.52-5.37a34.89,34.89,0,0,1-7.65-9.34,34.9,34.9,0,0,1-7.65,9.34c-4.8,4.07-10.14,5.91-15.52,5.37a13.86,13.86,0,0,1-1.87,6.11c-0.69,1.24-1.76,2.78-2.94,3.13h-0.1l-0.06,0h0l-0.08,0h0l-0.1,0h0l-0.28.08h0L123.3,62a10.2,10.2,0,0,1-1.16.19h0l-0.53,0h-0.39a7.73,7.73,0,0,1-1.74-.19h0c-0.2,0-.42-0.11-0.63-0.18a6.3,6.3,0,0,1-.64-0.26h0l-0.43-.23c-0.77,1.68-1.52,5,.55,7.07a5,5,0,0,0,1.53,1.06,0.93,0.93,0,0,1,.39,0,6.18,6.18,0,0,0,3.42.08,0.92,0.92,0,0,1,.43,0l0.53-.13,0,0.54a0.93,0.93,0,0,1,.14.41,18.57,18.57,0,0,0,.35,2.45c0.6,2.65,2.51,4.86,6.17,7.17a0.93,0.93,0,0,1,.3.31l0,0,3.1,1.95-0.15,0q0.89,0.47,1.87.89a29.62,29.62,0,0,0,7.74,2.26c0.46,0.07.94,0.13,1.41,0.19l0.5,0.06h0l0.15,0h0l0.28,0a47.65,47.65,0,0,0,13.2-.25v0.07h0l0.52-.07a29.7,29.7,0,0,0,7.93-2.29,18.64,18.64,0,0,0,1.89-.93H170l3.09-1.94a0.92,0.92,0,0,1,.28-0.28c3.67-2.31,5.57-4.52,6.17-7.17a18.57,18.57,0,0,0,.35-2.45,0.93,0.93,0,0,1,.11-0.36l0.05-.6,0.54,0.13a0.93,0.93,0,0,1,.45,0,6.18,6.18,0,0,0,3.42-.08,0.93,0.93,0,0,1,.37,0,5,5,0,0,0,1.53-1.06c2.07-2.08,1.32-5.37.55-7.05Zm-52.21,3.28a4.62,4.62,0,1,1,4.62,4.62A4.62,4.62,0,0,1,134.32,64.87Zm29.86,10.57c-0.22.18-5.39,4.46-11.53,4.46a17,17,0,0,1-9.55-3.17c-0.23-.15-0.5-0.32-0.62-0.39a0.73,0.73,0,0,1,0-1.44,2.1,2.1,0,0,1,1.44.61,15.62,15.62,0,0,0,8.76,2.93c5.6,0,10.55-4.08,10.6-4.12A0.73,0.73,0,0,1,164.18,75.44Zm2.34-5.4a4.62,4.62,0,1,1,4.62-4.62A4.62,4.62,0,0,1,166.52,70ZM123,71.62a8.2,8.2,0,0,1-2,0v0.09l0.07,0.3v0c0.06,0.24.13,0.47,0.2,0.69v0l0.1,0.3,0,0.06,0.12,0.3v0c0.1,0.24.2,0.47,0.31,0.69l0,0.07,0.14,0.26,0,0.08,0.17,0.29,0,0,0.22,0.33,0,0,0.2,0.28,0.06,0.08L123,75.86l0.06,0.08,0.25,0.29h0l0,0,0.29,0.31,0,0,0.26,0.25L124,76.92l0.27,0.23,0.06,0.05c0.24,0.2.5,0.39,0.76,0.56l0.06,0L125.51,78l0.09,0.05L126,78.31l0,0,0.18,0.09a10.57,10.57,0,0,1-2.89-5.12C123.19,72.81,123.1,72.25,123,71.62Zm-4.93-12.26,0.2,0.16,0,0a4.17,4.17,0,0,0,.63.37h0l0.46,0.19,0.47,0.13a6,6,0,0,0,1.63.14h0l0.42,0h0a8.25,8.25,0,0,0,.93-0.15l0.3-.07h0l0.23-.06h0l0.08,0h0l0.06,0h0l0.08,0h0l0,0,0.05,0a5.29,5.29,0,0,0,1.84-2.25c1.26-2.26,1.9-4.79,1.53-6a0.93,0.93,0,0,1,0-.44l-0.26-.87,0.9,0.15a0.93,0.93,0,0,1,.44,0,16.48,16.48,0,0,0,7-.31c8.44-2.45,14.22-11.34,16.18-14.76V35.05l-0.19-.41a0.94,0.94,0,0,1-.08-0.29,6.19,6.19,0,0,0-1.22-2.72c-1.6-2.1-4.44-3.21-8.2-3.21h-0.09a25.4,25.4,0,0,0-3.87.34,21.12,21.12,0,0,0-16.61,12.88,0.93,0.93,0,0,1-.37.48,12.56,12.56,0,0,0-4.87,12.49,16.74,16.74,0,0,0,.57,2.27A5.46,5.46,0,0,0,118.09,59.36Zm63.57,12.26c-0.08.63-.17,1.19-0.28,1.68a10.57,10.57,0,0,1-2.89,5.12l0.16-.08,0.05,0,0.39-.22,0.08-.05,0.35-.23,0.06,0c0.26-.17.51-0.36,0.75-0.56l0.07-.06,0.27-.23,0.08-.07L181,76.6l0.05,0,0.29-.31h0l0.25-.29,0.07-.08,0.19-.24,0.06-.08,0.2-.28,0,0,0.22-.33,0,0,0.17-.29,0-.09,0.14-.26,0-.07c0.11-.22.21-0.45,0.31-0.68l0-.05,0.11-.29,0-.07,0.1-.29,0-.05c0.07-.22.14-0.45,0.19-0.68v0l0.07-.3V71.63A8.16,8.16,0,0,1,181.67,71.62Zm2.25-29.48a0.93,0.93,0,0,1-.37-0.48A19.39,19.39,0,0,0,180.08,36a21.21,21.21,0,0,0-13.15-7.19,25.41,25.41,0,0,0-3.87-.34H163c-3.76,0-6.6,1.11-8.2,3.21a6.16,6.16,0,0,0-1.22,2.72,0.93,0.93,0,0,1-.08.29l-0.19.41v0.29a28.67,28.67,0,0,0,6.5,9c3.56,3.44,9.34,7.29,16.64,6.07a0.93,0.93,0,0,1,.43,0l0.88-.15-0.25.82a0.93,0.93,0,0,1,0,.49c-0.37,1.23.27,3.76,1.53,6a5.28,5.28,0,0,0,1.84,2.25l0.07,0,0,0h0l0.08,0h0l0.06,0h0l0.09,0,0.24,0.07h0l0.3,0.07a8.26,8.26,0,0,0,.94.15h0l0.42,0h0a6,6,0,0,0,1.63-.14h0l0.44-.13h0l0.44-.18h0a4.2,4.2,0,0,0,.64-0.38l0,0,0.19-.15a5.47,5.47,0,0,0,1.62-2.48,16.71,16.71,0,0,0,.57-2.25A12.71,12.71,0,0,0,183.91,42.13Z"/><path class="f" d="M32.57,169.12c2.14,0.77,7.66,1.56,21.29,1.58,0-1.19,0-2.68,0-4.34H34.7A9.36,9.36,0,0,0,32.57,169.12Z"/><path class="f" d="M55,170.7c12.7,0,18.38-.74,20.85-1.46a8.85,8.85,0,0,0-2.1-2.88H55v4.33Z"/><path class="k" d="M80.63,91.34c2.17-1.49,5.83-4.24,7.12-8l0.06-.18,0.07-.21c0.06-.19.11-0.39,0.15-0.58,0.84-3.85.69-11.15,0.26-14.18v0l0-.24V67.87l0-.24c-2.16-.58-5.83-8-4.83-11.32-17.9,3-29.06-17.65-29.06-19.15,0-.19,0-0.19,0,0,0,1.5-11.16,22.14-29.06,19.15,1,3.33-2.66,10.74-4.83,11.32a55,55,0,0,0-.28,11.65,23.47,23.47,0,0,0,.44,3.09c0.81,3.55,3.3,6.4,7.9,9.3-0.31-.05.31,0.18,0.42,0.26v0a26,26,0,0,0,6,3.45,36.69,36.69,0,0,0,9.52,2.78q1.19,0.19,2.34.3l0.31,0c1.83,0.18,3.59.26,5.23,0.28h4.11c1.78,0,3.71-.12,5.72-0.33l0.26,0c0.54-.06,1.09-0.14,1.65-0.22a36.83,36.83,0,0,0,9.77-2.82,35.19,35.19,0,0,0,6-3.44l0.44-.3h0Z"/><path class="l" d="M54,98c19.45,0,28-7.53,29-11.54s-0.13-11.69-.13-20.26C61,67,54.21,43.28,54.21,43.28h0S47.42,67,25.54,66.22c0,8.57-1,16.25-.13,20.26S34.93,98,54.38,98H54Z"/><path d="M54.68,90.66a20.45,20.45,0,0,1-11.53-3.82c-0.27-.17-0.57-0.37-0.71-0.45a1,1,0,0,1,0-2c0.53-.09.94,0.17,1.82,0.75a18.61,18.61,0,0,0,10.43,3.49c6.67,0,12.57-4.87,12.63-4.92a1,1,0,0,1,1.28,1.53C68.34,85.5,62.09,90.66,54.68,90.66Zm-12.3-4.29h0Z"/><path class="m" d="M78.45,70.45L76.1,69.33l-1.79-.85A5.55,5.55,0,1,0,76,70.22Z"/><path class="m" d="M38.24,67a5.52,5.52,0,0,0-3.64,1.36l-2.15,1L30.1,70.45l2.59-.24,0.52,0A5.55,5.55,0,1,0,38.24,67Z"/><path class="n" d="M102.67,56.22V55.58A8.74,8.74,0,0,0,94,46.86a8.62,8.62,0,0,0-4,1C88.23,41.58,83.54,30,71.77,28.09A31.43,31.43,0,0,0,67,27.67c-8.3,0-11.13,4.08-12.07,6.46a7,7,0,0,0-.45,1.65l-0.33.71-0.32-.71a7,7,0,0,0-.45-1.65c-0.94-2.38-3.77-6.5-12.07-6.46a31.43,31.43,0,0,0-4.81.42C24.68,30,20,41.58,18.29,47.86a8.62,8.62,0,0,0-4-1,8.74,8.74,0,0,0-8.71,8.71v0.65A6.28,6.28,0,0,0,3.4,61V80.81a6.28,6.28,0,0,0,2.16,4.73h0a8.71,8.71,0,0,0,16.3,3.89l0.3,0.17,0.07,0q0.6,0.33,1.28.62l0.09,0,0.6,0.24,0.11,0a20.43,20.43,0,0,0,2.32.71l0.09,0,0.77,0.17,0.09,0,0.89,0.16A22.42,22.42,0,0,1,22.8,86.9,8.67,8.67,0,0,0,23,85.19V64.53C39.76,65,54.11,44.36,54.11,42.93c0,1.42,14.35,22.11,31.13,21.6V85.19a8.65,8.65,0,0,0,.25,2.07,22.37,22.37,0,0,1-4.86,4.08l-0.51.33h0a19.73,19.73,0,0,0,6.29-2.06,8.71,8.71,0,0,0,16.21-4.05,6.28,6.28,0,0,0,2.16-4.73V61A6.28,6.28,0,0,0,102.67,56.22Z"/><path class="o" d="M5.55,85.19v-29h0A6.28,6.28,0,0,0,3.4,61V80.81a6.28,6.28,0,0,0,2.16,4.73h0C5.55,85.42,5.55,85.31,5.55,85.19Z"/><path class="o" d="M102.67,56.22v29c0,0.12,0,.24,0,0.36a6.28,6.28,0,0,0,2.16-4.73V61A6.28,6.28,0,0,0,102.67,56.22Z"/><path class="o" d="M91.13,92.66a10.39,10.39,0,0,1-4.47-6.89V85.65h0c0-.33,0-1.32,0-2.76,0-1.91.06-4.61,0.08-7.6,0-1,0-2,0-3.06q0-.62,0-1.25t0-1.26c0-.84,0-1.67,0-2.5q0-.62,0-1.23c0-.81,0-1.61,0-2.37,0-.58,0-1.14,0-1.68q0-.54,0-1.06,0-.26,0-0.51c0-1.68-.06-3.1-0.12-4.13q0-.26,0-0.52h0a14.73,14.73,0,0,1,2.3-7.25h0A8.75,8.75,0,0,0,85.38,54a8.66,8.66,0,0,0-.14,1.53v1.74a39.94,39.94,0,0,1-4.31-.25l-1-.13q-1.09-.16-2.12-0.37l-0.32-.07-1.16-.27a32.05,32.05,0,0,1-9.07-3.8l-0.53-.33q-0.78-.5-1.49-1c-0.64-.46-1.23-0.94-1.8-1.41-0.36-.3-0.7-0.6-1-0.9l-0.57-.53-0.71-.71-0.34-.36-0.64-.7q-0.46-.52-0.88-1l-0.52-.66-0.38-.5-0.53-.74L57.4,43l-0.28-.43L56.74,42l-0.19-.31c-0.24-.4-0.43-0.73-0.56-1l-0.08-.15c-0.78-1.54-1-4.16-1-6.39a7,7,0,0,0-.45,1.65l-0.33.71-0.32-.71a7,7,0,0,0-.45-1.65,26.41,26.41,0,0,1-.3,3.92l0,0.15q-0.06.34-.13,0.65l0,0.19q-0.07.28-.15,0.54l-0.08.24a5.46,5.46,0,0,1-.37.85,32.42,32.42,0,0,1-9.6,10.69l-0.31.21a31.43,31.43,0,0,1-4.43,2.54l-0.67.31A35.29,35.29,0,0,1,23,57.31h0V55.58a8.62,8.62,0,0,0-.67-3.33,8.8,8.8,0,0,0-3-3.79h0a19.26,19.26,0,0,1,1.46,3l0.13,0.35a12.68,12.68,0,0,1,.66,2.86,9.92,9.92,0,0,1,0,1.56c-0.32,5.85-.07,24.67,0,28.75h0c0,0.51,0,.79,0,0.79a9.72,9.72,0,0,1-.67,2.29,9.77,9.77,0,0,1-6.62,5.84h0a8.73,8.73,0,0,0,7.6-4.47l0.3,0.17,0.07,0q0.6,0.33,1.28.62l0.09,0,0.6,0.24,0.11,0a20.43,20.43,0,0,0,2.32.71l0.09,0,0.77,0.17,0.09,0,0.89,0.16A22.42,22.42,0,0,1,22.8,86.9,8.67,8.67,0,0,0,23,85.19V64.53C39.76,65,54.11,44.36,54.11,42.93c0,1.42,14.35,22.11,31.13,21.6V85.19a8.65,8.65,0,0,0,.25,2.07,22.37,22.37,0,0,1-4.86,4.08l-0.51.33h0a19.73,19.73,0,0,0,6.29-2.06A8.73,8.73,0,0,0,94,93.9a10.71,10.71,0,0,1-1.47-.52,9.89,9.89,0,0,1-.91-0.45Z"/><path class="l" d="M80.47,125.59h0a6.31,6.31,0,0,0-11.14,3.55h0l0-.1v0.1h0c0,0.16,0,.33,0,0.49A6.33,6.33,0,0,0,80,134.15,4.09,4.09,0,0,0,81.46,132,6.33,6.33,0,0,0,80.47,125.59Z"/><path class="l" d="M38.22,126.35a6.36,6.36,0,0,0-.54-0.76h0a6.38,6.38,0,0,0-.94-0.91l-0.11-.08-0.19-.14a6.29,6.29,0,0,0-3.6-1.12h0a6.32,6.32,0,0,0-4.47,1.84l0-.09a6.32,6.32,0,0,0-1.91,4.05h0c0,0.16,0,.33,0,0.49a6.33,6.33,0,0,0,10.38,4.88c0.14-.11.27-0.23,0.39-0.35A4.09,4.09,0,0,0,38.68,132,6.31,6.31,0,0,0,38.22,126.35Z"/></svg>