<svg xmlns="http://www.w3.org/2000/svg" viewBox="0 0 210 210"><defs><style>.a{fill:none;stroke:#b1a48a;stroke-miterlimit:10;}.b{fill:#3c332c;}.c{fill:#b26856;}.d{fill:#614d3f;}.e{fill:#613811;}.f{fill:#b1a48a;}.g{fill:#776658;}</style></defs><title>All-icons</title><rect class="a" x="33.89" y="33.89" width="142.23" height="142.23" transform="translate(105 -43.49) rotate(45)"/><path class="b" d="M176.84,152.4c0-.15,0-0.23,0-0.2-0.1.2-.31-5.21-9.7-18.2-3.31-4.57-6.26-6.91-8.7-8a3.67,3.67,0,0,0-3-1.79,3.07,3.07,0,0,0-.91.14c-0.47-.38-0.9-0.7-1.28-1a21.05,21.05,0,0,0-1.64-3.68c0.42-5.83.9-13.16,1.37-20.83,3.67-.16,11.39-1,14.33-5a21.55,21.55,0,0,0,1.21-3.26c3-10,5.77-35.11-7.29-56.39C147.69,11.32,125,9.84,112.55,13.76a28.66,28.66,0,0,0-13.38,10C93.76,25.92,83.34,30.46,79,36c-0.4.58,1.48,0,0,2.42-0.5.81-1,1.61-1.39,2.32l-6.9,5.47a1.29,1.29,0,0,0-.28,1.3c0.14,0.52.49,0.78,0.78,0.58l5.33-4.22,0.66,1.5h4l-0.57.45a1.29,1.29,0,0,0-.28,1.3c0.14,0.52.49,0.78,0.78,0.58l11.1-8.79c0.67,0.78,1.31.61,2.35,0.15a6.15,6.15,0,0,0,1-.65c1.68-1.26,4.43-3.8,5.5-4.58a3,3,0,0,0,1-2.82s5.36-2.62,7.79-3.57c1.22-.51,1.6-1.18,1-1.59a2.53,2.53,0,0,0-1-.3c-1.76-.27-4.19-0.81-4.19-0.81s3.65-4.05,6.89-5.41c6,0.93,14.74,9.95,16.56,13.47l-3.05.41h0l-4.6.61h-0.27c-1.33.12-2.29,1.67-2.13,3.47a3.15,3.15,0,0,0,2.26,3l1.63,2.18c-0.34,2.2-.68,4.59-0.92,6.37h-0.25S110.93,50,111.08,49.9l0,3.92L86,57.61a4.43,4.43,0,0,0-4.31,3.9,3.52,3.52,0,0,0,.95,2.85L70.11,96v0l-1.33-.44-0.27-.09c-1.37-.34-2.86.86-3.31,2.69a3.11,3.11,0,0,0,.26,2.48l-9.08,4.23L54,104.07,53.76,104a2.77,2.77,0,0,0-2.95,1.72c-0.44-1.41-1.28-2.4-2.25-2.53l-0.24,0a1.67,1.67,0,0,0-.33,0l-2.74.29H45.18a2.11,2.11,0,0,0-1.58.84l-9.19.47a2,2,0,0,0-1.31-.55H29.86a1.48,1.48,0,0,0-.66.16v0l-6.14,3.9A1.34,1.34,0,0,0,22,109.33l-11.9,1a1.69,1.69,0,0,0,0,3h0.1l11.93-1a1.15,1.15,0,0,0,.93.76l0.7,0.12-5.37.44a1.71,1.71,0,0,0,0,3.07h0.1l12.1-1a1.17,1.17,0,0,0,.95.77l6.21,1.06a1.75,1.75,0,0,0,.69.14,1.7,1.7,0,0,0,.44-0.06l3.17-.41v0a2.48,2.48,0,0,0,1.52-1.12l8.92-.34a2.07,2.07,0,0,0,1.49.73h0v0l3.45-.34v0c1.08-.16,2-1.35,2.36-3l0.55,0.22a2,2,0,0,0,.44.17c1.37,0.34,2.86-.86,3.31-2.69s-0.19-3.36-1.4-3.85l8-3.87,4.39,1.71a2,2,0,0,0,.44.17c1.37,0.34,2.86-.86,3.31-2.69s-0.28-3.59-1.65-3.93L76.14,98c2.52-5.32,13.75-29,15.28-32.43l19.81,0.79,0.1,11,9.78-.4,3.18,0.1,0.1-5.35c1.85,0,4.22,0,6.75,0l-0.2,11h-1.35a1.55,1.55,0,0,0-.69.17v0l-6.43,4.09A1.4,1.4,0,0,0,121.34,88l-12.48,1a1.77,1.77,0,0,0,0,3.17H109l12.51-1a1.21,1.21,0,0,0,1,.79l6.42,1.1a1.81,1.81,0,0,0,.71.15A1.76,1.76,0,0,0,130,93.1l0.72-.09,0,2.4-3.15.16a2,2,0,0,0-1.37-.58h-3.4a1.55,1.55,0,0,0-.69.17v0l-6.43,4.09a1.4,1.4,0,0,0-1.12,1.11l-12.48,1a1.77,1.77,0,0,0,0,3.17h0.1l12.51-1a1.21,1.21,0,0,0,1,.79l6.42,1.1a1.8,1.8,0,0,0,.71.15,1.76,1.76,0,0,0,.45-0.06l3.28-.43v0a2.57,2.57,0,0,0,1.57-1.16l2.48-.09L130.5,107H130c-0.72,0-1.31,1-1.34,2.14a21.25,21.25,0,0,0-3.42,1h-6.91c-0.74,0-1.34,1-1.34,2.23a2.46,2.46,0,0,0,.89,2.1l-0.17.56q-0.5.5-1,1h-0.19l-0.21.47a21,21,0,0,0-3.94,7.46,1,1,0,0,0-.45-0.33H104.1l-0.06.23A6.52,6.52,0,0,0,94.28,126c-1-.05-2.15-0.11-3.45-0.15-17.67,5.41-28.08,22.16-28.6,23.28s0,1.35,0,1.35h0a4.89,4.89,0,0,0-3.41,5.72l-0.11.06-0.08.52a43.09,43.09,0,0,0,2,35.37c3.18-6.58,7.88-32.08,7.88-32.08l-0.84-2.15A4.89,4.89,0,0,0,68,153c0.33,0.05.66,0.1,1,.13,7.14-8.63,30-15.93,30-15.93v-1.66a6.57,6.57,0,0,0,1,.08,6.5,6.5,0,0,0,4.3-1.62h2.23l2.45,2.07h1.43l0.51,1s0.87-.05,1.86-0.08a21.48,21.48,0,0,0,20.14,14.17c0.65,0,1.3,0,1.93-.08h0.06a12.92,12.92,0,0,0,1.66-.21,21.28,21.28,0,0,0,5.73-1.83c0.11,0.66.19,1.27,0.23,1.8a11.2,11.2,0,0,0-.78,4.75c0,2.85.58,5.17,1.29,5.17a0.42,0.42,0,0,0,.27-0.11l-0.1.34s1.48,24.49,1.42,33.53c0,1.48-.06,2.8-0.17,3.85a15.61,15.61,0,0,0,4.09,0s2.16-31.28.45-39.94c0.09-.36,1-4.18-0.56-6.22a44.32,44.32,0,0,0-.05-7.58,21.13,21.13,0,0,0,4-6c0.59,0.27,1.27.56,2.07,0.87a27.57,27.57,0,0,1,15.35,15.06,8.37,8.37,0,0,0-.29,2.25,8.66,8.66,0,0,0,.18,1.79s0,9.72-.12,15.52a102.27,102.27,0,0,1-2.76,16.05h2.3l0.29-.41a45.52,45.52,0,0,0,5.86-12.19,77.36,77.36,0,0,0,2.89-18.69,7.82,7.82,0,0,0,.28-2.11h0C178.52,154.75,177.82,153,176.84,152.4Z"/><path class="c" d="M128.7,109.87a3.64,3.64,0,0,1,0-.59s0-.06,0-0.09a21.25,21.25,0,0,0-3.42,1h2.45Z"/><path class="d" d="M122.13,40.23a1.83,1.83,0,0,1-.39.08h-0.29l-0.15,0,1.63,2.18c0.13-.84.26-1.66,0.38-2.4Z"/><path class="d" d="M132.23,64.26h-0.06c0,1.13.05,2.11,0.08,2.71C132.26,66.38,132.25,65.4,132.23,64.26Z"/><path class="d" d="M134.36,83.19l9.63-.5a2.21,2.21,0,0,1,1.66-.88h0l3-.33h0.22l0.25,0c1.15,0.16,2.12,1.46,2.51,3.23a5.79,5.79,0,0,1,.54.21l0.28-7.36-3.92-7.13a1.59,1.59,0,0,1-.78.49c-1.92.47-9.88,0.65-16.7,0.71l-0.2,11H133A2,2,0,0,1,134.36,83.19Z"/><path class="d" d="M138.85,94.19h0.08l2.87-.31a1.76,1.76,0,0,1,.34,0l0.25,0,0.15,0,1.57-2.77h0l-9.22.35a2.57,2.57,0,0,1-1.57,1.16v0l-2.56.33,0,2.4,6.48-.33A2.21,2.21,0,0,1,138.85,94.19Z"/><path class="d" d="M148.24,109.27c0,1.23-.6,2.23-1.34,2.23h-2c0,0.23,0,.53-0.07.87a21.5,21.5,0,0,1,6.17,6.28l0.92-24.24-3.42,5.4a3,3,0,0,1-3.76,1.58,3.31,3.31,0,0,1-2.27,2.48v0l-3.57.36v0h0a2.14,2.14,0,0,1-1.54-.75l-6.74.26L130.5,107h16.4C147.64,107,148.24,108,148.24,109.27Z"/><path class="d" d="M150.88,55.09a5.67,5.67,0,0,1-.19,2.09l2.42,4.93,0.4-10.52s-3.91-9.2-6.22-14.67l-2.83.37c-3.73,3.1-11.09,10-15.09,13.8l0.93,1.25c4.94-.24,11-0.6,13-0.71a5.58,5.58,0,0,1,1.9-.78A4.68,4.68,0,0,1,150.88,55.09Z"/><path class="e" d="M153.81,134.57q0.13-.58.22-1.18a21.18,21.18,0,0,0-.14-7.53q-0.11-.57-0.26-1.13t-0.41-1.39a21.05,21.05,0,0,0-1.64-3.68q-0.29-.51-0.6-1a21.5,21.5,0,0,0-6.17-6.28l-0.31-.21a8.76,8.76,0,0,0-7.1,2.79,16.73,16.73,0,0,0-2.72,3.52,15.59,15.59,0,0,0-2.09,6.14l-0.43,0h0v0s-5.58.55-10.57,0.75c-0.55,2.63-3.21,19,13.28,25.67h0.06q0.84-.08,1.66-0.21a21.28,21.28,0,0,0,5.73-1.83c-0.9-5.37-3.77-14.35-3.77-14.51s0.54-12.59.7-12.83h5.24S146.15,128,147.7,136c0.37,3.57.59,6.41,0.72,8.66a21.13,21.13,0,0,0,4-6,20.87,20.87,0,0,0,.89-2.37Q153.62,135.42,153.81,134.57Z"/><path class="e" d="M116.8,125.46a10.85,10.85,0,0,1-1.64-.15h0l-0.41-.08h0a3.71,3.71,0,0,1-.53-0.16,14.35,14.35,0,0,1,2.75-7.32l0.79-2.66q-0.5.5-1,1l-0.39.47A21.06,21.06,0,0,0,112.8,137,21.43,21.43,0,0,0,128,150.58C124,148.66,115.28,141.85,116.8,125.46Z"/><path class="f" d="M151.89,94.43L151,118.67q0.32,0.49.6,1c0.42-5.83.9-13.16,1.37-20.83,0.14-2.22.27-4.47,0.41-6.72Z"/><path class="f" d="M71.23,48l5.33-4.22-0.08-.19-0.08-.18c-0.11-.25.43-1.34,1.23-2.75l-6.9,5.47a1.29,1.29,0,0,0-.28,1.3C70.6,48,70.94,48.25,71.23,48Z"/><path class="f" d="M148.61,70.44l-0.11-.2-4.77-8.68-11.49,2.71c0,1.14,0,2.12,0,2.72a1.26,1.26,0,0,1-.29.71,5,5,0,0,1-1,.93c-1.57,1.2-4.32,2-6.6,2.45l0.14-7.92,16.74-3.43,0.06-.2h0v0a5,5,0,0,1-.82-2.32,6,6,0,0,1,2.77-5.56c-2,.12-8,0.47-13,0.71l-2.36.11,1.43-1.36c4-3.79,11.36-10.71,15.09-13.8-3.78-1.71-2.13-6.32-2.13-6.32l-2.48.33V23.5l-0.72.12L139,31.42l-6.12.83v-7.4l-0.72.12-0.12,7.39-2.94.4-3.05.41h0a7,7,0,0,0-2.17,3.66c-0.12.57-.33,1.76-0.56,3.23-0.12.74-.25,1.56-0.38,2.4-0.34,2.2-.68,4.59-0.92,6.37h-0.25l-0.66,28.08,3.18,0.1,0.1-5.35c1.85,0,4.22,0,6.75,0,6.82-.06,14.78-0.24,16.7-0.71A1.59,1.59,0,0,0,148.61,70.44Zm-12.8-36.9-2.63,4.53-8.44,14.51h0l6.13-14.22h-0.11c-1.07-.56-1.41-2.6-1.54-4.06Z"/><path class="f" d="M156.69,78.53c-0.62,1.38.37,3.17,2.22,4s3.84,0.38,4.46-1-0.37-3.17-2.22-4a4.86,4.86,0,0,0-.67-0.24c-0.72-1.58-3.28-6.82-5.63-11.63,0.44-8.58.69-14.46,0.56-14.46-0.46,0-5.05-18.24-5.05-18.24h0c-0.28-1.6-1.41-2.77-2.65-2.66s-2.29,1.67-2.13,3.47,1.34,3.13,2.66,3l-0.93.12c2.3,5.47,6.22,14.67,6.22,14.67l-0.4,10.52-2.42-4.93a6.15,6.15,0,0,1-1.27,2.34l9,17.68A2.45,2.45,0,0,0,156.69,78.53Zm-8.26-41.76h0Z"/><path class="f" d="M154.85,89.76a2.79,2.79,0,0,0,0-2.23l3.36-3.22a5.59,5.59,0,0,1-2.29-1.67l-2.73,2.85L153,85.34l0.86-1.59,0.2-3.42-1.52-2.76-0.28,7.36a5.79,5.79,0,0,0-.54-0.21c-0.4-1.77-1.36-3.07-2.51-3.23l-0.25,0h-0.22l-3,.33h0a2.21,2.21,0,0,0-1.66.88l1.66-.09s2.08,0.63,2.23,3.9C147.88,90.15,146,91,146,91l-1.92.07h0a2.15,2.15,0,0,0,1.5.75v0l3.57-.36h0a2,2,0,0,0,1-.41C152.14,91.78,154.16,91.24,154.85,89.76Z"/><path class="f" d="M63.6,160.07a4.89,4.89,0,0,1-4.78-3.87l-0.11.06-0.08.52a43.09,43.09,0,0,0,2,35.37c3.18-6.58,7.88-32.08,7.88-32.08l-0.84-2.15A4.89,4.89,0,0,1,63.6,160.07Z"/><path class="f" d="M93.5,129.08a6.49,6.49,0,0,1,.77-3.08c-1-.05-2.15-0.11-3.45-0.15-17.67,5.41-28.08,22.16-28.6,23.28s0,1.35,0,1.35h0A4.89,4.89,0,0,1,68,153c0.33,0.05.66,0.1,1,.13,7.14-8.63,30-15.93,30-15.93v-1.66A6.53,6.53,0,0,1,93.5,129.08Z"/><path class="f" d="M112.41,124a1,1,0,0,0-.45-0.33H104.1l-0.06.23a6.52,6.52,0,0,1,.29,10.05h2.23l2.45,2.07h1.43l0.51,1s0.87-.05,1.86-0.08A21.12,21.12,0,0,1,112.41,124Z"/><path class="f" d="M143.08,150.41c0.35,0,.67.56,0.9,1.48l0.07,0.3h4.43a44.32,44.32,0,0,0-.05-7.58c-0.13-2.25-.35-5.09-0.72-8.66-1.55-8-3.21-14.25-3.21-14.25h-5.24c-0.15.23-.7,12.64-0.7,12.83s2.87,9.14,3.77,14.51c0.11,0.66.19,1.27,0.23,1.8A0.67,0.67,0,0,1,143.08,150.41Z"/><path class="f" d="M109.85,90.56a1.49,1.49,0,0,1-.88,1.58l12.51-1,0.61-.05a1.77,1.77,0,0,0,0-3.17H122l-0.65.05-12.48,1A1.4,1.4,0,0,1,109.85,90.56Z"/><path class="f" d="M102.16,104.51l12.51-1,0.61-.05a1.77,1.77,0,0,0,0-3.17h-0.1l-0.65.05-12.48,1a1.4,1.4,0,0,1,1,1.59A1.49,1.49,0,0,1,102.16,104.51Z"/><path class="f" d="M73.92,101a3.29,3.29,0,0,0,1.22,3.76,2,2,0,0,0,.44.17c1.37,0.34,2.86-.86,3.31-2.69s-0.28-3.59-1.65-3.93S74.38,99.22,73.92,101Z"/><path class="f" d="M10.19,113.32l11.93-1,0.59,0a1.69,1.69,0,0,0,0-3h-0.1l-0.62.05-11.9,1a1.33,1.33,0,0,1,.94,1.51A1.42,1.42,0,0,1,10.19,113.32Z"/><path class="f" d="M81.13,47.66l11.1-8.79,0.83-.66a0.49,0.49,0,0,0,.65.11,2,2,0,0,0,.32-2c-0.22-.83-0.72-1.28-1.12-1a1.39,1.39,0,0,0-.42,1.07L91.66,37a14.58,14.58,0,0,0-.83-2.86h0l-0.18.06-0.18.06-0.17.06-0.19.08L90,34.5l-0.3.14h0l-0.36.19-0.07,0-0.07,0L89.06,35l0,0-0.12.09,0,0-0.08.07,0,0-0.09.1c-1,1.25-6,8.1-6,8.1v0.7L81.2,45.32l-0.57.45a1.29,1.29,0,0,0-.28,1.3C80.49,47.6,80.83,47.86,81.13,47.66Z"/><path class="f" d="M112.55,19.29s3.79-3.31,18.3-2.37C145.54,18,162.61,30,168.9,55.8c2.69,10,1.12,25-.41,34.78,3-10,5.77-35.11-7.29-56.39C152,19.35,139.36,16.11,135.33,14.83c-6.76-2.57-15.41-1.45-21.25,0s-11.82,8.67-11.82,8.67l3.39,1.2S109.3,20.64,112.55,19.29Z"/><path class="f" d="M146.9,111.51c0.74,0,1.34-1,1.34-2.23s-0.6-2.23-1.34-2.23-1.34,1-1.34,2.23,0.6,2.23,1.34,2.23h0Z"/><path class="f" d="M76.14,98c2.52-5.32,13.75-29,15.28-32.43l-1.9-.08-3.08-.12,24.77-.93-0.1-10.61L86,57.61a3.45,3.45,0,0,1,3.49,3.9,4.43,4.43,0,0,1-4.31,3.9,3.5,3.5,0,0,1-2.55-1L70.11,96v0l4.69,1.56Z"/><path class="f" d="M154.5,124.31c-0.47-.38-0.9-0.7-1.28-1q0.23,0.68.41,1.39A3.4,3.4,0,0,1,154.5,124.31Z"/><circle class="f" cx="100.03" cy="129.08" r="4.91"/><circle class="f" cx="63.6" cy="155.18" r="2.99"/><path class="f" d="M149,158.44l-4.87-.07c0,0.17-.06.33-0.09,0.49a3.46,3.46,0,0,1-.73,1.77l-0.1.34s1.48,24.49,1.42,33.53c0,1.48-.06,2.8-0.17,3.85a15.61,15.61,0,0,0,4.09,0s2.16-31.28.45-39.94v0Z"/><ellipse class="f" cx="143.08" cy="155.69" rx="0.6" ry="3.78"/><path class="f" d="M84.68,62.76a2.53,2.53,0,0,0,2.45-2.22,2,2,0,0,0-2-2.22,2.53,2.53,0,0,0-2.45,2.22A2,2,0,0,0,84.68,62.76Z"/><path class="f" d="M141.53,56.26a2.67,2.67,0,0,0,3.24,2.42,3.42,3.42,0,0,0,2.66-3.61,2.67,2.67,0,0,0-3.24-2.42A3.42,3.42,0,0,0,141.53,56.26Z"/><path class="f" d="M134.89,91.47a6.9,6.9,0,0,0,1-3.84,6.14,6.14,0,0,0-1.57-4.45,2,2,0,0,0-1.37-.58h-3.4a1.55,1.55,0,0,0-.69.17v0l-6.43,4.09c0.75,0,1.35,1.13,1.35,2.53s-0.6,2.53-1.35,2.53l6.42,1.1a1.81,1.81,0,0,0,.71.15,1.76,1.76,0,0,0,.45-0.06l0.72-.09,2.56-.33v0A2.57,2.57,0,0,0,134.89,91.47Z"/><path class="f" d="M144.71,101.4a7.89,7.89,0,0,0,.39-2.54c0-2.55-1.13-4.64-2.56-5l-0.15,0-0.25,0a1.76,1.76,0,0,0-.34,0l-2.87.31h-0.08a2.21,2.21,0,0,0-1.66.88l1.66-.09s2.08,0.63,2.23,3.9c0,3.65-1.85,4.54-1.85,4.54l-1.92.07a2.14,2.14,0,0,0,1.54.75h0v0l3.57-.36v0A3.31,3.31,0,0,0,144.71,101.4Z"/><path class="f" d="M128.09,103.84a6.9,6.9,0,0,0,1-3.84,6.14,6.14,0,0,0-1.57-4.45,2,2,0,0,0-1.37-.58h-3.4a1.55,1.55,0,0,0-.69.17v0l-6.43,4.09c0.75,0,1.35,1.13,1.35,2.53s-0.6,2.53-1.35,2.53l6.42,1.1a1.8,1.8,0,0,0,.71.15,1.76,1.76,0,0,0,.45-0.06l3.28-.43v0A2.57,2.57,0,0,0,128.09,103.84Z"/><ellipse class="f" cx="119.16" cy="55.66" rx="1.46" ry="1.95"/><ellipse class="f" cx="113.26" cy="56.14" rx="1.39" ry="1.86"/><path class="f" d="M48.56,103.17l-0.24,0a1.67,1.67,0,0,0-.33,0l-2.74.29H45.18a2.11,2.11,0,0,0-1.58.84l1.58-.08s1.93,0.59,2.12,3.61l0.67,0,3.17-.16a7.52,7.52,0,0,0-.33-1.94C50.37,104.3,49.53,103.31,48.56,103.17Z"/><path class="f" d="M57.46,116.11c1.08-.16,2-1.35,2.36-3l0-.17a2.11,2.11,0,0,0,.52.39,2,2,0,0,0,.44.17c1.37,0.34,2.86-.86,3.31-2.69s-0.19-3.36-1.4-3.85l8-3.87,1.48-.71v-2.13L68,99.44l-2.55,1.19-9.08,4.23,4.37,1.46,1.72,0.57a2.75,2.75,0,0,0-2.93,1.68,3.07,3.07,0,0,0-2.14-2.15l-0.24,0a1.69,1.69,0,0,0-.33,0l-2.78.3H54a2.14,2.14,0,0,0-1.6.85l1.6-.08s2,0.61,2.16,3.77c0,3.53-1.79,4.4-1.79,4.4l-1.86.07a2.07,2.07,0,0,0,1.49.73h0v0l3.45-.34v0Z"/><path class="f" d="M41.73,107.5H38.44a1.5,1.5,0,0,0-.67.17v0l-1.86,1.19a5.75,5.75,0,0,0-1.49-4,2,2,0,0,0-1.31-.55H29.86a1.48,1.48,0,0,0-.66.16v0l-6.14,3.9c0.71,0,1.29,1.08,1.29,2.41s-0.58,2.41-1.29,2.41l0.7,0.12-5.37.44a1.35,1.35,0,0,1,1,1.53,1.44,1.44,0,0,1-.85,1.53l12.1-1,0.59,0a1.71,1.71,0,0,0,0-3.07h-0.1l-0.63.05a1.36,1.36,0,0,1,1.08-1.07c0.72,0,1.31,1.1,1.31,2.45s-0.58,2.45-1.31,2.45l6.21,1.06a1.75,1.75,0,0,0,.69.14,1.7,1.7,0,0,0,.44-0.06l3.17-.41v0a2.48,2.48,0,0,0,1.52-1.12,6.68,6.68,0,0,0,1-3.71C44.57,109.67,43.3,107.5,41.73,107.5Z"/><path class="f" d="M102.06,31s5.36-2.62,7.79-3.57c1.22-.51,1.6-1.18,1-1.59-1.22,1.08-6.15,2.65-8.74,3.82-3.16,1.44-4.19,3.31-5.2,3.31l-0.2,0a20.78,20.78,0,0,1-1.08,5.4c1.68-1.26,4.43-3.8,5.5-4.58A3,3,0,0,0,102.06,31Z"/><path class="f" d="M114.17,125a3.71,3.71,0,0,0,.53.16l2.22-7.48A14.35,14.35,0,0,0,114.17,125Z"/><path class="f" d="M117.28,125.56l-0.48-.1c-1.52,16.39,7.22,23.2,11.24,25.13C115.09,142.67,117.28,125.56,117.28,125.56Z"/><path class="f" d="M115.15,125.31h0Z"/><path class="f" d="M131.45,108.91l-3.6,1.26h7.39c-0.74,0-1.34,1-1.34,2.23s0.6,2.23,1.34,2.23h-1.51l-1.56,10,0.43,0a15.59,15.59,0,0,1,2.09-6.14l0.62-3.85a1.31,1.31,0,0,0,1-.86l7.63-4.87H131.45Z"/><path class="g" d="M148.24,109.27c0-1.23-.6-2.23-1.34-2.23s-1.34,1-1.34,2.23,0.6,2.23,1.34,2.23h0C147.64,111.51,148.24,110.51,148.24,109.27Z"/><path class="g" d="M141.34,59.51h0v0Z"/><path class="g" d="M132.23,64.26c0,1.14,0,2.12,0,2.72a1.26,1.26,0,0,1-.29.71l16.53,2.55-4.77-8.68Z"/><polygon class="g" points="132.17 24.97 132.05 32.36 132.89 32.25 132.89 24.85 132.17 24.97"/><polygon class="g" points="139.13 23.62 139.01 31.42 139.86 31.31 139.86 23.5 139.13 23.62"/><path class="g" d="M148.43,36.77h0c1.23-.25,2.08-1.73,1.93-3.44,0-.13,0-0.26-0.05-0.38-0.28-1.6-1.41-2.77-2.65-2.66s-2.29,1.67-2.13,3.47,1.34,3.13,2.66,3h0Z"/><path class="g" d="M144.47,37.29c-3.78-1.71-2.13-6.32-2.13-6.32s-12.85,16.94-16.56,21.57l2.17-.09,1.43-1.36C133.38,47.31,140.74,40.39,144.47,37.29Z"/><path class="g" d="M150.69,57.18a6.15,6.15,0,0,1-1.27,2.34l9,17.68a4.14,4.14,0,0,1,2,.08c-0.72-1.58-3.28-6.82-5.63-11.63l-1.73-3.54Z"/><ellipse class="g" cx="160.06" cy="79.84" rx="2.22" ry="2.95" transform="translate(21.75 193.26) rotate(-65.86)"/><path class="g" d="M154.86,87.53l3.36-3.22a5.59,5.59,0,0,1-2.29-1.67l-2.73,2.85A4.68,4.68,0,0,1,154.86,87.53Z"/><path class="g" d="M74.8,97.55L76.14,98c2.52-5.32,13.75-29,15.28-32.43l-1.9-.08C88.82,67.06,77.73,92.18,74.8,97.55Z"/><path class="g" d="M154.5,124.31c-0.47-.38-0.9-0.7-1.28-1q0.23,0.68.41,1.39A3.4,3.4,0,0,1,154.5,124.31Z"/><circle class="g" cx="100.03" cy="129.08" r="4.91"/><circle class="g" cx="63.6" cy="155.18" r="2.99"/><path class="g" d="M144.5,121.7h-5.24s4.57,18.45,4.72,30.19l0.07,0.3h4.43a44.32,44.32,0,0,0-.05-7.58c-0.13-2.25-.35-5.09-0.72-8.66C146.15,128,144.5,121.7,144.5,121.7Z"/><path class="g" d="M144.16,158.38c0,0.17-.06.33-0.09,0.49,1.16,6.89.84,29.05,0.59,35.64,0,1.48-.06,2.8-0.17,3.85a15.61,15.61,0,0,0,4.09,0s2.16-31.28.45-39.94v0Z"/><ellipse class="g" cx="143.08" cy="155.69" rx="0.6" ry="3.78"/><path class="g" d="M87.14,60.53a2,2,0,0,0-2-2.22,2.53,2.53,0,0,0-2.45,2.22,2,2,0,0,0,2,2.22A2.53,2.53,0,0,0,87.14,60.53Z"/><path class="g" d="M144.19,52.64a3.42,3.42,0,0,0-2.66,3.61,2.67,2.67,0,0,0,3.24,2.42,3.42,3.42,0,0,0,2.66-3.61A2.67,2.67,0,0,0,144.19,52.64Z"/><path class="g" d="M148.59,86.84c0,2.78-1.32,5-2.94,5h0v0l3.57-.36h0a2,2,0,0,0,1-.41,3.2,3.2,0,0,0,.67-0.7,2.85,2.85,0,0,0,3.31-1.23c0.62-1.32-.3-3.05-2.06-3.88l-0.28-.12q0-.24-0.09-0.46c-0.4-1.77-1.36-3.07-2.51-3.23l-0.25,0h-0.22l-3,.33C147.29,81.85,148.59,84.08,148.59,86.84Z"/><path class="g" d="M133.31,92.63a2.57,2.57,0,0,0,1.57-1.16,6.9,6.9,0,0,0,1-3.84,6.14,6.14,0,0,0-1.57-4.45,2,2,0,0,0-1.37-.58h-3.4c1.62,0,2.94,2.74,2.94,5.52,0,2.51-1.08,4.6-2.49,5l0.72-.09,2.56-.33v0Z"/><path class="g" d="M142.54,93.89l-0.15,0-0.25,0a1.76,1.76,0,0,0-.34,0l-2.87.31c1.58,0.07,2.86,2.29,2.86,5s-1.3,5-2.91,5v0l3.57-.36v0a3.31,3.31,0,0,0,2.27-2.48,7.89,7.89,0,0,0,.39-2.54C145.09,96.31,144,94.21,142.54,93.89Z"/><path class="g" d="M127.56,95.56a2,2,0,0,0-1.37-.58h-3.4c1.62,0,2.94,2.74,2.94,5.52,0,2.51-1.08,4.6-2.49,5l3.28-.43v0a2.57,2.57,0,0,0,1.57-1.16,6.9,6.9,0,0,0,1-3.84A6.14,6.14,0,0,0,127.56,95.56Z"/><path class="g" d="M124.53,63.15l0.19-10.57h0l6.13-14.22h-0.11c-1.07-.56-1.41-2.6-1.54-4.06l-0.09,0-4.51,14.52c-0.52,0-2,0-2.59,0h-0.25l-0.66,28.08,3.18,0.1,0.1-5.35v-0.6Z"/><ellipse class="g" cx="119.16" cy="55.66" rx="1.46" ry="1.95"/><ellipse class="g" cx="113.26" cy="56.14" rx="1.39" ry="1.86"/><ellipse class="g" cx="76.58" cy="101.67" rx="2.76" ry="2.07" transform="translate(-40.64 151.27) rotate(-75.95)"/><path class="g" d="M72.22,100.28l-11.47,6,1.72,0.57L62.73,107l8-3.87,1.48-.71v-2.1Z"/><path class="g" d="M48,107.81l3.17-.16a7.52,7.52,0,0,0-.33-1.94c-0.44-1.41-1.28-2.4-2.25-2.53l-0.24,0a1.67,1.67,0,0,0-.33,0l-2.74.29C46.67,103.55,47.83,105.42,48,107.81Z"/><path class="g" d="M32.66,109.49a8,8,0,0,1-.14,1.48l3.38-2.15a5.75,5.75,0,0,0-1.49-4,2,2,0,0,0-1.31-.55H29.86C31.4,104.23,32.66,106.84,32.66,109.49Z"/><path class="g" d="M60,111.9a1.79,1.79,0,0,0,1.14,1c1.11,0.28,2.31-.7,2.67-2.17s-0.23-2.9-1.34-3.18-2.24.64-2.64,2.05a6.66,6.66,0,0,0-.3-1,3.07,3.07,0,0,0-2.14-2.15l-0.24,0a1.69,1.69,0,0,0-.33,0l-2.78.3c1.53,0.07,2.76,2.22,2.76,4.86s-1.26,4.84-2.82,4.86v0l3.45-.34v0c1.08-.16,2-1.35,2.36-3l0-.17A7.77,7.77,0,0,0,60,111.9Z"/><path class="g" d="M41.73,107.5H38.44c1.57,0,2.84,2.65,2.84,5.34,0,2.43-1,4.45-2.41,4.81l3.17-.41v0a2.48,2.48,0,0,0,1.52-1.12,6.68,6.68,0,0,0,1-3.71C44.57,109.67,43.3,107.5,41.73,107.5Z"/><path class="e" d="M161.2,34.19C147.69,11.32,125,9.83,112.55,13.75a28.66,28.66,0,0,0-13.38,10C93.76,25.91,83.34,30.46,79,36c-0.4.58,1.48,0,0,2.42-0.5.81-1,1.61-1.39,2.32-0.81,1.41-1.34,2.5-1.23,2.75l0.08,0.18c2.89,0,6.2-.18,6.2-0.18v0.7l9-7.12a14.58,14.58,0,0,0-.83-2.86L91,34.12l0.32-.1L91.52,34l0.22-.06,0.17,0,0.23-.06,0.17,0,0.53-.12,0.08,0,0.27-.06,0.15,0,0.28-.06,0.14,0,1-.18h0l0.35-.06h0l0.73-.11h0l0.91-.13-0.2,0a20.78,20.78,0,0,1-1.08,5.4c1.68-1.26,4.43-3.8,5.5-4.58a3,3,0,0,0,1-2.82s5.36-2.62,7.79-3.57c1.22-.51,1.6-1.18,1-1.59a2.53,2.53,0,0,0-1-.3c-1.76-.27-4.19-0.81-4.19-0.81s3.65-4.05,6.89-5.41c0,0,3.79-3.31,18.3-2.37C145.54,18,162.61,30,168.9,55.8c2.69,10,1.12,25-.41,34.78C171.47,80.54,174.26,55.48,161.2,34.19Z"/><path class="g" d="M114.7,125.21l2.22-7.48a14.35,14.35,0,0,0-2.75,7.32A3.71,3.71,0,0,0,114.7,125.21Z"/><path class="g" d="M117.28,125.56l-0.48-.1c-1.52,16.39,7.22,23.2,11.24,25.13C115.09,142.67,117.28,125.56,117.28,125.56Z"/><path class="g" d="M115.15,125.3h0Z"/><path class="g" d="M136.29,113.78l7.63-4.87H131.45l-3.6,1.26h7.39c-0.74,0-1.34,1-1.34,2.23s0.6,2.23,1.34,2.23h-1.51l-1.56,10,0.43,0a15.59,15.59,0,0,1,2.09-6.14l0.62-3.85A1.31,1.31,0,0,0,136.29,113.78Z"/><path class="g" d="M130.84,16.92C145.54,18,162.61,30,168.9,55.8c2.69,10,1.12,25-.41,34.78,3-10,5.77-35.11-7.29-56.39C152,19.35,139.36,16.11,135.33,14.83c-6.76-2.57-15.41-1.45-21.25,0s-11.82,8.67-11.82,8.67l3.39,1.2s3.65-4.05,6.89-5.41C112.55,19.29,116.34,16,130.84,16.92Z"/><path class="g" d="M91.66,37a14.58,14.58,0,0,0-.83-2.86h0l-0.18.06-0.18.06-0.17.06-0.19.08L90,34.5l-0.3.14h0l-0.36.19-0.07,0-0.07,0L89.06,35l0,0-0.12.09,0,0-0.08.07,0,0-0.09.1c-1,1.25-6,8.1-6,8.1v0.7Z"/><path class="g" d="M96.87,32.94l-0.2,0a20.78,20.78,0,0,1-1.08,5.4c1.68-1.26,4.43-3.8,5.5-4.58a3,3,0,0,0,1-2.82s5.36-2.62,7.79-3.57c1.22-.51,1.6-1.18,1-1.59-1.22,1.08-6.15,2.65-8.74,3.82C98.91,31.08,97.88,32.94,96.87,32.94Z"/></svg>