<svg xmlns="http://www.w3.org/2000/svg" viewBox="0 0 210 210"><defs><style>.a{fill:none;stroke:#dedede;stroke-miterlimit:10;}.b{fill:#3c4045;}.c{fill:#d4a87b;}.d{fill:#fff;}.e{fill:#f0c98d;}.f{fill:#613811;}.g{fill:#422815;}.h{fill:#b1a48a;}.i{fill:#191919;}.j{fill:#3c332c;}.k{fill:#776658;}.l{fill:#e7f0f7;}.m{fill:#f1e2c6;}.n{fill:#d1d1d1;}.o{fill:#d17946;}.p{fill:#e79550;}</style></defs><title>All-icons</title><rect class="a" x="33.89" y="33.89" width="142.23" height="142.23" transform="translate(105 -43.49) rotate(45)"/><path class="b" d="M175.14,94.91a7.24,7.24,0,0,0-4.44,1.51L130.13,52.59a2.15,2.15,0,0,0-2.05-.64l-64,14.4A7.27,7.27,0,1,0,53,75.4L41.58,137.61a2.15,2.15,0,0,0,.59,1.91l37.68,37.92A7.27,7.27,0,1,0,94,180.88l56.57-7.27a2.15,2.15,0,0,0,1.77-1.45l21.27-62.88A7.27,7.27,0,1,0,175.14,94.91Zm-7,5.14c-0.06.18-.1,0.37-0.14,0.56L113,105.2a7.27,7.27,0,0,0-10.87-3.26L64.53,72.46A7.22,7.22,0,0,0,65,70.58l62.84-14.14ZM57.09,77.11c0.21,0,.43,0,0.65,0a7.23,7.23,0,0,0,4.13-1.29l37.57,29.49a7.27,7.27,0,0,0,2.9,8.73l-15.73,58a7.24,7.24,0,0,0-4.36,1.65L46,137.28Zm91.57,92.39-55.07,7.08a7.29,7.29,0,0,0-2.83-3.38l15.73-58a7.27,7.27,0,0,0,6.83-5.69l55.07-4.59a7.27,7.27,0,0,0,1.37,2.18Z"/><path class="b" d="M183.9,147.63c-0.61-1-1.14-2-1.58-2.84a12.83,12.83,0,0,1-1.41-3.84c0.17-1.46.79-9.55-4.8-16.2a20.81,20.81,0,0,0-5.17-4.4,21.41,21.41,0,0,0-11.25-3.1,24,24,0,0,0-5.84.73,2.29,2.29,0,0,0-1.06-.31h-0.09a2.29,2.29,0,0,0-.7.11,34.14,34.14,0,0,0-13.32-2.89,23.64,23.64,0,0,0-7.44,1.14,19.52,19.52,0,0,0-7.16,4.21,26.16,26.16,0,0,0-4.9,6,20.11,20.11,0,0,0-2.29,15.26l-2.32,7.76a2.39,2.39,0,0,0,2.2,3.21h0.07a22.24,22.24,0,0,0,2.4-.25c1,3.84,3.52,6.47,6.29,6.47a4.31,4.31,0,0,0,.55,0,27.06,27.06,0,0,0,7.44,8.24l-0.53.58a15.65,15.65,0,0,0-3.86,10.27v8.34a2,2,0,0,0,2,2h36.5a2,2,0,0,0,2-2v-8.34a15.69,15.69,0,0,0-3.48-9.82,2.31,2.31,0,0,0-.3-0.31q-0.31-.36-0.64-0.7a27.06,27.06,0,0,0,7.46-8.26,4.38,4.38,0,0,0,.6,0c3,0,5.64-3,6.5-7.18q0-.19.07-0.38c0.43,0,.86,0,1.29,0l0.94,0a2.3,2.3,0,0,0,2.11-1.63A2.35,2.35,0,0,0,183.9,147.63Z"/><path class="b" d="M82.71,110.93a8.34,8.34,0,0,0-8.32-7.85,8.2,8.2,0,0,0-1.28.1,25.53,25.53,0,0,0-3.32-6.45A15.66,15.66,0,0,0,59.4,90.12a24.18,24.18,0,0,0-3.69-.32H55.63a12.42,12.42,0,0,0-7.36,2,8.87,8.87,0,0,0-1.45,1.3,8.87,8.87,0,0,0-1.45-1.3,12.42,12.42,0,0,0-7.36-2H37.91a24.18,24.18,0,0,0-3.69.32,15.66,15.66,0,0,0-10.39,6.62,25.53,25.53,0,0,0-3.32,6.45,8.2,8.2,0,0,0-1.28-.1,8.34,8.34,0,0,0-8.32,7.85,6.65,6.65,0,0,0-1.5,4.2v13.75A6.65,6.65,0,0,0,11,133.19a8.32,8.32,0,0,0,14.19,4.54l0.1,0h0l0.07,0c0.32,0.12.66,0.23,1,.34l0.84,0.23h0.08l0.61,0.14H28l0.15,0a20.52,20.52,0,0,0,4.42,2.52l0.92,0.39a8.44,8.44,0,0,0-1.5,3c-0.16.56-.36,1.2-0.58,1.89-0.32,1-.69,2.07-1.13,3.31-0.34,1-.72,2-1.16,3.17a2.29,2.29,0,0,0-.26,1.07v2.94a2.09,2.09,0,0,0,2.09,2.09H63a2.09,2.09,0,0,0,2.09-2.09V153.9a2.29,2.29,0,0,0-.27-1.09c-0.46-1.2-.85-2.27-1.2-3.27s-0.74-2.16-1-3.08c-0.22-.72-0.4-1.37-0.54-1.94a7.83,7.83,0,0,0-1.5-3.08l0.81-.35a26,26,0,0,0,4.39-2.52,17.25,17.25,0,0,0,2.79-.77,8.33,8.33,0,0,0,14.11-4.61,6.65,6.65,0,0,0,1.59-4.31V115.14A6.65,6.65,0,0,0,82.71,110.93Z"/><path class="b" d="M159.87,33.88a14,14,0,0,0-2.7-3,20.07,20.07,0,0,0-3.11-5,20.74,20.74,0,0,0-12.76-7,24,24,0,0,0-3.76-.32c-4.71,0-7.35,1.74-8.78,3.33-1.46-1.62-4.11-3.33-8.77-3.33h-0.09a24.09,24.09,0,0,0-3.67.32,20.74,20.74,0,0,0-12.76,7,20.07,20.07,0,0,0-3.11,5,14,14,0,0,0-2.67,3,13.36,13.36,0,0,0-2,10,16.91,16.91,0,0,0,.58,2.29l0,0a8.41,8.41,0,0,0,1,2,10.17,10.17,0,0,0-.7,3.35,7,7,0,0,0,2,5.29,7.19,7.19,0,0,0,1.37,1.08l0,0.13v0L100,58.39v0q0.1,0.39.22,0.77v0l0.11,0.33v0l0,0.06L100.47,60l0,0.06c0.1,0.25.22,0.51,0.35,0.77l0,0.07h0l0.16,0.3v0l0,0.07,0.19,0.32,0,0.06L101.56,62l0,0.05,0.23,0.32,0.06,0.08v0l0.22,0.28v0l0.06,0.07,0.29,0.33,0,0,0.34,0.36,0.06,0.06h0l0.3,0.29L103.28,64l0.31,0.27h0l0.07,0.06c0.27,0.22.55,0.43,0.85,0.63l0.06,0h0L105,65.25l0.09,0.06,0.43,0.24,0.06,0c0.34,0.18.69,0.35,1.06,0.51l0.06,0h0l0.49,0.2h0l0.06,0c0.29,0.11.6,0.21,0.9,0.31l1,0.26h0.07l0.61,0.14h0.07l0.15,0a18.81,18.81,0,0,0,2.31,1.5,7.62,7.62,0,0,0-2.49,3.07,9.33,9.33,0,0,0-.47,1.28c-0.6,2.07-1.54,4.81-3,8.62a2.3,2.3,0,0,0-.14.85,1.15,1.15,0,0,0-.06.35v3.63a1.15,1.15,0,0,0,1.15,1.15H150.3a1.15,1.15,0,0,0,1.15-1.15V82.79a1.15,1.15,0,0,0,0-.33,2.3,2.3,0,0,0-.15-0.89A78.89,78.89,0,0,1,148.39,73a8.37,8.37,0,0,0-.66-1.78,6.82,6.82,0,0,0-2.4-2.78c0.69-.41,1.36-0.85,2.07-1.32l0.33-.06h0.07l0.6-.13h0l0.08,0a16.44,16.44,0,0,0,1.86-.57l0.08,0h0l0.49-.2h0l0.05,0c0.37-.16.73-0.33,1.06-0.51l0.06,0,0.42-.24,0.1-.06L153,65h0l0.07,0c0.29-.2.58-0.41,0.85-0.63l0.06-.05h0l0.31-.27,0.09-.08,0.3-.28,0.06-.06,0.34-.36,0,0,0.28-.33,0.06-.07h0l0.22-.28v0l0.05-.07,0.23-.32,0,0,0.25-.39,0-.05,0.19-.33,0-.07v0l0.16-.3h0l0-.08c0.12-.25.24-0.51,0.35-0.77l0-.05h0l0.13-.33,0-.07h0l0.11-.33h0v0h0c0.08-.25.15-0.51,0.22-0.76v0l0.08-.34v0l0-.16a8.08,8.08,0,0,0,1.24-1,7,7,0,0,0,2-5.29,10.14,10.14,0,0,0-.66-3.24,8.34,8.34,0,0,0,1.07-2.1l0,0a16.9,16.9,0,0,0,.58-2.29,2.29,2.29,0,0,0,0-.8A13.28,13.28,0,0,0,159.87,33.88Z"/><path class="c" d="M160,39.87v0l0-.24V39.55l0-.22V39.27l0-.21V39l0-.21,0-.06-0.05-.2,0-.06-0.06-.2,0-.05-0.06-.2v0l-0.07-.21v0a10.91,10.91,0,0,0-.46-1.12h0l-0.09-.18,0,0-0.08-.16,0-.05L158.7,36l0-.06-0.08-.14,0-.06-0.08-.13,0-.07-0.08-.12,0-.07-0.08-.12,0-.07-0.08-.11,0-.07L158,34.9l0-.07-0.07-.1-0.05-.07-0.07-.1-0.12-.15,0-.05-0.08-.1,0-.05-0.08-.1,0,0-0.08-.1,0,0-0.08-.09,0,0L157,33.69l0,0-0.09-.1,0,0-0.1-.1h0l-0.11-.11h0a8.72,8.72,0,0,0-1.11-.94,18.14,18.14,0,0,0-14.34-11.17l-0.5-.08-0.12,0-0.36,0-0.16,0-0.3,0-0.18,0-0.28,0H139.1l-0.26,0H137l-0.29,0h-0.14l-0.22,0-0.15,0L136,21l-0.15,0-0.18,0-0.15,0-0.18,0-0.14,0-0.17,0-0.14,0-0.17,0-0.12,0-0.27.07-0.12,0-0.15,0-0.13,0-0.13,0-0.13,0-0.12,0-0.13.05-0.11,0-0.13.06-0.1,0-0.13.06-0.1,0-0.13.06-0.08,0-0.46.27-0.06,0-0.12.08-0.06,0-0.12.08-0.06,0-0.11.08-0.06,0-0.11.09,0,0-0.11.09,0,0a6.44,6.44,0,0,0-.61.61v0l-0.1.11,0,0-0.09.11v0l-0.09.12h0a5.75,5.75,0,0,0-1.08,2.53L129,27v0.46h0V27l-0.22-.49a5.78,5.78,0,0,0-1.16-2.64,6.57,6.57,0,0,0-1.75-1.58h0l-0.19-.12h0l-0.18-.1,0,0L125.26,22l-0.05,0L125,21.85l-0.07,0-0.16-.07-0.08,0-0.16-.06-0.09,0-0.15-.06-0.1,0-0.15-.05-0.11,0-0.15,0-0.12,0-0.15,0-0.13,0-0.15,0-0.14,0-0.16,0-0.15,0-0.16,0-0.16,0-0.16,0-0.16,0L122,21l-0.17,0-0.17,0h-1.51a21.67,21.67,0,0,0-3.32.29,18.14,18.14,0,0,0-14.34,11.17,11.24,11.24,0,0,0-4.36,11.1,14.53,14.53,0,0,0,.5,2,5.25,5.25,0,0,0,1.58,2.39h0a4.58,4.58,0,0,0-.32.54c-0.81,1.58-1.58,4.79.47,6.85a4.74,4.74,0,0,0,1.83,1.16h0q0,0.14,0,.29h0c0,0.29.09,0.59,0.15,0.89v0l0.06,0.28v0q0.08,0.31.18,0.62v0l0.09,0.26,0,0.06,0.1,0.27,0,0q0.12,0.31.28,0.61l0,0.07,0.13,0.24,0,0.07,0.15,0.26,0,0,0.19,0.3,0,0,0.18,0.26L104,61.17l0.17,0.22,0.06,0.07,0.23,0.27h0L104.71,62l0,0L105,62.3l0.07,0.06,0.24,0.21,0.06,0.05q0.32,0.26.68,0.51l0.06,0,0.32,0.2,0.08,0,0.35,0.2,0,0q0.42,0.22.88,0.43l0.06,0,0.42,0.17,0.07,0,0.77,0.26,0.83,0.23,0.06,0,0.53,0.12h0.06L111.2,65c-0.21,0,.28.2,0.28,0.2a17.93,17.93,0,0,0,4.11,2.38,25.29,25.29,0,0,0,6.56,1.92h0q0.82,0.13,1.61.21l0.19,0,2.69,5.34a24.08,24.08,0,0,0,5-.12c0.05-.1.45-0.77,0.93-1.68,0.68-1.3,1.51-3,1.8-3.58l0.16,0,1.14-.15h0a25.38,25.38,0,0,0,6.74-1.94,24.26,24.26,0,0,0,4.11-2.37l0.31-.21h0L147,65h0l0,0h0l0.61-.11h0.06l0.53-.12,0.06,0a14.07,14.07,0,0,0,1.6-.49l0.07,0,0.42-.17,0.06,0q0.46-.2.88-0.43l0,0,0.35-.2,0.08,0,0.32-.2,0.06,0q0.36-.24.68-0.51l0.06-.05,0.24-.21,0.07-.06,0.24-.23,0,0,0.27-.28h0l0.23-.27L154,61.4l0.17-.22,0.05-.07,0.18-.26,0,0,0.2-.3,0,0,0.15-.26,0-.07,0.13-.24,0-.07q0.15-.31.28-0.61l0,0,0.1-.27,0-.06,0.09-.26v0q0.1-.31.18-0.62v0l0.06-.28v0c0-.09,0-0.19.05-0.28v0l0-.24c0-.22.06-0.43,0.09-0.64h0V56.36l0.31-.13a4.76,4.76,0,0,0,1.27-.87l0.12-.11c2.05-2.07,1.29-5.27.47-6.85a4.76,4.76,0,0,0-.28-0.48h0l0.08-.06h0a5.2,5.2,0,0,0,1.54-2.29l0-.1,0-.16a14.47,14.47,0,0,0,.45-1.82l-0.15.16h0v0l0-.24,0-.12,0-.24,0-.11,0-.24V42.57l0-.24v-0.1c0-.08,0-0.16,0-0.24V41.92c0-.08,0-0.17,0-0.25V41.61c0-.09,0-0.18,0-0.27h0A11.17,11.17,0,0,0,160,39.87Z"/><polygon class="b" points="129 27.46 129 27.46 129 27.46 129 27.46"/><polygon class="b" points="129 27.46 129 27.46 129 27.46 129 27.46"/><path class="b" d="M127.62,23.88a5.78,5.78,0,0,1,1.16,2.64L129,27v0.46h0V27l-0.22-.49a5.78,5.78,0,0,0-1.16-2.64,6.57,6.57,0,0,0-1.75-1.58A6.57,6.57,0,0,1,127.62,23.88Z"/><path class="b" d="M155.52,32.38a8.71,8.71,0,0,1,1.11.94,8.74,8.74,0,0,0-1.11-.94,18.14,18.14,0,0,0-14.34-11.17l-0.5-.08,0.5,0.08A18.14,18.14,0,0,1,155.52,32.38Z"/><path class="b" d="M130.31,24h0Z"/><path class="b" d="M139.73,21l0.3,0Z"/><path class="b" d="M136,21l0.2,0Z"/><path class="b" d="M136.68,21l0.29,0Z"/><path class="b" d="M136.32,21l0.22,0Z"/><path class="b" d="M134.69,21.26l0.17,0Z"/><path class="b" d="M135.31,21.13l0.18,0Z"/><path class="b" d="M130.51,23.73l0,0Z"/><path class="b" d="M135,21.19l0.17,0Z"/><path class="b" d="M138.83,21l0.26,0Z"/><path class="b" d="M138.4,20.93h0Z"/><path class="b" d="M139.28,21l0.28,0Z"/><path class="b" d="M137.78,20.92h0Z"/><path class="b" d="M138,20.92h0Z"/><path class="b" d="M137,20.94h0Z"/><path class="b" d="M130.4,23.86v0Z"/><path class="b" d="M135.64,21.07l0.18,0Z"/><path class="b" d="M131.71,22.59l0.06,0Z"/><path class="b" d="M131.88,22.46l0.06,0Z"/><path class="b" d="M134.29,21.36l0.27-.07Z"/><path class="b" d="M131.38,22.84l0,0Z"/><path class="b" d="M131.24,23l0,0Z"/><path class="b" d="M132.59,22l0.08,0Z"/><path class="b" d="M131.54,22.71l0.06,0Z"/><path class="b" d="M132.07,22.34l0.06,0Z"/><path class="b" d="M133.49,21.63l0.12,0Z"/><path class="b" d="M133.75,21.53l0.13,0Z"/><path class="b" d="M132.79,21.93l0.1,0Z"/><path class="b" d="M134,21.44l0.15,0Z"/><path class="b" d="M133.25,21.72l0.11,0Z"/><path class="b" d="M133,21.83l0.1,0Z"/><path class="b" d="M122.95,21.18l0.16,0Z"/><path class="b" d="M140.2,21.08l0.36,0Z"/><path class="b" d="M122,21l0.16,0Z"/><path class="b" d="M120.94,20.94h0Z"/><path class="b" d="M122.32,21.07l0.16,0Z"/><path class="b" d="M122.64,21.12l0.16,0Z"/><path class="b" d="M121.66,21l0.17,0Z"/><path class="b" d="M120.57,20.93h0Z"/><path class="b" d="M120.23,20.92h0Z"/><path class="b" d="M121.31,21h0Z"/><path class="b" d="M125.47,22.07l0.18,0.1Z"/><path class="b" d="M125.26,22L125.43,22Z"/><path class="b" d="M125,21.85l0.17,0.08Z"/><path class="b" d="M130.62,23.59v0Z"/><path class="b" d="M125.67,22.18l0.19,0.12Z"/><path class="b" d="M124.81,21.75L125,21.82Z"/><path class="b" d="M124.07,21.47l0.15,0.05Z"/><path class="b" d="M123.81,21.39l0.15,0Z"/><path class="b" d="M123.53,21.31l0.15,0Z"/><path class="b" d="M123.24,21.24l0.15,0Z"/><path class="b" d="M124.58,21.65l0.16,0.06Z"/><path class="b" d="M124.33,21.56l0.15,0.06Z"/><path class="b" d="M159.69,38.46l0,0.06Z"/><path class="b" d="M159.54,38v0Z"/><path class="b" d="M160,39.84v0Z"/><path class="b" d="M159.62,38.2l0,0.05Z"/><path class="b" d="M159.88,39.27v0Z"/><path class="b" d="M159.82,39v0Z"/><path class="b" d="M159.76,38.72l0,0.06Z"/><path class="b" d="M158.78,36.17l0,0.05Z"/><path class="b" d="M159.46,37.73v0Z"/><path class="b" d="M158.66,36l0,0.06Z"/><path class="b" d="M159,36.6h0Z"/><path class="b" d="M158.89,36.38l0,0Z"/><path class="b" d="M158.54,35.76l0,0.06Z"/><path class="b" d="M159.93,39.55v0Z"/><path class="b" d="M157.12,33.83l0.08,0.09Z"/><path class="b" d="M157.24,34l0.08,0.1Z"/><path class="b" d="M157,33.69l0.09,0.09Z"/><path class="b" d="M157.37,34.11l0.08,0.1Z"/><path class="b" d="M156.63,33.32l0.11,0.11Z"/><path class="b" d="M156.75,33.44l0.1,0.1Z"/><path class="b" d="M156.87,33.57l0.09,0.1Z"/><path class="b" d="M158.43,35.56l0,0.07Z"/><path class="b" d="M158.18,35.18l0,0.07Z"/><path class="b" d="M158.06,35l0,0.07Z"/><path class="b" d="M158.3,35.37l0,0.07Z"/><path class="b" d="M157.94,34.83l0,0.07Z"/><path class="b" d="M157.62,34.41l0.12,0.15Z"/><path class="b" d="M157.49,34.26l0.08,0.1Z"/><path class="b" d="M157.81,34.66l0.05,0.07Z"/><polygon class="d" points="129 27.46 129 27.46 129 27.46 129 27.46"/><polygon class="c" points="129 27.46 129 27.46 129 27.64 129 27.46 129 27.46 129 27.46 129 27.46 129 27.46"/><path class="e" d="M153.06,49.54a4.45,4.45,0,0,1-.57-0.14h0c-2.63-.82-3.74-3.93-4.64-6.94-8,.16-12.18-2.93-14.61-5.44-3-3.08-4.25-8.75-4.24-9.55h0v0h0c0,1.27-1.24,7.13-3.87,9.55-3.16,2.9-6.61,5.62-14.61,5.44-1,3.22-2.17,6.55-5.21,7.08a28.89,28.89,0,0,0,1.87,10c1,3.19,9.07,10,22,9.71,12.94,0.28,21-6.52,22-9.71a42.17,42.17,0,0,0,1.46-5.35V54.13A26.14,26.14,0,0,0,153.06,49.54Z"/><path class="f" d="M160,39.87v0l0-.24V39.55l0-.22V39.27l0-.21V39l0-.21,0-.06-0.05-.2,0-.06-0.06-.2,0-.05-0.06-.2v0l-0.07-.21v0a10.91,10.91,0,0,0-.46-1.12h0l-0.09-.18,0,0-0.08-.16,0-.05L158.7,36l0-.06-0.08-.14,0-.06-0.08-.13,0-.07-0.08-.12,0-.07-0.08-.12,0-.07-0.08-.11,0-.07L158,34.9l0-.07-0.07-.1-0.05-.07-0.07-.1-0.12-.15,0-.05-0.08-.1,0-.05-0.08-.1,0,0-0.08-.1,0,0-0.08-.09,0,0L157,33.69l0,0-0.09-.1,0,0-0.1-.1h0l-0.11-.11h0a8.72,8.72,0,0,0-1.11-.94,18.14,18.14,0,0,0-14.34-11.17l-0.5-.08-0.12,0-0.36,0-0.16,0-0.3,0-0.18,0-0.28,0H139.1l-0.26,0H137l-0.29,0h-0.14l-0.22,0-0.15,0L136,21l-0.15,0-0.18,0-0.15,0-0.18,0-0.14,0-0.17,0-0.14,0-0.17,0-0.12,0-0.27.07-0.12,0-0.15,0-0.13,0-0.13,0-0.13,0-0.12,0-0.13.05-0.11,0-0.13.06-0.1,0-0.13.06-0.1,0-0.13.06-0.08,0-0.46.27-0.06,0-0.12.08-0.06,0-0.12.08-0.06,0-0.11.08-0.06,0-0.11.09,0,0-0.11.09,0,0a6.44,6.44,0,0,0-.61.61v0l-0.1.11,0,0-0.09.11v0l-0.09.12h0a5.75,5.75,0,0,0-1.08,2.53L129,27v0.46h0c0,1,6.77,13.55,17.8,13.4a14.7,14.7,0,0,0,2.23-.18l0.12,0c-0.69,2.3,1.84,7.4,3.33,7.8h0.08l0.05,0h0l0.07,0h0l0.08,0h0L153,48.63h0l0.26,0.06h0a7.6,7.6,0,0,0,.86.14h0l0.4,0h0.29a5.61,5.61,0,0,0,1.27-.14h0l0.45-.13h0l0.45-.18h0A4.21,4.21,0,0,0,157.7,48h0l0.13-.1,0.08-.06h0a5.2,5.2,0,0,0,1.54-2.29l0-.1,0-.16a14.47,14.47,0,0,0,.45-1.82l-0.15.16h0v0l0-.24,0-.12,0-.24,0-.11,0-.24V42.57l0-.24v-0.1c0-.08,0-0.16,0-0.24V41.92c0-.08,0-0.17,0-0.25V41.61c0-.09,0-0.18,0-0.27h0A11.17,11.17,0,0,0,160,39.87Z"/><path class="f" d="M105.75,58.62a16.18,16.18,0,0,1-.31-2.13,5.86,5.86,0,0,1-3.26-.09h0q0,0.14,0,.29h0c0,0.29.09,0.59,0.15,0.89v0l0.06,0.28v0q0.08,0.31.18,0.62v0l0.09,0.26,0,0.06,0.1,0.27,0,0q0.12,0.31.28,0.61l0,0.07,0.13,0.24,0,0.07,0.15,0.26,0,0,0.19,0.3,0,0,0.18,0.26L104,61.17l0.17,0.22,0.06,0.07,0.23,0.27h0L104.71,62l0,0L105,62.3l0.07,0.06,0.24,0.21,0.06,0.05q0.32,0.26.68,0.51l0.06,0,0.32,0.2,0.08,0,0.35,0.2,0,0q0.42,0.22.88,0.43l0.06,0,0.42,0.17,0.07,0,0.77,0.26,0.83,0.23,0.06,0,0.53,0.12h0.06L111.2,65C108,63,106.31,61.07,105.75,58.62Z"/><path class="f" d="M127.62,23.88a6.57,6.57,0,0,0-1.75-1.58h0l-0.19-.12h0l-0.18-.1,0,0L125.26,22l-0.05,0L125,21.85l-0.07,0-0.16-.07-0.08,0-0.16-.06-0.09,0-0.15-.06-0.1,0-0.15-.05-0.11,0-0.15,0-0.12,0-0.15,0-0.13,0-0.15,0-0.14,0-0.16,0-0.15,0-0.16,0-0.16,0-0.16,0-0.16,0L122,21l-0.17,0-0.17,0h-1.51a21.67,21.67,0,0,0-3.32.29,18.14,18.14,0,0,0-14.34,11.17,11.24,11.24,0,0,0-4.36,11.1,14.53,14.53,0,0,0,.5,2,5.25,5.25,0,0,0,1.58,2.39h0L100.41,48h0a4.21,4.21,0,0,0,.66.39h0l0.38,0.16,0.07,0h0L102,48.73h0a5.57,5.57,0,0,0,1.18.14h0.37l0.4,0h0l0.13,0c0.27,0,.52-0.08.73-0.12h0l0.26-.06h0l0.21-.06h0l0.06,0h0.25c0.65-.18,1.5-1.25,2.2-2.6,0.89-1.73,1.52-3.91,1.13-5.2,12.33,2.06,20-12.15,20-13.2h0V27l-0.22-.49A5.78,5.78,0,0,0,127.62,23.88Z"/><path class="f" d="M155.94,56.41h0a5.45,5.45,0,0,1-1.84.28h0a7.05,7.05,0,0,1-1.53-.19h0a16.19,16.19,0,0,1-.31,2.13c0,0.14-.07.27-0.1,0.4l0,0.15,0,0.12h0c-0.67,2.05-2.33,3.79-4.91,5.51h0L146.8,65h0L147,65h0l0,0h0l0.61-.11h0.06l0.53-.12,0.06,0a14.07,14.07,0,0,0,1.6-.49l0.07,0,0.42-.17,0.06,0q0.46-.2.88-0.43l0,0,0.35-.2,0.08,0,0.32-.2,0.06,0q0.36-.24.68-0.51l0.06-.05,0.24-.21,0.07-.06,0.24-.23,0,0,0.27-.28h0l0.23-.27L154,61.4l0.17-.22,0.05-.07,0.18-.26,0,0,0.2-.3,0,0,0.15-.26,0-.07,0.13-.24,0-.07q0.15-.31.28-0.61l0,0,0.1-.27,0-.06,0.09-.26v0q0.1-.31.18-0.62v0l0.06-.28v0c0-.09,0-0.19.05-0.28v0l0-.24c0-.22.06-0.43,0.09-0.64h0Z"/><path class="g" d="M100.22,47.87L100.41,48h0a4.21,4.21,0,0,0,.66.39h0l0.38,0.16,0.07,0h0L102,48.73h0a5.57,5.57,0,0,0,1.18.14h0.37l0.4,0h0l0.13,0c0.27,0,.52-0.08.73-0.12h0l0.26-.06h0l0.21-.06h0l0.06,0h0.25c0.65-.18,1.5-1.25,2.2-2.6,0.89-1.73,1.52-3.91,1.13-5.2,0,0-.28,5.89-4.22,6.09-2.68.15-4.93-1.4-6.63-3.26a14.53,14.53,0,0,0,.5,2,5.25,5.25,0,0,0,1.58,2.39h0Z"/><path class="g" d="M129,27l-0.22-.49a5.78,5.78,0,0,0-1.16-2.64,5.18,5.18,0,0,1-.69,4.34c-8.19,12.94-20.66,8.67-20.66,8.67l2.7,3.78c12.33,2.06,20-12.15,20-13.2h0V27Z"/><path class="g" d="M159.85,43.65h0c-1.68,1.79-3.88,3.25-6.48,3.1-3.93-.2-4.22-6.09-4.22-6.09l-0.12,0c-0.67,2.3,1.84,7.39,3.33,7.79h0.08l0.05,0h0l0.07,0h0l0.08,0h0l0.21,0.06h0l0.26,0.06h0a7.59,7.59,0,0,0,.86.14h0l0.4,0h0.4a5.61,5.61,0,0,0,1.27-.14h0l0.45-.13h0l0.45-.18h0A4.21,4.21,0,0,0,157.7,48h0l0.13-.1,0.08-.06h0a5.2,5.2,0,0,0,1.54-2.29l0-.1,0-.16a14.47,14.47,0,0,0,.45-1.82Z"/><path class="g" d="M149,40.68l0.12,0,2.7-3.78s-12.47,4.27-20.66-8.67a5.18,5.18,0,0,1-.69-4.34,5.78,5.78,0,0,0-1.16,2.64l-0.22.49v0.46c0,1,6.72,13.46,17.68,13.4A14.7,14.7,0,0,0,149,40.68Z"/><path class="e" d="M147.63,42.4c-8,.16-12.17-2.93-14.6-5.44-3-3.08-4.25-8.75-4.24-9.55v0c0,1.27-1.24,7.13-3.87,9.55-3.16,2.9-6.61,5.62-14.6,5.44-1,3.22-2.17,6.55-5.21,7.08a28.89,28.89,0,0,0,1.87,10c1,3.19,9.07,10,22,9.71,12.94,0.28,21-6.52,22-9.71a28.89,28.89,0,0,0,1.87-10C149.8,49,148.6,45.62,147.63,42.4Z"/><path class="e" d="M146.42,73.68l0-.14a6,6,0,0,0-.46-1.19v0h0c-0.05-.11-0.11-0.22-0.16-0.32l0-.06-0.18-.28,0-.06-0.21-.26,0,0L145,71.06l0,0-0.24-.22-0.06-.05-0.25-.19-0.07,0-0.26-.17-0.05,0-0.25-.14-0.05,0L143.48,70l-0.07,0-0.28-.12-0.06,0-0.29-.1h0l-0.29-.08h0a11.7,11.7,0,0,0-1.92-.15,6.29,6.29,0,0,0-.74,0l-4.1,0h0l-1.14.15-0.16,0c-0.24.47-1.5,2.9-2.73,5.26a27.16,27.16,0,0,1-5,.12L124,69.76l-0.19,0q-0.79-.08-1.61-0.21h-5.43c-0.22,0-.45.08-0.69,0.13a5.32,5.32,0,0,0-3.85,3.07,7,7,0,0,0-.36,1c-0.74,2.58-1.93,5.88-3,8.86H116c0.35-1.61.65-3,.83-3.9l0,3.9h23.84V78.8c0.16,0.75.55,2.2,1,3.75h7.77A83.81,83.81,0,0,1,146.42,73.68Z"/><path class="h" d="M146.42,73.68l0-.14a6,6,0,0,0-.46-1.19v0h0c-0.05-.11-0.11-0.22-0.16-0.32l0-.06-0.18-.28,0-.06-0.21-.26,0,0L145,71.06l0,0-0.24-.22-0.06-.05-0.25-.19-0.07,0-0.26-.17-0.05,0-0.25-.14-0.05,0L143.48,70l-0.07,0-0.28-.12-0.06,0-0.29-.1h0l-0.29-.08h0a4.4,4.4,0,0,0-1.52-.14c-0.08,0-.4,0-0.4,0a6.29,6.29,0,0,0-.74,0l-4.1,0h0l-1.14.15-0.16,0c-0.49,1-5.28,10.15-5.28,10.16h0l0,0L124,69.76l-0.19,0q-0.79-.08-1.61-0.21h-5.43c-0.22,0-.45.08-0.69,0.13a5.32,5.32,0,0,0-3.85,3.07,7,7,0,0,0-.36,1c-0.74,2.58-1.93,5.88-3,8.86H116c0.35-1.61.65-3,.83-3.9l0,3.9h23.84V78.8c0.16,0.75.55,2.2,1,3.75h7.77A83.84,83.84,0,0,1,146.42,73.68Z"/><path class="b" d="M129.41,79.32v0Z"/><polygon class="b" points="132.58 73.26 132.6 73.25 132.6 73.25 132.58 73.26 132.58 73.26"/><rect class="b" x="132.61" y="73.19"/><path class="b" d="M132.57,73.64h0c0,0.13,0,.27,0,0.41,0,0.37,0,.77,0,1.19,0-.42,0-0.83,0-1.19h0C132.57,73.92,132.57,73.78,132.57,73.64Z"/><path class="b" d="M130.78,76.88l1.42-2.57-0.36.65Z"/><path class="b" d="M130.06,78.18l0,0.06Z"/><path class="b" d="M130.2,77.93h0Z"/><path class="b" d="M125.74,73.26l0,0,0.17,0.34-0.17-.34Z"/><path class="b" d="M130.39,77.59l-0.06.11Z"/><path class="b" d="M130.55,77.29l-0.11.19Z"/><path class="b" d="M132.42,73.91h0Z"/><path class="b" d="M129.76,78.71h0Z"/><path class="b" d="M130.72,77l-0.06.11Z"/><path class="b" d="M129.9,78.45v0Z"/><path class="b" d="M128.8,79.35L127.61,77Z"/><path class="b" d="M129.09,79.88h0Z"/><path class="b" d="M129.24,79.63v0Z"/><path class="b" d="M129.12,79.83h0Z"/><path class="b" d="M129.64,78.93v0Z"/><path class="b" d="M129.17,79.74h0Z"/><path class="b" d="M125.74,73.26l0-.06h0Z"/><path class="b" d="M127.14,76l-0.26-.51-0.1-.2,0.1,0.2L127.14,76l0.37,0.74L127.6,77l-0.09-.18Z"/><path class="b" d="M125.93,73.64l0.52,1,0.1,0.2-0.1-.2Z"/><path class="b" d="M129,79.65l0.1,0.2,0,0,0,0Z"/><path class="b" d="M143.07,69.83l0.06,0Z"/><path class="b" d="M142.76,69.73h0Z"/><path class="b" d="M142.44,69.64h0Z"/><path class="b" d="M143.41,70l0.07,0Z"/><path class="b" d="M146.42,73.68l0-.14,0,0.14a83.83,83.83,0,0,0,3,8.87h0A83.82,83.82,0,0,1,146.42,73.68Z"/><path class="b" d="M145.91,72.33v0h0Z"/><path class="b" d="M116.73,69.91h0v1c0,1.66,0,4.6.05,7.73h0v0h0s0,1.63,0,3.92h0C116.78,77.39,116.74,71.47,116.73,69.91Z"/><path class="b" d="M145.48,71.59l0,0.06Z"/><path class="b" d="M145.71,71.94l0,0.06Z"/><path class="b" d="M111.83,73.69a7,7,0,0,1,.36-1A5.32,5.32,0,0,1,116,69.65h0a5.32,5.32,0,0,0-3.85,3.07,7,7,0,0,0-.36,1c-0.74,2.58-1.93,5.88-3,8.86h0C109.9,79.57,111.09,76.27,111.83,73.69Z"/><path class="b" d="M143.75,70.14l0.05,0Z"/><path class="b" d="M144.06,70.31l0.05,0Z"/><path class="b" d="M144.68,70.75l0.06,0.05Z"/><path class="b" d="M144.37,70.51l0.07,0Z"/><path class="b" d="M145.23,71.28l0,0Z"/><path class="b" d="M145,71l0,0Z"/><path class="b" d="M105.57,48.49h0Z"/><path class="b" d="M105.64,48.47h0c0.65-.18,1.5-1.25,2.2-2.6C107.14,47.21,106.29,48.29,105.64,48.47Z"/><path class="b" d="M146.82,65h0l-0.31.21a24.26,24.26,0,0,1-4.11,2.37,25.39,25.39,0,0,1-6.74,1.94h0a25.38,25.38,0,0,0,6.74-1.94,24.26,24.26,0,0,0,4.11-2.37l0.31-.21L147,65h0Z"/><path class="b" d="M105.45,48.53h0Z"/><path class="b" d="M155.39,58.86l0.09-.26v0q0.1-.31.18-0.62v0l0.06-.28v0c0.07-.31.12-0.61,0.15-0.89h0c0-.09,0-0.27,0-0.29,0,0.21,0,.42-0.09.64l0,0.24v0c0,0.09,0,.19-0.05.28v0l-0.06.28v0q-0.08.31-.18,0.62v0l-0.09.26,0,0.06-0.1.27,0,0q-0.12.31-.28,0.61l0,0.07-0.13.24,0,0.07-0.15.26,0,0-0.19.3,0,0-0.18.26-0.05.07L154,61.4l-0.06.07-0.23.27h0l-0.27.28,0,0-0.24.23-0.07.06-0.24.21-0.06.05q-0.32.26-.68,0.51l-0.06,0-0.32.2-0.08,0-0.35.2,0,0q-0.42.22-.88,0.43l-0.06,0-0.42.17-0.07,0a14.07,14.07,0,0,1-1.6.49l-0.06,0-0.53.12h-0.06l-0.61.11h0l0.62-.11h0.06l0.53-.12,0.06,0a14.07,14.07,0,0,0,1.6-.49l0.07,0,0.42-.17,0.06,0q0.46-.2.88-0.43l0,0,0.35-.2,0.08,0,0.32-.2,0.06,0q0.36-.24.68-0.51l0.06-.05,0.24-.21,0.07-.06,0.24-.23,0,0,0.27-.28h0l0.23-.27L154,61.4l0.17-.22,0.05-.07,0.18-.26,0,0,0.19-.3,0,0,0.15-.26,0-.07,0.13-.24,0-.07q0.15-.31.28-0.61l0,0,0.1-.27Z"/><path class="b" d="M152.67,54.13v0.06a24.78,24.78,0,0,1-.41,4.44c0,0.14-.07.27-0.1,0.4l0,0.15,0,0.12h0l0-.12,0-.15c0-.13.07-0.27,0.1-0.4a16.19,16.19,0,0,0,.31-2.13h0C152.62,55.74,152.66,54.93,152.67,54.13Z"/><path class="b" d="M105.33,48.57h0l0.06,0-0.06,0h0Z"/><path class="b" d="M102,48.73l-0.45-.13h0L102,48.73h0a5.57,5.57,0,0,0,1.18.14,5.57,5.57,0,0,1-1.18-.14h0Z"/><path class="b" d="M104.84,48.7h0c-0.21,0-.46.09-0.73,0.12,0.27,0,.52-0.08.73-0.12h0l0.26-.06h0Z"/><path class="b" d="M101.08,48.42a4.21,4.21,0,0,1-.66-0.39h0l-0.19-.15L100.41,48h0a4.22,4.22,0,0,0,.66.39h0l0.38,0.16-0.38-.16h0Z"/><path class="b" d="M147.15,64.81c2.57-1.73,4.23-3.46,4.91-5.51C151.17,61.88,148.65,63.78,147.15,64.81Z"/><path class="b" d="M152.43,48.85c0,0.17,0,.35.07,0.55h0C152.47,49.2,152.45,49,152.43,48.85Z"/><polygon class="b" points="155.94 56.41 155.94 56.41 155.94 56.41 155.94 56.41"/><path class="b" d="M154.09,56.69h0a5.45,5.45,0,0,0,1.84-.28h0l0.32-.18-0.44.18A5.2,5.2,0,0,1,154.09,56.69Z"/><path class="b" d="M159.92,43.26l0,0.12Z"/><path class="b" d="M157.92,47.86l-0.08.06a4.77,4.77,0,0,1,.28.48c0.81,1.58,1.58,4.79-.47,6.85l-0.12.11,0.12-.11c2.05-2.07,1.29-5.27.47-6.85a1.84,1.84,0,0,1-.2-0.54h0Z"/><path class="b" d="M160,42.91L160,43Z"/><path class="b" d="M159.85,43.65v0h0Z"/><path class="b" d="M159.46,45.57l0-.1,0-.16,0,0.16Z"/><path class="b" d="M160,42.57v0Z"/><path class="b" d="M160.06,41.92v0Z"/><path class="b" d="M160.07,41.61v0Z"/><path class="b" d="M160,42.24v0Z"/><path class="e" d="M109.09,64.55l-0.77-.26Z"/><path class="e" d="M102.37,57.6c-0.07-.31-0.12-0.61-0.15-0.89C102.26,57,102.3,57.29,102.37,57.6Z"/><path class="e" d="M129.27,63.05c4.64,0,8.72-3.38,8.76-3.41a0.6,0.6,0,0,1,.77.92c-0.18.15-4.46,3.69-9.53,3.69a14,14,0,0,1-7.9-2.62c-0.19-.13-0.41-0.27-0.51-0.32a0.6,0.6,0,0,1,0-1.19,1.74,1.74,0,0,1,1.19.5A12.92,12.92,0,0,0,129.27,63.05Z"/><circle class="e" cx="117.93" cy="51.82" r="3.82"/><circle class="e" cx="140.74" cy="52.28" r="3.82"/><circle class="i" cx="140.74" cy="52.28" r="3.82"/><path class="i" d="M120.83,60.13a0.6,0.6,0,0,0,0,1.19c0.1,0.05.32,0.19,0.51,0.32a14,14,0,0,0,7.9,2.62c5.08,0,9.36-3.54,9.53-3.69a0.6,0.6,0,0,0-.77-0.92s-4.12,3.41-8.76,3.41A12.92,12.92,0,0,1,122,60.63,1.74,1.74,0,0,0,120.83,60.13Z"/><path class="h" d="M140.92,69.5h-0.24v0Z"/><path class="i" d="M118,48a3.77,3.77,0,1,0,3.77,3.77A3.77,3.77,0,0,0,118,48Z"/><path class="j" d="M140.65,78.8c0-.05,0-3.48,0-4.9V69.49a6.48,6.48,0,0,0-.87,0l-4.1,0h0l-1.14.15,1.13,2.54-3.07,1h0l0,0.05c0,0.23,0,.49,0,0.76h0c0,0.37,0,.77,0,1.19,0,2,0,4.73,0,7.3h8.09V78.8Z"/><path class="k" d="M125.71,73.19h0L124,69.76l-0.19,0-1.12,2.51,3.09,1h0Z"/><path class="k" d="M132.6,73.25l3.07-1-1.13-2.54-0.16,0Z"/><path class="j" d="M125.74,73.26l-3.09-1,1.12-2.51q-0.79-.08-1.61-0.21h-5.43l0.09,13h9C125.77,79,125.74,75.27,125.74,73.26Z"/><path class="k" d="M116.78,78.65h0c0-3.12-.06-9.13-0.06-9.13-0.22,0-.45.08-0.69,0.13a5.32,5.32,0,0,0-3.85,3.07,3.57,3.57,0,0,1,3.32.22c1.18,0.93.76,5.66,0.17,9.61H116C116.31,80.93,116.61,79.51,116.78,78.65Z"/><path class="k" d="M141.9,72.94a5.18,5.18,0,0,1,4-.62h0c-0.05-.11-0.11-0.22-0.16-0.32l0-.06-0.18-.28,0-.06-0.21-.26,0,0L145,71.06l0,0-0.24-.22-0.06-.05-0.25-.19-0.07,0-0.26-.17-0.05,0-0.25-.14-0.05,0L143.48,70l-0.07,0-0.28-.12-0.06,0-0.29-.1h0l-0.29-.08h0a4.76,4.76,0,0,0-1.27-.16,4.43,4.43,0,0,0-.52,0s0,3.23,0,4.42c0,1.41,0,4.84,0,4.9,0.16,0.75.55,2.2,1,3.75H142C141.28,78.6,140.72,73.88,141.9,72.94Z"/><path class="g" d="M111.2,65c-3.17-2-4.89-4-5.45-6.41a16.18,16.18,0,0,1-.31-2.13,5.86,5.86,0,0,1-3.26-.09h0q0,0.14,0,.29h0c0,0.29.09,0.59,0.15,0.89v0l0.06,0.28v0q0.08,0.31.18,0.62v0l0.09,0.26,0,0.06,0.1,0.27,0,0q0.12,0.31.28,0.61l0,0.07,0.13,0.24,0,0.07,0.15,0.26,0,0,0.19,0.3,0,0,0.18,0.26L104,61.17l0.17,0.22,0.06,0.07,0.23,0.27h0L104.71,62l0,0L105,62.3l0.07,0.06,0.24,0.21,0.06,0.05q0.32,0.26.68,0.51l0.06,0,0.32,0.2,0.08,0,0.35,0.2,0,0q0.42,0.22.88,0.43l0.06,0,0.42,0.17,0.07,0,0.77,0.26,0.83,0.23,0.06,0,0.53,0.12h0.06Z"/><path class="g" d="M147.6,64.91l0.53-.12,0.06,0a14.07,14.07,0,0,0,1.6-.49l0.07,0,0.42-.17,0.06,0q0.46-.2.88-0.43l0,0,0.35-.2,0.08,0,0.32-.2,0.06,0q0.36-.24.68-0.51l0.06-.05,0.24-.21,0.07-.06,0.24-.23,0,0,0.27-.28h0l0.23-.27L154,61.4l0.17-.22,0.05-.07,0.18-.26,0,0,0.19-.3,0,0,0.15-.26,0-.07,0.13-.24,0-.07q0.15-.31.28-0.61l0,0,0.1-.27,0-.06,0.09-.26v0q0.1-.31.18-0.62v0l0.06-.28v0c0-.09,0-0.19.05-0.28v0l0-.24c0-.22.06-0.43,0.09-0.64h0a5.45,5.45,0,0,1-1.84.28h0a7.05,7.05,0,0,1-1.53-.19h0a16.19,16.19,0,0,1-.31,2.13c0,0.14-.07.27-0.1,0.4l0,0.15,0,0.12h0c-0.67,2.05-2.33,3.79-4.91,5.51h0L146.8,65h0L147,65h0l0,0h0l0.61-.11h0.06Z"/><path class="d" d="M60.43,147.31c-0.22-.72-0.41-1.42-0.58-2.07a5.25,5.25,0,0,0-1.8-2.94,18.21,18.21,0,0,1-3.26,1.27l-0.73.21a34.19,34.19,0,0,1-7.53.72,32.33,32.33,0,0,1-7.46-.74l-0.46-.12a12.23,12.23,0,0,1-2.89-1.13,5.85,5.85,0,0,0-1.61,2.73c-0.18.62-.38,1.28-0.61,2-0.35,1.08-.74,2.23-1.16,3.39-0.29.82-.59,1.64-0.9,2.47,10.32,0,20.63-.07,30.95,0-0.32-.85-0.63-1.7-0.92-2.54C61.1,149.42,60.74,148.34,60.43,147.31Z"/><path class="l" d="M61.48,150.5c-0.38-1.09-.74-2.17-1.05-3.19-0.22-.72-0.41-1.42-0.58-2.07a5.25,5.25,0,0,0-1.8-2.94h0a6.65,6.65,0,0,0-4-1.29v0.06H54v-1.73H39.06v1.73h0a5.52,5.52,0,0,0-4.93,4.19c-0.18.62-.38,1.28-0.61,2-0.35,1.08-.74,2.23-1.16,3.39,1.16,0.11,2.81.24,5,.35l-0.19,2.1h1.33c0.16-.76.31-1.46,0.43-2,2.19,0.08,4.84.13,8,.13,2.73,0,5.18-.06,7.34-0.16,0.11,0.45.28,1.16,0.5,2h1.49l-0.22-2.11C58.22,150.8,60,150.65,61.48,150.5Z"/><path class="c" d="M65.26,136.3c1.51-1,4.06-2.95,5-5.56l0-.12,0-.15c0-.13.07-0.27,0.11-0.41a37.06,37.06,0,0,0,.18-9.86h0l0-.17v0l0-.17c-1.51-.41-4.05-5.56-3.36-7.87C54.71,114,46.94,99.66,46.94,98.62c0-.13,0-0.13,0,0,0,1-7.77,15.4-20.21,13.32,0.69,2.32-1.85,7.47-3.36,7.87a38.26,38.26,0,0,0-.19,8.1,16.32,16.32,0,0,0,.31,2.15c0.56,2.47,2.3,4.45,5.5,6.47l-0.62-.11L29,136.54l0.24,0.17v0a18.09,18.09,0,0,0,4.15,2.4A25.52,25.52,0,0,0,40,141.06q0.83,0.13,1.63.21l0.21,0c1.28,0.13,2.5.18,3.64,0.2h2.86c1.24,0,2.58-.08,4-0.23l0.18,0,1.15-.15a25.61,25.61,0,0,0,6.8-2,24.48,24.48,0,0,0,4.14-2.39l0.31-.21h0Z"/><path class="e" d="M46.75,140.95c13.53,0,19.51-5.24,20.15-8s-0.09-8.13-.09-14.09c-15.21.53-19.93-16-19.93-16h0s-4.71,16.49-19.93,16c0,6-.73,11.3-0.09,14.09s6.61,8,20.15,8H46.75Z"/><path d="M47.21,135.83a14.22,14.22,0,0,1-8-2.66l-0.5-.31a0.7,0.7,0,0,1,0-1.37A1.85,1.85,0,0,1,40,132a13,13,0,0,0,7.26,2.43c4.64,0,8.74-3.39,8.79-3.42a0.7,0.7,0,0,1,.89,1.07C56.71,132.24,52.36,135.83,47.21,135.83Zm-8.55-3h0Z"/><path class="i" d="M63.74,121.77L62.11,121l-1.24-.59a3.86,3.86,0,1,0,1.19,1.21Z"/><path class="i" d="M35.77,119.34a3.84,3.84,0,0,0-2.53.95l-1.49.71-1.63.77,1.8-.17,0.36,0A3.86,3.86,0,1,0,35.77,119.34Z"/><path class="f" d="M80.59,111.88v-0.45a6.08,6.08,0,0,0-6.06-6.06,6,6,0,0,0-2.8.69c-1.18-4.37-4.45-12.44-12.63-13.75A21.86,21.86,0,0,0,55.75,92C50,92,48,94.85,47.35,96.51A4.84,4.84,0,0,0,47,97.66l-0.23.49-0.23-.49a4.84,4.84,0,0,0-.32-1.15C45.62,94.85,43.65,92,37.87,92a21.86,21.86,0,0,0-3.35.29c-8.18,1.31-11.45,9.38-12.63,13.75a6,6,0,0,0-2.8-.69A6.08,6.08,0,0,0,13,111.43v0.45a4.37,4.37,0,0,0-1.5,3.29V129a4.37,4.37,0,0,0,1.5,3.29h0A6.06,6.06,0,0,0,24.38,135l0.21,0.12,0,0q0.42,0.23.89,0.43l0.06,0L26,135.74l0.07,0a14.21,14.21,0,0,0,1.61.49l0.07,0,0.54,0.12h0.06L29,136.53A15.59,15.59,0,0,1,25,133.21a6,6,0,0,0,.12-1.19V117.65c11.68,0.36,21.65-14,21.65-15,0,1,10,15.38,21.65,15V132a6,6,0,0,0,.17,1.44,15.56,15.56,0,0,1-3.38,2.84l-0.35.23h0a13.73,13.73,0,0,0,4.38-1.43,6.05,6.05,0,0,0,11.27-2.82,4.37,4.37,0,0,0,1.5-3.29V115.16A4.37,4.37,0,0,0,80.59,111.88Z"/><path class="g" d="M13,132V111.88h0a4.37,4.37,0,0,0-1.5,3.29V129a4.37,4.37,0,0,0,1.5,3.29h0C13,132.19,13,132.1,13,132Z"/><path class="g" d="M80.59,111.88V132c0,0.08,0,.17,0,0.25a4.37,4.37,0,0,0,1.5-3.29V115.16A4.37,4.37,0,0,0,80.59,111.88Z"/><path class="g" d="M72.56,137.22a7.23,7.23,0,0,1-3.11-4.79v-0.08h0c0-.23,0-0.92,0-1.92,0-1.33,0-3.21.06-5.28,0-.69,0-1.4,0-2.13q0-.43,0-0.87t0-.87c0-.58,0-1.16,0-1.74q0-.43,0-0.85c0-.56,0-1.12,0-1.65s0-.79,0-1.17,0-.5,0-0.74,0-.24,0-0.36c0-1.17,0-2.16-.08-2.87q0-.18,0-0.36h0a10.24,10.24,0,0,1,1.6-5h0a6.09,6.09,0,0,0-2.48,3.89,6,6,0,0,0-.1,1.06v1.21a27.78,27.78,0,0,1-3-.18l-0.72-.09q-0.76-.11-1.47-0.25l-0.22,0-0.81-.19a22.29,22.29,0,0,1-6.31-2.64L55.56,109q-0.54-.35-1-0.71c-0.44-.32-0.86-0.65-1.25-1l-0.71-.63-0.39-.37-0.5-.49-0.24-.25L51,105.08q-0.32-.36-0.61-0.71L50,103.91l-0.26-.35L49.37,103l-0.27-.39-0.2-.3L48.64,102l-0.13-.21c-0.17-.28-0.3-0.51-0.39-0.68L48.07,101a11.41,11.41,0,0,1-.71-4.44A4.84,4.84,0,0,0,47,97.66l-0.23.49-0.23-.49a4.84,4.84,0,0,0-.32-1.15,18.37,18.37,0,0,1-.21,2.73l0,0.1q0,0.23-.09.45l0,0.13q0,0.2-.11.38l-0.05.16a3.8,3.8,0,0,1-.26.59,22.55,22.55,0,0,1-6.68,7.43l-0.21.15a21.86,21.86,0,0,1-3.08,1.77l-0.47.21a24.54,24.54,0,0,1-9.9,2h0v-1.21a6,6,0,0,0-.47-2.31,6.12,6.12,0,0,0-2.12-2.64h0a13.39,13.39,0,0,1,1,2.1l0.09,0.24a8.82,8.82,0,0,1,.46,2,6.9,6.9,0,0,1,0,1.09c-0.22,4.07,0,17.16,0,20h0v0.55a7.1,7.1,0,0,1-5.07,5.65h0A6.07,6.07,0,0,0,24.38,135l0.21,0.12,0,0q0.42,0.23.89,0.43l0.06,0L26,135.74l0.07,0a14.21,14.21,0,0,0,1.61.49l0.07,0,0.54,0.12h0.06L29,136.53A15.59,15.59,0,0,1,25,133.21a6,6,0,0,0,.12-1.19V117.65c11.68,0.36,21.65-14,21.65-15,0,1,10,15.38,21.65,15V132a6,6,0,0,0,.17,1.44,15.56,15.56,0,0,1-3.38,2.84l-0.35.23h0a13.73,13.73,0,0,0,4.38-1.43,6.07,6.07,0,0,0,5.22,3,7.45,7.45,0,0,1-1-.36,6.88,6.88,0,0,1-.63-0.32Z"/><path class="c" d="M158.66,168.24s-8.5-.32-14.78,1.21l2.18,3.55,3.86,3.41,0.16,0.16,6.49-4.14h0l3.36-3.56A13.34,13.34,0,0,0,158.66,168.24Z"/><path class="e" d="M146.06,173l3.86,3.41,0.16,0.16,6.49-4.14A22.39,22.39,0,0,1,146.06,173Z"/><path class="m" d="M164.32,169.68l0,0a13.52,13.52,0,0,0-4.53-3.61l-4.1,2-3.53,5.15h0L150,176.33l-0.47-.55-1.79-2.61L142.06,165a13.44,13.44,0,0,0-10.62,13.09v4.28h35.86v-4.28A13.3,13.3,0,0,0,164.32,169.68Z"/><path class="n" d="M159.76,166.08l-4.1,2-3.57,5.21c6.31-.27,10.11-2.06,12.23-3.54A13.52,13.52,0,0,0,159.76,166.08Z"/><path class="n" d="M142.06,165a13.42,13.42,0,0,0-7.33,4.33c2,1.55,5.73,3.47,13,3.89Z"/><polygon class="n" points="149.92 176.4 149.5 175.78 142.22 182.33 145.85 182.33 149.92 176.4"/><polygon class="n" points="138.56 182.33 136.21 182.33 138.56 175.11 138.56 182.33"/><polygon class="n" points="160.7 182.33 163.18 182.33 160.7 175.11 160.7 182.33"/><path class="c" d="M171.6,156a1.87,1.87,0,0,0,1.23.66c1.9,0.39,4-2,4.66-5.3s-0.32-6.31-2.22-6.7a2.24,2.24,0,0,0-1.3.14,24.62,24.62,0,0,0-49.22,0,2.18,2.18,0,0,0-1.26-.14c-1.87.38-2.84,3.37-2.16,6.69s2.74,5.69,4.61,5.31a1.82,1.82,0,0,0,1.19-.64,24.67,24.67,0,0,0,16.76,13.43c9.3,2.17,14.78-1.21,14.78-1.21A24.71,24.71,0,0,0,171.6,156Z"/><path class="e" d="M153,126.25s1.58,12.84-7.19,19.07a15.21,15.21,0,0,1,0-2.47l-5.18,2.22-0.82-4.5s-3.62,3.31-6.33,3.53c-0.85-2.36-.68-1.3-0.68-1.3s0.91,3.21-7.93,7.59c0.31,3.12,1.18,4,1.18,4s0.73-.64,3,3.65,10.31,11.16,20.24,11.16,17.42-6,21.52-13.38a30.28,30.28,0,0,0,1.74-7.73s-5.5-3.5-6.91-7.46a6.44,6.44,0,0,0,.42,2.77s-3-.08-5.93-3.9a5.24,5.24,0,0,0,.56,2.48C159.64,142.32,153.06,139.18,153,126.25Z"/><circle class="i" cx="138.11" cy="151.38" r="3.78"/><circle class="i" cx="160.63" cy="151.83" r="3.78"/><path d="M149.31,163.57a13.76,13.76,0,0,1-7.75-2.57c-0.2-.13-0.43-0.28-0.53-0.33a0.5,0.5,0,0,1,0-1,1.68,1.68,0,0,1,1.11.48,12.84,12.84,0,0,0,7.2,2.41c4.61,0,8.67-3.35,8.71-3.39a0.5,0.5,0,0,1,.65.77C158.49,160.09,154.28,163.57,149.31,163.57Z"/><path class="o" d="M120.32,139.12s-2.56-4.87.84-11.41a17.63,17.63,0,0,0-1.87,14.1l0-.14Z"/><path class="p" d="M159.72,135.88v0Z"/><path class="p" d="M152.82,124.49c0-1.08-.1-2.22-0.21-3.41Q152.68,122.89,152.82,124.49Z"/><path class="p" d="M152.61,121.07c-0.64-.83-16.75-8.28-27,1.16a23.73,23.73,0,0,0-4.47,5.48c-3.4,6.54-.84,11.41-0.84,11.41l-1,2.55,0,0.14,0,0.12-2.48,8.29-0.08.26s15.11-.48,17.4-12.69a13.51,13.51,0,0,0,0,4.73s4.66-.39,6.82-2.56c0.2,1.38.59,5.09,0.59,5.09s11.76-1.78,11.24-20.56q-0.14-1.6-.21-3.41h0Z"/><path class="p" d="M180.27,146.12c-1.78-3.58-1.66-5-1.66-5s1.18-8.13-4.26-14.61a18.43,18.43,0,0,0-4.6-3.91,20.37,20.37,0,0,0-17-1.6l-0.13.05c0.12,1.2.18,2.33,0.21,3.41,1.42,15.88,8,16.26,8,16.26l-0.07-.3-1-4.56s0-.41,0-0.41v0l0,0.38a11.55,11.55,0,0,0,1.31,3.18,6.5,6.5,0,0,0,4.39,3.26l0-.28a20.11,20.11,0,0,1,0-4.84s2.6,11,14.12,11.92a20.18,20.18,0,0,0,2.43,0C181.26,148,180.71,147,180.27,146.12Z"/><path class="o" d="M165.37,142c-0.46-.24-4.68-2.68-4.89-9.36a6.79,6.79,0,0,0-.79,2.82h0l0,0.38a11.55,11.55,0,0,0,1.31,3.18,6.5,6.5,0,0,0,4.39,3.26Z"/><path class="o" d="M177.71,139.74c0,1.09.94,3.47,2.56,6.38-1.78-3.58-1.66-5-1.66-5s1.18-8.13-4.26-14.61A22.51,22.51,0,0,1,177.71,139.74Z"/><path class="o" d="M166,135.19a2.32,2.32,0,0,0-.54,1.76v0.26s2.6,11,14.12,11.92l0-.26S169.6,147.78,166,135.19Z"/><path class="o" d="M152.74,121l-0.13.05c0.12,1.2.18,2.33,0.21,3.41,1.42,15.88,8,16.26,8,16.26l-0.07-.3C160,140,153.82,135.32,152.74,121Z"/><path class="p" d="M135.36,133.08s-1.46,5.64-1.19,9.18a8.9,8.9,0,0,0,6.6-5.48s0.22,2.92.57,5.75c10.5-2.36,11.22-19.2,11.27-21.46-0.64-.83-16.75-8.28-27,1.16a23.73,23.73,0,0,0-4.47,5.48c-3.4,6.54-.84,11.41-0.84,11.41l-1,2.55,0,0.14,0,0.12-2.48,8.29C130.6,149.53,135.36,133.08,135.36,133.08Z"/><path class="o" d="M152.61,121.07c0,2.26-.77,19.11-11.27,21.46-0.34-2.83-.57-5.75-0.57-5.75a8.9,8.9,0,0,1-6.6,5.48c-0.27-3.55,1.19-9.18,1.19-9.18s-4.75,16.46-18.52,17.14l-0.08.26s15.11-.48,17.4-12.69a13.51,13.51,0,0,0,0,4.73s4.66-.39,6.82-2.56c0.2,1.38.59,5.09,0.59,5.09s11.76-1.78,11.24-20.56q-0.14-1.6-.21-3.41h0Z"/></svg>