<svg xmlns="http://www.w3.org/2000/svg" viewBox="0 0 177.96 205.49"><defs><style>.a{fill:#dedede;}.b{fill:#fff;}.c{fill:#27a392;}.d{fill:#505050;}</style></defs><title>All-icons</title><path class="a" d="M89,1.15l88,50.79V153.54L89,204.33,1,153.54V51.95L89,1.15M89,0L0,51.37V154.11l89,51.37,89-51.37V51.37L89,0h0Z"/><ellipse class="b" cx="64.79" cy="104.65" rx="26.18" ry="31.66"/><path class="c" d="M98.83,158.18c-1.38-.22-2.66-0.41-3.93-0.64-1.43-.25-2.84-0.56-4.27-0.81L80.72,155c-2.64-.47-5.27-1-7.91-1.44-2.36-.43-4.71-0.88-7.07-1.29-3.13-.55-6.26-1.06-9.39-1.61-2.74-.48-5.47-1-8.2-1.5s-5.53-1-8.29-1.46c-1.8-.32-3.6-0.63-5.39-1a0.69,0.69,0,0,1-.39-0.43,2.18,2.18,0,0,1,0-.67q0-43,0-86a0.85,0.85,0,0,1,.83-1q5.26-.89,10.51-1.84c2-.37,4.08-0.78,6.12-1.15s4-.65,6.06-1c2.49-.44,5-0.91,7.45-1.36,3.48-.62,7-1.22,10.44-1.84,2.09-.38,4.18-0.8,6.27-1.19,1.89-.35,3.79-0.65,5.69-1l8-1.43,2.73-.49c0.44-.08.69,0,0.64,0.54a3.72,3.72,0,0,0,0,.38q0,54.59,0,109.18v0.76ZM73.62,90.36a10.26,10.26,0,0,0,.16-1.17c0-2.61,0-5.22,0-7.83a1.12,1.12,0,0,0-.9-1.24,19.81,19.81,0,0,0-10.54-.54,11.93,11.93,0,0,0-6.9,4.12,13.88,13.88,0,0,0-3.06,7.45,14.13,14.13,0,0,0,5.7,13.64c1.77,1.39,3.72,2.53,5.54,3.86a6.5,6.5,0,0,1,2.75,3.91,4.18,4.18,0,0,1-2.71,5.18,7.68,7.68,0,0,1-4.09,0,12.3,12.3,0,0,1-6.44-3.91,4.4,4.4,0,0,0-.7-0.49c0,2.52,0,4.87,0,7.23,0,2.85,0,2.85,2.52,4.14,0.11,0.06.23,0.1,0.35,0.14a18.91,18.91,0,0,0,9.33,1.32,11,11,0,0,0,9-5.61c2.74-4.84,3.2-13.71-3.73-18.9-1.74-1.3-3.59-2.46-5.39-3.68s-3.7-2.57-4-5.15,1-4.87,3.76-5.16a17.17,17.17,0,0,1,3.95.09A10.84,10.84,0,0,1,73.62,90.36Z"/><path class="d" d="M105.42,73.41c0-2.28,0-4.57,0-6.85A1.6,1.6,0,0,1,106,65.2a10.42,10.42,0,0,1,17,5.44,19.93,19.93,0,0,1,.28,4.32,0.84,0.84,0,0,0,.54.93,27.81,27.81,0,0,1,10.87,8.31A25.56,25.56,0,0,1,139,91.44a0.88,0.88,0,0,0,1.12.61,10,10,0,0,1,9,3.32,10.61,10.61,0,0,1,2.75,8.68,10.35,10.35,0,0,1-5.34,8.24,9.59,9.59,0,0,1-6.07,1.27c-1-.12-1.18-0.14-1.62.91a28.22,28.22,0,0,1-10.68,12.89,37,37,0,0,1-4.38,2.29,0.71,0.71,0,0,0-.4.91,11.2,11.2,0,0,1-1.66,7.63A10.45,10.45,0,0,1,106,140.32a1.79,1.79,0,0,1-.61-1.45c0-4.57,0-9.14,0-13.71,0-1.1.81-1.46,1.45-1.93a10.25,10.25,0,0,1,13.35,1,1.08,1.08,0,0,0,1.42.28,23.59,23.59,0,0,0,12.44-13,1.07,1.07,0,0,0-.37-1.25,10.74,10.74,0,0,1-2-11.57,16.39,16.39,0,0,1,2.16-3.4,1.17,1.17,0,0,0,.18-1.29,23,23,0,0,0-7.75-10.15,39.79,39.79,0,0,0-5-2.86,1,1,0,0,0-.88.24,10,10,0,0,1-5,2.83,10.14,10.14,0,0,1-9.66-2.57,1.52,1.52,0,0,1-.33-1C105.4,78.08,105.42,75.75,105.42,73.41Z"/></svg>