<svg xmlns="http://www.w3.org/2000/svg" viewBox="0 0 177.96 205.49"><defs><style>.a{fill:#dedede;}.b{fill:#27a392;}.c{fill:#505050;}.d{fill:#fff;}</style></defs><title>All-icons</title><path class="a" d="M89,1.15l88,50.79V153.54L89,204.33,1,153.54V51.95L89,1.15M89,0L0,51.37V154.11l89,51.37,89-51.37V51.37L89,0h0Z"/><path class="b" d="M82.5,49a24.41,24.41,0,0,1,8.74,1.46,16,16,0,0,1,10,11.11,18.6,18.6,0,0,1,.73,5.11c0,2.8.08,5.61,0.11,8.41a0.29,0.29,0,0,0,.32.36,1.37,1.37,0,0,1,1.16.82,5.6,5.6,0,0,1,.48,2.2c0.4,5.46-1.76,9.94-5.34,13.88a1.25,1.25,0,0,0-.26.48,20.9,20.9,0,0,1-5.39,9.35,16,16,0,0,1-8.13,4.43,12.8,12.8,0,0,1-7.75-.89,17.75,17.75,0,0,1-8.39-7.55,21.56,21.56,0,0,1-2.28-5.39,1.07,1.07,0,0,0-.25-0.42,19.54,19.54,0,0,1-5.2-10.08,13.45,13.45,0,0,1,.1-5.3,3.29,3.29,0,0,1,.49-1,1.14,1.14,0,0,1,.95-0.49,0.25,0.25,0,0,0,.28-0.3c0-3,0-6,.14-9,0.32-6,2.61-10.89,7.77-14.2a18.16,18.16,0,0,1,6.72-2.48A29.11,29.11,0,0,1,82.5,49Z"/><path class="b" d="M66.75,105l0.35,1.7a106.51,106.51,0,0,0,4.29,15.85,62.17,62.17,0,0,0,9.67,17,6.24,6.24,0,0,0,.82.86,0.82,0.82,0,0,0,1.21,0,7,7,0,0,0,.88-0.93,62.45,62.45,0,0,0,10.9-20.64c1.21-3.94,2.14-8,3-12L98.24,105l0.63,0.31c3,1.48,6.07,2.68,9.14,3.93a64.25,64.25,0,0,1,8.16,3.83l1.12,0.68a24.46,24.46,0,0,0-17,31.34c-0.34,0-.67.09-1,0.11-2.46.19-4.91,0.39-7.37,0.55Q86,146.14,80.09,146c-2.85-.06-5.71-0.17-8.55-0.36s-5.65-.44-8.46-0.75c-3.62-.41-7.24-0.86-10.84-1.39s-7-1.11-10.43-1.72a11.22,11.22,0,0,1-3.46-1.17,3.65,3.65,0,0,1-2-2.36,7.53,7.53,0,0,1-.14-1.48,27.25,27.25,0,0,1,4.42-15.56,25.48,25.48,0,0,1,3.64-4.75,24.62,24.62,0,0,1,5.57-4,85.17,85.17,0,0,1,8.7-3.89c2.74-1.11,5.49-2.22,8.13-3.57Z"/><path class="c" d="M124.66,160.66A22.4,22.4,0,1,1,147,138.34,22.39,22.39,0,0,1,124.66,160.66Z"/><path class="b" d="M111,87.49c-0.06.8-.09,1.58-0.19,2.35-0.17,1.38-.37,2.75-0.57,4.13a0.39,0.39,0,0,0,.2.48,5,5,0,1,1-3.86-.57,0.43,0.43,0,0,0,.36-0.39,39,39,0,0,0,.72-7.23c0-6.76,0-13.53,0-20.29a16.34,16.34,0,0,0-1.3-6,22.3,22.3,0,0,0-9.21-10.76,26.19,26.19,0,0,0-10.67-3.8,27.56,27.56,0,0,0-18.66,3.89A22.13,22.13,0,0,0,58.9,59.46,18.71,18.71,0,0,0,57.33,67c0,6.13,0,12.26,0,18.38a2.05,2.05,0,0,1-2.16,2.13,7.3,7.3,0,0,1-2.8-.29,4.34,4.34,0,0,1-3.28-4.3c0-4.51,0-9,0-13.52A4.37,4.37,0,0,1,52,65.08a10.77,10.77,0,0,1,1.91-.43,0.27,0.27,0,0,0,.29-0.28,22.91,22.91,0,0,1,3-8.88,26.37,26.37,0,0,1,9.3-9.28,30.12,30.12,0,0,1,11-4,31,31,0,0,1,7.08-.34,29.8,29.8,0,0,1,18,7.26,24,24,0,0,1,7.74,12.4c0.23,0.89.37,1.81,0.51,2.72a0.34,0.34,0,0,0,.38.36,5.28,5.28,0,0,1,3.54,1.56,4,4,0,0,1,1.17,2.91q0,6.8,0,13.61a4.34,4.34,0,0,1-3,4.34,6.34,6.34,0,0,1-.94.28C111.65,87.42,111.32,87.44,111,87.49Z"/><path class="b" d="M82.46,137.1c-0.43-.73-0.87-1.43-1.26-2.16q-1.72-3.25-3.4-6.53a0.8,0.8,0,0,1-.06-0.5c0.45-2,.91-4,1.38-6.07a0.78,0.78,0,0,1,.84-0.68h5a0.81,0.81,0,0,1,.9.72c0.46,2,.93,4,1.38,6a0.75,0.75,0,0,1,0,.45,91.49,91.49,0,0,1-4.6,8.52Z"/><path class="b" d="M82.5,112h3.79a0.79,0.79,0,0,1,.84,1q-0.56,2.85-1.11,5.7a0.84,0.84,0,0,1-1,.83H79.87a0.78,0.78,0,0,1-.89-0.72q-0.58-2.93-1.15-5.87a0.78,0.78,0,0,1,.84-1H82.5Z"/><rect class="d" x="110.65" y="129.35" width="20.3" height="3.2" rx="1.6" ry="1.6"/><path class="d" d="M130.25,136a1,1,0,0,1-1.41-.91v-8.29a1,1,0,0,1,1.41-.91l4.85,2.21,4.26,1.94a1,1,0,0,1,0,1.82l-4.27,1.93Z"/><rect class="d" x="119.65" y="143.48" width="20.3" height="3.2" rx="1.6" ry="1.6" transform="translate(259.61 290.15) rotate(-180)"/><path class="d" d="M120.36,140a1,1,0,0,1,1.41.91v8.29a1,1,0,0,1-1.41.91l-4.85-2.21L111.23,146a1,1,0,0,1,0-1.82l4.27-1.93Z"/></svg>