<svg xmlns="http://www.w3.org/2000/svg" viewBox="0 0 177.96 205.49"><defs><style>.a{fill:#27a392;}.b{fill:#fff;}.c{fill:#505050;}.d{opacity:0.99;}.e{fill:#dedede;}</style></defs><title>All-icons</title><path class="a" d="M80.48,82.69A68.76,68.76,0,0,0,76.59,96.4c-0.62,3.54-1,7.11-1.57,10.75H102.3c-0.28-2.34-.5-4.61-0.82-6.87a77.4,77.4,0,0,0-4.55-17.61,1,1,0,0,0-1-.71q-7.19,0-14.38,0A1,1,0,0,0,80.48,82.69Z"/><path class="a" d="M102.94,131.82c-0.32-1-.54-2-0.91-2.84a11.46,11.46,0,0,0-8.57-6.81,20.05,20.05,0,0,0-11,.42,11.12,11.12,0,0,0-7.84,8.79c0,0.12-.06.24-0.12,0.49-0.14-.3-0.24-0.48-0.32-0.67q-3.08-7.1-6.16-14.2a0.89,0.89,0,0,1,.18-1.13c2-2.17,3.93-4.37,5.93-6.54a1.56,1.56,0,0,1,1-.46q13.54,0,27.08,0a1.46,1.46,0,0,1,1,.43q3,3.3,6,6.67a0.91,0.91,0,0,1,.21.76C107.29,121.74,105.12,126.76,102.94,131.82Z"/><path class="a" d="M75,107.15c0.53-3.64,1-7.21,1.57-10.75a68.76,68.76,0,0,1,3.88-13.71,1,1,0,0,1,1-.73q7.19,0,14.38,0a1,1,0,0,1,1,.71,77.4,77.4,0,0,1,4.55,17.61c0.33,2.26.55,4.53,0.82,6.87H75ZM94,93.31a7.79,7.79,0,0,0-1.71-5,4.48,4.48,0,0,0-7.22,0,8.12,8.12,0,0,0,0,10,4.48,4.48,0,0,0,7.12,0A7.79,7.79,0,0,0,94,93.31Z"/><path class="b" d="M94,93.31a7.79,7.79,0,0,1-1.76,5,4.48,4.48,0,0,1-7.12,0,8.12,8.12,0,0,1,0-10,4.48,4.48,0,0,1,7.22,0A7.79,7.79,0,0,1,94,93.31Z"/><path class="a" d="M37.61,93a11.37,11.37,0,1,0-11.37,11.37A11.38,11.38,0,0,0,37.61,93Z"/><path class="a" d="M100.35,155.71A11.37,11.37,0,1,0,89,167.08,11.38,11.38,0,0,0,100.35,155.71Z"/><path class="a" d="M72.3,49.78A11.37,11.37,0,1,0,60.93,61.14,11.38,11.38,0,0,0,72.3,49.78Z"/><path class="a" d="M117,38.41a11.37,11.37,0,1,0,11.37,11.37A11.38,11.38,0,0,0,117,38.41Z"/><path class="a" d="M151.71,81.63A11.37,11.37,0,1,0,163.08,93,11.38,11.38,0,0,0,151.71,81.63Z"/><path class="a" d="M50.28,147.26a11.37,11.37,0,1,0-11.37,11.37A11.38,11.38,0,0,0,50.28,147.26Z"/><path class="a" d="M139,135.89a11.37,11.37,0,1,0,11.37,11.37A11.38,11.38,0,0,0,139,135.89Z"/><path class="c" d="M20.62,104a66.21,66.21,0,0,0,.51,11.68,67,67,0,0,0,7.95,24.11,12.4,12.4,0,0,1,6-4.27,60.5,60.5,0,0,1-7-24.93q-0.19-2.71-.13-5.35A12,12,0,0,1,20.62,104Z"/><path class="c" d="M73.13,41.26c-0.89.21-1.77,0.44-2.64,0.68a12.31,12.31,0,0,1,2.76,6.83,62.24,62.24,0,0,1,29.08-.48q1.2,0.27,2.38.58A12.3,12.3,0,0,1,107.39,42,68.92,68.92,0,0,0,73.13,41.26Z"/><path class="c" d="M149.44,105.14a59.65,59.65,0,0,1-6.68,29.42c-0.14.27-.29,0.52-0.43,0.78a12.39,12.39,0,0,1,6.2,4,65.46,65.46,0,0,0,8.14-27.25,70.28,70.28,0,0,0,.13-7.83A12.14,12.14,0,0,1,149.44,105.14Z"/><path class="c" d="M127.22,150.87a46,46,0,0,1-15.16,4.83,41.36,41.36,0,0,1-10.73.3,12.28,12.28,0,0,1-2.43,7.06,39.86,39.86,0,0,0,7.45.41,52.12,52.12,0,0,0,23.84-5.82c0.42-.22.81-0.45,1.22-0.67A12.4,12.4,0,0,1,127.22,150.87Z"/><path class="c" d="M149.52,76.47a67.33,67.33,0,0,0-20.45-23.93,12.36,12.36,0,0,1-3.73,6.37A60.8,60.8,0,0,1,144.44,83a12.28,12.28,0,0,1,7-2.38Q150.57,78.54,149.52,76.47Z"/><path class="c" d="M48.81,52.25A67.93,67.93,0,0,0,26,80.64h0.27a12.29,12.29,0,0,1,6.81,2.05,63.24,63.24,0,0,1,6.88-11.57A60.12,60.12,0,0,1,52.39,58.7,12.35,12.35,0,0,1,48.81,52.25Z"/><path class="c" d="M92.41,143.84c0-4.22,0-8.44,0-12.65a5.16,5.16,0,0,0-.1-1.21,3.64,3.64,0,0,0-4-2.75A3.58,3.58,0,0,0,85,130.76c0,2.66,0,5.32,0,8H84.87C85,140.5,85,142.25,85,144A12.17,12.17,0,0,1,92.41,143.84Z"/><g class="d"><path class="b" d="M22.4,97.49V95.58c4.13-3,4.91-3.65,4.91-4.61A1.14,1.14,0,0,0,26,90a3.56,3.56,0,0,0-2.55,1L22.08,89.4a5.26,5.26,0,0,1,3.86-1.59c2.25,0,3.86,1.26,3.86,3.16,0,1.47-1,2.72-3.42,4.38h3.49v2.15H22.4Z"/></g><g class="d"><path class="b" d="M57,53.26l1.24-1.67a4,4,0,0,0,2.6,1c1.06,0,1.6-.4,1.6-0.93s-0.4-.82-1.7-0.82c-0.41,0-1.14,0-1.29,0V48.68c0.19,0,.93,0,1.29,0,1,0,1.54-.24,1.54-0.74s-0.69-.87-1.6-0.87a3.53,3.53,0,0,0-2.37.92l-1.19-1.54a4.94,4.94,0,0,1,3.82-1.54c2.43,0,3.79,1,3.79,2.62a2.32,2.32,0,0,1-2.09,2.15,2.39,2.39,0,0,1,2.25,2.26c0,1.67-1.57,2.83-3.95,2.83A5.18,5.18,0,0,1,57,53.26Z"/></g><g class="d"><path class="b" d="M117.48,54.59V52.84h-4.56V50.92L116.54,45H120v5.63h1.16v2.16H120v1.74h-2.47Zm0-7.39-2.17,3.49h2.17V47.19Z"/></g><g class="d"><path class="b" d="M148.19,97l1.33-1.73a3.63,3.63,0,0,0,2.47.94c1,0,1.56-.51,1.56-1.1S153,94,152.06,94a2.58,2.58,0,0,0-1.89.72l-1.7-.41V88.71h6.92v2.15h-4.46V92.7a3.09,3.09,0,0,1,5.12,2.35c0,2.06-1.56,3.38-4,3.38A5.28,5.28,0,0,1,148.19,97Z"/></g><g class="d"><path class="b" d="M134.89,147.67c0-3,1.84-4.93,4.73-4.93a4.8,4.8,0,0,1,2.89.92l-1.06,1.89a2.66,2.66,0,0,0-1.83-.63,2.17,2.17,0,0,0-2.25,2.17v0.11a3,3,0,0,1,2.35-1.09,3.1,3.1,0,0,1,3.3,3.13c0,2-1.59,3.35-3.8,3.35C136.2,152.59,134.89,150.4,134.89,147.67Zm5.65,1.66A1.34,1.34,0,0,0,139,148.2a2.16,2.16,0,0,0-1.6.64,1.6,1.6,0,0,0,1.69,1.57A1.31,1.31,0,0,0,140.54,149.33Z"/></g><g class="d"><path class="b" d="M86.93,161.55l3.23-7.39H85.52V152H93v1.7l-3.36,7.84h-2.7Z"/></g><g class="d"><path class="b" d="M37.93,152.57v-6.39l-1.6,1.62-1.4-1.47L38.26,143h2.13v9.54H37.93Z"/></g><path class="a" d="M88.71,70a32.19,32.19,0,0,0-7.18,10.31H95.9A32.53,32.53,0,0,0,88.71,70Z"/><path class="e" d="M89,1.15l88,50.79V153.54L89,204.33,1,153.54V51.95L89,1.15M89,0L0,51.37V154.11l89,51.37,89-51.37V51.37L89,0h0Z"/></svg>