<svg xmlns="http://www.w3.org/2000/svg" viewBox="0 0 177.96 205.49"><defs><style>.a{fill:#dedede;}.b{fill:#27a392;}.c{fill:#505050;}.d{fill:#fff;}</style></defs><title>All-icons</title><path class="a" d="M89,1.15l88,50.79V153.54L89,204.33,1,153.54V51.95L89,1.15M89,0L0,51.37V154.11l89,51.37,89-51.37V51.37L89,0h0Z"/><path class="b" d="M138.71,77H37.24a7.53,7.53,0,0,0-7.51,7.51v57.76a7.53,7.53,0,0,0,7.51,7.51H138.71a7.53,7.53,0,0,0,7.51-7.51V84.53A7.53,7.53,0,0,0,138.71,77Z"/><path class="c" d="M115.79,48.44L106.9,39.1l-3.29-3.46A7.53,7.53,0,0,0,93,35.37L53.34,73.08h85.88Z"/><path class="d" d="M113.47,106.22a10.87,10.87,0,0,0,7.28-2.8,10.92,10.92,0,1,0,0-16.25A10.92,10.92,0,1,0,113.47,106.22Z"/><path class="d" d="M109.84,116.93l-0.09-.12a3.43,3.43,0,0,1-.58.34,3.56,3.56,0,0,1-.75.23,4.62,4.62,0,0,1-.94.09,4,4,0,0,1-1.94-.45,3.28,3.28,0,0,1-1.31-1.28,3.8,3.8,0,0,1-.48-1.93,3.87,3.87,0,0,1,.41-1.85,2.78,2.78,0,0,1,1.15-1.16,3.45,3.45,0,0,1,1.67-.4,3.94,3.94,0,0,1,1.19.18,3,3,0,0,1,1,.5l0.06,0.94,0,0h0.26l0,0a7,7,0,0,1,.24-1.53l0-.06a6.09,6.09,0,0,0-1.2-.37,6.86,6.86,0,0,0-1.45-.15,5.42,5.42,0,0,0-2.28.47,3.84,3.84,0,0,0-1.64,1.4,3.89,3.89,0,0,0-.62,2.2,3.8,3.8,0,0,0,1.24,3,4.62,4.62,0,0,0,3.23,1.13,5.67,5.67,0,0,0,2.61-.62Z"/><path class="d" d="M120,117.91l0,0v-0.29l0,0a1.84,1.84,0,0,1-.45,0,0.47,0.47,0,0,1-.17-0.1,2.07,2.07,0,0,1-.25-0.44q-0.18-.37-0.32-0.68l-0.31-.74L116.18,110h-0.36L115,112l-1.5,3.39-0.58,1.26a4.56,4.56,0,0,1-.37.7,0.44,0.44,0,0,1-.21.14,2.37,2.37,0,0,1-.52,0l0,0v0.29l0,0q0.62,0,1.22,0t1.24,0l0,0v-0.29l0,0a2.52,2.52,0,0,1-.75-0.07,0.22,0.22,0,0,1-.15-0.2,1.66,1.66,0,0,1,.16-0.56l0.6-1.41h3.19L118,117a0.94,0.94,0,0,1,.08.32,0.18,0.18,0,0,1-.15.19,4.45,4.45,0,0,1-.77.05l0,0v0.29l0,0,1.83,0Q119.45,117.86,120,117.91Zm-5.71-3.09,1.4-3.32,1.38,3.32h-2.79Z"/><path class="d" d="M129.23,117.85v-0.26l0,0-0.29,0a0.7,0.7,0,0,1-.22-0.09,3.48,3.48,0,0,1-.56-0.64l-0.82-1.08-0.78-1-0.56-.74a3.57,3.57,0,0,0,1.31-.48,2.16,2.16,0,0,0,.72-0.76,1.89,1.89,0,0,0,.24-0.91,1.66,1.66,0,0,0-.5-1.2,2.65,2.65,0,0,0-1.89-.51h-0.57l-1.68,0q-0.56,0-1.57,0l0,0v0.28l0,0a4.74,4.74,0,0,1,.73.06,0.4,0.4,0,0,1,.2.1,0.5,0.5,0,0,1,.08.24q0,0.18,0,.81v4.79a5.07,5.07,0,0,1,0,.76,0.43,0.43,0,0,1-.09.22,0.5,0.5,0,0,1-.23.09,5.71,5.71,0,0,1-.68.06l0,0v0.28l0,0,1.58,0h0.61l1,0,0,0v-0.28l0,0a4.37,4.37,0,0,1-.73-0.06,0.41,0.41,0,0,1-.2-0.1,0.51,0.51,0,0,1-.08-0.24,7.41,7.41,0,0,1,0-.8v-3.62a11.14,11.14,0,0,1,.08-2.07,3.65,3.65,0,0,1,1.09-.16,2.1,2.1,0,0,1,1.31.37,1.3,1.3,0,0,1,.48,1.1,1.57,1.57,0,0,1-.54,1.27,2.24,2.24,0,0,1-1.49.46l-0.45,0-0.06.17q1,1.13,1.94,2.45,0.82,1.14,1.2,1.6,0.46,0,.85,0a5.16,5.16,0,0,1,.63,0Z"/><path class="d" d="M137.84,111a3.1,3.1,0,0,0-1.25-.72,6.57,6.57,0,0,0-1.81-.21l-2.58.06-1.3,0,0,0v0.28l0,0,0.42,0,0.27,0.05a0.27,0.27,0,0,1,.12.07,0.42,0.42,0,0,1,.06.15,2.07,2.07,0,0,1,0,.37q0,0.26,0,.66V115q0,0.48,0,1.41a4.31,4.31,0,0,1-.08,1,3,3,0,0,1-.37.21l0,0.05v0.18l0,0q0.54,0,.92,0h0.52l1.62,0a6.56,6.56,0,0,0,1.25-.12,3.92,3.92,0,0,0,1.22-.47,4,4,0,0,0,1.08-.93,4.27,4.27,0,0,0,.74-1.3,4.35,4.35,0,0,0,.26-1.47,3.68,3.68,0,0,0-.28-1.44A3.41,3.41,0,0,0,137.84,111Zm-0.45,4.72a2.67,2.67,0,0,1-1.15,1.27,4.2,4.2,0,0,1-2.05.43,6.78,6.78,0,0,1-1.29-.11q0-.8,0-1.27v-3.35q0-1.13,0-2a8.93,8.93,0,0,1,1.42-.11,3.51,3.51,0,0,1,2.62.86,3.33,3.33,0,0,1,.83,2.42A4.57,4.57,0,0,1,137.39,115.71Z"/><path class="d" d="M39.6,132.78c-1.22,0-2,.73-2,2.51v1.09c0,1.78.77,2.51,2,2.51s2-.73,2-2.51v-1.09C41.57,133.51,40.81,132.78,39.6,132.78Zm1.24,3.6c0,1.36-.48,1.89-1.24,1.89s-1.24-.52-1.24-1.89v-1.09c0-1.36.48-1.89,1.24-1.89s1.24,0.52,1.24,1.89v1.09Z"/><path class="d" d="M45.49,132.78c-1.22,0-2,.73-2,2.51v1.09c0,1.78.77,2.51,2,2.51s2-.73,2-2.51v-1.09C47.46,133.51,46.71,132.78,45.49,132.78Zm1.24,3.6c0,1.36-.48,1.89-1.24,1.89s-1.24-.52-1.24-1.89v-1.09c0-1.36.48-1.89,1.24-1.89s1.24,0.52,1.24,1.89v1.09Z"/><path class="d" d="M51.38,132.78c-1.22,0-2,.73-2,2.51v1.09c0,1.78.77,2.51,2,2.51s2-.73,2-2.51v-1.09C53.36,133.51,52.6,132.78,51.38,132.78Zm1.24,3.6c0,1.36-.48,1.89-1.24,1.89s-1.24-.52-1.24-1.89v-1.09c0-1.36.48-1.89,1.24-1.89s1.24,0.52,1.24,1.89v1.09Z"/><path class="d" d="M57.27,132.78c-1.22,0-2,.73-2,2.51v1.09c0,1.78.77,2.51,2,2.51s2-.73,2-2.51v-1.09C59.25,133.51,58.49,132.78,57.27,132.78Zm1.24,3.6c0,1.36-.48,1.89-1.24,1.89S56,137.75,56,136.38v-1.09c0-1.36.48-1.89,1.24-1.89s1.24,0.52,1.24,1.89v1.09Z"/><path class="d" d="M66.17,132.78c-1.22,0-2,.73-2,2.51v1.09c0,1.78.77,2.51,2,2.51s2-.73,2-2.51v-1.09C68.14,133.51,67.38,132.78,66.17,132.78Zm1.24,3.6c0,1.36-.48,1.89-1.24,1.89s-1.24-.52-1.24-1.89v-1.09c0-1.36.48-1.89,1.24-1.89s1.24,0.52,1.24,1.89v1.09Z"/><path class="d" d="M72.06,132.78c-1.22,0-2,.73-2,2.51v1.09c0,1.78.77,2.51,2,2.51s2-.73,2-2.51v-1.09C74,133.51,73.28,132.78,72.06,132.78Zm1.24,3.6c0,1.36-.48,1.89-1.24,1.89s-1.24-.52-1.24-1.89v-1.09c0-1.36.48-1.89,1.24-1.89s1.24,0.52,1.24,1.89v1.09Z"/><path class="d" d="M77.95,132.78c-1.22,0-2,.73-2,2.51v1.09c0,1.78.77,2.51,2,2.51s2-.73,2-2.51v-1.09C79.93,133.51,79.17,132.78,77.95,132.78Zm1.24,3.6c0,1.36-.48,1.89-1.24,1.89s-1.24-.52-1.24-1.89v-1.09c0-1.36.48-1.89,1.24-1.89s1.24,0.52,1.24,1.89v1.09Z"/><path class="d" d="M83.84,132.78c-1.22,0-2,.73-2,2.51v1.09c0,1.78.77,2.51,2,2.51s2-.73,2-2.51v-1.09C85.82,133.51,85.06,132.78,83.84,132.78Zm1.24,3.6c0,1.36-.48,1.89-1.24,1.89s-1.24-.52-1.24-1.89v-1.09c0-1.36.48-1.89,1.24-1.89s1.24,0.52,1.24,1.89v1.09Z"/><path class="d" d="M92.73,132.78c-1.22,0-2,.73-2,2.51v1.09c0,1.78.77,2.51,2,2.51s2-.73,2-2.51v-1.09C94.71,133.51,94,132.78,92.73,132.78Zm1.24,3.6c0,1.36-.48,1.89-1.24,1.89s-1.24-.52-1.24-1.89v-1.09c0-1.36.48-1.89,1.24-1.89S94,133.93,94,135.29v1.09Z"/><path class="d" d="M98.63,132.78c-1.22,0-2,.73-2,2.51v1.09c0,1.78.77,2.51,2,2.51s2-.73,2-2.51v-1.09C100.6,133.51,99.85,132.78,98.63,132.78Zm1.24,3.6c0,1.36-.48,1.89-1.24,1.89s-1.24-.52-1.24-1.89v-1.09c0-1.36.48-1.89,1.24-1.89s1.24,0.52,1.24,1.89v1.09Z"/><path class="d" d="M104.52,132.78c-1.22,0-2,.73-2,2.51v1.09c0,1.78.77,2.51,2,2.51s2-.73,2-2.51v-1.09C106.5,133.51,105.74,132.78,104.52,132.78Zm1.24,3.6c0,1.36-.48,1.89-1.24,1.89s-1.24-.52-1.24-1.89v-1.09c0-1.36.48-1.89,1.24-1.89s1.24,0.52,1.24,1.89v1.09Z"/><path class="d" d="M110.41,132.78c-1.22,0-2,.73-2,2.51v1.09c0,1.78.77,2.51,2,2.51s2-.73,2-2.51v-1.09C112.39,133.51,111.63,132.78,110.41,132.78Zm1.24,3.6c0,1.36-.48,1.89-1.24,1.89s-1.24-.52-1.24-1.89v-1.09c0-1.36.48-1.89,1.24-1.89s1.24,0.52,1.24,1.89v1.09Z"/><path class="d" d="M119.3,132.78c-1.22,0-2,.73-2,2.51v1.09c0,1.78.77,2.51,2,2.51s2-.73,2-2.51v-1.09C121.28,133.51,120.52,132.78,119.3,132.78Zm1.24,3.6c0,1.36-.48,1.89-1.24,1.89s-1.24-.52-1.24-1.89v-1.09c0-1.36.48-1.89,1.24-1.89s1.24,0.52,1.24,1.89v1.09Z"/><path class="d" d="M125.2,132.78c-1.22,0-2,.73-2,2.51v1.09c0,1.78.77,2.51,2,2.51s2-.73,2-2.51v-1.09C127.17,133.51,126.41,132.78,125.2,132.78Zm1.24,3.6c0,1.36-.48,1.89-1.24,1.89s-1.24-.52-1.24-1.89v-1.09c0-1.36.48-1.89,1.24-1.89s1.24,0.52,1.24,1.89v1.09Z"/><path class="d" d="M131.09,132.78c-1.22,0-2,.73-2,2.51v1.09c0,1.78.77,2.51,2,2.51s2-.73,2-2.51v-1.09C133.06,133.51,132.31,132.78,131.09,132.78Zm1.24,3.6c0,1.36-.48,1.89-1.24,1.89s-1.24-.52-1.24-1.89v-1.09c0-1.36.48-1.89,1.24-1.89s1.24,0.52,1.24,1.89v1.09Z"/><path class="d" d="M137,132.78c-1.22,0-2,.73-2,2.51v1.09c0,1.78.77,2.51,2,2.51s2-.73,2-2.51v-1.09C139,133.51,138.2,132.78,137,132.78Zm1.24,3.6c0,1.36-.48,1.89-1.24,1.89s-1.24-.52-1.24-1.89v-1.09c0-1.36.48-1.89,1.24-1.89s1.24,0.52,1.24,1.89v1.09Z"/><path class="d" d="M40.46,98.94a1.84,1.84,0,0,0,1.73-1.24,14.36,14.36,0,0,1,23.17-6l-1.21.59a1.56,1.56,0,0,0-.54,2.58l4.24,3.56,3,2.48a1.83,1.83,0,0,0,2.9-1.41l-0.13-3.85-0.19-5.53A1.56,1.56,0,0,0,71,88.91L68.81,90a18,18,0,0,0-30.08,6.5A1.83,1.83,0,0,0,40.46,98.94Z"/><path class="d" d="M72.93,107.31a1.83,1.83,0,0,0-3.53-.23,14.34,14.34,0,0,1-22.66,6.46l0.85-.41a1.58,1.58,0,0,0,.61-2.62L43.86,107l-3-2.44A2,2,0,0,0,37.78,106l0.06,3.89,0.08,5.59a1.58,1.58,0,0,0,2.44,1.13l2.86-1.39a18,18,0,0,0,29.63-7A1.87,1.87,0,0,0,72.93,107.31Z"/><polygon class="d" points="89.88 73.08 115.79 48.44 106.9 39.1 71.17 73.08 89.88 73.08"/></svg>