<svg xmlns="http://www.w3.org/2000/svg" viewBox="0 0 276.11 276.12"><defs><style>.a{fill:none;stroke:#fff;stroke-miterlimit:10;}.b{fill:#747474;}.c{fill:#f7f7f7;}.d{fill:#dfdfdf;}.e{fill:#73c5d8;}.f{fill:#616161;}.g{fill:#fff;}.h{fill:#1ba492;}.i,.k{fill:#8fd8ca;}.j{fill:#4e4e4e;}.k{fill-rule:evenodd;}</style></defs><title>All-icons</title><rect class="a" x="40.94" y="40.94" width="194.24" height="194.25" transform="translate(138.06 -57.18) rotate(45)"/><path class="b" d="M56.47,110.43H219.64a9.51,9.51,0,0,1,9.51,9.51v100a0,0,0,0,1,0,0H47a0,0,0,0,1,0,0v-100A9.51,9.51,0,0,1,56.47,110.43Z"/><rect class="c" x="56.81" y="124.13" width="162.49" height="82.09"/><polygon class="d" points="219.3 124.13 56.81 124.13 68.87 206.22 205.56 206.22 219.3 124.13"/><circle class="e" cx="138.06" cy="117.5" r="3.12"/><path class="f" d="M38.06,218.14h200a0,0,0,0,1,0,0v0.47a11.1,11.1,0,0,1-11.1,11.1H49.16a11.1,11.1,0,0,1-11.1-11.1v-0.47A0,0,0,0,1,38.06,218.14Z"/><rect class="g" x="68.64" y="46.5" width="137.81" height="159.68"/><rect class="h" x="68.64" y="46.5" width="137.81" height="12.2"/><rect class="c" x="77.61" y="161.98" width="70.71" height="6.46"/><rect class="c" x="77.61" y="124.95" width="12.57" height="37.03"/><rect class="c" x="92.15" y="138.91" width="12.57" height="23.07"/><rect class="c" x="106.68" y="146.73" width="12.57" height="15.26"/><rect class="c" x="121.22" y="139.57" width="12.57" height="22.41"/><rect class="c" x="135.75" y="145.95" width="12.57" height="16.03"/><rect class="d" x="77.63" y="64.07" width="70.67" height="4.92"/><rect class="d" x="77.61" y="76.36" width="118.84" height="4.91"/><rect class="c" x="77.61" y="84.96" width="118.84" height="4.92"/><rect class="c" x="77.61" y="93.57" width="118.84" height="4.91"/><rect class="c" x="77.61" y="102.17" width="55.7" height="4.92"/><rect class="d" x="77.61" y="181.56" width="25.07" height="7.48"/><rect class="d" x="108.95" y="181.56" width="25.07" height="7.48"/><rect class="d" x="140.13" y="181.56" width="25.06" height="7.48"/><rect class="d" x="171.38" y="181.56" width="25.07" height="7.48"/><rect class="c" x="156.94" y="124.95" width="39.51" height="43.5"/><rect class="d" x="77.61" y="194.14" width="25.07" height="7.48"/><rect class="d" x="140.13" y="194.14" width="25.06" height="7.48"/><rect class="d" x="171.38" y="194.14" width="25.07" height="7.48"/><rect class="i" x="164.92" y="159.41" width="12.72" height="45.77" transform="translate(-72.33 125.55) rotate(-33.67)"/><path class="b" d="M154.47,130.28H121.15V107.21A10.26,10.26,0,0,1,131.4,97h12.83a10.26,10.26,0,0,1,10.25,10.25v23.07Zm-28.73-4.59h24.14V107.21a5.66,5.66,0,0,0-5.66-5.66H131.4a5.66,5.66,0,0,0-5.66,5.66v18.49Z"/><rect class="i" x="115.48" y="116.7" width="44.66" height="32.95" rx="3.45" ry="3.45"/><path class="h" d="M144,128.64a6.15,6.15,0,1,0-8.08,5.84v7.46a1.93,1.93,0,1,0,3.86,0v-7.46A6.15,6.15,0,0,0,144,128.64Z"/><path class="h" d="M204.8,214.33a10.17,10.17,0,1,1-16.92,11.28l-24-36a10.17,10.17,0,1,1,16.92-11.28Z"/><path class="j" d="M111.08,86.47a47,47,0,0,0-20.95,39.13h8.77a38.27,38.27,0,1,1,76.53,0h8.77A47,47,0,0,0,111.08,86.47ZM90.14,125.61a47,47,0,0,0,94.08,0h-8.77a38.24,38.24,0,0,1-17,31.85h0a38.27,38.27,0,0,1-59.49-31.85H90.14Z"/><path class="k" d="M174.2,177.21a6.36,6.36,0,1,0-6.36,6.36A6.37,6.37,0,0,0,174.2,177.21Z"/></svg>