<svg xmlns="http://www.w3.org/2000/svg" viewBox="0 0 276.11 276.12"><defs><style>.a,.e{fill:none;stroke-miterlimit:10;}.a{stroke:#fff;}.b{fill:#fff;}.c{fill:#616161;}.d{fill:#dfdfdf;}.e{stroke:#e8e7e5;}.f{fill:#e8e7e5;}.g{fill:#8fd8ca;}.h{fill:#1ba492;}</style></defs><title>All-icons</title><rect class="a" x="40.94" y="40.94" width="194.24" height="194.25" transform="translate(138.06 -57.18) rotate(45)"/><path class="b" d="M145.21,153.49L130,153.18c1.77,0.51,7.36,1.55,8.55,3.1l-3.16,70.59,8-.67,1.92-6.36V153.49Z"/><path class="b" d="M251.28,53.49L240,53.38c1.77,0.51-52.17,14.33-51,15.88l51,61.93,8.8-4.78,2.47-6.57V53.49Z"/><path class="c" d="M71.33,153.18h59.35a11.61,11.61,0,0,1,3.27.14l11.26,0.17a8.33,8.33,0,0,0-8.43-8.06h-67c0.67,0,1.57,1.74,1.57,3.16v4.59Z"/><path class="c" d="M141.1,219.85v5.52c0,3.49-2.63,6.94-5.76,8.53,6.94-1.7,9.69-6.3,9.88-14.05H141.1Z"/><path class="d" d="M141.1,225.37V160.78a7.56,7.56,0,0,0-2.35-5.11,10.11,10.11,0,0,0-4.68-2.35,12.53,12.53,0,0,0-3.39-.14H71.33v-4.59a6.56,6.56,0,0,0-1.32-3.5c-1.69-2.86-5.42-4.31-9-4.31H33c-5,0-8.18,2.8-8.18,7.81v76.78c0,5,3.17,10,8.18,10h97.68a11.31,11.31,0,0,0,4.66-1.44C138.48,232.33,141.1,228.85,141.1,225.37Zm-102-79.94H62v7.75H34.12v-7.75h5Z"/><polygon class="b" points="34.12 153.18 62.03 153.18 62.03 145.42 39.1 145.42 34.12 145.42 34.12 153.18"/><line class="e" x1="190.3" y1="155.8" x2="190.3" y2="135.34"/><circle class="f" cx="190.3" cy="155.8" r="4.49"/><path class="e" d="M190.3,155.8H167.62a8.54,8.54,0,0,0,0,17.07H181.8"/><path class="e" d="M145.82,189.94h36a7.78,7.78,0,0,0,7.75-7.75v-1.57a7.78,7.78,0,0,0-7.75-7.75"/><circle class="b" cx="85.3" cy="194.46" r="27.07"/><polygon class="g" points="85.3 179.43 70.37 188.32 70.37 192.14 85.3 183.25 100.23 192.14 100.23 188.32 85.3 179.43"/><polygon class="g" points="85.3 183.88 72.53 191.48 72.53 208.86 72.53 209.48 81.97 209.48 81.97 196.2 88.57 196.2 88.57 209.48 98.01 209.48 98.01 208.86 98.01 191.44 85.3 183.88"/><path class="g" d="M177.4,53.18h59.35a11.61,11.61,0,0,1,3.27.14l11.26,0.17a8.33,8.33,0,0,0-8.43-8.06h-67c0.67,0,1.57,1.74,1.57,3.16v4.59Z"/><path class="g" d="M247.17,119.85v5.52c0,3.49-2.63,6.94-5.76,8.53,6.94-1.7,9.69-6.3,9.88-14.05h-4.12Z"/><path class="h" d="M247.17,125.37V60.78a7.56,7.56,0,0,0-2.35-5.11,10.11,10.11,0,0,0-4.68-2.35,12.53,12.53,0,0,0-3.39-.14H177.4V48.59a6.56,6.56,0,0,0-1.32-3.5c-1.69-2.86-5.42-4.31-9-4.31h-28c-5,0-8.18,2.8-8.18,7.81v76.78c0,5,3.17,10,8.18,10h97.68a11.31,11.31,0,0,0,4.66-1.44C244.54,132.33,247.17,128.85,247.17,125.37Zm-102-79.94H168.1v7.75H140.19V45.42h5Z"/><polygon class="b" points="140.19 53.18 168.1 53.18 168.1 45.42 145.16 45.42 140.19 45.42 140.19 53.18"/><circle class="b" cx="191.37" cy="94.46" r="27.07"/><polygon class="g" points="191.37 79.43 176.44 88.32 176.44 92.14 191.37 83.25 206.3 92.14 206.3 88.32 191.37 79.43"/><polygon class="g" points="191.37 83.88 178.59 91.48 178.59 108.86 178.59 109.48 188.03 109.48 188.03 96.2 194.64 96.2 194.64 109.48 204.08 109.48 204.08 108.86 204.08 91.44 191.37 83.88"/></svg>