<svg xmlns="http://www.w3.org/2000/svg" viewBox="0 0 276.11 276.12"><defs><style>.a,.i{fill:none;}.a{stroke:#fff;stroke-miterlimit:10;}.b{fill:#747474;}.c{fill:#f7f7f7;}.d{fill:#dfdfdf;}.e{fill:#73c5d8;}.f{fill:#616161;}.g{fill:#fff;}.h{fill:#1ba492;}.i{stroke:#dfdfdf;stroke-linecap:round;stroke-linejoin:round;stroke-width:4px;}</style></defs><title>All-icons</title><rect class="a" x="40.94" y="40.94" width="194.24" height="194.25" transform="translate(138.06 -57.18) rotate(45)"/><path class="b" d="M56.47,110.38H219.64a9.51,9.51,0,0,1,9.51,9.51v100a0,0,0,0,1,0,0H47a0,0,0,0,1,0,0v-100A9.51,9.51,0,0,1,56.47,110.38Z"/><rect class="c" x="56.81" y="124.08" width="162.49" height="82.09"/><polygon class="d" points="219.3 124.08 56.81 124.08 68.87 206.18 205.56 206.18 219.3 124.08"/><circle class="e" cx="138.06" cy="117.45" r="3.12"/><path class="f" d="M38.06,218.1h200a0,0,0,0,1,0,0v0.47a11.1,11.1,0,0,1-11.1,11.1H49.16a11.1,11.1,0,0,1-11.1-11.1V218.1A0,0,0,0,1,38.06,218.1Z"/><rect class="g" x="68.64" y="46.45" width="137.81" height="159.68"/><rect class="d" x="80.94" y="121.23" width="40.43" height="31.2"/><rect class="h" x="80.94" y="167.24" width="113.44" height="31.2"/><rect class="h" x="68.64" y="46.45" width="137.81" height="12.2"/><line class="i" x1="132.02" y1="125.99" x2="194.38" y2="125.99"/><line class="i" x1="132.02" y1="136.82" x2="194.38" y2="136.82"/><line class="i" x1="132.02" y1="147.66" x2="194.38" y2="147.66"/><path class="h" d="M80.64,85.74a7,7,0,0,0,3.18.83,2.79,2.79,0,0,0,3.12-2.87c0-1.65-1-2.6-2.69-3.76-2.29-1.47-3.89-3.52-3.89-5.75,0-3.21,2.17-5.75,6-5.75a6.6,6.6,0,0,1,3.09.73L88.87,72a4.65,4.65,0,0,0-2.54-.7,2.51,2.51,0,0,0-2.75,2.51c0,1.59.83,2.33,2.94,3.67,2.6,1.71,3.64,3.7,3.64,5.9,0,3.7-2.63,6.06-6.33,6.06a7.78,7.78,0,0,1-3.73-.86Z"/><path class="h" d="M95,71.6h-3.7v-3H102v3H98.26V89.22H95V71.6Z"/><path class="h" d="M105.91,83.84l-1.1,5.38h-3.18l4.59-20.62H110l4.25,20.62h-3.18L110,83.84h-4.1Zm3.76-2.54-0.86-4.74c-0.25-1.35-.52-3.24-0.77-4.68H108c-0.21,1.44-.52,3.4-0.77,4.68l-0.92,4.74h3.4Z"/><path class="h" d="M117.36,71.6h-3.7v-3h10.71v3h-3.73V89.22h-3.27V71.6Z"/><path class="h" d="M134.73,79.83h-4.9v6.55h5.57v2.85h-8.84V68.6H135v2.84h-5.2v5.66h4.9v2.72Z"/><path class="h" d="M150.61,81.27c-0.12-2.33-.25-5.14-0.21-7.4h-0.09c-0.4,2.26-.95,4.74-1.44,6.73L146.73,89h-2.23l-2-8.17c-0.55-2.08-1.1-4.65-1.47-6.95h-0.09c0,2.33-.15,5-0.28,7.5l-0.37,7.86h-2.85L138.8,68.6h3.46l2,8.35c0.64,2.66,1.16,4.83,1.56,7.16h0.06c0.37-2.33.83-4.47,1.44-7.16l1.93-8.35h3.52L154,89.22h-3Z"/><path class="h" d="M165.2,79.83h-4.9v6.55h5.57v2.85H157V68.6h8.47v2.84h-5.2v5.66h4.9v2.72Z"/><path class="h" d="M168.54,89.22V68.6h3L175,77.42c0.7,1.87,1.74,4.53,2.39,6.52h0.06c-0.15-2.63-.34-5.81-0.34-9.51V68.6H180V89.22h-3l-3.49-8.78a68.26,68.26,0,0,1-2.23-6.55H171.2c0.12,2.39.25,5.29,0.25,9.58v5.75h-2.91Z"/><path class="h" d="M185.92,71.6h-3.7v-3h10.71v3h-3.73V89.22h-3.27V71.6Z"/><path class="h" d="M104.12,101.94c0,7.77-2.72,10.83-6.36,10.83-4.1,0-6.15-4.37-6.15-10.59s2.33-10.52,6.46-10.52C102.41,91.66,104.12,96.4,104.12,101.94Zm-9.12.28c0,4.5.86,7.71,2.94,7.71s2.78-3.7,2.78-7.83c0-3.73-.61-7.59-2.81-7.59C95.86,94.51,95,97.9,95,102.22Z"/><path class="h" d="M106.79,91.91h8.47v2.84h-5.2v6.15h4.87v2.72h-4.87v8.9h-3.27V91.91Z"/><path class="h" d="M124.71,112.53L121,91.91h3.4l1.35,9c0.34,2.45.58,4.8,0.86,7.34h0.09c0.28-2.6.73-4.83,1.19-7.37l1.65-9h2.69l1.59,8.84c0.43,2.39.83,4.68,1.1,7.5H135c0.31-2.84.61-5,.92-7.43l1.35-8.9h3.18l-3.79,20.62h-3.33l-1.56-8.23c-0.37-2-.7-4.38-0.95-6.76h-0.06c-0.34,2.42-.7,4.68-1.13,6.82l-1.68,8.17h-3.18Z"/><path class="h" d="M154.18,101.94c0,7.77-2.72,10.83-6.36,10.83-4.1,0-6.15-4.37-6.15-10.59s2.33-10.52,6.46-10.52C152.46,91.66,154.18,96.4,154.18,101.94Zm-9.12.28c0,4.5.86,7.71,2.94,7.71s2.78-3.7,2.78-7.83c0-3.73-.61-7.59-2.81-7.59C145.92,94.51,145.06,97.9,145.06,102.22Z"/><path class="h" d="M156.84,92.21a17.6,17.6,0,0,1,3.95-.4c2.11,0,3.88.37,5.11,1.5a6,6,0,0,1-1.68,9.39v0.06c1.44,0.52,2.2,1.9,2.6,4.34a32.81,32.81,0,0,0,1.29,5.42h-3.4a27.85,27.85,0,0,1-1.07-5c-0.4-2.66-1.16-3.55-2.78-3.55h-0.76v8.57h-3.24V92.21Zm3.24,9.24h0.86c2,0,3.18-1.53,3.18-3.64s-0.79-3.4-2.94-3.43a3.91,3.91,0,0,0-1.1.12v6.94Z"/><path class="h" d="M170.39,91.91h3.24v9.51h0.09c0.4-.86.73-1.74,1.13-2.6l3.24-6.91h3.58l-4.8,8.9,4.93,11.72h-3.58l-3.55-9.18-1,1.83v7.34h-3.24V91.91Z"/></svg>