<svg xmlns="http://www.w3.org/2000/svg" viewBox="0 0 276.11 276.12"><defs><style>.a{fill:none;stroke:#fff;stroke-miterlimit:10;}.b{fill:#747474;}.c{fill:#f7f7f7;}.d{fill:#dfdfdf;}.e{fill:#73c5d8;}.f{fill:#616161;}.g{fill:#fff;}.h{fill:#1ba492;}.i{fill:#4e4e4e;}.j{fill:#8fd8ca;}</style></defs><title>All-icons</title><rect class="a" x="40.94" y="40.94" width="194.24" height="194.25" transform="translate(138.06 -57.18) rotate(45)"/><path class="b" d="M56.47,110.38H219.64a9.51,9.51,0,0,1,9.51,9.51v100a0,0,0,0,1,0,0H47a0,0,0,0,1,0,0v-100A9.51,9.51,0,0,1,56.47,110.38Z"/><rect class="c" x="56.81" y="124.08" width="162.49" height="82.09"/><polygon class="d" points="219.3 124.08 56.81 124.08 68.87 206.18 205.56 206.18 219.3 124.08"/><circle class="e" cx="138.06" cy="117.45" r="3.12"/><path class="f" d="M38.06,218.1h200a0,0,0,0,1,0,0v0.47a11.1,11.1,0,0,1-11.1,11.1H49.16a11.1,11.1,0,0,1-11.1-11.1V218.1a0,0,0,0,1,0,0Z"/><rect class="g" x="68.64" y="46.45" width="137.81" height="159.68"/><rect class="d" x="80.94" y="167.24" width="113.44" height="31.2"/><rect class="d" x="80.94" y="66.56" width="113.44" height="31.2"/><rect class="d" x="80.94" y="131.4" width="34.23" height="28.37"/><rect class="d" x="120.11" y="131.4" width="34.23" height="28.37"/><rect class="d" x="160.58" y="131.4" width="34.23" height="28.37"/><rect class="h" x="68.64" y="46.45" width="137.81" height="12.2"/><rect class="d" x="83.21" y="104.94" width="111.17" height="7.68"/><rect class="c" x="83.11" y="116.16" width="111.17" height="7.68"/><rect class="c" x="80.94" y="66.56" width="34.23" height="31.2"/><path class="h" d="M144.66,78.92l-8.51,6.28,6.28,8.51,8.51-6.28Zm-0.36,2.38,4.26,5.76-5.77,4.26-4.26-5.76Z"/><path class="h" d="M98.56,113l-8.51,6.29,6.28,8.51,8.51-6.28Zm-0.36,2.39,4.26,5.77-5.77,4.26-4.25-5.76Z"/><path class="i" d="M101.89,123.66a27.26,27.26,0,0,0,43-31.78l2.39-1.76a30.17,30.17,0,0,1-47.79,35.3Z"/><path class="i" d="M141,81.61l-2.38,1.76a27.26,27.26,0,0,0-43,31.78l-2.39,1.76A30.17,30.17,0,0,1,141,81.61Z"/><path class="i" d="M117,122.93c5-7.32-.25-19.27-0.25-19.27l2.15-1.52,11.84,16c-1,4.33,2.65,4.52,3.1,4.53l1.29-1c0.12-.44.88-4-3.54-4.19L119.39,101.8l2-1.67s10.14,8.19,18.51,5.36c0,0,5.21,17.09,9.71,18.84l-7.11,5.45h0l-2.4,1.83h0l-7.51,5.68C132.14,132.48,117,122.93,117,122.93Z"/><path class="h" d="M134.31,138.06L150,126.14l55.87,73.75a4,4,0,0,1,4.86,1.23l0.44,0.59a4,4,0,0,1-.81,5.57l-13.81,10.3a4,4,0,0,1-5.57-.81l-0.44-.59a4,4,0,0,1-.32-4.25Z"/><path class="j" d="M132.83,138.9a1.24,1.24,0,0,0,1.59.55l16.84-12.82a1.24,1.24,0,0,0-.11-1.68h0a1.24,1.24,0,0,0-1.59-.55l-16.84,12.83a1.24,1.24,0,0,0,.11,1.68h0Z"/><path class="j" d="M198.33,197.83a1.59,1.59,0,0,0,2.22.37h0a1.59,1.59,0,0,0,.24-2.24l-48.05-63.35a1.59,1.59,0,0,0-2.22-.37h0a1.59,1.59,0,0,0-.24,2.24Z"/></svg>