<svg xmlns="http://www.w3.org/2000/svg" viewBox="0 0 276.11 276.12"><defs><style>.a,.k{fill:none;stroke-miterlimit:10;}.a{stroke:#fff;}.b{fill:#747474;}.c{fill:#f7f7f7;}.d{fill:#dfdfdf;}.e{fill:#73c5d8;}.f{fill:#616161;}.g{fill:#fff;}.h{fill:#1ba492;}.i{fill:#4e4e4e;}.j{fill:#8fd8ca;}.k{stroke:#4e4e4e;stroke-width:2px;}</style></defs><title>All-icons</title><rect class="a" x="40.94" y="40.94" width="194.24" height="194.25" transform="translate(138.06 -57.18) rotate(45)"/><path class="b" d="M37,76.82H239.1a9.51,9.51,0,0,1,9.51,9.51V209.7a0,0,0,0,1,0,0H27.5a0,0,0,0,1,0,0V86.33A9.51,9.51,0,0,1,37,76.82Z"/><rect class="c" x="39.46" y="93.44" width="197.19" height="99.63"/><polygon class="d" points="236.65 93.44 134.35 93.52 146.88 163.54 225.41 163.54 236.65 93.44"/><circle class="e" cx="91.92" cy="143.01" r="1.78"/><path class="f" d="M16.7,207.53H259.41a0,0,0,0,1,0,0v2.94a11.1,11.1,0,0,1-11.1,11.1H27.8a11.1,11.1,0,0,1-11.1-11.1v-2.94a0,0,0,0,1,0,0Z"/><polygon class="g" points="52.36 102.55 52.65 191.07 131.19 191.07 130.89 102.55 52.36 102.55"/><rect class="d" x="59.37" y="171.38" width="64.64" height="17.78"/><rect class="d" x="59.37" y="114.01" width="64.64" height="17.78"/><rect class="d" x="59.37" y="150.96" width="19.51" height="16.17"/><rect class="d" x="81.69" y="150.96" width="19.51" height="16.17"/><rect class="d" x="104.75" y="150.96" width="19.51" height="16.17"/><rect class="h" x="52.43" y="102.55" width="78.4" height="4.95"/><rect class="d" x="60.66" y="135.88" width="63.35" height="4.37"/><rect class="c" x="60.61" y="142.27" width="63.35" height="4.38"/><rect class="c" x="59.37" y="114.01" width="19.51" height="17.78"/><path class="h" d="M72.21,126.67l4.85,3.58,3.58-4.85-4.85-3.58Zm7.07-1.06-2.43,3.28-3.29-2.43L76,123.18Z"/><path class="h" d="M98.48,146.07l4.85,3.58,3.58-4.85-4.85-3.58Zm7.07-1.06-2.42,3.28-3.29-2.43,2.43-3.29Z"/><path class="i" d="M100.16,147.32a15.53,15.53,0,0,1-24.52-18.11l-1.36-1a17.19,17.19,0,0,0,27.24,20.12Z"/><path class="i" d="M77.87,123.35l1.36,1a15.54,15.54,0,0,1,24.52,18.11l1.36,1A17.19,17.19,0,0,0,77.87,123.35Z"/><path class="i" d="M91.53,146.9c-2.82-4.17.14-11,.14-11L90.44,135l-6.75,9.1c0.54,2.47-1.51,2.58-1.77,2.58l-0.73-.56c-0.07-.25-0.5-2.26,2-2.39l7-8.92L89,133.91s-5.78,4.67-10.55,3.05c0,0-3,9.74-5.53,10.74L77,150.81h0l1.37,1h0l4.28,3.23C82.93,152.34,91.53,146.9,91.53,146.9Z"/><path class="h" d="M81.69,155.52l-9-6.79-31.84,42a2.27,2.27,0,0,0-2.77.7l-0.25.34a2.27,2.27,0,0,0,.46,3.17l7.87,5.87a2.27,2.27,0,0,0,3.17-.46l0.25-.34a2.26,2.26,0,0,0,.18-2.42Z"/><path class="j" d="M82.53,156a0.71,0.71,0,0,1-.91.31L72,149a0.71,0.71,0,0,1,.06-1h0a0.71,0.71,0,0,1,.9-0.32l9.6,7.31a0.71,0.71,0,0,1-.06,1h0Z"/><path class="j" d="M45.21,189.58a0.91,0.91,0,0,1-1.26.21h0a0.91,0.91,0,0,1-.14-1.27l27.39-36.1a0.91,0.91,0,0,1,1.26-.21h0a0.91,0.91,0,0,1,.14,1.27Z"/><circle class="e" cx="186.44" cy="95.01" r="1.78"/><rect class="g" x="146.88" y="54.54" width="78.53" height="109"/><rect class="d" x="153.89" y="123.38" width="64.64" height="17.78"/><rect class="d" x="153.89" y="66" width="64.64" height="17.78"/><rect class="d" x="153.89" y="102.95" width="19.51" height="16.17"/><rect class="d" x="176.22" y="102.95" width="19.51" height="16.17"/><rect class="d" x="199.28" y="102.95" width="19.51" height="16.17"/><rect class="h" x="146.88" y="54.54" width="78.53" height="4.95"/><rect class="d" x="153.95" y="87.87" width="64.59" height="4.37"/><rect class="d" x="153.89" y="144.46" width="64.64" height="4.37"/><rect class="c" x="153.89" y="150.82" width="64.64" height="4.37"/><rect class="c" x="153.89" y="94.27" width="64.59" height="4.38"/><rect class="c" x="153.89" y="66" width="19.51" height="17.78"/><path class="k" d="M131,172H170a3.64,3.64,0,0,1,0,7.28h-4.15a3.64,3.64,0,1,0,0,7.28h26a3.64,3.64,0,1,0,0-7.28h-2.22a3.64,3.64,0,0,1-3.64-3.64V163.54"/><circle class="h" cx="185.94" cy="163.54" r="3.59"/><circle class="h" cx="130.44" cy="172.11" r="3.59"/><rect class="h" x="146.88" y="162.53" width="78.53" height="1.01"/><rect class="h" x="117.01" y="171.61" width="26.87" height="1.01" transform="translate(-41.67 302.56) rotate(-90)"/></svg>