<svg xmlns="http://www.w3.org/2000/svg" viewBox="0 0 276.11 276.12"><defs><style>.a,.i{fill:none;}.a{stroke:#fff;stroke-miterlimit:10;}.b{fill:#747474;}.c{fill:#f7f7f7;}.d{fill:#dfdfdf;}.e{fill:#73c5d8;}.f{fill:#616161;}.g{fill:#fff;}.h,.j{fill:#1ba492;}.i{stroke:#dfdfdf;stroke-linecap:round;stroke-linejoin:round;stroke-width:4px;}.j{font-size:30.59px;font-family:Myriad Pro;font-weight:700;}.k{letter-spacing:-1px;}</style></defs><title>All-icons</title><rect class="a" x="40.94" y="40.94" width="194.24" height="194.25" transform="translate(138.06 -57.18) rotate(45)"/><path class="b" d="M56.47,110.38H219.64a9.51,9.51,0,0,1,9.51,9.51v100a0,0,0,0,1,0,0H47a0,0,0,0,1,0,0v-100A9.51,9.51,0,0,1,56.47,110.38Z"/><rect class="c" x="56.81" y="124.08" width="162.49" height="82.09"/><polygon class="d" points="219.3 124.08 56.81 124.08 68.87 206.18 205.56 206.18 219.3 124.08"/><circle class="e" cx="138.06" cy="117.45" r="3.12"/><path class="f" d="M38.06,218.1h200a0,0,0,0,1,0,0v0.47a11.1,11.1,0,0,1-11.1,11.1H49.16a11.1,11.1,0,0,1-11.1-11.1V218.1a0,0,0,0,1,0,0Z"/><rect class="g" x="68.64" y="46.45" width="137.81" height="159.68"/><rect class="d" x="80.94" y="121.23" width="40.43" height="31.2"/><rect class="h" x="80.94" y="167.24" width="113.44" height="31.2"/><rect class="h" x="68.64" y="46.45" width="137.81" height="12.2"/><line class="i" x1="132.02" y1="125.99" x2="194.38" y2="125.99"/><line class="i" x1="132.02" y1="136.82" x2="194.38" y2="136.82"/><line class="i" x1="132.02" y1="147.66" x2="194.38" y2="147.66"/><text class="j" transform="translate(79.3 89.22)">S<tspan class="k" x="11.59" y="0">T</tspan><tspan class="k" x="21.91" y="0">A</tspan><tspan x="33.96" y="0">TEMENT</tspan><tspan x="11.46" y="23.3">OF</tspan><tspan x="37.03" y="23.3"> </tspan><tspan x="41.2" y="23.3">W</tspan><tspan x="61.51" y="23.3">ORK</tspan></text></svg>