<svg xmlns="http://www.w3.org/2000/svg" viewBox="0 0 276.11 276.12"><defs><style>.a{fill:none;stroke:#fff;stroke-miterlimit:10;}.b{fill:#dfdfdf;}.c{fill:#1ba492;}.d{fill:#4e4e4e;}.e{fill:#fff;}</style></defs><title>All-icons</title><rect class="a" x="40.94" y="40.94" width="194.24" height="194.25" transform="translate(138.06 -57.18) rotate(45)"/><path class="b" d="M189.08,131.79a9.43,9.43,0,0,1-9.43-9.43V72.29a36.82,36.82,0,0,0-36.78-36.78h-9.63A36.82,36.82,0,0,0,96.46,72.29v50.06a9.43,9.43,0,1,1-18.86,0V72.29a55.7,55.7,0,0,1,55.64-55.64h9.63a55.7,55.7,0,0,1,55.64,55.64v50.06A9.43,9.43,0,0,1,189.08,131.79Z"/><rect class="c" x="55.88" y="94.55" width="164.34" height="142.92" rx="16.17" ry="16.17"/><rect class="d" x="77.01" y="170.03" width="122.1" height="46.7" rx="6.24" ry="6.24"/><path class="e" d="M99.23,194.25l-1.5-.87,1.51-.87a1.77,1.77,0,0,0-1.77-3.06l-1.5.87v-1.73a1.77,1.77,0,1,0-3.54,0v1.74l-1.5-.87a1.77,1.77,0,1,0-1.77,3.06l1.5,0.87-1.5.87a1.77,1.77,0,0,0,1.77,3.06l1.5-.87v1.74a1.77,1.77,0,1,0,3.54,0v-1.74l1.5,0.87A1.77,1.77,0,0,0,99.23,194.25Z"/><path class="e" d="M121.16,194.25l-1.5-.87,1.5-.87a1.77,1.77,0,0,0-1.77-3.06l-1.5.87v-1.73a1.77,1.77,0,1,0-3.54,0v1.74l-1.51-.87a1.77,1.77,0,1,0-1.77,3.06l1.5,0.87-1.5.87a1.77,1.77,0,1,0,1.77,3.06l1.5-.87v1.74a1.77,1.77,0,1,0,3.54,0v-1.74l1.5,0.87A1.77,1.77,0,0,0,121.16,194.25Z"/><path class="e" d="M143.09,194.25l-1.5-.87,1.51-.87a1.77,1.77,0,0,0-1.77-3.06l-1.5.87v-1.73a1.77,1.77,0,1,0-3.54,0v1.74l-1.5-.87a1.77,1.77,0,0,0-1.77,3.06l1.51,0.87-1.5.87a1.77,1.77,0,1,0,1.77,3.06l1.5-.87v1.74a1.77,1.77,0,0,0,3.54,0v-1.74l1.5,0.87A1.77,1.77,0,0,0,143.09,194.25Z"/><path class="e" d="M165,194.25l-1.5-.87,1.51-.87a1.77,1.77,0,0,0-1.77-3.06l-1.5.87v-1.73a1.77,1.77,0,1,0-3.54,0v1.74l-1.5-.87a1.77,1.77,0,1,0-1.77,3.06l1.5,0.87-1.5.87a1.77,1.77,0,1,0,1.77,3.06l1.5-.87v1.74a1.77,1.77,0,0,0,3.54,0v-1.74l1.5,0.87A1.77,1.77,0,0,0,165,194.25Z"/><path class="e" d="M187,194.25l-1.5-.87,1.51-.87a1.77,1.77,0,0,0-1.77-3.06l-1.5.87v-1.73a1.77,1.77,0,1,0-3.54,0v1.74l-1.51-.87a1.77,1.77,0,0,0-1.77,3.06l1.51,0.87-1.5.87a1.77,1.77,0,1,0,1.77,3.06l1.5-.87v1.74a1.77,1.77,0,1,0,3.54,0v-1.74l1.5,0.87A1.77,1.77,0,0,0,187,194.25Z"/><path class="b" d="M102.46,137h-0.15l-0.46-2.81a9.66,9.66,0,0,0,2.48-1.82,10,10,0,0,0,2.66-4.72,2.76,2.76,0,0,0-.1-5.29,10,10,0,0,0-2.56-4.33A10.15,10.15,0,0,0,90,118a10,10,0,0,0-2.6,4.47,2.76,2.76,0,0,0-.11,5A10.06,10.06,0,0,0,92.22,134l-0.49,3A10.52,10.52,0,0,0,81.37,147.5v5.88H113V147.5A10.54,10.54,0,0,0,102.46,137Zm-3.62,1.49-0.44,1.67H95.93l-0.43-1.67h3.33Zm-0.46,2.78a0.66,0.66,0,0,1-.66.66H96.67a0.67,0.67,0,1,1,0-1.33h1.05A0.67,0.67,0,0,1,98.38,141.26Zm-1.07,9.58-2.23-1.57L96,142.44h2.38l1.1,6.75Z"/><path class="b" d="M143.37,137h-0.15l-0.46-2.81a9.66,9.66,0,0,0,2.48-1.82,10,10,0,0,0,2.66-4.72,2.76,2.76,0,0,0-.1-5.29,10,10,0,0,0-2.56-4.33,10.15,10.15,0,0,0-14.34,0,10,10,0,0,0-2.6,4.47,2.76,2.76,0,0,0-.11,5,10.06,10.06,0,0,0,4.94,6.58l-0.49,3a10.52,10.52,0,0,0-10.36,10.49v5.88h31.59V147.5A10.54,10.54,0,0,0,143.37,137Zm-3.62,1.49-0.44,1.67h-2.47l-0.43-1.67h3.33Zm-0.46,2.78a0.66,0.66,0,0,1-.66.66h-1.05a0.67,0.67,0,1,1,0-1.33h1.05A0.67,0.67,0,0,1,139.3,141.26Zm-1.07,9.58L136,149.26l0.93-6.82h2.38l1.1,6.75Z"/><path class="b" d="M186.08,137h-0.15l-0.46-2.81a9.66,9.66,0,0,0,2.48-1.82,10,10,0,0,0,2.66-4.72,2.76,2.76,0,0,0-.1-5.29A10,10,0,0,0,188,118a10.15,10.15,0,0,0-14.34,0,10,10,0,0,0-2.6,4.47,2.76,2.76,0,0,0-.11,5,10.06,10.06,0,0,0,4.94,6.58l-0.49,3A10.52,10.52,0,0,0,165,147.5v5.88h31.59V147.5A10.54,10.54,0,0,0,186.08,137Zm-3.62,1.49L182,140.16h-2.47l-0.43-1.67h3.33ZM182,141.26a0.66,0.66,0,0,1-.66.66h-1.05a0.67,0.67,0,1,1,0-1.33h1.05A0.67,0.67,0,0,1,182,141.26Zm-1.07,9.58-2.23-1.57,0.93-6.82H182l1.1,6.75Z"/></svg>