<svg xmlns="http://www.w3.org/2000/svg" viewBox="0 0 276.11 276.12"><defs><style>.a{fill:none;stroke:#fff;stroke-miterlimit:10;}.b{fill:#747474;}.c{fill:#f7f7f7;}.d{fill:#dfdfdf;}.e{fill:#73c5d8;}.f{fill:#616161;}.g{fill:#fff;}.h{fill:#1ba492;}.i,.k{fill:#8fd8ca;}.j{fill:#4e4e4e;}.k{fill-rule:evenodd;}</style></defs><title>All-icons</title><rect class="a" x="40.94" y="40.94" width="194.24" height="194.25" transform="translate(138.06 -57.18) rotate(45)"/><path class="b" d="M56.47,110.38H219.64a9.51,9.51,0,0,1,9.51,9.51v100a0,0,0,0,1,0,0H47a0,0,0,0,1,0,0v-100A9.51,9.51,0,0,1,56.47,110.38Z"/><rect class="c" x="56.81" y="124.08" width="162.49" height="82.09"/><polygon class="d" points="219.3 124.08 56.81 124.08 68.87 206.18 205.56 206.18 219.3 124.08"/><circle class="e" cx="138.06" cy="117.45" r="3.12"/><path class="f" d="M38.06,218.1h200a0,0,0,0,1,0,0v0.47a11.1,11.1,0,0,1-11.1,11.1H49.16a11.1,11.1,0,0,1-11.1-11.1V218.1a0,0,0,0,1,0,0Z"/><rect class="g" x="68.64" y="46.45" width="137.81" height="159.68"/><rect class="d" x="80.94" y="167.24" width="113.44" height="31.2"/><rect class="c" x="80.94" y="66.56" width="113.44" height="39.93"/><rect class="h" x="68.64" y="46.45" width="137.81" height="12.2"/><rect class="c" x="81.34" y="121.49" width="40.43" height="31.2"/><rect class="i" x="163.69" y="145.11" width="12.72" height="45.77" transform="translate(-64.61 122.46) rotate(-33.67)"/><path class="b" d="M153.23,116H119.91V92.91a10.26,10.26,0,0,1,10.25-10.25H143a10.26,10.26,0,0,1,10.25,10.25V116Zm-28.73-4.59h24.14V92.91A5.66,5.66,0,0,0,143,87.25H130.16a5.66,5.66,0,0,0-5.66,5.66v18.49Z"/><rect class="i" x="114.24" y="102.4" width="44.66" height="32.95" rx="3.45" ry="3.45"/><path class="h" d="M142.72,114.34a6.15,6.15,0,1,0-8.08,5.84v7.46a1.93,1.93,0,1,0,3.86,0v-7.46A6.15,6.15,0,0,0,142.72,114.34Z"/><path class="h" d="M203.56,200a10.17,10.17,0,1,1-16.92,11.28l-24-36a10.17,10.17,0,1,1,16.92-11.28Z"/><path class="j" d="M109.85,72.17A47,47,0,0,0,88.9,111.31h8.77a38.27,38.27,0,1,1,76.53,0H183A47,47,0,0,0,109.85,72.17ZM88.9,111.31a47,47,0,0,0,94.08,0h-8.77a38.24,38.24,0,0,1-17,31.85h0a38.27,38.27,0,0,1-59.49-31.85H88.9Z"/><path class="k" d="M173,162.91a6.36,6.36,0,1,0-6.36,6.36A6.37,6.37,0,0,0,173,162.91Z"/></svg>