<svg xmlns="http://www.w3.org/2000/svg" viewBox="0 0 215.01 201.4"><defs><style>.a{fill:#5fa190;}.b{fill:#f1f1f1;}.c{fill:#5ea190;}.d{fill:#6db098;}.e{fill:#b03e39;}.f{fill:#549180;}</style></defs><title>All-icons</title><rect class="a" x="13.33" y="68.52" width="64.35" height="64.35" transform="translate(84.53 -2.68) rotate(45)"/><rect class="a" x="137.33" y="68.52" width="64.35" height="64.35" transform="translate(120.85 -90.36) rotate(45)"/><rect class="b" x="36.3" y="29.49" width="142.41" height="142.41" transform="translate(102.69 -46.52) rotate(45)"/><path class="c" d="M157.93,122.26a13.45,13.45,0,0,1-3.1,2.88l2.67-4.83c1.67-3.21,3.62-6.33,4.84-9.71a47.68,47.68,0,0,0,2.87-16.47,56.23,56.23,0,0,0-1.79-13.75,37.65,37.65,0,0,0-4.83-11.49A34.81,34.81,0,0,1,160,76c0.68,5.14.75,9.41-.92,14.39a47.75,47.75,0,0,1-5.16,10.67,80.74,80.74,0,0,1-6.09,8c0.11-.3.19-0.61,0.32-0.9l1.34-3c0.45-1,.91-2,1.39-3a44.76,44.76,0,0,0,3.52-30.32,46.88,46.88,0,0,0-6.84-15.8,59.57,59.57,0,0,0-8.85-10.31c-1.33-1.25-2.33-2.15-3.77-3.32-0.39-.32-1.25-0.85-1.68-1.12-0.25,0-.31.33,0.25,1.12a85.19,85.19,0,0,1,5.16,7.59,22.42,22.42,0,0,1,1.73,16.06,55.88,55.88,0,0,1-10.86,21.72,3.73,3.73,0,0,0-.51,4.58,73.76,73.76,0,0,1,3.69,9,39.08,39.08,0,0,1-3,31c-4,7.52-10.39,12.71-17.57,17a19.26,19.26,0,0,1-1.87.86h0L109.72,129l0.26-.14,8,8,0.12-.09-5.51-11.4,15-2.44,0-.19-14.91-2.49,4.57-13.59c-2.84,3.19-4.68,7.06-7.56,10.18l-0.27-.08c-0.64-22.5-1.46-47.06-2.11-69.7a16.31,16.31,0,0,0-.06-2.21c-0.63,24-1.4,47.91-2,72.19-3-3.43-5.12-7.17-7.76-10.54l4.69,13.69L87.27,122.5v0.25L102,125.26l-5.46,11.27,0.26,0.2,7.77-7.81,0.21,0.16-0.44,21.16c-2-1.18-11.46-6-17.09-13.5-6.51-8.66-8.68-18.13-6.81-28.93,0.93-5.41,2.22-10.76,5-15.52,1-1.69.72-2.67-.22-4.13-2.58-4-5.15-7.95-7.41-12.1a34.44,34.44,0,0,1-4.4-15.46,24.13,24.13,0,0,1,6.18-17c1.34-1.57.58-1.44,0.38-1.29q-1,.7-1.94,1.44a51.89,51.89,0,0,0-11.36,13A53.25,53.25,0,0,0,63.78,62v0c-4.48,8.49-5.17,18.5-4.35,25.18a55.35,55.35,0,0,0,5.15,17.49L65,105.48c0.15,0.32.31,0.6,0.48,0.87a47.06,47.06,0,0,0,3.17,5.17,5.53,5.53,0,0,1,.51.9c-0.53-.58-3.89-4.66-4.39-5.27-3.91-4.71-7.21-9.89-8.62-15.83-1.69-7.15-2.93-14.79,0-22.19h0a49,49,0,0,0-3.83,7.47,46.52,46.52,0,0,0-2.47,23.13,56.14,56.14,0,0,0,2.62,11.33,49.13,49.13,0,0,0,4.22,9.09c0.53,0.93,1.06,1.93,1.59,2.72,0.75,1.25.95,1.47,1.47,2.39-0.08.05-1.78-1.27-4.63-5.65a58.56,58.56,0,0,1-4.84-9.32,17.7,17.7,0,0,0-.89-1.78,39.3,39.3,0,0,0,.8,6.18c0.87,3.87,2.19,7,4.86,12.09,4.83,9.22,11.5,16.75,20.59,22s18.81,7.41,29.11,7.71c0.89,0,1.77,0,2.65,0q1.9,0,3.79-.11a65.67,65.67,0,0,0,20.43-4.25,49.23,49.23,0,0,0,21.12-15,64.42,64.42,0,0,0,11.65-23.24c0.43-1.54.66-3.14,1-4.72A62,62,0,0,1,157.93,122.26Z"/><path class="d" d="M105.18,117.08c-3-3.43-5.12-7.17-7.76-10.54l4.69,13.69L87.27,122.5v0.25L102,125.26l-5.46,11.27,0.26,0.2,7.77-7.81,0.21,0.16-0.44,21.16a22.67,22.67,0,0,1-2.53-1,2.84,2.84,0,0,1-.35-0.22c-36.41-16.46-23.57-51.6-19.81-59.26C78.9,85.29,71.31,74.05,70.73,64.19c-0.49-10.61,4-17.28,7.05-20.12l0.3-.28a51.89,51.89,0,0,0-11.36,13A53.24,53.24,0,0,0,63.78,62c-1.7,6.45-6,17.73,5.38,50.17-0.17-.19-0.34-0.41-0.51-0.64a5.53,5.53,0,0,1,.51.89c-0.53-.58-3.89-4.66-4.39-5.27-3.91-4.71-7.21-9.89-8.62-15.83-1.69-7.15-2.93-14.79,0-22.19a36.65,36.65,0,0,0-2.95,8.71q-0.24,1.06-.46,2.24c-0.19,1-.36,2.16-0.51,3.35-0.18,1.48-.32,3.07-0.39,4.75q-0.07,1.52-.06,3.15a70.55,70.55,0,0,0,.51,8.16q0.15,1.24.35,2.53c0.33,2.15.77,4.39,1.34,6.71q0.51,2.09,1.16,4.28a97.75,97.75,0,0,0,4.6,12.27c-0.08.05-1.78-1.27-4.63-5.65a58.56,58.56,0,0,1-4.84-9.32,17.71,17.71,0,0,0-.89-1.78,39.3,39.3,0,0,0,.8,6.18c0.87,3.87,2.19,7,4.86,12.09,4.83,9.22,11.5,16.75,20.59,22s18.81,7.41,29.11,7.71c0.89,0,1.77,0,2.65,0L107.22,44.89C106.59,68.84,105.82,92.8,105.18,117.08Z"/><path class="e" d="M107.22,44.89l0.06,2.21A16.31,16.31,0,0,0,107.22,44.89Z"/><path class="e" d="M65.48,106.36L65,105.48C65.15,105.8,65.31,106.08,65.48,106.36Z"/><path class="f" d="M70.73,64.19c0.58,9.86,8.17,21.1,10.94,25.57-3.76,7.66-16.6,42.8,19.81,59.26,0.93,0.42,1.88.83,2.88,1.23-2-1.18-11.46-6-17.09-13.5-6.51-8.66-8.68-18.13-6.81-28.93,0.93-5.41,2.22-10.76,5-15.52,1-1.69.72-2.67-.22-4.13-2.58-4-5.15-7.95-7.41-12.1a34.44,34.44,0,0,1-4.4-15.46,24.13,24.13,0,0,1,6.18-17c1.34-1.57.58-1.44,0.38-1.29q-1,.7-1.94,1.44l-0.3.28C74.68,46.91,70.24,53.58,70.73,64.19Z"/><path class="f" d="M162.34,110.61a47.68,47.68,0,0,0,2.87-16.47,84.76,84.76,0,0,1-7.71,26.18C159.17,117.1,161.12,114,162.34,110.61Z"/><path class="f" d="M138,148.63c-7.4,4.49-17.3,6.73-26.83,7.77a65.68,65.68,0,0,0,20.43-4.25,49.23,49.23,0,0,0,21.12-15,64.42,64.42,0,0,0,11.65-23.24c0.43-1.54.66-3.14,1-4.72C161.79,119.09,152.89,139.63,138,148.63Z"/><path class="f" d="M149.48,105.23c0.45-1,.91-2,1.39-3a44.76,44.76,0,0,0,3.52-30.32,46.88,46.88,0,0,0-6.84-15.8c3.11,6.76,5.61,14.61,5.8,22.64C153.52,91.91,151.53,99.88,149.48,105.23Z"/><path class="f" d="M109.72,129l0.26-.14,8,8,0.12-.09-5.51-11.4,15-2.44,0-.19-14.91-2.49,4.57-13.59c-2.84,3.19-4.68,7.06-7.56,10.18l-0.27-.08c-0.64-22.5-1.46-47.06-2.11-69.7l-0.06-2.21,0.19,111.62,2.86-6.14Z"/><path class="d" d="M133,90.55c18.22-28.58,9.93-38.82.29-49.17-0.25,0-.31.33,0.25,1.12a85.19,85.19,0,0,1,5.16,7.59,22.42,22.42,0,0,1,1.73,16.06,55.88,55.88,0,0,1-10.86,21.72,3.73,3.73,0,0,0-.51,4.58,73.76,73.76,0,0,1,3.69,9,39.08,39.08,0,0,1-3,31c-4,7.52-10.39,12.71-17.57,17a19.26,19.26,0,0,1-1.87.86C155.19,132.21,133,91.86,133,90.55Z"/></svg>