<svg xmlns="http://www.w3.org/2000/svg" viewBox="0 0 150 150"><defs><style>.a{fill:#00a693;}</style></defs><title>All-icons</title><path class="a" d="M56.64,78a18,18,0,1,0,18-18A18,18,0,0,0,56.64,78Zm18-14a14,14,0,1,1-14,14A14,14,0,0,1,74.67,64Z"/><path class="a" d="M129.87,24.76H147a2,2,0,0,0,0-4H129.87A2,2,0,0,0,129.87,24.76Z"/><path class="a" d="M129.87,34.71h10.67a2,2,0,0,0,0-4H129.87A2,2,0,0,0,129.87,34.71Z"/><path class="a" d="M140.54,124.87H122.63a2,2,0,1,0,0,4h17.91A2,2,0,0,0,140.54,124.87Z"/><path class="a" d="M133.87,134.21H122.63a2,2,0,0,0,0,4h11.24A2,2,0,0,0,133.87,134.21Z"/><path class="a" d="M138.48,66.49a11.45,11.45,0,0,0-3.94.71L117.67,38A18,18,0,1,0,88.79,20.76H54.53A11.94,11.94,0,1,0,35.14,32L14.33,68a10.61,10.61,0,1,0,0,20l20.49,35.48a12.59,12.59,0,1,0,20.37,11.76H94.36a12,12,0,1,0,19.73-11l20.45-35.42A11.53,11.53,0,1,0,138.48,66.49Zm-7.41,2.7a11.61,11.61,0,0,0-1.45,1.46l-21-12V41.7a17.88,17.88,0,0,0,5.69-1.62Zm-3.23,13.29-19.27,11V63.22l19.06,10.91A11.42,11.42,0,0,0,127.84,82.48ZM106.57,9.71A14.06,14.06,0,1,1,92.52,23.76,14.07,14.07,0,0,1,106.57,9.71Zm-2,32V56.32l-26.19-15,13.16-7.6A18.07,18.07,0,0,0,104.57,41.7Zm0,19.23V95.75l-29.82,17-30-17.38V60.76l29.61-17.1Zm-50-36.17h34a17.91,17.91,0,0,0,1.15,5.42L74.37,39,53.82,27.29A11.84,11.84,0,0,0,54.53,24.76Zm-2.84,5.92L70.36,41.36,44.76,56.14V34.53A11.93,11.93,0,0,0,51.69,30.68ZM34.81,22.76a8,8,0,1,1,8,8A8,8,0,0,1,34.81,22.76ZM38.61,34a11.83,11.83,0,0,0,2.15.58V58.45L18.87,71.09A10.72,10.72,0,0,0,17.79,70ZM20.87,74.55L40.76,63.07V93L20.87,81.51A10.42,10.42,0,0,0,20.87,74.55Zm-10,10.08A6.61,6.61,0,1,1,17.47,78,6.62,6.62,0,0,1,10.86,84.63ZM17.79,86A10.7,10.7,0,0,0,18.86,85l21.91,12.7v23.19a12.48,12.48,0,0,0-2.48.66Zm25,55.85a8.6,8.6,0,1,1,8.6-8.6A8.61,8.61,0,0,1,42.76,141.88Zm2-21V100l26,15.05L52.57,125.39A12.59,12.59,0,0,0,44.76,120.86Zm49.6,10.42H55.19a12.47,12.47,0,0,0-.64-2.41l20.19-11.51L95,129.08A11.86,11.86,0,0,0,94.36,131.28ZM97,125.62l-18.2-10.55,25.82-14.72v21A12,12,0,0,0,97,125.62Zm17.24,7.66a8,8,0,1,1-8-8A8,8,0,0,1,114.19,133.28Zm-3.51-11.12a11.89,11.89,0,0,0-2.11-.64V98.07L130,85.84a11.59,11.59,0,0,0,1,1Zm27.79-36.61A7.53,7.53,0,1,1,146,78,7.54,7.54,0,0,1,138.48,85.56Z"/></svg>