<svg xmlns="http://www.w3.org/2000/svg" viewBox="0 0 150 150"><defs><style>.a{fill:#00a693;}</style></defs><title>All-icons</title><path class="a" d="M130.82,7.21H33.21a2,2,0,1,0,0,4h95.61V125.59a2,2,0,0,0,4,0V9.21A2,2,0,0,0,130.82,7.21Z"/><path class="a" d="M98.79,111H36.41a2,2,0,0,0,0,4H98.79A2,2,0,1,0,98.79,111Z"/><path class="a" d="M98.79,123.59H36.41a2,2,0,0,0,0,4H98.79A2,2,0,1,0,98.79,123.59Z"/><path class="a" d="M67.9,101.56A26.47,26.47,0,0,0,86.42,94l0.12-.1,0.07-.09A26.55,26.55,0,1,0,67.9,101.56ZM90.46,75a22.45,22.45,0,0,1-5.37,14.59L69.9,74.18V52.53A22.59,22.59,0,0,1,90.46,75ZM65.9,52.53V75a2,2,0,0,0,.58,1.4l15.77,16A22.55,22.55,0,1,1,65.9,52.53Z"/><path class="a" d="M118.66,46a2,2,0,0,0-.18-0.48l-0.06-.11A2,2,0,0,0,118.1,45h0L95.31,22.77l-0.06,0a2,2,0,0,0-.35-0.25l-0.13-.07a2,2,0,0,0-.47-0.16H94.23a2,2,0,0,0-.32,0H19.1a2,2,0,0,0-2,2V140.59a2,2,0,0,0,2,2H116.7a2,2,0,0,0,2-2V46.4a2,2,0,0,0,0-.41h0Zm-22.74-17L111.78,44.4H95.92V28.95ZM21.1,138.59V26.21H91.92V46.4a2,2,0,0,0,2,2H114.7v90.19H21.1Z"/></svg>