<svg xmlns="http://www.w3.org/2000/svg" viewBox="0 0 150 150"><defs><style>.a{fill:#00a693;}</style></defs><title>All-icons</title><path class="a" d="M9,139V108.59a2,2,0,0,0-2-2H7a2,2,0,0,0-2,2V143a2,2,0,0,0,2,2H41.41a2,2,0,0,0,2-2h0a2,2,0,0,0-2-2H11A2,2,0,0,1,9,139Z"/><path class="a" d="M141,11V41.41a2,2,0,0,0,2,2h0a2,2,0,0,0,2-2V7a2,2,0,0,0-2-2H108.59a2,2,0,0,0-2,2h0a2,2,0,0,0,2,2H139A2,2,0,0,1,141,11Z"/><path class="a" d="M11,9H41.41a2,2,0,0,0,2-2h0a2,2,0,0,0-2-2H7A2,2,0,0,0,5,7V41.41a2,2,0,0,0,2,2H7a2,2,0,0,0,2-2V11A2,2,0,0,1,11,9Z"/><path class="a" d="M139,141H108.59a2,2,0,0,0-2,2h0a2,2,0,0,0,2,2H143a2,2,0,0,0,2-2V108.59a2,2,0,0,0-2-2h0a2,2,0,0,0-2,2V139A2,2,0,0,1,139,141Z"/><path class="a" d="M40.58,37.18v39a2,2,0,0,0,2,2H53.81a2,2,0,0,0,2-2v-39a2,2,0,0,0-2-2H42.58A2,2,0,0,0,40.58,37.18Zm4,2h7.23v35H44.58v-35Z"/><path class="a" d="M103.94,36.71l-18-18.56a2,2,0,0,0-3.43,1.39V35.18H62.15a2,2,0,0,0-2,2v39a2,2,0,0,0,2,2H82.48V93.8a2,2,0,0,0,3.43,1.39L106.59,73.9,122,58.07a2,2,0,0,0,0-2.79L110.45,43.41l-3.86-4Zm13.8,20L106.59,68.16,86.48,88.87V76.16a2,2,0,0,0-2-2H64.15v-35H84.48a2,2,0,0,0,2-2V24.47l20.11,20.71Z"/><path class="a" d="M71.91,97.63H64a2,2,0,0,0-2,2V118.1a2,2,0,0,0,2,2h7.89a2,2,0,0,0,2-2V99.63A2,2,0,0,0,71.91,97.63Zm-2,18.47H66V101.63h3.89V116.1Z"/><path class="a" d="M28.38,110.26l8.45,8.7a2,2,0,0,0,.9.93l5.69,5.86,2,2.11a2,2,0,0,0,3.43-1.39V120.1h6.92a2,2,0,0,0,2-2V99.63a2,2,0,0,0-2-2H48.9V91.27a2,2,0,0,0-3.43-1.39l-2,2.11-5.69,5.86a2,2,0,0,0-.9.93l-7.59,7.81-0.86.88A2,2,0,0,0,28.38,110.26Zm6.43-3.67,5.26-5.41,0.07-.07,0.08-.08,3.2-3.29L44.9,96.2v3.43a2,2,0,0,0,2,2h6.92V116.1H46.9a2,2,0,0,0-2,2v3.43L43.41,120l-3.2-3.29-0.07-.07-0.08-.08-7.46-7.69Z"/></svg>