<svg xmlns="http://www.w3.org/2000/svg" viewBox="0 0 154.76 133.06"><defs><style>.a{fill:#3e6a5c;}.b{fill:#5d9a8a;}.c{fill:#558d7c;}.d{fill:#8a9e5d;}.e{fill:#acc274;}.f{fill:#fefefe;}.g{fill:#a1b868;}.h{fill:#d5e9f3;}.i{fill:#3c4044;}</style></defs><title>All-icons</title><path class="a" d="M153.91,41.53l-0.19-.17a7.81,7.81,0,0,0-.95-0.65,8.48,8.48,0,0,0-2.37-.94,15.56,15.56,0,0,0-5-.25,26.43,26.43,0,0,0-5,.94c-1.46.41-2.89,0.94-4.26,1.46l-0.46.17a32.07,32.07,0,0,1-4.61,1.33,33.29,33.29,0,0,1-4.69.63,36.63,36.63,0,0,1-4.8,0,52,52,0,0,0-5.21-.18,32.88,32.88,0,0,0-10.23,1.64,26.11,26.11,0,0,0-5.45-7.6l0,0c-2.67-2.71-9.76-9.91-23.9-9.66A30.07,30.07,0,0,0,58.89,35C52.27,40.17,49.71,44,48.81,45.72a46,46,0,0,0-13.7-1.88c-0.86,0-1.72,0-2.55.09S30.88,44,30.06,44a33.89,33.89,0,0,1-4.89-.39,29.25,29.25,0,0,1-4.74-1.18l-1.87-.65c-0.93-.33-1.9-0.67-2.87-1a35,35,0,0,0-5-1.21,16.27,16.27,0,0,0-5.3,0,15.19,15.19,0,0,0-2.25.59A7.34,7.34,0,0,0,1.6,41l-0.35.22c-0.52.32-1.58,1.54-1.16,2.68,0.24,0.65.8,0.76,2.67,1.12l0.25,0a19,19,0,0,1,3.51,1c4.63,1.9,5.85,5.9,6.93,9.43a26.6,26.6,0,0,0,1.2,3.41A29.51,29.51,0,0,0,26.84,72.33a26.16,26.16,0,0,0,6.36,2.61,19.09,19.09,0,0,0,.1,4.31,21.84,21.84,0,0,0,.87,4.26,17.46,17.46,0,0,0,1.68,3.61,19.64,19.64,0,0,0,2.4,3.14,24.77,24.77,0,0,0,3,2.71A33.45,33.45,0,0,0,45,95.48a38.08,38.08,0,0,0,4,2C50.36,98,51.76,98.54,53.23,99s2.76,0.81,4.3,1.18h0c0.71,0.17,1.44.34,2.18,0.48,0.41,0.08.81,0.13,1.2,0.18s0.77,0.1,1.13.17c0.17,0,.48.06,1.38,0.13,1.17,0.09,2.93.23,3.74,0.39a9.52,9.52,0,0,1,1.75.5,25.58,25.58,0,0,0,9.68,2.13,14,14,0,0,0,2.78-.25,28.62,28.62,0,0,0,6.55-2.16l0.23-.11a4,4,0,0,1,.62-0.26,3.31,3.31,0,0,1,.78-0.09c0.84,0,12.69-1.52,21.38-5.56a25.8,25.8,0,0,0,6.69-4.92,17.39,17.39,0,0,0,2.23-2.91,15.76,15.76,0,0,0,1.49-3.23,16.11,16.11,0,0,0,.74-3.53,42.56,42.56,0,0,0-.33-7.09,27,27,0,0,0,8.52-3.6h0a31.89,31.89,0,0,0,7.39-7.88,48.79,48.79,0,0,0,3.63-6.29c0.51-1,1-2.17,1.5-3.33,0.23-.55.46-1.12,0.68-1.7l0.14-.36c0.15-.38.28-0.74,0.45-1.08a6.87,6.87,0,0,1,1.51-2,8.43,8.43,0,0,1,2.19-1.43,15.91,15.91,0,0,1,3.36-1.06c0.6-.13,1.22-0.24,1.82-0.36l0.12,0a1.91,1.91,0,0,0,1.44-.83l0,0,0-.1,0-.06A2,2,0,0,0,153.91,41.53Z"/><path class="b" d="M152.5,42.86l0,0,0,0a5.92,5.92,0,0,0-.71-0.48,6.5,6.5,0,0,0-1.81-.72,13.68,13.68,0,0,0-4.36-.2,24.48,24.48,0,0,0-4.58.87c-1.38.39-2.71,0.88-4.11,1.4l-0.46.17a34.06,34.06,0,0,1-4.9,1.41,35.28,35.28,0,0,1-5,.67,38.63,38.63,0,0,1-5.06,0c-1.65-.11-3.35-0.23-5-0.18a30,30,0,0,0-10.06,1.69l-0.47.16-0.78.24-0.39-.72c-0.06-.12-0.13-0.26-0.21-0.46a23.55,23.55,0,0,0-5.25-7.46l0,0C96.73,36.56,90.07,29.8,76.79,30a28.08,28.08,0,0,0-16.73,6.37C51.71,43,50.24,47.12,50.22,47.16l-0.34,1-1-.41S44,45.77,35,45.7c-0.8,0-1.59,0-2.42.09s-1.75.1-2.64,0.09a35.87,35.87,0,0,1-5.18-.41,31.22,31.22,0,0,1-5.06-1.26l-1.91-.66c-0.91-.32-1.86-0.66-2.79-0.94a33.11,33.11,0,0,0-4.73-1.15,14.29,14.29,0,0,0-4.65,0,13.21,13.21,0,0,0-2,.52,6.05,6.05,0,0,0-1.08.61l-0.37.23h0L3.09,43l0.25,0a20.65,20.65,0,0,1,3.88,1.06c5.5,2.25,6.93,6.93,8.08,10.69A25.23,25.23,0,0,0,16.41,58,27.53,27.53,0,0,0,27.77,70.48a22.31,22.31,0,0,0,6.66,2.59l1,0.16-0.2,1a15.13,15.13,0,0,0,0,4.66A20,20,0,0,0,36,82.77c0.08,0.26.2,0.5,0.3,0.75a19.45,19.45,0,0,0,4.35,5.39c4,3.54,8.74,5.47,13.73,7.08a53.26,53.26,0,0,0,12.2,2.1c0.31,0,.62,0,1,0-0.14-.83-0.92-1.24-0.94-2.26,7.47,7.26,14.89,7.4,22.38.23,0,0.71-.69,1.22-0.69,2a39.06,39.06,0,0,0,7.31-.79,63.79,63.79,0,0,0,10-2.65c3.89-1.43,7.62-3.23,10.57-6.18A18.37,18.37,0,0,0,119,84.93c0.14-.33.28-0.66,0.39-1a14.13,14.13,0,0,0,.65-3.1,46,46,0,0,0-.43-7.5l-0.15-.91,0.9-.21a26.21,26.21,0,0,0,8.71-3.51,29.92,29.92,0,0,0,6.9-7.38,46.83,46.83,0,0,0,3.48-6c0.49-1,1-2.1,1.45-3.22,0.22-.53.45-1.09,0.66-1.65l0.13-.35c0.15-.41.31-0.83,0.52-1.25a8.85,8.85,0,0,1,1.95-2.63,10.4,10.4,0,0,1,2.71-1.77,17.82,17.82,0,0,1,3.78-1.19c0.61-.13,1.23-0.25,1.82-0.36h0Z"/><path class="a" d="M74.59,54.59c-1.14.08,0.69,3.73-3.64,6.88-3.56,2.08-16.11-1.05-23.59,1.63s-9.05,6.18-9.72,8.05a4.56,4.56,0,0,0,.5,3.65s29.31-.6,31-0.9,3-.43,3.67-2.5a75.79,75.79,0,0,0,2.45-10.69C75.88,56.84,75.6,54.71,74.59,54.59Z"/><path class="c" d="M38.72,70.88a1.9,1.9,0,0,1-1.22.75,4.73,4.73,0,0,0,.63,3.17s29.31-.6,31-0.9,3-.43,3.67-2.5c0.39-1.13.91-3.08,1.4-5.24a33.12,33.12,0,0,1-9.13.94C52.13,67.12,40.86,67.67,38.72,70.88Z"/><path class="a" d="M79.68,54.59c1.14,0.08-.69,3.73,3.64,6.88,3.56,2.08,16.11-1.05,23.59,1.63s9.05,6.18,9.72,8.05a4.56,4.56,0,0,1-.5,3.65s-29.31-.6-31-0.9-3-.43-3.67-2.5A75.79,75.79,0,0,1,79,60.72C78.39,56.84,78.67,54.71,79.68,54.59Z"/><path class="c" d="M115.55,70.88a1.9,1.9,0,0,0,1.22.75,4.73,4.73,0,0,1-.63,3.17s-29.31-.6-31-0.9-3-.43-3.67-2.5c-0.39-1.13-.91-3.08-1.4-5.24a33.12,33.12,0,0,0,9.13.94C102.14,67.12,113.41,67.67,115.55,70.88Z"/><path class="c" d="M36.67,64.61a0.68,0.68,0,0,1,.25-0.73A0.77,0.77,0,0,1,36.67,64.61Z"/><path class="d" d="M52,51.73l-0.26.18c-0.08-.29.17-0.12,0.26-0.18h0Z"/><path class="d" d="M103.9,52.7l0.32,0.09c-0.18.23-.23,0-0.32-0.09h0Z"/><path class="d" d="M68.71,84a0.53,0.53,0,0,1-.25.49A0.5,0.5,0,0,1,68.71,84Z"/><path class="a" d="M114.34,58.53l0.24,0.27Z"/><path class="d" d="M87.4,85q0-.12,0-0.24a1.33,1.33,0,0,1,.1.17A0.43,0.43,0,0,1,87.4,85Z"/><path class="d" d="M68.46,84.5l-0.25.24Z"/><path class="c" d="M36.64,64.83a1,1,0,0,1-.06-0.17,0.34,0.34,0,0,1,.1-0.05A1.11,1.11,0,0,1,36.64,64.83Z"/><path class="c" d="M132.29,49.57c-0.29.74-.74,0.55-1.22,0.21Z"/><path class="e" d="M46.91,63.15l-0.29.21Z"/><path class="a" d="M90,73.1c-0.24-.19-0.32-0.36,0-0.48Z"/><path class="f" d="M54.16,69.25c0-.12.06-0.23,0.2-0.1A0.21,0.21,0,0,1,54.16,69.25Z"/><path class="d" d="M101,65.32c0.16-.24.31-0.24,0.47,0H101Z"/><polygon class="g" points="36.92 63.88 36.92 63.88 36.92 63.87 36.92 63.88"/><polygon class="g" points="36.67 64.61 36.67 64.6 36.67 64.6 36.67 64.61"/><polygon class="g" points="68.47 84.5 68.46 84.5 68.46 84.51 68.47 84.5"/><polygon class="g" points="68.71 84.02 68.7 84.02 68.7 84.02 68.71 84.02"/><polygon class="g" points="80.37 75.03 80.36 75.02 80.36 75.02 80.37 75.03"/><path class="g" d="M47.84,48.82h0Z"/><path class="g" d="M25.23,69.49v0h0v0Z"/><path class="g" d="M43.2,52.72L43,52.47A0.23,0.23,0,0,0,43.2,52.72Z"/><path class="g" d="M107.25,76.05l0.22,0.35-0.19-.47A0.1,0.1,0,0,0,107.25,76.05Z"/><polygon class="c" points="36.67 64.6 36.67 64.6 36.67 64.61 36.67 64.6"/><polygon class="c" points="36.92 63.88 36.92 63.87 36.91 63.88 36.92 63.88"/><polygon class="c" points="90.09 72.62 90.08 72.62 90.08 72.62 90.09 72.62"/><polygon class="c" points="48.08 73.82 48.07 73.82 48.07 73.83 48.08 73.82"/><path class="c" d="M114,81.05a30.79,30.79,0,0,0-4.21.26l-0.12.09,0.09-.11,2.43-1.71c-1.57.09-2.42,1.21-3.62,1.48-1.93,2.08-4.53,3.19-6.81,4.77-0.09.61-1,.58-1,1.29A8.9,8.9,0,0,0,103.1,86c3.81-2.11,7.61-4.26,12.07-4.71A1.33,1.33,0,0,0,114,81.05Z"/><path class="c" d="M53.55,85.59c-2-1.3-4.2-2.25-5.83-4-1.32-.49-2.41-1.52-3.9-1.63,0.86,0.7,2,1,2.7,1.86l0.31,0.09L46.76,82l-0.26-.18a15.54,15.54,0,0,0-5.6-.39l1.24,0.4a27.33,27.33,0,0,1,8.93,3.45,18,18,0,0,0,4.17,2.13C55,86.47,53.89,86.4,53.55,85.59Z"/><path class="a" d="M77,32.09l0,0.18c0,0.12.05,0.29,0.09,0.51,0.07,0.44.16,1.06,0.25,1.81s0.18,1.62.25,2.56c0,0.23,0,.47.05,0.71s0,0.49,0,.73c0,0.49,0,1,.07,1.5s0,1,0,1.5q0,0.37,0,.73c0,0.24,0,.48,0,0.72,0,0.94,0,1.82-.06,2.57s-0.08,1.38-.12,1.82c0,0.22,0,.39-0.05.51l0,0.18,0-.18c0-.12-0.05-0.29-0.09-0.51-0.07-.44-0.17-1.06-0.25-1.81S77,44,77,43.06c0-.23,0-0.47-0.05-0.71s0-.49,0-0.73c0-.49,0-1-0.07-1.5s0-1,0-1.5c0-.25,0-0.49,0-0.73s0-.48,0-0.72c0-.94,0-1.82.06-2.57s0.08-1.38.12-1.82c0-.22,0-0.39.05-0.51Z"/><path class="a" d="M79.36,33.87a2.34,2.34,0,0,1,.29-0.12l0.34-.1,0.45-.09c0.17,0,.35,0,0.54-0.05h0.6l0.32,0,0.32,0,0.33,0.05,0.33,0.08a5.91,5.91,0,0,1,.64.19L83.82,34l0.29,0.13a4.8,4.8,0,0,1,.53.29l0.24,0.15,0.21,0.16c0.13,0.11.25,0.2,0.35,0.29l0.25,0.26,0.15,0.17,0.05,0.06-0.08,0-0.22-.05-0.33-.09-0.42-.11-0.23-.07-0.25-.07L83.79,35l-0.57-.15-0.59-.15-0.3-.08L82,34.53l-0.58-.14-1-.25L79.66,34l-0.22-.06Z"/><path class="a" d="M75,33.77l-0.08,0-0.22.06-0.35.08L73.89,34l-0.52.09-0.57.09-0.61.09-0.63.09-0.32,0-0.31,0-0.31,0-0.3,0L70,34.6l-0.28,0-0.52.06-0.45,0-0.35,0-0.23,0H68.11l0.06-.06,0.18-.15,0.29-.21,0.4-.23L69.29,34l0.26-.11,0.28-.11,0.3-.1a5.61,5.61,0,0,1,.63-0.17l0.33-.07,0.33-.05c0.22,0,.45-0.05.67-0.07h0.65l0.61,0,0.54,0.08a5.36,5.36,0,0,1,.8.21A2.81,2.81,0,0,1,75,33.77Z"/><path class="a" d="M74.43,38.52l-0.62.08-1.61.2L70,39.07l-1.27.16L68,39.32l-0.65.09-0.65.1-0.32,0-0.32.05c-0.43.08-.85,0.13-1.25,0.21S64,40,63.66,40l-0.54.11-0.26,0-0.25.06-0.89.2L61,40.64l-0.45.1-0.16,0,0.14-.09L61,40.45c0.17-.1.38-0.22,0.63-0.35l0.84-.39,0.24-.1,0.25-.09,0.53-.19c0.37-.14.76-0.24,1.17-0.36,0.2-.06.41-0.12,0.63-0.16l0.65-.14,0.33-.07,0.33-.06,0.67-.11c0.45-.06.9-0.11,1.34-0.16l0.66,0,0.64,0c0.42,0,.83,0,1.22,0s0.75,0,1.09,0l0.92,0.08,0.71,0.1,0.45,0.08Z"/><path class="a" d="M80.41,38.5l0.16,0L81,38.4c0.38-.05.94-0.11,1.6-0.15s1.43,0,2.26,0c0.41,0,.84,0,1.28.07s0.87,0.08,1.31.14,0.88,0.13,1.31.22S89.62,38.84,90,39l0.59,0.17,0.56,0.19,0.52,0.2,0.48,0.21L92.61,40,93,40.17a5.6,5.6,0,0,1,.57.42,3.16,3.16,0,0,1,.33.31L94,41,93.86,41a4.38,4.38,0,0,0-.4-0.19c-0.17-.08-0.39-0.15-0.64-0.24l-0.4-.13L92,40.27l-0.49-.12L91,40l-0.56-.11-0.58-.11-0.61-.1-0.31,0-0.31,0L88,39.52l-0.64-.09L86,39.26l-1.25-.16L83.63,39l-1-.14L81,38.6Z"/><path class="a" d="M74.45,44.87l-1,.1-1.15.12-1.48.16-1.75.21-1.94.26-1,.15-1,.16c-0.7.12-1.41,0.24-2.12,0.38l-0.53.1-0.53.11-1,.23L60.33,47l-0.51.13-1,.27-1,.28-0.9.29-0.85.3-0.78.31c-0.5.21-1,.4-1.35,0.6s-0.73.38-1,.52L52.33,50l-0.23.13L52.3,50l0.24-.21a4.29,4.29,0,0,1,.33-0.28c0.26-.19.56-0.45,0.94-0.69s0.81-.52,1.29-0.79l0.77-.4,0.84-.39,0.91-.37,1-.35c0.66-.22,1.34-0.43,2-0.61,0.35-.09.71-0.18,1.07-0.26l0.54-.12,0.54-.11A40.78,40.78,0,0,1,67,44.83l1-.07,1-.05c0.63,0,1.23,0,1.78,0s1.05,0,1.5,0,0.84,0,1.15.07l0.74,0.07Z"/><path class="a" d="M80.1,44.66l0.29,0,0.81,0h1.25c0.48,0,1,0,1.62,0,1.19,0,2.58.15,4.06,0.31l1.13,0.14,1.15,0.16c0.77,0.12,1.56.26,2.34,0.41s1.56,0.34,2.32.54l0.57,0.15,0.56,0.16,1.09,0.34c0.71,0.24,1.39.5,2,.77a18,18,0,0,1,1.74.87,12,12,0,0,1,1.37.91,8.36,8.36,0,0,1,.95.84,6.25,6.25,0,0,1,.52.62l0.16,0.24-0.2-.2-0.25-.23-0.17-.14-0.19-.15a10.91,10.91,0,0,0-1-.68,14.93,14.93,0,0,0-1.42-.71A28.88,28.88,0,0,0,97,47.72c-0.7-.2-1.44-0.39-2.19-0.56s-1.52-.34-2.28-0.5-1.54-.3-2.3-0.44L89.11,46,88,45.84c-1.46-.24-2.82-0.44-4-0.61Z"/><path class="h" d="M57,86A10.38,10.38,0,1,1,67.43,75.64,10.39,10.39,0,0,1,57,86Z"/><path class="a" d="M57,65.81a9.83,9.83,0,1,1-9.83,9.83A9.83,9.83,0,0,1,57,65.81m0-1.1A10.93,10.93,0,1,0,68,75.64,10.95,10.95,0,0,0,57,64.7h0Z"/><circle class="i" cx="57.05" cy="75.64" r="7"/><circle class="h" cx="59.2" cy="72.79" r="2.51"/><path class="h" d="M97.92,86A10.38,10.38,0,1,1,108.3,75.64,10.39,10.39,0,0,1,97.92,86Z"/><path class="a" d="M97.92,65.81a9.83,9.83,0,1,1-9.83,9.83,9.83,9.83,0,0,1,9.83-9.83m0-1.1a10.93,10.93,0,1,0,10.93,10.93A10.95,10.95,0,0,0,97.92,64.7h0Z"/><circle class="i" cx="98.21" cy="75.03" r="7"/><circle class="h" cx="100.35" cy="72.19" r="2.51"/><path class="c" d="M71.75,84l0,0-0.05.12c0,0.1-.11.23-0.19,0.37l-0.12.22-0.07.11L71.23,85c-0.05.08-.09,0.16-0.14,0.23l-0.14.23c0,0.08-.1.15-0.13,0.23l-0.07.11-0.06.11L70.62,86l-0.05.11-0.06.11,0,0.11-0.1.2-0.07.17-0.06.12,0,0,0,0-0.08-.1L70,86.59a1.72,1.72,0,0,1-.09-0.24,1.38,1.38,0,0,1,0-.15c0-.05,0-0.1,0-0.16s0-.11,0-0.17,0-.12,0-0.18,0-.12,0-0.18l0.06-.18A1.87,1.87,0,0,1,70.1,85a2.39,2.39,0,0,1,.22-0.3,2.15,2.15,0,0,1,.26-0.25,2,2,0,0,1,.55-0.31A1.62,1.62,0,0,1,71.57,84h0.18Z"/><path class="c" d="M74.48,84.75v0s0,0.07,0,.12,0,0.11,0,.18,0,0.14,0,.22,0,0.16,0,.25,0,0.18,0,.27,0,0.18,0,.27,0,0.18-.05.27l-0.06.27-0.07.26,0,0.13,0,0.12-0.08.23L74,87.6l-0.06.17-0.05.12,0,0,0,0-0.09-.09-0.12-.15-0.12-.22a1.45,1.45,0,0,1-.1-0.27s0-.1,0-0.15,0-.1,0-0.16,0-.11,0-0.17,0-.11,0-0.17a2.1,2.1,0,0,1,0-.34,2.37,2.37,0,0,1,.09-0.33,2.43,2.43,0,0,1,.14-0.3,2.25,2.25,0,0,1,.17-0.26A1.92,1.92,0,0,1,74,85.09a1.66,1.66,0,0,1,.34-0.26Z"/><path class="c" d="M78.46,85.69l0,0,0.09,0.08a1.52,1.52,0,0,1,.23.32,1.86,1.86,0,0,1,.11.22,2.13,2.13,0,0,1,.08.26,2.23,2.23,0,0,1,.06.56,2.33,2.33,0,0,1,0,.29,2.12,2.12,0,0,1-.06.27,2.62,2.62,0,0,1-.09.25,2.35,2.35,0,0,1-.11.22l-0.12.18-0.11.13-0.08.08,0,0,0,0-0.06-.1a2.47,2.47,0,0,1-.15-0.35c0-.07,0-0.14-0.07-0.22a2.46,2.46,0,0,1-.05-0.24c0-.08,0-0.17,0-0.26s0-.17,0-0.26a3.07,3.07,0,0,1,.17-1,3.2,3.2,0,0,1,.14-0.34Z"/><path class="c" d="M82.41,84.5h0.05l0.15,0,0.22,0.07a1.89,1.89,0,0,1,.27.13,2.17,2.17,0,0,1,.29.21l0.14,0.13,0.13,0.15a2.45,2.45,0,0,1,.24.35,3.54,3.54,0,0,1,.19.39,3.43,3.43,0,0,1,.12.41,3,3,0,0,1,.06.41c0,0.13,0,.26,0,0.38s0,0.24-.05.34l0,0.15,0,0.13L84.05,88,84,88.13l0,0,0,0L83.85,88l-0.1-.2-0.11-.25c0-.09-0.08-0.19-0.11-0.29s-0.08-.2-0.12-0.31-0.09-.21-0.12-0.32-0.09-.21-0.12-0.32L83,86c0-.1-0.08-0.21-0.12-0.31l-0.06-.15-0.06-.14-0.06-.14-0.06-.13-0.11-.24-0.09-.2-0.06-.13Z"/><polygon class="a" points="106.07 62.91 106.08 62.91 106.08 62.91 106.07 62.91"/><path class="c" d="M74.21,72.06l0.06,0,0.17-.15a5.62,5.62,0,0,1,.63-0.5,4.48,4.48,0,0,1,1-.52,4.05,4.05,0,0,1,.61-0.17,4.24,4.24,0,0,1,.65-0.08h0.33l0.32,0,0.32,0.05,0.3,0.07,0.29,0.09L79.15,71l0.25,0.12,0.22,0.13c0.14,0.09.27,0.17,0.37,0.26l0.27,0.23,0.16,0.16,0.06,0.06-0.07,0-0.21-.06-0.32-.09-0.19-.05-0.21-.06L79,71.52l-0.26,0-0.27,0-0.56-.05H77.34a8,8,0,0,0-2.13.4L74.5,72l-0.21.05H74.21Z"/><path class="c" d="M72.64,74.16A4.27,4.27,0,0,1,73,73.87l0.42-.29c0.17-.11.36-0.22,0.57-0.33s0.45-.23.7-0.33a8.22,8.22,0,0,1,.81-0.29l0.44-.12,0.22-.05,0.23,0,0.47-.07,0.47,0a6.86,6.86,0,0,1,.95,0l0.23,0,0.23,0,0.45,0.1a5.26,5.26,0,0,1,.83.28c0.13,0.05.25,0.12,0.37,0.18L80.54,73l0.16,0.1a5.28,5.28,0,0,1,.55.4l0.38,0.36,0.22,0.26,0.08,0.09-0.1,0-0.29-.14-0.45-.19c-0.18-.06-0.37-0.14-0.58-0.21l-0.16-.05-0.17,0-0.36-.09c-0.12,0-.25-0.06-0.38-0.07L79,73.35l-0.41,0-0.21,0H78.21c-0.28,0-.57,0-0.86,0a14.92,14.92,0,0,0-1.71.19l-0.79.15-0.71.15L73.05,74Z"/><path class="c" d="M68.34,84.74s2.6-7.28,4.58-7.4,9.4,0,9.4,0,1.83,0.09,5.06,7.52c-0.25.35-1.44-2.9-4.8-5.89-0.85.84-1.7,2-4.78,2s-4.49-1.3-5-2C71.5,79.84,68.76,84.94,68.34,84.74Z"/><path class="i" d="M77.52,74.66c3.07,0,5,.45,5,2.11s-1.61,3.1-4.69,3.15-5.06-1.6-5-2.56S73.89,74.7,77.52,74.66Z"/><path class="c" d="M87.17,88.33c0.3-.53.23-1.43-0.4-0.85a14.21,14.21,0,0,1-8.84,3c-4.87,0-8.92-3.35-9.42-2.89s0.1,1.51,2.79,3.76a10.51,10.51,0,0,0,6.8,2.86c1.8,0,4.28-1.28,5.83-2.46A12.32,12.32,0,0,0,87.17,88.33Z"/><path class="i" d="M87.17,88.1c0.3-.45.23-1.21-0.4-0.72a15.81,15.81,0,0,1-8.84,2.53c-4.87,0-8.92-2.83-9.42-2.45s0.1,1.28,2.79,3.18a11.62,11.62,0,0,0,6.8,2.42A12.69,12.69,0,0,0,83.93,91,11.54,11.54,0,0,0,87.17,88.1Z"/><path class="c" d="M45.06,54.07c-3.38-2.84-10.33-4.38-18.58-3.92-5,0-8.45-2.31-10.83-3.74s-5.19-3.29-8.75-2.77c4.3,1.18,6.63,2.38,9.52,6.94l0.15,0.27s4.53,7.68,5.31,8.76c0.53-.32.47-0.46,1.71,0.15a54.6,54.6,0,0,1,6.13,3.4c1.18,0.92,2.72,4.16,3.52,5.22S31.85,70,31,70.74a2.38,2.38,0,0,1-2.15.34,22,22,0,0,0,6.56,2.17,26.87,26.87,0,0,1,2.74-9.5A65.2,65.2,0,0,1,45.06,54.07Z"/><path class="c" d="M139.29,45.58c-2.38,1.43-5.8,3.78-10.83,3.74-8.25-.47-15.2,1.08-18.58,3.92a65.18,65.18,0,0,1,6.89,9.69,26.86,26.86,0,0,1,2.74,9.5,31.79,31.79,0,0,0,6.64-2.12,2.63,2.63,0,0,1-2.23-.39c-0.83-.77-3-1.32-2.21-2.37s2.34-4.3,3.52-5.22a54.58,54.58,0,0,1,6.13-3.4c1.24-.61,1.18-0.47,1.71-0.15,0.78-1.08,5.31-8.76,5.31-8.76l0.15-.27c2.89-4.56,5.21-5.76,9.52-6.94C144.48,42.29,141.67,44.15,139.29,45.58Z"/><path class="a" d="M138.53,49.75c2.89-4.56,5.21-5.76,9.52-6.94-3.57-.52-6.37,1.34-8.75,2.77s-5.8,3.78-10.83,3.74c-8.25-.47-15.2,1.08-18.58,3.92A64.41,64.41,0,0,1,117,63.4a16.22,16.22,0,0,0,1.33-2c1.77-2.45,1.23-3.15,3.53-4.26s14.32-7.12,15.47-7.7c0,0,.75-0.48,1,0.55Z"/><path class="a" d="M16.42,50.58C13.53,46,11.2,44.82,6.9,43.64c3.57-.52,6.37,1.34,8.75,2.77s5.8,3.78,10.83,3.74c8.25-.47,15.2,1.08,18.58,3.92a64.41,64.41,0,0,0-7.15,10.16,16.22,16.22,0,0,1-1.33-2c-1.77-2.45-1.23-3.15-3.53-4.26s-14.32-7.12-15.47-7.7c0,0-.75-0.48-1,0.55Z"/></svg>