<svg xmlns="http://www.w3.org/2000/svg" viewBox="0 0 154.76 133.06"><defs><style>.a{fill:#606060;}.b{fill:#5d9a8a;}.c{fill:#558d7c;}.d{fill:#171717;}</style></defs><title>All-icons</title><path class="a" d="M93.84,88.34L93.66,88,91.1,83.55a1.9,1.9,0,0,1,.67-2.49l8-4.61,0.34-.2c-0.6-.35-1.17-0.66-1.72-1a5.43,5.43,0,0,1-2.38-2.51,5.13,5.13,0,0,1,1.49-6.06,5,5,0,0,1,3.81-1.13,5,5,0,0,1,3.48,1.92,5.81,5.81,0,0,1,1.1,3.86c0,0.52,0,1,0,1.62l0.35-.2,8-4.61a1.89,1.89,0,0,1,2.47.66l12.93,22.57a1.92,1.92,0,0,1-.66,2.46l-22.6,12.95a1.91,1.91,0,0,1-2.45-.69l-2.58-4.5-0.17-.3a7.62,7.62,0,0,0,5.44-5.57,7.29,7.29,0,0,0-1-6,7.44,7.44,0,0,0-5.63-3.52A7.56,7.56,0,0,0,93.84,88.34Z"/><path class="b" d="M103.47,64.06a7.76,7.76,0,0,0-2.08-7.56,7.65,7.65,0,0,0-10-.79,7.84,7.84,0,0,0-2.68,3.71,7.49,7.49,0,0,0-.19,4.64H88.17c-1.68,0-3.37-.14-5.05-0.11A2.22,2.22,0,0,1,81,62c0-3-.17-6.16-0.17-9.2V52.33a2,2,0,0,1-.87.6,7.09,7.09,0,0,1-2.86,1.21,4.41,4.41,0,0,1-2.47-.37,5.07,5.07,0,0,1-3-3.68,4.87,4.87,0,0,1,.28-3,5.1,5.1,0,0,1,3.75-3.13,3.91,3.91,0,0,1,2.82.36c0.84,0.42,1.37.88,2.37,1.35V36a2.38,2.38,0,0,1,2.18-2h26A2.06,2.06,0,0,1,110.84,36V62a2,2,0,0,1-1.87,2c-1.71,0-3.42.12-5.13,0.12h-0.37Z"/><path class="c" d="M78.84,56.48v0.77c0,1.55-.12,3.09-0.11,4.64a2.1,2.1,0,0,1-2,2.06c-3.06,0-6.17.12-9.23,0.12H67.13c0.37,0,.73,1.11,1.06,1.72a5.11,5.11,0,0,1,.67,3.68,5.14,5.14,0,1,1-9.31-3.87c0.31-.52.6-1.52,0.93-1.52H50.82a2.28,2.28,0,0,1-2-2.07V36a2.17,2.17,0,0,1,2-2h26a2.08,2.08,0,0,1,1.91,1.85c0,1.75.11,3.57,0.11,5.32V41.5c-4-.66-6.64.36-8.59,3.49a7.3,7.3,0,0,0,.21,8.31C72.07,55.79,74.84,57.33,78.84,56.48Z"/><path class="b" d="M78.84,84.58v0.33c0,3.09-.11,6.18-0.11,9.27A1.94,1.94,0,0,1,76.85,96h-26A1.93,1.93,0,0,1,49,94.24q0-13,0-26.08a1.86,1.86,0,0,1,1.68-1.76c1.83,0,3.67,0,5.5,0h0.11c-0.67,3.58.37,6.51,3.46,8.46a7.19,7.19,0,0,0,8.33-.33c2.89-2,3.89-4.48,3.19-8.48h0.34c1.7,0,3.39.19,5.09,0.16a2.15,2.15,0,0,1,2,2c0,3.06.1,6.2,0.1,9.26v0.4c0-.32.95-0.63,1.46-0.92a5.5,5.5,0,0,1,3.44-.9,5.08,5.08,0,0,1,2.64,1.12,5.15,5.15,0,0,1,.77,7.24,5.1,5.1,0,0,1-3,1.82A4,4,0,0,1,81.5,86C80.57,85.57,79.84,85.07,78.84,84.58Z"/><path class="d" d="M114.93,70.76l-0.37.21c-2.43,1.39-4.86,2.78-7.29,4.18a2.54,2.54,0,0,1-2.28.24,2.5,2.5,0,0,1-1.55-1.6,7.18,7.18,0,0,1-.13-2.22,3.79,3.79,0,0,0-.53-2.46,2.41,2.41,0,0,0-1.43-.92,2.53,2.53,0,0,0-2.92,1.5,2.45,2.45,0,0,0,.69,2.87c0.67,0.44,1.34.87,2,1.26a2.83,2.83,0,0,1,1.47,1.61,2.52,2.52,0,0,1-1,3c-2.5,1.46-5,2.89-7.54,4.33l-0.33.19,1,1.67a10.36,10.36,0,0,1,13,3.37,9.72,9.72,0,0,1,1.84,6.21,10.33,10.33,0,0,1-4.61,8.31l1,1.67,0.32-.18L126.73,92.2c0.36-.21.36-0.21,0.16-0.57L115.12,71.1Z"/></svg>