<svg xmlns="http://www.w3.org/2000/svg" viewBox="0 0 154.76 133.06"><defs><style>.a{fill:#5a9297;fill-opacity:0.25;}.b{fill:#bababa;}.c{fill:#5d9a8a;}.d{fill:#7c7c7c;}.e{fill:#606060;}.f{fill:#558d7c;}</style></defs><title>All-icons</title><path class="a" d="M68.47,94.39a2.27,2.27,0,0,1-1.77-.3l-5.5-3a1.9,1.9,0,0,1-.81-2.86l49-86.19a3.8,3.8,0,0,1,2.2-1.88l0.11,0a3.53,3.53,0,0,1,3.18.55,3.91,3.91,0,0,1,.6.57,3.6,3.6,0,0,1,.46,4.1L69.8,93.13a2.28,2.28,0,0,1-1.33,1.26h0Z"/><polygon class="b" points="66.57 98.39 66.57 98.39 66.57 98.39 66.57 98.39"/><path class="c" d="M114.32,2.23a2.42,2.42,0,0,0-.37-0.36,2,2,0,0,0-1.89-.3,2.3,2.3,0,0,0-1.41,1.22L61.67,89c-0.24.41-.22,0.58,0.22,0.81l4.93,2.66,0.6,0.32c0.56,0.32.77,0.26,1.07-.33l46.1-87.75A2.12,2.12,0,0,0,114.32,2.23Z"/><path class="d" d="M59.95,113l-1.09-.59c-3.17-1.7-6.34-3.4-9.5-5.13-0.52-.29-0.71-0.19-1,0.31-2.92,5.47-6.62,12.14-9.56,17.6a0.72,0.72,0,0,0,.24.9,10.73,10.73,0,0,1,1.35.68l0.06,0c0.38,0.13.47,0.33,0.24,0.7s-0.53,1-.82,1.49c-0.16.27-.2,0.42,0.15,0.61l5.23,2.82L46.36,133c0.36,0.2.48,0.11,0.65-.22,0.34-.62.72-1.65,1.08-1.74a2,2,0,0,1,.58.19,14.15,14.15,0,0,1,1.29.69c0.36,0.21.48,0.1,0.65-.22l9.69-18A0.63,0.63,0,0,0,59.95,113Z"/><path class="d" d="M67.69,99c-0.37-.17-0.74-0.36-1.12-0.57h0l-0.9-.48c0.39-.67.75-1.31,1.14-1.94,0.19-.3.13-0.45-0.18-0.62l-1.08-.58Q63,93.4,60.39,92c-0.34-.18-0.51-0.16-0.68.2-0.3.65-.64,1.27-1,1.93l-0.6-.3c-0.59-.3-1.26-0.94-1.75-0.82a5.4,5.4,0,0,0-1.06,1.66c-0.28.55-.14,0.67,0.31,0.91,3.11,1.65,6.2,3.34,9.31,5l0.29,0.16a4,4,0,0,0,1.55.69,10.32,10.32,0,0,0,1.08-1.78C68.07,99.31,68.06,99.13,67.69,99Z"/><path class="d" d="M63.89,103l-1.24-.66c-1.93-1-3.85-2.07-5.78-3.11A6,6,0,0,0,55,98.34a10.25,10.25,0,0,0-1.08,1.76c-0.22.36-.16,0.52,0.21,0.72q3.59,1.91,7.17,3.85l1.41,0.76,0.39,0.2,0.2-.35c0.27-.5.51-1,0.82-1.49S64.32,103.19,63.89,103Z"/><path class="d" d="M61.52,107.75L60,107l-7.21-3.89c-0.27-.15-0.41-0.14-0.57.16-0.36.67-.75,1.32-1.16,2l7.6,4.07,1.51,0.81c0.27,0.14.42,0.15,0.57-.15,0.28-.57.59-1.14,0.91-1.69C61.86,108,61.8,107.9,61.52,107.75Z"/><path class="e" d="M35.84,69.2L52.35,56a1.89,1.89,0,0,0,0-3h0A1.89,1.89,0,0,0,50,53L31.64,67.73a1.89,1.89,0,0,0,0,2.95l18.71,15a1.89,1.89,0,0,0,2.31,0h0a1.89,1.89,0,0,0,0-3Z"/><path class="e" d="M118.92,69.2L102,82.72a1.89,1.89,0,0,0,0,3h0a1.89,1.89,0,0,0,2.31,0l18.71-15a1.89,1.89,0,0,0,0-2.95L104.78,53a1.89,1.89,0,0,0-2.31,0h0a1.89,1.89,0,0,0,0,3Z"/><path class="f" d="M114.32,2.23a2.42,2.42,0,0,0-.37-0.36,2,2,0,0,1,.16,1.75c-0.59,1.6-43.17,80.92-47.29,88.85l0.6,0.32c0.56,0.32.77,0.26,1.07-.33l46.1-87.75A2.12,2.12,0,0,0,114.32,2.23Z"/><path class="e" d="M45.29,132.39L46.36,133c0.36,0.2.48,0.11,0.65-.22,0.34-.62.72-1.65,1.08-1.74a2,2,0,0,1,.58.19l-2.14-1.12Z"/><path class="e" d="M50,131.88c0.36,0.21.48,0.1,0.65-.22l9.69-18a0.63,0.63,0,0,0-.35-0.7l-1.09-.59L48.68,131.19A14.16,14.16,0,0,1,50,131.88Z"/><path class="e" d="M66.57,98.39l-0.9-.48c0.39-.67.75-1.31,1.14-1.94,0.19-.3.13-0.45-0.18-0.62l-1.08-.58-1.34,2.37Z"/><path class="e" d="M66.8,101.41a10.33,10.33,0,0,0,1.08-1.78c0.2-.32.19-0.5-0.18-0.67S67,98.6,66.57,98.39l-1.33,2.33A4,4,0,0,0,66.8,101.41Z"/><path class="e" d="M62.72,105.42l0.39,0.2,0.2-.35c0.27-.5.51-1,0.82-1.49s0.19-.59-0.24-0.82l-1.24-.66-1.33,2.36Z"/><path class="e" d="M60.21,110.14c0.27,0.14.42,0.15,0.57-.15,0.28-.57.59-1.14,0.91-1.69,0.17-.28.11-0.4-0.17-0.55L60,107l-1.33,2.37Z"/></svg>