<svg xmlns="http://www.w3.org/2000/svg" viewBox="0 0 154.76 133.06"><defs><style>.a{fill:#3e6a5c;}.b{fill:#558d7c;}.c{fill:#5d9a8a;}.d{fill:#3c4044;}</style></defs><title>All-icons</title><path class="a" d="M123.74,19a2.2,2.2,0,0,0-3.13-1.79L107.1,23.59a2.2,2.2,0,0,0-1.25,1.9L104.6,58.89l-8.35-1.77a28.08,28.08,0,0,1-9.45-4,17.22,17.22,0,0,0-18.72,0,28.07,28.07,0,0,1-9.45,4l-8.47,1.79L48.92,25.5a2.19,2.19,0,0,0-1.26-1.91L34.15,17.21A2.2,2.2,0,0,0,31,19L26.86,66.54l0,0.31L31,114.05a2.2,2.2,0,0,0,3.13,1.79l13.5-6.37a2.19,2.19,0,0,0,1.26-1.91l1.23-32.49,7.83,2a25.7,25.7,0,0,1,9.15,4.29,17.21,17.21,0,0,0,20.64,0,25.69,25.69,0,0,1,9.15-4.29l7.71-2,1.23,32.47a2.19,2.19,0,0,0,1.26,1.9l13.51,6.37a2.2,2.2,0,0,0,3.13-1.79l4.17-46.89,0-.31Z"/><path class="b" d="M40.55,73.77a0.45,0.45,0,0,0-.89,0l-4.59,36.48a0.45,0.45,0,0,0,.63.46l8.74-4.12a0.45,0.45,0,0,0,.25-0.46L41.39,80.31Z"/><path class="b" d="M39.65,59.72a0.45,0.45,0,0,0,.89,0L43.4,36.94l1.26-10a0.45,0.45,0,0,0-.25-0.46l-8.87-4.19a0.45,0.45,0,0,0-.63.46l1.66,13Z"/><path class="c" d="M48.7,66.78L47.2,26.37l0-.81a0.45,0.45,0,0,0-.26-0.39l-0.74-.35L46,24.72l-5.29-2.5-5.52-2.6L33.4,18.8a0.45,0.45,0,0,0-.64.36L32.6,21.08l0,0.52-4,45.09V67l4,45,0.17,1.91a0.45,0.45,0,0,0,.64.36l1.74-.82,0.05,0,5.47-2.58L46,108.32l0.19-.09,0.74-.35a0.45,0.45,0,0,0,.26-0.39l0-.81,1.5-39.78V66.78Zm-0.94.08-1.7,39.78a0.59,0.59,0,0,1-.25.32l0,0-11.85,5.58L29.76,66.88V66.81l4-45.09h0l0.07-.52a0.46,0.46,0,0,1,.65-0.36l11.11,5.24h0a0.8,0.8,0,0,1,.39.34l1.7,40.41v0Z"/><path class="b" d="M41.4,72.42a0.45,0.45,0,0,0-.08.32l1,7.85,2.11,16.48a0.45,0.45,0,0,0,.89,0l1.11-29.41A0.54,0.54,0,0,0,46,67.06H43.18a0.54,0.54,0,0,0-.45.52A10,10,0,0,1,41.4,72.42Z"/><path class="b" d="M45.32,36a0.45,0.45,0,0,0-.89,0l-1,7.89-2.14,17a0.45,0.45,0,0,0,.08.32,9,9,0,0,1,1.35,4.69c0,0.24.21,0.28,0.45,0.28H46c0.25,0,.46-0.06.45-0.31Z"/><path class="b" d="M34.11,103.73a0.45,0.45,0,0,0,.89,0L36.6,91,38.86,73a0.46,0.46,0,0,0-.11-0.36,9.31,9.31,0,0,1-1.53-5.1,0.54,0.54,0,0,0-.45-0.52H31.35a0.54,0.54,0,0,0-.44.58Z"/><path class="b" d="M38.74,60.86a0.46,0.46,0,0,0,.11-0.36L37.48,49.83,34.94,30a0.45,0.45,0,0,0-.89,0L30.91,65.72c0,0.26.18,0.34,0.44,0.34h5.41c0.24,0,.43,0,0.45-0.28A8.5,8.5,0,0,1,38.74,60.86Z"/><path class="b" d="M114.21,73.77a0.45,0.45,0,0,1,.89,0l4.59,36.48a0.45,0.45,0,0,1-.63.46l-8.74-4.12a0.45,0.45,0,0,1-.25-0.46l3.31-25.81Z"/><path class="b" d="M115.11,59.72a0.45,0.45,0,0,1-.89,0l-2.87-22.77-1.26-10a0.45,0.45,0,0,1,.25-0.46l8.87-4.19a0.45,0.45,0,0,1,.63.46l-1.66,13Z"/><path class="c" d="M106.06,66.85v0.07l1.5,39.78,0,0.81a0.45,0.45,0,0,0,.26.39l0.74,0.35,0.19,0.09,5.33,2.52,5.47,2.58,0.05,0,1.74,0.82a0.45,0.45,0,0,0,.64-0.36l0.17-1.91,4-45V66.69l-4-45.09,0-.52L122,19.16a0.45,0.45,0,0,0-.64-0.36l-1.74.82-5.52,2.6-5.29,2.5-0.23.11-0.74.35a0.45,0.45,0,0,0-.26.39l0,0.81-1.5,40.41v0.07Zm1.7,0,1.32-40.41a0.38,0.38,0,0,1,.1-0.34h0l11.08-5.24a0.44,0.44,0,0,1,.62.36l0,0.52h0l3.92,45.09v0.08l-4,45.61L109,107v0a0.43,0.43,0,0,1,0-.32l-1.32-39.78v0Z"/><path class="b" d="M113.36,72.42a0.45,0.45,0,0,1,.08.32l-1,7.85-2.11,16.48a0.45,0.45,0,0,1-.89,0l-1.11-29.41a0.54,0.54,0,0,1,.45-0.56h2.81a0.54,0.54,0,0,1,.45.52A10,10,0,0,0,113.36,72.42Z"/><path class="b" d="M109.44,36a0.45,0.45,0,0,1,.89,0l1,7.89,2.14,17a0.45,0.45,0,0,1-.08.32A9,9,0,0,0,112,65.78c0,0.24-.21.28-0.45,0.28h-2.8c-0.25,0-.46-0.06-0.45-0.31Z"/><path class="b" d="M120.65,103.73a0.45,0.45,0,0,1-.89,0L118.16,91,115.9,73a0.46,0.46,0,0,1,.11-0.36,9.31,9.31,0,0,0,1.53-5.1,0.54,0.54,0,0,1,.45-0.52h5.42a0.54,0.54,0,0,1,.44.58Z"/><path class="b" d="M116,60.86a0.46,0.46,0,0,1-.11-0.36l1.37-10.67L119.82,30a0.45,0.45,0,0,1,.89,0l3.14,35.69c0,0.26-.18.34-0.44,0.34H118c-0.24,0-.43,0-0.45-0.28A8.5,8.5,0,0,0,116,60.86Z"/><path class="c" d="M114.19,62.7l-18.3-3.87a29.85,29.85,0,0,1-10-4.26,15.47,15.47,0,0,0-16.82,0,29.85,29.85,0,0,1-10,4.26L40.68,62.7c-1,0-1.72,1.83-1.72,4.08s0.77,4.08,1.72,4.08L58.4,75.37A27.55,27.55,0,0,1,68.17,80a15.47,15.47,0,0,0,18.54,0,27.55,27.55,0,0,1,9.77-4.59l17.72-4.5c1,0,1.72-1.83,1.72-4.08S115.14,62.7,114.19,62.7ZM96.65,61.4h0a0.45,0.45,0,0,1,.53-0.34l8.54,1.86a0.45,0.45,0,0,1,.34.53h0a0.45,0.45,0,0,1-.53.34L97,61.93A0.45,0.45,0,0,1,96.65,61.4ZM49,63.24l8.42-1.84a0.45,0.45,0,0,1,.53.34h0a0.45,0.45,0,0,1-.34.53l-8.42,1.84a0.45,0.45,0,0,1-.53-0.34h0A0.45,0.45,0,0,1,49,63.24ZM58,72.9a0.45,0.45,0,0,1-.55.32L49,71a0.45,0.45,0,1,1,.23-0.86l8.43,2.23A0.45,0.45,0,0,1,58,72.9Zm2.77-5.28a0.45,0.45,0,0,1-.45.45H52.21a0.45,0.45,0,0,1-.45-0.45V66.51a0.45,0.45,0,0,1,.45-0.45h8.11a0.45,0.45,0,0,1,.45.45v1.11ZM77.38,78.35A10.73,10.73,0,1,1,88.11,67.62,10.73,10.73,0,0,1,77.38,78.35Zm25.38-10.74a0.45,0.45,0,0,1-.45.45H94.21a0.45,0.45,0,0,1-.45-0.45V66.51a0.45,0.45,0,0,1,.45-0.45h8.11a0.45,0.45,0,0,1,.45.45v1.11Zm3,3.24L97.19,73a0.45,0.45,0,0,1-.54-0.33h0A0.45,0.45,0,0,1,97,72.11L105.52,70a0.45,0.45,0,0,1,.54.33h0A0.45,0.45,0,0,1,105.73,70.86Z"/><path class="d" d="M87.15,65.26v0Z"/><path class="d" d="M87.17,69.87h0v0Z"/><path class="d" d="M87.4,67.06s-0.1-1.14-.24-1.77L87.07,65h0L87,64.67h0a10,10,0,0,0-2.26-3.9h0l-0.25-.25-0.25-.25h0A10,10,0,0,0,80.31,58h0L80,57.92h0l-0.34-.09h0a10.1,10.1,0,0,0-4.51,0h0l-0.34.09L74.44,58h0a10,10,0,0,0-3.91,2.26h0l-0.25.25L70,60.76h0a10,10,0,0,0-2.26,3.91h0L67.69,65h0l-0.09.34v-0.1c-0.14.63-.23,1.8-0.25,1.8h0.4v1h-0.4a6.75,6.75,0,0,0,.25,1.86v0l0.09,0.33,0.09,0.33h0A10,10,0,0,0,70,74.45h0l0.25,0.25h0L70.53,75h0a10,10,0,0,0,3.91,2.26h0l0.34,0.09h0l0.34,0.09h0a9.85,9.85,0,0,0,4.51,0h0L80,77.31h0l0.34-.09h0a10,10,0,0,0,3.91-2.26h0l0.25-.25h0l0.25-.25h0A10,10,0,0,0,87,70.55h0l0.09-.34,0.09-.33a6.65,6.65,0,0,0,.24-1.82h0.36v-1H87.4ZM84.5,61.74l1.56,2.7a0.38,0.38,0,0,1-.23.55l-2.4.64A0.38,0.38,0,0,1,83,65.45l-0.94-1.63a0.38,0.38,0,0,1,.06-0.45l1.71-1.71A0.42,0.42,0,0,1,84.5,61.74ZM76.57,72.57a0.54,0.54,0,0,1,0-.22L77,70.63a0.76,0.76,0,0,1,.45-0.57h0.1a0.66,0.66,0,0,1,.45.51l0.4,1.7a0.64,0.64,0,0,1,0,.3H76.57Zm1.66-10.14a0.6,0.6,0,0,1,0,.36l-0.4,1.71a0.75,0.75,0,0,1-.45.57h-0.1a0.75,0.75,0,0,1-.45-0.57l-0.4-1.71a0.6,0.6,0,0,1,0-.36h1.71ZM80.5,64l-1.09,1.09a0.46,0.46,0,0,1-.56.07l-0.08,0a0.46,0.46,0,0,1-.21-0.52L79,63.1a0.46,0.46,0,0,1,.68-0.28l0.78,0.45A0.46,0.46,0,0,1,80.5,64Zm0.5,0.5a0.46,0.46,0,0,1,.73.1l0.45,0.78a0.46,0.46,0,0,1-.28.68l-1.67.45a0.46,0.46,0,0,1-.45-0.77ZM75.81,63.1l0.4,1.49a0.46,0.46,0,0,1-.21.52l-0.08,0a0.46,0.46,0,0,1-.56-0.07L74.26,64a0.46,0.46,0,0,1,.1-0.73l0.78-.45A0.46,0.46,0,0,1,75.81,63.1Zm-1.06,2.37a0.46,0.46,0,0,1,.07.56l-0.09.15a0.46,0.46,0,0,1-.52.21L72.87,66a0.46,0.46,0,0,1-.28-0.68L73,64.59a0.46,0.46,0,0,1,.73-0.1ZM73,69.1l1.67-.45a0.46,0.46,0,0,1,.45.77l-1.22,1.22a0.46,0.46,0,0,1-.73-0.1l-0.45-.78A0.46,0.46,0,0,1,73,69.1Zm1.39,2,1.09-1.09A0.46,0.46,0,0,1,76,70l0.08,0a0.46,0.46,0,0,1,.21.52L75.9,72a0.46,0.46,0,0,1-.68.28l-0.78-.45A0.46,0.46,0,0,1,74.35,71.15ZM79,72l-0.4-1.49A0.46,0.46,0,0,1,78.86,70l0.08,0a0.46,0.46,0,0,1,.56.07l1.09,1.09a0.46,0.46,0,0,1-.1.73l-0.78.45A0.46,0.46,0,0,1,79,72Zm1.06-2.37A0.46,0.46,0,0,1,80,69.11L80.12,69a0.46,0.46,0,0,1,.52-0.21L82,69.1a0.46,0.46,0,0,1,.28.68l-0.45.78a0.46,0.46,0,0,1-.73.1ZM80,59.17a0.38,0.38,0,0,1,.55-0.23l2.74,1.58a0.38,0.38,0,0,1,.08.59l-1.75,1.75a0.38,0.38,0,0,1-.45.06L79.54,62a0.38,0.38,0,0,1-.18-0.42ZM75.8,58.06H79a0.61,0.61,0,0,1,.36.7l-0.64,2.71a2.1,2.1,0,0,1-.13.35H76.17a1.21,1.21,0,0,1-.1-0.24l-0.64-2.72A0.74,0.74,0,0,1,75.8,58.06Zm-4.34,2.46,2.74-1.58a0.38,0.38,0,0,1,.55.23l0.64,2.4a0.38,0.38,0,0,1-.18.42l-1.63.94a0.38,0.38,0,0,1-.45-0.06l-1.75-1.75A0.38,0.38,0,0,1,71.46,60.52Zm-2.75,3.91,1.58-2.74a0.38,0.38,0,0,1,.59-0.08l1.75,1.75a0.38,0.38,0,0,1,.06.45l-0.94,1.63a0.38,0.38,0,0,1-.42.18L68.94,65A0.38,0.38,0,0,1,68.71,64.43Zm1.68,9L68.8,70.71A0.38,0.38,0,0,1,69,70.16l2.4-.64a0.38,0.38,0,0,1,.42.18l0.94,1.63a0.38,0.38,0,0,1-.06.45L71,73.54A0.37,0.37,0,0,1,70.39,73.46ZM74.84,76a0.38,0.38,0,0,1-.55.23l-2.74-1.58A0.38,0.38,0,0,1,71.47,74l1.75-1.75a0.38,0.38,0,0,1,.45-0.06l1.64,0.93a0.38,0.38,0,0,1,.18.42Zm4.21,1.08H75.89a0.59,0.59,0,0,1-.36-0.69l0.64-2.71a1.75,1.75,0,0,1,.21-0.48h2.22a1.14,1.14,0,0,1,.19.38l0.64,2.71A0.73,0.73,0,0,1,79.06,77.06Zm4.34-2.44-2.74,1.58A0.38,0.38,0,0,1,80.1,76l-0.64-2.4a0.38,0.38,0,0,1,.18-0.42l1.63-.94a0.38,0.38,0,0,1,.45.06L83.47,74A0.38,0.38,0,0,1,83.39,74.62Zm2.75-3.91-1.58,2.74a0.38,0.38,0,0,1-.59.08l-1.75-1.75a0.38,0.38,0,0,1-.06-0.45l0.94-1.63a0.38,0.38,0,0,1,.42-0.18l2.4,0.64A0.38,0.38,0,0,1,86.14,70.71Z"/></svg>