<svg xmlns="http://www.w3.org/2000/svg" viewBox="0 0 154.76 133.06"><defs><style>.a{fill:#3e6a5c;}.b{fill:#558d7c;}.c{fill:#596070;}.d{fill:#5d9a8a;}.e{fill:#d5e9f3;}.f{fill:#3c4044;}</style></defs><title>All-icons</title><circle class="a" cx="78.68" cy="65.15" r="43.9"/><path class="b" d="M120.24,66.26c-11.29.8-22.62,1-33.93,1.19S63.44,67.46,52,67c-3.09-.13-6.18-0.27-9.28-0.38-1.61-.06-3.21-0.17-4.82-0.28a3.17,3.17,0,0,0-1.08-.06c-0.17.11-.11,0.23-0.11,0.44,0,0.88.09,1.76,0.13,2.64,0.15,1.06.28,2.13,0.43,3.19a11.84,11.84,0,0,0,.53,2.86,12.18,12.18,0,0,0,.88,3.19q0.54,1.61,1.21,3.17A25.15,25.15,0,0,0,43,87.41,19.75,19.75,0,0,0,45.54,91a16.83,16.83,0,0,0,2.15,2.58,29.86,29.86,0,0,0,2.46,2.38l0,0L50.24,96h0c0.42,0.39.83,0.8,1.26,1.18a2.79,2.79,0,0,0,1.06.78,46.71,46.71,0,0,0,19.66,8.49,39.61,39.61,0,0,0,21.68-2.4,45.29,45.29,0,0,0,11-6.23,5.9,5.9,0,0,0,1.73-1.4h0c0.21-.2.42-0.4,0.62-0.62h0l0,0a23.31,23.31,0,0,0,2.17-2.27l1.1-1.23a5.35,5.35,0,0,0,1.05-1.24,18.84,18.84,0,0,0,2.67-3.59h0a10.69,10.69,0,0,0,1.6-2.63c0.54-1,1-2.05,1.48-3.11s0.85-2.09,1.2-3.16a13.59,13.59,0,0,0,.87-3.19,2.48,2.48,0,0,0,.22-0.93c0.08-.37.16-0.74,0.25-1.11a7.1,7.1,0,0,0,.29-2c0.08-.68.2-1.37,0.26-2.05s0-1.35.09-2c0-.47.25-1-0.36-1h0Z"/><path class="b" d="M39.56,64.36c10.69,0.7,21.46,1,32.17,1,11.09,0,22.16-.09,33.24-0.46,3.08-.1,6.16-0.28,9.24-0.41,1.53-.07,3.05-0.16,4.58-0.23,0.37,0,1.63.11,1.83-.21a5.5,5.5,0,0,0-.08-2c-0.12-1.63-.37-3.25-0.55-4.87-0.13-.62-0.25-1.24-0.41-1.85a9.47,9.47,0,0,0-.63-2.5q-0.41-1.35-.91-2.66A42.48,42.48,0,0,0,115.63,45l-1.15-1.9a4.36,4.36,0,0,0-1-1.43,4.18,4.18,0,0,0-.91-1.24l-1-1.26a19.59,19.59,0,0,0-2.06-2.46c-0.38-.44-0.84-0.79-1.22-1.23a2.37,2.37,0,0,0-1.08-1,4.57,4.57,0,0,0-1.43-1.31c-0.62-.52-1.21-1.07-1.84-1.58a34.48,34.48,0,0,0-3.56-2.5,39,39,0,0,0-8.23-3.89,42.07,42.07,0,0,0-8.75-1.86A35.24,35.24,0,0,0,79,23.19c-0.81,0-1.61.09-2.42,0.11l-1.26.05a2.41,2.41,0,0,0-1.07.11,3.27,3.27,0,0,0-1.34.14,33.83,33.83,0,0,0-12.2,3.52,38,38,0,0,0-5.45,3.16c-0.94.65-1.83,1.35-2.71,2.09l-1.21,1a3.64,3.64,0,0,0-1.12,1,30.86,30.86,0,0,0-3.33,3.41,19,19,0,0,0-3,3.91,36,36,0,0,0-6,13.67,5.72,5.72,0,0,0-.41,1.85,2.62,2.62,0,0,0-.17,1.06c-0.06.46-.12,0.93-0.19,1.39a15.44,15.44,0,0,0-.24,2.37c-0.09.38-.35,1.91,0,2.14a3.12,3.12,0,0,0,1.17.07l1.56,0.1h0ZM82.78,44c0.28-3.65,2.92-7.42,6.66-8.14,0.3,0,.6-0.1.9-0.13-0.3,0-.6.08-0.9,0.13-1,2.39-2,5.05-1.88,7.68a3.84,3.84,0,0,0,.76-1.27A4.75,4.75,0,0,1,89.57,41a4.23,4.23,0,0,1,.81-0.42,2,2,0,0,0,.62-0.2c0.22-.25-0.18-1.5-0.23-1.81s-0.11-1.16.53-1.19a1,1,0,0,1,.78,1.08,5.5,5.5,0,0,0,.25,1.65,6.05,6.05,0,0,0,1.62.28,6.83,6.83,0,0,1,4.64,5.18,2.81,2.81,0,0,0,.18,1.16c0.29,0.23.77-.24,1.14,0.13,1,1-1.12,1.07-1.36,1.39a6.17,6.17,0,0,0-.33.93,5.37,5.37,0,0,1-.42.73,5.65,5.65,0,0,1-1.3,1.37,6.56,6.56,0,0,0-1.59.89,2.48,2.48,0,0,0,.24.91l0.37,1.36c0.35,0.09,3.22.82,3.22,1.11C97.3,56.83,94.79,57,93,56.86a10.42,10.42,0,0,1-5.29-2.11A12.36,12.36,0,0,1,82.78,44h0Z"/><path class="c" d="M107.29,95.84l0,0Z"/><path class="c" d="M50.15,95.93l0,0Z"/><path class="b" d="M95.51,54.43c0.49,0.12,1,.3,1.44.46l1.64,0.53c0.06,0,.14,0,0.15.12a4.34,4.34,0,0,1-1.29.72,8.41,8.41,0,0,1-2.59.62,10.19,10.19,0,0,1-7.17-2.12,12.51,12.51,0,0,1-2.94-3.12,12.4,12.4,0,0,1-2-7.66,9,9,0,0,1,2-5,9.42,9.42,0,0,1,2-2,7.09,7.09,0,0,1,2.66-1.12c-0.35.87-.72,1.73-1,2.63a19.47,19.47,0,0,0-.76,3.35,10.87,10.87,0,0,0-.13,1.7c0,0.19,0,.24-0.23.17-0.43-.17-0.86-0.31-1.29-0.47l-2-.72a0.61,0.61,0,0,0-.87.37,0.79,0.79,0,0,0,.55.89L87.1,45a0.22,0.22,0,0,1,.18.24,8.5,8.5,0,0,0,.09,1.65,6.05,6.05,0,0,0,.6,1.79,7.48,7.48,0,0,0,1.2,1.61,0.13,0.13,0,0,1,0,.22L88.61,51c-0.28.25-.58,0.48-0.83,0.75a4.49,4.49,0,0,0-.85.86,0.59,0.59,0,0,0,.06.71,0.55,0.55,0,0,0,.6.14,1.77,1.77,0,0,0,.81-0.57c0.61-.54,1.21-1.1,1.81-1.66a0.16,0.16,0,0,1,.22,0l0.85,0.5a0.19,0.19,0,0,0,.09.15,20.85,20.85,0,0,0,1.73,1.27,5.31,5.31,0,0,0,.89.51c0.2,0.57.3,1.16,0.46,1.74a0.74,0.74,0,0,0,.33.5,0.59,0.59,0,0,0,.71-0.12,0.7,0.7,0,0,0,.18-0.67C95.64,54.87,95.57,54.65,95.51,54.43Z"/><path class="d" d="M93,45.77a0.19,0.19,0,0,0-.3,0,0.49,0.49,0,0,0,0,.8,0.47,0.47,0,0,0,.47.11,0.32,0.32,0,0,0,.13-0.36A0.65,0.65,0,0,0,93,45.77Z"/><path class="d" d="M93.48,52.17a4,4,0,0,1-.84-0.07,7.62,7.62,0,0,1-1.36-.38,0.19,0.19,0,0,0,.09.15,20.85,20.85,0,0,0,1.73,1.27,5.31,5.31,0,0,0,.89.51c-0.06-.45-0.22-0.87-0.3-1.31A0.17,0.17,0,0,0,93.48,52.17Z"/><path class="d" d="M96.57,49.4a3.48,3.48,0,0,0,.79-2.57,7,7,0,0,0,0-1,6,6,0,0,0-2.22-3.46,3.84,3.84,0,0,0-2.21-.91,4.12,4.12,0,0,0-2.12.32,3.42,3.42,0,0,0-1.46,1.27,4.44,4.44,0,0,0-.78,2.29,5.58,5.58,0,0,0,.16,1.41A5.41,5.41,0,0,0,91,50.09a4.47,4.47,0,0,0,2.7.8A3.61,3.61,0,0,0,96.57,49.4Zm-2.82.75a3.87,3.87,0,0,1-3.05-1.06,4.29,4.29,0,0,1-1-1.16,3.89,3.89,0,0,1-.51-2,3.64,3.64,0,0,1,.67-2.34,3.26,3.26,0,0,1,2.58-1.38,4,4,0,0,1,3.2,1.43,4,4,0,0,1,1.06,2.43,3.9,3.9,0,0,1-.39,2.33A3.23,3.23,0,0,1,93.75,50.15Z"/><path class="d" d="M94.41,44.27a2.68,2.68,0,0,0-2.11-.74,1.74,1.74,0,0,0-1.38.9,2.71,2.71,0,0,0-.33,2.07,3.15,3.15,0,0,0,1.59,2.09,2.1,2.1,0,0,0,2.93-.64,2.56,2.56,0,0,0,.19-2.37A3,3,0,0,0,94.41,44.27Zm0,3a1.45,1.45,0,0,1-1.35.7,1.84,1.84,0,0,1-1.85-1.71A1.89,1.89,0,0,1,91.63,45a1.51,1.51,0,0,1,2.3-.17,2.14,2.14,0,0,1,.47.53A1.82,1.82,0,0,1,94.41,47.29Z"/><path class="d" d="M104,36.07l-1.61-.2-2.09-.26-1.68-.2-1.7-.22c0.48,0.3,1,.55,1.45.88a15.88,15.88,0,0,1,2.87,2.61A20.06,20.06,0,0,1,103,41.14c0.61,0,1.22,0,1.83.1,0.27,0,.53,0,0.8,0l2.81,0.18c0.72,0,1.45,0,2.17.11l0.89,0,2,0.12a0.36,0.36,0,0,0,0-.13l-0.87-1.11-2-2.53a9.43,9.43,0,0,0-1.06-1.19L108,36.57l-2-.25Z"/><path class="d" d="M107.76,91.37c-0.77.06-1.54,0.1-2.31,0.14s-1.69.08-2.54,0.14-1.52.11-2.29,0.14-1.69.1-2.54,0.14l-2.2.09c-0.79,0-1.57.06-2.36,0.09l-2.43.1c-0.66,0-1.32,0-2,0s-1.25,0-1.88,0-1.16,0-1.74,0c-1.29,0-2.57,0-3.86,0-2.07,0-4.14.05-6.21,0-1.24,0-2.48,0-3.72,0s-2.71,0-4.06-.1c-0.63,0-1.25,0-1.88,0s-1.45-.07-2.18-0.09L61.27,92l-2.11-.09c-0.9,0-1.8-.08-2.7-0.14s-1.63-.09-2.45-0.14c-0.31,0-.33,0-0.24.3a10.77,10.77,0,0,0,1.73,3.27c0.57,0.75,1.23,1.43,1.84,2.13a0.26,0.26,0,0,0,.2.09c0.88,0,1.75.11,2.63,0.18l1.94,0.14c1.1,0.08,2.21.14,3.31,0.23L68,98.14l2.7,0.19,2.56,0.18c1,0.07,2,.12,3,0.2l0.82,0.06a12.49,12.49,0,0,0,1.51.1c0.64,0,1.28-.09,1.92-0.12L83,98.61l2.56-.14L88,98.33l2.43-.14c0.87,0,1.74-.08,2.61-0.14s1.45-.06,2.18-0.11c0.25,0,.51,0,0.75,0l1.92-.31c1.14-.18,2.28-0.31,3.41-0.53,1.57-.3,3.13-0.66,4.7-1a7.48,7.48,0,0,1,1.28-.24h0l0,0c0.18-.16.36-0.3,0.53-0.47,0.62-.6,1.17-1.27,1.74-1.92s1.08-1.18,1.6-1.79a2.15,2.15,0,0,0,.46-0.56,10.3,10.3,0,0,0-1.07.08Z"/><path class="d" d="M71.35,32.53c1.92,0,3.85,0,5.77,0q2.17-.05,4.34,0c1.44,0,2.88,0,4.32.1,0.67,0,1.35,0,2,.06l1,0,3.13,0.18L93.27,33l2.87,0.23,1.62,0.15,2.12,0.22,1.77,0.21,1.61,0.2,2.24,0.3c0.58,0.08,1.16.21,1.74,0.25a1.25,1.25,0,0,0-.5-0.51c-0.61-.55-1.24-1.06-1.85-1.6s-1.22-1-1.86-1.51-1.55-1.09-2.35-1.6q-1.68-1.06-3.45-2c-0.88-.45-1.79-0.85-2.71-1.23a38.34,38.34,0,0,0-4.43-1.5,40,40,0,0,0-4.63-1q-1.45-.21-2.9-0.35c-0.73-.07-1.46-0.13-2.19-0.14s-1.51,0-2.27,0-1.46.08-2.2,0.1c-0.42,0-.84.07-1.26,0.06a0.77,0.77,0,0,0-.44.08c-0.35.73-.68,1.47-1,2.22a37.22,37.22,0,0,0-2.07,6.57C71.07,32.53,71.08,32.53,71.35,32.53Z"/><path class="d" d="M44.55,41.69c0.78,0,1.56-.06,2.34-0.09l2.31-.09,2.45-.09L54,41.32l2.38-.09,2.27-.09,2.54-.1L63.38,41l2.47-.1c0.63,0,1.27,0,1.9-.06l0.69,0c0.05,0,.13,0,0.13-0.08s0-.4,0-0.6c-0.06-.74-0.16-1.47-0.16-2.21a21.7,21.7,0,0,1,.17-2.95c0-.35,0-0.38-0.33-0.38-1,0-2.09.09-3.13,0.18-0.78.06-1.55,0.09-2.33,0.15l-0.87.05L60,35.1l-1.57.15-1.91.22-2.23.24L52,36l-2.35.34c-0.56.09-1.11,0.2-1.67,0.26-0.28.29-.54,0.6-0.82,0.89a25,25,0,0,0-2.34,2.78,12.23,12.23,0,0,0-1,1.44C44.08,41.74,44.31,41.69,44.55,41.69Z"/><path class="d" d="M52.89,34.08L55,33.82l2.84-.33a0.41,0.41,0,0,0,.36-0.2c0.31-.55.64-1.08,1-1.62a20.85,20.85,0,0,1,1.24-1.9c0.22-.29.23-0.29,0.56-0.11l0.27,0.12a0.78,0.78,0,0,1,.47.23,0.78,0.78,0,0,1-.25.49A11.06,11.06,0,0,0,60.17,33c-0.07.19,0,.24,0.17,0.21a3.27,3.27,0,0,1,.5,0l1.6-.1,2.42-.18c0.58,0,1.16-.05,1.74-0.1,1-.08,2-0.17,3-0.17a0.21,0.21,0,0,0,.25-0.2c0.26-1.12.51-2.23,0.79-3.34a13.2,13.2,0,0,1,.68-1.73l1.56-3.8c-0.56,0-1.12.14-1.67,0.22a32,32,0,0,0-3.29.68,38.1,38.1,0,0,0-4.85,1.58c-1,.4-2,0.82-2.91,1.29a38.41,38.41,0,0,0-4.93,2.91c-0.67.47-1.34,1-2,1.48Q51.9,32.87,50.59,34a0.93,0.93,0,0,0-.4.4l0.63-.08Z"/><path class="d" d="M109.34,57.11c-1.42-.06-2.83,0-4.25,0-0.89,0-1.78,0-2.67,0-0.19,0-.25,0-0.25.24,0,1.07.06,2.14,0.09,3.21,0,0.41,0,.81,0,1.22a0.17,0.17,0,0,0,.2.21l2.2,0c1.68,0,3.36,0,5,.05q3.09,0.05,6.18,0c1.55,0,3.09.08,4.64,0,0-.24,0-0.48-0.06-0.73-0.05-.49-0.11-1-0.18-1.47s-0.12-.89-0.17-1.33-0.1-.9-0.15-1.35h-4.23c-0.18,0-.25,0-0.23.23q0.08,0.85.14,1.71c0.05,0.76.09,1.52,0.15,2.29,0,0.12,0,.15-0.12.15h-1.61a0.15,0.15,0,0,1-.17-0.17c-0.08-.73,0-1.47-0.08-2.2s0-1.24,0-1.86a0.19,0.19,0,0,0-.24-0.23C112.15,57.12,110.75,57.16,109.34,57.11Z"/><path class="d" d="M44.4,62c2.42,0,4.84,0,7.27-.06,0.41,0,.83,0,1.24,0,0.17,0,.23,0,0.22-0.22,0-.6-0.05-1.21-0.1-1.81C53,59,52.9,58.14,52.86,57.26c0-.16,0-0.21-0.21-0.21-0.63,0-1.27,0-1.91,0-0.88.05-1.76,0-2.64,0-1.43.06-2.86,0-4.3,0-1.76,0-3.52,0-5.29.06H37.44a0.16,0.16,0,0,0,0,.12c-0.09.73-.19,1.46-0.29,2.19a16.75,16.75,0,0,0-.26,2.51l1.68,0C40.48,62,42.44,62,44.4,62Z"/><path class="d" d="M115.81,75.65l-2.92.22a0.19,0.19,0,0,0-.22.21,3.21,3.21,0,0,1-.07.52c-0.24,1.25-.56,2.49-0.9,3.71-0.39,1.4-.82,2.78-1.34,4.14-0.41,1.08-.83,2.16-1.3,3.21-0.09.19-.06,0.23,0.15,0.21l1.64-.13c0.43,0,.87-0.06,1.3-0.1,0.73-.08,1.46-0.14,2.19-0.18a2.92,2.92,0,0,0,.41-0.57,37.12,37.12,0,0,0,2.35-4.46c0.51-1.13,1-2.28,1.37-3.45,0.29-.84.53-1.69,0.77-2.54a5.18,5.18,0,0,0,.25-1.07l-1.55.13Z"/><path class="d" d="M43.94,55.31a0.18,0.18,0,0,0,.22-0.22,5.86,5.86,0,0,1,.05-0.78c0.12-.88.21-1.77,0.35-2.65a29,29,0,0,1,.79-3.59c0.29-1,.56-2,0.83-3,0.07-.25.06-0.26-0.21-0.25l-0.75,0-1.48.1c-0.67.06-1.34,0.13-2,.13-0.25.48-.51,1-0.76,1.43-0.41.79-.77,1.6-1.12,2.41a32.85,32.85,0,0,0-1.53,4.48c-0.17.65-.31,1.32-0.45,2,0.41,0,.81,0,1.21,0C40.69,55.34,42.32,55.35,43.94,55.31Z"/><path class="d" d="M45.7,87.45a10.93,10.93,0,0,0-.65-1.66,35.41,35.41,0,0,1-1.7-5.27c-0.21-.9-0.38-1.8-0.54-2.71-0.1-.58-0.13-1.17-0.26-1.74a0.37,0.37,0,0,0-.41-0.32l-0.87-.05-1.87-.17-1.55-.13a1.23,1.23,0,0,0,0,.25A34.89,34.89,0,0,0,39,79.44C39.5,80.72,40,82,40.6,83.2c0.37,0.78.77,1.55,1.19,2.3A14.52,14.52,0,0,0,43,87.41c0.86,0,1.7.14,2.56,0.2C45.74,87.63,45.73,87.59,45.7,87.45Z"/><path class="d" d="M114.45,47.39c0.12,0.69.24,1.38,0.34,2.07s0.17,1.41.24,2.11,0.15,1.47.22,2.2c0,0.45.09,0.89,0.12,1.34a0.17,0.17,0,0,0,.21.19c0.23,0,.46,0,0.69,0,1.1,0,2.2,0,3.3,0a2.8,2.8,0,0,0-.13-0.65,34.38,34.38,0,0,0-1.19-3.94c-0.34-.95-0.73-1.88-1.15-2.8s-0.95-2-1.48-3a1.21,1.21,0,0,1-.6,0l-1-.07c-0.1,0-.16,0-0.12.14A20,20,0,0,1,114.45,47.39Z"/><path class="d" d="M116.68,69.56c-0.68,0-1.36,0-2,.11a6.77,6.77,0,0,0-1,.07c-0.08,0-.13,0-0.13.12,0,0.63-.13,1.24-0.19,1.87s-0.12,1.18-.2,1.77c0,0.35,0,.37.31,0.34l1.48-.13c0.67-.05,1.34-0.09,2-0.15q1.52-.14,3-0.23a2.3,2.3,0,0,0,.12-0.71c0.08-.53.13-1.07,0.2-1.6s0.14-1.13.22-1.69l-0.62,0Z"/><path class="d" d="M53.15,94.64a10.58,10.58,0,0,1-1.28-3,0.16,0.16,0,0,0-.17-0.14l-1-.09c-1-.08-2.07-0.14-3.1-0.24-0.29,0-.58,0-0.87-0.07S45.94,91,45.54,91a7.64,7.64,0,0,0,.81,1c0.47,0.56,1,1.11,1.45,1.65a28.14,28.14,0,0,0,2.35,2.27l0,0h0a1.29,1.29,0,0,1,.23,0l3.35,0.74a4.45,4.45,0,0,0,.82.16,0.38,0.38,0,0,0-.1-0.22Z"/><path class="d" d="M39.77,73.44c0.83,0.06,1.66.14,2.48,0.22,0.11,0,.18,0,0.15-0.15a9.66,9.66,0,0,1-.12-1.66,12.06,12.06,0,0,1,.13-2c0-.13,0-0.2-0.17-0.2a5.4,5.4,0,0,1-.62,0c-0.72,0-1.43-.1-2.15-0.13s-1.72-.12-2.58-0.15c0.06,0.39.11,0.78,0.17,1.17s0.13,1,.2,1.56,0.12,0.81.18,1.22c0.38,0,.76,0,1.14.06Z"/><path class="d" d="M62.44,81.44c0,0.25,0,.5,0,0.75,0.06,0.72.11,1.44,0.18,2.17s0.12,1.31.2,2,0.21,1.48.3,2.22a0.19,0.19,0,0,0,.22.22c0.59,0,1.18,0,1.77,0l3,0.09c1.25,0,2.51,0,3.76.09s2.37,0.56,3.56.58c4,0,8,.51,12,0.51h0a1.16,1.16,0,0,0,.19-0.72c0-.73.09-1.73,0.13-2.46,0.05-.94.09-2,0.15-2.95,0-.3,0-0.66,0-1,0.06-.88.12-1.8,0.18-2.68,0-.67,0-1.36.11-2,0-.3,0-0.61.05-0.9s0-.33-0.26-0.33c-2.14,0-4.28,0-6.41,0s-4.35,0-6.53,0c-2.62,0-4.57,0-7.19-.06H67c-2,0-2.66,0-3.66,0a0.62,0.62,0,0,0-.62.28c0,0.6-.21,1.21-0.21,1.81,0,0.34,0,.67,0,1C62.45,80.46,62.42,81,62.44,81.44Z"/><path class="d" d="M110,76.1c-0.62,0-1.41.1-2.2,0.13s-1.85.09-2.77,0.14l-2.61.14c-1,.07-2.08.1-3.11,0.14a0.18,0.18,0,0,0-.21.21c0,0.35-.06.7-0.1,1-0.07.64-.15,1.27-0.21,1.91s-0.13,1.32-.2,2-0.17,1.51-.26,2.27-0.14,1.38-.25,2.07-0.23,1.55-.43,2.32c0,0.13,0,.16.14,0.15l2-.13c0.6,0,1.21,0,1.81-.1,1-.08,1.94-0.12,2.9-0.18,0.61,0,1.22,0,1.83-.1a0.56,0.56,0,0,0,.62-0.32c0.18-.49.42-1,0.61-1.43a51.48,51.48,0,0,0,2.34-7,28.54,28.54,0,0,0,.63-2.84C110.62,76.1,110.63,76.1,110,76.1Z"/><path class="d" d="M63.6,74.85c0.66,0,1.33,0,2,0s1.27,0,1.9,0c0.79,0,1.59,0,2.39.06h0.55a0.15,0.15,0,0,0,.19-0.18c0-.37,0-0.73,0-1.1q0-1.34.1-2.68c0-.14.14-0.33,0-0.43a0.85,0.85,0,0,0-.45-0.06c-1,0-2.08-.06-3.12-0.09l-2.87-.09-3.12-.09-2.87-.09-3.1-.09L52.35,70l-3.07-.09-2.91-.09c-0.75,0-1.5-.05-2.25-0.06-0.2,0-.24.06-0.24,0.25,0,0.86.07,1.73,0.09,2.59,0,0.37,0,.75.09,1.12a0.14,0.14,0,0,0,.15.15c0.65,0,1.31.1,2,.13,0.82,0,1.65.09,2.47,0.14l2.68,0.14,2.42,0.13,2.58,0.14,2.59,0.14c1,0.06,2,.1,3,0.14C62.48,74.83,63,74.8,63.6,74.85Z"/><path class="d" d="M47.9,87.84c0.58,0,1.16.1,1.73,0.13s1.43,0.09,2.15.14l2.75,0.16c0.08,0,.12,0,0.12-0.08a6.43,6.43,0,0,0,0-.94c-0.08-.45-0.17-0.9-0.25-1.35-0.17-1-.29-2-0.38-3s-0.13-1.72-.16-2.58a29.29,29.29,0,0,1,0-3.25,2.5,2.5,0,0,1,0-.45c0-.14,0-0.14-0.14-0.15-0.31,0-.63,0-0.94-0.05l-2.6-.17c-0.66,0-1.31-.05-2-0.11l-0.8,0c-0.9-.06-1.8-0.13-2.7-0.17-0.45,0-.45,0-0.39.45v0a28.87,28.87,0,0,0,.54,3,36,36,0,0,0,1.87,5.8,17.92,17.92,0,0,0,.79,1.73,0.87,0.87,0,0,1,.21.76C47.72,87.78,47.78,87.83,47.9,87.84Z"/><path class="d" d="M111.07,73.79c0-.52.09-1,0.14-1.55,0.08-.74.17-1.48,0.26-2.22,0-.11,0-0.18-0.15-0.17s-0.24,0-.36,0c-1,0-2,.06-3,0.09l-3,.09-3,.09-3,.09-3,.09-2.91.09c-0.86,0-1.71,0-2.57.06H90.28c-0.19,0-.34.07-0.29,0.32a2.22,2.22,0,0,1,0,.45c0,1.12,0,2.23-.07,3.35,0,0.34,0,.34.32,0.3h0.11c0.69,0,1.37-.06,2.06-0.09l3.18-.14,2.15-.09,3.25-.14,2.08-.09,3.25-.14,2-.09c0.84,0,1.68-.07,2.52-0.09A0.22,0.22,0,0,0,111.07,73.79Z"/><path class="d" d="M89.31,88.93a12,12,0,0,1,1.51-.07c0.82,0,1.63-.07,2.45-0.1s1.82-.07,2.73-0.1a0.22,0.22,0,0,0,.26-0.26c0-.4.06-0.79,0.1-1.19s0.12-1,.17-1.48,0.1-1,.15-1.55,0.15-1.3.22-2,0.11-1.38.2-2.07c0.1-.84.17-1.68,0.27-2.52a1.43,1.43,0,0,1,.22-0.91l-1.42,0-2.77.1q-1.65.07-3.3,0.09a0.27,0.27,0,0,0-.32.31c-0.06,1-.13,1.95-0.18,2.92,0,0.78-.08,1.55-0.13,2.33-0.07,1-.09,2-0.15,2.93,0,0.29,0,.58,0,0.87-0.06.81-.12,1.61-0.14,2.42A0.14,0.14,0,0,0,89.31,88.93Z"/><path class="d" d="M60.54,77c0-.1,0-0.2-0.14-0.2s-0.58,0-.87-0.05l-1.17,0c-0.85-.06-1.71-0.1-2.56-0.13a0.16,0.16,0,0,0-.19.18c-0.05.59,0,1.18,0,1.77,0,1.08.05,2.15,0.13,3.23q0.1,1.38.3,2.75a37.92,37.92,0,0,0,.73,3.75,0.22,0.22,0,0,0,.25.2c0.44,0,.87,0,1.31.05s0.63,0,.94,0l1.94,0.13c0.12,0,.17,0,0.15-0.17-0.14-1-.28-1.91-0.39-2.88s-0.21-2.13-.28-3.19-0.1-2.27-.15-3.41C60.47,78.34,60.56,77.67,60.54,77Z"/><path class="d" d="M88.42,74.63s0,0,0-.07c0-.52,0-1,0-1.56,0-.74,0-1.48.07-2.23,0-.21-0.06-0.25-0.26-0.25-2.27,0-4.54,0-6.8,0-0.18,0-.21.07-0.21,0.23,0,0.67,0,1.33,0,2s0,1.3,0,2c0,0.23.06,0.29,0.29,0.29,2.17,0,4.34,0,6.5-.05C88.4,75,88.4,75,88.42,74.63Z"/><path class="d" d="M76.76,70.57H72.49c-0.13,0-.21,0-0.21.18q0,2,0,4.07a0.14,0.14,0,0,0,.17.17l1,0c1.18,0,2.36,0,3.54,0,0.14,0,.2,0,0.17-0.19A7.53,7.53,0,0,1,77,73.65c0-.73,0-1.45-0.06-2.18,0-.23,0-0.46,0-0.69A0.17,0.17,0,0,0,76.76,70.57Z"/><path class="d" d="M78.44,74.88a0.14,0.14,0,0,0,.16.16H80c0.1,0,.15,0,0.13-0.14,0-.35,0-0.7,0-1.05-0.07-1-.1-2.06-0.14-3.09a0.16,0.16,0,0,0-.2-0.19c-0.41,0-.81,0-1.22,0-0.19,0-.26,0-0.25.24,0,0.59.07,1.17,0.09,1.76Q78.4,73.73,78.44,74.88Z"/><path class="d" d="M100.56,61.93a0.23,0.23,0,0,0,.29-0.28c0-1.36,0-2.73,0-4.09,0-.48,0-0.48-0.48-0.51h0a0.5,0.5,0,0,0-.28.14,9.36,9.36,0,0,1-4,1.67A11.2,11.2,0,0,1,93.6,59a11.83,11.83,0,0,1-4.15-.93,12.63,12.63,0,0,1-1.86-1A0.51,0.51,0,0,0,87.37,57c-0.8,0-1.61,0-2.41,0-2.2,0-4.4,0-6.6,0l-4.11,0c-0.17,0-.23,0-0.22.22,0,0.45,0,.9.06,1.35,0.08,0.91.13,1.83,0.25,2.73,0,0.1,0,.12-0.12.12H73a0.12,0.12,0,0,1-.15-0.13c0-.14,0-0.29,0-0.43,0-.41-0.06-0.82-0.1-1.23-0.07-.79-0.16-1.58-0.21-2.37A0.22,0.22,0,0,0,72.24,57c-1,0-2,0-3,0-4.8,0-9.6,0-14.39.05-0.22,0-.27.07-0.26,0.28s0,0.7,0,1.05c0.06,0.83.07,1.66,0.11,2.5,0,0.24,0,.47,0,0.71a0.25,0.25,0,0,0,.3.27c6.51,0,13,0,19.52,0,5.83,0.06,11.67,0,17.5,0C94.93,62,97.75,61.92,100.56,61.93Z"/><path class="d" d="M66.44,43.93c-0.53,0-1.05,0-1.58,0l-3.3.1L59,44.16c-0.87,0-1.74.11-2.61,0.1a0.32,0.32,0,0,0-.38.3,47.74,47.74,0,0,0-1,4.93c-0.15,1.05-.27,2.1-0.34,3.16-0.05.74-.07,1.48-0.06,2.23,0,0.29,0,.29.3,0.29,4.74,0,9.49,0,14.23,0h1.43c0.54,0,1.07,0,1.61,0,0.2,0,.24-0.06.24-0.25,0-1,0-1.94,0-2.92s0.08-1.74.11-2.61c0-.48.06-1,0.1-1.44q0.08-1,.18-2c0.06-.61.12-1.23,0.2-1.84,0-.21,0-0.27-0.21-0.27-1.16,0-2.31,0-3.47,0C68.38,43.93,67.41,43.86,66.44,43.93Z"/><path class="d" d="M113.14,50.32c-0.13-1.1-.27-2.19-0.47-3.28a19.51,19.51,0,0,0-.42-1.94,0.23,0.23,0,0,0-.22-0.25l-2.9-.18c-0.71,0-1.42,0-2.13-.11l-0.92,0-1.87-.12L104.33,45a16.91,16.91,0,0,1,.29,2.15,15.11,15.11,0,0,1-.08,2.52,11.12,11.12,0,0,1-1,3.37,13.78,13.78,0,0,1-1.28,2.09,0.24,0.24,0,0,0,.2,0c1.41,0,2.82,0,4.23,0s2.66,0,4,0c0.9,0,1.79,0,2.69,0,0.18,0,.23-0.05.21-0.22-0.06-.58-0.06-1.17-0.13-1.76C113.35,52.33,113.26,51.32,113.14,50.32Z"/><path class="d" d="M74.26,55.12h10.9c-0.36-.4-0.73-0.78-1.06-1.2A13.47,13.47,0,0,1,81.52,49,11,11,0,0,1,81,45.76c0-.67,0-1.33,0-2H74.95c-0.16,0-.24,0-0.25.2s-0.06.48-.09,0.73c-0.09.74-.19,1.48-0.26,2.22s-0.1,1.38-.16,2.08c-0.07,1-.12,2-0.16,3s0,2,0,2.94C74,55.09,74.09,55.12,74.26,55.12Z"/><path class="d" d="M83.24,34.38c-1.07,0-2.14,0-3.22,0-1.5,0-3,0-4.5,0-0.67,0-1.33,0-2,0-1.09,0-2.19.09-3.28,0.11-0.35,0-.36,0-0.36.36s0,0.95-.09,1.42a13.87,13.87,0,0,0-.08,1.51c0,0.88.11,1.77,0.16,2.65a0.21,0.21,0,0,0,.26.23l1.93,0c3.21,0,6.42,0,9.64,0a13,13,0,0,1,1.11-2.14A10.4,10.4,0,0,1,86,35.33a13.86,13.86,0,0,1,1.68-.83c-0.87,0-1.74,0-2.61-.09C84.47,34.39,83.85,34.4,83.24,34.38Z"/><path class="d" d="M53.08,51.63a22.27,22.27,0,0,1,.29-2.27c0.31-1.6.65-3.2,1-4.8,0-.17,0-0.23-0.18-0.21-0.49,0-1,.07-1.46.09-1,0-2,.09-2.93.14l-1.6.09a0.26,0.26,0,0,0-.27.21q-0.6,1.76-1,3.56a27.42,27.42,0,0,0-.51,2.81c-0.07.54-.16,1.09-0.23,1.63s-0.19,1.37-.29,2.06c0,0.32-.06.31,0.27,0.31,1.07,0,1.93-.05,3,0h3.27c0.19,0,.4,0,0.37-0.25a4.09,4.09,0,0,1,.09-0.48A28,28,0,0,1,53.08,51.63Z"/><path class="d" d="M95.51,54.43c0.49,0.12,1,.3,1.44.46l1.64,0.53c0.06,0,.14,0,0.15.12a2,2,0,0,0,.55-0.44,18.16,18.16,0,0,0,1.79-1.78,9,9,0,0,0,1.8-4.9,12.51,12.51,0,0,0-.22-3.26,11.73,11.73,0,0,0-2.92-5.75,12.89,12.89,0,0,0-3.2-2.58A9.86,9.86,0,0,0,92,35.56a12.52,12.52,0,0,0-1.69.15c-0.3,0-.6.08-0.9,0.13-0.35.87-.72,1.73-1,2.63a19.47,19.47,0,0,0-.76,3.35,10.86,10.86,0,0,0-.13,1.7,1,1,0,0,0,.3-0.44,8.15,8.15,0,0,1,.53-0.93,4.83,4.83,0,0,1,1.51-1.34,3.92,3.92,0,0,1,1-.38c0.15,0,.18-0.11.15-0.26q-0.18-1-.34-2a0.77,0.77,0,0,1,.44-0.73,0.71,0.71,0,0,1,.67.21,2.19,2.19,0,0,1,.3,1.07,11.87,11.87,0,0,1,.19,1.38c0,0.11.09,0.1,0.17,0.11a5.68,5.68,0,0,1,3.66,1.41,8,8,0,0,1,1.61,1.78,5.8,5.8,0,0,1,.92,2.75c0,0.11,0,.23,0,0.34,0,0.32.06,0.36,0.39,0.29a1,1,0,0,1,.63,0,0.7,0.7,0,0,1,.29,1,1.22,1.22,0,0,1-.74.26l-0.5,0a0.22,0.22,0,0,0-.2.21,5.41,5.41,0,0,1-1.45,2.51,4.72,4.72,0,0,1-2,1.23c-0.22.07-.22,0.16-0.17,0.34C95.13,53,95.32,53.72,95.51,54.43Z"/><path class="d" d="M101.55,98.52c-0.68.12-1.37,0.21-2.06,0.31s-1.55.24-2.33,0.34c-0.63.08-1.25,0.2-1.89,0.22-1.09,0-2.18.12-3.27,0.18l-2.15.13-2.77.18-0.89,0c-0.94.06-1.88,0.09-2.82,0.15l-2.38.14c-1.43.09-2.85,0.22-4.28,0.16-0.8,0-1.61,0-2.41,0l-2.71-.09c-0.87,0-1.74-.08-2.61-0.14l-2.63-.18c-1.06-.09-2.13-0.17-3.19-0.28s-2-.24-3-0.36q-3-.35-5.92-0.92L52.37,98a42,42,0,0,0,52.43-.16,8,8,0,0,1-1.09.24C103,98.25,102.27,98.4,101.55,98.52Z"/><path class="e" d="M127.48,106.18a1.3,1.3,0,1,1-1.3,1.3,1.3,1.3,0,0,1,1.3-1.3m0-1.25a2.55,2.55,0,1,0,2.55,2.55,2.55,2.55,0,0,0-2.55-2.55h0Z"/><path class="e" d="M27.28,19.72A1.3,1.3,0,1,1,26,21a1.3,1.3,0,0,1,1.3-1.3m0-1.25A2.55,2.55,0,1,0,29.83,21a2.55,2.55,0,0,0-2.55-2.55h0Z"/><path class="e" d="M80.07,2.82h-0.7A0.39,0.39,0,0,1,79,2.55V2.06a0.74,0.74,0,0,0-.62-0.84,0.76,0.76,0,0,0-.82.8l0,0.66a0.37,0.37,0,0,1-.24.38H76.77c-0.42,0-.8,0-0.84.43s0.33,0.57.8,0.57h0.62a0.49,0.49,0,0,1,.27.45V5.09a0.88,0.88,0,0,0,.73.89,0.78,0.78,0,0,0,.87-0.78V4.5a0.47,0.47,0,0,1,.27-0.44h0.62a0.67,0.67,0,0,0,.8-0.69A0.7,0.7,0,0,0,80.07,2.82Z"/><path class="e" d="M80.07,124.63h-0.7a0.39,0.39,0,0,1-.38-0.27v-0.49a0.74,0.74,0,0,0-.62-0.84,0.76,0.76,0,0,0-.82.8l0,0.75a0.52,0.52,0,0,1-.24.48H76.77c-0.42,0-.8,0-0.84.43s0.33,0.57.8,0.57h0.62a0.36,0.36,0,0,1,.27.35V127a0.85,0.85,0,0,0,.73.86,0.79,0.79,0,0,0,.87-0.79v-0.62a0.35,0.35,0,0,1,.27-0.35h0.62a0.73,0.73,0,0,0,.8-0.78A0.76,0.76,0,0,0,80.07,124.63Z"/><polygon class="f" points="75 62.06 62 62.06 62 49.06 53 49.06 53 62.06 41 62.06 41 70.06 53 70.06 53 83.06 62 83.06 62 70.06 75 70.06 75 62.06"/></svg>