<svg xmlns="http://www.w3.org/2000/svg" viewBox="0 0 254.68 254.69"><defs><style>.a{fill:none;stroke:#dedede;}.a,.f{stroke-miterlimit:10;}.b{fill:#f9eca5;}.c{fill:#fff;}.d{fill:#eebf80;}.e{fill:#254156;}.f,.g{fill:#264356;}.f{stroke:#264356;stroke-width:2px;}</style></defs><title>All-icons</title><rect class="a" x="37.8" y="37.8" width="179.09" height="179.09" transform="translate(127.34 -52.75) rotate(45)"/><path class="b" d="M197.5,191.87a35.7,35.7,0,0,0-.62-5.77c-0.44-2.54-1-5.06-1.55-7.57l-0.48-2.2,0-.09,0,0.09c-0.91-4.24-1.89-8.46-2.85-12.69q-1.89-8.34-3.57-16.73c-0.39-1.93-.81-3.86-1.17-5.8s1.37-3.65,1.19-5.66a6.11,6.11,0,0,0-1.14-2.56c-0.53-.88-1.13-1.71-1.72-2.55l-0.86-1.23-0.39-.56a1.76,1.76,0,0,1-.24-0.34q-0.16-.11,0-0.21l0.12-.14a3.68,3.68,0,0,0,1.14-2,3,3,0,0,0-1.05-2c-0.71-.78-1.45-1.54-2.18-2.31s-1.46-1.53-2.19-2.3a1.37,1.37,0,0,1-.53-0.93,2.46,2.46,0,0,1,.14-0.48,2,2,0,0,0,.07-0.74,3.92,3.92,0,0,0-1.46-2.12l-1-1a3.21,3.21,0,0,1-.91-1.09,1,1,0,0,1,.1-0.56,1.8,1.8,0,0,0,.05-0.54,2.21,2.21,0,0,0-.45-1.14,10.08,10.08,0,0,0-2.08-2c-1.68-1.31-3.38-2.6-5.07-3.91-0.31-.24-0.64-0.46-0.94-0.72l-0.06-.06-0.12-.11a0.86,0.86,0,0,1-.23-0.95,5.83,5.83,0,0,0,.08-0.88,6.22,6.22,0,0,0-.25-1.82c0-.08-0.06-0.16-0.08-0.24s-0.09-.28-0.15-0.43v0a21.32,21.32,0,0,0-2.69-4.33c-1.2-1.68-2.44-3.34-3.74-4.95l-1.91-2.35h0l-1.21,1.91c-0.28.44-.53,0.89-0.79,1.35a2.74,2.74,0,0,1-.56.79h0l-0.05,0a0.79,0.79,0,0,1-.43.1h0l-0.18,0a1.58,1.58,0,0,1-.45-0.16,1.19,1.19,0,0,1-.45-0.39c-0.33-.54.31-1.48,0.59-1.93,0.18-.29.35-0.58,0.51-0.87s0.25-.46.37-0.7c0.48-.92.91-1.85,1.33-2.8,0.9-2.05,1.83-4.09,2.75-6.13a99.38,99.38,0,0,0,4.11-10.1,18.23,18.23,0,0,0,1.07-7.4,13.41,13.41,0,0,0-2.73-6.5c-0.17-.23-0.34-0.48-0.53-0.7h0a8.59,8.59,0,0,0-2.23-1.7,14,14,0,0,0-6.87-1.21,7.92,7.92,0,0,0-.87.15,8.31,8.31,0,0,0-4.55,3.09,12.37,12.37,0,0,0-2,3.53l-0.13.37-0.83,2.44-1.5,4.46c-0.94,2.8-1.88,5.6-2.77,8.42-0.12.39-.25,0.79-0.36,1.18-0.06.22-.1,0.51-0.19,0.76l0,0.05a0.8,0.8,0,0,1-.23.34,0.6,0.6,0,0,1-.72,0,2.72,2.72,0,0,1-.45-0.37c-0.34-.33-0.66-0.7-1-1.06l-0.43-.47c-1-1.07-2-2.16-3.08-3.19-0.53-.51-1.07-1-1.63-1.47l0.06,0-0.06,0-0.13-.1,0.13,0.1a9.91,9.91,0,0,0-2-1.2,7.43,7.43,0,0,0-.76-0.33,1.43,1.43,0,0,0-.32-0.1,5.74,5.74,0,0,0-1.81-.18,9.46,9.46,0,0,0-1.18.06l-0.46.09-0.15,0-0.08,0h0a3.31,3.31,0,0,0-.73.28l-0.1,0-0.21.1a14.93,14.93,0,0,0-3.77,2.87l-0.18.18c-0.95.94-1.87,1.91-2.77,2.89l-1.1,1.2a2.5,2.5,0,0,1-.89.7,0.49,0.49,0,0,1-.6-0.19,2.44,2.44,0,0,1-.28-0.84c-0.36-1.3-.8-2.59-1.22-3.87q-1-3-2-6.07-0.93-2.76-1.86-5.52a23.11,23.11,0,0,0-1.09-2.85l0-.07-0.18-.34c-1.29-2.34-3.22-4.4-5.92-5l-0.41-.08a11.51,11.51,0,0,0-4.48.23,14.6,14.6,0,0,0-1.93.6A8.25,8.25,0,0,0,93,53.91l-0.36.35h0a0.2,0.2,0,0,0,.19,0,0.15,0.15,0,0,1-.19,0h0l-0.13.17a15,15,0,0,0-1.93,3c-0.07.14-.13,0.28-0.19,0.41a11.77,11.77,0,0,0-.89,2.79,13.56,13.56,0,0,0,.06,4.76q0.05,0.31.11,0.61l0,0.23q0.07,0.34.16,0.67l0,0.11q0.1,0.39.21,0.78l0,0.06,0,0.15,0.17,0.55a81.66,81.66,0,0,0,3.56,9c0.94,2.12,1.9,4.24,2.84,6.35,0.65,1.45,1.27,2.91,2,4.32a18.83,18.83,0,0,1,1.31,2.36,1.67,1.67,0,0,1,.12.56,0.56,0.56,0,0,1-.09.31,1.68,1.68,0,0,1-.93.53H99.1a0.7,0.7,0,0,1-.51-0.11A2.3,2.3,0,0,1,98,91c-0.52-.92-1.08-1.82-1.65-2.72L96,87.78h0c-0.84,1-1.67,2.08-2.5,3.13-1.4,1.78-2.77,3.58-4,5.45l0,0.05-0.07.1a11.27,11.27,0,0,0-2.09,4.27,6,6,0,0,0-.09,1.11q0,0.27,0,.54c0,0.24.12,0.51,0.12,0.74a0.53,0.53,0,0,1,0,.15,0.93,0.93,0,0,1-.24.39l-0.14.13c-0.36.31-.76,0.59-1.13,0.88l-4.41,3.39c-0.41.32-.82,0.64-1.22,1a10.6,10.6,0,0,0-.79.73,6.12,6.12,0,0,0-.69.82,2.09,2.09,0,0,0-.38,1,1.78,1.78,0,0,0,0,.48,1.69,1.69,0,0,0,.09.24,0.76,0.76,0,0,1,.06.22,0.54,0.54,0,0,1-.06.27,3.16,3.16,0,0,1-.6.68l-1.31,1.34-0.54.55a5,5,0,0,0-.5.59l-0.06.09,0,0.07a1.84,1.84,0,0,0-.29,1.15c0,0.3.21,0.6,0.2,0.89,0,0,0,0,0,0v0.15a2,2,0,0,1-.54.75c-1.18,1.26-2.39,2.5-3.57,3.76l-0.18.19-0.44.47-0.12.13-0.09.1c-0.73.83-1.3,1.76-.65,2.89a6.13,6.13,0,0,0,.71,1l0.16,0.19L70.54,128c0.08,0.09.08,0.08,0,.21v0a2.77,2.77,0,0,1-.39.57L68.63,131l-0.49.73c-0.33.49-.65,1-1,1.49-0.16.27-.32,0.53-0.47,0.79a3.62,3.62,0,0,0-.48,1.44,5.45,5.45,0,0,0,.52,2.42c0.17,0.45.39,0.92,0.55,1.41a3.52,3.52,0,0,1,.21,1.13c0,0.14,0,.28,0,0.42-0.07.7-.29,1.41-0.43,2.09l-0.52,2.63-0.32,1.58q-0.46,2.22-.91,4.44c-0.19.94-.39,1.87-0.58,2.81-0.87,4.13-1.79,8.24-2.73,12.35s-1.86,8.28-2.76,12.43c-0.36,1.67-.73,3.34-1.06,5-0.23,1.18-.44,2.37-0.62,3.56a30.78,30.78,0,0,0-.36,4.13,17.31,17.31,0,0,0,.13,2.38,12.16,12.16,0,0,0,2,5.28,8.91,8.91,0,0,0,2.86,2.78,8.4,8.4,0,0,0,2.93,1l0.55,0.07a19.94,19.94,0,0,0,5.51-.45c2.19-.4,4.37-0.89,6.54-1.41q4.45-1.06,8.86-2.27l1-.28,2.27-.63,1.27-.37,0.23-.07h0l0,0,0.15-.07,0.07,0h0l0.07,0h0a1.76,1.76,0,0,0,.61-0.48,3.37,3.37,0,0,0,.22-0.28,7.14,7.14,0,0,0,.95-2.24,23.92,23.92,0,0,0,.69-4.5,66.61,66.61,0,0,0,.07-7.57c-0.15-3.82-.5-7.63-0.93-11.42-0.61-5.38-1.4-10.74-2.29-16.08-1-6.06-2.1-12.1-3.44-18.09-0.46-2.06-1-4.11-1.28-6.19a35.68,35.68,0,0,1-.16-10.2,32.35,32.35,0,0,1,.74-3.77q0.15-.58.32-1.15c0-.16.12-0.36,0.16-0.51l0-.13a3.49,3.49,0,0,1,.4-0.88,1,1,0,0,0-.16-1.24l0.06,0h0l0.21,0.06a4.14,4.14,0,0,1,.5.12l0.3,0.12a2.69,2.69,0,0,1,.71.45l0.1,0.11a0.54,0.54,0,0,1,.14.43,1.1,1.1,0,0,1,0,.11q-0.13.87-.19,1.75s0,0.07,0,.11c0,0.42-.06.85-0.06,1.27h0a28.67,28.67,0,0,0,.48,5.38,50.15,50.15,0,0,0,1.94,6.66c1.52,4.49,3.16,8.95,4.7,13.43l0.09,0.28h0a7.94,7.94,0,0,1,.34,1.28c0,0.07,0,.15,0,0.22h0c0.06,0.47.1,0.94,0.16,1.41,0.14,1.16.33,2.31,0.49,3.47l0,0.19,0.14,1c0,0.14.05,0.27,0.07,0.41a0.42,0.42,0,0,1,0,0h0a0.15,0.15,0,0,0,0,0h0v0h0s0,0,0,.07v0.13l0.39,2.76L98.33,155l0,0.2,0.17,1.2c0.11,0.71.21,1.43,0.32,2.14,0.05,0.35.1,0.71,0.16,1.06,0.08,0.52.17,1,.25,1.56,0,0.06,0,.13,0,0.2a4.67,4.67,0,0,0,.15.9h0a6.9,6.9,0,0,0,2.41,2.75h0l0.36,0.24a19,19,0,0,1,2.5,1.92,19.06,19.06,0,0,0-2.5-1.92l-0.36-.24h0a7.72,7.72,0,0,1-1.29-1.07,6,6,0,0,1-.61-0.77,3.41,3.41,0,0,1-.51-0.91h0a0.27,0.27,0,0,0,0,0v0c0,0.24.08,0.48,0.13,0.72a14.48,14.48,0,0,0,.34,1.41c0.07,0.23.15,0.47,0.24,0.7,0.37,1,.81,1.92,1.22,2.89a57.73,57.73,0,0,1,2.39,5.68,16.62,16.62,0,0,1,.7,4.38q0,0.32,0,.64t0,0.73c-0.09,1.82-.42,3.63-0.65,5.44-0.08.61-.15,1.22-0.23,1.83h0l-0.14,1.14c0,0.3-.07.6-0.11,0.89v0a9.58,9.58,0,0,0-.07,1.22c0,0.13,0,.27,0,0.41a6.53,6.53,0,0,0,1.7,3.84,6.47,6.47,0,0,0,3.7,2,7.21,7.21,0,0,0,.93.08c0.48,0,1,0,1.44,0h3.42q12,0,24,0l4.57,0h1a7.72,7.72,0,0,0,4.17-.92c0.18-.11.35-0.22,0.51-0.34l0.17-.14,0.26-.21,0.29-.27,0.07-.07a6.61,6.61,0,0,0,.53-0.62l0.12-.16,0.13-.2a6.48,6.48,0,0,0,.62-1.16,6.19,6.19,0,0,0,.4-2.34c0-.11,0-0.23,0-0.34h0a17.28,17.28,0,0,0-.17-2.07c-0.23-1.89-.45-3.77-0.7-5.65a20.67,20.67,0,0,1-.1-5.62,20,20,0,0,1,1.81-5.57l0.35-.79c0.25-.57.5-1.14,0.74-1.71l0.19-.43c0.4-.93.84-1.86,1.18-2.81a11.55,11.55,0,0,0,.34-1.13l0.06-.22v0c0.09-.39.12-0.8,0.21-1.2a4.54,4.54,0,0,1-.3.55,4.63,4.63,0,0,0,.27-0.55,0.25,0.25,0,0,0,0-.09h0v-0.07h0a1.4,1.4,0,0,0,.1-0.51c0.07-.45.15-0.87,0.22-1.32,0.13-.81.26-1.61,0.38-2.42q0.31-2,.6-4.09l0.09-.58V153.1l0.06-.38v0l0-.13q0.34-2.37.67-4.74v-0.1q0.12-.86.23-1.72c0-.23.06-0.45,0.08-0.68a10.57,10.57,0,0,1,.55-2.38l0.31-.9,0.91-2.59q1.15-3.26,2.29-6.52a72.21,72.21,0,0,0,3.08-10,26.49,26.49,0,0,0,.49-5,24.36,24.36,0,0,0-.13-2.55,7.06,7.06,0,0,1-.16-1.21,0.64,0.64,0,0,1,.22-0.4l0.13-.1a2.63,2.63,0,0,1,.6-0.39,3.92,3.92,0,0,1,.87-0.28l0.11,0,0.17-.06h0a1,1,0,0,0-.2,1.26l0,0.09a2.53,2.53,0,0,1,.35.8s0,0.08,0,.13c0,0.2.14,0.44,0.2,0.64a31,31,0,0,1,1.07,5.13,34.79,34.79,0,0,1,.11,7.34c-0.09,1-.21,2-0.37,2.93s-0.4,2.13-.63,3.18-0.43,1.91-.64,2.86q-0.91,4.09-1.69,8.21c-1.16,6.19-2.21,12.41-3.08,18.64-0.63,4.49-1.17,9-1.53,13.51-0.24,3.1-.41,6.22-0.37,9.33a40.14,40.14,0,0,0,.44,5.88,14.73,14.73,0,0,0,.64,2.65l0.06,0.18,0,0.09,0.11,0.25,0,0.06a3.71,3.71,0,0,0,.94,1.37,1.77,1.77,0,0,0,.63.31h0l0.07,0h0a0.1,0.1,0,0,1,0,.07c2.74,0.83,5.52,1.56,8.29,2.28,1.46,0.38,2.93.76,4.39,1.12,2.21,0.54,4.42,1,6.65,1.47l0.48,0.09c3.49,0.65,7.34,1.16,10.32-1.24l0.11-.1,0.18-.16,0.24-.21a11.61,11.61,0,0,0,3.32-7,15.73,15.73,0,0,0,.14-2s0-.07,0-0.11S197.5,191.94,197.5,191.87Z"/><path class="c" d="M95.36,74.35h0c0,0.35,0,.35.08,0.35h0a5.43,5.43,0,0,0,.3.89,8.13,8.13,0,0,0,.94,1.68,7.82,7.82,0,0,0,6.73,3.13l0,0c0.25,0,.49-0.06.73-0.06h0a0.31,0.31,0,0,0,0,0l0.1,0h-0.1v0h0a2,2,0,0,0,.48-0.13l0.09,0c2.39-.67,3.6-2.87,4.25-5.17l0-.15,0-.18,0.06-.25a2.39,2.39,0,0,0,0-2,8.73,8.73,0,0,0-1.62-1.66l-0.07-.06-0.18-.14-0.26-.2-0.19-.14L106.51,70,106.4,70a8.52,8.52,0,0,0-2.67-1.15,7.86,7.86,0,0,0-4.47.31h0L99,69.26l-0.18.08-0.18.09-0.23.12-0.16.09L98,69.77l-0.18.12L97.65,70l-0.19.15-0.14.12-0.2.17L97,70.58l-0.13.13,0,0.06-0.12.13-0.15.18-0.14.18-0.12.16-0.12.18L96,71.77,96,71.93l-0.12.22-0.05.11-0.13.29q-0.11.26-.2,0.54v0c0,0.1-.06.21-0.09,0.31s0,0.15-.06.23a1.78,1.78,0,0,0,0,.72l0,0h0a0.51,0.51,0,0,1,0,.09V74.35Z"/><path class="c" d="M149.45,80l0.24,0.08,0.24,0.08,0.3,0.08,0.18,0,0.33,0.06,0.18,0,0.31,0h1l0.47,0h0l0.53-.08,0.59-.14,0.35-.1,0.24-.09,0.22-.08,0.25-.1,0.21-.1,0.23-.11,0.23-.12,0.19-.11,0.28-.17,0.13-.08,0.06,0,0.47-.35,0.11-.1c0.15-.13.3-0.26,0.44-0.4l0,0c0.14-.14.28-0.29,0.41-0.44l0.19-.23,0.18-.23,0.21-.29,0.13-.2q0.16-.25.3-0.51l0.16-.32a7.75,7.75,0,0,0,.53-1.49v0s0,0,0,0a1,1,0,0,0,0-.23h0c0-.06,0-0.13,0-0.19s0-.06,0-0.09V73.83a4.11,4.11,0,0,0-.18-0.73c-0.07-.18-0.14-0.36-0.21-0.53l-0.16-.35-0.11-.2-0.09-.16-0.17-.28,0-.06q-0.16-.24-0.35-0.47t-0.4-.44l-0.07-.07-0.17-.15-0.17-.15-0.09-.07-0.26-.2,0,0-0.32-.21-0.07,0L156,69.41l-0.14-.07-0.43-.18-0.07,0a8,8,0,0,0-6.64.57l-0.12.06-0.28.17c-0.19.12-.38,0.24-0.56,0.37s-0.41.31-.61,0.48l-0.06.05q-0.33.28-.63,0.58l-0.21.22-0.18.19-0.23.27a2,2,0,0,0-.49,1,2.68,2.68,0,0,0,.08.86,17.9,17.9,0,0,0,.72,2.47l0,0.1,0.17,0.39L146.47,77l0.13,0.25,0.16,0.29,0.06,0.1a6.79,6.79,0,0,0,.54.78l0,0.05,0.25,0.28L147.82,79,148,79.08l0.27,0.23,0,0a5,5,0,0,0,1,.61Z"/><path class="d" d="M133.82,71c-0.53-.51-1.07-1-1.63-1.47l0.06,0-0.06,0-0.13-.1,0.13,0.1a9.91,9.91,0,0,0-2-1.2,7.43,7.43,0,0,0-.76-0.33,1.43,1.43,0,0,0-.32-0.1h0.06a0.16,0.16,0,0,0-.14,0,0.42,0.42,0,0,0,0,.23c0,0.08,0,.16,0,0.23l0,0.2h0v0l0.07,0.52,0.18,1.39c0.85,6.73,1.53,13.48,1.95,20.26,0.3,4.85.46,9.71,0.36,14.57a95,95,0,0,1-.63,9.71,43.75,43.75,0,0,1-1,5.7,11.83,11.83,0,0,1-1,2.82l0.6-.06c0.27,0,.56-0.05.83-0.12s0.65-.23,1-0.31a8,8,0,0,1,1-.18,9.67,9.67,0,0,1,4,.42,26.78,26.78,0,0,1,6.88,3.72,8.32,8.32,0,0,0,1.49.88,0.92,0.92,0,0,0,1-.19,2.25,2.25,0,0,0,.62-0.77,5.25,5.25,0,0,0,.37-2.76,16.8,16.8,0,0,0-.7-3.42c-0.74-2.47-1.86-4.8-2.6-7.27a47.57,47.57,0,0,1-1.65-7.87,58.82,58.82,0,0,1,.07-14.74q0.14-1.13.33-2.25a3.87,3.87,0,0,1,.15-0.92h0q0.09-.5.19-1l0-.11,0-.11c0.1-.48.21-1,0.34-1.45h0a0.53,0.53,0,0,0,0-.09l-0.1,0a0.05,0.05,0,0,1,.06,0h0L143,85c0.36,0.06.73,0.19,1.08,0.28l1,0.28L149,86.61h0a2.79,2.79,0,0,1-.68-0.51h0a14.83,14.83,0,0,1-4.59-6.48l0-.07-0.13-.38,0-.14,0-.1,0-.16v0l0-.09c0-.11-0.05-0.22-0.08-0.33l-0.06-.25h0c0-.19-0.08-0.38-0.12-0.58l0-.23c0-.12,0-0.24-0.06-0.37l0-.27c0-.11,0-0.22,0-0.32s0-.19,0-0.29,0-.2,0-0.3,0-.21,0-0.31,0-.19,0-0.28,0-.22,0-0.33,0-.16,0-0.25,0-.24,0-0.36v0c0-.33,0-0.66.05-1V73c0-.14,0-0.28,0-0.42l0-.17c0-.14,0-0.27,0-0.41l0-.18,0.06-.41,0-.17,0.07-.42,0-.14,0.09-.45v0q0.11-.54.24-1.07h0s-0.06,0-.05,0a5.32,5.32,0,0,0,.26-1.22V68h0.06l0-.06,0.05-.15,0-.08v0c0.12-.39.24-0.77,0.36-1.15-0.13.38-.24,0.76-0.36,1.14v0l0.12-.38,0.13-.19a6.12,6.12,0,0,1,.89-1.2,14.72,14.72,0,0,1,3.68-3l0,0,0.4-.23,0.21-.11,0.55-.27,0.2-.09a13.11,13.11,0,0,1,3-.94,13.57,13.57,0,0,1,1.8-.21h0.83l0.58,0h0.23l0.42,0a17.14,17.14,0,0,1,3.29.64h0l0.48,0.15,0.19,0.06L161.47,62l0.55,0.2h0a12,12,0,0,0-1.08-1.23,12.72,12.72,0,0,0-5.8-3.51l-0.13,0-0.22,0-0.46-.08-0.22,0-0.44,0a9.25,9.25,0,0,0-3.94.59h0l-0.36.15-0.12.05-0.29.13-0.22.11-0.21.11-0.43.24,0.34-.48,0.23-.3,0.1-.13A10.64,10.64,0,0,1,151.82,55a10.22,10.22,0,0,1,1.84-.79l0.57-.17,0.09,0,0.7-.16c0.33-.06.66-0.11,1-0.14h0.07l0.82-.06H158l0.52,0h0.17l0.23,0,0.14,0,0.62,0.08L160,53.86l0.29,0.06L160.71,54l0.15,0,0.08,0,0.14,0,0.09,0,0.49,0.13,0.16,0.06a0.19,0.19,0,0,0,.2-0.05h0a8.59,8.59,0,0,0-2.23-1.7,14,14,0,0,0-6.87-1.21,7.92,7.92,0,0,0-.87.15,8.31,8.31,0,0,0-4.55,3.09,12.37,12.37,0,0,0-2,3.53l-0.13.37-0.83,2.44-1.5,4.46c-0.94,2.8-1.88,5.6-2.77,8.42-0.12.39-.25,0.79-0.36,1.18-0.06.22-.1,0.51-0.19,0.76l0,0.05a0.8,0.8,0,0,1-.23.34,0.6,0.6,0,0,1-.72,0,2.72,2.72,0,0,1-.45-0.37c-0.34-.33-0.66-0.7-1-1.06l-0.43-.47C135.88,73.13,134.88,72,133.82,71Z"/><path class="d" d="M92.86,54.31L93,54.25l0.49-.13,0.09,0,0.14,0,0.08,0L94,54l0.42-.09,0.29-.06L95,53.81a14.3,14.3,0,0,1,2.76-.17h0l0.82,0.06h0.07c0.33,0,.66.08,1,0.14l0.7,0.16,0.09,0L101,54.21a10.22,10.22,0,0,1,1.84.79A10.64,10.64,0,0,1,106,57.66l0.1,0.13,0.23,0.3,0.34,0.48h0l-0.43-.24L106,58.22l-0.2-.1L105.46,58l-0.1,0a9.21,9.21,0,0,0-5.15-.64l-0.27,0-0.3.07-0.14,0c-0.25.06-.5,0.14-0.75,0.22h0a13.19,13.19,0,0,0-5,3.33,11.83,11.83,0,0,0-1,1.17l0.55-.2,0.12,0,0.46-.15,0.08,0,0.53-.16h0a15.57,15.57,0,0,1,6.65-.48q0.62,0.1,1.23.26a14,14,0,0,1,5.07,2.54l0,0q0.38,0.3.75,0.63h0l0.54,0.51L109,65.33l0.12,0.12,0.28,0.3L109.54,66l0.24,0.29c0.17,0.21.34,0.43,0.49,0.65l0.12,0.17,0,0.06h0l0.07,0.11,0,0.06v0q-0.13-.42-0.27-0.84l0.25,0.77,0,0.09a4.62,4.62,0,0,1,.29.92L111.06,69l-0.23-.73,0.1,0.43,0,0.08v0l0,0.09L111,69.06c0.05,0.21.11,0.43,0.16,0.65l0-.17c0,0.17.08,0.34,0.11,0.52l-0.07-.34,0,0.15,0,0.1q0.09,0.41.16,0.82l0,0.17q0.06,0.35.11,0.69s0,0.06,0,.09a5.91,5.91,0,0,1,.1.8h0c0,0.17,0,.33,0,0.5s0,0.24,0,.36,0,0.38,0,.57,0,0.26,0,.38,0,0.48,0,.72c0,0,0,.1,0,0.14s0,0.07,0,.1a14.81,14.81,0,0,1-.55,3.58l0.08-.25-0.08.27-0.06.19c0,0.1-.06.2-0.09,0.31,0-.1.06-0.19,0.09-0.29-0.07.23-.15,0.46-0.23,0.68a15,15,0,0,1-4.6,6.35l0,0,0,0a2.27,2.27,0,0,1-.54.4h0l3.81-1.05,1.09-.29c0.35-.09.72-0.22,1.08-0.28l0.14,0s0,0,.07,0H111.8l0,0a2.31,2.31,0,0,0,.1.59q0.13,0.53.23,1.05v0.11c0,0.14.05,0.29,0.08,0.43,0.07,0.36.14,0.72,0.2,1.08,0,0.21.07,0.42,0.1,0.63s0.08,0.48.12,0.72l0,0.21,0,0.21c0,0.17,0,.34.06,0.5,0,0.36.09,0.71,0.14,1.07s0.05,0.46.07,0.69,0.07,0.74.11,1.1q0,0.32.05,0.64,0,0.59.08,1.18c0,0.19,0,.38,0,0.56s0,0.33,0,.49,0,0.47,0,.71,0,0.26,0,.39,0,0.23,0,.34,0,0.31,0,.46q0,1.52-.06,3v0.25c0,0.17,0,.35,0,0.52s0,0.21,0,.31q0,0.63-.1,1.25,0,0.42-.08.84l0,0.26,0,0.29-0.06.54c0,0.24-.06.48-0.09,0.73l0,0.17v0c0,0.08,0,.16,0,0.24q-0.06.39-.12,0.78a2.69,2.69,0,0,1-.13.77h0a46.55,46.55,0,0,1-1.83,7.13,58.07,58.07,0,0,0-2.52,7.41c-0.3,1.5-.64,3.67.53,4.9a1.12,1.12,0,0,0,1.16.43,6.87,6.87,0,0,0,1.54-.88l1.46-1a17.49,17.49,0,0,1,7.47-3.19,8.47,8.47,0,0,1,1.91,0,15.47,15.47,0,0,1,2,.5,12.78,12.78,0,0,0,1.43.18,4.86,4.86,0,0,1-.23-0.48,18,18,0,0,1-.89-2.84,48.45,48.45,0,0,1-1-6.12c-0.37-3.4-.51-6.82-0.54-10.24,0-5.09.17-10.18,0.52-15.25q0.34-4.87.85-9.73,0.28-2.7.6-5.4,0.17-1.46.36-2.92l0.19-1.53,0.1-.75c0-.16.12-0.39,0-0.42h-0.14a3.31,3.31,0,0,0-.73.28l-0.1,0-0.21.1a14.93,14.93,0,0,0-3.77,2.87l-0.18.18c-0.95.94-1.87,1.91-2.77,2.89l-1.1,1.2a2.5,2.5,0,0,1-.89.7,0.49,0.49,0,0,1-.6-0.19,2.44,2.44,0,0,1-.28-0.84c-0.36-1.3-.8-2.59-1.22-3.87q-1-3-2-6.07-0.93-2.76-1.86-5.52a23.11,23.11,0,0,0-1.09-2.85l0-.07-0.18-.34c-1.29-2.34-3.22-4.4-5.92-5l-0.41-.08a11.51,11.51,0,0,0-4.48.23,14.6,14.6,0,0,0-1.93.6A8.25,8.25,0,0,0,93,53.91l-0.36.35h0A0.2,0.2,0,0,0,92.86,54.31Zm18.89,63.13,0-.1,0-.12,0,0.12,0,0.1h0Zm-0.57-48.05-0.08-.27Z"/><path class="d" d="M155.22,162.31a4.54,4.54,0,0,1-.3.55l-0.44.86a33.22,33.22,0,0,1-4.51,6.57,26.17,26.17,0,0,1-3,2.88q-0.8.65-1.66,1.23c-0.31.21-.63,0.41-0.95,0.61a3.11,3.11,0,0,0-.67.65c-1.55,1.78-2.74,3.85-4.34,5.6a12.07,12.07,0,0,1-6,3.71,18.39,18.39,0,0,1-3.69.41c-0.56,0-1.11.19-1.67,0.23a9.68,9.68,0,0,1-1.32,0c-0.54,0-1.07-.2-1.61-0.23s-1.3,0-1.95-.1a12.54,12.54,0,0,1-3.53-.9,13.87,13.87,0,0,1-5.35-4.43c-0.72-.93-1.39-1.9-2.09-2.84-0.36-.48-0.72-1-1.12-1.41a3.46,3.46,0,0,0-.77-0.73l-0.83-.54a26,26,0,0,1-6-5.67,33.38,33.38,0,0,1-2.27-3.33q-0.51-.84-1-1.71l-0.44-.86a3.75,3.75,0,0,1-.3-0.57c0,0.24.08,0.48,0.13,0.72a14.48,14.48,0,0,0,.34,1.41c0.07,0.23.15,0.47,0.24,0.7,0.37,1,.81,1.92,1.22,2.89a57.73,57.73,0,0,1,2.39,5.68,16.62,16.62,0,0,1,.7,4.38q0,0.32,0,.64t0,0.73c-0.09,1.82-.42,3.63-0.65,5.44-0.08.61-.15,1.22-0.23,1.83h0l-0.14,1.14c0,0.3-.07.6-0.11,0.89v0a9.58,9.58,0,0,0-.07,1.22c0,0.13,0,.27,0,0.41a6.53,6.53,0,0,0,1.7,3.84,6.47,6.47,0,0,0,3.7,2,7.21,7.21,0,0,0,.93.08c0.48,0,1,0,1.44,0h3.42q12,0,24,0l4.57,0h1a7.72,7.72,0,0,0,4.17-.92c0.18-.11.35-0.22,0.51-0.34l0.17-.14,0.26-.21,0.29-.27,0.07-.07a6.61,6.61,0,0,0,.53-0.62l0.12-.16,0.13-.2a6.48,6.48,0,0,0,.62-1.16,6.19,6.19,0,0,0,.4-2.34c0-.11,0-0.23,0-0.34h0a17.28,17.28,0,0,0-.17-2.07c-0.23-1.89-.45-3.77-0.7-5.65a20.67,20.67,0,0,1-.1-5.62,20,20,0,0,1,1.81-5.57l0.35-.79c0.25-.57.5-1.14,0.74-1.71l0.19-.43c0.4-.93.84-1.86,1.18-2.81a11.55,11.55,0,0,0,.34-1.13l0.06-.22v0C155.1,163.11,155.14,162.7,155.22,162.31Z"/><path class="d" d="M166.79,198.56a54.42,54.42,0,0,0,10.46,1.06,20.81,20.81,0,0,0,5.25-.62,7.21,7.21,0,0,0,3.71-2.1,10.88,10.88,0,0,0,1.59-2.85,10.71,10.71,0,0,0,.76-4c0-.6,0-1.21-0.07-1.81-0.12-1.5-.35-3-0.61-4.46-0.37-2.12-.81-4.23-1.26-6.34-0.62-2.94-1.28-5.87-1.93-8.8q-1.32-5.92-2.64-11.84-1.71-7.72-3.37-15.46-1-4.65-2-9.3c-0.69-3.3-1.28-6.65-2.15-9.9a25,25,0,0,0-2.41-6.25,7,7,0,0,0-2.45-2.65,3.73,3.73,0,0,0-2.11-.46,0.83,0.83,0,0,0-.44.16h0a1,1,0,0,0-.2,1.26l0,0.09a2.53,2.53,0,0,1,.35.8s0,0.08,0,.13c0,0.2.14,0.44,0.2,0.64a31,31,0,0,1,1.07,5.13,34.79,34.79,0,0,1,.11,7.34c-0.09,1-.21,2-0.37,2.93s-0.4,2.13-.63,3.18-0.43,1.91-.64,2.86q-0.91,4.09-1.69,8.21c-1.16,6.19-2.21,12.41-3.08,18.64-0.63,4.49-1.17,9-1.53,13.51-0.24,3.1-.41,6.22-0.37,9.33a40.14,40.14,0,0,0,.44,5.88,14.73,14.73,0,0,0,.64,2.65l0.06,0.18,0,0.09,0.11,0.25,0,0.06a3.71,3.71,0,0,0,.94,1.37,1.77,1.77,0,0,0,.63.31h0l0.07,0A27.6,27.6,0,0,0,166.79,198.56Z"/><path class="d" d="M87.74,114.21a1,1,0,0,0-.16-1.24,0.84,0.84,0,0,0-.48-0.18c-2.16-.17-3.68,1.55-4.66,3.28A26.23,26.23,0,0,0,80,122.49c-0.85,3.28-1.45,6.63-2.15,9.95Q76,141.18,74.14,149.9q-1.47,6.73-3,13.46-1.14,5.1-2.27,10.19c-0.55,2.48-1.08,5-1.58,7.46-0.35,1.76-.68,3.52-0.92,5.3a24.45,24.45,0,0,0-.28,4.14,10.45,10.45,0,0,0,.86,3.88A10.14,10.14,0,0,0,68.57,197a7.49,7.49,0,0,0,3.76,2c3.52,0.91,7.35.65,10.92,0.23a68.22,68.22,0,0,0,7.68-1.34,4.33,4.33,0,0,0,.69-0.21h0a1.76,1.76,0,0,0,.61-0.48,3.37,3.37,0,0,0,.22-0.28,7.14,7.14,0,0,0,.95-2.24,23.92,23.92,0,0,0,.69-4.5,66.61,66.61,0,0,0,.07-7.57c-0.15-3.82-.5-7.63-0.93-11.42-0.61-5.38-1.4-10.74-2.29-16.08-1-6.06-2.1-12.1-3.44-18.09-0.46-2.06-1-4.11-1.28-6.19a35.68,35.68,0,0,1-.16-10.2,32.35,32.35,0,0,1,.74-3.77q0.15-.58.32-1.15c0-.16.12-0.36,0.16-0.51l0-.13A3.49,3.49,0,0,1,87.74,114.21Z"/><path class="d" d="M151.81,145c-2.17.29-4,1.66-5.91,2.68a24.59,24.59,0,0,1-6.12,2.53,9,9,0,0,1-3.29.2,12.72,12.72,0,0,1-3.39-1.19,6.64,6.64,0,0,0-3.08-.66q-1.61.08-3.22,0.06a21.43,21.43,0,0,0-3.28,0,14.41,14.41,0,0,0-3.32,1.24c-4.34,1.79-9-.72-12.74-2.91a19.23,19.23,0,0,0-3-1.53,4.61,4.61,0,0,0-3-.32c-1.18.39-1.53,1.67-1.6,2.79a13.34,13.34,0,0,0,.37,3.56,28.77,28.77,0,0,0,.93,3.27,9.15,9.15,0,0,0,.84,1.71,40.76,40.76,0,0,0,4.17,5.95,15.88,15.88,0,0,0,2.71,2.58c1,0.69,1.87,1.46,2.89,2.09a26.8,26.8,0,0,0,7,3,34.6,34.6,0,0,0,7.44,1.25,29.21,29.21,0,0,0,7.74-.74,29.94,29.94,0,0,0,7.15-2.46,23,23,0,0,0,3.2-1.94,29.54,29.54,0,0,0,2.76-2.2,30.74,30.74,0,0,0,4.77-6.05,24.45,24.45,0,0,0,1.47-2.47,14,14,0,0,0,.72-2.13,23,23,0,0,0,.74-3.34,7.22,7.22,0,0,0-.18-3.56A2.37,2.37,0,0,0,151.81,145Z"/><path class="e" d="M99.85,74.32A5.56,5.56,0,0,0,101,77.21l0.18,0.21,0.1,0.1,0.05,0.05,0.1,0.08,0.09,0.07,0.06,0,0.14,0.09h0a1.46,1.46,0,0,0,.95.18,1.5,1.5,0,0,0,.83-0.46h0l0.12-.13,0-.05,0.07-.1,0.07-.1,0-.07,0.06-.11c0-.09.09-0.19,0.13-0.29a5.38,5.38,0,0,0,.25-0.91c0-.05,0-0.1,0-0.15s0-.12,0-0.18a5.49,5.49,0,0,0,0-.86,8.67,8.67,0,0,0-.22-1.31l0-.16c0-.13-0.08-0.25-0.12-0.38l0-.09v0l-0.07-.16,0-.1,0-.06a3.51,3.51,0,0,0-1.22-1.47l-0.07,0-0.09,0a1.64,1.64,0,0,0-.62-0.15h-0.26a1.39,1.39,0,0,0-.57.22,3.51,3.51,0,0,0-1.08,2.33c0,0.17,0,.33,0,0.5s0,0.1,0,.15,0,0.27,0,.41v0.08Z"/><path class="e" d="M150.88,72.35l-0.05.11,0,0a5.21,5.21,0,0,0-.21.56,6.48,6.48,0,0,0-.28,2.19s0,0,0,0a4.39,4.39,0,0,0,.46,1.77,2.41,2.41,0,0,0,.26.4,1.79,1.79,0,0,0,.53.46l0,0,0.1,0,0,0a1.3,1.3,0,0,0,.36.08h0.23l0.09,0a1.72,1.72,0,0,0,.75-0.34,2.62,2.62,0,0,0,.49-0.49l-0.09.12,0.09-.12v0a5.38,5.38,0,0,0,1.13-4,4.91,4.91,0,0,0-.51-1.67,2.47,2.47,0,0,0-.18-0.27l0,0a1.39,1.39,0,0,0-1.19-.59A2.61,2.61,0,0,0,150.88,72.35Z"/><path class="f" d="M149.81,152.43a1.42,1.42,0,0,0-2,.31c-0.26.35-6.49,8.64-21.31,8.64s-20.23-9.8-20.47-10.24a1.42,1.42,0,0,0-2.49,1.35c0.26,0.48,6.5,11.72,23,11.72s23.31-9.41,23.6-9.81A1.41,1.41,0,0,0,149.81,152.43Z"/><path class="g" d="M135.06,116.15c1.49-1.67,4.88-3.43,6.72-1.31a7.85,7.85,0,0,1,1.42,4.2,31.11,31.11,0,0,1,0,5.67l-1.29-.53-9.23-3.81A14.59,14.59,0,0,1,135.06,116.15Z"/><path class="g" d="M118.67,115.25a12,12,0,0,1,3.34,5.12l-1.29.53-9.23,3.81a22.89,22.89,0,0,1,.48-8l0,0.17,0.11-.37-0.06.2a4.11,4.11,0,0,1,1.53-2.36C115.09,113.29,117.34,114.22,118.67,115.25Z"/></svg>