<svg xmlns="http://www.w3.org/2000/svg" viewBox="0 0 254.68 254.69"><defs><style>.a{fill:none;stroke:#dedede;stroke-miterlimit:10;}.b{fill:#475660;}.c{fill:#7b849b;}.d{fill:#76888c;}.e{fill:#687c82;}</style></defs><title>All-icons</title><rect class="a" x="37.8" y="37.8" width="179.09" height="179.09" transform="translate(127.34 -52.75) rotate(45)"/><path class="b" d="M208,129c-21.76,1.54-43.61,1.89-65.41,2.29-22,.4-44.07,0-66-0.9-6-.25-11.92-0.52-17.88-0.73-3.1-.11-6.19-0.33-9.28-0.54a6.1,6.1,0,0,0-2.09-.12c-0.33.21-.21,0.45-0.21,0.85,0,1.69.17,3.4,0.26,5.09,0.29,2,.54,4.1.83,6.15a22.83,22.83,0,0,0,1,5.5c0.06,2,1.07,4.27,1.7,6.15q1,3.1,2.33,6.11c1.6,3.72,3.37,7.74,5.9,10.94,1.49,2.24,2.91,5,4.89,6.86a32.44,32.44,0,0,0,4.14,5,57.57,57.57,0,0,0,4.73,4.6l0.08,0.09a0.91,0.91,0,0,0,.1.14h0c0.81,0.75,1.59,1.54,2.42,2.27a5.38,5.38,0,0,0,2,1.5,90,90,0,0,0,37.89,16.36c14.1,2.59,28.52.62,41.8-4.62a87.31,87.31,0,0,0,21.27-12c1.25-.44,2.37-1.8,3.33-2.7l0,0h0c0.41-.39.81-0.78,1.19-1.19h0l0.09-.09a44.94,44.94,0,0,0,4.19-4.38c0.7-.79,1.41-1.57,2.12-2.36a10.31,10.31,0,0,0,2-2.39c2.11-1.85,3.58-4.63,5.15-6.93h0c1.33-1.3,2.22-3.44,3.08-5.07,1-2,2-4,2.85-6s1.63-4,2.31-6.09a26.19,26.19,0,0,0,1.69-6.15,4.78,4.78,0,0,0,.43-1.8c0.15-.71.32-1.42,0.47-2.14,0.52-1.07.42-2.77,0.56-3.94s0.39-2.63.51-4,0.1-2.61.17-3.91c0-.9.48-1.92-0.69-1.84h0Z"/><path class="b" d="M52.46,125.32c20.6,1.35,41.37,2,62,2,21.38,0,42.72-.17,64.08-0.88,5.94-.2,11.88-0.53,17.82-0.78,2.94-.13,5.89-0.31,8.83-0.45,0.71,0,3.14.21,3.52-.4a10.6,10.6,0,0,0-.16-3.85c-0.24-3.14-.72-6.27-1.07-9.4-0.25-1.19-.48-2.39-0.79-3.56a18.25,18.25,0,0,0-1.21-4.81q-0.78-2.6-1.75-5.13a81.89,81.89,0,0,0-4.65-10l-2.21-3.65c-0.52-.85-1-2.21-1.88-2.76a8.06,8.06,0,0,0-1.75-2.39l-1.92-2.43a37.76,37.76,0,0,0-4-4.74c-0.73-.84-1.62-1.53-2.35-2.36-0.5-.57-1.24-1.81-2.08-1.89-0.28-.93-2-1.93-2.76-2.53-1.19-1-2.34-2.06-3.55-3a66.47,66.47,0,0,0-6.85-4.81A75.25,75.25,0,0,0,153.9,50,81.09,81.09,0,0,0,137,46.39a67.93,67.93,0,0,0-8.64-.45c-1.56,0-3.11.16-4.67,0.22l-2.42.1a4.64,4.64,0,0,0-2.06.21,6.3,6.3,0,0,0-2.58.26c-8,.43-16.34,3.37-23.52,6.78a73.3,73.3,0,0,0-10.5,6.1c-1.81,1.26-3.53,2.6-5.22,4l-2.32,2c-0.54.46-1.95,1.25-2.15,2-2.42,1.86-4.32,4.37-6.42,6.58a36.72,36.72,0,0,0-5.82,7.54A69.3,69.3,0,0,0,49.17,108a11,11,0,0,0-.8,3.56c-0.32.24-.27,1.66-0.32,2-0.12.89-.23,1.79-0.36,2.68a29.76,29.76,0,0,0-.47,4.58c-0.17.74-.68,3.67,0,4.12,0.46,0.31,1.73.1,2.26,0.13l3,0.18h0Z"/><path class="c" d="M183,185.77l0.09-.09Z"/><path class="c" d="M72.86,185.95L73,186Z"/><path class="d" d="M160.32,105.94c0.94,0.23,1.85.58,2.77,0.88l3.15,1c0.12,0,.28,0,0.28.23a8.36,8.36,0,0,1-2.5,1.39,16.22,16.22,0,0,1-5,1.19,19.63,19.63,0,0,1-13.82-4.08,24.12,24.12,0,0,1-5.68-6,23.91,23.91,0,0,1-3.76-14.77,17.32,17.32,0,0,1,3.79-9.73,18.15,18.15,0,0,1,3.92-3.8,13.67,13.67,0,0,1,5.14-2.16c-0.68,1.67-1.39,3.34-1.92,5.07a37.53,37.53,0,0,0-1.46,6.46,21,21,0,0,0-.25,3.28c0,0.37-.08.46-0.44,0.32-0.82-.32-1.66-0.6-2.5-0.9-1.31-.46-2.61-0.94-3.92-1.39a1.18,1.18,0,0,0-1.67.71,1.52,1.52,0,0,0,1.05,1.71l6.58,2.34a0.43,0.43,0,0,1,.35.47,16.39,16.39,0,0,0,.16,3.17,11.67,11.67,0,0,0,1.16,3.46,14.42,14.42,0,0,0,2.32,3.11,0.25,0.25,0,0,1,0,.43c-0.36.32-.72,0.66-1.08,1-0.54.48-1.11,0.93-1.6,1.45a8.66,8.66,0,0,0-1.63,1.67,1.14,1.14,0,0,0,.11,1.38,1.05,1.05,0,0,0,1.17.27,3.42,3.42,0,0,0,1.55-1.11c1.19-1,2.33-2.13,3.48-3.2a0.31,0.31,0,0,1,.43,0l1.64,1a0.36,0.36,0,0,0,.18.29,40.2,40.2,0,0,0,3.34,2.45,10.23,10.23,0,0,0,1.72,1c0.38,1.1.58,2.24,0.89,3.35a1.42,1.42,0,0,0,.64,1,1.15,1.15,0,0,0,1.37-.23,1.35,1.35,0,0,0,.35-1.29C160.56,106.79,160.43,106.37,160.32,105.94Z"/><path class="e" d="M156.39,101.82a7.64,7.64,0,0,1-1.62-.14,14.68,14.68,0,0,1-2.62-.74,0.36,0.36,0,0,0,.18.29,40.19,40.19,0,0,0,3.34,2.45,10.23,10.23,0,0,0,1.72,1c-0.11-.86-0.42-1.68-0.58-2.52A0.33,0.33,0,0,0,156.39,101.82Z"/><path class="e" d="M162.34,96.48a6.72,6.72,0,0,0,1.51-5,13.46,13.46,0,0,0-.08-1.89A11.61,11.61,0,0,0,159.49,83a7.41,7.41,0,0,0-4.25-1.76,7.94,7.94,0,0,0-4.08.62,6.6,6.6,0,0,0-2.82,2.45,8.55,8.55,0,0,0-1.5,4.41,10.76,10.76,0,0,0,.3,2.71,10.42,10.42,0,0,0,4.48,6.4,8.62,8.62,0,0,0,5.2,1.55A7,7,0,0,0,162.34,96.48Zm-5.43,1.45a7.45,7.45,0,0,1-5.89-2,8.26,8.26,0,0,1-1.88-2.23,7.5,7.5,0,0,1-1-3.84,7,7,0,0,1,1.3-4.5,6.29,6.29,0,0,1,5-2.67,7.78,7.78,0,0,1,6.16,2.75,7.67,7.67,0,0,1,2,4.68,7.52,7.52,0,0,1-.76,4.49A6.22,6.22,0,0,1,156.91,97.93Z"/><path class="e" d="M158.18,86.59a5.16,5.16,0,0,0-4.07-1.44,3.36,3.36,0,0,0-2.67,1.73,5.22,5.22,0,0,0-.64,4,6.07,6.07,0,0,0,3.06,4,4.05,4.05,0,0,0,5.65-1.24c1-1.39.85-3,.37-4.58A5.82,5.82,0,0,0,158.18,86.59Zm0,5.81a2.79,2.79,0,0,1-2.6,1.34A3.55,3.55,0,0,1,152,90.45a3.64,3.64,0,0,1,.82-2.41,2.92,2.92,0,0,1,4.43-.32,4.13,4.13,0,0,1,.9,1A3.51,3.51,0,0,1,158.18,92.41Z"/><path class="e" d="M176.61,70.78l-3.1-.38-4-.51-3.24-.38L163,69.09c0.92,0.57,1.9,1.07,2.79,1.69a30.61,30.61,0,0,1,5.54,5,38.67,38.67,0,0,1,3.39,4.73c1.18,0.06,2.35.08,3.53,0.18,0.52,0,1,0,1.54.08,1.81,0.11,3.61.24,5.42,0.34,1.4,0.08,2.8.1,4.19,0.21,0.57,0,1.15,0,1.72.08L195,81.67a0.69,0.69,0,0,0-.07-0.25l-1.69-2.15q-1.92-2.44-3.84-4.87a18.17,18.17,0,0,0-2-2.3l-2.93-.35-3.85-.47Z"/><path class="e" d="M183.93,177.38c-1.48.11-3,.2-4.45,0.26s-3.27.15-4.9,0.27c-1.47.11-2.94,0.21-4.41,0.26-1.63.05-3.26,0.2-4.9,0.26-1.41.06-2.83,0.11-4.24,0.18s-3,.11-4.55.17-3.12.11-4.68,0.18c-1.27.06-2.54,0-3.81,0.08s-2.42,0-3.63.09-2.24,0-3.36.08c-2.48.1-5,.06-7.44,0.08-4,0-8,.1-12,0-2.39-.09-4.78,0-7.18-0.08-2.61-.09-5.22-0.05-7.83-0.19-1.21-.06-2.42,0-3.63-0.08-1.4-.09-2.8-0.13-4.19-0.18l-4.46-.18-4.06-.18c-1.74-.08-3.47-0.15-5.21-0.27-1.57-.11-3.15-0.18-4.72-0.27-0.59,0-.63,0-0.46.57a20.76,20.76,0,0,0,3.33,6.31c1.1,1.44,2.36,2.75,3.55,4.11a0.5,0.5,0,0,0,.39.17c1.69,0.07,3.38.22,5.06,0.35L96,189.61c2.13,0.15,4.26.28,6.38,0.45,1.66,0.13,3.32.24,5,.36l5.2,0.36,4.93,0.35c1.92,0.13,3.85.22,5.77,0.38,0.53,0,1.06.06,1.58,0.12a24.08,24.08,0,0,0,2.9.2c1.23,0,2.46-.18,3.7-0.23,1.57-.07,3.15-0.17,4.72-0.26l4.94-.27,4.81-.27,4.67-.26c1.68-.1,3.35-0.16,5-0.27,1.4-.09,2.8-0.11,4.19-0.21,0.48,0,1,0,1.45-.09,1.23-.18,2.46-0.4,3.7-0.59,2.19-.34,4.4-0.6,6.58-1,3-.58,6-1.28,9.07-1.9A14.41,14.41,0,0,1,183,186h0l0.09-.09c0.34-.3.7-0.58,1-0.9,1.2-1.16,2.25-2.45,3.35-3.69s2.08-2.28,3.08-3.46a4.14,4.14,0,0,0,.88-1.08,19.86,19.86,0,0,0-2.06.16C187.57,177.1,185.75,177.25,183.93,177.38Z"/><path class="e" d="M113.75,63.95c3.71,0,7.41,0,11.12-.07q4.18-.1,8.37,0c2.77,0.09,5.55,0,8.32.19,1.3,0.08,2.6,0,3.89.12,0.63,0,1.27,0,1.9.08l6,0.35,2.6,0.18,5.54,0.44,3.12,0.28L168.73,66l3.41,0.4,3.11,0.39,4.32,0.59c1.12,0.15,2.23.4,3.36,0.48a2.42,2.42,0,0,0-1-1c-1.17-1.05-2.4-2-3.57-3.08s-2.35-2-3.59-2.92c-1.47-1.08-3-2.11-4.52-3.08q-3.24-2-6.64-3.78c-1.7-.87-3.46-1.65-5.23-2.37a73.91,73.91,0,0,0-8.53-2.88,77.19,77.19,0,0,0-8.92-1.86q-2.79-.41-5.59-0.67c-1.4-.13-2.81-0.24-4.22-0.26s-2.92,0-4.38,0-2.82.16-4.23,0.19c-0.81,0-1.61.13-2.43,0.12a1.48,1.48,0,0,0-.85.16c-0.68,1.41-1.31,2.84-1.92,4.28a71.75,71.75,0,0,0-4,12.67C113.21,63.95,113.21,64,113.75,63.95Z"/><path class="e" d="M62.07,81.61c1.5,0,3-.12,4.5-0.18L71,81.26l4.73-.18,4.46-.18,4.59-.18,4.37-.18,4.9-.18,4.28-.17c1.59-.06,3.18-0.11,4.77-0.19,1.22-.06,2.45-0.05,3.67-0.12,0.44,0,.88-0.07,1.32-0.07,0.11,0,.26,0,0.25-0.15,0-.38,0-0.77-0.06-1.15-0.11-1.42-.31-2.84-0.31-4.26a41.83,41.83,0,0,1,.32-5.68c0.09-.68,0-0.74-0.64-0.72-2,0-4,.18-6,0.34-1.5.12-3,.17-4.49,0.29-0.56,0-1.12.05-1.68,0.1-1.19.1-2.37,0.22-3.55,0.33-1,.1-2,0.18-3,0.29l-3.68.42c-1.43.16-2.86,0.3-4.29,0.47s-3,.39-4.5.6-3,.43-4.53.66c-1.07.17-2.14,0.39-3.22,0.49-0.53.57-1,1.16-1.59,1.71a48.2,48.2,0,0,0-4.52,5.35,23.57,23.57,0,0,0-1.87,2.77C61.17,81.7,61.62,81.62,62.07,81.61Z"/><path class="e" d="M78.15,66.94c1.33-.16,2.65-0.35,4-0.51l5.47-.64a0.8,0.8,0,0,0,.7-0.38c0.6-1.05,1.23-2.08,1.84-3.13a40.18,40.18,0,0,1,2.39-3.67c0.42-.56.44-0.55,1.09-0.22,0.17,0.09.36,0.14,0.53,0.23a1.5,1.5,0,0,1,.91.45,1.5,1.5,0,0,1-.49,1A21.31,21.31,0,0,0,92.19,65c-0.13.37,0,.47,0.32,0.4a6.3,6.3,0,0,1,1-.08l3.09-.19,4.67-.34c1.12-.07,2.24-0.11,3.35-0.19,1.92-.15,3.84-0.32,5.77-0.33a0.41,0.41,0,0,0,.47-0.39c0.5-2.15,1-4.3,1.52-6.44a25.45,25.45,0,0,1,1.31-3.33q1.49-3.67,3-7.32c-1.09.06-2.15,0.27-3.22,0.43a61.68,61.68,0,0,0-6.33,1.31,73.45,73.45,0,0,0-9.36,3c-1.9.77-3.78,1.58-5.61,2.49a74.05,74.05,0,0,0-9.5,5.61c-1.3.91-2.59,1.84-3.81,2.85q-2.58,2.14-5.11,4.33a1.79,1.79,0,0,0-.77.76l1.22-.15Z"/><path class="e" d="M187,111.33c-2.73-.11-5.46,0-8.19-0.09-1.71-.08-3.43,0-5.14,0-0.36,0-.48.08-0.47,0.46,0,2.06.11,4.13,0.18,6.19,0,0.78,0,1.57,0,2.35a0.33,0.33,0,0,0,.39.41c1.42,0,2.83,0,4.25.05,3.23,0.07,6.47,0,9.7.1q6,0.1,11.92.09c3,0,6,.15,8.95.09,0-.47-0.06-0.93-0.11-1.4-0.1-.94-0.22-1.88-0.34-2.82s-0.23-1.71-.33-2.56-0.2-1.74-.3-2.61c-2.72,0-5.44,0-8.16,0-0.35,0-.48.08-0.44,0.44q0.15,1.65.26,3.3c0.1,1.47.18,2.94,0.3,4.41,0,0.23,0,.28-0.23.28h-3.1a0.29,0.29,0,0,1-.34-0.33c-0.16-1.41,0-2.83-.15-4.24-0.09-1.19,0-2.39-.1-3.58a0.38,0.38,0,0,0-.46-0.45C192.38,111.37,189.68,111.44,187,111.33Z"/><path class="e" d="M61.8,120.74c4.67-.09,9.34,0,14-0.11,0.8,0,1.6,0,2.39,0,0.32,0,.45-0.08.43-0.42-0.07-1.16-.1-2.33-0.2-3.48-0.14-1.7-.26-3.4-0.33-5.11,0-.31-0.09-0.41-0.4-0.4-1.22,0-2.45,0-3.67.07-1.69.1-3.39,0-5.09,0.09-2.76.12-5.52,0-8.28,0.09-3.4.09-6.79,0-10.19,0.11-0.69,0-1.39,0-2.08,0a0.31,0.31,0,0,0-.09.24c-0.18,1.41-.36,2.82-0.56,4.22a32.29,32.29,0,0,0-.51,4.84l3.23-.06C54.23,120.73,58,120.81,61.8,120.74Z"/><path class="e" d="M199.45,147.07c-1.88.14-3.75,0.3-5.63,0.43a0.37,0.37,0,0,0-.43.41,6.19,6.19,0,0,1-.13,1c-0.47,2.41-1.08,4.79-1.74,7.16-0.75,2.7-1.59,5.37-2.58,8-0.79,2.08-1.6,4.15-2.51,6.18-0.17.38-.11,0.44,0.28,0.4l3.16-.26c0.84-.07,1.67-0.11,2.51-0.19,1.4-.15,2.81-0.27,4.22-0.34a5.63,5.63,0,0,0,.8-1.1,71.55,71.55,0,0,0,4.54-8.6c1-2.18,1.85-4.4,2.64-6.65,0.56-1.61,1-3.26,1.48-4.9a10,10,0,0,0,.48-2.06l-3,.24Z"/><path class="e" d="M60.9,107.86a0.35,0.35,0,0,0,.43-0.43,11.3,11.3,0,0,1,.1-1.5c0.23-1.7.4-3.41,0.67-5.11a55.87,55.87,0,0,1,1.52-6.93C64.18,92,64.7,90,65.22,88.12c0.13-.49.12-0.5-0.41-0.49s-1,.06-1.45.09c-1,.06-1.91.11-2.86,0.19-1.29.11-2.58,0.24-3.87,0.25-0.49.92-1,1.84-1.47,2.76C54.38,92.45,53.67,94,53,95.57a63.32,63.32,0,0,0-3,8.63c-0.33,1.26-.6,2.54-0.88,3.82,0.78,0,1.56-.05,2.34-0.06C54.64,107.92,57.77,108,60.9,107.86Z"/><path class="e" d="M64.3,169.82A21.07,21.07,0,0,0,63,166.61a68.26,68.26,0,0,1-3.28-10.17c-0.4-1.73-.74-3.48-1-5.23-0.19-1.12-.25-2.25-0.5-3.36a0.71,0.71,0,0,0-.8-0.62c-0.56,0-1.12-.06-1.68-0.1l-3.6-.33-3-.24a2.37,2.37,0,0,0,.07.48,67.26,67.26,0,0,0,2.21,7.34c0.88,2.47,1.91,4.88,3,7.25,0.71,1.51,1.48,3,2.3,4.43a28,28,0,0,0,2.33,3.69c1.65,0,3.28.27,4.93,0.39C64.37,170.16,64.36,170.09,64.3,169.82Z"/><path class="e" d="M196.82,92.6c0.23,1.33.47,2.66,0.65,4s0.33,2.71.47,4.07,0.29,2.83.43,4.25c0.09,0.86.18,1.72,0.24,2.59a0.33,0.33,0,0,0,.41.36c0.44,0,.88,0,1.32.05,2.12,0,4.25,0,6.37.09a5.4,5.4,0,0,0-.26-1.25,66.27,66.27,0,0,0-2.3-7.6c-0.66-1.83-1.41-3.62-2.21-5.39-0.87-1.93-1.83-3.83-2.84-5.69a2.34,2.34,0,0,1-1.17,0L196.08,88c-0.19,0-.31,0-0.24.27A38.56,38.56,0,0,1,196.82,92.6Z"/><path class="e" d="M201.12,135.34c-1.31.09-2.62,0.09-3.93,0.21a13.05,13.05,0,0,0-1.94.14c-0.15,0-.25.06-0.25,0.23,0,1.21-.25,2.4-0.37,3.6s-0.23,2.28-.39,3.42c-0.09.67-.06,0.72,0.61,0.65,0.95-.1,1.9-0.18,2.85-0.25,1.29-.1,2.58-0.17,3.87-0.28q2.92-.26,5.85-0.44a4.43,4.43,0,0,0,.24-1.37c0.15-1,.26-2.06.39-3.08s0.28-2.17.42-3.25c-0.4,0-.79.05-1.19,0.07C205.23,135.08,203.17,135.21,201.12,135.34Z"/><path class="e" d="M78.65,183.68a20.4,20.4,0,0,1-2.47-5.84,0.31,0.31,0,0,0-.33-0.28c-0.63,0-1.26-.12-1.89-0.16-2-.15-4-0.28-6-0.47-0.56-.05-1.11,0-1.67-0.13-0.77-.11-1.55-0.13-2.33-0.19a14.72,14.72,0,0,0,1.55,2c0.91,1.08,1.85,2.13,2.79,3.18a54.25,54.25,0,0,0,4.53,4.37L73,186.26h0a2.49,2.49,0,0,1,.44,0l6.46,1.43a8.58,8.58,0,0,0,1.58.31,0.73,0.73,0,0,0-.2-0.42Z"/><path class="e" d="M52.86,142.82c1.6,0.12,3.19.28,4.79,0.42,0.22,0,.34,0,0.29-0.3a18.63,18.63,0,0,1-.22-3.21,23.25,23.25,0,0,1,.24-3.83c0-.25,0-0.39-0.32-0.38a10.41,10.41,0,0,1-1.19-.07c-1.38-.08-2.76-0.19-4.14-0.26-1.66-.08-3.32-0.22-5-0.3,0.11,0.75.22,1.51,0.32,2.26,0.13,1,.25,2,0.39,3,0.11,0.78.23,1.56,0.34,2.35,0.74,0,1.47.05,2.21,0.12Z"/><path class="e" d="M96.56,158.24c0,0.48,0,1,.08,1.45,0.11,1.39.22,2.78,0.34,4.18s0.23,2.52.38,3.77c0.17,1.43.4,2.85,0.58,4.28a0.37,0.37,0,0,0,.42.42c1.14,0,2.27,0,3.41.06q2.89,0.12,5.79.18c2.42,0.05,4.84.09,7.25,0.18s4.58,0.05,6.86.07c7.68,0.08,15.36,0,23-.06h0c0.26,0,.36-0.07.37-0.34,0.07-1.41.17-2.82,0.25-4.23,0.1-1.81.17-3.62,0.29-5.43,0-.57,0-1.15.09-1.72,0.11-1.7.24-3.4,0.34-5.11,0.08-1.29.09-2.59,0.21-3.88,0.05-.57,0-1.15.11-1.72s0.06-.62-0.49-0.63c-4.12,0-8.24,0-12.36-.07s-8.39,0-12.58-.08c-5.05-.09-11.06,0-16.11-0.11-1,0-2,0-4,0h0c-1,0-2.89,0-4.81,0-0.43,0-.06.17-0.07,0.54,0,1.16.17,2.33,0.16,3.49,0,0.65.2,1.3,0.19,1.94C96.31,156.35,96.52,157.29,96.56,158.24Z"/><path class="e" d="M188.24,147.95c-1.19.07-2.72,0.19-4.25,0.25-1.78.07-3.56,0.17-5.34,0.27s-3.35.16-5,.26c-2,.13-4,0.2-6,0.27a0.34,0.34,0,0,0-.4.41c0,0.67-.12,1.35-0.19,2-0.13,1.23-.28,2.45-0.41,3.68s-0.24,2.55-.38,3.82c-0.16,1.46-.34,2.92-0.51,4.38s-0.27,2.66-.48,4c-0.23,1.49-.44,3-0.82,4.46-0.06.25,0,.31,0.27,0.29l3.92-.24c1.16-.07,2.33-0.09,3.48-0.19,1.86-.16,3.73-0.23,5.6-0.34,1.18-.07,2.36-0.1,3.53-0.2a1.08,1.08,0,0,0,1.19-.61c0.34-.94.8-1.84,1.18-2.76a99.23,99.23,0,0,0,4.51-13.53,55,55,0,0,0,1.22-5.47C189.44,147.94,189.45,147.94,188.24,147.95Z"/><path class="e" d="M98.8,145.53c1.28,0.1,2.56,0,3.85.09s2.45,0,3.67.08c1.53,0.08,3.07,0,4.6.11,0.35,0,.71,0,1.06,0a0.29,0.29,0,0,0,.36-0.36c0-.71,0-1.42.05-2.12q0-2.59.19-5.17c0-.28.28-0.63,0-0.83a1.63,1.63,0,0,0-.86-0.12c-2,0-4-.11-6-0.17l-5.52-.17-6-.18-5.52-.17-6-.18-5.57-.17L71.2,136c-1.87-.06-3.74-0.12-5.61-0.17-1.44,0-2.89-.1-4.34-0.12-0.38,0-.47.12-0.46,0.48,0.07,1.66.13,3.33,0.18,5,0,0.72.09,1.44,0.17,2.16a0.27,0.27,0,0,0,.3.29c1.26,0.08,2.52.19,3.79,0.24,1.59,0.06,3.17.18,4.76,0.26l5.16,0.27,4.67,0.26,5,0.27,5,0.27c1.93,0.11,3.85.19,5.78,0.27C96.64,145.5,97.72,145.44,98.8,145.53Z"/><path class="e" d="M68.54,170.57c1.12,0.07,2.23.19,3.34,0.25,1.38,0.07,2.76.17,4.14,0.27,1.76,0.12,3.53.2,5.29,0.31,0.15,0,.24,0,0.23-0.16a12.39,12.39,0,0,0,0-1.81c-0.15-.87-0.33-1.73-0.48-2.6-0.33-1.91-.56-3.84-0.74-5.77q-0.23-2.49-.31-5a56.47,56.47,0,0,1,.08-6.26,4.82,4.82,0,0,1,0-.87c0.05-.28-0.06-0.28-0.27-0.3-0.6-.05-1.21-0.06-1.81-0.1-1.67-.09-3.35-0.23-5-0.33-1.26-.08-2.53-0.1-3.79-0.2-0.52,0-1,0-1.54-.08-1.73-.11-3.46-0.24-5.2-0.34-0.87,0-.87,0-0.76.87,0,0,0,0,0,0a55.64,55.64,0,0,0,1,5.77,69.39,69.39,0,0,0,3.6,11.18,34.55,34.55,0,0,0,1.53,3.34,1.67,1.67,0,0,1,.4,1.46C68.18,170.46,68.31,170.55,68.54,170.57Z"/><path class="e" d="M190.3,143.49c0.06-1,.17-2,0.28-3,0.16-1.43.33-2.86,0.5-4.29,0-.22,0-0.35-0.28-0.32s-0.47.07-.7,0.07c-1.95,0-3.89.11-5.83,0.17l-5.7.18-5.83.18-5.7.18-5.79.18c-1.87.06-3.74,0.1-5.61,0.18-1.65.07-3.3,0.07-5,.11-0.15,0-.3,0-0.44,0-0.37,0-.65.14-0.56,0.61a4.27,4.27,0,0,1-.07.88c-0.05,2.15-.1,4.3-0.14,6.46,0,0.66,0,.66.61,0.57h0.22c1.33,0,2.65-.12,4-0.17,2-.08,4.09-0.18,6.14-0.27l4.15-.18c2.09-.08,4.18-0.17,6.27-0.27l4-.17c2.09-.08,4.18-0.18,6.27-0.27,1.28-.06,2.56-0.1,3.84-0.18,1.62-.09,3.24-0.14,4.86-0.18A0.42,0.42,0,0,0,190.3,143.49Z"/><path class="e" d="M148.35,172.68a23.21,23.21,0,0,1,2.91-.14c1.57-.09,3.15-0.14,4.72-0.19,1.75-.05,3.5-0.14,5.26-0.18a0.43,0.43,0,0,0,.5-0.5c0.05-.76.12-1.52,0.2-2.28,0.1-.95.22-1.9,0.32-2.85s0.18-2,.29-3c0.13-1.26.29-2.51,0.42-3.77s0.22-2.67.38-4c0.2-1.62.33-3.24,0.53-4.86a2.75,2.75,0,0,1,.43-1.76l-2.74.07c-1.78.06-3.56,0.11-5.35,0.19q-3.18.14-6.36,0.17a0.53,0.53,0,0,0-.63.61c-0.12,1.88-.25,3.76-0.35,5.64-0.08,1.5-.16,3-0.26,4.5-0.13,1.88-.17,3.77-0.3,5.65,0,0.56,0,1.12-.09,1.68-0.12,1.56-.22,3.11-0.26,4.67A0.27,0.27,0,0,0,148.35,172.68Z"/><path class="e" d="M92.91,149.66c0-.19,0-0.4-0.27-0.39-0.56,0-1.11-.08-1.68-0.1-0.75,0-1.5,0-2.25-.09-1.65-.11-3.29-0.19-4.94-0.25a0.3,0.3,0,0,0-.37.34c-0.1,1.13-.07,2.27-0.08,3.41,0,2.08.1,4.15,0.25,6.22q0.19,2.66.57,5.3a73.09,73.09,0,0,0,1.4,7.22,0.42,0.42,0,0,0,.47.39c0.84,0,1.68,0,2.52.1,0.6,0.06,1.21,0,1.81.09l3.74,0.24c0.24,0,.34,0,0.3-0.33-0.27-1.85-.55-3.69-0.75-5.54-0.22-2-.41-4.1-0.53-6.15s-0.18-4.38-.28-6.58C92.76,152.25,92.94,151,92.91,149.66Z"/><path class="e" d="M146.65,145.12s0-.09,0-0.13c0-1,0-2,.07-3,0.05-1.43.08-2.86,0.13-4.29,0-.41-0.12-0.49-0.5-0.49-4.37,0-8.74,0-13.11.09-0.35,0-.41.13-0.41,0.44,0,1.29,0,2.57,0,3.86s0,2.51,0,3.77c0,0.45.11,0.57,0.56,0.56,4.18,0,8.36,0,12.54-.1C146.61,145.8,146.61,145.82,146.65,145.12Z"/><path class="e" d="M124.17,137.29c-1.37,0-2.75,0-4.12,0h-4.12c-0.26,0-.41,0-0.41.35q0,3.92,0,7.85a0.28,0.28,0,0,0,.34.33c0.63,0,1.27,0,1.9.06,2.27,0,4.55,0,6.83,0,0.28,0,.38-0.09.32-0.36a14.52,14.52,0,0,1-.23-2.32c-0.08-1.4-.08-2.8-0.11-4.2,0-.44,0-0.89,0-1.33A0.32,0.32,0,0,0,124.17,137.29Z"/><path class="e" d="M127.41,145.6a0.26,0.26,0,0,0,.31.31c0.44,0,.89,0,1.33,0h1.33c0.18,0,.29,0,0.26-0.27-0.08-.67-0.05-1.35-0.1-2-0.13-2-.2-4-0.28-6a0.31,0.31,0,0,0-.39-0.37c-0.78,0-1.57,0-2.35,0-0.36,0-.5.08-0.47,0.46,0.08,1.13.13,2.26,0.18,3.39Q127.33,143.37,127.41,145.6Z"/><path class="e" d="M170,120.63a0.45,0.45,0,0,0,.56-0.54c0-2.63,0-5.26,0-7.89,0-.93,0-0.93-0.93-1h0a1,1,0,0,0-.54.28,18,18,0,0,1-7.62,3.22,21.59,21.59,0,0,1-4.83.33,22.8,22.8,0,0,1-8-1.8,24.35,24.35,0,0,1-3.59-1.91,1,1,0,0,0-.42-0.12c-1.55,0-3.1,0-4.65,0-4.24-.06-8.48,0-12.73,0-2.64,0-5.29,0-7.93-.08-0.32,0-.45.07-0.43,0.42,0.05,0.87,0,1.74.11,2.61,0.15,1.76.25,3.52,0.49,5.27,0,0.2-.07.23-0.23,0.23H117a0.23,0.23,0,0,1-.29-0.25c0-.28-0.06-0.56-0.08-0.83-0.07-.79-0.12-1.58-0.2-2.37-0.14-1.52-.3-3-0.41-4.57a0.43,0.43,0,0,0-.52-0.5c-1.92,0-3.84.05-5.76,0.06-9.25,0-18.5,0-27.75.1-0.43,0-.53.14-0.5,0.53,0,0.68,0,1.35.08,2,0.11,1.6.14,3.21,0.2,4.81,0,0.46.05,0.91,0.09,1.37a0.48,0.48,0,0,0,.57.51c12.55,0,25.09-.07,37.64.05,11.24,0.11,22.49-.05,33.73.09C159.2,120.67,164.62,120.62,170,120.63Z"/><path class="e" d="M104.26,85.93c-1,.07-2,0-3.05.07-2.12.07-4.24,0.11-6.37,0.19-1.65.06-3.3,0.13-4.95,0.17s-3.36.22-5,.19a0.62,0.62,0,0,0-.74.58,92,92,0,0,0-1.89,9.51c-0.28,2-.52,4.05-0.66,6.09-0.1,1.43-.13,2.86-0.11,4.29,0,0.56,0,.57.58,0.56,9.15,0,18.29.09,27.44-.09,0.92,0,1.83,0,2.75,0s2.07,0,3.1,0c0.38,0,.46-0.11.47-0.48,0-1.87,0-3.75,0-5.62,0.06-1.68.16-3.36,0.21-5,0-.93.11-1.85,0.18-2.78q0.15-1.89.34-3.78c0.12-1.18.22-2.37,0.39-3.55,0.06-.41,0-0.52-0.41-0.51-2.23.05-4.46,0-6.69,0.08C108,85.94,106.14,85.8,104.26,85.93Z"/><path class="e" d="M194.3,98.26c-0.25-2.12-.53-4.23-0.9-6.33a37.6,37.6,0,0,0-.81-3.75,0.45,0.45,0,0,0-.42-0.47c-1.87-.1-3.73-0.23-5.6-0.34-1.37-.08-2.74-0.1-4.1-0.2-0.59,0-1.18,0-1.76-.09l-3.61-.22,0.21,1.21a32.6,32.6,0,0,1,.56,4.14,29.14,29.14,0,0,1-.15,4.85,21.43,21.43,0,0,1-1.9,6.49,26.56,26.56,0,0,1-2.47,4,0.46,0.46,0,0,0,.38.08c2.72,0,5.43,0,8.15.08,2.57,0.1,5.14,0,7.71.09,1.73,0.08,3.46,0,5.19,0,0.34,0,.45-0.1.41-0.43-0.12-1.13-.12-2.26-0.25-3.39C194.7,102.12,194.52,100.19,194.3,98.26Z"/><path class="e" d="M119.34,107.5h21c-0.69-.77-1.4-1.51-2.05-2.31a26,26,0,0,1-4.95-9.39,21.14,21.14,0,0,1-1-6.34c0-1.28,0-2.57,0-3.85h-5.76c-2,0-4,0-5.94,0-0.3,0-.46.06-0.48,0.39s-0.11.93-.17,1.4c-0.17,1.43-.37,2.85-0.5,4.29s-0.2,2.67-.3,4c-0.14,1.91-.23,3.82-0.31,5.73s0,3.78,0,5.67C118.88,107.44,119,107.5,119.34,107.5Z"/><path class="e" d="M136.66,67.52c-2.06-.08-4.13-0.06-6.2-0.09-2.89,0-5.79-.06-8.68.06-1.28.05-2.57,0-3.85,0.06-2.11,0-4.21.18-6.32,0.21-0.67,0-.68,0-0.7.7,0,0.91-.09,1.82-0.16,2.73a26.74,26.74,0,0,0-.14,2.91c0.06,1.71.21,3.41,0.31,5.11a0.4,0.4,0,0,0,.5.44c1.24,0,2.48-.07,3.72-0.08,6.19,0,12.38,0,18.58,0a25,25,0,0,1,2.14-4.12A20,20,0,0,1,142,69.36a26.73,26.73,0,0,1,3.25-1.6c-1.68,0-3.36-.08-5-0.17C139,67.54,137.84,67.57,136.66,67.52Z"/><path class="e" d="M78.53,100.77a42.93,42.93,0,0,1,.57-4.37c0.6-3.09,1.25-6.16,1.9-9.24,0.07-.32,0-0.44-0.34-0.41-0.94.06-1.88,0.14-2.82,0.17-1.88.06-3.77,0.18-5.65,0.27-1,0-2.06.1-3.09,0.17a0.5,0.5,0,0,0-.52.41q-1.16,3.39-2,6.87a52.85,52.85,0,0,0-1,5.42c-0.14,1-.3,2.09-0.45,3.14-0.19,1.32-.36,2.65-0.56,4-0.09.61-.11,0.59,0.51,0.61,2.07,0,4.35-.1,6.42-0.09h2.35s2.56,0,3.95,0c0.37,0,.45-0.07.4-0.48a7.66,7.66,0,0,1,0-.92A53.76,53.76,0,0,1,78.53,100.77Z"/><path class="e" d="M160.32,106.17c0.94,0.23,1.85.58,2.77,0.88l3.15,1c0.12,0,.28,0,0.28.23a3.86,3.86,0,0,0,1.06-.85A35,35,0,0,0,171,104a17.43,17.43,0,0,0,3.47-9.45,24.11,24.11,0,0,0-.42-6.29,22.61,22.61,0,0,0-5.63-11.09,24.85,24.85,0,0,0-6.17-5,19,19,0,0,0-8.68-2.42,24.13,24.13,0,0,0-3.25.29c-0.58.06-1.16,0.16-1.74,0.24-0.68,1.67-1.39,3.34-1.92,5.07a37.53,37.53,0,0,0-1.46,6.46,20.94,20.94,0,0,0-.25,3.28,1.85,1.85,0,0,0,.58-0.85,15.71,15.71,0,0,1,1-1.8,9.31,9.31,0,0,1,2.9-2.59,7.55,7.55,0,0,1,1.89-.73c0.29-.06.35-0.21,0.3-0.51q-0.36-1.95-.65-3.9a1.48,1.48,0,0,1,.84-1.41,1.37,1.37,0,0,1,1.29.4,4.23,4.23,0,0,1,.58,2.05,22.88,22.88,0,0,1,.37,2.66c0,0.22.17,0.2,0.32,0.21a11,11,0,0,1,7.05,2.72,15.38,15.38,0,0,1,3.1,3.43,11.18,11.18,0,0,1,1.76,5.3c0,0.22.08,0.44,0.08,0.65,0,0.61.11,0.68,0.75,0.55a2,2,0,0,1,1.21-.06,1.35,1.35,0,0,1,.55,2,2.35,2.35,0,0,1-1.43.5l-1,.09a0.42,0.42,0,0,0-.39.4,10.43,10.43,0,0,1-2.8,4.83,9.09,9.09,0,0,1-3.84,2.36c-0.42.13-.42,0.3-0.32,0.65C159.59,103.44,159.95,104.81,160.32,106.17Z"/><path class="e" d="M172,191.17c-1.32.23-2.64,0.4-4,.59-1.5.22-3,.46-4.49,0.65-1.21.15-2.41,0.38-3.63,0.43-2.1.07-4.2,0.23-6.31,0.35l-4.14.26-5.33.34c-0.57,0-1.15,0-1.72.09-1.81.12-3.62,0.17-5.43,0.29-1.53.1-3.06,0.18-4.59,0.27-2.75.17-5.5,0.42-8.26,0.32-1.55-.06-3.1,0-4.65-0.08-1.74-.07-3.48-0.12-5.22-0.18s-3.35-.16-5-0.26-3.38-.22-5.06-0.35c-2.05-.16-4.11-0.33-6.15-0.54s-3.79-.46-5.69-0.69q-5.74-.68-11.41-1.77l-3.73-.72a80.89,80.89,0,0,0,101.06-.3,15.5,15.5,0,0,1-2.1.46C174.73,190.65,173.34,190.92,172,191.17Z"/><path class="d" d="M197.94,204.77a4,4,0,1,1,4-4A4,4,0,0,1,197.94,204.77Zm0-5a1,1,0,1,0,1,1A1,1,0,0,0,197.94,199.77Z"/><path class="d" d="M53.85,61.17a4,4,0,1,1,4-4A4,4,0,0,1,53.85,61.17Zm0-5a1,1,0,1,0,1,1A1,1,0,0,0,53.85,56.17Z"/><path class="d" d="M130.55,25.74h-1.13a0.51,0.51,0,0,1-.51-0.51V24.28a1.6,1.6,0,0,0-1.41-1.62,1.55,1.55,0,0,0-1.68,1.54v1a0.51,0.51,0,0,1-.51.51h-1.11a1.6,1.6,0,0,0-1.62,1.41,1.55,1.55,0,0,0,1.54,1.68h1.19a0.51,0.51,0,0,1,.51.51v1a1.6,1.6,0,0,0,1.41,1.62,1.55,1.55,0,0,0,1.68-1.54v-1a0.51,0.51,0,0,1,.51-0.51h1.19a1.55,1.55,0,0,0,1.54-1.68A1.6,1.6,0,0,0,130.55,25.74Z"/><path class="d" d="M233.9,124.57h-1.13a0.51,0.51,0,0,1-.51-0.51V123.1a1.6,1.6,0,0,0-1.41-1.62,1.55,1.55,0,0,0-1.68,1.54v1a0.51,0.51,0,0,1-.51.51h-1.11a1.6,1.6,0,0,0-1.62,1.41,1.55,1.55,0,0,0,1.54,1.68h1.19a0.51,0.51,0,0,1,.51.51v1a1.6,1.6,0,0,0,1.41,1.62,1.55,1.55,0,0,0,1.68-1.54v-1a0.51,0.51,0,0,1,.51-0.51H234a1.55,1.55,0,0,0,1.54-1.68A1.6,1.6,0,0,0,233.9,124.57Z"/><path class="d" d="M130.55,225.85h-1.13a0.51,0.51,0,0,1-.51-0.51v-0.94a1.6,1.6,0,0,0-1.41-1.62,1.55,1.55,0,0,0-1.68,1.54v1a0.51,0.51,0,0,1-.51.51h-1.11a1.6,1.6,0,0,0-1.62,1.41,1.55,1.55,0,0,0,1.54,1.68h1.19a0.51,0.51,0,0,1,.51.51v1a1.6,1.6,0,0,0,1.41,1.62,1.55,1.55,0,0,0,1.68-1.54v-1a0.51,0.51,0,0,1,.51-0.51h1.19a1.55,1.55,0,0,0,1.54-1.68A1.6,1.6,0,0,0,130.55,225.85Z"/><path class="d" d="M27.14,123.55H26a0.51,0.51,0,0,1-.51-0.51v-0.94a1.6,1.6,0,0,0-1.41-1.62A1.55,1.55,0,0,0,22.42,122v1a0.51,0.51,0,0,1-.51.51H20.78A1.6,1.6,0,0,0,19.16,125a1.55,1.55,0,0,0,1.54,1.68h1.19a0.51,0.51,0,0,1,.51.51v1a1.6,1.6,0,0,0,1.41,1.62,1.55,1.55,0,0,0,1.68-1.54v-1a0.51,0.51,0,0,1,.51-0.51h1.19A1.55,1.55,0,0,0,28.76,125,1.6,1.6,0,0,0,27.14,123.55Z"/></svg>