<svg xmlns="http://www.w3.org/2000/svg" viewBox="0 0 254.68 254.69"><defs><style>.a{fill:none;stroke:#b1a48a;stroke-miterlimit:10;}.b{fill:#76888c;}.c{fill:#475660;}.d{fill:#687c82;}.e{fill:#fff;}</style></defs><title>All-icons</title><polyline class="a" points="215.03 88.39 253.98 127.34 127.34 253.98 0.71 127.34 26.87 101.18"/><polyline class="a" points="55.48 72.57 127.34 0.71 206.15 79.51"/><rect class="b" x="136.86" y="95.1" width="20.6" height="12.17"/><path class="b" d="M188.29,217.27c-0.64-1.69,0-2.54,1.48-2.9,3-.7,2.54-3.23,2.79-5.31,0.46-3.82,1.74-7,5.76-8.32a1.68,1.68,0,0,0,.69-1.13c0.46-2.12.79-4.27,1.3-6.38a1.75,1.75,0,0,1,1.17-1.09c3.77-.43,7.56-0.78,11.35-1.08a2.39,2.39,0,0,1,1.28.61c2.47,1.74,2.92,4.45,3.46,7.15a2.68,2.68,0,0,0,1.09,1.59,21.87,21.87,0,0,0,4.21,2.1,2.82,2.82,0,0,1,2,3.11c0,1.58-.05,3.15,0,4.73a1.74,1.74,0,0,0,.48,1.29c2,1,3.1,2.71,4,4.59a1.91,1.91,0,0,0,.38.4,1.3,1.3,0,0,1-.31.6,4.26,4.26,0,0,1-1.06,0H188.29Z"/><path class="c" d="M15.33,95.19H9.47c0-.48,0-1.12,0-1.65a1.09,1.09,0,0,1,1.17-1.37c1-.1,2.06-0.34,2.82-0.47a22.43,22.43,0,0,1-1-3.57,2.14,2.14,0,0,1,.92-1.62c1.7-1.1,3.52-2,5.24-3.09a2.67,2.67,0,0,0,1-1.33c1.07-3.27,2.24-4.29,5.76-4.51a1.35,1.35,0,0,0,1.55-1.37A2.42,2.42,0,0,1,29,73.89c3.13-.82,6.24-1.72,9.29-2.77,1.53-.53,2.14,0,2.51,1.36,0.12,0.43.24,0.85,0.41,1.35,7.22-1.67,14.47-3.33,21.7-5v3.52H68V93.26H64.07c0.37,1.44.7,2.73,1,4l2.09,0.22c-0.15.76-.29,1.53-0.45,2.25H62.93v2.89H57.14c-2.59,0-5.19.06-7.77,0a2.86,2.86,0,0,0-2.58,1.21,4.76,4.76,0,0,1-7.1.51c-0.33-.3-0.68-0.57-1.15-1-0.92,2.36-2.78,2.65-4.91,2.52-1.62-.1-3.25-0.06-4.88,0-1.34,0-2.61.09-3.37-1.38a1.65,1.65,0,0,0-1.18-.44,15.76,15.76,0,0,0-2.59,0c-1.65.15-3.07,0-3.86-1.8-0.34-.79-2.41-1.05-3-0.4-1.34,1.54-3.15,1-4.83,1.34V99.6C12.37,99.05,14.88,98.56,15.33,95.19Zm16.06,4a9.73,9.73,0,0,0,9.9-9.9,9.93,9.93,0,0,0-19.85,0A9.76,9.76,0,0,0,31.39,99.22Z"/><path class="d" d="M152.33,110.19c2.27,0,4.54-.09,6.81,0a2.18,2.18,0,0,0,2.37-1.53c2.14-4.48,4.39-8.9,6.55-13.36a1.65,1.65,0,0,1,1.69-1.16q21.12,0.12,42.24.17a6.86,6.86,0,0,1,.69.1c-0.11,1.17-.13,2.37-0.34,3.53q-1,5.67-2.16,11.31a4.64,4.64,0,0,1-3.84,3.8c-3.58.85-7.15,1.79-10.92,2.74a10,10,0,0,1-2-6.34,9.88,9.88,0,1,0-18.28,5c0.42,0.67,1.51,1.41.55,2.19a3.22,3.22,0,0,1-2.5.35c-3.47-.91-6.9-2-10.34-3-3.14-1-6.27-2-9.41-2.94-0.41-.13-0.8-0.3-1.2-0.45Z"/><path class="b" d="M68.61,215.61c1-.84,2-1.69,3-2.51a4,4,0,0,0,1.72-3.51,18.52,18.52,0,0,1,.31-4.54,4.58,4.58,0,0,1,1.49-2.52,46.88,46.88,0,0,1,5.34-3.45,1.91,1.91,0,0,0,1.09-1.59c0.34-2.12.06-4.42,1.48-6.26a2.84,2.84,0,0,1,1.68-1.18A65.79,65.79,0,0,1,95.21,190c1.13,0.13,2.24,2.06,3,3.38a6.51,6.51,0,0,1,.35,3.14,4.33,4.33,0,0,0,2.39,4.11c5.89,3.34,4.55,2.6,4.69,8.57,0.06,2.49,0,2.46,2.44,3.23,1.08,0.34,2.6.34,2.53,2a3.63,3.63,0,0,1-1.06,1.6,1.11,1.11,0,0,1-.59,0H69.62c-0.29,0-.58,0-0.87-0.05Z"/><path class="b" d="M154.59,154c2.2,3.35,4.95,5.36,8.82,5.59s6.6-1.77,9.17-4.89c0.06,1,.11,1.45.11,1.93,0,5.79.08,11.59,0,17.38a4.65,4.65,0,0,0,1.24,3.43c1,1,1.81,2.19,2.71,3.3l-1.1,1.34c-1.57,1.88-1.6,1.9-.18,4a11.36,11.36,0,0,1,2.16,6.07,2.14,2.14,0,0,1-.64,1.69c-1,.38-2.18,1-3-0.36a31.53,31.53,0,0,1-2-3.77,1.53,1.53,0,0,0-1.68-1.13c-3.46,0-6.91,0-10.37.06a3.63,3.63,0,0,0-2,1c-1.56,1.34-3,2.9-4.59,4.15-0.59.45-2.09,0.62-2.46,0.23a2.52,2.52,0,0,1-.35-3.2c0.7-1.11,1.22-2.34,2-3.43a1.8,1.8,0,0,0-.19-2.43c-1.39-1.81-1.46-3.42.13-5.13a8.15,8.15,0,0,0,2.08-6.23c-0.13-6,0-12,0-18C154.47,155.05,154.55,154.52,154.59,154Z"/><path class="d" d="M79.21,166.85c-0.55-1.07-13.06-20.28-15.33-23.4a4.81,4.81,0,0,1-.61-2.38c3.82,1.23,7.26,1.1,10.33-1.43a9,9,0,0,0,3.32-6.13c0.63-5.55-2.85-9.13-10.12-10.44-0.14-1.4.89-2.08,1.8-2.75,5.46-4.06,21-15.61,23.36-17.34a3.56,3.56,0,0,1,1.29-.77,4.75,4.75,0,0,1,1.53.2,3.07,3.07,0,0,1-.31,1.21,7.85,7.85,0,0,0-1.74,7.25,3.56,3.56,0,0,1-.16,1.78c-1.67,5.25-3.44,10.46-5,15.73-0.54,1.78-1.79,2.58-3.24,3.37A30,30,0,0,0,80.52,134c-1,.72-1.16,1.54,0,2.58,3.62,3.31,4.38,4.84,1,8.38a9.75,9.75,0,0,0-.91,11.56s-0.17,9.72-.3,10.31C80.15,166.88,79.33,166.83,79.21,166.85Z"/><path class="b" d="M182.24,214.62h-37c0.52-.72.77-1.58,1.29-1.83,2.52-1.22,3.47-3.26,3.66-5.9a15,15,0,0,1,.67-3.56,3.09,3.09,0,0,1,1.33-1.67c2.78-1.44,4.79-3.31,4.43-6.77a0.52,0.52,0,0,1,0-.15c1.08-5,1.17-5.08,6.27-5.08,2,0,4.07-.08,6.1,0a2.87,2.87,0,0,1,1.87.95,8.93,8.93,0,0,1,2.11,5.73,3,3,0,0,0,1.85,3.17c2.76,1,3.31,3.3,3.32,5.88,0,1.53,0,3.05,0,4.57a1.17,1.17,0,0,0,1,1.39,9.51,9.51,0,0,0,1,.28C181.88,211.9,182.65,212.93,182.24,214.62Z"/><path class="b" d="M219.69,190.91c-1.35,1.74-2,1.9-3.54.76a9.86,9.86,0,0,0-7.77-1.77c-2.55.4-5.11,0.74-7.67,1.08-1.2.16-2,.56-2.2,2a18.43,18.43,0,0,1-.93,3c-0.54,1.77-.56,1.78-2.63,1.18l0.82-6.68-3.15-1.15c0.49-2.79,1.08-5.5,1.39-8.25a10.27,10.27,0,0,0-.41-4c-1.4-4.64-3-9.24-4.45-13.86-0.21-.66-0.34-1.35-0.55-2.22a6.16,6.16,0,0,1,1.39.34c4.86,2.61,10.68.72,13.28-4.67a28.53,28.53,0,0,1,1.44,3.26c1.48,5,2.87,10,4.35,15a3.54,3.54,0,0,0,1,1.44c1.24,1.19,2.61,2.26,3.79,3.52a2.31,2.31,0,0,1,.09,1.76c-0.28,1.09-1.23,2.3-1,3.17s1.66,1.54,2.55,2.29c1.2,1,2.4,2,3.58,3.08A6.12,6.12,0,0,1,219.69,190.91Z"/><path class="b" d="M79.29,194.12a1.53,1.53,0,0,1-.94-2.35c0.82-1.67,1.79-3.27,2.8-5.08-2.9-2.32-1.87-4.77.06-7.29a4,4,0,0,0,.63-2.26c0-5.13.28-17.58,0.45-18.87,4.68,3.56,9.27,3.75,14,.34,0.71,2.6.09,13.79,0.13,16.89,0,2.08,1.38,3.58,2.78,4.9a2.18,2.18,0,0,1,.51,3.13c-1,1.54-.81,2.78.49,4.1a5,5,0,0,1,1.67,4.54,2.59,2.59,0,0,1-1.19,1.66c-0.89.4-1.34-.36-1.56-1.17a3,3,0,0,0-.14-0.27c-1.38-3.55-1.38-3.55-5.25-3.55-3.15,0-6.31,0-9.46,0a2.06,2.06,0,0,0-2,1.06C81.37,191.3,80.33,192.67,79.29,194.12Z"/><path class="c" d="M191.94,114.54c1.68,5.75,3.24,11.18,4.86,16.59,0.9,3,1.93,6,2.83,9a13.83,13.83,0,0,1,.5,3c0.14,1.93-.26,2.17-2.06,1.53a9.16,9.16,0,0,0-9.77,1.74,26.08,26.08,0,0,0-2.38,2.82l-7.54-31.34c2.73,1.12,5.06,1.57,7.51,1A10.77,10.77,0,0,0,191.94,114.54Z"/><path class="d" d="M143.54,110.08a13.81,13.81,0,0,1-2.89,1.59c-3.65,1-22.4,4.54-28.1,5.42a17.13,17.13,0,0,1-2.29,0,10.51,10.51,0,0,1,.81-1.86,10.1,10.1,0,0,0-11.9-15.42,3.21,3.21,0,0,1-1.78.12c1.34-1.58,2.27-3.32,4.85-3.28,4.82,0.08,9.64-.35,14.46-0.44a6.87,6.87,0,0,1,3.12.78c3.07,1.57,6.08,3.24,9.07,5a4,4,0,0,1,1.45,1.6c0.79,1.58,1.49,3.22,2.13,4.86a1.61,1.61,0,0,0,1.82,1.18c2.54-.08,5.08,0,7.62-0.06h1.45Z"/><path class="c" d="M173.52,148.68c-1.63-7.6-8.79-10.69-15.33-6.65a10.8,10.8,0,0,1-1.83.65c1-3,1.82-5.55,2.6-8.14,1.25-4.1,2.42-8.23,3.67-12.33a10.11,10.11,0,0,1,1.21-2.76,16.87,16.87,0,0,1,2.2-2.26c1-1,1.88,0,2.76.25,8.34,2.35,6.44,2,9.16,8.68a9.12,9.12,0,0,1,.25,6.36c-1.39,4.9-2.46,9.89-3.69,14.83a11.61,11.61,0,0,1-.6,1.52Z"/><path class="c" d="M99.55,147.28c-3.09-5.71-7.43-8-13.69-6.35l8.36-26.63c3.63,4.74,8,6.07,13.64,3.81C107.49,119.63,99.76,146,99.55,147.28Z"/><path class="c" d="M99.36,163.08c1.82,1.36,3.58,2.64,5.31,4a1.41,1.41,0,0,0,1.7.13s2.69-.59,4.92-1.3c0,0,2.47,2.33,3.76,3.62,2.1,1.67,2.7,2.19,4.46,1.62,2.12-.68,3,0.63,4.21,2l-20.15,16.17a24.33,24.33,0,0,1-2-2.66,1.87,1.87,0,0,1,.07-1.6c1.19-2,.56-3.56-0.92-5a6.57,6.57,0,0,1-2.25-5.12c0.15-3.65.34-7.3,0.54-10.94A3.41,3.41,0,0,1,99.36,163.08Z"/><path class="c" d="M91.11,159.57c-6.19,0-10.25-3.94-10.19-8.84,0-1.45.38-1.78,1.72-1.35,4.7,1.52,9.39,3.09,14.09,4.61,1,0.33,1.15.84,0.56,1.67C95.48,158.17,93.06,159.52,91.11,159.57Z"/><path class="c" d="M213.31,92.88L211.41,69l0.34-.11c0.83,1.36,1.66,2.73,2.5,4.08,1.8,2.88,3.64,5.74,5.39,8.65a2.56,2.56,0,0,1,.31,1.8C218.87,87.25,216.43,90.1,213.31,92.88Z"/><path class="c" d="M103.43,117.17a8.65,8.65,0,0,1-8.77-8.31c0-1.51.34-1.86,1.8-1.42,4.55,1.37,9.07,2.82,13.62,4.17,1.23,0.36,1.1.92,0.56,1.75A8.64,8.64,0,0,1,103.43,117.17Z"/><path class="c" d="M81.79,147.38a8.77,8.77,0,0,1,9.34-4.52,9,9,0,0,1,7.13,7.2c0,0.3.06,0.6,0.09,0.91,0.2,1.76-.08,2-1.77,1.45-4.31-1.4-8.63-2.79-12.93-4.21A19.83,19.83,0,0,1,81.79,147.38Z"/><path class="c" d="M191.59,108.54a8.13,8.13,0,0,1-4.42,8,8,8,0,0,1-8.94-1.1,17,17,0,0,1-2.24-2.84c-0.84-1.2-.23-1.74,1-1.92l7.81-1.13Z"/><path class="c" d="M69.19,72.32h4.57V93.26H69.19V72.32Z"/><path class="c" d="M81,72.32h4.33V93.26H81V72.32Z"/><path class="c" d="M79.55,93.26H75.21V72.56h4.33V93.26Z"/><path class="c" d="M164.63,157.81c-5.1,0-8.92-3.68-8.95-8.29,0-1.61.44-1.92,2.08-1.35,3.44,1.18,6.86,2.4,10.3,3.6,0.81,0.28,1.61.58,2.43,0.84,1.08,0.34,1.22.91,0.52,1.77A8.12,8.12,0,0,1,164.63,157.81Z"/><path class="c" d="M111.39,110.52l-15-4.61c-0.77-.23-1-0.58-0.53-1.32,1.81-3,6.29-4.54,9.95-3.3a8.41,8.41,0,0,1,5.85,8.62A3.07,3.07,0,0,1,111.39,110.52Z"/><path class="c" d="M191.37,107.07c-1.7.26-3.28,0.51-4.86,0.75-3.34.49-6.69,1-10,1.47-0.9.14-1.37-.06-1.21-1.1a8.63,8.63,0,0,1,7.62-7.13A8.44,8.44,0,0,1,191.37,107.07Z"/><path class="c" d="M171.89,151.65l-10.22-3.56-4-1.39c-0.87-.3-1.11-0.73-0.51-1.57a8.5,8.5,0,0,1,9.56-2.7,8.41,8.41,0,0,1,5.54,8.11A5.61,5.61,0,0,1,171.89,151.65Z"/><path class="c" d="M202.1,152.1c0.85,3.89-2.47,8.23-6.7,8.65a7.94,7.94,0,0,1-7.91-3.75c-0.55-.82-0.53-1.43.52-1.69q6.9-1.67,13.81-3.3A0.62,0.62,0,0,1,202.1,152.1Z"/><path class="c" d="M62.35,135.82c3.66-1.95,7.35-3.85,11-5.81,1-.53,1.49-0.38,1.69.74a7.9,7.9,0,0,1-13.39,6.94C61.46,137.47,60.76,136.71,62.35,135.82Z"/><path class="c" d="M201.76,150.56l-7.43,1.86L187.86,154c-0.94.23-1.49,0-1.36-1.12a8.4,8.4,0,0,1,6.19-7,8.15,8.15,0,0,1,8.84,3.91A5.23,5.23,0,0,1,201.76,150.56Z"/><path class="c" d="M59.87,132.29a7.49,7.49,0,0,1,4.61-6.39,7.62,7.62,0,0,1,8.38,1.17c0.93,0.72,1,1.27-.18,1.86-3.51,1.8-7,3.66-10.46,5.5C60.1,135.55,59.87,135.41,59.87,132.29Z"/><path class="b" d="M31.45,97.94A8.6,8.6,0,1,1,40,89.34,8.51,8.51,0,0,1,31.45,97.94Z"/><path class="b" d="M144.8,106.75h1.93V99H144.8v7.71Z"/><path class="b" d="M141.19,99v7.22h2.17V99h-2.17Z"/><path class="b" d="M149.38,106.75h1.69V99h-1.69v7.71Z"/><path class="b" d="M153.47,106.51h1.93V99h-1.93v7.46Z"/><path class="b" d="M144.28,106.66h2v-7h-2v7Z"/><path class="b" d="M141.28,106.66h2v-7h-2v7Z"/><path class="b" d="M149.28,106.66h2v-7h-2v7Z"/><path class="c" d="M209,62.72c-0.07-1.15-.13-2.19-0.18-3a2.08,2.08,0,0,0-1.4-2.09c-6.9-2.92-13.78-4.93-20.68-8.93h0c-4.27-1-8.55-3.54-12.83-5.33a20.64,20.64,0,0,1-7.78-5.06,3.08,3.08,0,0,0-2.55-1c-11.44,0-41-.08-41.23-0.11-2-.22-3.21.87-4.17,2.45a8.6,8.6,0,0,1-1.35,1.84,10.21,10.21,0,0,1-2.68,2.17c-3.83,1.6-7.67,3.27-11.52,4.85-4.73,1.58-9.46,3.75-14.19,5.66a2,2,0,0,0-1.58,2.15c0,3.34,0,7.53,0,12.08,0,12.26.12,25.79,0.14,26.28,0.77,0,17,.31,24.42,0,5.53-.26,7.86-0.46,15.16,3.74,5.58,3.09,6.46,4.13,7.17,8.36,0.18,1.06.8,1.29,1.83,1.28q11.36-.07,22.73,0a1.75,1.75,0,0,0,1.83-1.15c2.19-4.35,4.46-8.65,6.63-13A2.2,2.2,0,0,1,169,92.42c13.32,0.13,26.64.2,40,.28h2C210.74,89.67,209.54,72,209,62.72Z"/><path class="d" d="M166.07,38.32a3.1,3.1,0,0,0-2.55-1c-11.44,0-41-.1-41.23-0.12-2-.22-3.21.87-4.17,2.44a8.58,8.58,0,0,1-1.35,1.83,10.6,10.6,0,0,1-2.68,2.26c-3.83,1.6-7.67,2.94-11.52,4.94h13.53s5.55-1.22,5.55,5.26,5.41,5,5.41,5l46,0s7.53,1.57,7.53-6.09c-0.36-3.61.22-4.38,6.13-4-4.28-1.83-8.56-3.65-12.85-5.44A20.77,20.77,0,0,1,166.07,38.32Z"/><path class="e" d="M86.91,68.29v0h0Z"/><path class="d" d="M206.19,79.47c0,10.25-4.41,9.94-4.41,9.94H111.72c-7.45,0-13.3.35-13.3-10s-0.55-11-3.64-10.64a48,48,0,0,0-7.87-.31c0,12.13.06,25.78,0.09,26.26,0.77,0,16.94.26,24.39-.09,5.53-.26,7.84-0.48,15.14,3.71,5.58,3.09,6.46,4.11,7.16,8.35,0.18,1.06.8,1.28,1.82,1.28q11.36-.07,22.73,0a1.75,1.75,0,0,0,1.83-1.15c2.19-4.35,4.46-8.65,6.62-13A2.2,2.2,0,0,1,169,92.42c13.32,0.13,26.64.2,40,.28h2c-0.22-3-1.43-20.66-2-30C204.93,65.5,206.19,71.86,206.19,79.47Zm-62.83,26.8h-2.17V99h2.17v7.22Zm3.37,0.48H144.8V99h1.93v7.71Zm4.33,0h-1.69V99h1.69v7.71Zm4.33-.24h-1.93V99h1.93v7.46Z"/><path class="d" d="M52.37,85.8A39.39,39.39,0,0,1,50,82.28c-1.62-3.49-4.22-4.83-8-4.2a47.78,47.78,0,0,0-4.9.06c2.41,2.69,5.75,4,6.34,7.66h8.94Z"/><path class="d" d="M61.31,78.09H51.56c1.42,2.65,2.67,4.87,4,7.13a1.35,1.35,0,0,0,1,.49c1.66,0.05,3.33,0,5.19,0C61.6,83.35,61.46,80.74,61.31,78.09Z"/><path class="d" d="M56.91,93.94c1.44,0,2.92,0,4.33,0a1.08,1.08,0,0,0,.69-0.76c0.08-1.24,0-2.54,0-3.74h-5v4.53Z"/></svg>