<svg xmlns="http://www.w3.org/2000/svg" viewBox="0 0 139.27 139.28"><defs><style>.a{fill:#fff;}.b{fill:none;stroke:#5fa190;stroke-miterlimit:10;}</style></defs><title>All-icons</title><path class="a" d="M76.5,40.6H75.6l0.9,0.11V40.6Z"/><path class="a" d="M72.18,102.92a31.14,31.14,0,0,1-21.05-8.17H49a32.7,32.7,0,0,0,49.07-3H96.1A31.2,31.2,0,0,1,72.18,102.92Z"/><path class="a" d="M40.92,71.67A31.31,31.31,0,0,1,65.9,41V39.52A32.73,32.73,0,0,0,48.29,94V91.8A31.11,31.11,0,0,1,40.92,71.67Z"/><polygon class="a" points="64.64 83.19 61.9 85.32 61.9 89 54.04 89 54.04 65.43 61.9 65.43 61.9 73.55 64.64 71.42 64.64 62.68 51.29 62.68 51.29 91.75 64.64 91.75 64.64 83.19"/><path class="a" d="M68.9,54.27a15.94,15.94,0,0,1,2.75-2.5V37.6H79.5V48.88c0.45,0,.91-0.06,1.36-0.06s0.92,0,1.38.06v-14H68.9V54.27Z"/><path class="a" d="M82.25,91.75V80.49c-0.47,0-.94.06-1.41,0.06s-0.89,0-1.34-.06V89H71.64V77.75L68.9,79.88V91.75H82.25Z"/><path class="a" d="M99.85,74.63H93.2a15.79,15.79,0,0,1-2.84,2.75h6.75V89H89.25V78.14a15.82,15.82,0,0,1-2.56,1.29l-0.09,0-0.1,0V91.75H99.85V74.63Z"/><path class="a" d="M90,54.07A14,14,0,0,0,68.27,70.92l-12,9.35a0.72,0.72,0,0,0-.13,1l2.56,3.32a0.72,0.72,0,0,0,1,.13l12.06-9.37A14.08,14.08,0,0,0,76.38,78h0L76.54,78l0.24,0.07L77,78.18l0.17,0,0.25,0.07,0.11,0,0.62,0.14h0l0.35,0.06h0a13.95,13.95,0,0,0,5.1-.09h0l0.43-.09,0.12,0,0.23-.05,0.15,0h0L85,78.08h0l0.43-.14,0.06,0,0.36-.14,0.08,0a14,14,0,0,0,7.45-6.91s0.77-1.92.82-2.09,0.41-1.76.43-1.87,0.11-.86.11-0.9,0-.49,0-0.54,0-.3,0-0.44h0c0-.16-0.06-1.59-0.06-1.63s0-.44-0.05-0.47A14,14,0,0,0,90,54.07ZM83.37,74.24a9.89,9.89,0,0,1-1.08.22h0l-0.16,0a9.88,9.88,0,1,1,5.06-17.37q0.28,0.23.54,0.49h0a9.88,9.88,0,0,1,3,6.28v0A9.89,9.89,0,0,1,83.37,74.24Z"/><rect class="b" x="20.9" y="20.9" width="97.48" height="97.48" transform="translate(69.64 -28.84) rotate(45)"/></svg>