<svg xmlns="http://www.w3.org/2000/svg" viewBox="0 0 139.27 139.28"><defs><style>.a{fill:#fff;}.b{fill:none;stroke:#5fa190;stroke-miterlimit:10;}</style></defs><title>All-icons</title><path class="a" d="M97.24,55A31.25,31.25,0,1,1,69.38,38.39a5,5,0,0,1,.65-1.5H69.64a32.78,32.78,0,1,0,28,15.77c0,0.13,0,.26,0,0.39A5.06,5.06,0,0,1,97.24,55Z"/><path class="a" d="M94.64,39.57a1.84,1.84,0,0,0-1.95-1.94H74.25a2,2,0,0,0-2.06,2c0,1.6,0,3.21,0,4.81a0.77,0.77,0,0,1-.67.85,32.63,32.63,0,0,0-5,2.1c-5.49,3.23-8.9,8.14-10.85,14.12-0.27.84-.48,1.69-0.73,2.57C54.25,64,53.64,63.78,53,63.66a3.26,3.26,0,0,0-.5-0.06H52.44l-0.21,0h0a1.14,1.14,0,0,0-.33.11l-0.08,0a1.16,1.16,0,0,0-.3.26,1.41,1.41,0,0,0-.09,1.63c0.81,1.74,1.59,3.49,2.39,5.25a8.71,8.71,0,0,0-7.23,9.49,8.6,8.6,0,0,0,7.67,7.89,8.35,8.35,0,0,0,1,.06h0.23A7.93,7.93,0,0,0,57.71,88l0.2-.06a8.45,8.45,0,0,0,1-.44l0.19-.1a9.41,9.41,0,0,0,1-.63A8.9,8.9,0,0,0,63.76,81h6.51v1.27a8.3,8.3,0,0,0,0,1.2,2,2,0,0,0,.34.93,1.22,1.22,0,0,0,.34.29l0,0a0.87,0.87,0,0,0,.37.09h0.08l0.16,0,0.11,0,0.17-.06,0.11,0,0.21-.12,0.1-.06,0.33-.24c1.53-1.21,3.08-2.4,4.7-3.67a8.86,8.86,0,0,0,3.56,6.09,9.52,9.52,0,0,0,1,.65l0.26,0.14a8.49,8.49,0,0,0,1.09.46h0a8,8,0,0,0,1.11.27l0.29,0a8.29,8.29,0,0,0,1.17.09h0c0.2,0,.41,0,0.62,0h0.26q0.45,0,.91-0.14a8.78,8.78,0,0,0-.38-17.25V62.33h2.53A1.25,1.25,0,0,0,91,60.46a5.81,5.81,0,0,0-.63-0.91l-3.6-4.59h5.94a1.84,1.84,0,0,0,2-1.91Q94.65,46.31,94.64,39.57ZM55.18,74.71a5,5,0,0,1,.58.06c0.14,0,.28,0,0.41,0a4.75,4.75,0,0,1,.83.25l0.09,0a4.67,4.67,0,0,1,2.51,2.56l0,0a5,5,0,0,1,.25.84s0,0.06,0,.09a5.32,5.32,0,0,1,.09,1,4.78,4.78,0,0,1-4.79,4.84,4.91,4.91,0,0,1-.53,0c-0.16,0-.32,0-0.47,0a4.77,4.77,0,0,1-.49-0.15c-0.14,0-.29-0.07-0.42-0.13a4.62,4.62,0,0,1-.45-0.24c-0.12-.07-0.25-0.12-0.36-0.2a4.64,4.64,0,0,1-.4-0.33c-0.1-.09-0.21-0.16-0.31-0.26a4.7,4.7,0,0,1-.34-0.42c-0.08-.1-0.17-0.19-0.24-0.3a4.82,4.82,0,0,1-.27-0.51c-0.05-.11-0.12-0.21-0.17-0.32a5,5,0,0,1-.19-0.63c0-.1-0.07-0.19-0.09-0.29a5.24,5.24,0,0,1-.1-1A4.73,4.73,0,0,1,55.18,74.71Zm22.13,3.95c-1.41-1.1-2.73-2.15-4.08-3.16a5.17,5.17,0,0,0-1.69-.95,1.11,1.11,0,0,0-.27,0h0a0.9,0.9,0,0,0-.36.08l0,0a0.94,0.94,0,0,0-.27.22l0,0.05a1.18,1.18,0,0,0-.18.32l0,0.06a1.5,1.5,0,0,0-.07.42c0,0.85,0,1.7,0,2.64H63.8a8.93,8.93,0,0,0-7-7.4L60,68.26a6.93,6.93,0,0,0,.89-0.8,1.23,1.23,0,0,0-.59-2.08c-0.7-.22-1.43-0.34-2.15-0.51a0.54,0.54,0,0,1-.48-0.79,23.72,23.72,0,0,1,7.09-12.17,17,17,0,0,1,7.46-4c0,1.73,0,3.41,0,5.09a1.81,1.81,0,0,0,2,2H85.21l-3,3.89a13.4,13.4,0,0,0-1.1,1.46,1.29,1.29,0,0,0,1.18,2h2.38v8.55C80.48,71.79,78.09,74.41,77.31,78.65ZM86,84.43a5,5,0,0,1-.53-0.05c-0.15,0-.31,0-0.46,0a4.64,4.64,0,0,1-.48-0.15c-0.14,0-.29-0.07-0.43-0.13a4.58,4.58,0,0,1-.45-0.24c-0.12-.07-0.25-0.12-0.37-0.2a4.65,4.65,0,0,1-.39-0.33c-0.1-.09-0.22-0.17-0.32-0.26a4.72,4.72,0,0,1-.34-0.42c-0.08-.1-0.17-0.19-0.24-0.3a4.8,4.8,0,0,1-.28-0.53c-0.05-.1-0.12-0.2-0.16-0.3a5,5,0,0,1-.18-0.6c0-.11-0.07-0.21-0.1-0.33a5.23,5.23,0,0,1-.09-1A4.75,4.75,0,0,1,86,74.7a4.9,4.9,0,0,1,.56,0c0.16,0,.32,0,0.47,0a4.75,4.75,0,0,1,.49.15c0.14,0,.29.07,0.42,0.13a4.55,4.55,0,0,1,.45.24c0.12,0.07.26,0.13,0.38,0.21a4.59,4.59,0,0,1,.39.33c0.11,0.09.22,0.17,0.32,0.27a4.65,4.65,0,0,1,.33.41c0.08,0.11.18,0.2,0.25,0.32a4.83,4.83,0,0,1,.26.5c0.06,0.11.13,0.22,0.17,0.34a5,5,0,0,1,.18.62c0,0.1.07,0.2,0.09,0.31a5.27,5.27,0,0,1,.09,1A4.75,4.75,0,0,1,86,84.43ZM76.1,51.06V41.54H90.76v9.53H76.1Z"/><rect class="b" x="20.9" y="20.9" width="97.48" height="97.48" transform="translate(69.64 -28.84) rotate(45)"/></svg>