<svg xmlns="http://www.w3.org/2000/svg" viewBox="0 0 139.27 139.28"><defs><style>.a{fill:#fff;}.b{fill:none;stroke:#5fa190;stroke-miterlimit:10;}</style></defs><title>All-icons</title><path class="a" d="M73,100.9a31.26,31.26,0,1,1,25-50,14.85,14.85,0,0,1,2,.15A32.76,32.76,0,1,0,101.37,86a17.11,17.11,0,0,1-2,.36A31.25,31.25,0,0,1,73,100.9Z"/><path class="a" d="M111.91,66.65c0-.29-0.09-0.57-0.14-0.85a13.29,13.29,0,0,0-1.06-3.25c-0.12-.26-0.24-0.52-0.38-0.77a15.26,15.26,0,0,0-3.12-4,14.64,14.64,0,0,0-1.34-1.08,14.48,14.48,0,0,0-5.81-2.6Q99.54,54,99,53.92t-1.09-.05h0l-16,0H61.68l-0.52,0-0.51.05L60.15,54l-1,.22q-0.48.12-.94,0.27a14.77,14.77,0,0,0-4.3,2.2q-0.4.29-.78,0.62t-0.77.7q-0.37.36-.72,0.73A14.42,14.42,0,0,0,48.58,64c-0.32,1-.51,2-0.76,2.93v3.51l0.07,0.31L47.94,71a15.51,15.51,0,0,0,2.92,6.6,15,15,0,0,0,2,2.11q0.56,0.49,1.18.94t1,0.64l0.13,0.07c0.28,0.17.57,0.34,0.86,0.49L56.3,82c0.23,0.11.46,0.23,0.7,0.33l0.38,0.14L58,82.76l0.44,0.12,0.64,0.18,0.48,0.1,0.62,0.12,0.5,0.06,0.63,0.07,0.53,0,0.62,0h0q17.27,0,34.54,0h0c0.28,0,.56,0,0.84,0s0.46,0,.69,0,0.59-.08.89-0.13,0.42-.05.62-0.09,0.65-.16,1-0.25l0.5-.13a13.47,13.47,0,0,0,1.44-.55,16.64,16.64,0,0,0,2.1-1.15,14.84,14.84,0,0,0,6.11-7.76,13.91,13.91,0,0,0,.42-1.45c0.12-.49.22-1,0.35-1.47V66.9L112,66.78A0.33,0.33,0,0,1,111.91,66.65ZM50.78,71.78A15.87,15.87,0,0,1,50.41,69a13.2,13.2,0,0,1,0-1.37,11.65,11.65,0,0,1,2.43-6.42,11.35,11.35,0,0,1,7.84-4.56c0.32,0,.65-0.08,1-0.1l0.32,0H80.56L98,56.5a11,11,0,0,1,6.54,2.27,12.78,12.78,0,0,1,1.73,1.52,11,11,0,0,1,2.92,6,15.93,15.93,0,0,1,.19,3.15,12.93,12.93,0,0,1-.15,1.51,11.52,11.52,0,0,1-3.6,6.68,11.27,11.27,0,0,1-6.58,3.1,13.79,13.79,0,0,1-1.61.12H70.61q-4.4,0-8.81,0a10.54,10.54,0,0,1-4.26-.93q-0.4-.18-0.78-0.39a12.54,12.54,0,0,1-1.5-1A11.29,11.29,0,0,1,50.78,71.78Z"/><path class="a" d="M91.12,60.12l-0.45.33-0.37.29-0.41.37-0.33.32-0.38.41-0.3.34c-0.12.14-.23,0.29-0.34,0.44L88.28,63c-0.11.16-.2,0.31-0.3,0.47l-0.23.37c-0.09.17-.17,0.33-0.26,0.5s-0.13.25-.19,0.38-0.15.35-.21,0.53S87,65.48,87,65.6s-0.12.38-.17,0.57-0.07.23-.1,0.35-0.08.43-.12,0.64,0,0.19-.05.29a8.69,8.69,0,0,0-.07.93,9.46,9.46,0,0,0,0,1.05c0,0.11,0,.21,0,0.32s0.06,0.48.1,0.71,0.07,0.27.1,0.4,0.09,0.41.15,0.6,0.1,0.28.15,0.42,0.13,0.37.2,0.55,0.13,0.28.2,0.42,0.16,0.34.25,0.51,0.16,0.27.24,0.4,0.19,0.32.29,0.47,0.19,0.26.28,0.39,0.21,0.29.33,0.43l0.32,0.36c0.12,0.13.24,0.27,0.36,0.4l0.35,0.33,0.39,0.36,0.38,0.3L91,77.14l0.4,0.26,0.45,0.28,0.42,0.22,0.47,0.23,0.44,0.18,0.49,0.18,0.45,0.13,0.5,0.13,0.46,0.08,0.51,0.07,0.47,0,0.37,0H97l0.43,0,0.48,0,0.53-.08,0.46-.08,0.51-.13,0.45-.12,0.5-.18,0.43-.16,0.48-.23,0.41-.21,0.46-.28,0.39-.24,0.43-.32,0.36-.28c0.14-.12.27-0.24,0.41-0.37l0.33-.31c0.13-.13.25-0.27,0.37-0.41l0.3-.33c0.12-.14.23-0.29,0.34-0.44s0.18-.23.27-0.35,0.2-.31.29-0.47,0.16-.25.23-0.38,0.17-.33.25-0.49,0.14-.27.2-0.41,0.13-.35.2-0.52,0.11-.28.16-0.42,0.1-.37.15-0.56,0.08-.28.11-0.42,0.07-.41.1-0.61,0-.26.06-0.4,0-.56,0-0.84c0-.06,0-0.13,0-0.19a10,10,0,0,0-.64-3.47,10.66,10.66,0,0,0-9-6.83l-0.73,0H96.53l-0.52,0-0.57.06-0.5.08-0.55.12-0.48.13-0.53.18-0.45.18-0.5.23L92,59.58l-0.48.28Zm0.67,2.54,0.27-.21,0.3-.22,0.29-.18L93,61.87l0.31-.15,0.34-.16L94,61.43l0.37-.12,0.35-.09,0.39-.09,0.36-.05,0.41,0,0.38,0h1.12l0.39,0,0.42,0.05,0.37,0.06,0.4,0.09,0.35,0.09,0.39,0.13L100,61.57l0.37,0.17,0.3,0.15L101,62.09l0.28,0.17,0.33,0.24,0.25,0.2,0.3,0.28,0.23,0.22,0.27,0.31,0.2,0.24c0.09,0.11.16,0.22,0.24,0.34l0.18,0.25c0.08,0.12.14,0.24,0.21,0.36L103.63,65c0.06,0.13.12,0.26,0.18,0.39s0.09,0.18.12,0.28,0.1,0.28.14,0.42,0.07,0.19.1,0.29,0.07,0.29.11,0.44,0.05,0.2.07,0.3,0,0.33.07,0.5,0,0.18,0,.27,0,0.44,0,.67c0,0,0,.08,0,0.12s0,0,0,.07c0,0.23,0,.47,0,0.7s0,0.18,0,.28,0,0.32-.07.48,0,0.21-.07.31-0.06.28-.1,0.42-0.07.21-.1,0.31-0.08.26-.13,0.39-0.09.21-.13,0.31-0.1.25-.16,0.37l-0.16.3c-0.06.12-.13,0.23-0.2,0.34l-0.19.29-0.23.32-0.22.27-0.26.29-0.25.24-0.29.26-0.28.22-0.32.23-0.31.19-0.36.2-0.33.16-0.39.16-0.36.13L99.07,76l-0.38.1-0.45.08-0.41.06-0.49,0-0.43,0c-0.27,0-.54,0-0.82,0a7.55,7.55,0,0,1-4.4-1.76q-0.27-.23-0.51-0.48a7.73,7.73,0,0,1-2.1-5.72s0-.08,0-0.12c0-.21,0-0.42,0-0.62s0-.18,0-0.28,0-.3.08-0.45,0.05-.2.08-0.3,0.07-.27.11-0.4,0.07-.2.11-0.3,0.09-.25.14-0.37,0.09-.2.14-0.3,0.11-.23.17-0.35l0.17-.29,0.2-.32,0.2-.28,0.22-.29L91,63.42l0.25-.27,0.25-.23Z"/><path class="a" d="M69.64,72.6a1.09,1.09,0,0,0,.59,1.09h0l0,0a1.18,1.18,0,0,0,.19,0,1.19,1.19,0,0,0,.25,0h0a1,1,0,0,0,.77-0.3,1.3,1.3,0,0,0,.26-0.88q0-2.37,0-4.74l0.12,0L72,68h0l1.12,1.46L74.33,71l0.9,1.15,0.9,1.15a1.42,1.42,0,0,0,.25.25l0.08,0.06,0.21,0.11,0.09,0a1.14,1.14,0,0,0,.31,0h0a1.39,1.39,0,0,0,.37-0.05,0.91,0.91,0,0,0,.67-0.63,1.2,1.2,0,0,0,0-.34q0-2.05,0-4.1c0-1.37,0-2.74,0-4.1a1.32,1.32,0,0,0-.08-0.46A0.88,0.88,0,0,0,78,64a1.13,1.13,0,0,0-.48-0.42,581.4,581.4,0,0,0-.43-0.07h0a1.3,1.3,0,0,0-.44.08,1,1,0,0,0-.59,1c0,1.19,0,2.38,0,3.57v1.45L74.92,68.2,72.8,65.45l-1-1.35h0a1.94,1.94,0,0,0-.26-0.28l-0.09-.07-0.21-.13-0.11,0a1.1,1.1,0,0,0-.24-0.06H70.71a1.32,1.32,0,0,0-.35,0,0.89,0.89,0,0,0-.14.07h0a1.09,1.09,0,0,0-.58,1.1Q69.64,68.65,69.64,72.6Z"/><path class="a" d="M61.7,73.35a5.14,5.14,0,0,0,.9.33,4.45,4.45,0,0,0,.92.14h0.71l0.29,0,0.27,0,0.28-.06,0.25-.07,0.26-.09,0.24-.09,0.25-.11,0.22-.11,0.23-.14,0.21-.13,0.22-.16,0.19-.15,0.2-.18,0.17-.16,0.18-.2,0.15-.17L68,71.69l0.13-.18,0.14-.23,0.11-.19,0.12-.24,0.09-.2c0-.08.07-0.17,0.1-0.26l0.07-.2c0-.09.05-0.18,0.08-0.27s0-.13.05-0.2,0-.19.05-0.29,0-.13,0-0.19,0-.26,0-0.38,0-.06,0-0.09a4.9,4.9,0,0,0-.39-2,5.47,5.47,0,0,0-2.72-2.79l-0.45-.18a4.74,4.74,0,0,0-1.39-.28H63.44l-0.28,0-0.25,0-0.27.06-0.24.06-0.27.09-0.23.09L61.65,64l-0.22.11-0.24.14-0.2.13-0.23.16-0.19.14-0.21.18L60.19,65l-0.19.2-0.16.17-0.17.22-0.14.19L59.39,66l-0.12.2-0.12.25-0.1.2c0,0.09-.06.17-0.09,0.26s-0.05.14-.07,0.21,0,0.18-.06.27,0,0.14,0,.21,0,0.2,0,.3,0,0.13,0,.19a4,4,0,0,0,0,.42s0,0.05,0,.08A5,5,0,0,0,61.7,73.35Zm2.09-7.7a3.11,3.11,0,0,1,.32,0l0.28,0a3.06,3.06,0,0,1,.31.09L65,65.86a3,3,0,0,1,.29.15l0.23,0.12a3,3,0,0,1,.25.2c0.07,0.05.14,0.1,0.2,0.16a3,3,0,0,1,.21.24c0.06,0.07.12,0.13,0.17,0.2a3,3,0,0,1,.15.26c0,0.08.1,0.16,0.14,0.25s0,0.16.08,0.24a2.92,2.92,0,0,1,.11.34s0,0.06,0,.09a3.1,3.1,0,0,1,.06.54A3,3,0,0,1,66,70.77a3,3,0,0,1-2.16.89,2.77,2.77,0,0,1-.32,0l-0.29,0a2.89,2.89,0,0,1-.29-0.09l-0.27-.09a2.88,2.88,0,0,1-.26-0.14c-0.08,0-.17-0.08-0.25-0.14S62,71,61.95,71s-0.15-.11-0.22-0.18-0.13-.15-0.19-0.23-0.12-.14-0.17-0.21A3.08,3.08,0,0,1,61.2,70c0-.07-0.08-0.13-0.11-0.2A3,3,0,0,1,61,69.4s0-.08,0-0.12a3,3,0,0,1-.06-0.6,3,3,0,0,1,.23-1.17A3,3,0,0,1,63.8,65.64Z"/><rect class="b" x="20.9" y="20.9" width="97.48" height="97.48" transform="translate(69.64 -28.84) rotate(45)"/></svg>