<svg xmlns="http://www.w3.org/2000/svg" viewBox="0 0 139.27 139.28"><defs><style>.a{fill:#fff;}.b{fill:none;stroke:#5fa190;stroke-miterlimit:10;}</style></defs><title>All-icons</title><path class="a" d="M69.64,99A31.26,31.26,0,1,1,89.43,43.59l1.05-1.08A32.75,32.75,0,1,0,80.69,98.6l-0.77-1.32A31.11,31.11,0,0,1,69.64,99Z"/><path class="a" d="M97.07,52.79a31.2,31.2,0,0,1-6.18,37.87L91.67,92a32.69,32.69,0,0,0,6.49-40.31Z"/><path class="a" d="M81.58,80.68a17,17,0,0,0,4.94-17.26L82.14,67.9c0,0.07,0,.13,0,0.2a11.95,11.95,0,1,1-6.22-10.48l3.6-3.69a17,17,0,1,0-3.81,30.22l11.51,19.69a0.85,0.85,0,0,0,.2.23l0.06,0a0.87,0.87,0,0,0,.26.13h0l0.22,0h0.15a0.85,0.85,0,0,0,.29-0.1l4.38-2.56a0.87,0.87,0,0,0,.31-1.19Z"/><path class="a" d="M81.8,55.71l-3.51,3.6L71.56,66.2,68.1,62.82a0.61,0.61,0,0,0-.86,0L64,66.17A0.61,0.61,0,0,0,64,67l3.89,3.8v0l3.34,3.26a0.61,0.61,0,0,0,.43.17h0a0.61,0.61,0,0,0,.43-0.18l3.26-3.34v0l6.19-6.34,3.81-3.91L97,48.57a0.61,0.61,0,0,0,0-.86l-3.34-3.26a0.61,0.61,0,0,0-.86,0Z"/><rect class="b" x="20.9" y="20.9" width="97.48" height="97.48" transform="translate(69.64 -28.84) rotate(45)"/></svg>