<svg xmlns="http://www.w3.org/2000/svg" viewBox="0 0 139.27 139.28"><defs><style>.a{fill:#fff;}.b{fill:none;stroke:#5fa190;stroke-miterlimit:10;}</style></defs><title>All-icons</title><path class="a" d="M100,69.64a31.36,31.36,0,0,1-.32,4.47h0c-0.06.42-.13,0.84-0.21,1.26l0,0.2c-0.07.39-.16,0.77-0.25,1.15L99.1,77c-0.09.37-.19,0.73-0.29,1.1l-0.09.3q-0.16.54-.33,1.06l-0.1.31c-0.12.35-.25,0.7-0.38,1l-0.11.28c-0.14.35-.28,0.7-0.43,1l-0.1.22c-0.16.36-.33,0.72-0.5,1.07l0,0.1a31.34,31.34,0,0,1-2.77,4.55l-0.05.07c-0.21.29-.44,0.57-0.66,0.86L93,89.29,92.38,90l-0.15.17h0a31.55,31.55,0,0,1-3.15,3.12h0L89,93.4l-0.64.54-0.47.37-0.65.5-0.51.36-0.66.46L85.5,96l-0.65.41-1,.55-0.8.43-0.73.38-0.6.28L81,98.37l-0.62.25-0.74.29L79,99.14l-0.76.26-0.64.2-0.78.22-0.65.17-0.81.19-0.65.14-0.85.15-0.63.1-0.9.11-0.6.07-1,.08-0.51,0c-0.51,0-1,0-1.54,0h0a31.11,31.11,0,0,1-20.36-7.57h0L48.1,93.1h0a31.19,31.19,0,0,1,0-46.92h0c0.66-.58,1.33-1.13,2-1.65h0a31.09,31.09,0,0,1,18.59-6.14c0.56,0,1.12,0,1.67,0l0.53,0L72,38.56l0.61,0.08,1,0.14,0.62,0.11,1,0.19,0.6,0.14,1,0.25,0.58,0.16,1,0.3L79,40.12l1,0.37,0.48,0.19,1,0.45,0.4,0.18L83,41.85,83.31,42q0.62,0.33,1.21.68l0.15,0.09A31.63,31.63,0,0,1,95.4,53.37l1-.86,0.13-.11a33,33,0,0,0-4.29-5.49h0a33,33,0,0,0-4.88-4.16l0,0q-0.64-.44-1.3-0.86l-0.06,0q-0.64-.4-1.3-0.77L84.61,41q-0.64-.36-1.29-0.68l-0.15-.08c-0.42-.21-0.85-0.4-1.28-0.59l-0.21-.09c-0.41-.18-0.83-0.35-1.25-0.51l-0.26-.1c-0.4-.15-0.81-0.29-1.23-0.43l-0.33-.11c-0.4-.13-0.8-0.24-1.2-0.35L77,38l-1.17-.28-0.44-.1-1.15-.21-0.49-.09-1.15-.15-0.52-.07L70.92,37l-0.49,0q-0.85,0-1.7,0h0a32.76,32.76,0,0,0,0,65.52h0c0.53,0,1.06,0,1.59,0l0.52,0,1.05-.08,0.62-.07,0.94-.12,0.64-.1,0.89-.16,0.64-.13,0.87-.2,0.63-.16,0.87-.25,0.6-.18,0.92-.31,0.52-.18q0.69-.25,1.36-0.54L82,99.59l0.81-.37,0.65-.33,0.68-.35,0.67-.37,0.61-.35,0.68-.42L86.63,97l0.69-.46,0.5-.36,0.71-.52,0.41-.32,0.75-.6,0.17-.15q0.74-.63,1.45-1.3h0q0.47-.45.92-0.91h0L92.6,92l0.16-.17c0.25-.27.5-0.55,0.74-0.83l0.22-.26c0.24-.28.46-0.56,0.69-0.85l0.21-.27q0.34-.44.66-0.89l0.18-.25q0.34-.47.66-1l0.11-.17A32.62,32.62,0,0,0,99.79,80l0-.11q0.2-.61.38-1.24l0-.16q0.18-.62.33-1.26l0-.14c0.1-.44.2-0.88,0.28-1.32h0a32.22,32.22,0,0,0,.35-10l-1.37,1.35C99.94,67.94,100,68.79,100,69.64Z"/><path class="a" d="M86.59,79.75a0.75,0.75,0,0,0-.2.47c0,1.28,0,3.36,0,4.95h0c0,1.24,0,2.18,0,2.23H54v-37h3.46c0,0.46,0,.89,0,1.31a1.52,1.52,0,0,0,0,.29,1.37,1.37,0,0,0,.48.93,1.57,1.57,0,0,0,.75.34,2.16,2.16,0,0,0,.38,0h0.05l0.3,0,0.11,0,0.21-.07,0.12-.05,0.17-.1,0.1-.08,0.14-.13,0.09-.1a1.36,1.36,0,0,0,.11-0.17l0.06-.11a1.43,1.43,0,0,0,.07-0.22s0-.07,0-0.11a1.68,1.68,0,0,0,0-.38c0-.45,0-0.89,0-1.35h4.18c0,0.23,0,.45,0,0.66s0,0.4,0,.59a2.56,2.56,0,0,0,0,.58h0a1.14,1.14,0,0,0,.19.4l0,0.06a1.46,1.46,0,0,0,.32.3l0.07,0a1.79,1.79,0,0,0,.42.19h0a1.85,1.85,0,0,0,.45.07h0.07a1.66,1.66,0,0,0,.35,0,1.68,1.68,0,0,0,.55-0.23,1.47,1.47,0,0,0,.67-1.33c0-.44,0-0.87,0-1.32h4.18c0,0.13,0,.24,0,0.36s0,0.24,0,.36c0,0.28,0,.57,0,0.85a1.88,1.88,0,0,0,0,.29,1.19,1.19,0,0,0,.19.4l0,0.06a1.47,1.47,0,0,0,.31.29l0.07,0a1.73,1.73,0,0,0,.41.19h0a1.77,1.77,0,0,0,.44.07h0.08a1.76,1.76,0,0,0,1.27-.57,1.56,1.56,0,0,0,.31-1V50.41h4.18c0,0.5,0,1,0,1.44h0a1.82,1.82,0,0,0,.1.5,1.17,1.17,0,0,0,.06.16h0a1.4,1.4,0,0,0,.29.37L80.2,53a1.55,1.55,0,0,0,.27.17l0.16,0.06a1.68,1.68,0,0,0,.3.08l0.18,0h0.12a1.81,1.81,0,0,0,.33,0,1.46,1.46,0,0,0,1.28-1.5V50.41h0a2.12,2.12,0,0,1,.37,0,1.27,1.27,0,0,1,.3,0l0.08,0,0.21,0.09,0.08,0a1.44,1.44,0,0,1,.26.23h0l0.33,0.35c0.54,0.58,1.11,1.13,1.68,1.68a0.72,0.72,0,0,1,.17.25,0.77,0.77,0,0,1,.05.3c0,0.6,0,1.37,0,2.19,0,1.23,0,2.56,0,3.6,0,0.87,0,1.54,0,1.77V61h0c0.17-.12,1.7-1.39,2.36-1.91a1.16,1.16,0,0,0,.51-1c0-.49,0-1,0-1.48,0-1.48,0-3,0-4.43a0.84,0.84,0,0,0-.06-0.32l-0.05-.1A0.9,0.9,0,0,0,89,51.54L86.6,49.21,85,47.68a0.52,0.52,0,0,0-.18-0.11,0.67,0.67,0,0,0-.21,0H82.83c0-.43,0-0.81,0-1.19a2.37,2.37,0,0,0-.06-0.68h0a1.67,1.67,0,0,0-.22-0.44l-0.05-.07a1.35,1.35,0,0,0-.3-0.28l-0.07,0a1.47,1.47,0,0,0-.37-0.16h0a1.93,1.93,0,0,0-.43-0.05H81.21a2.62,2.62,0,0,0-.38,0,1.45,1.45,0,0,0-1.22,1.55c0,0.33,0,.67,0,1a0.6,0.6,0,0,1,0,.16l0,0a0.22,0.22,0,0,1,0,.07l0,0-0.07,0h-4c0-.24,0-0.45,0-0.66s0-.38,0-0.57h0a2.12,2.12,0,0,0-.05-0.56h0a1.61,1.61,0,0,0-.21-0.47l0-.07a1.33,1.33,0,0,0-.31-0.3l-0.07,0a1.48,1.48,0,0,0-.4-0.18h0a2,2,0,0,0-.44-0.06H73.83l-0.37,0a1.46,1.46,0,0,0-.53.2,1.53,1.53,0,0,0-.41.36,1.38,1.38,0,0,0-.29.72,1.14,1.14,0,0,0,0,.26c0,0.33,0,.67,0,1a0.66,0.66,0,0,1,0,.17l0,0a0.22,0.22,0,0,1,0,.08l0,0-0.06,0H71.67l-2.09,0H68.07c0-.19,0-0.37,0-0.54h0a5.27,5.27,0,0,0,0-1.21h0a1.66,1.66,0,0,0-.21-0.48l0-.07a1.32,1.32,0,0,0-.31-0.31l-0.07,0a1.47,1.47,0,0,0-.4-0.18h0a1.94,1.94,0,0,0-.45-0.06H66.46l-0.37,0h0a1.49,1.49,0,0,0-.61.26,1.45,1.45,0,0,0-.5.61,1.3,1.3,0,0,0-.09.32s0,0.06,0,.09a1.26,1.26,0,0,0,0,.27c0,0.35,0,.72,0,1.08h0a0.28,0.28,0,0,1-.06.22,0.27,0.27,0,0,1-.08,0,0.32,0.32,0,0,1-.15,0h-3.9c0-.23,0-0.45,0-0.66s0-.21,0-0.31,0-.21,0-0.31h0a1.47,1.47,0,0,0-.16-0.77,1.41,1.41,0,0,0-.12-0.24,1.61,1.61,0,0,0-1-.6h0a1.63,1.63,0,0,0-.33,0h0l-0.28,0h0l-0.26.06-0.09,0-0.18.08-0.1.06L58,45,57.91,45l-0.12.12-0.07.08a1.2,1.2,0,0,0-.1.16l0,0.08a1,1,0,0,0-.08.26,4.5,4.5,0,0,0,0,.67s0,0,0,0c0,0.24,0,.48,0,0.72a0.65,0.65,0,0,1,0,.19,0.21,0.21,0,0,1,0,0,0.24,0.24,0,0,1,0,.08l-0.05,0-0.07,0H51.1v42.8H89.23V77.1h0C88.32,78,87.44,78.87,86.59,79.75Z"/><path class="a" d="M96,66.72c2.62-2.57,5.13-5,7.33-7.24l-2.45-2.31-2.5-2.36s-13.77,11.59-19.11,16L73.3,64.38h0l-2.2,2.2-4.35,4.35h0L79.11,83.29c1.31-1.31,2.72-2.71,4.21-4.18C87.3,75.2,91.78,70.84,96,66.72ZM79.11,80.51l-9.58-9.58,1.85-1.85,1.85-1.85,2.91,3.16,2.91,3.16h0l11.25-9.44,3.22-2.7L95,60.21l3.31-2.77,0.87,0.82,1.33,1.26c-1.11,1.11-3.6,3.55-6.52,6.42l0,0C88.35,71.43,81.22,78.41,79.11,80.51Z"/><rect class="b" x="20.9" y="20.9" width="97.48" height="97.48" transform="translate(69.64 -28.84) rotate(45)"/></svg>