<svg xmlns="http://www.w3.org/2000/svg" viewBox="0 0 139.27 139.28"><defs><style>.a{fill:#fff;}.b{fill:none;stroke:#5fa190;stroke-miterlimit:10;}</style></defs><title>All-icons</title><path class="a" d="M69.64,102.4a32.55,32.55,0,0,0,17.69-5.21,6.05,6.05,0,0,1-1.71-.7,31.21,31.21,0,1,1,14.26-19L100,77.66l1.08,1.09A32.75,32.75,0,1,0,69.64,102.4Z"/><path class="a" d="M64.62,80.59h0a2.12,2.12,0,0,0,2.13-2.32v-2.5l0.2-.05a2.15,2.15,0,0,1,.38-0.07l14.11-1A2,2,0,0,0,83.52,73a3,3,0,0,0,0-.47c0-1,0-2.05,0-3.08s0-2.05,0-3.08a2.42,2.42,0,0,0-.31-1.24A1.81,1.81,0,0,0,83,64.79a2.23,2.23,0,0,0-1.5-.66l-1-.07-2-.13-5.83-.4-5.9-.41V60.49a1.8,1.8,0,0,0-1.43-2.06,3.94,3.94,0,0,0-.56-0.16l-0.16,0-0.42,0H64a2.86,2.86,0,0,0-.51.05h0a2.78,2.78,0,0,0-.44.14l-0.14.07-0.34.19-0.14.09a3.47,3.47,0,0,0-.43.35h0q-4.08,4-8.09,8.09a3.1,3.1,0,0,0,0,4.52c1.32,1.34,2.66,2.66,4,4l4,4h0a3.33,3.33,0,0,0,.55.44l0.19,0.1a3,3,0,0,0,.41.19l0.24,0.07a3.16,3.16,0,0,0,.41.08l0.27,0,0.18,0Zm-9-11.92,3.91-3.89q2-1.95,3.91-3.89a0.9,0.9,0,0,1,.26-0.15A2.8,2.8,0,0,1,64,60.6l0.29-.11c0,0.07,0,.13.06,0.2a2.12,2.12,0,0,1,.14.6c0,1.28,0,2.55,0,4L81.28,66.4v6l-12.58.87-4.2.29v4.89A4.24,4.24,0,0,1,63.44,78c-2.62-2.58-5.21-5.19-7.81-7.79a1.07,1.07,0,0,1-.38-0.76A1.13,1.13,0,0,1,55.64,68.66Z"/><path class="a" d="M99.19,81.09c-2.78-2.8-5.55-5.6-8.38-8.36a2.81,2.81,0,0,0-.89-0.58l-0.19-.06L89.43,72l-0.21,0-0.3,0H88.47L88.19,72,88,72l-0.31.11-0.15.05a3.6,3.6,0,0,0-.44.23,2.8,2.8,0,0,0-.41.3A1.47,1.47,0,0,0,86.19,74c0,0.15,0,.3,0,0.45h0c0,0.79,0,1.58,0,2.39L83.93,77h0l-12.22.83a2.76,2.76,0,0,0-1.7.61h0a1.68,1.68,0,0,0-.3.37h0a1.9,1.9,0,0,0-.28,1c0,0.13,0,.26,0,0.38h0c0,0.62,0,1.24,0,1.85s0,1.49,0,2.24,0,1.49,0,2.24a1.94,1.94,0,0,0,.16.74,1.82,1.82,0,0,0,.17.31,2.06,2.06,0,0,0,1.58.84l9.72,0.66,5.15,0.37c0,1.07,0,2.08,0,3.08a1.43,1.43,0,0,0,0,.27,1.77,1.77,0,0,0,.1.28,1.43,1.43,0,0,0,.32.46h0a3.27,3.27,0,0,0,.47.36L87.35,94a3.13,3.13,0,0,0,.35.17l0.22,0.06a3,3,0,0,0,.33.09l0.24,0,0.28,0h0l0.33,0,0.25,0a3.11,3.11,0,0,0,.34-0.1L90,94.13a3.23,3.23,0,0,0,.36-0.19l0.18-.1a3.48,3.48,0,0,0,.5-0.41q3.52-3.49,7-7c0.5-.5,1-1.05,1.41-1.6l0.46-.54V82c-0.11-.16-0.22-0.33-0.33-0.49A3.09,3.09,0,0,0,99.19,81.09Zm-27.47,5.1v-6l8.36-.58,8.4-.58V74.06l0.3,0.15a2.7,2.7,0,0,1,.73.43c1.31,1.29,2.6,2.6,3.91,3.9l3.91,3.9a1.47,1.47,0,0,1,.28.37,0.78,0.78,0,0,1,0,.73,1.37,1.37,0,0,1-.27.36q-3.92,3.93-7.86,7.85a4.34,4.34,0,0,1-1,.52V87.35Z"/><path class="a" d="M56.08,78a1.22,1.22,0,0,0-.67-0.64,1.52,1.52,0,0,0-.52-0.1h0l-1.46,0H51.61a7,7,0,0,1-4.2-1.43,7.14,7.14,0,0,1-1.34-1.33,6.66,6.66,0,0,1-1.39-3.5,7.22,7.22,0,0,1,.24-2.61,6.85,6.85,0,0,1,3-3.94,7,7,0,0,1,2.43-.94c0.27-.05.54-0.07,0.82-0.1L52,63.27l0.87-.06a12.87,12.87,0,0,1,.59-6,12.08,12.08,0,0,1,3.39-5A11.75,11.75,0,0,1,60.71,50a12,12,0,0,1,1.47-.41c0.38-.08.76-0.14,1.15-0.18l0.36,0,0.81,0h0.85L66,49.38l0.31,0,0.79,0.13,0.13,0c0.31,0.07.61,0.15,0.91,0.24l0.25,0.08L69,50.12l0.31,0.13,0.57,0.26,0.32,0.16L70.77,51l0.29,0.18c0.2,0.13.4,0.27,0.6,0.41l0.21,0.15q0.39,0.3.77,0.63l0.15,0.14c0.2,0.18.39,0.37,0.58,0.56l0.24,0.26c0.15,0.17.3,0.34,0.44,0.51l0.24,0.31q0.2,0.27.39,0.55L74.9,55c0.13,0.2.26,0.42,0.38,0.63l0.18,0.31c0.17,0.32.33,0.65,0.49,1v0h0l0.72-.2,0.23-.07a7.64,7.64,0,0,1,1-.25l0.29,0a6.32,6.32,0,0,1,.71-0.06h0.29a5.76,5.76,0,0,1,.92.08h0a5.68,5.68,0,0,1,.91.25l0.26,0.11a6.19,6.19,0,0,1,.65.32l0.25,0.14a7.31,7.31,0,0,1,.84.6,6.17,6.17,0,0,1,2.2,4.62,1.72,1.72,0,0,0,.06.38h0a0.67,0.67,0,0,0,.09.22,0.55,0.55,0,0,0,.22.18,1.16,1.16,0,0,0,.38.09,8.21,8.21,0,0,1,2.67.67,6.57,6.57,0,0,1,2.06,1.44,7.43,7.43,0,0,1,2,4.82s0,0,0,.06a1.88,1.88,0,0,0,.11.53,1.33,1.33,0,0,0,.1.15,1.31,1.31,0,0,0,.19.29,1.16,1.16,0,0,0,.17.11,1.19,1.19,0,0,0,.26.17,1.55,1.55,0,0,0,.23,0,1.52,1.52,0,0,0,.31.05h0a1.35,1.35,0,0,0,1.38-1.44c0-.28,0-0.56,0-0.84a6.74,6.74,0,0,0-.11-0.83,12.46,12.46,0,0,0-.37-1.39,9.6,9.6,0,0,0-2-3.44,10.27,10.27,0,0,0-4.55-2.85l-0.14-.07a1.12,1.12,0,0,1-.54-0.56l0-.06c-0.08-.25-0.17-0.5-0.26-0.74l-0.12-.27c-0.07-.16-0.14-0.33-0.21-0.48L87,58.39c-0.07-.14-0.14-0.28-0.22-0.42l-0.18-.29-0.24-.37L86.15,57l-0.26-.33-0.22-.26-0.27-.3-0.24-.24-0.29-.27-0.26-.22-0.31-.24L84,55l-0.33-.21-0.3-.17L83,54.44l-0.31-.14-0.38-.15L82,54l-0.4-.12-0.34-.09-0.42-.09-0.34-.06-0.45-.06-0.35,0-0.48,0H78.83l-0.74,0H77.68l-0.17-.05-0.11,0a1,1,0,0,1-.16-0.12l-0.08-.06A1.93,1.93,0,0,1,76.94,53h0a16.38,16.38,0,0,0-2.06-2.43,14.56,14.56,0,0,0-8.28-3.94h0c-0.45-.06-0.91-0.1-1.36-0.12H64.61c-0.21,0-.41,0-0.62,0l-0.59,0c-0.3,0-.59.07-0.89,0.11L62,46.72c-0.34.06-.67,0.15-1,0.24l-0.38.09q-0.68.2-1.34,0.46l-0.23.1c-0.36.15-.71,0.31-1.05,0.49l-0.43.24c-0.27.15-.54,0.3-0.79,0.47l-0.46.32c-0.23.16-.47,0.33-0.69,0.5L55.15,50c-0.21.18-.42,0.36-0.62,0.55L54.1,51c-0.19.19-.37,0.39-0.55,0.59L53.16,52c-0.17.21-.33,0.42-0.49,0.64l-0.35.5c-0.15.23-.29,0.46-0.43,0.69s-0.21.35-.3,0.53-0.25.5-.36,0.75-0.17.36-.24,0.54-0.2.54-.3,0.82-0.13.36-.18,0.54-0.16.62-.23,0.94c0,0.16-.08.31-0.11,0.48A14,14,0,0,0,50,59.9v0a1.49,1.49,0,0,1,0,.24,0.79,0.79,0,0,1-.73.62,9.39,9.39,0,0,0-6.31,5q-0.17.35-.31,0.71a10.94,10.94,0,0,0-.72,3.16,9.12,9.12,0,0,0,.2,2.76,9.59,9.59,0,0,0,1.8,3.77A10,10,0,0,0,47.27,79a8.48,8.48,0,0,0,.85.36l0.21,0.08c0.28,0.1.56,0.18,0.85,0.25h0c0.28,0.07.57,0.12,0.85,0.16l0.22,0c0.29,0,.57.07,0.86,0.09h0L52,80H52.7l0.92,0H54l1.06,0a1.19,1.19,0,0,0,.27,0,1.29,1.29,0,0,0,.84-1.46,1.45,1.45,0,0,0-.08-0.33h0A1.43,1.43,0,0,0,56.08,78Z"/><rect class="b" x="20.9" y="20.9" width="97.48" height="97.48" transform="translate(69.64 -28.84) rotate(45)"/></svg>