<svg xmlns="http://www.w3.org/2000/svg" viewBox="0 0 170 175"><defs><style>.a{fill:#00a693;}</style></defs><title>All-icons</title><path class="a" d="M113.53,55.69a2,2,0,0,0-.33-0.17c-1.15-.61-2.33-1.19-3.52-1.73,7.19-1.64,12.58-4.41,12.58-9.07A41.87,41.87,0,0,0,107.1,12.15a2,2,0,0,0-.42-0.34,36.19,36.19,0,0,0-45.35,0,2,2,0,0,0-.42.34A41.87,41.87,0,0,0,45.74,44.72c0,4.64,5.56,7.4,12.69,9-1.19.54-2.37,1.11-3.52,1.72a2,2,0,0,0-.49.25A62.25,62.25,0,1,0,113.53,55.69ZM98.92,11.52H69.08A32,32,0,0,1,98.92,11.52ZM91.63,24A7.63,7.63,0,1,1,84,16.39,7.64,7.64,0,0,1,91.63,24ZM63.1,15.52h13a11.63,11.63,0,1,0,15.81,0h13a37.82,37.82,0,0,1,13.33,28H49.77A37.82,37.82,0,0,1,63.1,15.52Zm52.63,32C111.14,50,100.33,52,84,52c-16.83,0-27.05-2.16-31.55-4.5h63.29ZM84,56a157.45,157.45,0,0,0,18-.93,57.87,57.87,0,0,1,7.94,3.25C107.61,61.41,98.4,65,84,65s-23.61-3.62-25.91-6.7a57.86,57.86,0,0,1,8-3.29A154.63,154.63,0,0,0,84,56Zm52.18,80.3c-3-2.26-6.65-11.41-6.72-25.49a1.92,1.92,0,0,0,0-.85c0.07-14,3.64-23.11,6.67-25.44A58.07,58.07,0,0,1,136.18,136.31Zm-10.7-27.91H115.15A31.26,31.26,0,0,0,86,79.25V69c12-.3,23.92-3.28,27.44-8.75A58.67,58.67,0,0,1,134.19,81C128.53,84.62,125.77,96.95,125.48,108.4ZM84,137.62a27.22,27.22,0,1,1,27.22-27.22A27.25,27.25,0,0,1,84,137.62ZM54.56,60.25C58.08,65.72,70,68.7,82,69V79.25A31.26,31.26,0,0,0,52.85,108.4H42.52C42.21,96.53,39.22,84.58,33.77,81A58.67,58.67,0,0,1,54.56,60.25ZM31.85,84.58c3,2.29,6.62,11.41,6.69,25.48a1.83,1.83,0,0,0,0,.73c-0.05,13.07-3.33,23.15-6.69,25.6A58.07,58.07,0,0,1,31.85,84.58ZM42.52,112.4H52.85A31.26,31.26,0,0,0,82,141.55V152c-11.82.3-23.87,3.29-27.43,8.75a58.67,58.67,0,0,1-20.8-20.79C39.47,136.29,42.24,123.88,42.52,112.4ZM84,155.93c14.36,0,23.59,3.63,25.89,6.7a58.06,58.06,0,0,1-51.81,0C60.55,159.27,70.85,155.93,84,155.93Zm29.45,4.77C109.84,155,97.51,152.24,86,152V141.55a31.26,31.26,0,0,0,29.15-29.15h10.33c0.3,11.89,3.3,23.93,8.79,27.45A58.66,58.66,0,0,1,113.45,160.7Z"/><path class="a" d="M104.14,39.9a6.77,6.77,0,1,0-6.77-6.77A6.77,6.77,0,0,0,104.14,39.9Zm0-9.55a2.77,2.77,0,1,1-2.77,2.77A2.78,2.78,0,0,1,104.14,30.35Z"/><path class="a" d="M55.51,40.52h15a2,2,0,0,0,0-4h-15A2,2,0,0,0,55.51,40.52Z"/><circle class="a" cx="74.79" cy="74.84" r="2.32"/><circle class="a" cx="93.38" cy="74.84" r="2.32"/><circle class="a" cx="74.79" cy="145.22" r="2.32"/><circle class="a" cx="93.38" cy="145.22" r="2.32"/><circle class="a" cx="119.46" cy="119.69" r="2.32"/><circle class="a" cx="119.46" cy="101.11" r="2.32"/><circle class="a" cx="48.84" cy="119.69" r="2.32"/><circle class="a" cx="48.84" cy="101.11" r="2.32"/><path class="a" d="M84,104.08a6.32,6.32,0,1,0,6.32,6.32A6.32,6.32,0,0,0,84,104.08Zm0,8.64a2.32,2.32,0,1,1,2.32-2.32A2.32,2.32,0,0,1,84,112.72Z"/><path class="a" d="M105.55,118.8a23.1,23.1,0,0,0,0-16.81,3.67,3.67,0,0,0-3.4-2.34,3.45,3.45,0,0,0-1.91.57,10.43,10.43,0,0,1-5.3,2,2.77,2.77,0,0,1-2-.72c-1.35-1.35-.75-4.27,1.26-7.33a3.61,3.61,0,0,0-1.76-5.31,23.1,23.1,0,0,0-16.81,0,3.61,3.61,0,0,0-1.76,5.31c2,3.06,2.61,6,1.26,7.33a2.78,2.78,0,0,1-2,.72,10.44,10.44,0,0,1-5.3-2,3.45,3.45,0,0,0-1.91-.57,3.67,3.67,0,0,0-3.4,2.34,23.1,23.1,0,0,0,0,16.81,3.67,3.67,0,0,0,3.4,2.34,3.45,3.45,0,0,0,1.91-.57,10.44,10.44,0,0,1,5.3-2,2.77,2.77,0,0,1,2,.72c1.35,1.35.75,4.27-1.26,7.33a3.61,3.61,0,0,0,1.76,5.31,23.1,23.1,0,0,0,16.81,0,3.61,3.61,0,0,0,1.76-5.31c-2-3.06-2.61-6-1.26-7.33a2.78,2.78,0,0,1,2-.72,10.44,10.44,0,0,1,5.3,2,3.45,3.45,0,0,0,1.91.57A3.67,3.67,0,0,0,105.55,118.8ZM102,116.93a14,14,0,0,0-7-2.35,6.66,6.66,0,0,0-4.86,1.9c-2.7,2.7-2.52,7.12.46,11.9a19.11,19.11,0,0,1-13.07,0c3-4.78,3.16-9.2.46-11.9a6.65,6.65,0,0,0-4.86-1.9,14,14,0,0,0-7,2.35,19.11,19.11,0,0,1,0-13.07,14,14,0,0,0,7,2.35,6.66,6.66,0,0,0,4.86-1.9c2.7-2.7,2.52-7.12-.46-11.9a19.11,19.11,0,0,1,13.07,0c-3,4.78-3.16,9.2-.46,11.9a6.66,6.66,0,0,0,4.86,1.9,14,14,0,0,0,7-2.35A19.11,19.11,0,0,1,102,116.93Z"/></svg>