<svg xmlns="http://www.w3.org/2000/svg" viewBox="0 0 170 175"><defs><style>.a{fill:#00a693;}</style></defs><title>All-icons</title><path class="a" d="M158.28,148.08l-0.15-.07c-3.3-1.44-13.21-4.21-22.06-6.56a36.32,36.32,0,0,0,2.7-8.17,34.91,34.91,0,0,0-2-19.81l-5.3-13.29A275.81,275.81,0,0,0,118.34,72V70.49a8.49,8.49,0,0,0,3.7-3.63l10.39-18.81A25.66,25.66,0,0,0,120.74,13l-3.82-1.82-0.18-.08a95.8,95.8,0,0,0-64.83,0l-0.18.08-2.92,1.39A25.65,25.65,0,0,0,37.35,48.07a2,2,0,0,0,.76,1.31L49.72,68.86a8.61,8.61,0,0,0,1.93,2.3V72a275.73,275.73,0,0,0-13.15,28.21l-5.29,13.29a34.9,34.9,0,0,0-2,19.81,36.3,36.3,0,0,0,2.71,8.21C25.1,143.84,15.29,146.58,12,148l-0.15.07C2.11,153.31.93,162.68,1.67,166.9a2,2,0,0,0,2,1.66H166.5a2,2,0,0,0,2-1.66C169.21,162.68,168,153.31,158.28,148.08ZM85.07,164.56H36.45L76.36,157H93.79l39.91,7.59H85.07ZM36.7,144.89l0.18,0a2,2,0,0,0,1-.26l0.17-.12c5.45-1.43,10.13-2.62,11.94-3.07L70.67,154,17.24,164.14V150.38C22.05,148.83,29.84,146.71,36.7,144.89Zm116.21,5.49v13.76L99.48,154l20.7-12.51C124.37,142.53,143.87,147.48,152.91,150.38ZM77.52,153l-13-32.27,10.17,9,8.39,15V153H77.52ZM55.66,73l0.24,0A169.42,169.42,0,0,0,81,74.94a169.14,169.14,0,0,0,32.91-3.24l0.4-.08V97.54a22.15,22.15,0,0,1-7.45,16.56l-17.1,15.15a7.23,7.23,0,0,1-9.58,0L63.11,114.1a22.14,22.14,0,0,1-7.45-16.56V73ZM61,69.71a122.2,122.2,0,0,1,44.75-.63A164.78,164.78,0,0,1,61,69.71Zm24.12,70.38-3-5.41a11.19,11.19,0,0,0,6.08-.06Zm2,4.62,8.53-15.26,10.11-9L92.63,153H87.07V144.7Zm11,5.45,11.23-27.87,8,16.28ZM60.85,122.29l11.23,27.87L52.89,138.56Zm66.91-20.62L133,115a30.91,30.91,0,0,1,1.8,17.54,32.31,32.31,0,0,1-2.72,7.91c-4.93-1.29-9.09-2.34-10.88-2.8L110.69,116a26.15,26.15,0,0,0,7.66-18.47V80.71C121.78,87.57,124.93,94.58,127.75,101.66ZM39.14,29.28A21.43,21.43,0,0,1,50.52,16.15l2.83-1.35a91.8,91.8,0,0,1,61.94,0L119,16.58A21.64,21.64,0,0,1,130,43.81C120.9,34.75,103.73,29,85.07,29c-19,0-36.22,5.86-45.2,15.12A21.39,21.39,0,0,1,39.14,29.28Zm2.72,18.59C49.74,38.8,66.45,33,85.07,33c18.38,0,35.05,5.73,43,14.66L118.53,65a4.56,4.56,0,0,1-2.5,2.16l-3.73-.83a126.08,126.08,0,0,0-54.59,0l-4.26,1a4.83,4.83,0,0,1-.27-0.42ZM35.12,132.5A30.89,30.89,0,0,1,36.93,115l5.29-13.29c2.83-7.1,6-14.14,9.43-21V97.54a26.15,26.15,0,0,0,7.75,18.58L48.9,137.61c-1.81.46-6,1.53-11,2.84A32.29,32.29,0,0,1,35.12,132.5ZM13.24,151.91v12.65H5.52A14.53,14.53,0,0,1,13.24,151.91Zm143.67,12.65V151.91a14.44,14.44,0,0,1,7.73,12.65h-7.73Z"/><path class="a" d="M74.25,58a2,2,0,0,0,2.41-1c0.52-.83,4.86-6.87,8.33-11.68l8.48,11.91A2,2,0,1,0,96.72,55L86.63,40.77A2,2,0,0,0,85,39.93h0a2,2,0,0,0-1.62.83C73.21,54.81,73.11,55.11,73,55.48A2,2,0,0,0,74.25,58Z"/><path class="a" d="M72.49,82.68H65.82a2,2,0,0,0,0,4h6.67A2,2,0,0,0,72.49,82.68Z"/><path class="a" d="M97.82,86.68h6.67a2,2,0,0,0,0-4H97.82A2,2,0,0,0,97.82,86.68Z"/><path class="a" d="M77.71,107.81A2,2,0,0,0,75.14,109L73,114.65A2,2,0,1,0,76.78,116l0.57-1.53h15.3L93.22,116A2,2,0,0,0,97,114.65L94.86,109a2,2,0,0,0-3.75,1.39l0.05,0.14H78.83l0.05-.14A2,2,0,0,0,77.71,107.81Z"/><path class="a" d="M79.3,80.68L77.1,94A7.88,7.88,0,0,0,77,95.55a20.55,20.55,0,0,0-5.11,3.09,2,2,0,1,0,2.55,3.08,16.56,16.56,0,0,1,3.71-2.32,7.86,7.86,0,0,0,2,2.19,8.05,8.05,0,0,0,9.66,0,7.87,7.87,0,0,0,2-2.24,16.55,16.55,0,0,1,3.83,2.37,2,2,0,0,0,2.55-3.08A20.55,20.55,0,0,0,93,95.49,7.89,7.89,0,0,0,92.9,94L90.7,80.68h17.81a2,2,0,0,0,0-4H88.34a2,2,0,0,0-2,2.33L89,94.65a3.85,3.85,0,0,1-1.51,3.73,4.08,4.08,0,0,1-4.89,0A3.85,3.85,0,0,1,81,94.65L83.63,79a2,2,0,0,0-2-2.33H61.49a2,2,0,0,0,0,4H79.3Z"/><path class="a" d="M85.16,117.92a9,9,0,0,0-6.52,2.83,2,2,0,0,0,2.92,2.73,4.93,4.93,0,0,1,7.08-.13,2,2,0,0,0,2.82-2.83A8.87,8.87,0,0,0,85.16,117.92Z"/></svg>