<svg xmlns="http://www.w3.org/2000/svg" viewBox="0 0 170 175"><defs><style>.a{fill:#00a693;}</style></defs><title>All-icons</title><path class="a" d="M142.42,81.55a2.15,2.15,0,0,0-2-2h-3.34c-0.53-26-23.36-47-52.24-47-22,0-40.34,12.17-48.34,29.64V20.56c7-7.69,18.78-8.45,18.91-8.46a2.18,2.18,0,0,0,2.09-2V6.85A2,2,0,0,0,56.29,5c-4-1.81-21.83-5.22-27.55.39A2.23,2.23,0,0,0,28,6.69c-0.36,4.58,3.53,11.36,4.53,13.37V79.52H29.82a2.15,2.15,0,0,0-2,2l-3.91,59.17a2.08,2.08,0,0,0,.78,1.76l5,3.87,0,0,4.31,3.31h0l29.57,22.54a1.9,1.9,0,0,0,1.22.28h40.54a1.9,1.9,0,0,0,1.22-.28l33.9-25.92s0,0,0,0l5-3.83a2.14,2.14,0,0,0,.78-1.79Zm-24,43.46a4.37,4.37,0,0,1,4.72-.45c3.7,1.76,8.36,8.8,9.53,22.81l-21.45,16.44C109.37,140.3,113.84,128.23,118.41,125Zm6.43-4.06a8.38,8.38,0,0,0-8.74.79l-0.09.07a37.39,37.39,0,0,1,5.14-8.42,26.52,26.52,0,0,1,13.49-9.06l2.59,39.54-0.85.65C134.94,132.59,130.65,123.7,124.84,120.95ZM85,36.35c27.08,0,47.57,19.17,48.08,43.17H36.92C37.43,55.52,57.92,36.35,85,36.35ZM58.82,163.64L37.38,147.2c1.19-13.9,5.82-20.89,9.51-22.64a4.37,4.37,0,0,1,4.72.45C56.17,128.22,60.62,140.24,58.82,163.64Zm-4.91-41.9a8.38,8.38,0,0,0-8.74-.79c-5.78,2.74-10.06,11.56-11.52,23.4L33,143.85l2.44-39.53a26.34,26.34,0,0,1,13.32,8.94A37.24,37.24,0,0,1,54,121.8ZM32.16,7.8c4-2.58,16.35-1.24,21.35.42V8.29c-4,.5-12.23,2.23-18.16,8C33.9,13.64,32.35,10.14,32.16,7.8ZM31.7,83.52h1l-1.2,18.25h0l-2.37,39.15L28,139.83Zm39.57,19.85L42.51,93.26V89.52h85v3.75l-28.76,10.1a1.91,1.91,0,0,0-1.24,1.89v63.27h-25V105.25A1.91,1.91,0,0,0,71.27,103.36Zm33.45,65.15h-3.21V106.67l28.76-10.1a1.91,1.91,0,0,0,1.24-1.89V87.5a2.2,2.2,0,0,0-2.23-2H40.18a1.73,1.73,0,0,0-1.67,2v7.18a1.91,1.91,0,0,0,1.24,1.89l28.76,10.1v61.85h-3l-2.94-2.12c2.55-25.35-1.05-44.06-10.74-55.75-6.09-7.34-12.89-9.83-16.15-10.58l1-16.56H133.3l1.07,16.57c-3.24.73-10.09,3.16-16.21,10.54-9.71,11.71-13.31,30.46-10.73,55.89ZM141,140.76l-3.74-57.25h1.24l3.71,56.23Z"/></svg>