<svg xmlns="http://www.w3.org/2000/svg" viewBox="0 0 401 401"><defs><style>.a{fill:#00a693;}</style></defs><title>All-icons</title><path class="a" d="M257.61,158.45V143.89H243L164.8,66l-8.47,8.5,44.38,44.19a127.89,127.89,0,0,0-35.82-7.79c-28.31-2-56.26,5.37-81.45,21.38H60.84v29.61H90.45V142.08c44.41-27.84,96.93-25.59,137.56,5.43v26h27.71l7,7L260,182.25a131.59,131.59,0,0,1,9.66,18.09l9.07-4,47.65,47.45,8.47-8.5ZM72.84,144.31h5.61v5.61H72.84v-5.61ZM240,157.87v-2h5.61v5.61H240v-3.62Z"/><path class="a" d="M291.7,238.81a137.3,137.3,0,0,0-3.79-22.1l-11.62,3a125.26,125.26,0,0,1,3.46,20.16Z"/><path class="a" d="M276.51,280.45l11.64,2.93a134.46,134.46,0,0,0,3.65-22.14l-12-1A122.3,122.3,0,0,1,276.51,280.45Z"/><path class="a" d="M267.09,305.71H247.61v29.61h29.61V312.25c1.29-2.52,2.53-5.07,3.65-7.64l-11-4.81C269,301.78,268.07,303.75,267.09,305.71Zm-7.47,12h5.61v5.61h-5.61v-5.61Z"/></svg>