<svg xmlns="http://www.w3.org/2000/svg" xmlns:xlink="http://www.w3.org/1999/xlink" viewBox="0 0 360 360"><defs><style>.a{fill:none;}.b{fill:#222221;}.c,.d,.e{fill-rule:evenodd;}.c{fill:url(#a);}.d{fill:url(#b);}.e{fill:url(#c);}</style><linearGradient id="a" x1="159.22" y1="71" x2="222.55" y2="58.69" gradientUnits="userSpaceOnUse"><stop offset="0" stop-color="#858585"/><stop offset="0.04" stop-color="#8d8d8d"/><stop offset="0.25" stop-color="#b6b6b6"/><stop offset="0.45" stop-color="#d6d6d6"/><stop offset="0.65" stop-color="#ededed"/><stop offset="0.84" stop-color="#fafafa"/><stop offset="1" stop-color="#fff"/></linearGradient><linearGradient id="b" x1="142.9" y1="218.25" x2="274.7" y2="185.39" xlink:href="#a"/><radialGradient id="c" cx="144.06" cy="468.88" r="20.81" gradientTransform="translate(-440.9 -2007.98) scale(4.59 4.59)" gradientUnits="userSpaceOnUse"><stop offset="0" stop-color="#f3d112"/><stop offset="1" stop-color="#d2741c"/></radialGradient></defs><title>services-02</title><path class="a" d="M128.06,244.2a4.29,4.29,0,1,0,1.24,3A4.11,4.11,0,0,0,128.06,244.2Zm-1.75,6-0.65-1.48a2.77,2.77,0,0,0-.5-0.81,0.79,0.79,0,0,0-.56-0.27H124v2.56h-0.92v-6.16h1.78a2.75,2.75,0,0,1,1.67.45,1.45,1.45,0,0,1,.6,1.24,1.54,1.54,0,0,1-.41,1.08,2.07,2.07,0,0,1-1.15.59,1.12,1.12,0,0,1,.52.36,3.31,3.31,0,0,1,.5.79l0.8,1.65h-1.12Z"/><path class="b" d="M128.49,243.78a4.86,4.86,0,1,0,1.42,3.43A4.7,4.7,0,0,0,128.49,243.78Zm-0.42,6.45a4.29,4.29,0,1,1,1.24-3A4.11,4.11,0,0,1,128.07,250.23Z"/><path class="b" d="M126.13,247.8a1.12,1.12,0,0,0-.52-0.36,2.07,2.07,0,0,0,1.15-.59,1.54,1.54,0,0,0,.41-1.08,1.45,1.45,0,0,0-.6-1.24,2.75,2.75,0,0,0-1.67-.45h-1.78v6.16H124v-2.56h0.56a0.79,0.79,0,0,1,.56.27,2.77,2.77,0,0,1,.5.81l0.65,1.48h1.12l-0.8-1.65A3.31,3.31,0,0,0,126.13,247.8Zm-1.18-.89H124v-2h0.75a1.85,1.85,0,0,1,1.05.23,0.89,0.89,0,0,1,.33.78,1,1,0,0,1-.31.77A1.42,1.42,0,0,1,124.95,246.91Z"/><path class="b" d="M353.86,285.63a3.1,3.1,0,0,1,.94-2.28,3.23,3.23,0,0,1,5.52,2.28,3.23,3.23,0,1,1-6.47,0h0Zm0.4,0a2.83,2.83,0,1,0,.83-2,2.73,2.73,0,0,0-.83,2h0Zm4.41,2-0.53-1.1a2.06,2.06,0,0,0-.33-0.52,0.75,0.75,0,0,0-.34-0.24,1.37,1.37,0,0,0,.76-0.39,1,1,0,0,0,.27-0.72,1,1,0,0,0-.4-0.82,1.81,1.81,0,0,0-1.11-.3h-1.18v4.09h0.61v-1.7h0.37a0.51,0.51,0,0,1,.37.18,1.85,1.85,0,0,1,.34.54l0.43,1h0.74Zm-2.25-3.57v1.36H357a0.93,0.93,0,0,0,.61-0.17,0.63,0.63,0,0,0,.21-0.52,0.59,0.59,0,0,0-.22-0.52,1.24,1.24,0,0,0-.7-0.15h-0.5Z"/><path class="b" d="M1.51,261.11v-21H5.69l5,14.88c0.46,1.38.8,2.42,1,3.11q0.36-1.15,1.12-3.37l5-14.62h3.74v21H18.88V243.52l-6.11,17.59H10.26L4.19,243.22v17.89H1.51Zm24.22-18v-3h2.58v3H25.73Zm0,18V245.89h2.58v15.22H25.73Zm16.44-5.58,2.53,0.33a6.54,6.54,0,0,1-2.13,4.1,6.19,6.19,0,0,1-4.21,1.48,6.52,6.52,0,0,1-5-2,8.28,8.28,0,0,1-1.9-5.86,10.64,10.64,0,0,1,.82-4.32,5.71,5.71,0,0,1,2.49-2.77,7.35,7.35,0,0,1,3.63-.93,6.3,6.3,0,0,1,4.05,1.26,5.74,5.74,0,0,1,2,3.56l-2.51.39a4.2,4.2,0,0,0-1.27-2.31,3.3,3.3,0,0,0-2.2-.77,4,4,0,0,0-3.17,1.4,6.62,6.62,0,0,0-1.22,4.42,6.85,6.85,0,0,0,1.18,4.46,3.83,3.83,0,0,0,3.07,1.39,3.62,3.62,0,0,0,2.53-.93,4.62,4.62,0,0,0,1.29-2.87h0Zm4.72,5.58V245.89h2.32v2.3a6.23,6.23,0,0,1,1.64-2.13,2.85,2.85,0,0,1,1.65-.52,5.05,5.05,0,0,1,2.65.83l-0.89,2.4a3.66,3.66,0,0,0-1.89-.56,2.47,2.47,0,0,0-1.52.51,2.77,2.77,0,0,0-1,1.41,10,10,0,0,0-.43,3v8H46.89Zm8.84-7.61q0-4.23,2.35-6.26a7.08,7.08,0,0,1,4.78-1.69A6.81,6.81,0,0,1,68,247.6a7.8,7.8,0,0,1,2,5.68,10.06,10.06,0,0,1-.88,4.62,6.23,6.23,0,0,1-2.56,2.62,7.47,7.47,0,0,1-3.68.93,6.83,6.83,0,0,1-5.17-2,8.18,8.18,0,0,1-2-5.91h0Zm2.65,0a6.47,6.47,0,0,0,1.28,4.38,4.24,4.24,0,0,0,6.41,0,6.66,6.66,0,0,0,1.27-4.46,6.29,6.29,0,0,0-1.28-4.28,4.26,4.26,0,0,0-6.4,0,6.44,6.44,0,0,0-1.28,4.37h0ZM72,256.57l2.55-.4a3.57,3.57,0,0,0,1.2,2.35,4.16,4.16,0,0,0,2.74.82,4,4,0,0,0,2.64-.72,2.17,2.17,0,0,0,.86-1.7,1.57,1.57,0,0,0-.76-1.38,11,11,0,0,0-2.64-.87,24.12,24.12,0,0,1-3.93-1.24,3.77,3.77,0,0,1-2.23-3.49,3.87,3.87,0,0,1,.47-1.88,4.13,4.13,0,0,1,1.27-1.44,5.43,5.43,0,0,1,1.64-.75,7.87,7.87,0,0,1,2.23-.31,8.79,8.79,0,0,1,3.15.52,4.25,4.25,0,0,1,2,1.39,5.48,5.48,0,0,1,.89,2.36l-2.52.35a2.78,2.78,0,0,0-1-1.83,3.63,3.63,0,0,0-2.33-.66,4.22,4.22,0,0,0-2.53.59,1.71,1.71,0,0,0-.76,1.38,1.43,1.43,0,0,0,.32.91,2.3,2.3,0,0,0,1,.69c0.26,0.09,1,.31,2.28.66a31.7,31.7,0,0,1,3.82,1.2,3.88,3.88,0,0,1,1.7,1.36,3.78,3.78,0,0,1,.62,2.21,4.35,4.35,0,0,1-.75,2.43,4.89,4.89,0,0,1-2.17,1.76,7.92,7.92,0,0,1-3.21.62A7.15,7.15,0,0,1,74,260.22a5.71,5.71,0,0,1-2-3.65h0Zm14.75-3.07q0-4.23,2.35-6.26a7.08,7.08,0,0,1,4.78-1.69A6.81,6.81,0,0,1,99,247.6a7.8,7.8,0,0,1,2,5.68,10.07,10.07,0,0,1-.88,4.62,6.23,6.23,0,0,1-2.56,2.62,7.47,7.47,0,0,1-3.68.93,6.83,6.83,0,0,1-5.17-2,8.18,8.18,0,0,1-2-5.91h0Zm2.65,0a6.47,6.47,0,0,0,1.28,4.38,4.24,4.24,0,0,0,6.41,0,6.66,6.66,0,0,0,1.27-4.46,6.29,6.29,0,0,0-1.28-4.28,4.26,4.26,0,0,0-6.4,0,6.44,6.44,0,0,0-1.28,4.37h0Zm15.25,7.61V247.9h-2.27v-2h2.27v-1.62a7.11,7.11,0,0,1,.27-2.28,3.3,3.3,0,0,1,1.31-1.63,4.74,4.74,0,0,1,2.63-.62,12.18,12.18,0,0,1,2.41.26l-0.39,2.25a8.44,8.44,0,0,0-1.52-.15,2.24,2.24,0,0,0-1.66.5,2.7,2.7,0,0,0-.49,1.88v1.4h3v2h-3v13.21h-2.57Zm13.18-2.31a8.17,8.17,0,0,1-1.13.1,1.71,1.71,0,0,1-.88-0.19,1.09,1.09,0,0,1-.44-0.5,4.59,4.59,0,0,1-.13-1.42v-8.9h2.59v-2h-2.59v-5.32l-2.57,1.54v3.77h-1.89v2h1.89v8.76a9.17,9.17,0,0,0,.32,3,2.47,2.47,0,0,0,1.09,1.17,4.41,4.41,0,0,0,2.18.44,9.65,9.65,0,0,0,1.95-.23Z"/><path class="b" d="M1.51,313.89a18.13,18.13,0,0,0,6.6,3.57,24.44,24.44,0,0,0,7.64,1.36q11.61,0,11.61-8.76a8.2,8.2,0,0,0-1.21-4.44A11.35,11.35,0,0,0,23,302.35Q21,301,14.85,297.69q-7.44-4-10.35-7.35a12.42,12.42,0,0,1-2.91-8.43A12.64,12.64,0,0,1,6.88,271.2a21.27,21.27,0,0,1,13.07-4q7.89,0,11.28,2v7q-4.63-3.33-12-3.33a14,14,0,0,0-8.27,2.25,7.23,7.23,0,0,0-3.2,6.25A8,8,0,0,0,10,287.26q2.26,2.27,9.38,5.89c5.55,2.87,9.28,5.59,11.22,8.15a13.57,13.57,0,0,1,2.89,8.31q0,7.18-5,11t-13.81,3.81a33.68,33.68,0,0,1-7-.92,17.6,17.6,0,0,1-6.17-2.27v-7.32h0Zm73.11,9.58H68.9V300.7q0-12.6-9-12.6a9.68,9.68,0,0,0-7.63,3.64,13.94,13.94,0,0,0-3.11,9.36v22.36H43.38V265h5.75v25.57h0.14q4.39-7.52,12.51-7.52,12.83,0,12.84,16.07v24.32h0Zm12.51-36.68a22.47,22.47,0,0,1,12.8-3.72q13.24,0,13.24,14.57v25.82h-5.75v-6.2H107.2q-3.94,7.14-11.68,7.13-5.57,0-8.84-3.09A10.9,10.9,0,0,1,83.41,313q0-11,12.51-12.82l11.46-1.73q0-10.3-7.89-10.3a17.88,17.88,0,0,0-12.37,4.93v-6.31h0Zm11,17.92A13.78,13.78,0,0,0,91.51,307c-1.43,1.1-2.13,3-2.13,5.63a6.2,6.2,0,0,0,2,4.85,7.73,7.73,0,0,0,5.37,1.85,9.72,9.72,0,0,0,7.6-3.39,12.33,12.33,0,0,0,3-8.49v-4l-9.29,1.28h0Zm46.17-14.62a7.3,7.3,0,0,0-4.59-1.27q-3.91,0-6.54,3.94c-1.76,2.64-2.64,6.13-2.64,10.49v20.22h-5.75V284h5.75v8.2h0.14a14.17,14.17,0,0,1,4-6.53,8.76,8.76,0,0,1,5.95-2.35,10.6,10.6,0,0,1,3.73.53v6.27h0Zm35.9,15.11H153.22q0.19,6.85,3.53,10.47a11.61,11.61,0,0,0,9,3.63,18,18,0,0,0,11.86-4.48v5.71q-5.09,3.89-13.19,3.88t-12.56-5.46q-4.56-5.47-4.54-15.12,0-9,5-14.87a15.58,15.58,0,0,1,12.37-5.87q7.39,0,11.44,5T180.16,302v3.23h0Zm-5.92-5.26q0-5.52-2.55-8.65a8.69,8.69,0,0,0-7.11-3.12,10,10,0,0,0-7.4,3.22,14.92,14.92,0,0,0-3.88,8.54h20.94Zm21.91,2.51v21h-5.83V268.14h14.35q8.41,0,13.07,4.32t4.69,12.15a17,17,0,0,1-5.49,13.11,18.39,18.39,0,0,1-13.67,4.73h-7.12Zm0-28.67v23h6.69q6.54,0,10-3.08t3.45-8.8q0-11.12-12.66-11.12h-7.48Zm30.09,30.44q0-9.85,5.15-15.51t14.09-5.64q8.31,0,13.11,5.43t4.79,15.12q0,9.39-5.17,15.09t-13.64,5.7q-8.28,0-13.3-5.55t-5-14.63h0Zm5.83-.27q0,7,3.52,11.19a11.65,11.65,0,0,0,9.38,4.19c4.06,0,7.16-1.35,9.32-4s3.23-6.53,3.23-11.48-1.09-8.85-3.26-11.6S249,288.1,245,288.1a11.57,11.57,0,0,0-9.39,4.25Q232,296.6,232.06,304h0Zm40.34-34.2a4,4,0,0,1,1.09-2.84,3.53,3.53,0,0,1,2.64-1.14,3.57,3.57,0,0,1,2.73,1.17,3.92,3.92,0,0,1,1.11,2.81,3.85,3.85,0,0,1-1.11,2.82,3.63,3.63,0,0,1-2.73,1.13,3.58,3.58,0,0,1-2.64-1.11,3.94,3.94,0,0,1-1.09-2.85h0Zm0.8,53.71V284h5.71v39.5h-5.71Zm49.43,0h-5.75V300.92q0-12.81-9-12.81a9.62,9.62,0,0,0-7.69,3.63,13.81,13.81,0,0,0-3,9.22v22.51H291.4V284h5.75v6.62h0.14q4.28-7.52,12.48-7.52,6.25,0,9.57,4.17t3.31,12.09v24.13h0Zm28.86-.37a11.07,11.07,0,0,1-5.53,1.23q-9.79,0-9.8-11.46V289.12h-6.58V284h6.58v-9.7l5.71-1.91V284h9.62v5.14h-9.62v22.67q0,4.18,1.33,5.82a5.29,5.29,0,0,0,4.34,1.65,6.12,6.12,0,0,0,3.94-1.32v5.15Z"/><path class="c" d="M161.15,66.66C173.54,56,189.58,48.61,205.79,41.35a132.35,132.35,0,0,0,18,37.72c-5-.87-10.21-1.65-15.52-2.43,3.52-.22,8.46.39,12,0.17-1.48-2-4.93-6-6.62-9-2.83,2.49-8.51,5-13.23,6.47,0.85,0.6,4,1.35,4.84,1.94-15.58-2.28-31.62-4.71-44.05-9.53h0Zm15.19-6.14a13,13,0,0,0-7.09,7.41c4.82,0.84,5.75,2.17,7.56,3.06l8.89-.61c-4.25-2.73-7-6.7-9.37-9.86h0ZM182.48,57a123.57,123.57,0,0,0,28.19,3.71c-2.61-3.26-4.68-8-6.46-13.56A85.6,85.6,0,0,0,182.48,57h0Zm29.61,8.36C202.64,65,189.41,61.87,180,59c3.35,4.57,9.88,11,16.38,14.27A61,61,0,0,0,212.09,65.33Z"/><path class="d" d="M223.74,248.56c17.19-38.08,23.81-69.52,19.54-105.82-28.15,9.59-54.92,18-79.53,32.36-0.65,7.26.58,14,4.56,20l-30.87,8c1-13.15,12.29-19.44,26.27-28q-5.34,3.11-10.52,6.57c-59.06,39.53,21.53,65.24,70.56,66.87h0Zm-46.15-10.09a64.29,64.29,0,0,1-23.15-10.57c12.69-2.29,26.48-7,38.11-11.2-1.48,7.53-8,15.7-15,21.76h0Zm10.4,2.84a297,297,0,0,0,40.24-12.54c-2,6.13-3.58,11.88-6.85,17A177.65,177.65,0,0,1,188,241.32h0Zm-7-1.58c6.68-7.18,11.62-13.62,15.15-21.43,9,5.26,19.36,6.77,29.19,8.66-13.69,6.2-28.76,9.93-44.34,12.77h0Zm18.19-24.44c12.39-5.25,26.51-11,38.9-16.24-1.42,9-4.25,17-7.25,25.23-10-1.82-23.88-2.75-31.66-9h0Zm-2.84-.94c6.16-6.36,15.17-21.13,17.12-30.85,8.44,6,18.51,11.14,24.85,12.08-11.45,4.47-30.53,14.3-42,18.77h0ZM239.73,191A46.6,46.6,0,0,1,215,181.39c8.4-4.36,17.94-8.73,26.34-13.09,0.37,8.15-.76,14.71-1.65,22.7h0Zm1.81-29.64c-3.42-4.82-8.82-7.9-15.59-9.78l14.33-3.51a47.72,47.72,0,0,1,1.26,13.29h0Zm-27.41,18c1.47-8.25,4.67-18.08,6.14-26.34,8.87,3,16.17,6.78,20,12.3-8.14,4.15-18,9.88-26.15,14h0Zm-2.21-1.26c-2.8-1.29-9.89-5.8-15.43-15.3,5.41-1.94,12.55-5,18-6.94,1.1,6.2-1.26,15.25-2.52,22.24h0Zm-2.36,2.68c-9.59,5.24-25.43,12.13-35.44,13.17,5-9.15,14.65-20.42,19.69-29.57a37.14,37.14,0,0,0,15.75,16.4h0Zm1.77,2c-1.36,8.87-10,21.86-17.68,29.89-7.42-3.9-13.84-8.72-17.8-15.77,11.21-2.1,25.74-10.12,35.48-14.12h0Zm-22.25,32.41a230.28,230.28,0,0,1-36.54,11.67,118.15,118.15,0,0,0,19.21-27.12c3.83,5.38,9.29,10.18,17.32,15.46h0Zm-40.48,9.78c-7.93-3.49-11.23-10.38-11.39-19.55l30.61-6.94c-3.54,9.6-10.21,18.36-19.22,26.49h0Zm23.94-33.27c-4.35-3.32-6.23-11.6-3.78-17.35l19.53-8.2C184.71,174.85,179.09,183.31,172.55,191.64Z"/><path class="e" d="M163.75,175.11l-10.57,6.59c3.63-3.86,7.39-7.87,10.86-11.22,40.19-38.69,39.15-73.53,3.14-99.72-10.16-7.39-8.2-3.82,2.27-1.4,60.89,14.09,113,9.14,148.49,52.92,2.54,3.14,2.33,3.88-.13,4-20.56,1.29-91.78,16-154.06,48.79h0ZM188.9,89a40.54,40.54,0,0,0-5.25-14,29.91,29.91,0,0,0-10.19-2.17A74.5,74.5,0,0,1,188.9,89h0Zm-0.39-12.25a127.76,127.76,0,0,1,5.08,17.41c4.86-5.37,11.27-9.77,17.6-13.47-7.3-2.49-15.17-3.34-22.68-3.94h0ZM197.44,96l18.66,6-1.73-20.18c-6.3,3.94-12.78,7.66-16.93,14.19h0Zm22.28,6.62A115.86,115.86,0,0,1,245,86.23,114.57,114.57,0,0,0,216.81,82q1.46,10.33,2.91,20.66h0Zm3.31,1.65a43.49,43.49,0,0,1,16.38,8.51c5.15-7.79,7.74-16.38,9.53-25.23A101,101,0,0,0,223,104.29h0Zm19.69,10.09a201.56,201.56,0,0,1,39.92-16.24,174,174,0,0,0-31.81-9.86c-0.25,8.14-4.08,19.23-8.11,26.1h0Zm2.2,1.58a51.91,51.91,0,0,1,16.85,18.37c8.65-11.29,17.49-22.29,24.88-33.59-14.41,4.15-28.58,8.75-41.74,15.21h0Zm20.78,17.34a297.14,297.14,0,0,1,49.14-9.38,78.16,78.16,0,0,0-26.22-21.68c-6.62,10.7-13.78,21.22-22.92,31.07h0ZM196.5,120.53c5.46-4.81,10.61-9.62,16.07-14.43l-16.7-4.71a117.75,117.75,0,0,1,.63,19.14h0Zm-0.16,6a15.85,15.85,0,0,1,9.69,6.07l9.84-25-19.53,18.92h0Zm11,7.41,25.91-18.29A36.92,36.92,0,0,0,219.1,109l-11.73,24.92h0Zm1.09,1.9a39,39,0,0,1,3.63,14.74c7.77-10.51,17-22,24.73-32.49l-28.36,17.75h0Zm8.67,12.61L258.63,135c-5.78-6.58-11.47-11.54-18.51-14.74-7.4,9.3-15.59,18.85-23,28.15h0ZM180.35,163.9a178,178,0,0,1,29.06-12.38c-0.58-4.93-.68-10.74-3.78-14.19-7.72,8.07-17.56,18.5-25.28,26.57h0Zm-4.84-2.28,14.69-10.1-1.81-5.67a84.52,84.52,0,0,1-12.87,15.77h0Zm13.82-17.82,11.81-8a11.33,11.33,0,0,0-7-4.5A42.56,42.56,0,0,1,189.33,143.79Z"/><path class="b" d="M231.25,248.6v-4.55h-1.7v-0.61h4.09v0.61h-1.71v4.55h-0.68Zm3.07,0v-5.16h1l1.22,3.65,0.25,0.76c0.06-.18.15-0.46,0.27-0.82l1.24-3.59h0.92v5.16h-0.66v-4.32l-1.5,4.32h-0.62L235,244.21v4.39h-0.66Z"/></svg>