<svg xmlns="http://www.w3.org/2000/svg" viewBox="0 0 360 360"><defs><style>.a{fill:#dfdfdf;}.b{fill:#1ba492;}.c{fill:#8fd8ca;}.d{fill:#f7f7f7;}.e{fill:#c9c9c9;}.f{fill:#119680;}</style></defs><title>All-icons_HP-icon-1-1</title><path class="a" d="M69.07,100.93c-36,0-65.19,10.59-65.19,23.74V144c0,13.15,29.22,23.74,65.19,23.74s65.19-10.59,65.19-23.74V124.67C134.44,111.53,105,100.93,69.07,100.93Z"/><path class="a" d="M69.07,179.27c-34.33,0-62.81-9.68-65.19-21.91-0.18.73,0,32.32,0,32.32,0,13.15,29.22,23.74,65.19,23.74s65.19-10.59,65.19-23.74V157.36C131.71,169.59,103.4,179.27,69.07,179.27Z"/><path class="b" d="M134.08,203.19c-2.56,12.23-30.68,21.91-65.19,21.91s-62.45-9.68-65-21.91v32.5c0,13.15,29.22,23.74,65.19,23.74s65.19-10.59,65.19-23.74v-32.5h-0.18Z"/><path class="a" d="M295.67,100.57c-36.15,0-65.37,10.59-65.37,23.74v19.36c0,13.15,29.22,23.74,65.19,23.74s65.19-10.59,65.19-23.74V124.31C360.86,111.16,331.65,100.57,295.67,100.57Z"/><path class="b" d="M295.67,179.09c-34.33,0-62.81-9.68-65.19-21.91-0.18.73,0,32.32,0,32.32,0,13.15,29.22,23.74,65.19,23.74s65.19-10.59,65.19-23.74V157.18C358.31,169.23,330.19,179.09,295.67,179.09Z"/><path class="b" d="M360.86,203c-2.56,12.23-30.68,21.91-65.19,21.91s-62.81-9.68-65.19-21.91v32.32c0,13.15,29.22,23.74,65.19,23.74s65.19-10.59,65.19-23.74V203Z"/><path class="b" d="M219.95,140.38l-23.74-23.56a4.55,4.55,0,0,0-3.47-1.28,3.76,3.76,0,0,0-3.1,1.28l-2.74,2.74a4.28,4.28,0,0,0-1.28,3.1,3.54,3.54,0,0,0,1.28,3.1l10.59,10.59H169.1v14.06h28.57L187.08,161a5.35,5.35,0,0,0,0,6.94l2.74,2.74a4.28,4.28,0,0,0,3.1,1.28,5.46,5.46,0,0,0,3.47-1.28l23.74-23.56a4.55,4.55,0,0,0,1.28-3.47A4.28,4.28,0,0,0,219.95,140.38Z"/><path class="c" d="M151.39,136.54a4,4,0,0,0-3.1,1.28,5.26,5.26,0,0,0-1.1,3.47V146a6.45,6.45,0,0,0,1.1,3.47,3.3,3.3,0,0,0,3.1,1.28h7.85V136.72h-7.85v-0.18Z"/><path class="a" d="M146.76,207.57l23.74,23.56a4.55,4.55,0,0,0,3.47,1.28,4,4,0,0,0,3.1-1.28l2.74-2.74a4.28,4.28,0,0,0,1.28-3.1,3.54,3.54,0,0,0-1.28-3.1l-10.59-10.59h28.57V197.35H169.22l10.59-10.59a5.35,5.35,0,0,0,0-6.94l-2.74-2.56A4.28,4.28,0,0,0,174,176a5.46,5.46,0,0,0-3.47,1.28l-23.74,23.56a4.55,4.55,0,0,0-1.28,3.47A6.87,6.87,0,0,0,146.76,207.57Z"/><path class="a" d="M215.32,211.41a4,4,0,0,0,3.1-1.28,5.26,5.26,0,0,0,1.1-3.47v-4.75a6.45,6.45,0,0,0-1.1-3.47,3.76,3.76,0,0,0-3.1-1.28h-7.85v14.06h7.85v0.18Z"/><ellipse class="d" cx="69.07" cy="122.48" rx="65.19" ry="21.73"/><ellipse class="d" cx="295.67" cy="122.3" rx="65.19" ry="21.73"/><path class="e" d="M131.71,179.27v12.05s-3.47,9.68-29.4,16.07Z"/><path class="e" d="M131.71,134.17v12.05s-3.47,9.68-29.4,16.07Z"/><path class="e" d="M358.85,132.16v12.05s-3.47,9.68-29.4,16.07Z"/><path class="f" d="M131.71,223.82v12.05s-3.47,9.68-29.4,16.07Z"/><path class="f" d="M358.85,222V234s-3.47,9.68-29.4,16.07Z"/><path class="f" d="M358.85,177.44V189.5s-3.47,9.68-29.4,16.07Z"/></svg>