<?xml version="1.0" encoding="utf-8"?>
<!-- Generator: Adobe Illustrator 19.2.1, SVG Export Plug-In . SVG Version: 6.00 Build 0)  -->
<svg version="1.1" id="Page_9" xmlns="http://www.w3.org/2000/svg" xmlns:xlink="http://www.w3.org/1999/xlink" x="0px" y="0px"
	 viewBox="0 0 32 32" style="enable-background:new 0 0 32 32;" xml:space="preserve">
<style type="text/css">
	.st0{fill:#EBBB30;}
	.st1{fill:#27A392;}
	.st2{fill:#CBCBCB;}
</style>
<g>
	<path id="XMLID_818_" class="st0" d="M4.6,0L3.3,1.2l3.4,3.4C6,5.3,5.3,6,4.7,6.8L1.2,3.3L0,4.6l3.5,12c0.1-3,1.1-5.8,3-8.1l0,0
		c0.6-0.8,1.3-1.5,2.1-2.1l0,0c1.9-1.5,4.1-2.5,6.6-2.9L16,3.5L4.6,0z"/>
	<g>
		<g id="XMLID_808_">
			<g>
				<path id="XMLID_521_" class="st1" d="M17.2,30.2L17.2,30.2c7.2,0,13.1-5.9,13.1-13.1l0,0c0-3.2-1.1-6-3-8.3v7.8l0,0
					c0,0.2,0,0.4,0,0.5l0,0c0,5.6-4.5,10.1-10.1,10.1l0,0c-5.5,0-10.1-4.5-10.1-10.1l0,0c0-4.8,3.5-8.9,8.1-9.8l0,0V4.2
					c-6.2,1-11,6.4-11,12.9l0,0C4.2,24.4,10,30.2,17.2,30.2z"/>
				<g id="XMLID_518_">
					<path id="XMLID_520_" class="st1" d="M11.7,17.1c0,1.5,0.6,2.9,1.6,3.9c1.1,1.1,2.5,1.6,3.9,1.6l0,0c3.1,0,5.5-2.5,5.5-5.4l0,0
						l0,0l0,0v-12c-1-0.4-1.9-0.8-3-1v13l0,0c0,1.4-1.1,2.5-2.5,2.5l0,0c-0.7,0-1.3-0.3-1.8-0.7c-0.4-0.4-0.7-1.1-0.7-1.8h-3.1V17.1
						z"/>
					<path id="XMLID_519_" class="st1" d="M27.3,8.9v7.8c0,0.2,0,0.4,0,0.5l0,0c0,5.5-4.5,10-10.1,10l0,0c-5.5,0-10.1-4.5-10.1-10.1
						l0,0c0-4.8,3.5-8.9,8.1-9.8V4.2c-6.2,1-11,6.4-11,12.9l0,0c0,7.2,5.9,13.1,13.1,13.1l0,0c7.2,0,13.1-5.9,13.1-13.1l0,0
						C30.2,13.9,29.1,11,27.3,8.9z"/>
				</g>
			</g>
		</g>
	</g>
	<g id="XMLID_804_">
		<path id="XMLID_807_" class="st2" d="M30.9,16.5c0,0.3,0,0.4,0,0.7l0,0l0,0c0,7.5-6.1,13.8-13.8,13.8c-0.6,0-1.3-0.1-1.9-0.2
			l1.1,1.2c3.6,0.1,6.9-1,9.6-2.9c0.8-0.6,1.6-1.2,2.2-2c2.3-2.5,3.8-5.7,3.9-9.2L30.9,16.5z"/>
		<path id="XMLID_806_" class="st2" d="M22.7,2.4l-0.8-1.1l0,0c-0.3-0.3-0.6-0.4-1.1-0.4c-0.8,0-1.5,0.7-1.5,1.5
			c0,0.4,0.2,0.7,0.4,1l0,0l0,0c1.1,0.2,2,0.5,3,1C22.7,4.3,22.7,2.4,22.7,2.4z"/>
		<path id="XMLID_805_" class="st2" d="M4.6,0L3.3,1.2l3.4,3.4C6,5.3,5.3,6,4.7,6.8L1.2,3.3L0,4.6l3.5,12c0.1-3,1.1-5.8,3-8.1l0,0
			c0.6-0.8,1.3-1.5,2.1-2.1l0,0c1.9-1.5,4.1-2.5,6.6-2.9L16,3.5L4.6,0z"/>
	</g>
</g>
</svg>
