<?xml version="1.0" standalone="no"?>
<!DOCTYPE svg PUBLIC "-//W3C//DTD SVG 20010904//EN"
 "http://www.w3.org/TR/2001/REC-SVG-20010904/DTD/svg10.dtd">
<svg version="1.0" xmlns="http://www.w3.org/2000/svg"
 width="700.000000pt" height="700.000000pt" viewBox="0 0 700.000000 700.000000"
 preserveAspectRatio="xMidYMid meet">
<metadata>
Created by potrace 1.11, written by Peter Selinger 2001-2013
</metadata>
<g transform="translate(0.000000,700.000000) scale(0.100000,-0.100000)"
fill="#000000" stroke="none">
<path d="M975 6972 c-17 -15 -81 -74 -143 -131 l-113 -105 372 -372 371 -372
-120 -123 c-162 -168 -200 -211 -309 -349 -2 -2 -176 168 -387 379 l-382 382
-100 -107 c-54 -59 -106 -114 -114 -123 -57 -60 -61 -23 51 -407 55 -192 132
-455 169 -584 38 -129 86 -296 108 -370 22 -74 115 -394 207 -710 92 -316 171
-582 176 -590 6 -10 9 -3 10 25 2 69 15 213 23 265 3 14 10 59 16 100 39 248
131 540 251 795 150 320 466 729 739 957 127 106 247 191 460 323 69 42 277
144 380 185 275 110 541 178 735 189 108 6 116 8 85 18 -88 28 -336 105 -440
137 -63 19 -380 116 -705 216 -1130 347 -1302 400 -1306 400 -2 0 -18 -12 -34
-28z"/>
<path d="M4455 6787 c-56 -19 -117 -61 -154 -108 -84 -104 -98 -225 -41 -339
40 -79 46 -85 95 -94 22 -4 54 -9 70 -12 72 -13 319 -97 422 -143 62 -27 114
-47 116 -43 2 4 4 102 3 217 l-1 211 -79 109 c-100 139 -110 150 -165 181 -38
22 -62 27 -136 30 -58 3 -104 -1 -130 -9z"/>
<path d="M3176 6054 c-551 -122 -1035 -389 -1429 -789 -55 -55 -126 -132 -160
-172 -167 -199 -345 -490 -442 -723 -26 -63 -51 -124 -56 -135 -59 -140 -140
-494 -155 -673 -3 -42 -8 -88 -10 -102 -5 -32 -5 -367 0 -400 2 -14 7 -61 11
-105 30 -367 181 -832 373 -1149 23 -37 42 -70 42 -72 0 -11 130 -194 203
-284 136 -169 275 -304 502 -489 134 -108 443 -283 636 -359 708 -281 1495
-278 2184 10 129 54 304 143 394 202 39 25 74 46 76 46 27 0 328 245 450 367
177 175 365 415 467 597 26 46 148 293 169 341 87 204 166 495 195 725 17 140
21 213 18 340 -3 160 -5 184 -35 380 -81 540 -247 949 -552 1353 l-82 109 -2
-104 c-2 -56 -4 -517 -6 -1023 -3 -818 -5 -932 -21 -1025 -119 -721 -556
-1318 -1197 -1636 -299 -149 -604 -223 -944 -229 -604 -11 -1160 213 -1591
640 -137 137 -204 218 -305 372 -191 294 -305 622 -345 998 -8 76 -7 333 1
399 19 145 25 183 51 291 103 439 337 824 698 1150 230 208 605 400 925 475
l88 21 0 340 c0 339 0 339 -21 338 -11 0 -70 -12 -130 -25z"/>
<path d="M4310 4637 c0 -925 -4 -1464 -10 -1498 -43 -229 -222 -404 -450 -440
-171 -26 -363 36 -484 156 -82 81 -144 226 -150 350 l-1 30 -323 1 c-263 1
-326 3 -332 15 -5 7 -12 10 -17 6 -4 -5 -2 -11 4 -15 7 -4 14 -37 18 -72 8
-94 15 -140 27 -185 6 -22 11 -44 12 -50 35 -163 165 -385 310 -529 194 -193
433 -307 711 -342 55 -6 238 -7 270 0 11 2 43 7 70 10 267 35 573 217 750 446
82 106 178 290 200 385 2 6 10 37 18 70 9 33 19 89 24 125 4 36 7 672 8 1414
l0 1349 -135 54 c-153 61 -349 126 -430 143 -30 7 -63 14 -72 17 -17 4 -18
-69 -18 -1440z"/>
<path d="M6759 3283 c-1 -182 -6 -264 -25 -438 -5 -42 -46 -259 -60 -317 -2
-10 -6 -26 -8 -35 -62 -253 -215 -609 -363 -845 -72 -114 -192 -281 -244 -339
-17 -19 -44 -50 -60 -69 -273 -318 -683 -614 -1089 -785 -135 -57 -388 -139
-490 -159 -14 -3 -70 -14 -125 -24 -55 -11 -127 -23 -160 -27 -33 -4 -71 -9
-85 -11 -14 -2 -115 -6 -225 -9 -178 -3 -273 1 -370 19 -16 3 -52 8 -80 11
l-50 6 31 -33 c55 -60 122 -132 167 -182 l44 -49 199 7 c109 3 219 8 244 11
60 7 188 24 223 30 15 3 38 7 52 9 14 3 33 7 43 10 9 3 34 7 54 10 116 17 406
107 593 183 236 96 592 294 734 408 9 8 62 50 119 96 102 81 255 224 283 265
8 11 41 51 74 89 303 342 529 728 665 1136 38 114 81 273 94 349 3 19 8 44 10
55 20 105 34 223 41 340 l6 90 -88 110 c-48 61 -102 129 -120 153 l-33 44 -1
-109z"/>
</g>
</svg>
