<?xml version="1.0" standalone="no"?>
<!DOCTYPE svg PUBLIC "-//W3C//DTD SVG 1.1//EN" "http://www.w3.org/Graphics/SVG/1.1/DTD/svg11.dtd" >
<svg>
<metadata>
Created by FontForge 20090914 at Wed May 10 19:39:59 2017
 By www-data
&#239;&#190;&#169; !22! Soft 1992
</metadata>
<defs>
<font id="VantaBoldPlain" horiz-adv-x="561" >
  <font-face 
    font-family="Vanta Bold"
    font-weight="400"
    font-stretch="normal"
    units-per-em="1000"
    panose-1="2 11 6 4 2 2 2 2 2 4"
    ascent="800"
    descent="-200"
    x-height="524"
    cap-height="716"
    bbox="-13 -215.001 1176 938"
    underline-thickness="76"
    underline-position="-93"
    unicode-range="U+0020-U+2219"
  />
<missing-glyph horiz-adv-x="500" 
d="M40 667h420v-667h-420v667zM60 647v-627h380v627h-380z" />
    <glyph glyph-name=".notdef" horiz-adv-x="500" 
d="M40 667h420v-667h-420v667zM60 647v-627h380v627h-380z" />
    <glyph glyph-name="space" unicode=" " horiz-adv-x="293" 
 />
    <glyph glyph-name="exclam" unicode="!" horiz-adv-x="350" 
d="M88 716h148l-26 -514h-94zM88 145h151v-145h-151v145z" />
    <glyph glyph-name="quotedbl" unicode="&#x22;" horiz-adv-x="482" 
d="M153 427h-72l-26 289h125zM385 427h-72l-26 289h125z" />
    <glyph glyph-name="numbersign" unicode="#" 
d="M508 307v-77h-112l-34 -230h-82l35 230h-113l-36 -230h-80l35 230h-110v77h121l19 114h-111v79h126l29 216h77l-31 -216h114l31 216h81l-31 -216h99v-79h-112l-15 -114h100zM344 421h-114l-17 -114h113z" />
    <glyph glyph-name="dollar" unicode="$" 
d="M160 230c2.66699 -38 9.66699 -65.166 21 -81.499s32.666 -29.166 63.999 -38.499v194c-38.667 11.333 -73.167 24.666 -103.5 39.999s-54.5 35.833 -72.5 61.5s-27 57.834 -27 96.501c0 114.667 67.667 181.667 203 201v81h60v-81c78.667 -8.66699 134 -37 166 -85
c13.333 -16.667 22.333 -33 27 -49s8 -41.333 10 -76h-129c-4 32 -11.5 55.333 -22.5 70s-28.167 24 -51.5 28v-173c72.667 -22 126.167 -47 160.5 -75s51.5 -74.333 51.5 -139c0 -45.333 -8.66699 -81.833 -26 -109.5s-41 -48.667 -71 -63s-68.333 -24.833 -115 -31.5v-107
h-60v107c-74 9.33301 -127.667 31.666 -161 66.999s-51.666 89.666 -54.999 162.999h131zM245 592.001c-49.333 -9.33301 -74 -35.001 -74 -77.001c0 -19.333 5.66699 -35.166 17 -47.499s30.333 -22.833 57 -31.5v156zM305 283l0.000976562 -173c52 8 78 37 78 87
c0 22.667 -5.83301 40.5 -17.5 53.5s-31.834 23.833 -60.501 32.5z" />
    <glyph glyph-name="percent" unicode="%" horiz-adv-x="898" 
d="M99 530c0 124 43.668 186 131.001 186c83.333 0 125 -58.333 125 -175c0 -65.333 -10.333 -113.5 -31 -144.5s-53.334 -46.5 -98.001 -46.5c-84.667 0 -127 60 -127 180zM178.001 528c0 -44 3.83301 -74.667 11.5 -92s21.167 -26 40.5 -26c30.667 0 46 41.333 46 124
c0 44.667 -3.33301 75.667 -10 93s-18.667 26 -36 26c-18.667 0 -32 -9 -40 -27s-12 -50.667 -12 -98zM585.001 703h68l-366 -703h-70zM515.001 167c0 124 43.667 186 131 186c83.333 0 125 -57.667 125 -173c0 -128.667 -43 -193 -129 -193c-84.667 0 -127 60 -127 180z
M594.001 167c0 -44.667 3.66797 -75.333 11.001 -92s21 -25 41 -25c16.667 0 28.5 8.83301 35.5 26.5s10.5 49.167 10.5 94.5c0 46 -3.33301 77.833 -10 95.5s-19.334 26.5 -38.001 26.5c-19.333 0 -32.5 -9.5 -39.5 -28.5s-10.5 -51.5 -10.5 -97.5z" />
    <glyph glyph-name="ampersand" unicode="&#x26;" horiz-adv-x="718" 
d="M208 399c-27.333 36.667 -45.166 64.5 -53.499 83.5s-12.5 41.5 -12.5 67.5c0 50 16.833 90.167 50.5 120.5s77.5 45.5 131.5 45.5c52 0 94.333 -14.667 127 -44s49 -67.333 49 -114c0 -67.333 -38 -126.333 -114 -177l102 -125c13.333 28 25 67.667 35 119h121
c-11.333 -86 -37.666 -157 -78.999 -213l129 -158h-164l-50 60c-38 -26 -71.333 -45.333 -100 -58s-60.334 -19 -95.001 -19c-67.333 0 -121.5 18.833 -162.5 56.5s-61.5 86.834 -61.5 147.501c0 47.333 12.667 86.666 38 117.999s61.666 61.333 108.999 90zM278 315
c-32.667 -23.333 -54.332 -42.8311 -64.999 -58.498s-16 -33.834 -16 -54.501c0 -26.667 9.5 -49.167 28.5 -67.5s42.5 -27.5 70.5 -27.5c20.667 0 39.167 3.66699 55.5 11s35.166 19.666 56.499 36.999zM316.002 464.002c27.333 18 45.668 33.167 55.001 45.5
s14 26.5 14 42.5c0 16.667 -5.33301 29.667 -16 39s-24.334 14 -41.001 14c-17.333 0 -31.5 -4.66699 -42.5 -14s-16.5 -22.333 -16.5 -39c0 -24 15.667 -53.333 47 -88z" />
    <glyph glyph-name="quotesingle" unicode="'" horiz-adv-x="247" 
d="M153 427h-72l-26 289h125z" />
    <glyph glyph-name="parenleft" unicode="(" horiz-adv-x="350" 
d="M219 716h109c-48 -79.333 -83.667 -155.5 -107 -228.5s-35 -152.167 -35 -237.5c0 -54 5.5 -107.333 16.5 -160s27.5 -105 49.5 -157s47.333 -101.333 76 -148h-109c-59.333 86 -103 164 -131 234s-42 147 -42 231c0 85.333 14 162.833 42 232.5s71.667 147.5 131 233.5z
" />
    <glyph glyph-name="parenright" unicode=")" horiz-adv-x="350" 
d="M109 -215l-109.001 0.000976562c49.333 81.333 85.333 157.333 108 228s34 149.667 34 237c0 153.333 -47.333 308.666 -142 465.999h109c39.333 -56.667 71 -107.667 95 -153s43.167 -94.166 57.5 -146.499s21.5 -107.833 21.5 -166.5
c0 -84.667 -14.667 -162.834 -44 -234.501s-72.666 -148.5 -129.999 -230.5z" />
    <glyph glyph-name="asterisk" unicode="*" horiz-adv-x="405" 
d="M145 615v101h92v-101l96 31l29 -87l-95 -35l59 -79l-72 -53l-64 83l-61 -83l-72 53l59 79l-96 35l30 87z" />
    <glyph glyph-name="plus" unicode="+" horiz-adv-x="596" 
d="M50 296v98h187v180h98v-180h189v-98h-189v-184h-98v184h-187z" />
    <glyph glyph-name="comma" unicode="," horiz-adv-x="293" 
d="M63 147h148.999v-127c0 -52 -12.333 -94.667 -37 -128s-62 -53 -112 -59v55c28.667 8.66699 49.334 21.5 62.001 38.5s19 41.5 19 73.5h-81v147z" />
    <glyph glyph-name="hyphen" unicode="-" horiz-adv-x="350" 
d="M26 333h276v-129h-276v129z" />
    <glyph glyph-name="period" unicode="." horiz-adv-x="293" 
d="M63 145h149v-145h-149v145z" />
    <glyph glyph-name="slash" unicode="/" horiz-adv-x="293" 
d="M188 716h84l-202 -918h-83z" />
    <glyph glyph-name="zero" unicode="0" 
d="M31 346c0 126 19.8311 219.166 59.498 279.499s101.5 90.5 185.5 90.5c159.333 0 239 -114 239 -342c0 -69.333 -5.83301 -132.166 -17.5 -188.499s-35.667 -103.5 -72 -141.5s-88.166 -57 -155.499 -57c-64 0 -113.667 17.167 -149 51.5s-59.166 78.333 -71.499 132
s-18.5 112.167 -18.5 175.5zM172.998 345.999c0 -46.667 1.33203 -83.5 3.99902 -110.5s7.33398 -51.5 14.001 -73.5c13.333 -36.667 41 -55 83 -55c36.667 0 62.5 18 77.5 54s22.5 100 22.5 192s-7 155.5 -21 190.5s-39.667 52.5 -77 52.5c-36 0 -60.667 -12.667 -74 -38
c-19.333 -34 -29 -104.667 -29 -212z" />
    <glyph glyph-name="one" unicode="1" 
d="M81 581c59.333 1.33301 103 9.16797 131 23.501s47.333 47.166 58 98.499h109v-703h-140v482h-158v99z" />
    <glyph glyph-name="two" unicode="2" 
d="M28 0c0 62 14.668 114.502 44.001 157.502s71.666 86.167 126.999 129.5s95.5 78.333 120.5 105s37.5 61 37.5 103c0 32 -7.5 56.833 -22.5 74.5s-36.833 26.5 -65.5 26.5c-34.667 0 -59.5 -10.667 -74.5 -32s-23.5 -57.333 -25.5 -108h-134
c0 48.667 4.83301 87.667 14.5 117s25.834 56 48.501 80c45.333 42 101.666 63 168.999 63c46 0 86.833 -9.33301 122.5 -28s63 -45.334 82 -80.001s28.5 -74.667 28.5 -120c0 -58 -14.5 -104.333 -43.5 -139s-72.833 -73.334 -131.5 -116.001s-100 -80 -124 -112h298v-121
h-471z" />
    <glyph glyph-name="three" unicode="3" 
d="M29 224h132.998c3.33301 -28.667 9 -51.334 17 -68.001s19.167 -29 33.5 -37s32.5 -12 54.5 -12c30 0 53.667 9.33301 71 28s26 43.667 26 75c0 38 -10.5 64.167 -31.5 78.5s-61.833 22.5 -122.5 24.5v101c52.667 0.666992 89.334 8.33398 110.001 23.001
s31 39.667 31 75c0 26.667 -7.66699 47.334 -23 62.001s-37 22 -65 22c-31.333 0 -54.166 -8.33301 -68.499 -25s-23.5 -45.667 -27.5 -87h-128c2 38.667 6.5 69.167 13.5 91.5s18.833 44.5 35.5 66.5c42 49.333 101.667 74 179 74c68 0 121.5 -17.667 160.5 -53
s58.5 -82.666 58.5 -141.999s-26 -106.666 -78 -141.999c66.667 -36.667 100 -91.334 100 -164.001c0 -68 -22 -123 -66 -165s-102.333 -63 -175 -63c-44 0 -83.5 7.83301 -118.5 23.5s-62.5 37.167 -82.5 64.5c-14 21.333 -23.333 41.666 -28 60.999
s-7.66699 48.666 -9 87.999z" />
    <glyph glyph-name="four" unicode="4" 
d="M22 302l274 401h175v-434h72v-118h-72v-151h-140v151h-309v151zM129 269h202v292z" />
    <glyph glyph-name="five" unicode="5" 
d="M31 190l136.001 7.00098c8.66699 -32.667 20.834 -55.834 36.501 -69.501s37.5 -20.5 65.5 -20.5c30.667 0 55.167 10.667 73.5 32s27.5 50.333 27.5 87c0 40.667 -8.66699 71.667 -26 93s-42.333 32 -75 32c-34.667 0 -66 -15.333 -94 -46l-122 8l52 386h381v-121h-285
l-26 -149c38.667 26.667 81 40 127 40c63.333 0 114.333 -20.5 153 -61.5s58 -95.833 58 -164.5c0 -77.333 -22.333 -139.333 -67 -186s-104.334 -70 -179.001 -70c-93.333 0 -160.333 32 -201 96c-9.33301 18 -15.833 32.5 -19.5 43.5s-8.83398 32.167 -15.501 63.5z" />
    <glyph glyph-name="six" unicode="6" 
d="M166 405c41.333 41.333 87.666 62.001 138.999 62.001c41.333 0 78 -9.5 110 -28.5s56.667 -45.833 74 -80.5s26 -74.334 26 -119.001c0 -50.667 -9.66699 -94.834 -29 -132.501s-46.833 -67 -82.5 -88s-77.5 -31.5 -125.5 -31.5c-80.667 0 -142 28.833 -184 86.5
s-63 141.834 -63 252.501c0 131.333 21.333 229.166 64 293.499s107.334 96.5 194.001 96.5c61.333 0 109 -15.167 143 -45.5s56.333 -77.166 67 -140.499h-137c-11.333 44 -37 66 -77 66c-44.667 0 -74.5 -18 -89.5 -54s-24.833 -81.667 -29.5 -137zM173 230.001
c0 -38 9.16699 -67.999 27.5 -89.999s42.833 -33 73.5 -33c32 0 56.667 10.667 74 32s26 51.666 26 90.999c0 36 -8.83301 64.667 -26.5 86s-42.167 32 -73.5 32c-30.667 0 -55.167 -10.5 -73.5 -31.5s-27.5 -49.833 -27.5 -86.5z" />
    <glyph glyph-name="seven" unicode="7" 
d="M39 699h495v-112c-46 -50.667 -87.333 -108.167 -124 -172.5s-65.667 -131.333 -87 -201s-35.666 -140.834 -42.999 -213.501h-142c1.33301 26 3.66602 51.833 6.99902 77.5s7 46.834 11 63.501s10.333 38.334 19 65.001c20.667 66.667 48.167 129.167 82.5 187.5
s76.833 119.166 127.5 182.499h-346v123z" />
    <glyph glyph-name="eight" unicode="8" 
d="M144 381c-60.667 22 -90.999 66.666 -90.999 133.999c0 60.667 20.333 109.334 61 146.001s94 55 160 55c66.667 0 120.167 -17.667 160.5 -53s60.5 -81.666 60.5 -138.999c0 -67.333 -30.667 -115 -92 -143c73.333 -32 110 -89 110 -171c0 -43.333 -10 -82 -30 -116
s-48.333 -60.333 -85 -79s-79.334 -28 -128.001 -28c-71.333 0 -129 20.167 -173 60.5s-66 93.166 -66 158.499c0 80 37.667 138.333 113 175zM175.001 211.999c0 -32.667 8.66797 -58.333 26.001 -77s41 -28 71 -28s54.5 9.16699 73.5 27.5s28.5 42.833 28.5 73.5
c0 32.667 -9.33301 58.667 -28 78s-43.334 29 -74.001 29c-30 0 -53.667 -9.33301 -71 -28s-26 -43.667 -26 -75zM188.002 512c0 -25.333 8.16699 -46.168 24.5 -62.501s36.833 -24.5 61.5 -24.5c26 0 46.667 7.66699 62 23s23 36 23 62c0 26.667 -7.66699 47.667 -23 63
s-36 23 -62 23c-24 0 -44.333 -7.66699 -61 -23s-25 -35.666 -25 -60.999z" />
    <glyph glyph-name="nine" unicode="9" 
d="M383 298c-25.333 -21.333 -48.6689 -36.833 -70.002 -46.5s-45.333 -14.5 -72 -14.5c-40.667 0 -77.167 9.5 -109.5 28.5s-57.166 45.833 -74.499 80.5s-26 74.667 -26 120c0 50 9.83301 93.833 29.5 131.5s47.334 66.834 83.001 87.501s76.834 31 123.501 31
c90.667 0 154.667 -32.333 192 -97s56 -145.334 56 -242.001c0 -130.667 -21.167 -228.334 -63.5 -293.001s-106.833 -97 -193.5 -97c-60 0 -107.5 15.333 -142.5 46s-56.833 77.334 -65.5 140.001h132c8.66699 -24 19.167 -41 31.5 -51s28.166 -15 47.499 -15
c44 0 73.833 17.5 89.5 52.5s26.5 81.167 32.5 138.5zM373.997 473c0 38 -8.83203 68 -26.499 90s-43.5 33 -77.5 33c-30 0 -53.667 -10.5 -71 -31.5s-26 -50.833 -26 -89.5c0 -35.333 9 -63.833 27 -85.5s42 -32.5 72 -32.5c31.333 0 56.166 10.333 74.499 31
s27.5 49 27.5 85z" />
    <glyph glyph-name="colon" unicode=":" horiz-adv-x="350" 
d="M90 145h147v-145h-147v145zM90 524h147v-145h-147v145z" />
    <glyph glyph-name="semicolon" unicode=";" horiz-adv-x="350" 
d="M90 524h147v-145h-147v145zM90 147h147.002v-127c0 -52 -12.333 -94.667 -37 -128s-61.334 -53 -110.001 -59v55c29.333 8.66699 50.166 21.5 62.499 38.5s18.5 41.5 18.5 73.5h-81v147z" />
    <glyph glyph-name="less" unicode="&#x3c;" horiz-adv-x="596" 
d="M524 107l-474 211v52l474 213v-77l-379 -162l379 -162v-75z" />
    <glyph glyph-name="equal" unicode="=" horiz-adv-x="596" 
d="M50 379v90h474v-90h-474zM50 221v92h474v-92h-474z" />
    <glyph glyph-name="greater" unicode="&#x3e;" horiz-adv-x="596" 
d="M50 583l476 -213v-52l-476 -211v75l379 162l-379 162v77z" />
    <glyph glyph-name="question" unicode="?" horiz-adv-x="618" 
d="M357 215l-130.998 -0.00195312c0 38 2 66.667 6 86s11.333 36.5 22 51.5s25.334 29.5 44.001 43.5c37.333 28.667 60.833 50.334 70.5 65.001s14.5 34.667 14.5 60c0 26.667 -8 48.334 -24 65.001s-38.667 25 -68 25c-32.667 0 -57 -9 -73 -27s-26 -47.667 -30 -89h-138
c2 44.667 7.33301 79.5 16 104.5s23.334 47.167 44.001 66.5c41.333 42.667 101.666 64 180.999 64c76 0 135.667 -18.667 179 -56s65 -88.333 65 -153c0 -38.667 -7.33301 -69.167 -22 -91.5s-36.834 -44.833 -66.501 -67.5s-51.834 -43.667 -66.501 -63
s-22.334 -47.333 -23.001 -84zM217.002 144.998h149v-145h-149v145z" />
    <glyph glyph-name="at" unicode="@" horiz-adv-x="977" 
d="M701 142l89.999 -0.000976562c-42 -54 -85.167 -93.333 -129.5 -118s-98.5 -37 -162.5 -37c-67.333 0 -130 16.333 -188 49s-103.5 77.334 -136.5 134.001s-49.5 119 -49.5 187c0 68.667 16.333 131.667 49 189s77.667 102.333 135 135s120 49 188 49
c47.333 0 90.833 -7.66699 130.5 -23s75 -37.333 106 -66s55.167 -61.5 72.5 -98.5s26 -76.833 26 -119.5c0 -75.333 -23.333 -139 -70 -191c-22 -24 -50 -44.667 -84 -62s-63 -26 -87 -26c-38 0 -57 17 -57 51c-28.667 -32 -62.667 -48 -102 -48
c-46.667 0 -84.667 16 -114 48s-44 73.667 -44 125c0 40.667 8.83301 78.167 26.5 112.5s42.167 61.333 73.5 81s65.666 29.5 102.999 29.5c50.667 0 89 -18.333 115 -55l10 51h92l-46 -278c-2.66699 -14.667 -4 -25 -4 -31c0 -8.66699 5 -13 15 -13
c27.333 0 51.833 18.667 73.5 56s32.5 78.666 32.5 123.999c0 50.667 -11.5 95.667 -34.5 135s-54.667 69.666 -95 90.999s-87.166 32 -140.499 32c-86.667 0 -158 -27.667 -214 -83s-84 -126.333 -84 -213c0 -57.333 12.833 -108.666 38.5 -153.999
s61.834 -80.666 108.501 -105.999s100.667 -38 162 -38c70.667 0 135.667 27 195 81zM466.999 255.999c28 0 51.332 9.99902 69.999 29.999s28 45 28 75c0 24.667 -7.16699 44.5 -21.5 59.5s-33.5 22.5 -57.5 22.5c-25.333 0 -47.666 -10.5 -66.999 -31.5
s-29 -45.833 -29 -74.5c0 -23.333 7.16699 -42.666 21.5 -57.999s32.833 -23 55.5 -23z" />
    <glyph glyph-name="A" unicode="A" horiz-adv-x="718" 
d="M18 0l254 716h168l250 -716h-158l-50 151h-261l-48 -151h-155zM263 270h180l-90 282z" />
    <glyph glyph-name="B" unicode="B" horiz-adv-x="718" 
d="M66 716h313c49.333 0 86.5 -2.66699 111.5 -8s47.5 -15.666 67.5 -30.999c46 -34.667 69 -83.667 69 -147c0 -64.667 -27 -114.334 -81 -149.001c70 -28.667 105 -82.667 105 -162c0 -72 -26.333 -128.333 -79 -169c-23.333 -18.667 -49.5 -31.667 -78.5 -39
s-68.833 -11 -119.5 -11h-308v716zM213 587v-155h148c44.667 0 75.167 5.5 91.5 16.5s24.5 31.5 24.5 61.5c0 28.667 -8.33301 48.667 -25 60s-46 17 -88 17h-151zM213 313v-184h144c54.667 0 92.167 6.5 112.5 19.5s30.5 37.167 30.5 72.5c0 36.667 -9.5 61.167 -28.5 73.5
s-56.5 18.5 -112.5 18.5h-146z" />
    <glyph glyph-name="C" unicode="C" horiz-adv-x="718" 
d="M670 478h-146.999c-10.667 42 -27.834 72.833 -51.501 92.5s-55.167 29.5 -94.5 29.5c-58.667 0 -104.334 -21.333 -137.001 -64s-49 -103.667 -49 -183c0 -50.667 7.16699 -93.5 21.5 -128.5s34.833 -61.833 61.5 -80.5s58 -28 94 -28c78 0 129.667 44.667 155 134h147
c-4.66699 -32.667 -11 -59.167 -19 -79.5s-20 -41.5 -36 -63.5c-58.667 -80 -141.667 -120 -249 -120c-100 0 -179.5 33.167 -238.5 99.5s-88.5 155.166 -88.5 266.499c0 76.667 13.667 143.334 41 200.001s65.833 100.334 115.5 131.001s107.834 46 174.501 46
c83.333 0 152.5 -22.833 207.5 -68.5s85.833 -106.834 92.5 -183.501z" />
    <glyph glyph-name="D" unicode="D" horiz-adv-x="718" 
d="M66 716l277.999 -0.000976562c78 0 137 -10 177 -30c52 -24.667 89.833 -66.667 113.5 -126s35.5 -122.666 35.5 -189.999c0 -54 -6.83301 -103.667 -20.5 -149s-33 -84.5 -58 -117.5s-54.833 -58.167 -89.5 -75.5c-39.333 -18.667 -95.666 -28 -168.999 -28h-267v716z
M212.999 586.999v-457.999h116c29.333 0 51.333 1.33301 66 4s29 8.66699 43 18c25.333 17.333 44.833 44.666 58.5 81.999s20.5 81 20.5 131c0 76 -14 132.667 -42 170c-14 18.667 -32 32.167 -54 40.5s-52.667 12.5 -92 12.5h-116z" />
    <glyph glyph-name="E" unicode="E" horiz-adv-x="675" 
d="M66 716h515v-129h-368v-153h337v-121h-337v-184h383v-129h-530v716z" />
    <glyph glyph-name="F" unicode="F" horiz-adv-x="618" 
d="M66 716h503v-129h-356v-164h311v-119h-311v-304h-147v716z" />
    <glyph glyph-name="G" unicode="G" horiz-adv-x="788" 
d="M403 265l-0.000976562 121.001h296v-386h-103l-13 90c-28 -34.667 -59.667 -60.5 -95 -77.5s-76 -25.5 -122 -25.5c-95.333 0 -173.666 34.167 -234.999 102.5s-92 156.166 -92 263.499c0 74.667 14.5 140.5 43.5 197.5s70.167 101.167 123.5 132.5
s114.666 47 183.999 47c86 0 156.167 -21 210.5 -63s87.166 -101.667 98.499 -179h-153c-23.333 74.667 -74.666 112 -153.999 112c-62 0 -111 -22 -147 -66s-54 -103 -54 -177c0 -72.667 18.167 -131 54.5 -175s84.5 -66 144.5 -66c94.667 0 152.334 49.667 173.001 149
h-160z" />
    <glyph glyph-name="H" unicode="H" horiz-adv-x="718" 
d="M66 716h147v-278h284v278h147v-716h-147v309h-284v-309h-147v716z" />
    <glyph glyph-name="I" unicode="I" horiz-adv-x="293" 
d="M63 716h147v-716h-147v716z" />
    <glyph glyph-name="J" unicode="J" 
d="M31 269l139.999 0.000976562v-35c0 -42 6 -72.167 18 -90.5s31.667 -27.5 59 -27.5c34.667 0 57.5 10.167 68.5 30.5s16.5 61.166 16.5 122.499v447h147v-420c0 -63.333 -4.5 -117 -13.5 -161s-29.5 -79.667 -61.5 -107s-80 -41 -144 -41
c-89.333 0 -153.666 25.667 -192.999 77c-24.667 36 -37 95 -37 177v28z" />
    <glyph glyph-name="K" unicode="K" horiz-adv-x="718" 
d="M66 716h147v-308l291 308h186l-294 -296l312 -420h-187l-236 313l-72 -72v-241h-147v716z" />
    <glyph glyph-name="L" unicode="L" horiz-adv-x="618" 
d="M66 716h147v-587h348v-129h-495v716z" />
    <glyph glyph-name="M" unicode="M" horiz-adv-x="841" 
d="M66 716l227.001 -0.000976562l90 -411c3.33301 -14.667 7.16602 -34.167 11.499 -58.5s9.5 -50.166 15.5 -77.499c14 78 22.667 123.333 26 136l94 411h221v-716h-138v591l-133 -591h-143l-131 591v-591h-140v716z" />
    <glyph glyph-name="N" unicode="N" horiz-adv-x="718" 
d="M66 0v716h146l292 -499v499h140v-716h-140l-298 499v-499h-140z" />
    <glyph glyph-name="O" unicode="O" horiz-adv-x="788" 
d="M39 355c0 75.333 14.167 141.168 42.5 197.501s68.833 100 121.5 131s113.334 46.5 182.001 46.5c50 0 96 -8.66699 138 -26s77.667 -41.666 107 -72.999s52.166 -69.333 68.499 -114s24.5 -94.334 24.5 -149.001c0 -73.333 -14 -138.833 -42 -196.5
s-67.833 -102.834 -119.5 -135.501s-110.5 -49 -176.5 -49c-68.667 0 -129.167 15.5 -181.5 46.5s-92.833 74.167 -121.5 129.5s-43 119.333 -43 192zM191 366.002c0 -69.333 15.1689 -128.333 45.502 -177s78.5 -73 144.5 -73c58.667 0 105.167 22.667 139.5 68
s51.5 105.333 51.5 180c0 74 -16.833 131.833 -50.5 173.5s-79.834 62.5 -138.501 62.5c-37.333 0 -70.333 -9.33301 -99 -28s-50.834 -45.5 -66.501 -80.5s-24.5 -76.833 -26.5 -125.5z" />
    <glyph glyph-name="P" unicode="P" horiz-adv-x="675" 
d="M66 716h295c71.333 0 123.333 -12.333 156 -37c58.667 -42 88 -105.667 88 -191s-28 -150 -84 -194c-21.333 -14 -44.5 -24.167 -69.5 -30.5s-57.167 -9.5 -96.5 -9.5h-142v-254h-147v716zM213 587l0.000976562 -204h115c45.333 0 77.666 7.66699 96.999 23
s29 40.666 29 75.999c0 36.667 -9.66699 63.334 -29 80.001s-51.333 25 -96 25h-116z" />
    <glyph glyph-name="P" horiz-adv-x="675" 
d="M66 716h295c71.333 0 123.333 -12.333 156 -37c58.667 -42 88 -105.667 88 -191s-28 -150 -84 -194c-21.333 -14 -44.5 -24.167 -69.5 -30.5s-57.167 -9.5 -96.5 -9.5h-142v-254h-147v716zM213 587l0.000976562 -204h115c45.333 0 77.666 7.66699 96.999 23
s29 40.666 29 75.999c0 36.667 -9.66699 63.334 -29 80.001s-51.333 25 -96 25h-116z" />
    <glyph glyph-name="Q" unicode="Q" horiz-adv-x="788" 
d="M648 112l77 -76.999l-77 -83l-83 83c-48.667 -32 -108.667 -48 -180 -48c-68 0 -128.333 15.167 -181 45.5s-93.334 73.333 -122.001 129s-43 120.834 -43 195.501c0 73.333 14.167 138.333 42.5 195s68.5 100.5 120.5 131.5s112.333 46.5 181 46.5
c50.667 0 96.834 -8.5 138.501 -25.5s77.5 -41.333 107.5 -73s53.167 -69.834 69.5 -114.501s24.5 -94.334 24.5 -149.001c0 -102 -25 -187.333 -75 -256zM539 212.001c22 44 32.999 94.667 32.999 152c0 74 -16.833 131.833 -50.5 173.5s-79.834 62.5 -138.501 62.5
c-59.333 0 -106.166 -21.833 -140.499 -65.5s-51.5 -103.5 -51.5 -179.5c0 -74.667 17.167 -133.167 51.5 -175.5s80.5 -63.5 138.5 -63.5c30.667 0 58.334 5.33301 83.001 16l-68 67l73 77z" />
    <glyph glyph-name="R" unicode="R" horiz-adv-x="718" 
d="M66 716h314.999c52 0 90.167 -2.83301 114.5 -8.5s46.833 -16.5 67.5 -32.5c49.333 -37.333 74 -92.333 74 -165c0 -41.333 -7.5 -73.833 -22.5 -97.5s-41.5 -46.5 -79.5 -68.5c28 -12 47 -25.333 57 -40c12 -16 19.333 -35.833 22 -59.5s4 -54.834 4 -93.501
c0.666992 -0.666992 1.16699 -1.5 1.5 -2.5s0.5 -2.16699 0.5 -3.5c0 -35.333 2 -65.166 6 -89.499s12.333 -42.833 25 -55.5h-163c-10 29.333 -15.667 67.333 -17 114c-1.33301 50.667 -3.16602 85.5 -5.49902 104.5s-12 34.5 -29 46.5s-45.833 18 -86.5 18h-137v-283h-147
v716zM212.999 587v-181.999h140c50.667 0 85.5 6.33301 104.5 19s28.5 37 28.5 73c0 35.333 -9.33301 59.166 -28 71.499s-53.667 18.5 -105 18.5h-140z" />
    <glyph glyph-name="S" unicode="S" horiz-adv-x="675" 
d="M39 224l140.998 0.000976562c6 -27.333 15.667 -49.833 29 -67.5s30.166 -30.334 50.499 -38.001s46.166 -11.5 77.499 -11.5c40.667 0 72.834 7.5 96.501 22.5s35.5 35.167 35.5 60.5c0 26 -19.667 46 -59 60l-219 85c-92 34.667 -138 93.667 -138 177
c0 66 23.667 118.833 71 158.5s111.333 59.5 192 59.5c87.333 0 154.833 -20 202.5 -60s72.834 -97 75.501 -171h-143c-6 38.667 -20 67 -42 85s-52.333 27 -91 27c-35.333 0 -64.333 -8 -87 -24s-34 -35.667 -34 -59c0 -24 16 -42.333 48 -55l224 -85
c48.667 -18.667 85.334 -40.834 110.001 -66.501s37 -62.834 37 -111.501c0 -33.333 -7.66699 -65.166 -23 -95.499s-37.666 -56.166 -66.999 -77.499c-24.667 -17.333 -52 -30 -82 -38s-66.333 -12 -109 -12c-118.667 0 -203.334 34.333 -254.001 103
c-13.333 18 -22.666 36.167 -27.999 54.5s-10 44.833 -14 79.5z" />
    <glyph glyph-name="T" unicode="T" horiz-adv-x="618" 
d="M13 716h574v-129h-212v-587h-147v587h-215v129z" />
    <glyph glyph-name="U" unicode="U" horiz-adv-x="718" 
d="M497 716l147 -0.00195312v-442c0 -48 -3.5 -85.667 -10.5 -113s-18.833 -52.333 -35.5 -75c-47.333 -66 -126 -99 -236 -99c-67.333 0 -122.5 9.83301 -165.5 29.5s-75.5 50.834 -97.5 93.501s-33 97.334 -33 164.001v442h147v-440c0 -58 11 -99.167 33 -123.5
s57.667 -36.5 107 -36.5c52 0 89 12 111 36s33 65.333 33 124v440z" />
    <glyph glyph-name="V" unicode="V" horiz-adv-x="675" 
d="M13 716h158l122 -407c8 -29.333 14.333 -53.333 19 -72l16 -62l20 77c7.33301 28.667 12 47.667 14 57l129 407h151l-250 -716h-138z" />
    <glyph glyph-name="W" unicode="W" horiz-adv-x="944" 
d="M13 716l153.998 -0.000976562l92 -398c12.667 -74 20.667 -118.667 24 -134c2.66699 14.667 6 35 10 61l11 73l75 398h167l76 -403c2.66699 -15.333 5.83398 -36.166 9.50098 -62.499l10.5 -73.5c2.66699 12 6.83398 32 12.501 60l15.5 76l97 403h147l-204 -716h-145
l-83 408c-8 51.333 -16 97 -24 137c-2 -19.333 -8.66699 -65 -20 -137l-83 -408h-142z" />
    <glyph glyph-name="X" unicode="X" horiz-adv-x="675" 
d="M13 0l228 362l-219 354h168l136 -238l136 238h164l-219 -348l235 -368h-173l-143 259l-149 -259h-164z" />
    <glyph glyph-name="Y" unicode="Y" horiz-adv-x="675" 
d="M13 716h165l155 -308l149 308h160l-237 -447v-269h-147v269z" />
    <glyph glyph-name="Z" unicode="Z" horiz-adv-x="618" 
d="M31 121l361 466h-352v129h529v-122l-361 -465h361v-129h-538v121z" />
    <glyph glyph-name="bracketleft" unicode="[" horiz-adv-x="350" 
d="M68 716h236v-122h-96v-675h96v-121h-236v918z" />
    <glyph glyph-name="backslash" unicode="\" horiz-adv-x="293" 
d="M86 716l201 -918h-85l-200 918h84z" />
    <glyph glyph-name="bracketright" unicode="]" horiz-adv-x="350" 
d="M259 -202h-235v121h96v675h-96v122h235v-918z" />
    <glyph glyph-name="asciicircum" unicode="^" horiz-adv-x="596" 
d="M202 499h-60l117 219h57l116 -219h-62l-83 149z" />
    <glyph glyph-name="underscore" unicode="_" 
d="M0 -86h545v-76h-545v76z" />
    <glyph glyph-name="underscore" unicode="&#xad;" 
d="M0 -86h545v-76h-545v76z" />
    <glyph glyph-name="grave" unicode="`" horiz-adv-x="350" 
d="M204 745l65 -145h-96l-114 145h145z" />
    <glyph glyph-name="a" unicode="a" 
d="M48 355c4.66699 121.333 79.999 182.002 225.999 182.002c108.667 0 177.334 -28 206.001 -84c7.33301 -11.333 12.333 -24.833 15 -40.5s4 -38.5 4 -68.5v-263c0 -35.333 8.33301 -62.333 25 -81h-141c-14.667 19.333 -22.667 42.666 -24 69.999
c-28 -32 -54.333 -53.833 -79 -65.5s-56 -17.5 -94 -17.5c-46 0 -83.333 14.667 -112 44s-43 67 -43 113c0 44.667 11.5 80.167 34.5 106.5s58.167 44.5 105.5 54.5c55.333 12.667 117.333 21.334 186 26.001c0 35.333 -4.83301 60.166 -14.5 74.499s-32.5 21.5 -68.5 21.5
c-30 0 -52.5 -5.33301 -67.5 -16s-24.833 -29.334 -29.5 -56.001h-129zM358.999 245.002c-60.667 -9.33301 -94.001 -15.001 -100.001 -17.001c-34 -6.66699 -57.167 -15.167 -69.5 -25.5s-18.5 -26.166 -18.5 -47.499c0 -16.667 6.83301 -30.667 20.5 -42
s30.834 -17 51.501 -17c44 0 74.333 13 91 39s25 62.667 25 110z" />
    <glyph glyph-name="b" unicode="b" horiz-adv-x="618" 
d="M66 716h140v-273c24 33.333 48.167 57.333 72.5 72s52.833 22 85.5 22c62 0 111.667 -24.167 149 -72.5s56 -113.166 56 -194.499c0 -56.667 -8.66699 -106.334 -26 -149.001s-41.833 -75.667 -73.5 -99s-69.167 -35 -112.5 -35c-31.333 0 -59 8 -83 24
s-46.667 42.333 -68 79v-90h-140v716zM427 263c0 48.667 -9.33301 86.667 -28 114s-45 41 -79 41c-73.333 0 -110 -51.667 -110 -155c0 -104 36.667 -156 110 -156c71.333 0 107 52 107 156z" />
    <glyph glyph-name="c" unicode="c" 
d="M515 337l-137.999 0.00195312c-7.33301 33.333 -18 56.666 -32 69.999s-34 20 -60 20c-36 0 -63.667 -14.5 -83 -43.5s-29 -69.833 -29 -122.5c0 -110 36.667 -165 110 -165c25.333 0 45.333 7.66699 60 23s26 40.666 34 75.999h138c-10 -68 -35.333 -119.667 -76 -155
s-95 -53 -163 -53c-51.333 0 -95.333 10.667 -132 32s-64.667 52.5 -84 93.5s-29 90.5 -29 148.5c0 56 9.83301 105 29.5 147s48.167 74 85.5 96s80.666 33 129.999 33c71.333 0 127.5 -17.167 168.5 -51.5s64.5 -83.833 70.5 -148.5z" />
    <glyph glyph-name="d" unicode="d" horiz-adv-x="618" 
d="M394 447l-0.000976562 269.001h140v-716h-140v92c-30 -70 -80.333 -105 -151 -105c-42 0 -79 11.167 -111 33.5s-56.833 54 -74.5 95s-26.5 88.833 -26.5 143.5c0 54 9.16699 102.167 27.5 144.5s43.833 75.166 76.5 98.499s70.334 35 113.001 35c34.667 0 63 -7 85 -21
s42.333 -37 61 -69zM172.999 261.001c0 -46 10 -83.168 30 -111.501s46.667 -42.5 80 -42.5c32.667 0 58.667 14.333 78 43s29 67 29 115c0 46.667 -9.83301 83.834 -29.5 111.501s-45.5 41.5 -77.5 41.5c-34 0 -60.833 -14.333 -80.5 -43s-29.5 -66.667 -29.5 -114z" />
    <glyph glyph-name="e" unicode="e" 
d="M175 236c2 -31.333 6.99902 -57.501 14.999 -78.501s19.5 -36.5 34.5 -46.5s32.833 -15 53.5 -15c19.333 0 34.833 4 46.5 12s23.834 23 36.501 45h143c-22.667 -56 -52.5 -97.667 -89.5 -125s-83.833 -41 -140.5 -41c-76.667 0 -136.334 24.167 -179.001 72.5
s-64 114.833 -64 199.5c0 88 21.333 156.333 64 205s102.334 73 179.001 73c78 0 137.667 -23.5 179 -70.5s62 -115.5 62 -205.5c0 -9.33301 -0.666992 -17.666 -2 -24.999h-338zM174.999 325.999h192.999c-2.66699 32 -12.167 56.833 -28.5 74.5s-38.833 26.5 -67.5 26.5
c-57.333 0 -89.666 -33.667 -96.999 -101z" />
    <glyph glyph-name="f" unicode="f" horiz-adv-x="350" 
d="M13 524l75 0.00195312c0 70 10 120 30 150s63 45 129 45c22 0 44 -1 66 -3v-112c-10.667 -2 -23.667 -3.66699 -39 -5s-25.833 -2.83301 -31.5 -4.5s-9.5 -5.33398 -11.5 -11.001s-3 -14.834 -3 -27.501v-32h87v-101h-87v-423h-140v423h-75v101z" />
    <glyph glyph-name="g" unicode="g" horiz-adv-x="618" 
d="M42 -57l148.999 0.00195312c8.66699 -18.667 19.334 -31.667 32.001 -39s30.334 -11 53.001 -11c45.333 0 76.333 12.167 93 36.5s25 69.166 25 134.499v22c-15.333 -30 -35.333 -52.5 -60 -67.5s-55 -22.5 -91 -22.5c-60.667 0 -111.167 24.667 -151.5 74
s-60.5 111.333 -60.5 186c0 85.333 19.167 153.5 57.5 204.5s89.833 76.5 154.5 76.5c35.333 0 64.833 -7.16699 88.5 -21.5s44.5 -37.833 62.5 -70.5v79h140v-447c0 -58.667 -1.83301 -99.834 -5.5 -123.501s-11.834 -46.167 -24.501 -67.5
c-38 -67.333 -114 -101 -228 -101c-64.667 0 -117.167 11.667 -157.5 35s-65.833 64.333 -76.5 123zM172.999 265.002c0 -46.667 9.83301 -83.166 29.5 -109.499s46.5 -39.5 80.5 -39.5s60.333 13.167 79 39.5s28 63.5 28 111.5c0 47.333 -9.5 84.333 -28.5 111
s-46.167 40 -81.5 40c-34 0 -60.333 -13.333 -79 -40s-28 -64.334 -28 -113.001z" />
    <glyph glyph-name="h" unicode="h" horiz-adv-x="618" 
d="M66 716h139.998v-262c26 30.667 50 52.167 72 64.5s50 18.5 84 18.5c33.333 0 64 -7.33301 92 -22s48.333 -35 61 -61c16 -26 24 -65.667 24 -119v-335h-140v309c0 38 -6.5 65.667 -19.5 83s-34.5 26 -64.5 26c-20.667 0 -39.167 -4.66699 -55.5 -14
s-28.166 -22 -35.499 -38c-7.33301 -12 -12.166 -27.667 -14.499 -47s-3.5 -51 -3.5 -95v-224h-140v716z" />
    <glyph glyph-name="i" unicode="i" horiz-adv-x="293" 
d="M66 524h140v-524h-140v524zM66 716h140v-129h-140v129z" />
    <glyph glyph-name="i" unicode="&#x456;" horiz-adv-x="293" 
d="M66 524h140v-524h-140v524zM66 716h140v-129h-140v129z" />
    <glyph glyph-name="i" unicode="&#xb3;" horiz-adv-x="293" 
d="M66 524h140v-524h-140v524zM66 716h140v-129h-140v129z" />
    <glyph glyph-name="j" unicode="j" horiz-adv-x="293" 
d="M6 -101c0.666992 0 2.33203 -0.668945 4.99902 -2.00195s5 -2 7 -2c20.667 0 33.834 3.83301 39.501 11.5s8.5 22.834 8.5 45.501v572h140v-537c0 -53.333 -1.83301 -90.166 -5.5 -110.499s-11.5 -36.833 -23.5 -49.5c-26 -28 -65.333 -42 -118 -42
c-6 0.666992 -12.167 1.16699 -18.5 1.5s-17.833 0.5 -34.5 0.5v112zM65.998 586.998v129h140v-129h-140z" />
    <glyph glyph-name="k" unicode="k" 
d="M66 716h140v-396l173 204h166l-195 -204l195 -320h-166l-116 230l-57 -61v-169h-140v716z" />
    <glyph glyph-name="l" unicode="l" horiz-adv-x="293" 
d="M66 716h140v-716h-140v716z" />
    <glyph glyph-name="m" unicode="m" horiz-adv-x="898" 
d="M66 524l140.001 -0.000976562v-73c25.333 32.667 48.5 55.167 69.5 67.5s46.167 18.5 75.5 18.5c68.667 0 113.667 -30 135 -90c23.333 32 46.833 55 70.5 69s51.5 21 83.5 21c54 0 95.167 -17 123.5 -51s42.5 -82 42.5 -144v-342h-140v305
c0 40.667 -5.5 69.667 -16.5 87s-30.167 26 -57.5 26c-30.667 0 -52.667 -11.167 -66 -33.5s-20 -60.833 -20 -115.5v-269h-140v313c0 38.667 -5.33301 65.834 -16 81.501s-29.334 23.5 -56.001 23.5c-31.333 0 -53.833 -11.333 -67.5 -34s-20.5 -60 -20.5 -112v-272h-140
v524z" />
    <glyph glyph-name="n" unicode="n" horiz-adv-x="618" 
d="M66 524l140 0.000976562v-79c24 34 47.833 57.833 71.5 71.5s52.5 20.5 86.5 20.5c36.667 0 70.167 -9.33301 100.5 -28s50.833 -42.334 61.5 -71.001c8.66699 -26.667 13 -64 13 -112v-326h-140v315c0 35.333 -6.66699 61.333 -20 78s-34.333 25 -63 25
c-73.333 0 -110 -50.333 -110 -151v-267h-140v524z" />
    <glyph glyph-name="o" unicode="o" horiz-adv-x="618" 
d="M31 263c0 54.667 10.832 102.832 32.499 144.499s53.334 73.667 95.001 96s88.834 33.5 141.501 33.5c53.333 0 100.666 -11.167 141.999 -33.5s72.833 -54 94.5 -95s32.5 -90.167 32.5 -147.5c0 -84 -24 -150.667 -72 -200s-113.667 -74 -197 -74
c-82.667 0 -148.167 24.833 -196.5 74.5s-72.5 116.834 -72.5 201.501zM172.999 262.998c0 -51.333 11.333 -91.999 34 -121.999s53.667 -45 93 -45s70.333 14.667 93 44s34 69.666 34 120.999c0 50.667 -11.333 91 -34 121s-53.667 45 -93 45s-70.333 -14.667 -93 -44
s-34 -69.333 -34 -120z" />
    <glyph glyph-name="p" unicode="p" horiz-adv-x="618" 
d="M66 524l140 -0.000976562v-71c26 30 51.167 51.5 75.5 64.5s51.833 19.5 82.5 19.5c64.667 0 115 -23.833 151 -71.5s54 -114.5 54 -200.5c0 -56 -8.83301 -105.167 -26.5 -147.5s-42.667 -74.666 -75 -96.999s-70.5 -33.5 -114.5 -33.5
c-31.333 0 -58.5 6.66699 -81.5 20s-44.833 36 -65.5 68v-277h-140v726zM316 417.999c-36.667 0 -64.834 -13.5 -84.501 -40.5s-29.5 -65.833 -29.5 -116.5c0 -50 9.83301 -88.167 29.5 -114.5s47.834 -39.5 84.501 -39.5c35.333 0 62.666 13.333 81.999 40
s29 64.667 29 114c0 50 -9.66699 88.667 -29 116s-46.666 41 -81.999 41z" />
    <glyph glyph-name="q" unicode="q" horiz-adv-x="618" 
d="M394 -202l-0.00292969 266c-19.333 -27.333 -40.666 -47 -63.999 -59s-51 -18 -83 -18c-65.333 0 -117.666 24 -156.999 72s-59 113 -59 195c0 84 19.833 152.167 59.5 204.5s91.834 78.5 156.501 78.5c34 0 62.5 -7 85.5 -21s43.5 -37.667 61.5 -71v79h140v-726h-140z
M172.997 261c0 -102.667 37.333 -154 112 -154c72.667 0 109 51.333 109 154c0 104.667 -36.333 157 -109 157c-36.667 0 -64.5 -13.333 -83.5 -40s-28.5 -65.667 -28.5 -117z" />
    <glyph glyph-name="r" unicode="r" horiz-adv-x="405" 
d="M66 524h139.995v-82c16.667 30 36.834 53.333 60.501 70s47.834 25 72.501 25h5c5.33301 0 9.83301 -0.166992 13.5 -0.5s7.83398 -0.833008 12.501 -1.5v-141c-7.33301 0.666992 -14.166 1.16699 -20.499 1.5s-14.166 0.5 -23.499 0.5c-80 0 -120 -43.667 -120 -131
v-265h-140v524z" />
    <glyph glyph-name="s" unicode="s" 
d="M31 171l140.001 -0.000976562c6 -27.333 17.333 -46.666 34 -57.999s41.667 -17 75 -17c28.667 0 51.5 4.33301 68.5 13s25.5 20.667 25.5 36c0 12.667 -3.5 21.5 -10.5 26.5s-23.833 11.5 -50.5 19.5l-155 54c-72 24 -108 65 -108 123
c0 49.333 20.833 89.833 62.5 121.5s94.834 47.5 159.501 47.5c46 0 86.5 -7.83301 121.5 -23.5s60.167 -37.834 75.5 -66.501c11.333 -17.333 20.666 -45.666 27.999 -84.999h-136c-4 24 -12.5 40.833 -25.5 50.5s-34.167 14.5 -63.5 14.5c-27.333 0 -48.833 -4 -64.5 -12
s-23.5 -19.333 -23.5 -34c0 -13.333 7.33301 -22 22 -26l215 -70c28.667 -10 51.5 -26 68.5 -48s25.5 -47.667 25.5 -77c0 -32.667 -12.5 -64.167 -37.5 -94.5s-55.5 -51.5 -91.5 -63.5c-30 -10 -67.333 -15 -112 -15c-76.667 0 -135.834 16 -177.501 48
s-63.5 77.333 -65.5 136z" />
    <glyph glyph-name="s" 
d="M31 171l140.001 -0.000976562c6 -27.333 17.333 -46.666 34 -57.999s41.667 -17 75 -17c28.667 0 51.5 4.33301 68.5 13s25.5 20.667 25.5 36c0 12.667 -3.5 21.5 -10.5 26.5s-23.833 11.5 -50.5 19.5l-155 54c-72 24 -108 65 -108 123
c0 49.333 20.833 89.833 62.5 121.5s94.834 47.5 159.501 47.5c46 0 86.5 -7.83301 121.5 -23.5s60.167 -37.834 75.5 -66.501c11.333 -17.333 20.666 -45.666 27.999 -84.999h-136c-4 24 -12.5 40.833 -25.5 50.5s-34.167 14.5 -63.5 14.5c-27.333 0 -48.833 -4 -64.5 -12
s-23.5 -19.333 -23.5 -34c0 -13.333 7.33301 -22 22 -26l215 -70c28.667 -10 51.5 -26 68.5 -48s25.5 -47.667 25.5 -77c0 -32.667 -12.5 -64.167 -37.5 -94.5s-55.5 -51.5 -91.5 -63.5c-30 -10 -67.333 -15 -112 -15c-76.667 0 -135.834 16 -177.501 48
s-63.5 77.333 -65.5 136z" />
    <glyph glyph-name="t" unicode="t" horiz-adv-x="350" 
d="M13 524h68v135h138v-135h86v-99h-86v-280c0 -16 1.5 -27.167 4.5 -33.5s8.66699 -10.5 17 -12.5s23.833 -3 46.5 -3h18v-105c-36 -2.66699 -63 -4 -81 -4c-58 0 -96.333 12.5 -115 37.5s-28 67.833 -28 128.5v272h-68v99z" />
    <glyph glyph-name="u" unicode="u" horiz-adv-x="618" 
d="M61 524h139.999v-305c0 -40.667 6.33301 -69.5 19 -86.5s35 -25.5 67 -25.5c43.333 0 72 15 86 45s21 69.333 21 118v254h140v-524h-140v81c-20 -33.333 -42 -57.333 -66 -72s-54.333 -22 -91 -22c-35.333 0 -67.166 8.66699 -95.499 26s-48.5 39.333 -60.5 66
c-13.333 26 -20 69 -20 129v316z" />
    <glyph glyph-name="v" unicode="v" 
d="M13 524h149l86 -292c8 -26 16 -59.333 24 -100c4.66699 18.667 9.66699 37 15 55s9 33 11 45l87 292h149l-190 -524h-145z" />
    <glyph glyph-name="w" unicode="w" horiz-adv-x="788" 
d="M13 524h145.001l44 -195l9.5 -45.5c3 -14.333 6.16699 -30.833 9.5 -49.5l18 -98l15 98c2 12 4.33301 26.833 7 44.5l8 50.5l36 195h153l39 -195l9 -53c3.33301 -19.333 5.66602 -33.333 6.99902 -42l17 -98l16 98c3.33301 12.667 6.83301 27.667 10.5 45l10.5 50l44 195
h140l-149 -524h-146l-40 190c-4 24.667 -9.33301 54.5 -16 89.5l-19 99.5c-10 -48.667 -21.667 -111.667 -35 -189l-44 -190h-144z" />
    <glyph glyph-name="x" unicode="x" 
d="M272 173c-10 -25.333 -24.667 -54.333 -44 -87l-51 -86h-164l177 265l-166 259h166c23.333 -40 40.833 -71 52.5 -93s21.5 -45.333 29.5 -70c3.33301 10 10.833 26.333 22.5 49l37 70c13 24 20.833 38.667 23.5 44h169l-169 -259l179 -265h-166l-50 86
c-16 25.333 -31.333 54.333 -46 87z" />
    <glyph glyph-name="y" unicode="y" 
d="M166 524l84.002 -296c8.66699 -25.333 17.334 -59 26.001 -101c1.33301 7.33301 3.66602 17.666 6.99902 30.999l10 39.5c3.33301 13 5.66602 23.167 6.99902 30.5l86 296h148l-172 -489c-39.333 -121.333 -72.333 -194.333 -99 -219
c-20.667 -20.667 -56.667 -31 -108 -31c-10 0.666992 -20.833 1.33398 -32.5 2.00098s-23.834 1 -36.501 1v111c6 0 14 -0.666992 24 -2s17.333 -2 22 -2c21.333 0 36.833 5.5 46.5 16.5s18.167 32.5 25.5 64.5l-191 548h153z" />
    <glyph glyph-name="z" unicode="z" horiz-adv-x="506" 
d="M22 110l272 297h-254v117h422v-117l-267 -289h274v-118h-447v110z" />
    <glyph glyph-name="braceleft" unicode="{" horiz-adv-x="405" 
d="M175 248c33.333 -8 56.668 -20.999 70.001 -38.999s20 -45.333 20 -82v-239c0 -55.333 27.667 -89.666 83 -102.999h-52c-58.667 0 -101.834 8.5 -129.501 25.5s-41.5 53.167 -41.5 108.5v230c0 29.333 -6.33301 51.666 -19 66.999s-32.667 26 -60 32
c52.667 14.667 79 48 79 100v246c0 51.333 15.5 84.5 46.5 99.5s74.5 22.5 130.5 22.5h46c-5.33301 -2.66699 -9.66602 -4 -12.999 -4c-46.667 -15.333 -70 -49 -70 -101v-249c0 -34 -6.33301 -58.833 -19 -74.5s-36.334 -28.834 -71.001 -39.501z" />
    <glyph glyph-name="bar" unicode="|" horiz-adv-x="293" 
d="M99 716h78v-860h-78v860z" />
    <glyph glyph-name="bar" unicode="&#xa6;" horiz-adv-x="293" 
d="M99 716h78v-860h-78v860z" />
    <glyph glyph-name="braceright" unicode="}" horiz-adv-x="405" 
d="M208 248c-34 10 -57.166 23.1699 -69.499 39.5029s-18.5 41.166 -18.5 74.499v249c0 31.333 -6.5 53.666 -19.5 66.999s-34.833 26 -65.5 38h46c58.667 0 103 -7 133 -21s45 -47.667 45 -101v-246c0 -28 6.33301 -49.667 19 -65s33 -27 61 -35
c-53.333 -11.333 -80 -44.333 -80 -99v-230c0 -37.333 -6.83301 -65.833 -20.5 -85.5s-32.834 -32.667 -57.501 -39s-55.667 -9.5 -93 -9.5h-53c56.667 13.333 85 47.666 85 102.999v239c0 36 6.5 63.167 19.5 81.5s35.833 31.5 68.5 39.5z" />
    <glyph glyph-name="asciitilde" unicode="~" horiz-adv-x="596" 
d="M491 662l36.998 -26.998c-26 -43.333 -46.667 -74.5 -62 -93.5s-37.666 -28.5 -66.999 -28.5c-14.667 0 -33 4.33301 -55 13s-42 17.5 -60 26.5s-34.667 16.333 -50 22s-32.666 8.5 -51.999 8.5s-36.333 -5.83301 -51 -17.5s-29 -30.834 -43 -57.501l-36 29
c28 51.333 50.5 85.333 67.5 102s38.5 25 64.5 25c26.667 0 63 -11.333 109 -34s81.333 -34 106 -34c20.667 0 37.5 4.66699 50.5 14s26.833 26.666 41.5 51.999z" />
    <glyph glyph-name="Agrave" horiz-adv-x="293" 
d="M234 70l-148 125v156l148 120v-132l-90 -67l90 -68v-134z" />
    <glyph glyph-name="quoteleft" horiz-adv-x="270" 
d="M204 456l-136 0.000976562v102c0 102.667 45.333 160 136 172v-53c-22 -2.66699 -39.667 -12.334 -53 -29.001s-20 -37 -20 -61h73v-131z" />
    <glyph glyph-name="quoteleft" unicode="&#x2018;" horiz-adv-x="270" 
d="M204 456l-136 0.000976562v102c0 102.667 45.333 160 136 172v-53c-22 -2.66699 -39.667 -12.334 -53 -29.001s-20 -37 -20 -61h73v-131z" />
    <glyph glyph-name="quoteright" horiz-adv-x="270" 
d="M68 716h136v-100c0 -104.667 -45.333 -162.667 -136 -174v53c24 4 42.333 14 55 30s19 36.667 19 62h-74v129z" />
    <glyph glyph-name="quoteright" unicode="&#x2019;" horiz-adv-x="270" 
d="M68 716h136v-100c0 -104.667 -45.333 -162.667 -136 -174v53c24 4 42.333 14 55 30s19 36.667 19 62h-74v129z" />
    <glyph glyph-name="quoteright" unicode="&#x491;" horiz-adv-x="270" 
d="M68 716h136v-100c0 -104.667 -45.333 -162.667 -136 -174v53c24 4 42.333 14 55 30s19 36.667 19 62h-74v129z" />
    <glyph glyph-name="quoteright" unicode="&#xb4;" horiz-adv-x="270" 
d="M68 716h136v-100c0 -104.667 -45.333 -162.667 -136 -174v53c24 4 42.333 14 55 30s19 36.667 19 62h-74v129z" />
    <glyph glyph-name="quotedblleft" horiz-adv-x="495" 
d="M412 456h-138.001v102c0 102.667 46 160 138 172v-53c-23.333 -2 -41.666 -11.5 -54.999 -28.5s-20 -37.5 -20 -61.5h75v-131zM214.999 456l-134 0.000976562v102c0 102.667 44.667 160 134 172v-53c-22 -2.66699 -39.333 -12.334 -52 -29.001s-19 -37 -19 -61h71v-131z
" />
    <glyph glyph-name="quotedblleft" unicode="&#x201c;" horiz-adv-x="495" 
d="M412 456h-138.001v102c0 102.667 46 160 138 172v-53c-23.333 -2 -41.666 -11.5 -54.999 -28.5s-20 -37.5 -20 -61.5h75v-131zM214.999 456l-134 0.000976562v102c0 102.667 44.667 160 134 172v-53c-22 -2.66699 -39.333 -12.334 -52 -29.001s-19 -37 -19 -61h71v-131z
" />
    <glyph glyph-name="quotedblright" horiz-adv-x="495" 
d="M81 716h134v-100c0 -105.333 -44.667 -163.333 -134 -174v53c48 7.33301 72 38 72 92h-72v129zM274 716h138v-100c0 -104.667 -46 -162.667 -138 -174v53c50.667 7.33301 76 38 76 92h-76v129z" />
    <glyph glyph-name="quotedblright" unicode="&#x201d;" horiz-adv-x="495" 
d="M81 716h134v-100c0 -105.333 -44.667 -163.333 -134 -174v53c48 7.33301 72 38 72 92h-72v129zM274 716h138v-100c0 -104.667 -46 -162.667 -138 -174v53c50.667 7.33301 76 38 76 92h-76v129z" />
    <glyph glyph-name="endash" horiz-adv-x="605" 
d="M0 329h545v-116h-545v116z" />
    <glyph glyph-name="endash" unicode="&#x2013;" horiz-adv-x="605" 
d="M0 329h545v-116h-545v116z" />
    <glyph glyph-name="emdash" horiz-adv-x="1056" 
d="M0 329h981v-116h-981v116z" />
    <glyph glyph-name="emdash" unicode="&#x2014;" horiz-adv-x="1056" 
d="M0 329h981v-116h-981v116z" />
    <glyph glyph-name="trademark" horiz-adv-x="1021" 
d="M944 716v-429h-92v344l-131 -344h-57l-127 344v-344h-92v429h151l96 -252l103 252h149zM394 716v-85h-131v-344h-103v344h-131v85h365z" />
    <glyph glyph-name="trademark" unicode="&#x2122;" horiz-adv-x="1021" 
d="M944 716v-429h-92v344l-131 -344h-57l-127 344v-344h-92v429h151l96 -252l103 252h149zM394 716v-85h-131v-344h-103v344h-131v85h365z" />
    <glyph glyph-name="Atilde" horiz-adv-x="293" 
d="M94 471l147 -121v-159l-147 -121v132l90 68l-90 69v132z" />
    <glyph glyph-name="ydieresis" unicode="&#xa1;" horiz-adv-x="640" 
d="M613 716l-333 -716h-162l116 236l-212 480h168l125 -319l130 319h168zM320 765c-50.667 0 -91.833 14.167 -123.5 42.5s-47.5 63.833 -47.5 106.5h114c0 -13.333 6 -24.833 18 -34.5s25.667 -14.5 41 -14.5s29 4.66699 41 14s18 21 18 35h114
c0 -42.667 -16.5 -78.167 -49.5 -106.5s-74.833 -42.5 -125.5 -42.5z" />
    <glyph glyph-name="ydieresis" unicode="&#x40e;" horiz-adv-x="640" 
d="M613 716l-333 -716h-162l116 236l-212 480h168l125 -319l130 319h168zM320 765c-50.667 0 -91.833 14.167 -123.5 42.5s-47.5 63.833 -47.5 106.5h114c0 -13.333 6 -24.833 18 -34.5s25.667 -14.5 41 -14.5s29 4.66699 41 14s18 21 18 35h114
c0 -42.667 -16.5 -78.167 -49.5 -106.5s-74.833 -42.5 -125.5 -42.5z" />
    <glyph glyph-name="Ydieresis" unicode="&#xa2;" horiz-adv-x="552" 
d="M166 524l84.002 -296c8.66699 -25.333 17.334 -59 26.001 -101c1.33301 7.33301 3.66602 17.666 6.99902 30.999l10 39.5c3.33301 13 5.66602 23.167 6.99902 30.5l86 296h148l-172 -489c-39.333 -121.333 -72.333 -194.333 -99 -219
c-20.667 -20.667 -56.667 -31 -108 -31c-10 0.666992 -20.833 1.33398 -32.5 2.00098s-23.834 1 -36.501 1v111c6 0 14 -0.666992 24 -2s17.333 -2 22 -2c21.333 0 36.833 5.5 46.5 16.5s18.167 32.5 25.5 64.5l-191 548h153zM272.002 585c-44 0 -79.167 12.833 -105.5 38.5
s-39.5 56.5 -39.5 92.5h105c0 -4.66699 4 -11.334 12 -20.001s17.333 -13 28 -13c11.333 0 21 4.33301 29 13s12 15.334 12 20.001h103c0 -35.333 -13 -66 -39 -92s-61 -39 -105 -39z" />
    <glyph glyph-name="Ydieresis" unicode="&#x45e;" horiz-adv-x="552" 
d="M166 524l84.002 -296c8.66699 -25.333 17.334 -59 26.001 -101c1.33301 7.33301 3.66602 17.666 6.99902 30.999l10 39.5c3.33301 13 5.66602 23.167 6.99902 30.5l86 296h148l-172 -489c-39.333 -121.333 -72.333 -194.333 -99 -219
c-20.667 -20.667 -56.667 -31 -108 -31c-10 0.666992 -20.833 1.33398 -32.5 2.00098s-23.834 1 -36.501 1v111c6 0 14 -0.666992 24 -2s17.333 -2 22 -2c21.333 0 36.833 5.5 46.5 16.5s18.167 32.5 25.5 64.5l-191 548h153zM272.002 585c-44 0 -79.167 12.833 -105.5 38.5
s-39.5 56.5 -39.5 92.5h105c0 -4.66699 4 -11.334 12 -20.001s17.333 -13 28 -13c11.333 0 21 4.33301 29 13s12 15.334 12 20.001h103c0 -35.333 -13 -66 -39 -92s-61 -39 -105 -39z" />
    <glyph glyph-name="Ydieresis" unicode="&#x178;" horiz-adv-x="552" 
d="M166 524l84.002 -296c8.66699 -25.333 17.334 -59 26.001 -101c1.33301 7.33301 3.66602 17.666 6.99902 30.999l10 39.5c3.33301 13 5.66602 23.167 6.99902 30.5l86 296h148l-172 -489c-39.333 -121.333 -72.333 -194.333 -99 -219
c-20.667 -20.667 -56.667 -31 -108 -31c-10 0.666992 -20.833 1.33398 -32.5 2.00098s-23.834 1 -36.501 1v111c6 0 14 -0.666992 24 -2s17.333 -2 22 -2c21.333 0 36.833 5.5 46.5 16.5s18.167 32.5 25.5 64.5l-191 548h153zM272.002 585c-44 0 -79.167 12.833 -105.5 38.5
s-39.5 56.5 -39.5 92.5h105c0 -4.66699 4 -11.334 12 -20.001s17.333 -13 28 -13c11.333 0 21 4.33301 29 13s12 15.334 12 20.001h103c0 -35.333 -13 -66 -39 -92s-61 -39 -105 -39z" />
    <glyph glyph-name="lozenge" unicode="&#xa3;" horiz-adv-x="482" 
d="M81 129h134v-100c0 -103.333 -44.667 -161.333 -134 -174v53c48 7.33301 72 38 72 92h-72v129zM274 129h138v-100c0 -102.667 -46 -160.667 -138 -174v53c50.667 7.33301 76 38 76 92h-76v129z" />
    <glyph glyph-name="lozenge" unicode="&#x408;" horiz-adv-x="482" 
d="M81 129h134v-100c0 -103.333 -44.667 -161.333 -134 -174v53c48 7.33301 72 38 72 92h-72v129zM274 129h138v-100c0 -102.667 -46 -160.667 -138 -174v53c50.667 7.33301 76 38 76 92h-76v129z" />
    <glyph glyph-name="caron" unicode="&#xa4;" horiz-adv-x="572" 
d="M445 243l79 -77.0039l-71 -72l-78 77c-22 -11.333 -39.167 -18.666 -51.5 -21.999s-29.5 -5 -51.5 -5c-20.667 0 -37.334 1.66699 -50.001 5s-29 10.666 -49 21.999l-79 -77l-70 72l75 77c-11.333 20 -18.666 36.5 -21.999 49.5s-5 30.167 -5 51.5
c0 22 1.83301 39.5 5.5 52.5s10.834 29.167 21.501 48.5l-75 79l70 70l79 -79c30.667 20 63.667 30 99 30s69.666 -10 102.999 -30l78 79l71 -70l-79 -79c11.333 -17.333 18.833 -32.666 22.5 -45.999s5.5 -31.666 5.5 -54.999s-1.66699 -41.166 -5 -53.499
s-11 -28.166 -23 -47.499zM272 262.996c24 0 44.167 8.16699 60.5 24.5s24.5 36.5 24.5 60.5c0 21.333 -8.16699 39.5 -24.5 54.5s-35.166 22.5 -56.499 22.5c-24 0 -44.667 -7.66699 -62 -23s-26 -33.333 -26 -54c0 -22.667 8.16699 -42.5 24.5 -59.5
s36.166 -25.5 59.499 -25.5z" />
    <glyph glyph-name="section" unicode="&#xa7;" horiz-adv-x="605" 
d="M121 447c-13.333 15.333 -22.833 27.6709 -28.5 37.0039s-10 19.833 -13 31.5s-4.5 26.167 -4.5 43.5c0 50 19 91 57 123s86 48 144 48c64.667 0 115.167 -17.333 151.5 -52s54.5 -84 54.5 -148h-132c-2 60 -26 90 -72 90c-18 0 -32.667 -5.33301 -44 -16
s-17 -23.667 -17 -39s7.16699 -30.333 21.5 -45s33.833 -30 58.5 -46l53 -34c58.667 -38.667 102.334 -71.834 131.001 -99.501s43 -63.834 43 -108.501c0 -34 -7 -62.333 -21 -85s-40.667 -48.334 -80 -77.001c17.333 -20.667 29 -38.334 35 -53.001s9 -32 9 -52
c0 -48.667 -18.667 -88.667 -56 -120s-84.666 -47 -141.999 -47c-62.667 0 -112.334 17.667 -149.001 53s-55.667 83 -57 143h134c4 -31.333 11.5 -53.5 22.5 -66.5s27.5 -19.5 49.5 -19.5c18 0 32.833 4.83301 44.5 14.5s17.5 22.5 17.5 38.5c0 14 -7 28 -21 42
s-30.5 27.333 -49.5 40l-52.5 34l-87 54c-66 44 -99 98 -99 162c0 33.333 6.66699 60.5 20 81.5s39.666 45.167 78.999 72.5zM195 386.005c-18 -15.333 -30.168 -28.499 -36.501 -39.499s-9.5 -24.167 -9.5 -39.5c0 -12.667 4.83301 -25 14.5 -37
s21.834 -22.833 36.501 -32.5l39 -25.5l111 -76c30.667 28.667 46 54.334 46 77.001c0 17.333 -6.5 32.666 -19.5 45.999s-40.833 33.666 -83.5 60.999z" />
    <glyph glyph-name="guilsinglright" unicode="&#xa8;" horiz-adv-x="696" 
d="M66 716h515v-129h-368v-153h337v-121h-337v-184h383v-129h-530v716zM184 926h110v-126h-110v126zM368 926h110v-126h-110v126z" />
    <glyph glyph-name="guilsinglright" unicode="&#x203a;" horiz-adv-x="696" 
d="M66 716h515v-129h-368v-153h337v-121h-337v-184h383v-129h-530v716zM184 926h110v-126h-110v126zM368 926h110v-126h-110v126z" />
    <glyph glyph-name="guilsinglright" unicode="&#x401;" horiz-adv-x="696" 
d="M66 716h515v-129h-368v-153h337v-121h-337v-184h383v-129h-530v716zM184 926h110v-126h-110v126zM368 926h110v-126h-110v126z" />
    <glyph glyph-name="copyright" unicode="&#xa9;" horiz-adv-x="808" 
d="M723 357c0 -64.667 -16.167 -124.834 -48.5 -180.501s-76.333 -99.667 -132 -132s-115.834 -48.5 -180.501 -48.5c-65.333 0 -125.833 16.167 -181.5 48.5s-99.667 76.333 -132 132s-48.5 115.834 -48.5 180.501c0 65.333 16.167 125.666 48.5 180.999
s76.333 99.166 132 131.499s116.167 48.5 181.5 48.5c64.667 0 124.834 -16.167 180.501 -48.5s99.667 -76.166 132 -131.499s48.5 -115.666 48.5 -180.999zM650 359c0 51.333 -12.833 98.666 -38.5 141.999s-60.667 78 -105 104s-92.5 39 -144.5 39s-100 -13 -144 -39
s-78.833 -60.667 -104.5 -104s-38.5 -90.666 -38.5 -141.999c0 -78.667 28 -145.334 84 -200.001s123.333 -82 202 -82c80 0 148.167 27.333 204.5 82s84.5 121.334 84.5 200.001zM467 293h83.001c-4.66699 -42.667 -22.834 -77.334 -54.501 -104.001
s-71.167 -40 -118.5 -40c-59.333 0 -107.833 20.167 -145.5 60.5s-56.5 91.833 -56.5 154.5c0 60.667 18.667 110.5 56 149.5s85.333 58.5 144 58.5c46.667 0 85.167 -11.667 115.5 -35s50.166 -57.666 59.499 -102.999h-83c-5.33301 22.667 -15.666 40 -30.999 52
s-35 18 -59 18c-36 0 -64.833 -12.833 -86.5 -38.5s-32.5 -59.5 -32.5 -101.5c0 -41.333 11.5 -76.5 34.5 -105.5s51.833 -43.5 86.5 -43.5c23.333 0 43.333 7.5 60 22.5s26 33.5 28 55.5z" />
    <glyph glyph-name="guillemotleft" unicode="&#xab;" horiz-adv-x="539" 
d="M451 70l-147 125v156l147 120v-132l-89 -67l89 -68v-134zM241 70l-147 125v156l147 120v-132l-88 -67l88 -68v-134z" />
    <glyph glyph-name="logicalnot" unicode="&#xac;" horiz-adv-x="662" 
d="M50 228v74h476v-302h-77v228h-399z" />
    <glyph glyph-name="registered" unicode="&#xae;" horiz-adv-x="808" 
d="M362 -4c-65.333 0 -125.833 16.167 -181.5 48.5s-99.667 76.333 -132 132s-48.5 115.834 -48.5 180.501c0 65.333 16.167 125.666 48.5 180.999s76.333 99.166 132 131.499s116.167 48.5 181.5 48.5c64.667 0 124.834 -16.167 180.501 -48.5s99.667 -76.166 132 -131.499
s48.5 -115.666 48.5 -180.999c0 -64.667 -16.167 -124.834 -48.5 -180.501s-76.333 -99.667 -132 -132s-115.834 -48.5 -180.501 -48.5zM362 644c-52 0 -100 -13 -144 -39s-78.833 -60.667 -104.5 -104s-38.5 -90.666 -38.5 -141.999c0 -78.667 28 -145.334 84 -200.001
s123.333 -82 202 -82c80 0 148.167 27.333 204.5 82s84.5 121.334 84.5 200.001c0 51.333 -12.833 98.666 -38.5 141.999s-60.667 78 -105 104s-92.5 39 -144.5 39zM212 556l174.001 0.00195312c96 0 144 -38.667 144 -116c0 -22 -3.66699 -39.333 -11 -52
s-20.333 -25.334 -39 -38.001c16.667 -10 27.167 -20.333 31.5 -31s7.5 -35.334 9.5 -74.001c2 -34.667 4 -55.667 6 -63s7.33301 -15.333 16 -24h-100c-6 20.667 -9 42.667 -9 66c-2 40 -6.33301 64.833 -13 74.5s-24.334 14.5 -53.001 14.5h-70v-155h-86v398z
M298.001 385.002h76c26 0 43.833 3.33301 53.5 10s14.5 19 14.5 37s-4.66699 30.167 -14 36.5s-27.333 9.5 -54 9.5h-76v-93z" />
    <glyph glyph-name="integral" unicode="&#xaf;" horiz-adv-x="440" 
d="M230 920h147v-145h-147v145zM6 920h147v-145h-147v145zM120 716h147v-716h-147v716z" />
    <glyph glyph-name="integral" unicode="&#x407;" horiz-adv-x="440" 
d="M230 920h147v-145h-147v145zM6 920h147v-145h-147v145zM120 716h147v-716h-147v716z" />
    <glyph glyph-name="degree" unicode="&#xb0;" 
d="M453 550c0 -32.667 -7.99902 -63.001 -23.999 -91.001s-37.833 -50.167 -65.5 -66.5s-58.167 -24.5 -91.5 -24.5c-48.667 0 -90.834 17.5 -126.501 52.5s-53.5 76.833 -53.5 125.5c0 32.667 8.16699 63.334 24.5 92.001s38.333 51.167 66 67.5s57.5 24.5 89.5 24.5
c32.667 0 63 -7.83301 91 -23.5s50 -37.667 66 -66s24 -58.5 24 -90.5zM375.001 545.999c0 28.667 -10.167 52.833 -30.5 72.5s-45.166 29.5 -74.499 29.5c-26.667 0 -49.834 -9.83301 -69.501 -29.5s-29.5 -42.5 -29.5 -68.5s10 -49 30 -69s43.667 -30 71 -30
s51.333 9.66699 72 29s31 41.333 31 66z" />
    <glyph glyph-name="plusminus" unicode="&#xb1;" 
d="M35 305v100h189v169h98v-169h188v-100h-188v-174h-98v174h-189zM35 0v98h475v-98h-475z" />
    <glyph glyph-name="germandbls" unicode="&#xb2;" horiz-adv-x="326" 
d="M63 716h147v-716h-147v716zM63 920h147v-145h-147v145z" />
    <glyph glyph-name="germandbls" unicode="&#x406;" horiz-adv-x="326" 
d="M63 716h147v-716h-147v716zM63 920h147v-145h-147v145z" />
    <glyph glyph-name="paragraph" unicode="&#xb6;" horiz-adv-x="596" 
d="M239 -142v479.001c-60.667 1.33301 -108.667 18 -144 50s-53 77.667 -53 137c0 71.333 21.333 121.166 64 149.499s100 42.5 172 42.5h250v-74h-40v-784h-94v784h-61v-784h-94z" />
    <glyph glyph-name="bullet" unicode="&#xb7;" 
d="M195 280c0 26 9.00098 48.333 27.001 67s40.333 28 67 28c28 0 51 -9.33301 69 -28s27 -41 27 -67c0 -24 -9.33301 -45.667 -28 -65s-41.334 -29 -68.001 -29c-25.333 0 -47.333 9.66699 -66 29s-28 41 -28 65z" />
    <glyph glyph-name="bullet" unicode="&#x2022;" 
d="M195 280c0 26 9.00098 48.333 27.001 67s40.333 28 67 28c28 0 51 -9.33301 69 -28s27 -41 27 -67c0 -24 -9.33301 -45.667 -28 -65s-41.334 -29 -68.001 -29c-25.333 0 -47.333 9.66699 -66 29s-28 41 -28 65z" />
    <glyph glyph-name="fi" unicode="&#xb8;" 
d="M175 236c2 -31.333 6.99902 -57.501 14.999 -78.501s19.5 -36.5 34.5 -46.5s32.833 -15 53.5 -15c19.333 0 34.833 4 46.5 12s23.834 23 36.501 45h143c-22.667 -56 -52.5 -97.667 -89.5 -125s-83.833 -41 -140.5 -41c-76.667 0 -136.334 24.167 -179.001 72.5
s-64 114.833 -64 199.5c0 88 21.333 156.333 64 205s102.334 73 179.001 73c78 0 137.667 -23.5 179 -70.5s62 -115.5 62 -205.5c0 -9.33301 -0.666992 -17.666 -2 -24.999h-338zM174.999 325.999h192.999c-2.66699 32 -12.167 56.833 -28.5 74.5s-38.833 26.5 -67.5 26.5
c-57.333 0 -89.666 -33.667 -96.999 -101zM124.998 735.999h112v-129h-112v129zM308.998 735.999h112v-129h-112v129z" />
    <glyph glyph-name="fi" unicode="&#x451;" 
d="M175 236c2 -31.333 6.99902 -57.501 14.999 -78.501s19.5 -36.5 34.5 -46.5s32.833 -15 53.5 -15c19.333 0 34.833 4 46.5 12s23.834 23 36.501 45h143c-22.667 -56 -52.5 -97.667 -89.5 -125s-83.833 -41 -140.5 -41c-76.667 0 -136.334 24.167 -179.001 72.5
s-64 114.833 -64 199.5c0 88 21.333 156.333 64 205s102.334 73 179.001 73c78 0 137.667 -23.5 179 -70.5s62 -115.5 62 -205.5c0 -9.33301 -0.666992 -17.666 -2 -24.999h-338zM174.999 325.999h192.999c-2.66699 32 -12.167 56.833 -28.5 74.5s-38.833 26.5 -67.5 26.5
c-57.333 0 -89.666 -33.667 -96.999 -101zM124.998 735.999h112v-129h-112v129zM308.998 735.999h112v-129h-112v129z" />
    <glyph glyph-name="guilsinglleft" unicode="&#xb9;" horiz-adv-x="1034" 
d="M66 0v716h146l292 -499v499h140v-716h-140l-298 499v-499h-140zM681 567c0 48.667 14.498 88.667 43.498 120s67.167 47 114.5 47c50.667 0 90.334 -15 119.001 -45s43 -70.667 43 -122c0 -49.333 -14.667 -89 -44 -119s-68.666 -45 -117.999 -45
c-48.667 0 -87.167 14.667 -115.5 44s-42.5 69.333 -42.5 120zM777.998 567c0 -26 5.66699 -46.667 17 -62s26.666 -23 45.999 -23c40.667 0 61 28.333 61 85c0 56 -20.333 84 -61 84c-19.333 0 -34.666 -7.5 -45.999 -22.5s-17 -35.5 -17 -61.5zM682.998 280v70h316v-70
h-316z" />
    <glyph glyph-name="guilsinglleft" unicode="&#x2116;" horiz-adv-x="1034" 
d="M66 0v716h146l292 -499v499h140v-716h-140l-298 499v-499h-140zM681 567c0 48.667 14.498 88.667 43.498 120s67.167 47 114.5 47c50.667 0 90.334 -15 119.001 -45s43 -70.667 43 -122c0 -49.333 -14.667 -89 -44 -119s-68.666 -45 -117.999 -45
c-48.667 0 -87.167 14.667 -115.5 44s-42.5 69.333 -42.5 120zM777.998 567c0 -26 5.66699 -46.667 17 -62s26.666 -23 45.999 -23c40.667 0 61 28.333 61 85c0 56 -20.333 84 -61 84c-19.333 0 -34.666 -7.5 -45.999 -22.5s-17 -35.5 -17 -61.5zM682.998 280v70h316v-70
h-316z" />
    <glyph glyph-name="guilsinglleft" unicode="&#x2039;" horiz-adv-x="1034" 
d="M66 0v716h146l292 -499v499h140v-716h-140l-298 499v-499h-140zM681 567c0 48.667 14.498 88.667 43.498 120s67.167 47 114.5 47c50.667 0 90.334 -15 119.001 -45s43 -70.667 43 -122c0 -49.333 -14.667 -89 -44 -119s-68.666 -45 -117.999 -45
c-48.667 0 -87.167 14.667 -115.5 44s-42.5 69.333 -42.5 120zM777.998 567c0 -26 5.66699 -46.667 17 -62s26.666 -23 45.999 -23c40.667 0 61 28.333 61 85c0 56 -20.333 84 -61 84c-19.333 0 -34.666 -7.5 -45.999 -22.5s-17 -35.5 -17 -61.5zM682.998 280v70h316v-70
h-316z" />
    <glyph glyph-name="guillemotright" unicode="&#xbb;" horiz-adv-x="539" 
d="M85 70v134l88 68l-88 67v132l147 -120v-156zM294 70v134l89 68l-89 67v132l148 -120v-156z" />
    <glyph glyph-name="divide" unicode="&#xbc;" 
d="M35 296v98h475v-98h-475zM212 239h121v-121h-121v121zM212 569h121v-120h-121v120z" />
    <glyph glyph-name="divide" unicode="&#x458;" 
d="M35 296v98h475v-98h-475zM212 239h121v-121h-121v121zM212 569h121v-120h-121v120z" />
    <glyph glyph-name="dieresis" unicode="&#xbd;" horiz-adv-x="596" 
d="M61 486l68 70l143 -146l146 146l66 -70l-142 -144l142 -143l-66 -70l-146 145l-143 -145l-68 70l145 143z" />
    <glyph glyph-name="dieresis" unicode="&#x405;" horiz-adv-x="596" 
d="M61 486l68 70l143 -146l146 146l66 -70l-142 -144l142 -143l-66 -70l-146 145l-143 -145l-68 70l145 143z" />
    <glyph glyph-name="ellipsis" unicode="&#xbe;" horiz-adv-x="955" 
d="M90 145h149v-145h-149v145zM418 145h149v-145h-149v145zM745 145h147v-145h-147v145z" />
    <glyph glyph-name="ellipsis" unicode="&#x2026;" horiz-adv-x="955" 
d="M90 145h149v-145h-149v145zM418 145h149v-145h-149v145zM745 145h147v-145h-147v145z" />
    <glyph glyph-name="ellipsis" unicode="&#x455;" horiz-adv-x="955" 
d="M90 145h149v-145h-149v145zM418 145h149v-145h-149v145zM745 145h147v-145h-147v145z" />
    <glyph glyph-name="ordfeminine" unicode="&#xbf;" horiz-adv-x="405" 
d="M234 716h140v-129h-140v129zM26 716h140v-129h-140v129zM127 524h140v-524h-140v524z" />
    <glyph glyph-name="ordfeminine" unicode="&#x457;" horiz-adv-x="405" 
d="M234 716h140v-129h-140v129zM26 716h140v-129h-140v129zM127 524h140v-524h-140v524z" />
    <glyph glyph-name="Adieresis" unicode="&#xc0;" horiz-adv-x="742" 
d="M18 0l254 716h168l250 -716h-158l-50 151h-261l-48 -151h-155zM263 270h180l-90 282z" />
    <glyph glyph-name="Adieresis" unicode="&#x410;" horiz-adv-x="742" 
d="M18 0l254 716h168l250 -716h-158l-50 151h-261l-48 -151h-155zM263 270h180l-90 282z" />
    <glyph glyph-name="Aring" unicode="&#xc1;" horiz-adv-x="718" 
d="M66 716l475 -0.000976562v-129h-328v-155h148c66 0 121 -10 165 -30s75.833 -46.167 95.5 -78.5s29.5 -67.166 29.5 -104.499c0 -72 -26.333 -128.333 -79 -169c-23.333 -18.667 -49.5 -31.667 -78.5 -39s-68.833 -11 -119.5 -11h-308v716zM213 312.999v-184h144
c54.667 0 92.167 6.5 112.5 19.5s30.5 37.167 30.5 72.5c0 36.667 -9.5 61.167 -28.5 73.5s-56.5 18.5 -112.5 18.5h-146z" />
    <glyph glyph-name="Aring" unicode="&#x411;" horiz-adv-x="718" 
d="M66 716l475 -0.000976562v-129h-328v-155h148c66 0 121 -10 165 -30s75.833 -46.167 95.5 -78.5s29.5 -67.166 29.5 -104.499c0 -72 -26.333 -128.333 -79 -169c-23.333 -18.667 -49.5 -31.667 -78.5 -39s-68.833 -11 -119.5 -11h-308v716zM213 312.999v-184h144
c54.667 0 92.167 6.5 112.5 19.5s30.5 37.167 30.5 72.5c0 36.667 -9.5 61.167 -28.5 73.5s-56.5 18.5 -112.5 18.5h-146z" />
    <glyph glyph-name="Ccedilla" unicode="&#xc2;" horiz-adv-x="718" 
d="M66 716h313c49.333 0 86.5 -2.66699 111.5 -8s47.5 -15.666 67.5 -30.999c46 -34.667 69 -83.667 69 -147c0 -64.667 -27 -114.334 -81 -149.001c70 -28.667 105 -82.667 105 -162c0 -72 -26.333 -128.333 -79 -169c-23.333 -18.667 -49.5 -31.667 -78.5 -39
s-68.833 -11 -119.5 -11h-308v716zM213 587v-155h148c44.667 0 75.167 5.5 91.5 16.5s24.5 31.5 24.5 61.5c0 28.667 -8.33301 48.667 -25 60s-46 17 -88 17h-151zM213 313v-184h144c54.667 0 92.167 6.5 112.5 19.5s30.5 37.167 30.5 72.5c0 36.667 -9.5 61.167 -28.5 73.5
s-56.5 18.5 -112.5 18.5h-146z" />
    <glyph glyph-name="Ccedilla" unicode="&#x412;" horiz-adv-x="718" 
d="M66 716h313c49.333 0 86.5 -2.66699 111.5 -8s47.5 -15.666 67.5 -30.999c46 -34.667 69 -83.667 69 -147c0 -64.667 -27 -114.334 -81 -149.001c70 -28.667 105 -82.667 105 -162c0 -72 -26.333 -128.333 -79 -169c-23.333 -18.667 -49.5 -31.667 -78.5 -39
s-68.833 -11 -119.5 -11h-308v716zM213 587v-155h148c44.667 0 75.167 5.5 91.5 16.5s24.5 31.5 24.5 61.5c0 28.667 -8.33301 48.667 -25 60s-46 17 -88 17h-151zM213 313v-184h144c54.667 0 92.167 6.5 112.5 19.5s30.5 37.167 30.5 72.5c0 36.667 -9.5 61.167 -28.5 73.5
s-56.5 18.5 -112.5 18.5h-146z" />
    <glyph glyph-name="Eacute" unicode="&#xc3;" horiz-adv-x="517" 
d="M213 0h-147v716h400v-129h-253v-587z" />
    <glyph glyph-name="Eacute" unicode="&#x413;" horiz-adv-x="517" 
d="M213 0h-147v716h400v-129h-253v-587z" />
    <glyph glyph-name="Ntilde" unicode="&#xc4;" horiz-adv-x="753" 
d="M86 129l-0.000976562 401.001c0 62.667 23.333 111.667 70 147c21.333 15.333 44.333 25.666 69 30.999s61.334 8 110.001 8h296v-587h72v-129h-683v129h66zM233.999 129.001h249.999v456h-136c-41.333 0 -70.666 -5.66699 -87.999 -17s-26 -31.333 -26 -60v-379z" />
    <glyph glyph-name="Ntilde" unicode="&#x414;" horiz-adv-x="753" 
d="M86 129l-0.000976562 401.001c0 62.667 23.333 111.667 70 147c21.333 15.333 44.333 25.666 69 30.999s61.334 8 110.001 8h296v-587h72v-129h-683v129h66zM233.999 129.001h249.999v456h-136c-41.333 0 -70.666 -5.66699 -87.999 -17s-26 -31.333 -26 -60v-379z" />
    <glyph glyph-name="Odieresis" unicode="&#xc5;" horiz-adv-x="696" 
d="M66 716h515v-129h-368v-153h337v-121h-337v-184h383v-129h-530v716z" />
    <glyph glyph-name="Odieresis" unicode="&#x415;" horiz-adv-x="696" 
d="M66 716h515v-129h-368v-153h337v-121h-337v-184h383v-129h-530v716z" />
    <glyph glyph-name="Udieresis" unicode="&#xc6;" horiz-adv-x="1246" 
d="M534 0v241l-70 72l-236 -313h-189l312 420l-294 296h186l291 -308v308h147v-308l291 308h185l-294 -296l313 -420h-190l-235 313l-70 -72v-241h-147z" />
    <glyph glyph-name="Udieresis" unicode="&#x416;" horiz-adv-x="1246" 
d="M534 0v241l-70 72l-236 -313h-189l312 420l-294 296h186l291 -308v308h147v-308l291 308h185l-294 -296l313 -420h-190l-235 313l-70 -72v-241h-147z" />
    <glyph glyph-name="aacute" unicode="&#xc7;" horiz-adv-x="662" 
d="M322 0c-68 0 -123.831 12.4971 -167.498 37.4971s-74.834 55 -93.501 90s-28 66.167 -28 93.5h157c0 -33.333 12.333 -57.666 37 -72.999s56.334 -23 95.001 -23c84.667 0 127 32 127 96c0 34.667 -8.66699 58.667 -26 72s-45.333 20 -84 20h-59v119h68
c18.667 0 36.167 7.5 52.5 22.5s24.5 33.5 24.5 55.5c0 54.667 -33.667 82 -101 82c-33.333 0 -60.166 -6.83301 -80.499 -20.5s-30.5 -34.167 -30.5 -61.5h-154c0 44.667 22.333 90.167 67 136.5s114.334 69.5 209.001 69.5c37.333 0 70.166 -4.66699 98.499 -14
s53.666 -23 75.999 -41s39 -38 50 -60s16.5 -45.667 16.5 -71c0 -35.333 -6.16699 -64.5 -18.5 -87.5s-32.5 -43.5 -60.5 -61.5c36 -15.333 62.167 -35.666 78.5 -60.999s24.5 -59 24.5 -101c0 -47.333 -14.833 -87.666 -44.5 -120.999s-66.334 -58 -110.001 -74
s-84.834 -24 -123.501 -24z" />
    <glyph glyph-name="aacute" unicode="&#x417;" horiz-adv-x="662" 
d="M322 0c-68 0 -123.831 12.4971 -167.498 37.4971s-74.834 55 -93.501 90s-28 66.167 -28 93.5h157c0 -33.333 12.333 -57.666 37 -72.999s56.334 -23 95.001 -23c84.667 0 127 32 127 96c0 34.667 -8.66699 58.667 -26 72s-45.333 20 -84 20h-59v119h68
c18.667 0 36.167 7.5 52.5 22.5s24.5 33.5 24.5 55.5c0 54.667 -33.667 82 -101 82c-33.333 0 -60.166 -6.83301 -80.499 -20.5s-30.5 -34.167 -30.5 -61.5h-154c0 44.667 22.333 90.167 67 136.5s114.334 69.5 209.001 69.5c37.333 0 70.166 -4.66699 98.499 -14
s53.666 -23 75.999 -41s39 -38 50 -60s16.5 -45.667 16.5 -71c0 -35.333 -6.16699 -64.5 -18.5 -87.5s-32.5 -43.5 -60.5 -61.5c36 -15.333 62.167 -35.666 78.5 -60.999s24.5 -59 24.5 -101c0 -47.333 -14.833 -87.666 -44.5 -120.999s-66.334 -58 -110.001 -74
s-84.834 -24 -123.501 -24z" />
    <glyph glyph-name="agrave" unicode="&#xc8;" horiz-adv-x="742" 
d="M651 0h-139v499l-299 -499h-138v716h138v-499l293 499h145v-716z" />
    <glyph glyph-name="agrave" unicode="&#x418;" horiz-adv-x="742" 
d="M651 0h-139v499l-299 -499h-138v716h138v-499l293 499h145v-716z" />
    <glyph glyph-name="acircumflex" unicode="&#xc9;" horiz-adv-x="753" 
d="M351 765c-50.667 0 -91.833 14.167 -123.5 42.5s-47.5 63.833 -47.5 106.5h114c0 -13.333 6 -24.833 18 -34.5s25.667 -14.5 41 -14.5s29 4.66699 41 14s18 21 18 35h114c0 -42 -16.333 -77.333 -49 -106s-74.667 -43 -126 -43zM651.001 0h-139v499l-299 -499h-138v716
h138v-499l293 499h145v-716z" />
    <glyph glyph-name="acircumflex" unicode="&#x419;" horiz-adv-x="753" 
d="M351 765c-50.667 0 -91.833 14.167 -123.5 42.5s-47.5 63.833 -47.5 106.5h114c0 -13.333 6 -24.833 18 -34.5s25.667 -14.5 41 -14.5s29 4.66699 41 14s18 21 18 35h114c0 -42 -16.333 -77.333 -49 -106s-74.667 -43 -126 -43zM651.001 0h-139v499l-299 -499h-138v716
h138v-499l293 499h145v-716z" />
    <glyph glyph-name="adieresis" unicode="&#xca;" horiz-adv-x="753" 
d="M66 716h147v-308l291 308h186l-294 -296l312 -420h-187l-236 313l-72 -72v-241h-147v716z" />
    <glyph glyph-name="adieresis" unicode="&#x41a;" horiz-adv-x="753" 
d="M66 716h147v-308l291 308h186l-294 -296l312 -420h-187l-236 313l-72 -72v-241h-147v716z" />
    <glyph glyph-name="atilde" unicode="&#xcb;" horiz-adv-x="753" 
d="M66 530c0 52 22.333 96 67 132s102.667 54 174 54h337v-716h-147v589h-177c-71.333 0 -107 -27 -107 -81v-508h-147v530z" />
    <glyph glyph-name="atilde" unicode="&#x41b;" horiz-adv-x="753" 
d="M66 530c0 52 22.333 96 67 132s102.667 54 174 54h337v-716h-147v589h-177c-71.333 0 -107 -27 -107 -81v-508h-147v530z" />
    <glyph glyph-name="aring" unicode="&#xcc;" horiz-adv-x="854" 
d="M66 716l227.001 -0.000976562l90 -411c3.33301 -14.667 7.16602 -34.167 11.499 -58.5s9.5 -50.166 15.5 -77.499c14 78 22.667 123.333 26 136l94 411h221v-716h-138v591l-133 -591h-143l-131 591v-591h-140v716z" />
    <glyph glyph-name="aring" unicode="&#x41c;" horiz-adv-x="854" 
d="M66 716l227.001 -0.000976562l90 -411c3.33301 -14.667 7.16602 -34.167 11.499 -58.5s9.5 -50.166 15.5 -77.499c14 78 22.667 123.333 26 136l94 411h221v-716h-138v591l-133 -591h-143l-131 591v-591h-140v716z" />
    <glyph glyph-name="ccedilla" unicode="&#xcd;" horiz-adv-x="730" 
d="M66 716h147v-278h284v278h147v-716h-147v309h-284v-309h-147v716z" />
    <glyph glyph-name="ccedilla" unicode="&#x41d;" horiz-adv-x="730" 
d="M66 716h147v-278h284v278h147v-716h-147v309h-284v-309h-147v716z" />
    <glyph glyph-name="eacute" unicode="&#xce;" horiz-adv-x="788" 
d="M39 355c0 75.333 14.167 141.168 42.5 197.501s68.833 100 121.5 131s113.334 46.5 182.001 46.5c50 0 96 -8.66699 138 -26s77.667 -41.666 107 -72.999s52.166 -69.333 68.499 -114s24.5 -94.334 24.5 -149.001c0 -73.333 -14 -138.833 -42 -196.5
s-67.833 -102.834 -119.5 -135.501s-110.5 -49 -176.5 -49c-68.667 0 -129.167 15.5 -181.5 46.5s-92.833 74.167 -121.5 129.5s-43 119.333 -43 192zM191 366.002c0 -69.333 15.1689 -128.333 45.502 -177s78.5 -73 144.5 -73c58.667 0 105.167 22.667 139.5 68
s51.5 105.333 51.5 180c0 74 -16.833 131.833 -50.5 173.5s-79.834 62.5 -138.501 62.5c-37.333 0 -70.333 -9.33301 -99 -28s-50.834 -45.5 -66.501 -80.5s-24.5 -76.833 -26.5 -125.5z" />
    <glyph glyph-name="eacute" unicode="&#x41e;" horiz-adv-x="788" 
d="M39 355c0 75.333 14.167 141.168 42.5 197.501s68.833 100 121.5 131s113.334 46.5 182.001 46.5c50 0 96 -8.66699 138 -26s77.667 -41.666 107 -72.999s52.166 -69.333 68.499 -114s24.5 -94.334 24.5 -149.001c0 -73.333 -14 -138.833 -42 -196.5
s-67.833 -102.834 -119.5 -135.501s-110.5 -49 -176.5 -49c-68.667 0 -129.167 15.5 -181.5 46.5s-92.833 74.167 -121.5 129.5s-43 119.333 -43 192zM191 366.002c0 -69.333 15.1689 -128.333 45.502 -177s78.5 -73 144.5 -73c58.667 0 105.167 22.667 139.5 68
s51.5 105.333 51.5 180c0 74 -16.833 131.833 -50.5 173.5s-79.834 62.5 -138.501 62.5c-37.333 0 -70.333 -9.33301 -99 -28s-50.834 -45.5 -66.501 -80.5s-24.5 -76.833 -26.5 -125.5z" />
    <glyph glyph-name="egrave" unicode="&#xcf;" horiz-adv-x="742" 
d="M66 716h578v-716h-147v587h-284v-587h-147v716z" />
    <glyph glyph-name="egrave" unicode="&#x41f;" horiz-adv-x="742" 
d="M66 716h578v-716h-147v587h-284v-587h-147v716z" />
    <glyph glyph-name="ecircumflex" unicode="&#xd0;" horiz-adv-x="675" 
d="M66 716h295c71.333 0 123.333 -12.333 156 -37c58.667 -42 88 -105.667 88 -191s-28 -150 -84 -194c-21.333 -14 -44.5 -24.167 -69.5 -30.5s-57.167 -9.5 -96.5 -9.5h-142v-254h-147v716zM213 587l0.000976562 -204h115c45.333 0 77.666 7.66699 96.999 23
s29 40.666 29 75.999c0 36.667 -9.66699 63.334 -29 80.001s-51.333 25 -96 25h-116z" />
    <glyph glyph-name="ecircumflex" unicode="&#x420;" horiz-adv-x="675" 
d="M66 716h295c71.333 0 123.333 -12.333 156 -37c58.667 -42 88 -105.667 88 -191s-28 -150 -84 -194c-21.333 -14 -44.5 -24.167 -69.5 -30.5s-57.167 -9.5 -96.5 -9.5h-142v-254h-147v716zM213 587l0.000976562 -204h115c45.333 0 77.666 7.66699 96.999 23
s29 40.666 29 75.999c0 36.667 -9.66699 63.334 -29 80.001s-51.333 25 -96 25h-116z" />
    <glyph glyph-name="edieresis" unicode="&#xd1;" horiz-adv-x="742" 
d="M670 478h-146.999c-10.667 42 -27.834 72.833 -51.501 92.5s-55.167 29.5 -94.5 29.5c-58.667 0 -104.334 -21.333 -137.001 -64s-49 -103.667 -49 -183c0 -50.667 7.16699 -93.5 21.5 -128.5s34.833 -61.833 61.5 -80.5s58 -28 94 -28c78 0 129.667 44.667 155 134h147
c-4.66699 -32.667 -11 -59.167 -19 -79.5s-20 -41.5 -36 -63.5c-58.667 -80 -141.667 -120 -249 -120c-100 0 -179.5 33.167 -238.5 99.5s-88.5 155.166 -88.5 266.499c0 76.667 13.667 143.334 41 200.001s65.833 100.334 115.5 131.001s107.834 46 174.501 46
c83.333 0 152.5 -22.833 207.5 -68.5s85.833 -106.834 92.5 -183.501z" />
    <glyph glyph-name="edieresis" unicode="&#x421;" horiz-adv-x="742" 
d="M670 478h-146.999c-10.667 42 -27.834 72.833 -51.501 92.5s-55.167 29.5 -94.5 29.5c-58.667 0 -104.334 -21.333 -137.001 -64s-49 -103.667 -49 -183c0 -50.667 7.16699 -93.5 21.5 -128.5s34.833 -61.833 61.5 -80.5s58 -28 94 -28c78 0 129.667 44.667 155 134h147
c-4.66699 -32.667 -11 -59.167 -19 -79.5s-20 -41.5 -36 -63.5c-58.667 -80 -141.667 -120 -249 -120c-100 0 -179.5 33.167 -238.5 99.5s-88.5 155.166 -88.5 266.499c0 76.667 13.667 143.334 41 200.001s65.833 100.334 115.5 131.001s107.834 46 174.501 46
c83.333 0 152.5 -22.833 207.5 -68.5s85.833 -106.834 92.5 -183.501z" />
    <glyph glyph-name="iacute" unicode="&#xd2;" horiz-adv-x="662" 
d="M13 716h574v-129h-212v-587h-147v587h-215v129z" />
    <glyph glyph-name="iacute" unicode="&#x422;" horiz-adv-x="662" 
d="M13 716h574v-129h-212v-587h-147v587h-215v129z" />
    <glyph glyph-name="igrave" unicode="&#xd3;" horiz-adv-x="675" 
d="M613 716l-333 -716h-162l116 236l-212 480h168l125 -319l130 319h168z" />
    <glyph glyph-name="igrave" unicode="&#x423;" horiz-adv-x="675" 
d="M613 716l-333 -716h-162l116 236l-212 480h168l125 -319l130 319h168z" />
    <glyph glyph-name="icircumflex" unicode="&#xd4;" horiz-adv-x="988" 
d="M410 791l148.001 0.00195312v-59c67.333 0 129.5 -15.833 186.5 -47.5s101.667 -76.334 134 -134.001s48.5 -122.834 48.5 -195.501c0 -71.333 -16.333 -135.333 -49 -192s-77.334 -100.834 -134.001 -132.501s-118.667 -47.5 -186 -47.5v-64h-148v64
c-67.333 0 -129.666 15.833 -186.999 47.5s-102.333 75.834 -135 132.501s-49 120.667 -49 192c0 74 16.167 139.5 48.5 196.5s77.166 101.333 134.499 133s120 47.5 188 47.5v59zM558.001 602.002v-488.001c67.333 0 120.333 25.333 159 76s58 109.334 58 176.001
c-0.666992 46.667 -11 88 -31 124s-46.5 63.667 -79.5 83s-68.5 29 -106.5 29zM410.001 602.001c-60 0 -110.832 -21.667 -152.499 -65s-63.834 -100.333 -66.501 -171c0 -42 8.5 -82.333 25.5 -121s42 -70.167 75 -94.5s72.5 -36.5 118.5 -36.5v488z" />
    <glyph glyph-name="icircumflex" unicode="&#x424;" horiz-adv-x="988" 
d="M410 791l148.001 0.00195312v-59c67.333 0 129.5 -15.833 186.5 -47.5s101.667 -76.334 134 -134.001s48.5 -122.834 48.5 -195.501c0 -71.333 -16.333 -135.333 -49 -192s-77.334 -100.834 -134.001 -132.501s-118.667 -47.5 -186 -47.5v-64h-148v64
c-67.333 0 -129.666 15.833 -186.999 47.5s-102.333 75.834 -135 132.501s-49 120.667 -49 192c0 74 16.167 139.5 48.5 196.5s77.166 101.333 134.499 133s120 47.5 188 47.5v59zM558.001 602.002v-488.001c67.333 0 120.333 25.333 159 76s58 109.334 58 176.001
c-0.666992 46.667 -11 88 -31 124s-46.5 63.667 -79.5 83s-68.5 29 -106.5 29zM410.001 602.001c-60 0 -110.832 -21.667 -152.499 -65s-63.834 -100.333 -66.501 -171c0 -42 8.5 -82.333 25.5 -121s42 -70.167 75 -94.5s72.5 -36.5 118.5 -36.5v488z" />
    <glyph glyph-name="idieresis" unicode="&#xd5;" horiz-adv-x="696" 
d="M13 0l228 362l-219 354h168l136 -238l136 238h164l-219 -348l235 -368h-173l-143 259l-149 -259h-164z" />
    <glyph glyph-name="idieresis" unicode="&#x425;" horiz-adv-x="696" 
d="M13 0l228 362l-219 354h168l136 -238l136 238h164l-219 -348l235 -368h-173l-143 259l-149 -259h-164z" />
    <glyph glyph-name="ntilde" unicode="&#xd6;" horiz-adv-x="799" 
d="M730 0h-664v716h147v-587h284v587h147v-587h86v-129z" />
    <glyph glyph-name="ntilde" unicode="&#x426;" horiz-adv-x="799" 
d="M730 0h-664v716h147v-587h284v587h147v-587h86v-129z" />
    <glyph glyph-name="oacute" unicode="&#xd7;" horiz-adv-x="742" 
d="M213 513c0 -30 7 -50 21 -60s36.667 -15 68 -15h195v278h147v-716h-147v309h-223c-62.667 0 -113 20.167 -151 60.5s-57 93.833 -57 160.5v186h147v-203z" />
    <glyph glyph-name="oacute" unicode="&#x427;" horiz-adv-x="742" 
d="M213 513c0 -30 7 -50 21 -60s36.667 -15 68 -15h195v278h147v-716h-147v309h-223c-62.667 0 -113 20.167 -151 60.5s-57 93.833 -57 160.5v186h147v-203z" />
    <glyph glyph-name="ograve" unicode="&#xd8;" horiz-adv-x="1043" 
d="M951 0h-885v716h147v-587h223v587h147v-587h221v587h147v-716z" />
    <glyph glyph-name="ograve" unicode="&#x428;" horiz-adv-x="1043" 
d="M951 0h-885v716h147v-587h223v587h147v-587h221v587h147v-716z" />
    <glyph glyph-name="ocircumflex" unicode="&#xd9;" horiz-adv-x="1146" 
d="M1043 0h-977v716h147v-587h223v587h147v-587h221v587h147v-587h92v-129z" />
    <glyph glyph-name="ocircumflex" unicode="&#x429;" horiz-adv-x="1146" 
d="M1043 0h-977v716h147v-587h223v587h147v-587h221v587h147v-587h92v-129z" />
    <glyph glyph-name="odieresis" unicode="&#xda;" horiz-adv-x="898" 
d="M228 587l-215.001 -0.00195312v129h362v-284h148c65.333 0 119.833 -10 163.5 -30s75.334 -45.667 95.001 -77s29.5 -66.666 29.5 -105.999c0 -71.333 -25.667 -127.666 -77 -168.999c-24.667 -18.667 -51.5 -31.667 -80.5 -39s-68.833 -11 -119.5 -11h-306v587z
M374.999 312.998l-0.000976562 -184h142c54.667 0 92.334 6.5 113.001 19.5s31 37.167 31 72.5c0 36.667 -9.5 61.167 -28.5 73.5s-56.167 18.5 -111.5 18.5h-146z" />
    <glyph glyph-name="odieresis" unicode="&#x42a;" horiz-adv-x="898" 
d="M228 587l-215.001 -0.00195312v129h362v-284h148c65.333 0 119.833 -10 163.5 -30s75.334 -45.667 95.001 -77s29.5 -66.666 29.5 -105.999c0 -71.333 -25.667 -127.666 -77 -168.999c-24.667 -18.667 -51.5 -31.667 -80.5 -39s-68.833 -11 -119.5 -11h-306v587z
M374.999 312.998l-0.000976562 -184h142c54.667 0 92.334 6.5 113.001 19.5s31 37.167 31 72.5c0 36.667 -9.5 61.167 -28.5 73.5s-56.167 18.5 -111.5 18.5h-146z" />
    <glyph glyph-name="otilde" unicode="&#xdb;" horiz-adv-x="1021" 
d="M66 716l147 -0.000976562v-284h148c66 0 121 -10 165 -30s75.833 -46.167 95.5 -78.5s29.5 -67.166 29.5 -104.499c0 -72 -26.333 -128.333 -79 -169c-23.333 -18.667 -49.5 -31.667 -78.5 -39s-68.833 -11 -119.5 -11h-308v716zM213 312.999v-184h144
c54.667 0 92.167 6.5 112.5 19.5s30.5 37.167 30.5 72.5c0 36.667 -9.5 61.167 -28.5 73.5s-56.5 18.5 -112.5 18.5h-146zM769 -0.000976562v716h147v-716h-147z" />
    <glyph glyph-name="otilde" unicode="&#x42b;" horiz-adv-x="1021" 
d="M66 716l147 -0.000976562v-284h148c66 0 121 -10 165 -30s75.833 -46.167 95.5 -78.5s29.5 -67.166 29.5 -104.499c0 -72 -26.333 -128.333 -79 -169c-23.333 -18.667 -49.5 -31.667 -78.5 -39s-68.833 -11 -119.5 -11h-308v716zM213 312.999v-184h144
c54.667 0 92.167 6.5 112.5 19.5s30.5 37.167 30.5 72.5c0 36.667 -9.5 61.167 -28.5 73.5s-56.5 18.5 -112.5 18.5h-146zM769 -0.000976562v716h147v-716h-147z" />
    <glyph glyph-name="uacute" unicode="&#xdc;" horiz-adv-x="742" 
d="M66 716l147 -0.000976562v-284h148c66 0 121 -10 165 -30s75.833 -46.167 95.5 -78.5s29.5 -67.166 29.5 -104.499c0 -72 -26.333 -128.333 -79 -169c-23.333 -18.667 -49.5 -31.667 -78.5 -39s-68.833 -11 -119.5 -11h-308v716zM213 312.999v-184h144
c54.667 0 92.167 6.5 112.5 19.5s30.5 37.167 30.5 72.5c0 36.667 -9.5 61.167 -28.5 73.5s-56.5 18.5 -112.5 18.5h-146z" />
    <glyph glyph-name="uacute" unicode="&#x42c;" horiz-adv-x="742" 
d="M66 716l147 -0.000976562v-284h148c66 0 121 -10 165 -30s75.833 -46.167 95.5 -78.5s29.5 -67.166 29.5 -104.499c0 -72 -26.333 -128.333 -79 -169c-23.333 -18.667 -49.5 -31.667 -78.5 -39s-68.833 -11 -119.5 -11h-308v716zM213 312.999v-184h144
c54.667 0 92.167 6.5 112.5 19.5s30.5 37.167 30.5 72.5c0 36.667 -9.5 61.167 -28.5 73.5s-56.5 18.5 -112.5 18.5h-146z" />
    <glyph glyph-name="ugrave" unicode="&#xdd;" horiz-adv-x="764" 
d="M304 309l-0.00195312 129.002h217c-11.333 54 -29.666 94.5 -54.999 121.5s-61 40.5 -107 40.5c-87.333 0 -140.666 -40.667 -159.999 -122h-147c4 49.333 19.5 93.166 46.5 131.499s63.167 68 108.5 89s95.333 31.5 150 31.5c50.667 0 96 -8.66699 136 -26
s74.167 -42.833 102.5 -76.5s49.666 -73 63.999 -118s21.5 -97.167 21.5 -156.5c0 -112.667 -29.167 -201.834 -87.5 -267.501s-138.5 -98.5 -240.5 -98.5c-107.333 0 -189.333 40 -246 120c-29.333 40 -47.666 87.667 -54.999 143h147c24 -89.333 74.667 -134 152 -134
c49.333 0 89.333 17 120 51s49 81.333 55 142h-222z" />
    <glyph glyph-name="ugrave" unicode="&#x42d;" horiz-adv-x="764" 
d="M304 309l-0.00195312 129.002h217c-11.333 54 -29.666 94.5 -54.999 121.5s-61 40.5 -107 40.5c-87.333 0 -140.666 -40.667 -159.999 -122h-147c4 49.333 19.5 93.166 46.5 131.499s63.167 68 108.5 89s95.333 31.5 150 31.5c50.667 0 96 -8.66699 136 -26
s74.167 -42.833 102.5 -76.5s49.666 -73 63.999 -118s21.5 -97.167 21.5 -156.5c0 -112.667 -29.167 -201.834 -87.5 -267.501s-138.5 -98.5 -240.5 -98.5c-107.333 0 -189.333 40 -246 120c-29.333 40 -47.666 87.667 -54.999 143h147c24 -89.333 74.667 -134 152 -134
c49.333 0 89.333 17 120 51s49 81.333 55 142h-222z" />
    <glyph glyph-name="ucircumflex" unicode="&#xde;" horiz-adv-x="1076" 
d="M313 309l-100.001 -0.00195312v-309h-147v716h147v-278h103c16 90.667 54 162 114 214s135 78 225 78c50 0 95.833 -8.5 137.5 -25.5s77.834 -41.5 108.501 -73.5s54 -70.167 70 -114.5s24 -93.833 24 -148.5c0 -111.333 -31.333 -202.666 -94 -273.999
s-144.667 -107 -246 -107c-63.333 0 -119.833 13.333 -169.5 40s-89.667 64.834 -120 114.501s-47.833 105.5 -52.5 167.5zM463.999 365.998c0 -70 14.6641 -129.166 43.9971 -177.499s77 -72.5 143 -72.5c58 0 104.5 22.667 139.5 68s52.5 105.333 52.5 180
c0 74 -16.833 131.833 -50.5 173.5s-80.167 62.5 -139.5 62.5c-37.333 0 -70.166 -9.33301 -98.499 -28s-50.166 -45.334 -65.499 -80.001s-23.666 -76.667 -24.999 -126z" />
    <glyph glyph-name="ucircumflex" unicode="&#x42e;" horiz-adv-x="1076" 
d="M313 309l-100.001 -0.00195312v-309h-147v716h147v-278h103c16 90.667 54 162 114 214s135 78 225 78c50 0 95.833 -8.5 137.5 -25.5s77.834 -41.5 108.501 -73.5s54 -70.167 70 -114.5s24 -93.833 24 -148.5c0 -111.333 -31.333 -202.666 -94 -273.999
s-144.667 -107 -246 -107c-63.333 0 -119.833 13.333 -169.5 40s-89.667 64.834 -120 114.501s-47.833 105.5 -52.5 167.5zM463.999 365.998c0 -70 14.6641 -129.166 43.9971 -177.499s77 -72.5 143 -72.5c58 0 104.5 22.667 139.5 68s52.5 105.333 52.5 180
c0 74 -16.833 131.833 -50.5 173.5s-80.167 62.5 -139.5 62.5c-37.333 0 -70.166 -9.33301 -98.499 -28s-50.166 -45.334 -65.499 -80.001s-23.666 -76.667 -24.999 -126z" />
    <glyph glyph-name="udieresis" unicode="&#xdf;" horiz-adv-x="718" 
d="M627 716l-0.00195312 -715.999h-147v283h-134c-40.667 0 -69.667 -6 -87 -18s-27.166 -26.667 -29.499 -44s-4.16602 -53 -5.49902 -107c-2 -46.667 -8 -84.667 -18 -114h-164c20 18.667 30 67 30 145v6c0 74.667 9.66699 125.667 29 153c12 15.333 31 28.666 57 39.999
c-36.667 21.333 -62.667 44 -78 68s-23 56.667 -23 98c0 70.667 24.667 125.667 74 165c22 16 45.167 26.833 69.5 32.5s62.5 8.5 114.5 8.5h312zM479.998 587.001l-138 -0.000976562c-51.333 0 -86.5 -6.16699 -105.5 -18.5s-28.5 -36.166 -28.5 -71.499
c0 -36 9.66699 -60.333 29 -73s54.333 -19 105 -19h138v182z" />
    <glyph glyph-name="udieresis" unicode="&#x42f;" horiz-adv-x="718" 
d="M627 716l-0.00195312 -715.999h-147v283h-134c-40.667 0 -69.667 -6 -87 -18s-27.166 -26.667 -29.499 -44s-4.16602 -53 -5.49902 -107c-2 -46.667 -8 -84.667 -18 -114h-164c20 18.667 30 67 30 145v6c0 74.667 9.66699 125.667 29 153c12 15.333 31 28.666 57 39.999
c-36.667 21.333 -62.667 44 -78 68s-23 56.667 -23 98c0 70.667 24.667 125.667 74 165c22 16 45.167 26.833 69.5 32.5s62.5 8.5 114.5 8.5h312zM479.998 587.001l-138 -0.000976562c-51.333 0 -86.5 -6.16699 -105.5 -18.5s-28.5 -36.166 -28.5 -71.499
c0 -36 9.66699 -60.333 29 -73s54.333 -19 105 -19h138v182z" />
    <glyph glyph-name="daggerdbl" unicode="&#xe0;" horiz-adv-x="572" 
d="M48 355c4.66699 121.333 79.999 182.002 225.999 182.002c108.667 0 177.334 -28 206.001 -84c7.33301 -11.333 12.333 -24.833 15 -40.5s4 -38.5 4 -68.5v-263c0 -35.333 8.33301 -62.333 25 -81h-141c-14.667 19.333 -22.667 42.666 -24 69.999
c-28 -32 -54.333 -53.833 -79 -65.5s-56 -17.5 -94 -17.5c-46 0 -83.333 14.667 -112 44s-43 67 -43 113c0 44.667 11.5 80.167 34.5 106.5s58.167 44.5 105.5 54.5c55.333 12.667 117.333 21.334 186 26.001c0 35.333 -4.83301 60.166 -14.5 74.499s-32.5 21.5 -68.5 21.5
c-30 0 -52.5 -5.33301 -67.5 -16s-24.833 -29.334 -29.5 -56.001h-129zM358.999 245.002c-60.667 -9.33301 -94.001 -15.001 -100.001 -17.001c-34 -6.66699 -57.167 -15.167 -69.5 -25.5s-18.5 -26.166 -18.5 -47.499c0 -16.667 6.83301 -30.667 20.5 -42
s30.834 -17 51.501 -17c44 0 74.333 13 91 39s25 62.667 25 110z" />
    <glyph glyph-name="daggerdbl" unicode="&#x2021;" horiz-adv-x="572" 
d="M48 355c4.66699 121.333 79.999 182.002 225.999 182.002c108.667 0 177.334 -28 206.001 -84c7.33301 -11.333 12.333 -24.833 15 -40.5s4 -38.5 4 -68.5v-263c0 -35.333 8.33301 -62.333 25 -81h-141c-14.667 19.333 -22.667 42.666 -24 69.999
c-28 -32 -54.333 -53.833 -79 -65.5s-56 -17.5 -94 -17.5c-46 0 -83.333 14.667 -112 44s-43 67 -43 113c0 44.667 11.5 80.167 34.5 106.5s58.167 44.5 105.5 54.5c55.333 12.667 117.333 21.334 186 26.001c0 35.333 -4.83301 60.166 -14.5 74.499s-32.5 21.5 -68.5 21.5
c-30 0 -52.5 -5.33301 -67.5 -16s-24.833 -29.334 -29.5 -56.001h-129zM358.999 245.002c-60.667 -9.33301 -94.001 -15.001 -100.001 -17.001c-34 -6.66699 -57.167 -15.167 -69.5 -25.5s-18.5 -26.166 -18.5 -47.499c0 -16.667 6.83301 -30.667 20.5 -42
s30.834 -17 51.501 -17c44 0 74.333 13 91 39s25 62.667 25 110z" />
    <glyph glyph-name="daggerdbl" unicode="&#x430;" horiz-adv-x="572" 
d="M48 355c4.66699 121.333 79.999 182.002 225.999 182.002c108.667 0 177.334 -28 206.001 -84c7.33301 -11.333 12.333 -24.833 15 -40.5s4 -38.5 4 -68.5v-263c0 -35.333 8.33301 -62.333 25 -81h-141c-14.667 19.333 -22.667 42.666 -24 69.999
c-28 -32 -54.333 -53.833 -79 -65.5s-56 -17.5 -94 -17.5c-46 0 -83.333 14.667 -112 44s-43 67 -43 113c0 44.667 11.5 80.167 34.5 106.5s58.167 44.5 105.5 54.5c55.333 12.667 117.333 21.334 186 26.001c0 35.333 -4.83301 60.166 -14.5 74.499s-32.5 21.5 -68.5 21.5
c-30 0 -52.5 -5.33301 -67.5 -16s-24.833 -29.334 -29.5 -56.001h-129zM358.999 245.002c-60.667 -9.33301 -94.001 -15.001 -100.001 -17.001c-34 -6.66699 -57.167 -15.167 -69.5 -25.5s-18.5 -26.166 -18.5 -47.499c0 -16.667 6.83301 -30.667 20.5 -42
s30.834 -17 51.501 -17c44 0 74.333 13 91 39s25 62.667 25 110z" />
    <glyph glyph-name="periodcentered" unicode="&#xe1;" horiz-adv-x="629" 
d="M31 289c0 86.667 11.002 159.833 33.002 219.5s53.167 104.167 93.5 133.5s88.5 44 144.5 44c48 0 72 10 72 30h125c0 -36 -15 -67.5 -45 -94.5s-77 -40.5 -141 -40.5c-45.333 0 -80 -10 -104 -30s-39.667 -45.333 -47 -76c23.333 19.333 45.666 34.5 66.999 45.5
s45 16.5 71 16.5c53.333 0 100.666 -11.167 141.999 -33.5s72.833 -54 94.5 -95s32.5 -90.167 32.5 -147.5c0 -84 -24 -150.667 -72 -200s-113.667 -74 -197 -74c-81.333 0 -146.5 27.5 -195.5 82.5s-73.5 128.167 -73.5 219.5zM300.002 426.999
c-39.333 0 -70.333 -14.666 -93 -43.999s-34 -69.333 -34 -120c0 -51.333 11.333 -92 34 -122s53.667 -45 93 -45s70.333 14.667 93 44s34 69.666 34 120.999c0 50.667 -11.333 91 -34 121s-53.667 45 -93 45z" />
    <glyph glyph-name="periodcentered" unicode="&#x431;" horiz-adv-x="629" 
d="M31 289c0 86.667 11.002 159.833 33.002 219.5s53.167 104.167 93.5 133.5s88.5 44 144.5 44c48 0 72 10 72 30h125c0 -36 -15 -67.5 -45 -94.5s-77 -40.5 -141 -40.5c-45.333 0 -80 -10 -104 -30s-39.667 -45.333 -47 -76c23.333 19.333 45.666 34.5 66.999 45.5
s45 16.5 71 16.5c53.333 0 100.666 -11.167 141.999 -33.5s72.833 -54 94.5 -95s32.5 -90.167 32.5 -147.5c0 -84 -24 -150.667 -72 -200s-113.667 -74 -197 -74c-81.333 0 -146.5 27.5 -195.5 82.5s-73.5 128.167 -73.5 219.5zM300.002 426.999
c-39.333 0 -70.333 -14.666 -93 -43.999s-34 -69.333 -34 -120c0 -51.333 11.333 -92 34 -122s53.667 -45 93 -45s70.333 14.667 93 44s34 69.666 34 120.999c0 50.667 -11.333 91 -34 121s-53.667 45 -93 45z" />
    <glyph glyph-name="quotesinglbase" unicode="&#xe2;" horiz-adv-x="572" 
d="M66 524l258 0.000976562c58.667 0 106.5 -11.667 143.5 -35s55.5 -55 55.5 -95c0 -30 -7.16699 -54.667 -21.5 -74s-37.5 -36.333 -69.5 -51c29.333 -10.667 53 -27 71 -49s27 -47.333 27 -76c0 -36.667 -15.5 -69.834 -46.5 -99.501s-71.833 -44.5 -122.5 -44.5h-295
v524zM206 101.001h112c48 0 72 19.667 72 59c0 38 -18.333 57 -55 57h-129v-116zM206 423.001v-108h118c37.333 0 57 18.333 59 55c0 35.333 -19 53 -57 53h-120z" />
    <glyph glyph-name="quotesinglbase" unicode="&#x201a;" horiz-adv-x="572" 
d="M66 524l258 0.000976562c58.667 0 106.5 -11.667 143.5 -35s55.5 -55 55.5 -95c0 -30 -7.16699 -54.667 -21.5 -74s-37.5 -36.333 -69.5 -51c29.333 -10.667 53 -27 71 -49s27 -47.333 27 -76c0 -36.667 -15.5 -69.834 -46.5 -99.501s-71.833 -44.5 -122.5 -44.5h-295
v524zM206 101.001h112c48 0 72 19.667 72 59c0 38 -18.333 57 -55 57h-129v-116zM206 423.001v-108h118c37.333 0 57 18.333 59 55c0 35.333 -19 53 -57 53h-120z" />
    <glyph glyph-name="quotesinglbase" unicode="&#x432;" horiz-adv-x="572" 
d="M66 524l258 0.000976562c58.667 0 106.5 -11.667 143.5 -35s55.5 -55 55.5 -95c0 -30 -7.16699 -54.667 -21.5 -74s-37.5 -36.333 -69.5 -51c29.333 -10.667 53 -27 71 -49s27 -47.333 27 -76c0 -36.667 -15.5 -69.834 -46.5 -99.501s-71.833 -44.5 -122.5 -44.5h-295
v524zM206 101.001h112c48 0 72 19.667 72 59c0 38 -18.333 57 -55 57h-129v-116zM206 423.001v-108h118c37.333 0 57 18.333 59 55c0 35.333 -19 53 -57 53h-120z" />
    <glyph glyph-name="quotedblbase" unicode="&#xe3;" horiz-adv-x="572" 
d="M524 171c-0.666992 -58 -22.333 -103.166 -65 -135.499s-102.334 -48.5 -179.001 -48.5c-44 0 -81 5 -111 15c-36.667 12 -67.5 33.167 -92.5 63.5s-37.5 61.833 -37.5 94.5c0 28 8.33301 53.167 25 75.5s39.334 38.833 68.001 49.5l218 70
c13.333 4.66699 20 13.334 20 26.001c0 16 -7.16699 28.833 -21.5 38.5s-34.833 14.5 -61.5 14.5c-54 0 -84.667 -24 -92 -72h-136c6 38.667 15 67 27 85c16.667 29.333 42.167 51.666 76.5 66.999s74.5 23 120.5 23c65.333 0 118.833 -15.833 160.5 -47.5
s62.5 -72.167 62.5 -121.5c0 -58.667 -36.667 -99.667 -110 -123l-153 -54c-28 -8.66699 -45.167 -15.334 -51.5 -20.001s-9.5 -13.334 -9.5 -26.001c0 -15.333 8.83301 -28.333 26.5 -39s40.167 -16 67.5 -16c34 0 59.333 6.33301 76 19s27.667 33.334 33 62.001h139z" />
    <glyph glyph-name="quotedblbase" unicode="&#x201e;" horiz-adv-x="572" 
d="M524 171c-0.666992 -58 -22.333 -103.166 -65 -135.499s-102.334 -48.5 -179.001 -48.5c-44 0 -81 5 -111 15c-36.667 12 -67.5 33.167 -92.5 63.5s-37.5 61.833 -37.5 94.5c0 28 8.33301 53.167 25 75.5s39.334 38.833 68.001 49.5l218 70
c13.333 4.66699 20 13.334 20 26.001c0 16 -7.16699 28.833 -21.5 38.5s-34.833 14.5 -61.5 14.5c-54 0 -84.667 -24 -92 -72h-136c6 38.667 15 67 27 85c16.667 29.333 42.167 51.666 76.5 66.999s74.5 23 120.5 23c65.333 0 118.833 -15.833 160.5 -47.5
s62.5 -72.167 62.5 -121.5c0 -58.667 -36.667 -99.667 -110 -123l-153 -54c-28 -8.66699 -45.167 -15.334 -51.5 -20.001s-9.5 -13.334 -9.5 -26.001c0 -15.333 8.83301 -28.333 26.5 -39s40.167 -16 67.5 -16c34 0 59.333 6.33301 76 19s27.667 33.334 33 62.001h139z" />
    <glyph glyph-name="quotedblbase" unicode="&#x433;" horiz-adv-x="572" 
d="M524 171c-0.666992 -58 -22.333 -103.166 -65 -135.499s-102.334 -48.5 -179.001 -48.5c-44 0 -81 5 -111 15c-36.667 12 -67.5 33.167 -92.5 63.5s-37.5 61.833 -37.5 94.5c0 28 8.33301 53.167 25 75.5s39.334 38.833 68.001 49.5l218 70
c13.333 4.66699 20 13.334 20 26.001c0 16 -7.16699 28.833 -21.5 38.5s-34.833 14.5 -61.5 14.5c-54 0 -84.667 -24 -92 -72h-136c6 38.667 15 67 27 85c16.667 29.333 42.167 51.666 76.5 66.999s74.5 23 120.5 23c65.333 0 118.833 -15.833 160.5 -47.5
s62.5 -72.167 62.5 -121.5c0 -58.667 -36.667 -99.667 -110 -123l-153 -54c-28 -8.66699 -45.167 -15.334 -51.5 -20.001s-9.5 -13.334 -9.5 -26.001c0 -15.333 8.83301 -28.333 26.5 -39s40.167 -16 67.5 -16c34 0 59.333 6.33301 76 19s27.667 33.334 33 62.001h139z" />
    <glyph glyph-name="perthousand" unicode="&#xe4;" horiz-adv-x="596" 
d="M42 -57l148.999 0.00195312c8.66699 -18.667 19.334 -31.667 32.001 -39s30.334 -11 53.001 -11c45.333 0 76.333 12.167 93 36.5s25 69.166 25 134.499v22c-15.333 -30 -35.333 -52.5 -60 -67.5s-55 -22.5 -91 -22.5c-60.667 0 -111.167 24.667 -151.5 74
s-60.5 111.333 -60.5 186c0 85.333 19.167 153.5 57.5 204.5s89.833 76.5 154.5 76.5c35.333 0 64.833 -7.16699 88.5 -21.5s44.5 -37.833 62.5 -70.5v79h140v-447c0 -58.667 -1.83301 -99.834 -5.5 -123.501s-11.834 -46.167 -24.501 -67.5
c-38 -67.333 -114 -101 -228 -101c-64.667 0 -117.167 11.667 -157.5 35s-65.833 64.333 -76.5 123zM172.999 265.002c0 -46.667 9.83301 -83.166 29.5 -109.499s46.5 -39.5 80.5 -39.5s60.333 13.167 79 39.5s28 63.5 28 111.5c0 47.333 -9.5 84.333 -28.5 111
s-46.167 40 -81.5 40c-34 0 -60.333 -13.333 -79 -40s-28 -64.334 -28 -113.001z" />
    <glyph glyph-name="perthousand" unicode="&#x2030;" horiz-adv-x="596" 
d="M42 -57l148.999 0.00195312c8.66699 -18.667 19.334 -31.667 32.001 -39s30.334 -11 53.001 -11c45.333 0 76.333 12.167 93 36.5s25 69.166 25 134.499v22c-15.333 -30 -35.333 -52.5 -60 -67.5s-55 -22.5 -91 -22.5c-60.667 0 -111.167 24.667 -151.5 74
s-60.5 111.333 -60.5 186c0 85.333 19.167 153.5 57.5 204.5s89.833 76.5 154.5 76.5c35.333 0 64.833 -7.16699 88.5 -21.5s44.5 -37.833 62.5 -70.5v79h140v-447c0 -58.667 -1.83301 -99.834 -5.5 -123.501s-11.834 -46.167 -24.501 -67.5
c-38 -67.333 -114 -101 -228 -101c-64.667 0 -117.167 11.667 -157.5 35s-65.833 64.333 -76.5 123zM172.999 265.002c0 -46.667 9.83301 -83.166 29.5 -109.499s46.5 -39.5 80.5 -39.5s60.333 13.167 79 39.5s28 63.5 28 111.5c0 47.333 -9.5 84.333 -28.5 111
s-46.167 40 -81.5 40c-34 0 -60.333 -13.333 -79 -40s-28 -64.334 -28 -113.001z" />
    <glyph glyph-name="perthousand" unicode="&#x434;" horiz-adv-x="596" 
d="M42 -57l148.999 0.00195312c8.66699 -18.667 19.334 -31.667 32.001 -39s30.334 -11 53.001 -11c45.333 0 76.333 12.167 93 36.5s25 69.166 25 134.499v22c-15.333 -30 -35.333 -52.5 -60 -67.5s-55 -22.5 -91 -22.5c-60.667 0 -111.167 24.667 -151.5 74
s-60.5 111.333 -60.5 186c0 85.333 19.167 153.5 57.5 204.5s89.833 76.5 154.5 76.5c35.333 0 64.833 -7.16699 88.5 -21.5s44.5 -37.833 62.5 -70.5v79h140v-447c0 -58.667 -1.83301 -99.834 -5.5 -123.501s-11.834 -46.167 -24.501 -67.5
c-38 -67.333 -114 -101 -228 -101c-64.667 0 -117.167 11.667 -157.5 35s-65.833 64.333 -76.5 123zM172.999 265.002c0 -46.667 9.83301 -83.166 29.5 -109.499s46.5 -39.5 80.5 -39.5s60.333 13.167 79 39.5s28 63.5 28 111.5c0 47.333 -9.5 84.333 -28.5 111
s-46.167 40 -81.5 40c-34 0 -60.333 -13.333 -79 -40s-28 -64.334 -28 -113.001z" />
    <glyph glyph-name="Acircumflex" unicode="&#xe5;" 
d="M175 236c2 -31.333 6.99902 -57.501 14.999 -78.501s19.5 -36.5 34.5 -46.5s32.833 -15 53.5 -15c19.333 0 34.833 4 46.5 12s23.834 23 36.501 45h143c-22.667 -56 -52.5 -97.667 -89.5 -125s-83.833 -41 -140.5 -41c-76.667 0 -136.334 24.167 -179.001 72.5
s-64 114.833 -64 199.5c0 88 21.333 156.333 64 205s102.334 73 179.001 73c78 0 137.667 -23.5 179 -70.5s62 -115.5 62 -205.5c0 -9.33301 -0.666992 -17.666 -2 -24.999h-338zM174.999 325.999h192.999c-2.66699 32 -12.167 56.833 -28.5 74.5s-38.833 26.5 -67.5 26.5
c-57.333 0 -89.666 -33.667 -96.999 -101z" />
    <glyph glyph-name="Acircumflex" unicode="&#x435;" 
d="M175 236c2 -31.333 6.99902 -57.501 14.999 -78.501s19.5 -36.5 34.5 -46.5s32.833 -15 53.5 -15c19.333 0 34.833 4 46.5 12s23.834 23 36.501 45h143c-22.667 -56 -52.5 -97.667 -89.5 -125s-83.833 -41 -140.5 -41c-76.667 0 -136.334 24.167 -179.001 72.5
s-64 114.833 -64 199.5c0 88 21.333 156.333 64 205s102.334 73 179.001 73c78 0 137.667 -23.5 179 -70.5s62 -115.5 62 -205.5c0 -9.33301 -0.666992 -17.666 -2 -24.999h-338zM174.999 325.999h192.999c-2.66699 32 -12.167 56.833 -28.5 74.5s-38.833 26.5 -67.5 26.5
c-57.333 0 -89.666 -33.667 -96.999 -101z" />
    <glyph glyph-name="Ecircumflex" unicode="&#xe6;" horiz-adv-x="898" 
d="M368 0v169l-55 61l-116 -230h-168l197 320l-197 204h168l171 -204v204h140v-204l173 204h167l-197 -204l197 -320h-167l-116 230l-57 -61v-169h-140z" />
    <glyph glyph-name="Ecircumflex" unicode="&#x436;" horiz-adv-x="898" 
d="M368 0v169l-55 61l-116 -230h-168l197 320l-197 204h168l171 -204v204h140v-204l173 204h167l-197 -204l197 -320h-167l-116 230l-57 -61v-169h-140z" />
    <glyph glyph-name="Aacute" unicode="&#xe7;" horiz-adv-x="528" 
d="M480 153c0 -46 -18.4971 -83.998 -55.4971 -113.998s-88.833 -45 -155.5 -45c-75.333 0 -132.333 15.167 -171 45.5s-58 70.5 -58 120.5h142c0 -16 7.5 -31 22.5 -45s35.833 -21 62.5 -21c26 0 45 6.5 57 19.5s18 28.5 18 46.5c0 38 -18.333 57 -55 57h-40v98h27
c37.333 0 57 18.333 59 55c0 17.333 -6.33301 32 -19 44s-29 18 -49 18c-20.667 0 -39.334 -6.33301 -56.001 -19s-25 -27 -25 -43h-132c0 43.333 19.167 80.166 57.5 110.499s90.166 45.5 155.499 45.5s116.333 -11.667 153 -35s55 -55.666 55 -96.999
c0 -29.333 -7.83301 -55.333 -23.5 -78s-37.834 -38.334 -66.501 -47.001c28 -7.33301 51.167 -21.333 69.5 -42s27.5 -45.334 27.5 -74.001z" />
    <glyph glyph-name="Aacute" unicode="&#x437;" horiz-adv-x="528" 
d="M480 153c0 -46 -18.4971 -83.998 -55.4971 -113.998s-88.833 -45 -155.5 -45c-75.333 0 -132.333 15.167 -171 45.5s-58 70.5 -58 120.5h142c0 -16 7.5 -31 22.5 -45s35.833 -21 62.5 -21c26 0 45 6.5 57 19.5s18 28.5 18 46.5c0 38 -18.333 57 -55 57h-40v98h27
c37.333 0 57 18.333 59 55c0 17.333 -6.33301 32 -19 44s-29 18 -49 18c-20.667 0 -39.334 -6.33301 -56.001 -19s-25 -27 -25 -43h-132c0 43.333 19.167 80.166 57.5 110.499s90.166 45.5 155.499 45.5s116.333 -11.667 153 -35s55 -55.666 55 -96.999
c0 -29.333 -7.83301 -55.333 -23.5 -78s-37.834 -38.334 -66.501 -47.001c28 -7.33301 51.167 -21.333 69.5 -42s27.5 -45.334 27.5 -74.001z" />
    <glyph glyph-name="Edieresis" unicode="&#xe8;" horiz-adv-x="585" 
d="M61 524h139.999v-305c0 -40.667 6.33301 -69.5 19 -86.5s35 -25.5 67 -25.5c43.333 0 72 15 86 45s21 69.333 21 118v254h140v-524h-140v81c-20 -33.333 -42 -57.333 -66 -72s-54.333 -22 -91 -22c-35.333 0 -67.166 8.66699 -95.499 26s-48.5 39.333 -60.5 66
c-13.333 26 -20 69 -20 129v316z" />
    <glyph glyph-name="Edieresis" unicode="&#x438;" horiz-adv-x="585" 
d="M61 524h139.999v-305c0 -40.667 6.33301 -69.5 19 -86.5s35 -25.5 67 -25.5c43.333 0 72 15 86 45s21 69.333 21 118v254h140v-524h-140v81c-20 -33.333 -42 -57.333 -66 -72s-54.333 -22 -91 -22c-35.333 0 -67.166 8.66699 -95.499 26s-48.5 39.333 -60.5 66
c-13.333 26 -20 69 -20 129v316z" />
    <glyph glyph-name="Egrave" unicode="&#xe9;" horiz-adv-x="596" 
d="M61 524h139.999v-305c0 -40.667 6.33301 -69.5 19 -86.5s35 -25.5 67 -25.5c43.333 0 72 15 86 45s21 69.333 21 118v254h140v-524h-140v81c-20 -33.333 -42 -57.333 -66 -72s-54.333 -22 -91 -22c-35.333 0 -67.166 8.66699 -95.499 26s-48.5 39.333 -60.5 66
c-13.333 26 -20 69 -20 129v316zM290.999 585c-44 0 -79.333 12.999 -106 38.999s-40 56.667 -40 92h103c0 -5.33301 4.16699 -12.166 12.5 -20.499s18.5 -12.5 30.5 -12.5c11.333 0 20.5 4 27.5 12s10.5 15 10.5 21h105c0 -35.333 -12.667 -66 -38 -92
s-60.333 -39 -105 -39z" />
    <glyph glyph-name="Egrave" unicode="&#x439;" horiz-adv-x="596" 
d="M61 524h139.999v-305c0 -40.667 6.33301 -69.5 19 -86.5s35 -25.5 67 -25.5c43.333 0 72 15 86 45s21 69.333 21 118v254h140v-524h-140v81c-20 -33.333 -42 -57.333 -66 -72s-54.333 -22 -91 -22c-35.333 0 -67.166 8.66699 -95.499 26s-48.5 39.333 -60.5 66
c-13.333 26 -20 69 -20 129v316zM290.999 585c-44 0 -79.333 12.999 -106 38.999s-40 56.667 -40 92h103c0 -5.33301 4.16699 -12.166 12.5 -20.499s18.5 -12.5 30.5 -12.5c11.333 0 20.5 4 27.5 12s10.5 15 10.5 21h105c0 -35.333 -12.667 -66 -38 -92
s-60.333 -39 -105 -39z" />
    <glyph glyph-name="Iacute" unicode="&#xea;" horiz-adv-x="596" 
d="M66 524h140v-204l173 204h166l-195 -204l195 -320h-166l-116 230l-57 -61v-169h-140v524z" />
    <glyph glyph-name="Iacute" unicode="&#x43a;" horiz-adv-x="596" 
d="M66 524h140v-204l173 204h166l-195 -204l195 -320h-166l-116 230l-57 -61v-169h-140v524z" />
    <glyph glyph-name="Icircumflex" unicode="&#xeb;" horiz-adv-x="596" 
d="M539 524l0.00292969 -524h-140v267c0 100.667 -36 151 -108 151c-56.667 0 -85 -34.333 -85 -103v-315h-140v326c0 49.333 5 86.666 15 111.999c9.33301 28.667 29.166 52.334 59.499 71.001s63.833 28 100.5 28c35.333 0 64.666 -6.66699 87.999 -20
s46.666 -37.333 69.999 -72v79h140z" />
    <glyph glyph-name="Icircumflex" unicode="&#x43b;" horiz-adv-x="596" 
d="M539 524l0.00292969 -524h-140v267c0 100.667 -36 151 -108 151c-56.667 0 -85 -34.333 -85 -103v-315h-140v326c0 49.333 5 86.666 15 111.999c9.33301 28.667 29.166 52.334 59.499 71.001s63.833 28 100.5 28c35.333 0 64.666 -6.66699 87.999 -20
s46.666 -37.333 69.999 -72v79h140z" />
    <glyph glyph-name="Idieresis" unicode="&#xec;" horiz-adv-x="764" 
d="M394 149l184 375h140v-524h-140v307l-140 -307h-90l-142 307v-307h-140v524h140z" />
    <glyph glyph-name="Idieresis" unicode="&#x43c;" horiz-adv-x="764" 
d="M394 149l184 375h140v-524h-140v307l-140 -307h-90l-142 307v-307h-140v524h140z" />
    <glyph glyph-name="Igrave" unicode="&#xed;" horiz-adv-x="596" 
d="M206 236v-236h-140v524h140v-198h193v198h140v-524h-140v236h-193z" />
    <glyph glyph-name="Igrave" unicode="&#x43d;" horiz-adv-x="596" 
d="M206 236v-236h-140v524h140v-198h193v198h140v-524h-140v236h-193z" />
    <glyph glyph-name="Oacute" unicode="&#xee;" horiz-adv-x="618" 
d="M31 263c0 54.667 10.832 102.832 32.499 144.499s53.334 73.667 95.001 96s88.834 33.5 141.501 33.5c53.333 0 100.666 -11.167 141.999 -33.5s72.833 -54 94.5 -95s32.5 -90.167 32.5 -147.5c0 -84 -24 -150.667 -72 -200s-113.667 -74 -197 -74
c-82.667 0 -148.167 24.833 -196.5 74.5s-72.5 116.834 -72.5 201.501zM172.999 262.998c0 -51.333 11.333 -91.999 34 -121.999s53.667 -45 93 -45s70.333 14.667 93 44s34 69.666 34 120.999c0 50.667 -11.333 91 -34 121s-53.667 45 -93 45s-70.333 -14.667 -93 -44
s-34 -69.333 -34 -120z" />
    <glyph glyph-name="Oacute" unicode="&#x43e;" horiz-adv-x="618" 
d="M31 263c0 54.667 10.832 102.832 32.499 144.499s53.334 73.667 95.001 96s88.834 33.5 141.501 33.5c53.333 0 100.666 -11.167 141.999 -33.5s72.833 -54 94.5 -95s32.5 -90.167 32.5 -147.5c0 -84 -24 -150.667 -72 -200s-113.667 -74 -197 -74
c-82.667 0 -148.167 24.833 -196.5 74.5s-72.5 116.834 -72.5 201.501zM172.999 262.998c0 -51.333 11.333 -91.999 34 -121.999s53.667 -45 93 -45s70.333 14.667 93 44s34 69.666 34 120.999c0 50.667 -11.333 91 -34 121s-53.667 45 -93 45s-70.333 -14.667 -93 -44
s-34 -69.333 -34 -120z" />
    <glyph glyph-name="Ocircumflex" unicode="&#xef;" horiz-adv-x="596" 
d="M66 524l140 0.000976562v-79c24 34 47.833 57.833 71.5 71.5s52.5 20.5 86.5 20.5c36.667 0 70.167 -9.33301 100.5 -28s50.833 -42.334 61.5 -71.001c8.66699 -26.667 13 -64 13 -112v-326h-140v315c0 35.333 -6.66699 61.333 -20 78s-34.333 25 -63 25
c-73.333 0 -110 -50.333 -110 -151v-267h-140v524z" />
    <glyph glyph-name="Ocircumflex" unicode="&#x43f;" horiz-adv-x="596" 
d="M66 524l140 0.000976562v-79c24 34 47.833 57.833 71.5 71.5s52.5 20.5 86.5 20.5c36.667 0 70.167 -9.33301 100.5 -28s50.833 -42.334 61.5 -71.001c8.66699 -26.667 13 -64 13 -112v-326h-140v315c0 35.333 -6.66699 61.333 -20 78s-34.333 25 -63 25
c-73.333 0 -110 -50.333 -110 -151v-267h-140v524z" />
    <glyph glyph-name="apple" unicode="&#xf0;" horiz-adv-x="618" 
d="M66 524l140 -0.000976562v-71c26 30 51.167 51.5 75.5 64.5s51.833 19.5 82.5 19.5c64.667 0 115 -23.833 151 -71.5s54 -114.5 54 -200.5c0 -56 -8.83301 -105.167 -26.5 -147.5s-42.667 -74.666 -75 -96.999s-70.5 -33.5 -114.5 -33.5
c-31.333 0 -58.5 6.66699 -81.5 20s-44.833 36 -65.5 68v-277h-140v726zM316 417.999c-36.667 0 -64.834 -13.5 -84.501 -40.5s-29.5 -65.833 -29.5 -116.5c0 -50 9.83301 -88.167 29.5 -114.5s47.834 -39.5 84.501 -39.5c35.333 0 62.666 13.333 81.999 40
s29 64.667 29 114c0 50 -9.66699 88.667 -29 116s-46.666 41 -81.999 41z" />
    <glyph glyph-name="apple" unicode="&#x440;" horiz-adv-x="618" 
d="M66 524l140 -0.000976562v-71c26 30 51.167 51.5 75.5 64.5s51.833 19.5 82.5 19.5c64.667 0 115 -23.833 151 -71.5s54 -114.5 54 -200.5c0 -56 -8.83301 -105.167 -26.5 -147.5s-42.667 -74.666 -75 -96.999s-70.5 -33.5 -114.5 -33.5
c-31.333 0 -58.5 6.66699 -81.5 20s-44.833 36 -65.5 68v-277h-140v726zM316 417.999c-36.667 0 -64.834 -13.5 -84.501 -40.5s-29.5 -65.833 -29.5 -116.5c0 -50 9.83301 -88.167 29.5 -114.5s47.834 -39.5 84.501 -39.5c35.333 0 62.666 13.333 81.999 40
s29 64.667 29 114c0 50 -9.66699 88.667 -29 116s-46.666 41 -81.999 41z" />
    <glyph glyph-name="Ograve" unicode="&#xf1;" horiz-adv-x="572" 
d="M515 337l-137.999 0.00195312c-7.33301 33.333 -18 56.666 -32 69.999s-34 20 -60 20c-36 0 -63.667 -14.5 -83 -43.5s-29 -69.833 -29 -122.5c0 -110 36.667 -165 110 -165c25.333 0 45.333 7.66699 60 23s26 40.666 34 75.999h138c-10 -68 -35.333 -119.667 -76 -155
s-95 -53 -163 -53c-51.333 0 -95.333 10.667 -132 32s-64.667 52.5 -84 93.5s-29 90.5 -29 148.5c0 56 9.83301 105 29.5 147s48.167 74 85.5 96s80.666 33 129.999 33c71.333 0 127.5 -17.167 168.5 -51.5s64.5 -83.833 70.5 -148.5z" />
    <glyph glyph-name="Ograve" unicode="&#x441;" horiz-adv-x="572" 
d="M515 337l-137.999 0.00195312c-7.33301 33.333 -18 56.666 -32 69.999s-34 20 -60 20c-36 0 -63.667 -14.5 -83 -43.5s-29 -69.833 -29 -122.5c0 -110 36.667 -165 110 -165c25.333 0 45.333 7.66699 60 23s26 40.666 34 75.999h138c-10 -68 -35.333 -119.667 -76 -155
s-95 -53 -163 -53c-51.333 0 -95.333 10.667 -132 32s-64.667 52.5 -84 93.5s-29 90.5 -29 148.5c0 56 9.83301 105 29.5 147s48.167 74 85.5 96s80.666 33 129.999 33c71.333 0 127.5 -17.167 168.5 -51.5s64.5 -83.833 70.5 -148.5z" />
    <glyph glyph-name="Uacute" unicode="&#xf2;" horiz-adv-x="854" 
d="M66 524l140.001 -0.000976562v-73c25.333 32.667 48.5 55.167 69.5 67.5s46.167 18.5 75.5 18.5c68.667 0 113.667 -30 135 -90c23.333 32 46.833 55 70.5 69s51.5 21 83.5 21c54 0 95.167 -17 123.5 -51s42.5 -82 42.5 -144v-342h-140v305
c0 40.667 -5.5 69.667 -16.5 87s-30.167 26 -57.5 26c-30.667 0 -52.667 -11.167 -66 -33.5s-20 -60.833 -20 -115.5v-269h-140v313c0 38.667 -5.33301 65.834 -16 81.501s-29.334 23.5 -56.001 23.5c-31.333 0 -53.833 -11.333 -67.5 -34s-20.5 -60 -20.5 -112v-272h-140
v524z" />
    <glyph glyph-name="Uacute" unicode="&#x442;" horiz-adv-x="854" 
d="M66 524l140.001 -0.000976562v-73c25.333 32.667 48.5 55.167 69.5 67.5s46.167 18.5 75.5 18.5c68.667 0 113.667 -30 135 -90c23.333 32 46.833 55 70.5 69s51.5 21 83.5 21c54 0 95.167 -17 123.5 -51s42.5 -82 42.5 -144v-342h-140v305
c0 40.667 -5.5 69.667 -16.5 87s-30.167 26 -57.5 26c-30.667 0 -52.667 -11.167 -66 -33.5s-20 -60.833 -20 -115.5v-269h-140v313c0 38.667 -5.33301 65.834 -16 81.501s-29.334 23.5 -56.001 23.5c-31.333 0 -53.833 -11.333 -67.5 -34s-20.5 -60 -20.5 -112v-272h-140
v524z" />
    <glyph glyph-name="Ucircumflex" unicode="&#xf3;" horiz-adv-x="572" 
d="M166 524l84.002 -296c8.66699 -25.333 17.334 -59 26.001 -101c1.33301 7.33301 3.66602 17.666 6.99902 30.999l10 39.5c3.33301 13 5.66602 23.167 6.99902 30.5l86 296h148l-172 -489c-39.333 -121.333 -72.333 -194.333 -99 -219
c-20.667 -20.667 -56.667 -31 -108 -31c-10 0.666992 -20.833 1.33398 -32.5 2.00098s-23.834 1 -36.501 1v111c6 0 14 -0.666992 24 -2s17.333 -2 22 -2c21.333 0 36.833 5.5 46.5 16.5s18.167 32.5 25.5 64.5l-191 548h153z" />
    <glyph glyph-name="Ucircumflex" unicode="&#x443;" horiz-adv-x="572" 
d="M166 524l84.002 -296c8.66699 -25.333 17.334 -59 26.001 -101c1.33301 7.33301 3.66602 17.666 6.99902 30.999l10 39.5c3.33301 13 5.66602 23.167 6.99902 30.5l86 296h148l-172 -489c-39.333 -121.333 -72.333 -194.333 -99 -219
c-20.667 -20.667 -56.667 -31 -108 -31c-10 0.666992 -20.833 1.33398 -32.5 2.00098s-23.834 1 -36.501 1v111c6 0 14 -0.666992 24 -2s17.333 -2 22 -2c21.333 0 36.833 5.5 46.5 16.5s18.167 32.5 25.5 64.5l-191 548h153z" />
    <glyph glyph-name="Ugrave" unicode="&#xf4;" horiz-adv-x="955" 
d="M399 -202l0.000976562 276.999c-20.667 -32.667 -42.167 -55.5 -64.5 -68.5s-49.166 -19.5 -80.499 -19.5c-66.667 0 -119.5 25 -158.5 75s-58.5 117.667 -58.5 203c0 86 18.167 152.833 54.5 200.5s86.166 71.5 149.499 71.5c31.333 0 59.666 -6.66699 84.999 -20
s49.666 -34.666 72.999 -63.999v263h140v-263c26 30 51.167 51.5 75.5 64.5s52.5 19.5 84.5 19.5c63.333 0 113 -23.833 149 -71.5s54 -114.5 54 -200.5s-19.167 -153.833 -57.5 -203.5s-91.166 -74.5 -158.499 -74.5c-31.333 0 -58.333 6.5 -81 19.5
s-44.667 35.833 -66 68.5v-277h-140zM291.001 417.999c-36 0 -63.832 -13.667 -83.499 -41s-29.5 -66 -29.5 -116c0 -49.333 10 -87.333 30 -114s47.667 -40 83 -40s63.166 13.5 83.499 40.5s30.5 64.833 30.5 113.5s-10 87 -30 115s-48 42 -84 42zM650.002 417.999
c-37.333 0 -65.833 -13.5 -85.5 -40.5s-29.5 -65.833 -29.5 -116.5c0 -50 9.83301 -88.167 29.5 -114.5s48.167 -39.5 85.5 -39.5c35.333 0 62.833 13.5 82.5 40.5s29.5 64.833 29.5 113.5s-9.83301 87 -29.5 115s-47.167 42 -82.5 42z" />
    <glyph glyph-name="Ugrave" unicode="&#x444;" horiz-adv-x="955" 
d="M399 -202l0.000976562 276.999c-20.667 -32.667 -42.167 -55.5 -64.5 -68.5s-49.166 -19.5 -80.499 -19.5c-66.667 0 -119.5 25 -158.5 75s-58.5 117.667 -58.5 203c0 86 18.167 152.833 54.5 200.5s86.166 71.5 149.499 71.5c31.333 0 59.666 -6.66699 84.999 -20
s49.666 -34.666 72.999 -63.999v263h140v-263c26 30 51.167 51.5 75.5 64.5s52.5 19.5 84.5 19.5c63.333 0 113 -23.833 149 -71.5s54 -114.5 54 -200.5s-19.167 -153.833 -57.5 -203.5s-91.166 -74.5 -158.499 -74.5c-31.333 0 -58.333 6.5 -81 19.5
s-44.667 35.833 -66 68.5v-277h-140zM291.001 417.999c-36 0 -63.832 -13.667 -83.499 -41s-29.5 -66 -29.5 -116c0 -49.333 10 -87.333 30 -114s47.667 -40 83 -40s63.166 13.5 83.499 40.5s30.5 64.833 30.5 113.5s-10 87 -30 115s-48 42 -84 42zM650.002 417.999
c-37.333 0 -65.833 -13.5 -85.5 -40.5s-29.5 -65.833 -29.5 -116.5c0 -50 9.83301 -88.167 29.5 -114.5s48.167 -39.5 85.5 -39.5c35.333 0 62.833 13.5 82.5 40.5s29.5 64.833 29.5 113.5s-9.83301 87 -29.5 115s-47.167 42 -82.5 42z" />
    <glyph glyph-name="dotlessi" unicode="&#xf5;" horiz-adv-x="585" 
d="M272 173c-10 -25.333 -24.667 -54.333 -44 -87l-51 -86h-164l177 265l-166 259h166c23.333 -40 40.833 -71 52.5 -93s21.5 -45.333 29.5 -70c3.33301 10 10.833 26.333 22.5 49l37 70c13 24 20.833 38.667 23.5 44h169l-169 -259l179 -265h-166l-50 86
c-16 25.333 -31.333 54.333 -46 87z" />
    <glyph glyph-name="dotlessi" unicode="&#x445;" horiz-adv-x="585" 
d="M272 173c-10 -25.333 -24.667 -54.333 -44 -87l-51 -86h-164l177 265l-166 259h166c23.333 -40 40.833 -71 52.5 -93s21.5 -45.333 29.5 -70c3.33301 10 10.833 26.333 22.5 49l37 70c13 24 20.833 38.667 23.5 44h169l-169 -259l179 -265h-166l-50 86
c-16 25.333 -31.333 54.333 -46 87z" />
    <glyph glyph-name="circumflex" unicode="&#xf6;" horiz-adv-x="640" 
d="M534 118h63.999v-293h-140v175h-64v81c-20 -33.333 -42 -57.333 -66 -72s-54.333 -22 -91 -22c-35.333 0 -67.166 8.66699 -95.499 26s-48.5 39.333 -60.5 66c-13.333 26 -20 69 -20 129v316h140v-305c0 -40.667 6.33301 -69.5 19 -86.5s35 -25.5 67 -25.5
c43.333 0 72 15 86 45s21 69.333 21 118v254h140v-406z" />
    <glyph glyph-name="circumflex" unicode="&#x446;" horiz-adv-x="640" 
d="M534 118h63.999v-293h-140v175h-64v81c-20 -33.333 -42 -57.333 -66 -72s-54.333 -22 -91 -22c-35.333 0 -67.166 8.66699 -95.499 26s-48.5 39.333 -60.5 66c-13.333 26 -20 69 -20 129v316h140v-305c0 -40.667 6.33301 -69.5 19 -86.5s35 -25.5 67 -25.5
c43.333 0 72 15 86 45s21 69.333 21 118v254h140v-406z" />
    <glyph glyph-name="circumflex" unicode="&#x2c6;" horiz-adv-x="640" 
d="M534 118h63.999v-293h-140v175h-64v81c-20 -33.333 -42 -57.333 -66 -72s-54.333 -22 -91 -22c-35.333 0 -67.166 8.66699 -95.499 26s-48.5 39.333 -60.5 66c-13.333 26 -20 69 -20 129v316h140v-305c0 -40.667 6.33301 -69.5 19 -86.5s35 -25.5 67 -25.5
c43.333 0 72 15 86 45s21 69.333 21 118v254h140v-406z" />
    <glyph glyph-name="tilde" unicode="&#xf7;" horiz-adv-x="585" 
d="M61 524h139.999v-125c0 -40.667 6.33301 -69.5 19 -86.5s35 -25.5 67 -25.5c44 0 72.833 14.833 86.5 44.5s20.5 69.5 20.5 119.5v73h140v-524h-140v261c-20 -33.333 -42 -57.333 -66 -72s-54.333 -22 -91 -22c-35.333 0 -67.166 8.66699 -95.499 26
s-48.5 39.333 -60.5 66c-13.333 26.667 -20 69.667 -20 129v136z" />
    <glyph glyph-name="tilde" unicode="&#x447;" horiz-adv-x="585" 
d="M61 524h139.999v-125c0 -40.667 6.33301 -69.5 19 -86.5s35 -25.5 67 -25.5c44 0 72.833 14.833 86.5 44.5s20.5 69.5 20.5 119.5v73h140v-524h-140v261c-20 -33.333 -42 -57.333 -66 -72s-54.333 -22 -91 -22c-35.333 0 -67.166 8.66699 -95.499 26
s-48.5 39.333 -60.5 66c-13.333 26.667 -20 69.667 -20 129v136z" />
    <glyph glyph-name="tilde" unicode="&#x2dc;" horiz-adv-x="585" 
d="M61 524h139.999v-125c0 -40.667 6.33301 -69.5 19 -86.5s35 -25.5 67 -25.5c44 0 72.833 14.833 86.5 44.5s20.5 69.5 20.5 119.5v73h140v-524h-140v261c-20 -33.333 -42 -57.333 -66 -72s-54.333 -22 -91 -22c-35.333 0 -67.166 8.66699 -95.499 26
s-48.5 39.333 -60.5 66c-13.333 26.667 -20 69.667 -20 129v136z" />
    <glyph glyph-name="macron" unicode="&#xf8;" horiz-adv-x="841" 
d="M797 0h-140.001v72c-24 -32 -46.833 -54.167 -68.5 -66.5s-47.167 -18.5 -76.5 -18.5c-68 0 -113 30 -135 90c-23.333 -32.667 -46.666 -55.834 -69.999 -69.501s-51 -20.5 -83 -20.5c-54 0 -95.333 17 -124 51s-43 82 -43 144v342h140v-307
c0 -38.667 5.5 -66.667 16.5 -84s29.833 -26 56.5 -26c31.333 0 53.666 11 66.999 33s20 60.667 20 116v268h140v-312c0 -37.333 5.33301 -64.166 16 -80.499s29.334 -24.5 56.001 -24.5c31.333 0 53.833 10.833 67.5 32.5s20.5 58.5 20.5 110.5v274h140v-524z" />
    <glyph glyph-name="macron" unicode="&#x448;" horiz-adv-x="841" 
d="M797 0h-140.001v72c-24 -32 -46.833 -54.167 -68.5 -66.5s-47.167 -18.5 -76.5 -18.5c-68 0 -113 30 -135 90c-23.333 -32.667 -46.666 -55.834 -69.999 -69.501s-51 -20.5 -83 -20.5c-54 0 -95.333 17 -124 51s-43 82 -43 144v342h140v-307
c0 -38.667 5.5 -66.667 16.5 -84s29.833 -26 56.5 -26c31.333 0 53.666 11 66.999 33s20 60.667 20 116v268h140v-312c0 -37.333 5.33301 -64.166 16 -80.499s29.334 -24.5 56.001 -24.5c31.333 0 53.833 10.833 67.5 32.5s20.5 58.5 20.5 110.5v274h140v-524z" />
    <glyph glyph-name="breve" unicode="&#xf9;" horiz-adv-x="920" 
d="M721 0h-64.001v72c-24 -32 -46.833 -54.167 -68.5 -66.5s-47.167 -18.5 -76.5 -18.5c-68 0 -113 30 -135 90c-23.333 -32.667 -46.666 -55.834 -69.999 -69.501s-51 -20.5 -83 -20.5c-54 0 -95.333 17 -124 51s-43 82 -43 144v342h140v-307
c0 -38.667 5.5 -66.667 16.5 -84s29.833 -26 56.5 -26c31.333 0 53.666 11 66.999 33s20 60.667 20 116v268h140v-312c0 -37.333 5.33301 -64.166 16 -80.499s29.334 -24.5 56.001 -24.5c31.333 0 53.833 10.833 67.5 32.5s20.5 58.5 20.5 110.5v274h140v-406h64v-293h-140
v175z" />
    <glyph glyph-name="breve" unicode="&#x449;" horiz-adv-x="920" 
d="M721 0h-64.001v72c-24 -32 -46.833 -54.167 -68.5 -66.5s-47.167 -18.5 -76.5 -18.5c-68 0 -113 30 -135 90c-23.333 -32.667 -46.666 -55.834 -69.999 -69.501s-51 -20.5 -83 -20.5c-54 0 -95.333 17 -124 51s-43 82 -43 144v342h140v-307
c0 -38.667 5.5 -66.667 16.5 -84s29.833 -26 56.5 -26c31.333 0 53.666 11 66.999 33s20 60.667 20 116v268h140v-312c0 -37.333 5.33301 -64.166 16 -80.499s29.334 -24.5 56.001 -24.5c31.333 0 53.833 10.833 67.5 32.5s20.5 58.5 20.5 110.5v274h140v-406h64v-293h-140
v175z" />
    <glyph glyph-name="dotaccent" unicode="&#xfa;" horiz-adv-x="708" 
d="M40 407l0.000976562 116.999h306v-206h129c37.333 0 70.666 -6.83301 99.999 -20.5s51.833 -32.167 67.5 -55.5s23.5 -48.666 23.5 -75.999c0 -44 -16.333 -82.667 -49 -116s-74.667 -50 -126 -50h-285v407h-166zM346.001 100.999h120c16.667 0 30 6 40 18
s15 25.667 15 41c0 16 -5.16699 29.5 -15.5 40.5s-23.5 16.5 -39.5 16.5h-120v-116z" />
    <glyph glyph-name="dotaccent" unicode="&#x44a;" horiz-adv-x="708" 
d="M40 407l0.000976562 116.999h306v-206h129c37.333 0 70.666 -6.83301 99.999 -20.5s51.833 -32.167 67.5 -55.5s23.5 -48.666 23.5 -75.999c0 -44 -16.333 -82.667 -49 -116s-74.667 -50 -126 -50h-285v407h-166zM346.001 100.999h120c16.667 0 30 6 40 18
s15 25.667 15 41c0 16 -5.16699 29.5 -15.5 40.5s-23.5 16.5 -39.5 16.5h-120v-116z" />
    <glyph glyph-name="ring" unicode="&#xfb;" horiz-adv-x="775" 
d="M206 524v-206h123c32 0 62.5 -7 91.5 -21s52 -32.5 69 -55.5s25.5 -48.167 25.5 -75.5c0 -44 -16.333 -82.667 -49 -116s-75 -50 -127 -50h-273v524h140zM206 101h110c16.667 0 29.5 5.83301 38.5 17.5s13.5 25.5 13.5 41.5c0 38 -17.667 57 -53 57h-109v-116zM732 0
h-140v524h140v-524z" />
    <glyph glyph-name="ring" unicode="&#x44b;" horiz-adv-x="775" 
d="M206 524v-206h123c32 0 62.5 -7 91.5 -21s52 -32.5 69 -55.5s25.5 -48.167 25.5 -75.5c0 -44 -16.333 -82.667 -49 -116s-75 -50 -127 -50h-273v524h140zM206 101h110c16.667 0 29.5 5.83301 38.5 17.5s13.5 25.5 13.5 41.5c0 38 -17.667 57 -53 57h-109v-116zM732 0
h-140v524h140v-524z" />
    <glyph glyph-name="cedilla" unicode="&#xfc;" 
d="M206 524v-206h123c32 0 62.5 -7 91.5 -21s52 -32.5 69 -55.5s25.5 -48.167 25.5 -75.5c0 -44 -16.333 -82.667 -49 -116s-75 -50 -127 -50h-273v524h140zM206 101h110c16.667 0 29.5 5.83301 38.5 17.5s13.5 25.5 13.5 41.5c0 38 -17.667 57 -53 57h-109v-116z" />
    <glyph glyph-name="cedilla" unicode="&#x44c;" 
d="M206 524v-206h123c32 0 62.5 -7 91.5 -21s52 -32.5 69 -55.5s25.5 -48.167 25.5 -75.5c0 -44 -16.333 -82.667 -49 -116s-75 -50 -127 -50h-273v524h140zM206 101h110c16.667 0 29.5 5.83301 38.5 17.5s13.5 25.5 13.5 41.5c0 38 -17.667 57 -53 57h-109v-116z" />
    <glyph glyph-name="hungarumlaut" unicode="&#xfd;" 
d="M375 236l-129.998 0.000976562v90h123c-14 68.667 -45.333 103 -94 103c-55.333 0 -89 -30.667 -101 -92h-140c8 66 32.167 115.833 72.5 149.5s95.833 50.5 166.5 50.5c49.333 0 92.666 -11 129.999 -33s65.833 -54 85.5 -96s29.5 -91 29.5 -147
c0 -87.333 -21.5 -154.833 -64.5 -202.5s-103.167 -71.5 -180.5 -71.5c-66.667 0 -120.334 17.667 -161.001 53s-66.667 87 -78 155h140c8 -36.667 19.167 -62.334 33.5 -77.001s34.5 -22 60.5 -22c65.333 0 101.333 46.667 108 140z" />
    <glyph glyph-name="hungarumlaut" unicode="&#x44d;" 
d="M375 236l-129.998 0.000976562v90h123c-14 68.667 -45.333 103 -94 103c-55.333 0 -89 -30.667 -101 -92h-140c8 66 32.167 115.833 72.5 149.5s95.833 50.5 166.5 50.5c49.333 0 92.666 -11 129.999 -33s65.833 -54 85.5 -96s29.5 -91 29.5 -147
c0 -87.333 -21.5 -154.833 -64.5 -202.5s-103.167 -71.5 -180.5 -71.5c-66.667 0 -120.334 17.667 -161.001 53s-66.667 87 -78 155h140c8 -36.667 19.167 -62.334 33.5 -77.001s34.5 -22 60.5 -22c65.333 0 101.333 46.667 108 140z" />
    <glyph glyph-name="ogonek" unicode="&#xfe;" horiz-adv-x="854" 
d="M206 236l-0.000976562 -235.999h-140v524h140v-198h74c12 66.667 41.167 118.5 87.5 155.5s105.5 55.5 177.5 55.5c54 0 101.333 -11.167 142 -33.5s71.834 -54 93.501 -95s32.5 -90.167 32.5 -147.5c0 -84 -23.833 -150.667 -71.5 -200s-113.167 -74 -196.5 -74
c-76.667 0 -138.5 22.167 -185.5 66.5s-74.167 105.166 -81.5 182.499h-72zM417.999 263.001c0 -51.333 11.334 -91.999 34.001 -121.999s53.667 -45 93 -45c26 0 48.667 6.66699 68 20s34.166 32.166 44.499 56.499s15.5 53.833 15.5 88.5c0 50.667 -11.333 91 -34 121
s-54 45 -94 45c-39.333 0 -70.333 -14.667 -93 -44s-34 -69.333 -34 -120z" />
    <glyph glyph-name="ogonek" unicode="&#x44e;" horiz-adv-x="854" 
d="M206 236l-0.000976562 -235.999h-140v524h140v-198h74c12 66.667 41.167 118.5 87.5 155.5s105.5 55.5 177.5 55.5c54 0 101.333 -11.167 142 -33.5s71.834 -54 93.501 -95s32.5 -90.167 32.5 -147.5c0 -84 -23.833 -150.667 -71.5 -200s-113.167 -74 -196.5 -74
c-76.667 0 -138.5 22.167 -185.5 66.5s-74.167 105.166 -81.5 182.499h-72zM417.999 263.001c0 -51.333 11.334 -91.999 34.001 -121.999s53.667 -45 93 -45c26 0 48.667 6.66699 68 20s34.166 32.166 44.499 56.499s15.5 53.833 15.5 88.5c0 50.667 -11.333 91 -34 121
s-54 45 -94 45c-39.333 0 -70.333 -14.667 -93 -44s-34 -69.333 -34 -120z" />
    <glyph glyph-name="fl" unicode="&#xff;" horiz-adv-x="640" 
d="M443 0l-0.000976562 217.001h-167c-16.667 0 -28.834 -9.66699 -36.501 -29s-11.5 -40.333 -11.5 -63c0 -48 -8.66699 -89.667 -26 -125h-136c20 43.333 30 90.666 30 141.999c0 29.333 7.33301 55.5 22 78.5s35.334 39.167 62.001 48.5
c-31.333 14.667 -54.166 32.167 -68.499 52.5s-21.5 44.5 -21.5 72.5c0 86.667 52.667 130 158 130h335v-524h-140zM286.999 423.001c-38 0 -57 -17.667 -57 -53c2 -36.667 21.667 -55 59 -55h154v108h-156z" />
    <glyph glyph-name="fl" unicode="&#x44f;" horiz-adv-x="640" 
d="M443 0l-0.000976562 217.001h-167c-16.667 0 -28.834 -9.66699 -36.501 -29s-11.5 -40.333 -11.5 -63c0 -48 -8.66699 -89.667 -26 -125h-136c20 43.333 30 90.666 30 141.999c0 29.333 7.33301 55.5 22 78.5s35.334 39.167 62.001 48.5
c-31.333 14.667 -54.166 32.167 -68.499 52.5s-21.5 44.5 -21.5 72.5c0 86.667 52.667 130 158 130h335v-524h-140zM286.999 423.001c-38 0 -57 -17.667 -57 -53c2 -36.667 21.667 -55 59 -55h154v108h-156z" />
    <glyph glyph-name="Otilde" unicode="&#x152;" horiz-adv-x="775" 
d="M66 716h147v-308l291 308h186l-294 -296l312 -420h-187l-236 313l-72 -72v-241h-147v716zM270 938h146l-114 -145h-98z" />
    <glyph glyph-name="oe" unicode="&#x153;" 
d="M31 171l140.001 -0.000976562c6 -27.333 17.333 -46.666 34 -57.999s41.667 -17 75 -17c28.667 0 51.5 4.33301 68.5 13s25.5 20.667 25.5 36c0 12.667 -3.5 21.5 -10.5 26.5s-23.833 11.5 -50.5 19.5l-155 54c-72 24 -108 65 -108 123
c0 49.333 20.833 89.833 62.5 121.5s94.834 47.5 159.501 47.5c46 0 86.5 -7.83301 121.5 -23.5s60.167 -37.834 75.5 -66.501c11.333 -17.333 20.666 -45.666 27.999 -84.999h-136c-4 24 -12.5 40.833 -25.5 50.5s-34.167 14.5 -63.5 14.5c-27.333 0 -48.833 -4 -64.5 -12
s-23.5 -19.333 -23.5 -34c0 -13.333 7.33301 -22 22 -26l215 -70c28.667 -10 51.5 -26 68.5 -48s25.5 -47.667 25.5 -77c0 -32.667 -12.5 -64.167 -37.5 -94.5s-55.5 -51.5 -91.5 -63.5c-30 -10 -67.333 -15 -112 -15c-76.667 0 -135.834 16 -177.501 48
s-63.5 77.333 -65.5 136z" />
    <glyph glyph-name="florin" unicode="&#x192;" horiz-adv-x="539" 
d="M453 416l-11 -74.001h-89l-62 -355c-12 -70.667 -31.333 -121.667 -58 -153s-73.667 -47 -141 -47c-10.667 0 -29 1 -55 3l20 105c7.33301 -1.33301 16.666 -2 27.999 -2c19.333 0 33.333 2.5 42 7.5s15.834 15.333 21.501 31s11.5 40.834 17.5 75.501l58 335h-80l12 74
h81l22 119c12 64.667 31.5 111 58.5 139s70.833 42 131.5 42c19.333 0 39 -0.666992 59 -2l-17 -109h-40c-20.667 0 -35.5 -5.33301 -44.5 -16s-15.833 -31.667 -20.5 -63l-20 -110h87z" />
    <glyph glyph-name="dagger" unicode="&#x2020;" 
d="M39 524h169v192h129v-192h171v-121h-171v-541h-129v541h-169v121z" />
    <glyph glyph-name="currency" unicode="&#x2219;" horiz-adv-x="326" 
d="M63 342h149v-145h-149v145z" />
    <glyph glyph-name="glyph1" horiz-adv-x="0" 
 />
    <glyph glyph-name="cent" 
d="M248 631v84.998h65v-85c117.333 -9.33301 183.666 -75.666 198.999 -198.999h-135c-6 28 -13.333 47.833 -22 59.5s-22.667 19.5 -42 23.5v-313c17.333 2.66699 30.5 10.334 39.5 23.001s17.167 34 24.5 64h135c-21.333 -123.333 -87.666 -191 -198.999 -203v-99h-65v99
c-69.333 8 -122.166 34.5 -158.499 79.5s-54.5 107.5 -54.5 187.5c0 76.667 17.667 140 53 190s88.666 79.333 159.999 88zM248 514.998c-51.333 -17.333 -77 -72 -77 -164c0 -88 25.667 -138 77 -150v314z" />
    <glyph glyph-name="sterling" horiz-adv-x="585" 
d="M500 475l-126 0.000976562c-4 82 -37.333 123 -100 123c-26 0 -47.833 -8.83301 -65.5 -26.5s-26.5 -40.167 -26.5 -67.5c0 -12 1.83301 -24.333 5.5 -37s9.16699 -26.334 16.5 -41.001l20 -41h153v-72h-132c8.66699 -23.333 13 -43 13 -59
c0 -26 -5.83301 -49.5 -17.5 -70.5s-31.834 -44.833 -60.501 -71.5c32 16 59 24 81 24c14.667 0 35.834 -5.16699 63.501 -15.5s47.834 -15.5 60.501 -15.5c31.333 0 59.333 15.333 84 46l55 -101c-16 -20 -37.333 -35.5 -64 -46.5s-54.334 -16.5 -83.001 -16.5
c-20 0 -51.667 6.5 -95 19.5s-76.666 19.5 -99.999 19.5c-32 0 -64.333 -13 -97 -39l-56 90c35.333 27.333 60.833 53.333 76.5 78s23.5 52 23.5 82c0 20 -5.66699 45.333 -17 76h-88v72h61c-24.667 38 -37 80.667 -37 128c0 60 20.667 108.833 62 146.5
s94.666 56.5 159.999 56.5c73.333 0 130 -21.167 170 -63.5s60 -101.5 60 -177.5z" />
    <glyph glyph-name="acute" horiz-adv-x="1043" 
d="M22 530c0 124 42.3311 186.001 126.998 186.001c28.667 0 52.334 -6.33301 71.001 -19s32.334 -31.834 41.001 -57.501s13 -58.5 13 -98.5c0 -66 -10.167 -114.333 -30.5 -145s-52.5 -46 -96.5 -46c-83.333 0 -125 60 -125 180zM98.998 528.001
c0 -44 3.83301 -74.667 11.5 -92s20.5 -26 38.5 -26s30.5 9.33301 37.5 28s10.5 50.667 10.5 96s-3.5 76.5 -10.5 93.5s-19.5 25.5 -37.5 25.5c-18.667 0 -31.667 -9 -39 -27s-11 -50.667 -11 -98zM483.998 703.001h70l-368 -703h-68zM395.998 167.001
c0 62.667 10.833 109.333 32.5 140s54.167 46 97.5 46s75 -13.833 95 -41.5s30 -71.5 30 -131.5c0 -66 -10.167 -114.667 -30.5 -146s-52.5 -47 -96.5 -47c-85.333 0 -128 60 -128 180zM474.998 167c0 -44 3.49902 -74.501 10.499 -91.501s20.5 -25.5 40.5 -25.5
c17.333 0 29.333 9 36 27s10 49.333 10 94c0 46 -3.33301 77.833 -10 95.5s-18.667 26.5 -36 26.5c-19.333 0 -32.666 -9.16699 -39.999 -27.5s-11 -51.166 -11 -98.499zM706.997 166.999c0 63.333 10.5 110.167 31.5 140.5s53.167 45.5 96.5 45.5
c83.333 0 125 -57.667 125 -173c0 -66 -10.333 -114.667 -31 -146s-53 -47 -97 -47c-83.333 0 -125 60 -125 180zM783.997 167c0 -44.667 3.66895 -75.334 11.002 -92.001s20.666 -25 39.999 -25c17.333 0 29.666 9.33301 36.999 28s11 49.667 11 93
c0 46.667 -3.66699 78.667 -11 96s-20 26 -38 26c-18.667 0 -31.667 -9.16699 -39 -27.5s-11 -51.166 -11 -98.499z" />
    <glyph glyph-name="notequal" horiz-adv-x="605" 
d="M50 379v90h209l56 247h82l-55 -247h182v-90h-202l-17 -66h219v-92h-237l-90 -423h-85l92 423h-154v92h171l18 66h-189z" />
    <glyph glyph-name="AE" horiz-adv-x="528" 
d="M213 0h-147v716h400v-129h-253v-587zM270 938h146l-114 -145h-98z" />
    <glyph glyph-name="Oslash" horiz-adv-x="585" 
d="M524 171c-0.666992 -58 -22.333 -103.166 -65 -135.499s-102.334 -48.5 -179.001 -48.5c-44 0 -81 5 -111 15c-36.667 12 -67.5 33.167 -92.5 63.5s-37.5 61.833 -37.5 94.5c0 28 8.33301 53.167 25 75.5s39.334 38.833 68.001 49.5l218 70
c13.333 4.66699 20 13.334 20 26.001c0 16 -7.16699 28.833 -21.5 38.5s-34.833 14.5 -61.5 14.5c-54 0 -84.667 -24 -92 -72h-136c6 38.667 15 67 27 85c16.667 29.333 42.167 51.666 76.5 66.999s74.5 23 120.5 23c65.333 0 118.833 -15.833 160.5 -47.5
s62.5 -72.167 62.5 -121.5c0 -58.667 -36.667 -99.667 -110 -123l-153 -54c-28 -8.66699 -45.167 -15.334 -51.5 -20.001s-9.5 -13.334 -9.5 -26.001c0 -15.333 8.83301 -28.333 26.5 -39s40.167 -16 67.5 -16c34 0 59.333 6.33301 76 19s27.667 33.334 33 62.001h139z
M287.001 745.001h145l-114 -145h-97z" />
    <glyph glyph-name="infinity" horiz-adv-x="832" 
d="M734 276c0 -32 -8.16602 -61.832 -24.499 -89.499s-38.333 -49.667 -66 -66s-57.5 -24.5 -89.5 -24.5c-59.333 0 -106 23.333 -140 70c-34 -46.667 -81.333 -70 -142 -70c-48.667 0 -90.834 17.5 -126.501 52.5s-53.5 76.833 -53.5 125.5c0 33.333 8 64 24 92
s38 50 66 66s58 24 90 24c28 0 54.5 -6 79.5 -18s45.167 -28.667 60.5 -50c18 22 39 38.833 63 50.5s50.333 17.5 79 17.5c32 0 62 -8 90 -24s50 -37.833 66 -65.5s24 -57.834 24 -90.501zM655.001 274.001c0 28 -10.167 51.835 -30.5 71.502s-44.5 29.5 -72.5 29.5
s-51.833 -9.83301 -71.5 -29.5s-29.5 -42.834 -29.5 -69.501c0 -26 10.5 -48.833 31.5 -68.5s44.833 -29.5 71.5 -29.5c26 0 49.333 9.66699 70 29s31 41.666 31 66.999zM375.001 274.003c0 28 -10.1689 51.834 -30.502 71.501s-45.166 29.5 -74.499 29.5
c-27.333 0 -50.666 -10 -69.999 -30s-29 -43 -29 -69c0 -25.333 10 -48 30 -68s43.667 -30 71 -30s51.333 9.66699 72 29s31 41.666 31 66.999z" />
    <glyph glyph-name="lessequal" horiz-adv-x="596" 
d="M524 107l-474 211v52l474 213v-77l-379 -162l379 -162v-75zM50 0v98h474v-98h-474z" />
    <glyph glyph-name="greaterequal" horiz-adv-x="596" 
d="M48 107v75l377 162l-377 162v77l475 -213v-52zM523 0h-475v98h475v-98z" />
    <glyph glyph-name="yen" horiz-adv-x="596" 
d="M331 219v-219h-119v219h-157v74h142l-35 71h-127v76h92l-121 263h132l134 -322l136 322h131l-121 -263h94v-76h-129l-33 -71h143v-74h-162z" />
    <glyph glyph-name="mu" horiz-adv-x="596" 
d="M66 -186v710h133v-279c0 -99.333 35.333 -149 106 -149c35.333 0 61.333 12.5 78 37.5s25 63.167 25 114.5v276h131v-524h-131v61c-24 -49.333 -58.667 -74 -104 -74c-44.667 0 -79.667 23.333 -105 70v-243h-133z" />
    <glyph glyph-name="partialdiff" horiz-adv-x="640" 
d="M569 261c0 -84 -24 -150.67 -72 -200.003s-113.667 -74 -197 -74c-82.667 0 -148.167 24.833 -196.5 74.5s-72.5 116.834 -72.5 201.501c0 54.667 10.833 102.834 32.5 144.501s53.334 73.667 95.001 96s88.834 33.5 141.501 33.5c38.667 0 76.667 -11.667 114 -35
c0 26.667 -13 50.334 -39 71.001s-52.333 31 -79 31c-21.333 0 -43.833 -3.33301 -67.5 -10s-40.834 -14.667 -51.501 -24l-39 114c33.333 22.667 85 34 155 34c103.333 0 175.166 -45.833 215.499 -137.5s60.5 -198.167 60.5 -319.5zM173 262.997
c0 -51.333 11.333 -91.999 34 -121.999s53.667 -45 93 -45s70.333 14.667 93 44s34 69.666 34 120.999c0 50.667 -11.333 91 -34 121s-53.667 45 -93 45s-70.333 -14.667 -93 -44s-34 -69.333 -34 -120z" />
    <glyph glyph-name="summation" horiz-adv-x="572" 
d="M31 269l139.999 0.000976562v-35c0 -42 6 -72.167 18 -90.5s31.667 -27.5 59 -27.5c34.667 0 57.5 10.167 68.5 30.5s16.5 61.166 16.5 122.499v447h147v-420c0 -63.333 -4.5 -117 -13.5 -161s-29.5 -79.667 -61.5 -107s-80 -41 -144 -41
c-89.333 0 -153.666 25.667 -192.999 77c-24.667 36 -37 95 -37 177v28z" />
    <glyph glyph-name="product" horiz-adv-x="775" 
d="M458 309l-221.003 -0.000976562c6 -62 24.667 -109.667 56 -143s71 -50 119 -50c76.667 0 127.667 44.667 153 134h147c-7.33301 -54 -25.666 -101.667 -54.999 -143c-58.667 -80 -141 -120 -247 -120c-101.333 0 -181.166 32.833 -239.499 98.5
s-87.5 154.834 -87.5 267.501c0 116 29 207.833 87 275.5s137 101.5 237 101.5c54 0 103.5 -10.333 148.5 -31s81.333 -50.167 109 -88.5s43.5 -82.5 47.5 -132.5h-147c-21.333 81.333 -74.666 122 -159.999 122c-46.667 0 -82.5 -13.5 -107.5 -40.5
s-43.167 -67.5 -54.5 -121.5h215v-129z" />
    <glyph glyph-name="pi" horiz-adv-x="596" 
d="M197 236c5.33301 -93.333 41.002 -140.001 107.002 -140.001c25.333 0 45.333 7.33301 60 22s25.667 40.334 33 77.001h140c-22.667 -138.667 -102.334 -208 -239.001 -208c-76.667 0 -136.667 24 -180 72s-65 115.333 -65 202c0 56 9.83301 105 29.5 147
s48.167 74 85.5 96s80.666 33 129.999 33c71.333 0 127.5 -17.167 168.5 -51.5s64.5 -83.833 70.5 -148.5h-140c-11.333 61.333 -45 92 -101 92c-48.667 0 -80 -34.333 -94 -103h124v-90h-129z" />
    <glyph glyph-name="ordmasculine" horiz-adv-x="247" 
d="M86 716h74v-409l-74 -35v444zM160 -215h-74v410l74 35v-445z" />
    <glyph glyph-name="questiondown" horiz-adv-x="304" 
d="M6 -101c0.666992 0 2.33203 -0.668945 4.99902 -2.00195s5 -2 7 -2c20.667 0 33.834 3.83301 39.501 11.5s8.5 22.834 8.5 45.501v572h140v-537c0 -53.333 -1.83301 -90.166 -5.5 -110.499s-11.5 -36.833 -23.5 -49.5c-26 -28 -65.333 -42 -118 -42
c-6 0.666992 -12.167 1.16699 -18.5 1.5s-17.833 0.5 -34.5 0.5v112zM65.998 586.998v129h140v-129h-140z" />
    <glyph glyph-name="exclamdown" horiz-adv-x="718" 
d="M39 224l140.998 0.000976562c6 -27.333 15.667 -49.833 29 -67.5s30.166 -30.334 50.499 -38.001s46.166 -11.5 77.499 -11.5c40.667 0 72.834 7.5 96.501 22.5s35.5 35.167 35.5 60.5c0 26 -19.667 46 -59 60l-219 85c-92 34.667 -138 93.667 -138 177
c0 66 23.667 118.833 71 158.5s111.333 59.5 192 59.5c87.333 0 154.833 -20 202.5 -60s72.834 -97 75.501 -171h-143c-6 38.667 -20 67 -42 85s-52.333 27 -91 27c-35.333 0 -64.333 -8 -87 -24s-34 -35.667 -34 -59c0 -24 16 -42.333 48 -55l224 -85
c48.667 -18.667 85.334 -40.834 110.001 -66.501s37 -62.834 37 -111.501c0 -33.333 -7.66699 -65.166 -23 -95.499s-37.666 -56.166 -66.999 -77.499c-24.667 -17.333 -52 -30 -82 -38s-66.333 -12 -109 -12c-118.667 0 -203.334 34.333 -254.001 103
c-13.333 18 -22.666 36.167 -27.999 54.5s-10 44.833 -14 79.5z" />
    <glyph glyph-name="radical" horiz-adv-x="662" 
d="M50 375l-21 60.999l208 88l87 -292c5.33301 -25.333 13.333 -58.666 24 -99.999c5.33301 28 14 61.333 26 100l101 486h123l-180 -718h-146l-145 410z" />
    <glyph glyph-name="approxequal" horiz-adv-x="605" 
d="M488 250l37.9961 -25.999c-28 -46 -49.167 -78 -63.5 -96s-36.166 -27 -65.499 -27c-14.667 0 -33 4.33301 -55 13s-42 17.5 -60 26.5s-34.667 16.333 -50 22s-32.666 8.5 -51.999 8.5s-36.333 -5.83301 -51 -17.5s-29 -30.834 -43 -57.501l-36 29
c30.667 54 54 89 70 105s36.667 24 62 24c18.667 0 35.667 -2.83301 51 -8.5s32 -13 50 -22s38 -17.833 60 -26.5s40 -13 54 -13c20.667 0 36.834 4.5 48.501 13.5s25.834 26.5 42.501 52.5zM487.996 420.001l37.998 -28c-26 -43.333 -46.667 -74.5 -62 -93.5
s-37.666 -28.5 -66.999 -28.5c-18 0 -32.5 2.16699 -43.5 6.5s-30.167 13 -57.5 26s-48.666 22.333 -63.999 28s-32.666 8.5 -51.999 8.5c-18.667 0 -35.5 -5.66699 -50.5 -17s-29.5 -30.333 -43.5 -57l-36 29c30 52 53.167 86.167 69.5 102.5s37.166 24.5 62.499 24.5
c26.667 0 63 -11.333 109 -34s81.333 -34 106 -34c13.333 0 24.833 2 34.5 6s19 10.833 28 20.5s18.5 23.167 28.5 40.5z" />
    <glyph glyph-name="Delta" horiz-adv-x="675" 
d="M204 0l-119 188l187 528h168l180 -525l-75 -191h-341zM219 120h281l-147 432z" />
    <glyph glyph-name="nonbreakingspace" horiz-adv-x="293" 
d="M66 524h140v-524h-140v524z" />
    <glyph glyph-name="OE" horiz-adv-x="618" 
d="M66 524h140v-204l173 204h166l-195 -204l195 -320h-166l-116 230l-57 -61v-169h-140v524zM287 745h145l-114 -145h-97z" />
    <glyph glyph-name="fraction" horiz-adv-x="528" 
d="M39 524h169v192h129v-192h171v-121h-171v-217h171v-122h-171v-202h-129v202h-169v122h169v217h-169v121z" />
  </font>
</defs>
</svg>
