<?xml version="1.0" standalone="no"?>
<!DOCTYPE svg PUBLIC "-//W3C//DTD SVG 1.1//EN" "http://www.w3.org/Graphics/SVG/1.1/DTD/svg11.dtd" >
<svg>
<metadata>
Created by FontForge 20090914 at Wed May 10 19:46:33 2017
 By www-data
&#239;&#190;&#169; !22! Soft 1992
</metadata>
<defs>
<font id="VantaLightPlain" horiz-adv-x="660" >
  <font-face 
    font-family="Vanta Light"
    font-weight="400"
    font-stretch="normal"
    units-per-em="1000"
    panose-1="2 11 6 4 2 2 2 2 2 4"
    ascent="800"
    descent="-200"
    x-height="570"
    cap-height="794"
    bbox="-14 -220.001 1194 1002"
    underline-thickness="76"
    underline-position="-93"
    unicode-range="U+0020-U+2219"
  />
<missing-glyph horiz-adv-x="500" 
d="M40 667h420v-667h-420v667zM60 647v-627h380v627h-380z" />
    <glyph glyph-name=".notdef" horiz-adv-x="500" 
d="M40 667h420v-667h-420v667zM60 647v-627h380v627h-380z" />
    <glyph glyph-name="space" unicode=" " horiz-adv-x="350" 
 />
    <glyph glyph-name="exclam" unicode="!" horiz-adv-x="288" 
d="M96 0v102h80v-102h-80zM110 194c-2.66699 34.667 -5.33301 85.333 -8 152l-4 132l-2 92v224h80v-318l-8 -126c-2.66699 -72 -4 -124 -4 -156h-54z" />
    <glyph glyph-name="quotedbl" unicode="&#x22;" horiz-adv-x="388" 
d="M134 476h-60l-10 318h80zM296 476h-58l-12 318h82z" />
    <glyph glyph-name="numbersign" unicode="#" horiz-adv-x="734" 
d="M454 280l-34 -242h-42l32 242h-142l-36 -242h-42l34 242h-150l4 40h152l20 138h-152l6 44h150l34 220h42l-30 -220h142l30 220h46l-34 -220h154l-4 -44h-154l-20 -138h156l-8 -40h-154zM438 458h-146l-18 -138h142z" />
    <glyph glyph-name="dollar" unicode="$" 
d="M134 242c4 -106.667 56.668 -166.664 158.001 -179.997v326c-49.333 11.333 -88.166 23.5 -116.499 36.5s-51.333 32.833 -69 59.5s-26.5 62.667 -26.5 108c0 43.333 7.33301 79.666 22 108.999s37.167 52.666 67.5 69.999s71.166 29.666 122.499 36.999v104h58v-104
c126 -8 196 -74.667 210 -200h-70c-7.33301 46.667 -21 80 -41 100s-53 32.667 -99 38v-298c51.333 -12.667 93 -25.5 125 -38.5s58.167 -33.5 78.5 -61.5s30.5 -65.333 30.5 -112c0 -72 -19.833 -128.167 -59.5 -168.5s-97.834 -63.5 -174.501 -69.5v-102h-58v102
c-150.667 12 -228 93.333 -232 244h74zM350.001 60.0029c106.667 15.333 160 70.666 160 165.999c0 47.333 -13 80.833 -39 100.5s-66.333 36.834 -121 51.501v-318zM292.001 460.003l0.000976562 286c-92 -12 -138 -59.333 -138 -142c0 -40.667 10.167 -71.667 30.5 -93
s56.166 -38.333 107.499 -51z" />
    <glyph glyph-name="percent" unicode="%" horiz-adv-x="834" 
d="M40 594c0 66 12.167 116.167 36.5 150.5s59.5 51.5 105.5 51.5c48 0 83.667 -17 107 -51s35 -84.333 35 -151c0 -64.667 -11.833 -114.5 -35.5 -149.5s-59.167 -52.5 -106.5 -52.5c-45.333 0 -80.333 17.667 -105 53s-37 85 -37 149zM98 594
c0 -49.333 7.16797 -87 21.501 -113s35.166 -39 62.499 -39c56 0 84 50.667 84 152c0 102.667 -28 154 -84 154s-84 -51.333 -84 -154zM118.001 0l506 794h70l-506 -794h-70zM490.001 200c0 65.333 11.667 115.332 35 149.999s58.333 52 105 52
c46 0 81.167 -17.167 105.5 -51.5s36.5 -84.5 36.5 -150.5c0 -67.333 -12.167 -118.166 -36.5 -152.499s-59.5 -51.5 -105.5 -51.5c-93.333 0 -140 68 -140 204zM546.001 199.999c0 -102.667 27.999 -154 83.999 -154c26.667 0 47.334 13 62.001 39s22 64.333 22 115
c0 101.333 -28 152 -84 152s-84 -50.667 -84 -152z" />
    <glyph glyph-name="ampersand" unicode="&#x26;" horiz-adv-x="748" 
d="M660 366c-6 -46 -13.166 -83.334 -21.499 -112.001s-19.833 -59.334 -34.5 -92.001l128 -162h-82l-88 104c-74 -76 -152 -114 -234 -114c-48.667 0 -92.667 9.16699 -132 27.5s-70.5 45.5 -93.5 81.5s-34.5 78.333 -34.5 127c0 58 16.333 106.167 49 144.5
s78.334 71.5 137.001 99.5c-29.333 40.667 -49.333 72.834 -60 96.501s-16 48.834 -16 75.501c0 45.333 17 83 51 113s76.333 45 127 45c46 0 83.833 -14.5 113.5 -43.5s44.5 -66.5 44.5 -112.5c0 -26 -3.83301 -48.333 -11.5 -67s-18.334 -35 -32.001 -49
s-25.834 -24.333 -36.501 -31l-72 -45l196 -236c17.333 40.667 28 90.667 32 150h70zM518.001 155.999l-224.001 266.003c-51.333 -26.667 -89.5 -53.834 -114.5 -81.501s-37.5 -65.834 -37.5 -114.501s18.167 -89.834 54.5 -123.501s80.833 -50.5 133.5 -50.5
c76.667 0 139.334 34.667 188.001 104zM320 502.002c45.333 20 77.332 40 95.999 60s28 45.333 28 76c0 30 -8.5 53.833 -25.5 71.5s-39.167 26.5 -66.5 26.5c-29.333 0 -53.666 -9 -72.999 -27s-29 -41.667 -29 -71c0 -38.667 23.333 -84 70 -136z" />
    <glyph glyph-name="quotesingle" unicode="'" horiz-adv-x="226" 
d="M136 476h-62l-10 318h84z" />
    <glyph glyph-name="parenleft" unicode="(" horiz-adv-x="376" 
d="M218 -134c-52 76.667 -91.001 153.832 -117.001 231.499s-39 159.834 -39 246.501c0 77.333 13.333 154.5 40 231.5s65.334 149.833 116.001 218.5h56c-90.667 -136 -136 -286 -136 -450c0 -182.667 45.333 -342 136 -478h-56z" />
    <glyph glyph-name="parenright" unicode=")" horiz-adv-x="376" 
d="M130 794c36 -54.667 65.1689 -106.331 87.502 -154.998s39.666 -99 51.999 -151s18.5 -108.667 18.5 -170c0 -76 -13.5 -152.667 -40.5 -230s-66.167 -151.333 -117.5 -222h-54c92 136 138 286.667 138 452c0 89.333 -10.833 172.666 -32.5 249.999
s-56.834 152.666 -105.501 225.999h54z" />
    <glyph glyph-name="asterisk" unicode="*" horiz-adv-x="460" 
d="M384 660l-130 -44l78 -108l-32 -26l-84 112l-80 -112l-38 26l82 108l-128 44l14 44l128 -48v138h46v-138l128 48z" />
    <glyph glyph-name="plus" unicode="+" horiz-adv-x="610" 
d="M30 422h246v228h44v-228h246v-42h-246v-228h-44v228h-246v42z" />
    <glyph glyph-name="comma" unicode="," horiz-adv-x="276" 
d="M172 100l-0.000976562 -86.001c0 -53.333 -6.16699 -92.166 -18.5 -116.499s-34.166 -41.5 -65.499 -51.5v48c14.667 6.66699 25 16.167 31 28.5s9 32.833 9 61.5v14h-40v102h84z" />
    <glyph glyph-name="hyphen" unicode="-" horiz-adv-x="276" 
d="M0 252v68h254v-68h-254z" />
    <glyph glyph-name="period" unicode="." horiz-adv-x="276" 
d="M88 0v100h84v-100h-84z" />
    <glyph glyph-name="slash" unicode="/" horiz-adv-x="536" 
d="M38 -138l358 932h70l-362 -932h-66z" />
    <glyph glyph-name="zero" unicode="0" 
d="M64 396c0 132 21.667 232.333 65 301s107 103 191 103c85.333 0 149.666 -34.333 192.999 -103s65 -169 65 -301c0 -132.667 -21.667 -233.5 -65 -302.5s-107.666 -103.5 -192.999 -103.5c-84 0 -147.667 34.5 -191 103.5s-65 169.833 -65 302.5zM142 396
c0 -86 12.333 -163.5 37 -232.5s71.667 -103.5 141 -103.5c71.333 0 118.833 34.167 142.5 102.5s35.5 146.166 35.5 233.499c0 88.667 -11.833 166.834 -35.5 234.501s-71.167 101.5 -142.5 101.5c-70 0 -117.167 -34.5 -141.5 -103.5s-36.5 -146.5 -36.5 -232.5z" />
    <glyph glyph-name="one" unicode="1" 
d="M330 0l0.000976562 596h-188v48c60 0 107.667 11 143 33s55.666 61 60.999 117h56v-794h-72z" />
    <glyph glyph-name="two" unicode="2" 
d="M572 68l-0.000976562 -67.9971h-504c2 51.333 8.33301 93.666 19 126.999s27.667 63 51 89c24.667 26 58 52.5 100 79.5l125.5 82c41.667 27.667 73.834 56.334 96.501 86.001s34 65.167 34 106.5c0 108 -54 162 -162 162c-61.333 0 -103.666 -16.5 -126.999 -49.5
s-37.666 -82.5 -42.999 -148.5h-78c3.33301 86.667 26.833 152.667 70.5 198s106.167 68 187.5 68c70 0 126.167 -20.833 168.5 -62.5s63.5 -97.5 63.5 -167.5c0 -52 -12.5 -95.333 -37.5 -130s-60.833 -67.167 -107.5 -97.5l-137 -88.5
c-44.667 -28.667 -78.667 -57.334 -102 -86.001c-14.667 -16.667 -24.834 -31.834 -30.501 -45.501s-8.83398 -31.834 -9.50098 -54.501h422z" />
    <glyph glyph-name="three" unicode="3" 
d="M140 236c3.33301 -42 11.998 -75.334 25.998 -100.001c34 -50.667 86.667 -76 158 -76c50.667 0 93 16.333 127 49s51 73 51 121c0 50.667 -16.333 90.334 -49 119.001s-77.667 43 -135 43c-1.33301 0 -19.333 -1.33301 -54 -4v60c21.333 -2.66699 34 -4 38 -4
c56.667 0 100.167 13.167 130.5 39.5s45.5 64.5 45.5 114.5c0 42 -14.5 74.833 -43.5 98.5s-67.833 35.5 -116.5 35.5c-53.333 0 -93.666 -15.667 -120.999 -47s-41.666 -75 -42.999 -131h-74c0 73.333 21.667 132.666 65 177.999s101 68 173 68c46 0 87 -8.33301 123 -25
s63.833 -40.334 83.5 -71.001s29.5 -66 29.5 -106c0 -77.333 -36.667 -134.666 -110 -171.999c90.667 -33.333 136 -96.666 136 -189.999c0 -70 -24.5 -128.5 -73.5 -175.5s-109.833 -70.5 -182.5 -70.5c-49.333 0 -94 9.83301 -134 29.5s-71 48 -93 85
s-33 80.833 -33 131.5h76z" />
    <glyph glyph-name="four" unicode="4" 
d="M406 0v198h-346v64l354 532h64v-532h112v-64h-112v-198h-72zM136 262h270v412z" />
    <glyph glyph-name="five" unicode="5" 
d="M140 212c5.33301 -49.333 23 -87 53 -113s70.333 -39 121 -39c56 0 100.333 17.667 133 53s49 83 49 143c0 61.333 -15.333 108.333 -46 141s-74.667 49 -132 49c-38.667 0 -70.667 -5.66699 -96 -17s-48 -31 -68 -59h-64l64 420h382v-66h-326l-42 -254
c55.333 30.667 108 46 158 46c79.333 0 140.5 -22.333 183.5 -67s64.5 -108.334 64.5 -191.001c0 -53.333 -10.5 -100.166 -31.5 -140.499s-51.667 -71.666 -92 -93.999s-86.5 -33.5 -138.5 -33.5c-68 0 -124.667 20.167 -170 60.5s-71.333 94.166 -78 161.499h76z" />
    <glyph glyph-name="six" unicode="6" 
d="M486 606c-10 84 -57.3379 126.002 -142.005 126.002c-50 0 -90.333 -15.5 -121 -46.5s-52.167 -69.833 -64.5 -116.5s-18.5 -94.334 -18.5 -143.001v-24c24.667 36 52.834 62.333 84.501 79s70.167 25 115.5 25c70 0 127.167 -23.833 171.5 -71.5
s66.5 -108.5 66.5 -182.5c0 -50 -10.167 -94.833 -30.5 -134.5s-49.166 -70.834 -86.499 -93.501s-79.666 -34 -126.999 -34c-103.333 0 -174.166 35.5 -212.499 106.5s-57.5 162.833 -57.5 275.5c0 140 24 246.333 72 319s118 109 210 109c36.667 0 70.334 -7 101.001 -21
s55.667 -33.667 75 -59c14 -18.667 23.5 -34.5 28.5 -47.5s10.167 -35.167 15.5 -66.5h-80zM495.995 250.002c0 58.667 -15 104.998 -45 138.998s-71 51 -123 51s-94.333 -17.167 -127 -51.5s-49 -79.166 -49 -134.499c0 -61.333 15 -109 45 -143s72.333 -51 127 -51
c36 0 67 7.83301 93 23.5s45.667 37.834 59 66.501s20 62 20 100z" />
    <glyph glyph-name="seven" unicode="7" 
d="M182 0c22 132.667 59.5 260.331 112.5 382.998s120.833 236.334 203.5 341.001h-422v70h502v-70c-40 -45.333 -78.333 -97.666 -115 -156.999s-68.667 -119.666 -96 -180.999s-50 -124.833 -68 -190.5s-29.667 -130.834 -35 -195.501h-82z" />
    <glyph glyph-name="eight" unicode="8" 
d="M198 430c-40 22.667 -68 46.001 -84 70.001s-24 54.667 -24 92c0 60 22 109.667 66 149s100 59 168 59c67.333 0 121.166 -18.333 161.499 -55s60.5 -85 60.5 -145c0 -76.667 -36 -132 -108 -166c97.333 -32.667 146 -102 146 -208c0 -44 -11.167 -84.333 -33.5 -121
s-53.166 -65 -92.499 -85s-84 -30 -134 -30c-49.333 0 -94.333 10.5 -135 31.5s-72.667 50 -96 87s-35 76.833 -35 119.5c0 46.667 10.833 85.667 32.5 117s57.5 59.666 107.5 84.999zM136 228.001c0 -50.667 16.667 -91.332 50 -121.999s77.333 -46 132 -46
c54 0 98.5 15.667 133.5 47s52.5 71.666 52.5 120.999c0 56 -15.667 98.667 -47 128s-77 44 -137 44c-55.333 0 -99.833 -16 -133.5 -48s-50.5 -73.333 -50.5 -124zM166 592.003c0 -42 14.167 -75.168 42.5 -99.501s66.833 -36.5 115.5 -36.5c26 0 50.5 6.33301 73.5 19
s40.833 29.834 53.5 51.501s19 45.5 19 71.5c0 42.667 -12.667 75.667 -38 99s-61.333 35 -108 35c-47.333 0 -85.5 -13 -114.5 -39s-43.5 -59.667 -43.5 -101z" />
    <glyph glyph-name="nine" unicode="9" 
d="M154 188c12 -85.333 59.3359 -128.001 142.003 -128.001c51.333 0 92.166 15.667 122.499 47s51.833 70.333 64.5 117s19 94 19 142c0 8 -1.33301 16 -4 24c-22.667 -35.333 -49.834 -61.166 -81.501 -77.499s-69.834 -24.5 -114.501 -24.5c-68 0 -124.667 24 -170 72
s-68 108.667 -68 182c0 50 10.167 94.667 30.5 134s49 69.833 86 91.5s78.833 32.5 125.5 32.5c71.333 0 127 -17.5 167 -52.5s67.5 -80.833 82.5 -137.5s22.5 -120.667 22.5 -192c0 -140 -24.167 -246.333 -72.5 -319s-118.833 -109 -211.5 -109
c-74 0 -132.667 27.333 -176 82c-12 14.667 -21 30 -27 46s-11 39.333 -15 70h78zM142.003 541.999c0 -56.667 15.835 -102.166 47.502 -136.499s73.167 -51.5 124.5 -51.5c52 0 94.333 17.167 127 51.5s49 79.166 49 134.499c0 62 -14.833 109.5 -44.5 142.5
s-72.834 49.5 -129.501 49.5c-52.667 0 -94.834 -16.833 -126.501 -50.5s-47.5 -80.167 -47.5 -139.5z" />
    <glyph glyph-name="colon" unicode=":" horiz-adv-x="276" 
d="M88 416v100h84v-100h-84zM88 0v100h84v-100h-84z" />
    <glyph glyph-name="semicolon" unicode=";" horiz-adv-x="276" 
d="M172 100l-0.000976562 -86.001c0 -53.333 -6.16699 -92.166 -18.5 -116.499s-34.166 -41.5 -65.499 -51.5v48c14.667 6.66699 25 16.167 31 28.5s9 32.833 9 61.5v14h-40v102h84zM87.999 415.999v100h84v-100h-84z" />
    <glyph glyph-name="less" unicode="&#x3c;" horiz-adv-x="610" 
d="M554 670v-76l-432 -194l432 -198v-76l-514 238v68z" />
    <glyph glyph-name="equal" unicode="=" horiz-adv-x="610" 
d="M30 506h536v-42h-536v42zM30 340h536v-44h-536v44z" />
    <glyph glyph-name="greater" unicode="&#x3e;" horiz-adv-x="610" 
d="M40 126v78l432 196l-432 194v76l516 -238v-68z" />
    <glyph glyph-name="question" unicode="?" horiz-adv-x="560" 
d="M226 0v100h78v-100h-78zM232 198c0 29.333 1.83203 55.3291 5.49902 77.9961s9.83398 43.334 18.501 62.001c12.667 24.667 37 52.834 73 84.501s62.167 58.5 78.5 80.5s24.5 52.333 24.5 91c0 44.667 -13.333 79.5 -40 104.5s-64 37.5 -112 37.5
c-56.667 0 -98.834 -16.833 -126.501 -50.5s-41.5 -80.167 -41.5 -139.5h-76c4.66699 85.333 27.334 149 68.001 191s99.334 63 176.001 63c69.333 0 124.666 -18.333 165.999 -55s62 -87 62 -151c0 -37.333 -8 -70.166 -24 -98.499s-44 -60.166 -84 -95.499
c-42.667 -37.333 -70 -67.333 -82 -90s-18 -60 -18 -112h-68z" />
    <glyph glyph-name="question" horiz-adv-x="560" 
d="M226 0v100h78v-100h-78zM232 198c0 29.333 1.83203 55.3291 5.49902 77.9961s9.83398 43.334 18.501 62.001c12.667 24.667 37 52.834 73 84.501s62.167 58.5 78.5 80.5s24.5 52.333 24.5 91c0 44.667 -13.333 79.5 -40 104.5s-64 37.5 -112 37.5
c-56.667 0 -98.834 -16.833 -126.501 -50.5s-41.5 -80.167 -41.5 -139.5h-76c4.66699 85.333 27.334 149 68.001 191s99.334 63 176.001 63c69.333 0 124.666 -18.333 165.999 -55s62 -87 62 -151c0 -37.333 -8 -70.166 -24 -98.499s-44 -60.166 -84 -95.499
c-42.667 -37.333 -70 -67.333 -82 -90s-18 -60 -18 -112h-68z" />
    <glyph glyph-name="at" unicode="@" horiz-adv-x="846" 
d="M732 198l36 0.00292969c-19.333 -42 -46.333 -78.667 -81 -110s-75 -55.5 -121 -72.5s-95.333 -25.5 -148 -25.5c-71.333 0 -135.666 17.667 -192.999 53s-102.833 83.666 -136.5 144.999s-50.5 130 -50.5 206c0 52 10.5 101.667 31.5 149s49.833 88.833 86.5 124.5
s78.667 63.334 126 83.001s97.333 29.5 150 29.5c66.667 0 127.167 -14.5 181.5 -43.5s96.666 -69 126.999 -120s45.5 -107.167 45.5 -168.5c0 -46.667 -11.833 -91 -35.5 -133s-55 -76 -94 -102s-79.167 -39 -120.5 -39c-20 0 -37 6.16699 -51 18.5
s-22.333 28.833 -25 49.5c-20 -22.667 -40.333 -39.334 -61 -50.001s-43 -16 -67 -16c-36.667 0 -65.834 13 -87.501 39s-32.5 60.333 -32.5 103c0 40.667 9.5 82.667 28.5 126s45.5 79.5 79.5 108.5s72 43.5 114 43.5c50 0 86 -26 108 -78l20 62h46l-94 -280
c-8 -17.333 -12 -34 -12 -50c0 -30.667 14.667 -46 44 -46c34.667 0 67.5 11.833 98.5 35.5s56.333 54.667 76 93s29.5 78.166 29.5 119.499c0 55.333 -13.5 105.666 -40.5 150.999s-64.667 80.833 -113 106.5s-103.166 38.5 -164.499 38.5
c-63.333 0 -122.833 -16.167 -178.5 -48.5s-99.5 -76 -131.5 -131s-48 -113.833 -48 -176.5c0 -68 15.167 -130.167 45.5 -186.5s72 -100.666 125 -132.999s111.5 -48.5 175.5 -48.5c66.667 0 128.167 15.667 184.5 47s98.833 73.666 127.5 126.999zM478 340.003
l21.502 55.002c6.33301 16.667 11.333 31.667 15 45s5.5 26.666 5.5 39.999c0 14.667 -3.5 29.167 -10.5 43.5s-16.333 25.333 -28 33s-24.834 11.5 -39.501 11.5c-52 0 -95.667 -29.833 -131 -89.5s-53 -117.834 -53 -174.501c0 -30 7 -54.167 21 -72.5
s32.333 -27.5 55 -27.5c34 0 62.167 11 84.5 33s42.166 56.333 59.499 103z" />
    <glyph glyph-name="A" unicode="A" horiz-adv-x="760" 
d="M16 0l312 794h82l310 -794h-84l-94 252h-350l-92 -252h-84zM216 314h304l-152 404z" />
    <glyph glyph-name="B" unicode="B" horiz-adv-x="772" 
d="M96 0l-0.000976562 793.999h318c76 0 135.667 -15.167 179 -45.5s65 -83.166 65 -158.499c0 -76 -37.333 -132.667 -112 -170c54.667 -16 93.334 -39.333 116.001 -70s34 -74 34 -130c0 -34 -6.83301 -65.833 -20.5 -95.5s-32.834 -54.5 -57.501 -74.5
c-21.333 -17.333 -47.166 -30 -77.499 -38s-68.5 -12 -114.5 -12h-330zM175.999 65.999l250 0.000976562c68 0 117.333 12.333 148 37s46 65 46 121c0 55.333 -15 95.166 -45 119.499s-79.667 36.5 -149 36.5h-250v-314zM175.999 442h228c56 0 100 10.833 132 32.5
s48 60.167 48 115.5s-15.667 91.5 -47 108.5s-77 25.5 -137 25.5h-224v-282z" />
    <glyph glyph-name="C" unicode="C" horiz-adv-x="796" 
d="M748 282c-14 -94.667 -49.998 -168 -107.998 -220s-133.333 -78 -226 -78c-108 0 -193.667 37.667 -257 113s-95 177 -95 305c0 82.667 14.667 154.5 44 215.5s71 108 125 141s117.667 49.5 191 49.5c170 0 274.667 -80 314 -240h-78c-36 116 -115.333 174 -238 174
c-42.667 0 -80.834 -8 -114.501 -24s-62.834 -39 -87.501 -69s-43.5 -67 -56.5 -111s-19.5 -91.333 -19.5 -142c0 -104 24.667 -187.333 74 -250s115.333 -94 198 -94c45.333 0 86.5 9.33301 123.5 28s67.167 45.5 90.5 80.5s38 75.5 44 121.5h76z" />
    <glyph glyph-name="D" unicode="D" horiz-adv-x="796" 
d="M96 0l0.000976562 794h280c65.333 0 115.666 -5.83301 150.999 -17.5s67 -32.5 95 -62.5c68 -72 102 -175.333 102 -310c0 -135.333 -31.333 -239.333 -94 -312c-30 -33.333 -64.5 -57 -103.5 -71s-88.5 -21 -148.5 -21h-282zM176.001 68h195.999
c48.667 0 88.5 5.83301 119.5 17.5s57.167 31.167 78.5 58.5c50.667 66.667 76 154.667 76 264c0 112 -26 196 -78 252c-22 24 -47.167 40.667 -75.5 50s-69.166 14 -122.499 14h-194v-656z" />
    <glyph glyph-name="E" unicode="E" horiz-adv-x="710" 
d="M96 0v794h532v-70h-452v-284h416v-64h-416v-310h462v-66h-542z" />
    <glyph glyph-name="F" unicode="F" 
d="M96 0v794h502v-70h-422v-286h366v-62h-366v-376h-80z" />
    <glyph glyph-name="G" unicode="G" horiz-adv-x="860" 
d="M422 408l333.999 0.000976562v-408h-60v134c-38 -49.333 -79.333 -86.666 -124 -111.999s-96.667 -38 -156 -38c-70.667 0 -132.667 17 -186 51s-94.666 82.167 -123.999 144.5s-44 134.5 -44 216.5c0 125.333 33.333 225.333 100 300s155.334 112 266.001 112
c56 0 106.667 -10 152 -30s82.333 -48.833 111 -86.5s47.667 -82.167 57 -133.5h-76c-28 122.667 -111.333 184 -250 184c-87.333 0 -155.833 -30.5 -205.5 -91.5s-74.5 -144.5 -74.5 -250.5c0 -104 25.333 -188 76 -252s117.334 -96 200.001 -96
c57.333 0 106.166 12.667 146.499 38s70.666 60.166 90.999 104.499s30.5 94.166 30.5 149.499h-264v64z" />
    <glyph glyph-name="H" unicode="H" horiz-adv-x="796" 
d="M96 0v794h78v-342h434v342h80v-794h-80v388h-434v-388h-78z" />
    <glyph glyph-name="I" unicode="I" horiz-adv-x="288" 
d="M96 0v794h80v-794h-80z" />
    <glyph glyph-name="J" unicode="J" horiz-adv-x="560" 
d="M14 256l74 0.00195312c0 -40 3.5 -74.833 10.5 -104.5s20.833 -53.667 41.5 -72s51.334 -27.5 92.001 -27.5c50.667 0 86.667 12.833 108 38.5s32 70.167 32 133.5v570h80v-558c0 -80.667 -16.333 -142.834 -49 -186.501s-88.334 -65.5 -167.001 -65.5
c-74 0 -129.833 19.167 -167.5 57.5s-56.5 95.166 -56.5 170.499c0 17.333 0.666992 32 2 44z" />
    <glyph glyph-name="K" unicode="K" horiz-adv-x="760" 
d="M96 0v794h78v-412l430 412h106l-352 -330l356 -464h-94l-314 414l-132 -124v-290h-78z" />
    <glyph glyph-name="L" unicode="L" horiz-adv-x="634" 
d="M96 0v794h80v-728h410v-66h-490z" />
    <glyph glyph-name="M" unicode="M" horiz-adv-x="946" 
d="M96 0v794h96l276 -702l270 702h96v-794h-72v666l-256 -666h-76l-266 666v-666h-68z" />
    <glyph glyph-name="N" unicode="N" horiz-adv-x="796" 
d="M96 0v794h80l448 -680v680h70v-794h-78l-450 680v-680h-70z" />
    <glyph glyph-name="O" unicode="O" horiz-adv-x="872" 
d="M62 390c0 122 31.668 222.168 95.001 300.501s153.666 117.5 270.999 117.5c118.667 0 209.334 -39.167 272.001 -117.5s94 -178.5 94 -300.5c0 -82.667 -14.667 -154.334 -44 -215.001s-71.5 -107.667 -126.5 -141s-120.167 -50 -195.5 -50
c-110.667 0 -199.334 37 -266.001 111s-100 172.333 -100 295zM142.001 390.001c0 -69.333 11.501 -129.335 34.501 -180.002s56 -89.667 99 -117s93.833 -41 152.5 -41s109.5 13.667 152.5 41s76 66.333 99 117s34.5 110.667 34.5 180c0 56.667 -6.5 106.834 -19.5 150.501
s-31.333 80.334 -55 110.001s-53.334 52.334 -89.001 68.001s-76.5 23.5 -122.5 23.5c-59.333 0 -110.333 -13.667 -153 -41s-75.5 -67.833 -98.5 -121.5s-34.5 -116.834 -34.5 -189.501z" />
    <glyph glyph-name="P" unicode="P" horiz-adv-x="710" 
d="M96 0v794.001h308c164 0 246 -75.333 246 -226c0 -55.333 -11.5 -99.333 -34.5 -132s-54.667 -55.834 -95 -69.501s-87.833 -20.5 -142.5 -20.5h-204v-346h-78zM174 416.001h178c70.667 0 124.667 9.33301 162 28s56 60 56 124c0 58 -13.833 98.5 -41.5 121.5
s-76.5 34.5 -146.5 34.5h-208v-308z" />
    <glyph glyph-name="Q" unicode="Q" horiz-adv-x="884" 
d="M676 74l103.999 -77.998l-42 -50l-114 92c-30 -18 -61 -31.5 -93 -40.5s-68.333 -13.5 -109 -13.5c-71.333 0 -134.5 16.667 -189.5 50s-97.167 81.166 -126.5 143.499s-44 135.166 -44 218.499c0 74.667 14 143.5 42 206.5s69.5 113 124.5 150s119.5 55.5 193.5 55.5
c121.333 0 214 -40.667 278 -122c64 -82.667 96 -179.334 96 -290.001c0 -63.333 -9.66699 -120.666 -29 -171.999s-49.666 -101.333 -90.999 -150zM619.999 122.002c62.667 72 94.001 162.669 94.001 272.002c0 110 -25.5 195.5 -76.5 256.5s-122.833 91.5 -215.5 91.5
c-43.333 0 -82.333 -8.16699 -117 -24.5s-63.834 -39.333 -87.501 -69s-42.167 -66.167 -55.5 -109.5s-20 -91 -20 -143c0 -70.667 11.5 -131.834 34.5 -183.501s56 -91.334 99 -119.001s93.833 -41.5 152.5 -41.5c53.333 0 98 11.333 134 34l-78 62l38 50z" />
    <glyph glyph-name="R" unicode="R" horiz-adv-x="772" 
d="M96 0v794.001h320c52 0 97.667 -6.16699 137 -18.5s70.666 -34.333 93.999 -66s35 -74.834 35 -129.501c0 -46 -10.167 -84.333 -30.5 -115s-51.5 -55.667 -93.5 -75c24 -13.333 42.667 -27.833 56 -43.5s22.333 -31.5 27 -47.5s8 -39.167 10 -69.5
s3.66699 -52.833 5 -67.5c2.66699 -55.333 6.5 -91.833 11.5 -109.5s15.833 -35.167 32.5 -52.5h-94c-6.66699 18.667 -11.5 48.667 -14.5 90s-5.83301 76.5 -8.5 105.5s-8 56 -16 81s-21 44.167 -39 57.5c-13.333 10 -27.166 16.167 -41.499 18.5s-44.5 3.5 -90.5 3.5h-222
v-356h-78zM174 422.001h214c68 0 120.333 10.5 157 31.5s55 63.167 55 126.5c0 44 -9.16699 76.333 -27.5 97s-41.5 33.667 -69.5 39s-65.667 8 -113 8h-216v-302z" />
    <glyph glyph-name="S" unicode="S" horiz-adv-x="710" 
d="M48 264l77.999 0.000976562c8 -141.333 80.667 -212 218 -212c67.333 0 120.166 14.5 158.499 43.5s57.5 68.5 57.5 118.5c0 55.333 -19.5 92.666 -58.5 111.999s-99.833 37 -182.5 53s-145.167 37.833 -187.5 65.5s-63.5 76.167 -63.5 145.5
c0 68.667 24.333 122.167 73 160.5s116.334 57.5 203.001 57.5c171.333 0 264 -78 278 -234h-78c-2 58 -20.833 100.5 -56.5 127.5s-83.5 40.5 -143.5 40.5c-63.333 0 -111.833 -13.833 -145.5 -41.5s-50.5 -65.834 -50.5 -114.501c0 -52 24 -87.333 72 -106
c20.667 -7.33301 61.834 -17.333 123.501 -30s112.5 -25.667 152.5 -39s73.333 -35.166 100 -65.499s40 -70.833 40 -121.5c0 -78 -29.167 -137.5 -87.5 -178.5s-127.166 -61.5 -206.499 -61.5c-61.333 0 -115.833 13.167 -163.5 39.5s-81.834 61.833 -102.501 106.5
c-10 20 -17 39.667 -21 59s-6.33301 44.333 -7 75z" />
    <glyph glyph-name="T" unicode="T" horiz-adv-x="648" 
d="M278 0v724h-256v70h590v-70h-254v-724h-80z" />
    <glyph glyph-name="U" unicode="U" horiz-adv-x="784" 
d="M88 794h80v-524c0 -72 17 -126.333 51 -163s87.667 -55 161 -55c142.667 0 214 75.333 214 226v516h78v-506c0 -65.333 -10.5 -120.5 -31.5 -165.5s-53 -79.333 -96 -103s-97.833 -35.5 -164.5 -35.5c-44.667 0 -87.5 7.16699 -128.5 21.5s-73.5 33.833 -97.5 58.5
c-24 24 -41 52.167 -51 84.5s-15 76.833 -15 133.5v512z" />
    <glyph glyph-name="V" unicode="V" horiz-adv-x="698" 
d="M292 0l-276 794h82l234 -698l248 698h76l-288 -794h-76z" />
    <glyph glyph-name="W" unicode="W" horiz-adv-x="1008" 
d="M220 0l-204 794h82l168 -682l180 682h96l178 -694l170 694h80l-210 -794h-88l-180 680l-186 -680h-86z" />
    <glyph glyph-name="X" unicode="X" horiz-adv-x="672" 
d="M12 0l270 400l-266 394h96l216 -328l218 328h88l-264 -394l272 -400h-96l-218 332l-224 -332h-92z" />
    <glyph glyph-name="Y" unicode="Y" horiz-adv-x="710" 
d="M306 0v350l-296 444h96l240 -372l244 372h90l-296 -444v-350h-78z" />
    <glyph glyph-name="Z" unicode="Z" horiz-adv-x="698" 
d="M644 0h-610v48l510 676h-468v70h558v-70l-496 -656h506v-68z" />
    <glyph glyph-name="bracketleft" unicode="[" horiz-adv-x="376" 
d="M88 -134v928h182v-60h-116v-808h116v-60h-182z" />
    <glyph glyph-name="backslash" unicode="\" horiz-adv-x="536" 
d="M478 -138h-68l-360 932h66z" />
    <glyph glyph-name="bracketright" unicode="]" horiz-adv-x="376" 
d="M264 794v-928h-184v60h118v808h-118v60h184z" />
    <glyph glyph-name="asciicircum" unicode="^" horiz-adv-x="610" 
d="M116 452h-74l212 342h88l212 -342h-74l-184 290z" />
    <glyph glyph-name="underscore" unicode="_" horiz-adv-x="610" 
d="M0 -88h594v-52h-594v52z" />
    <glyph glyph-name="underscore" unicode="&#xad;" horiz-adv-x="610" 
d="M0 -88h594v-52h-594v52z" />
    <glyph glyph-name="grave" unicode="`" horiz-adv-x="610" 
d="M392 674h-54l-136 146h94z" />
    <glyph glyph-name="a" unicode="a" horiz-adv-x="622" 
d="M578 50l0.00195312 -49.998c-19.333 -8 -38 -12 -56 -12c-27.333 0 -47 7 -59 21s-19 37.667 -21 71c-32.667 -36 -64.334 -61 -95.001 -75s-67.667 -21 -111 -21c-59.333 0 -104.833 14.833 -136.5 44.5s-47.5 71.5 -47.5 125.5c0 53.333 16.667 92.666 50 117.999
s78.666 42.666 135.999 51.999l142 20c24.667 4 39.334 6.83301 44.001 8.5s8 5.5 10 11.5c6.66699 10 10 28 10 54c0 73.333 -47.333 110 -142 110c-50.667 0 -87.334 -9.33301 -110.001 -28s-36 -51.334 -40 -98.001h-76c8 122.667 83.333 184 226 184
c65.333 0 117.333 -14 156 -42c21.333 -14.667 36 -32.167 44 -52.5s12 -50.166 12 -89.499v-302c0 -20 2.33301 -34 7 -42s13.667 -12 27 -12c9.33301 0 19.333 1.33301 30 4zM442.002 296.002l-194 -29.998c-43.333 -6.66699 -74.833 -18.834 -94.5 -36.501
s-29.5 -42.834 -29.5 -75.501c0 -72 41.333 -108 124 -108c50.667 0 94 14 130 42c24.667 18.667 41.5 39.167 50.5 61.5s13.5 55.833 13.5 100.5v46z" />
    <glyph glyph-name="b" unicode="b" horiz-adv-x="672" 
d="M88 0l0.000976562 793.999h72v-308c28.667 36.667 57.667 62.5 87 77.5s65.666 22.5 108.999 22.5c48 0 90.167 -12.333 126.5 -37s64.333 -59.167 84 -103.5s29.5 -97.5 29.5 -159.5c0 -44.667 -6.16699 -85.667 -18.5 -123s-29.5 -69 -51.5 -95
s-48.833 -46.5 -80.5 -61.5s-65.5 -22.5 -101.5 -22.5c-37.333 0 -70 7.33301 -98 22s-56.667 39.334 -86 74.001v-80h-72zM160.001 285.999c0 -77.333 15.832 -136.667 47.499 -178s77.167 -62 136.5 -62c54 0 97.5 22.333 130.5 67s49.5 103 49.5 175
c0 78 -14.833 137.5 -44.5 178.5s-74.167 61.5 -133.5 61.5c-45.333 0 -81.666 -11.5 -108.999 -34.5s-47 -52.5 -59 -88.5s-18 -75.667 -18 -119z" />
    <glyph glyph-name="c" unicode="c" horiz-adv-x="610" 
d="M476 198l70 0.00292969c-32.667 -142.667 -113.334 -214 -242.001 -214c-74.667 0 -135 27.333 -181 82s-69 126 -69 214c0 93.333 24.833 167.666 74.5 222.999s114.834 83 195.501 83c62 0 112.5 -16.833 151.5 -50.5s62.5 -81.5 70.5 -143.5h-70
c-4 43.333 -19 76.166 -45 98.499s-63 33.5 -111 33.5c-59.333 0 -106.5 -21.667 -141.5 -65s-52.5 -102.333 -52.5 -177c0 -70 17.167 -126.5 51.5 -169.5s79.833 -64.5 136.5 -64.5c45.333 0 82.5 13.167 111.5 39.5s45.833 63.166 50.5 110.499z" />
    <glyph glyph-name="d" unicode="d" horiz-adv-x="672" 
d="M562 0h-70.001v80c-31.333 -35.333 -60.666 -60.166 -87.999 -74.499s-60 -21.5 -98 -21.5c-74.667 0 -135.334 28 -182.001 84s-70 128.667 -70 218c0 91.333 21.833 164.166 65.5 218.499s101.834 81.5 174.501 81.5c44 0 80.5 -7.5 109.5 -22.5
s58.5 -40.833 88.5 -77.5v308h70v-794zM491.999 286c0 70 -14.835 127.833 -44.502 173.5s-77.5 68.5 -143.5 68.5c-39.333 0 -72.166 -9.5 -98.499 -28.5s-46.166 -46.333 -59.499 -82s-20 -78.834 -20 -129.501c0 -71.333 16.667 -129.5 50 -174.5
s76.666 -67.5 129.999 -67.5c60.667 0 106.834 20.333 138.501 61s47.5 100.334 47.5 179.001z" />
    <glyph glyph-name="e" unicode="e" horiz-adv-x="634" 
d="M480 180h74.001c-24 -62.667 -55.333 -111 -94 -145s-89.334 -51 -152.001 -51c-78.667 0 -140.667 26.333 -186 79s-68 124.334 -68 215.001c0 94 23.333 168.833 70 224.5s110 83.5 190 83.5c46 0 87 -10.667 123 -32s63 -50.666 81 -87.999
c11.333 -24.667 19.333 -54.334 24 -89.001s8.66699 -68.334 12 -101.001h-430c0 -74 16 -130.833 48 -170.5s78.667 -59.5 140 -59.5c90 0 146 44.667 168 134zM126.001 334h354c-2 62 -17.5 109.833 -46.5 143.5s-69.5 50.5 -121.5 50.5
c-51.333 0 -92.833 -16.333 -124.5 -49s-52.167 -81 -61.5 -145z" />
    <glyph glyph-name="f" unicode="f" horiz-adv-x="326" 
d="M106 0l0.000976562 516h-82v54h82v104c0 84 39.333 126 118 126c17.333 0 34 -0.666992 50 -2v-62c-10.667 1.33301 -21.334 2 -32.001 2c-27.333 0 -44.833 -5 -52.5 -15s-11.5 -31.667 -11.5 -65v-88h96v-54h-96v-516h-72z" />
    <glyph glyph-name="g" unicode="g" horiz-adv-x="672" 
d="M562 570l-0.00390625 -512.001c0 -91.333 -21 -158.166 -63 -200.499s-107 -63.5 -195 -63.5c-63.333 0 -114.166 12.667 -152.499 38s-60.833 62 -67.5 110h70c2.66699 -27.333 17.834 -49.833 45.501 -67.5s62.5 -26.5 104.5 -26.5c70 0 120.667 20 152 60
c13.333 17.333 21.833 35.333 25.5 54s6.5 54 8.5 106c0.666992 4.66699 1.16699 9 1.5 13s0.5 9.66699 0.5 17c-31.333 -36 -60.666 -61 -87.999 -75s-60 -21 -98 -21c-76 0 -137 26.667 -183 80s-69 124 -69 212c0 86.667 23.167 157 69.5 211s106.5 81 180.5 81
c76.667 0 139.334 -32 188.001 -96v80h70zM125.996 293.999c0 -72 16 -128.665 48 -169.998s76 -62 132 -62c61.333 0 108.333 20.667 141 62s49 100.666 49 177.999c0 72 -15.833 127.667 -47.5 167s-76.5 59 -134.5 59c-58.667 0 -104.667 -20.833 -138 -62.5
s-50 -98.834 -50 -171.501z" />
    <glyph glyph-name="h" unicode="h" horiz-adv-x="648" 
d="M88 0l-0.00195312 794.002h74v-292c26.667 31.333 53.334 53.166 80.001 65.499s60 18.5 100 18.5c74 0 125.5 -17.667 154.5 -53s43.5 -90.333 43.5 -165v-368h-72v372c0 55.333 -10.5 95.166 -31.5 119.499s-56.5 36.5 -106.5 36.5
c-53.333 0 -94.666 -17.5 -123.999 -52.5s-44 -82.833 -44 -143.5v-332h-74z" />
    <glyph glyph-name="i" unicode="i" horiz-adv-x="262" 
d="M88 0v570h72v-570h-72zM88 696v98h72v-98h-72z" />
    <glyph glyph-name="i" unicode="&#x456;" horiz-adv-x="262" 
d="M88 0v570h72v-570h-72zM88 696v98h72v-98h-72z" />
    <glyph glyph-name="i" unicode="&#xb3;" horiz-adv-x="262" 
d="M88 0v570h72v-570h-72zM88 696v98h72v-98h-72z" />
    <glyph glyph-name="j" unicode="j" horiz-adv-x="276" 
d="M92 570h71.999v-606c0 -44 -3.83301 -77.667 -11.5 -101s-20.667 -40 -39 -50s-44.166 -15 -77.499 -15c-8 0 -16 0.666992 -24 2v62c8 -1.33301 16 -2 24 -2c21.333 0 36 7.5 44 22.5s12 42.833 12 83.5v604zM91.999 694v96h72v-96h-72z" />
    <glyph glyph-name="k" unicode="k" horiz-adv-x="598" 
d="M88 0v794h72v-490l280 266l102 4l-234 -212l248 -362h-88l-206 316l-102 -92v-224h-72z" />
    <glyph glyph-name="l" unicode="l" horiz-adv-x="262" 
d="M88 0v794h72v-794h-72z" />
    <glyph glyph-name="m" unicode="m" horiz-adv-x="960" 
d="M88 0l0.00195312 570.001h72v-62c44 52 97.333 78 160 78c78 0 133.333 -32 166 -96c42 64 100 96 174 96c71.333 0 120.166 -17.333 146.499 -52s39.5 -87.334 39.5 -158.001v-376h-74v382c0 52 -8.83301 89.333 -26.5 112s-46.834 34 -87.501 34
c-52.667 0 -91.5 -15.833 -116.5 -47.5s-37.5 -81.167 -37.5 -148.5v-332h-72v380c0 51.333 -8.66699 88.833 -26 112.5s-46 35.5 -86 35.5c-106.667 0 -160 -70 -160 -210v-318h-72z" />
    <glyph glyph-name="n" unicode="n" horiz-adv-x="648" 
d="M88 0l-0.00195312 570.002h74v-68c26.667 31.333 53.334 53.166 80.001 65.499s60 18.5 100 18.5c74 0 125.5 -17.667 154.5 -53s43.5 -90.333 43.5 -165v-368h-72v372c0 55.333 -10.5 95.166 -31.5 119.499s-56.5 36.5 -106.5 36.5
c-53.333 0 -94.666 -17.5 -123.999 -52.5s-44 -82.833 -44 -143.5v-332h-74z" />
    <glyph glyph-name="o" unicode="o" 
d="M54 286c0 59.333 11.168 111.832 33.501 157.499s53.5 80.834 93.5 105.501s85.667 37 137 37c52 0 98 -12.333 138 -37s71 -60 93 -106s33 -98.333 33 -157c0 -62 -10.5 -115.833 -31.5 -161.5s-51.5 -80.5 -91.5 -104.5s-87 -36 -141 -36
c-82.667 0 -147.334 27 -194.001 81s-70 127.667 -70 221zM126.001 287.999c0 -78.667 16.332 -138.667 48.999 -180s80.334 -62 143.001 -62c62 0 109.5 20.833 142.5 62.5s49.5 101.5 49.5 179.5c0 48 -8 90 -24 126s-38.5 64 -67.5 84s-62.5 30 -100.5 30
s-71.5 -10 -100.5 -30s-51.5 -48 -67.5 -84s-24 -78 -24 -126z" />
    <glyph glyph-name="p" unicode="p" horiz-adv-x="672" 
d="M160 -204l-72 0.000976562v774h72v-80c25.333 33.333 52.833 57.666 82.5 72.999s64.167 23 103.5 23c48.667 0 92 -12.5 130 -37.5s67.5 -59.5 88.5 -103.5s31.5 -95 31.5 -153c0 -89.333 -22.667 -163 -68 -221s-111.333 -87 -198 -87c-36 0 -67.833 7.5 -95.5 22.5
s-52.5 37.5 -74.5 67.5v-278zM524 292.001c0 72 -16.168 129.334 -48.501 172.001s-76.166 64 -131.499 64c-67.333 0 -115.5 -23.333 -144.5 -70s-43.5 -105.334 -43.5 -176.001c0 -74.667 15.333 -132.667 46 -174s74 -62 130 -62c40 0 74.5 9.66699 103.5 29
s51 47.833 66 85.5s22.5 81.5 22.5 131.5z" />
    <glyph glyph-name="q" unicode="q" horiz-adv-x="672" 
d="M492 -204l0.000976562 277.999c-23.333 -30.667 -48.833 -53.334 -76.5 -68.001s-59.5 -22 -95.5 -22c-86 0 -151.833 29 -197.5 87s-68.5 131.667 -68.5 221c0 86.667 23.667 157.334 71 212.001s107.666 82 180.999 82c39.333 0 73.833 -7.66699 103.5 -23
s57.167 -39.666 82.5 -72.999v80h70v-774h-70zM126.001 291.999c0 -77.333 17.001 -137.667 51.001 -181s81 -65 141 -65c56 0 99.333 20.667 130 62s46 99.333 46 174c0 46.667 -5.66699 88 -17 124s-31 65.333 -59 88s-65.333 34 -112 34
c-54.667 0 -98.334 -21.5 -131.001 -64.5s-49 -100.167 -49 -171.5z" />
    <glyph glyph-name="r" unicode="r" horiz-adv-x="400" 
d="M88 0v570.001h72v-94c14 25.333 28.167 45.5 42.5 60.5s30.833 26 49.5 33s40.667 10.5 66 10.5c10.667 0 20 -0.666992 28 -2v-70h-18c-58 0 -100.5 -21.833 -127.5 -65.5s-40.5 -95.834 -40.5 -156.501v-286h-72z" />
    <glyph glyph-name="s" unicode="s" horiz-adv-x="560" 
d="M118 180c8 -88 62.667 -132.001 164 -132.001c42.667 0 77.334 9.66699 104.001 29s40 45.666 40 78.999c0 34.667 -14.5 58.667 -43.5 72s-73.333 26.166 -133 38.499s-105.5 28.833 -137.5 49.5s-48 54.667 -48 102c0 54.667 18.333 96.334 55 125.001
s89.667 43 159 43c38 0 72.167 -6.83301 102.5 -20.5s54.333 -33.5 72 -59.5s28.167 -58.667 31.5 -98h-68c-8 42.667 -22.833 72.334 -44.5 89.001s-56.834 25 -105.501 25c-41.333 0 -73.333 -8.33301 -96 -25s-34 -39.667 -34 -69c0 -33.333 12.5 -55.5 37.5 -66.5
s69.333 -24 133 -39s111.167 -33.167 142.5 -54.5s47 -56 47 -104c0 -55.333 -20 -99.166 -60 -131.499s-93.333 -48.5 -160 -48.5c-66 0 -120.5 16.667 -163.5 50s-64.5 82 -64.5 146h70z" />
    <glyph glyph-name="s" horiz-adv-x="560" 
d="M118 180c8 -88 62.667 -132.001 164 -132.001c42.667 0 77.334 9.66699 104.001 29s40 45.666 40 78.999c0 34.667 -14.5 58.667 -43.5 72s-73.333 26.166 -133 38.499s-105.5 28.833 -137.5 49.5s-48 54.667 -48 102c0 54.667 18.333 96.334 55 125.001
s89.667 43 159 43c38 0 72.167 -6.83301 102.5 -20.5s54.333 -33.5 72 -59.5s28.167 -58.667 31.5 -98h-68c-8 42.667 -22.833 72.334 -44.5 89.001s-56.834 25 -105.501 25c-41.333 0 -73.333 -8.33301 -96 -25s-34 -39.667 -34 -69c0 -33.333 12.5 -55.5 37.5 -66.5
s69.333 -24 133 -39s111.167 -33.167 142.5 -54.5s47 -56 47 -104c0 -55.333 -20 -99.166 -60 -131.499s-93.333 -48.5 -160 -48.5c-66 0 -120.5 16.667 -163.5 50s-64.5 82 -64.5 146h70z" />
    <glyph glyph-name="t" unicode="t" horiz-adv-x="326" 
d="M264 0c-23.333 -10.667 -47.3311 -16 -71.998 -16c-34 0 -57.5 8.5 -70.5 25.5s-19.5 46.5 -19.5 88.5v406h-80v54h80v168h74v-168h88v-54h-88v-406c0 -22.667 3.16699 -38.667 9.5 -48s17.166 -14 32.499 -14c13.333 0 28.666 4 45.999 12v-48z" />
    <glyph glyph-name="u" unicode="u" horiz-adv-x="648" 
d="M540 570l-0.00292969 -570.004h-74v68c-21.333 -23.333 -40.166 -40.666 -56.499 -51.999s-34.166 -19.5 -53.499 -24.5s-42.666 -7.5 -69.999 -7.5c-48 0 -87 8.33301 -117 25s-51 40.834 -63 72.501s-18 71.834 -18 120.501v368h72v-372
c0 -55.333 10.833 -95.166 32.5 -119.499s56.167 -36.5 103.5 -36.5c53.333 0 95 17.333 125 52s45 82.667 45 144v332h74z" />
    <glyph glyph-name="v" unicode="v" horiz-adv-x="536" 
d="M220 0l-210 570h78l170 -480l176 480h76l-218 -570h-72z" />
    <glyph glyph-name="w" unicode="w" horiz-adv-x="796" 
d="M182 0l-174 570h76l136 -460l132 460h74l122 -460l146 460h74l-184 -570h-70l-126 456l-134 -456h-72z" />
    <glyph glyph-name="x" unicode="x" horiz-adv-x="548" 
d="M4 0l220 300l-198 270h84l152 -220l156 220h84l-200 -270l218 -300h-86l-172 244l-172 -244h-86z" />
    <glyph glyph-name="y" unicode="y" horiz-adv-x="548" 
d="M72 -138c16 -4 30.6689 -6 44.002 -6c18.667 0 34.167 5 46.5 15s22.166 21.667 29.499 35s14.666 31.333 21.999 54s12.666 38.667 15.999 48l-220 562h76l180 -472l176 472h74l-260 -668c-16 -40 -34 -67.667 -54 -83s-48 -23 -84 -23
c-17.333 0 -32.666 1.33301 -45.999 4v62z" />
    <glyph glyph-name="z" unicode="z" horiz-adv-x="536" 
d="M490 0h-454v52l348 454h-322v64h414v-50l-350 -456h364v-64z" />
    <glyph glyph-name="braceleft" unicode="{" horiz-adv-x="610" 
d="M252 292c24 -12 40.668 -28.168 50.001 -48.501s14 -49.5 14 -87.5v-194c0 -44 8 -74.667 24 -92s45.333 -26 88 -26v-64c-46 0 -82.5 4.83301 -109.5 14.5s-46.833 27.334 -59.5 53.001s-19 62.5 -19 110.5v194c0 34.667 -4.83301 60.334 -14.5 77.001
s-27.5 29 -53.5 37v58c24.667 8 42.167 20.333 52.5 37s15.5 41 15.5 73v214c0 60 14.167 102 42.5 126s72.166 36 131.499 36c5.33301 0 10 -0.666992 14 -2v-66c-43.333 -2 -72.833 -11 -88.5 -27s-23.5 -44.333 -23.5 -85v-204c0 -37.333 -4.66699 -65.833 -14 -85.5
s-26 -35.834 -50 -48.501z" />
    <glyph glyph-name="bar" unicode="|" horiz-adv-x="610" 
d="M258 790h80v-990h-80v990z" />
    <glyph glyph-name="bar" unicode="&#xa6;" horiz-adv-x="610" 
d="M258 790h80v-990h-80v990z" />
    <glyph glyph-name="braceright" unicode="}" horiz-adv-x="610" 
d="M342 294c-23.333 12.667 -39.833 29.335 -49.5 50.002s-14.5 49.334 -14.5 86.001v198c0 43.333 -7.83301 73.666 -23.5 90.999s-45.167 26.333 -88.5 27v64c50 0 87.667 -4.16699 113 -12.5s44.166 -25.333 56.499 -51s18.5 -63.834 18.5 -114.501v-194
c0 -34 5.16699 -59.833 15.5 -77.5s27.833 -29.834 52.5 -36.501v-58c-24.667 -8 -42.167 -20.833 -52.5 -38.5s-15.5 -42.167 -15.5 -73.5v-216c0 -58.667 -13.667 -99.667 -41 -123s-71.666 -35 -132.999 -35h-14v66c42 0.666992 71.167 9.16699 87.5 25.5
s24.5 45.833 24.5 88.5v204c0 37.333 4.66699 65.333 14 84s26 34 50 46z" />
    <glyph glyph-name="asciitilde" unicode="~" horiz-adv-x="610" 
d="M58 570l-44.001 34c40.667 85.333 93.334 128 158.001 128c32 0 75 -15 129 -45s95.667 -45 125 -45c21.333 0 40.833 6.83301 58.5 20.5s36.167 37.5 55.5 71.5l42 -34c-39.333 -85.333 -93.333 -128 -162 -128c-18.667 0 -37.5 3.66699 -56.5 11
s-41.833 18.333 -68.5 33s-49 25.667 -67 33s-38 11 -60 11c-41.333 0 -78 -30 -110 -90z" />
    <glyph glyph-name="Agrave" horiz-adv-x="362" 
d="M242 478v-84l-124 -106l124 -108v-88l-184 162v62z" />
    <glyph glyph-name="quoteleft" horiz-adv-x="262" 
d="M88 540l0.00195312 84.001c0 50.667 6.16699 88.667 18.5 114s34.166 44 65.499 56v-48c-14.667 -6.66699 -25.334 -16.834 -32.001 -30.501s-10 -33.5 -10 -59.5c0 -1.33301 0.666992 -4 2 -8s2 -7.33301 2 -10h38v-98h-84z" />
    <glyph glyph-name="quoteleft" unicode="&#x2018;" horiz-adv-x="262" 
d="M88 540l0.00195312 84.001c0 50.667 6.16699 88.667 18.5 114s34.166 44 65.499 56v-48c-14.667 -6.66699 -25.334 -16.834 -32.001 -30.501s-10 -33.5 -10 -59.5c0 -1.33301 0.666992 -4 2 -8s2 -7.33301 2 -10h38v-98h-84z" />
    <glyph glyph-name="quoteright" horiz-adv-x="262" 
d="M172 794l-0.000976562 -87.999c0 -51.333 -6.16699 -89.333 -18.5 -114s-34.166 -42 -65.499 -52v46c15.333 7.33301 25.833 17.166 31.5 29.499s8.5 32.5 8.5 60.5v16h-40v102h84z" />
    <glyph glyph-name="quoteright" unicode="&#x2019;" horiz-adv-x="262" 
d="M172 794l-0.000976562 -87.999c0 -51.333 -6.16699 -89.333 -18.5 -114s-34.166 -42 -65.499 -52v46c15.333 7.33301 25.833 17.166 31.5 29.499s8.5 32.5 8.5 60.5v16h-40v102h84z" />
    <glyph glyph-name="quoteright" unicode="&#x491;" horiz-adv-x="262" 
d="M172 794l-0.000976562 -87.999c0 -51.333 -6.16699 -89.333 -18.5 -114s-34.166 -42 -65.499 -52v46c15.333 7.33301 25.833 17.166 31.5 29.499s8.5 32.5 8.5 60.5v16h-40v102h84z" />
    <glyph glyph-name="quoteright" unicode="&#xb4;" horiz-adv-x="262" 
d="M172 794l-0.000976562 -87.999c0 -51.333 -6.16699 -89.333 -18.5 -114s-34.166 -42 -65.499 -52v46c15.333 7.33301 25.833 17.166 31.5 29.499s8.5 32.5 8.5 60.5v16h-40v102h84z" />
    <glyph glyph-name="quotedblleft" horiz-adv-x="410" 
d="M88 540v84c0 50.667 6.16699 88.667 18.5 114s34.166 44 65.499 56v-48c-15.333 -6.66699 -26.166 -17 -32.499 -31s-9.5 -33.667 -9.5 -59v-18h42v-98h-84zM232 540l-0.000976562 84c0 51.333 6.33301 89.5 19 114.5s34.334 43.5 65.001 55.5v-48
c-14 -6.66699 -23.833 -17 -29.5 -31s-8.5 -33.667 -8.5 -59v-18h38v-98h-84z" />
    <glyph glyph-name="quotedblleft" unicode="&#x201c;" horiz-adv-x="410" 
d="M88 540v84c0 50.667 6.16699 88.667 18.5 114s34.166 44 65.499 56v-48c-15.333 -6.66699 -26.166 -17 -32.499 -31s-9.5 -33.667 -9.5 -59v-18h42v-98h-84zM232 540l-0.000976562 84c0 51.333 6.33301 89.5 19 114.5s34.334 43.5 65.001 55.5v-48
c-14 -6.66699 -23.833 -17 -29.5 -31s-8.5 -33.667 -8.5 -59v-18h38v-98h-84z" />
    <glyph glyph-name="quotedblright" horiz-adv-x="410" 
d="M316 794l-0.00195312 -87.999c0 -51.333 -6.16699 -89.333 -18.5 -114s-34.166 -42 -65.499 -52v46c16.667 7.33301 27.834 17.166 33.501 29.499s8.5 32.5 8.5 60.5v16h-42v102h84zM171.998 794.001l-0.000976562 -88.001c0 -51.333 -6.16699 -89.333 -18.5 -114
s-34.166 -42 -65.499 -52v46c14 7.33301 24.167 17.666 30.5 30.999s9.5 33 9.5 59c0 2.66699 -0.166992 5.33398 -0.5 8.00098s-0.833008 5.33398 -1.5 8.00098h-38v102h84z" />
    <glyph glyph-name="quotedblright" unicode="&#x201d;" horiz-adv-x="410" 
d="M316 794l-0.00195312 -87.999c0 -51.333 -6.16699 -89.333 -18.5 -114s-34.166 -42 -65.499 -52v46c16.667 7.33301 27.834 17.166 33.501 29.499s8.5 32.5 8.5 60.5v16h-42v102h84zM171.998 794.001l-0.000976562 -88.001c0 -51.333 -6.16699 -89.333 -18.5 -114
s-34.166 -42 -65.499 -52v46c14 7.33301 24.167 17.666 30.5 30.999s9.5 33 9.5 59c0 2.66699 -0.166992 5.33398 -0.5 8.00098s-0.833008 5.33398 -1.5 8.00098h-38v102h84z" />
    <glyph glyph-name="endash" horiz-adv-x="622" 
d="M88 252v68h452v-68h-452z" />
    <glyph glyph-name="endash" unicode="&#x2013;" horiz-adv-x="622" 
d="M88 252v68h452v-68h-452z" />
    <glyph glyph-name="emdash" horiz-adv-x="846" 
d="M0 252v68h760v-68h-760z" />
    <glyph glyph-name="emdash" unicode="&#x2014;" horiz-adv-x="846" 
d="M0 252v68h760v-68h-760z" />
    <glyph glyph-name="trademark" horiz-adv-x="1084" 
d="M178 318v428h-158v48h374v-48h-156v-428h-60zM478 318v476h68l166 -406l164 406h70v-476h-56v374l-152 -374h-52l-156 374v-374h-52z" />
    <glyph glyph-name="trademark" unicode="&#x2122;" horiz-adv-x="1084" 
d="M178 318v428h-158v48h374v-48h-156v-428h-60zM478 318v476h68l166 -406l164 406h70v-476h-56v374l-152 -374h-52l-156 374v-374h-52z" />
    <glyph glyph-name="Atilde" horiz-adv-x="362" 
d="M76 478l186 -162v-62l-186 -162v88l124 108l-124 106v84z" />
    <glyph glyph-name="ydieresis" unicode="&#xa1;" horiz-adv-x="672" 
d="M616 794l-410 -794h-88l164 304l-266 490h96l214 -422l196 422h94zM320 818c-37.333 0 -70.333 9.83398 -99 29.501s-43 45.834 -43 78.501h70c0 -12 7.5 -23.333 22.5 -34s31.5 -16.667 49.5 -18c18.667 1.33301 36 7.16602 52 17.499s24 21.833 24 34.5h70
c0 -32.667 -14.5 -58.834 -43.5 -78.501s-63.167 -29.5 -102.5 -29.5z" />
    <glyph glyph-name="ydieresis" unicode="&#x40e;" horiz-adv-x="672" 
d="M616 794l-410 -794h-88l164 304l-266 490h96l214 -422l196 422h94zM320 818c-37.333 0 -70.333 9.83398 -99 29.501s-43 45.834 -43 78.501h70c0 -12 7.5 -23.333 22.5 -34s31.5 -16.667 49.5 -18c18.667 1.33301 36 7.16602 52 17.499s24 21.833 24 34.5h70
c0 -32.667 -14.5 -58.834 -43.5 -78.501s-63.167 -29.5 -102.5 -29.5z" />
    <glyph glyph-name="Ydieresis" unicode="&#xa2;" horiz-adv-x="560" 
d="M72 -138c16 -4 30.6689 -6 44.002 -6c18.667 0 34.167 5 46.5 15s22.166 21.667 29.499 35s14.666 31.333 21.999 54s12.666 38.667 15.999 48l-220 562h76l180 -472l176 472h74l-260 -668c-16 -40 -34 -67.667 -54 -83s-48 -23 -84 -23
c-17.333 0 -32.666 1.33301 -45.999 4v62zM262.002 684c-36.667 0 -68.8311 9.83301 -96.498 29.5s-41.5 45.167 -41.5 76.5h66c0 -12.667 7.16699 -23.5 21.5 -32.5s31.166 -14.167 50.499 -15.5c17.333 1.33301 33.666 6.5 48.999 15.5s23 19.833 23 32.5h68
c0 -30.667 -14.333 -56 -43 -76s-61 -30 -97 -30z" />
    <glyph glyph-name="Ydieresis" unicode="&#x45e;" horiz-adv-x="560" 
d="M72 -138c16 -4 30.6689 -6 44.002 -6c18.667 0 34.167 5 46.5 15s22.166 21.667 29.499 35s14.666 31.333 21.999 54s12.666 38.667 15.999 48l-220 562h76l180 -472l176 472h74l-260 -668c-16 -40 -34 -67.667 -54 -83s-48 -23 -84 -23
c-17.333 0 -32.666 1.33301 -45.999 4v62zM262.002 684c-36.667 0 -68.8311 9.83301 -96.498 29.5s-41.5 45.167 -41.5 76.5h66c0 -12.667 7.16699 -23.5 21.5 -32.5s31.166 -14.167 50.499 -15.5c17.333 1.33301 33.666 6.5 48.999 15.5s23 19.833 23 32.5h68
c0 -30.667 -14.333 -56 -43 -76s-61 -30 -97 -30z" />
    <glyph glyph-name="Ydieresis" unicode="&#x178;" horiz-adv-x="560" 
d="M72 -138c16 -4 30.6689 -6 44.002 -6c18.667 0 34.167 5 46.5 15s22.166 21.667 29.499 35s14.666 31.333 21.999 54s12.666 38.667 15.999 48l-220 562h76l180 -472l176 472h74l-260 -668c-16 -40 -34 -67.667 -54 -83s-48 -23 -84 -23
c-17.333 0 -32.666 1.33301 -45.999 4v62zM262.002 684c-36.667 0 -68.8311 9.83301 -96.498 29.5s-41.5 45.167 -41.5 76.5h66c0 -12.667 7.16699 -23.5 21.5 -32.5s31.166 -14.167 50.499 -15.5c17.333 1.33301 33.666 6.5 48.999 15.5s23 19.833 23 32.5h68
c0 -30.667 -14.333 -56 -43 -76s-61 -30 -97 -30z" />
    <glyph glyph-name="lozenge" unicode="&#xa3;" horiz-adv-x="448" 
d="M38 138l130 -0.000976562v-124c0 -53.333 -10.833 -96.333 -32.5 -129s-54.167 -53 -97.5 -61v62c23.333 8 39 19.833 47 35.5s13 41.834 15 78.501h-62v138zM228 137.999l130 -0.000976562v-124c0 -53.333 -11.167 -96.333 -33.5 -129s-54.5 -53 -96.5 -61v62
c22 8.66699 37.333 20.834 46 36.501s14 41.5 16 77.5h-62v138z" />
    <glyph glyph-name="lozenge" unicode="&#x408;" horiz-adv-x="448" 
d="M38 138l130 -0.000976562v-124c0 -53.333 -10.833 -96.333 -32.5 -129s-54.167 -53 -97.5 -61v62c23.333 8 39 19.833 47 35.5s13 41.834 15 78.501h-62v138zM228 137.999l130 -0.000976562v-124c0 -53.333 -11.167 -96.333 -33.5 -129s-54.5 -53 -96.5 -61v62
c22 8.66699 37.333 20.834 46 36.501s14 41.5 16 77.5h-62v138z" />
    <glyph glyph-name="caron" unicode="&#xa4;" horiz-adv-x="846" 
d="M88 130l104.001 108.001c-38.667 52.667 -58 108.667 -58 168c0 54 20 110 60 168l-110 108l42 42l110 -108c33.333 23.333 62 39.166 86 47.499s52.667 12.5 86 12.5c29.333 0 56.166 -4.5 80.499 -13.5s52.833 -24.5 85.5 -46.5l110 108l42 -42l-108 -108
c38.667 -51.333 58 -107.333 58 -168c0 -31.333 -4.16699 -59 -12.5 -83s-22.833 -52.333 -43.5 -85l106 -108l-40 -42l-108 110c-52.667 -41.333 -110 -62 -172 -62c-54 0 -110 20.667 -168 62l-110 -110zM406.001 610.001c-56.667 0 -104.832 -19.833 -144.499 -59.5
s-59.5 -87.834 -59.5 -144.501c0 -36.667 9.16699 -70.667 27.5 -102s43.166 -56.166 74.499 -74.499s65.333 -27.5 102 -27.5c56.667 0 104.5 19.833 143.5 59.5s58.5 87.834 58.5 144.501c0 57.333 -19.333 105.666 -58 144.999s-86.667 59 -144 59z" />
    <glyph glyph-name="section" unicode="&#xa7;" horiz-adv-x="684" 
d="M528 612l-72.002 -0.000976562c-2 43.333 -13 76.166 -33 98.499s-48.333 33.5 -85 33.5c-35.333 0 -63.166 -8.16699 -83.499 -24.5s-30.5 -38.166 -30.5 -65.499c0 -24 7.5 -44 22.5 -60s45.5 -36.667 91.5 -62l80 -44.5c30.667 -17 58.334 -34.833 83.001 -53.5
s45 -40.667 61 -66s24 -54 24 -86c0 -31.333 -9.33301 -60 -28 -86s-46 -46.667 -82 -62c12 -7.33301 22.333 -17.666 31 -30.999s15 -27.333 19 -42s6 -29.667 6 -45c0 -48.667 -17.5 -88.167 -52.5 -118.5s-80.833 -45.5 -137.5 -45.5c-131.333 0 -200 68.667 -206 206h76
c4 -94.667 46.667 -142 128 -142c33.333 0 61 8.83301 83 26.5s33 40.167 33 67.5c0 32.667 -14.667 60.5 -44 83.5s-75 51.667 -137 86s-108.667 66.5 -140 96.5s-47 68 -47 114c0 33.333 10 64 30 92s46.667 48 80 60c-32 32 -48 67.333 -48 106
c0 48 17.333 86.667 52 116s80 44 136 44c60.667 0 107.5 -17.167 140.5 -51.5s49.5 -82.5 49.5 -144.5zM241.998 501.999c-54.667 -25.333 -82 -61.332 -82 -107.999c0 -21.333 8 -41.333 24 -60s42.667 -38.667 80 -60c72 -42.667 126.667 -76 164 -100
c57.333 19.333 86 54 86 104c0 24 -9.66699 46.333 -29 67s-43 39.667 -71 57s-60.167 35.666 -96.5 54.999s-61.5 34.333 -75.5 45z" />
    <glyph glyph-name="guilsinglright" unicode="&#xa8;" horiz-adv-x="748" 
d="M96 0v794h532v-70h-452v-284h416v-64h-416v-310h462v-66h-542zM242 884v90h66v-90h-66zM434 884v90h68v-90h-68z" />
    <glyph glyph-name="guilsinglright" unicode="&#x203a;" horiz-adv-x="748" 
d="M96 0v794h532v-70h-452v-284h416v-64h-416v-310h462v-66h-542zM242 884v90h66v-90h-66zM434 884v90h68v-90h-68z" />
    <glyph glyph-name="guilsinglright" unicode="&#x401;" horiz-adv-x="748" 
d="M96 0v794h532v-70h-452v-284h416v-64h-416v-310h462v-66h-542zM242 884v90h66v-90h-66zM434 884v90h68v-90h-68z" />
    <glyph glyph-name="copyright" unicode="&#xa9;" horiz-adv-x="960" 
d="M686 352c-2.66699 -59.333 -24 -107.168 -64 -143.501s-90.667 -54.5 -152 -54.5c-66 0 -120.167 22.5 -162.5 67.5s-63.5 102.5 -63.5 172.5c0 73.333 21.167 133 63.5 179s96.5 69 162.5 69c38.667 0 73.167 -7 103.5 -21s54.833 -33.167 73.5 -57.5
s29.667 -52.166 33 -83.499h-44c-8 36.667 -26.167 65.167 -54.5 85.5s-65.5 30.5 -111.5 30.5c-51.333 0 -93.166 -18.5 -125.499 -55.5s-48.5 -85.833 -48.5 -146.5c0 -56.667 16.333 -103.167 49 -139.5s74.334 -54.5 125.001 -54.5c49.333 0 89.166 13.167 119.499 39.5
s49.166 63.833 56.499 112.5h40zM468 805.998c74 0 142.167 -18.333 204.5 -55s111.833 -86.667 148.5 -150s55 -131.666 55 -204.999c0 -55.333 -10.167 -107.5 -30.5 -156.5s-49.5 -92.667 -87.5 -131s-82.167 -68.333 -132.5 -90s-102.833 -32.5 -157.5 -32.5
c-72 0 -139.667 18.5 -203 55.5s-113.333 86.833 -150 149.5s-55 131 -55 205c0 73.333 18.333 141.666 55 204.999s86.167 113.333 148.5 150s130.5 55 204.5 55zM468 763.998c-50 0 -96.6709 -9.17188 -140.004 -27.5049s-82.5 -44.666 -117.5 -78.999
s-61.833 -73.666 -80.5 -117.999s-28 -92.166 -28 -143.499c0 -50.667 9.33301 -98.167 28 -142.5s45.334 -83.5 80.001 -117.5s73.834 -60.5 117.501 -79.5s90.5 -28.5 140.5 -28.5c66.667 0 127.667 16.333 183 49s99.333 77.334 132 134.001s49 118.334 49 185.001
c0 50.667 -9.16699 98.334 -27.5 143.001s-44.666 84.167 -78.999 118.5s-73.166 60.666 -116.499 78.999s-90.333 27.5 -141 27.5z" />
    <glyph glyph-name="guillemotleft" unicode="&#xab;" horiz-adv-x="560" 
d="M242 478v-84l-124 -106l124 -108v-88l-188 162v62zM448 478v-84l-122 -106l122 -108v-88l-186 162v62z" />
    <glyph glyph-name="logicalnot" unicode="&#xac;" 
d="M480 0v258h-440v70h514v-328h-74z" />
    <glyph glyph-name="registered" unicode="&#xae;" horiz-adv-x="984" 
d="M292 628l198 -0.000976562c53.333 0 94 -11 122 -33s42 -54.333 42 -97c0 -54.667 -28.667 -92.667 -86 -114c35.333 -11.333 56.833 -27.333 64.5 -48s11.5 -50.167 11.5 -88.5s5.33301 -67.5 16 -87.5h-52c-4.66699 10 -8 26.667 -10 50
c-1.33301 41.333 -2.5 68.5 -3.5 81.5s-5 25.833 -12 38.5s-19.333 21.834 -37 27.501s-43.5 8.5 -77.5 8.5h-124v-206h-52v468zM344 591.999v-190h124c44 0 77 7.66699 99 23s33 39 33 71c0 64 -40 96 -120 96h-136zM468 805.999c74 0 142.167 -18.333 204.5 -55
s111.833 -86.667 148.5 -150s55 -131.666 55 -204.999c0 -55.333 -10.167 -107.5 -30.5 -156.5s-49.5 -92.667 -87.5 -131s-82.167 -68.333 -132.5 -90s-102.833 -32.5 -157.5 -32.5c-72 0 -139.667 18.5 -203 55.5s-113.333 86.833 -150 149.5s-55 131 -55 205
c0 73.333 18.333 141.666 55 204.999s86.167 113.333 148.5 150s130.5 55 204.5 55zM468 763.999c-50 0 -96.6709 -9.17188 -140.004 -27.5049s-82.5 -44.666 -117.5 -78.999s-61.833 -73.666 -80.5 -117.999s-28 -92.166 -28 -143.499c0 -50.667 9.33301 -98.167 28 -142.5
s45.334 -83.5 80.001 -117.5s73.834 -60.5 117.501 -79.5s90.5 -28.5 140.5 -28.5c66.667 0 127.667 16.333 183 49s99.333 77.334 132 134.001s49 118.334 49 185.001c0 50.667 -9.16699 98.334 -27.5 143.001s-44.666 84.167 -78.999 118.5
s-73.166 60.666 -116.499 78.999s-90.333 27.5 -141 27.5z" />
    <glyph glyph-name="integral" unicode="&#xaf;" horiz-adv-x="376" 
d="M204 864v100h84v-100h-84zM52 864v100h84v-100h-84zM128 0v794h82v-794h-82z" />
    <glyph glyph-name="integral" unicode="&#x407;" horiz-adv-x="376" 
d="M204 864v100h84v-100h-84zM52 864v100h84v-100h-84zM128 0v794h82v-794h-82z" />
    <glyph glyph-name="degree" unicode="&#xb0;" horiz-adv-x="598" 
d="M460 620c0 -44.667 -16.166 -83.1689 -48.499 -115.502s-70.833 -48.5 -115.5 -48.5c-42.667 0 -80.334 16.333 -113.001 49s-49 70.334 -49 113.001c0 46.667 15.5 86.334 46.5 119.001s69.5 49 115.5 49c47.333 0 86.5 -15.833 117.5 -47.5s46.5 -71.167 46.5 -118.5z
M422.001 619.998c0 24 -5.66504 45.666 -16.998 64.999s-26.5 34.666 -45.5 45.999s-40.167 17 -63.5 17c-22.667 0 -43.334 -5.66699 -62.001 -17s-33.667 -26.666 -45 -45.999s-17 -41 -17 -65c0 -32.667 12.5 -61.5 37.5 -86.5s53.167 -37.5 84.5 -37.5
c24 0 45.667 5.66699 65 17s34.666 26.333 45.999 45s17 39.334 17 62.001z" />
    <glyph glyph-name="plusminus" unicode="&#xb1;" horiz-adv-x="672" 
d="M30 440h246v228h44v-228h246v-44h-246v-224h-44v224h-246v44zM30 118h536v-44h-536v44z" />
    <glyph glyph-name="germandbls" unicode="&#xb2;" horiz-adv-x="300" 
d="M96 0v794h80v-794h-80zM96 864v100h82v-100h-82z" />
    <glyph glyph-name="germandbls" unicode="&#x406;" horiz-adv-x="300" 
d="M96 0v794h80v-794h-80zM96 864v100h82v-100h-82z" />
    <glyph glyph-name="paragraph" unicode="&#xb6;" 
d="M266 -136v505.999c-67.333 0 -123.833 18.333 -169.5 55s-68.5 88.334 -68.5 155.001c0 50 11.667 91 35 123s53.833 55.167 91.5 69.5s81.5 21.5 131.5 21.5h274v-38h-70v-892h-46v892h-132v-892h-46z" />
    <glyph glyph-name="bullet" unicode="&#xb7;" 
d="M236 340c0 32.667 11.1699 59.834 33.5029 81.501s49.166 32.5 80.499 32.5c20 0 39.167 -5 57.5 -15s32.666 -23.833 42.999 -41.5s15.5 -36.834 15.5 -57.501c0 -30.667 -11.333 -57.334 -34 -80.001s-50 -34 -82 -34c-30.667 0 -57.334 11.333 -80.001 34
s-34 49.334 -34 80.001z" />
    <glyph glyph-name="bullet" unicode="&#x2022;" 
d="M236 340c0 32.667 11.1699 59.834 33.5029 81.501s49.166 32.5 80.499 32.5c20 0 39.167 -5 57.5 -15s32.666 -23.833 42.999 -41.5s15.5 -36.834 15.5 -57.501c0 -30.667 -11.333 -57.334 -34 -80.001s-50 -34 -82 -34c-30.667 0 -57.334 11.333 -80.001 34
s-34 49.334 -34 80.001z" />
    <glyph glyph-name="fi" unicode="&#xb8;" horiz-adv-x="634" 
d="M480 180h74.001c-24 -62.667 -55.333 -111 -94 -145s-89.334 -51 -152.001 -51c-78.667 0 -140.667 26.333 -186 79s-68 124.334 -68 215.001c0 94 23.333 168.833 70 224.5s110 83.5 190 83.5c46 0 87 -10.667 123 -32s63 -50.666 81 -87.999
c11.333 -24.667 19.333 -54.334 24 -89.001s8.66699 -68.334 12 -101.001h-430c0 -74 16 -130.833 48 -170.5s78.667 -59.5 140 -59.5c90 0 146 44.667 168 134zM126.001 334h354c-2 62 -17.5 109.833 -46.5 143.5s-69.5 50.5 -121.5 50.5
c-51.333 0 -92.833 -16.333 -124.5 -49s-52.167 -81 -61.5 -145zM172.001 704v90h66v-90h-66zM366.001 704v90h66v-90h-66z" />
    <glyph glyph-name="fi" unicode="&#x451;" horiz-adv-x="634" 
d="M480 180h74.001c-24 -62.667 -55.333 -111 -94 -145s-89.334 -51 -152.001 -51c-78.667 0 -140.667 26.333 -186 79s-68 124.334 -68 215.001c0 94 23.333 168.833 70 224.5s110 83.5 190 83.5c46 0 87 -10.667 123 -32s63 -50.666 81 -87.999
c11.333 -24.667 19.333 -54.334 24 -89.001s8.66699 -68.334 12 -101.001h-430c0 -74 16 -130.833 48 -170.5s78.667 -59.5 140 -59.5c90 0 146 44.667 168 134zM126.001 334h354c-2 62 -17.5 109.833 -46.5 143.5s-69.5 50.5 -121.5 50.5
c-51.333 0 -92.833 -16.333 -124.5 -49s-52.167 -81 -61.5 -145zM172.001 704v90h66v-90h-66zM366.001 704v90h66v-90h-66z" />
    <glyph glyph-name="guilsinglleft" unicode="&#xb9;" horiz-adv-x="1206" 
d="M96 0v794h80l448 -680v680h70v-794h-78l-450 680v-680h-70zM1090 388v-42h-344v42h344zM920 808c49.333 0 89.3311 -16.6689 119.998 -50.002s46 -76.666 46 -129.999c0 -55.333 -15.167 -99.5 -45.5 -132.5s-71.833 -49.5 -124.5 -49.5c-50.667 0 -91 16.833 -121 50.5
s-45 78.834 -45 135.501c0 33.333 7.33301 63.5 22 90.5s34.834 48 60.501 63s54.834 22.5 87.501 22.5zM919.998 769.998c-36 0 -65.001 -13 -87.001 -39s-33 -59.667 -33 -101c0 -43.333 10.5 -78.5 31.5 -105.5s49.167 -40.5 84.5 -40.5
c36.667 0 65.834 13.167 87.501 39.5s32.5 61.833 32.5 106.5c0 40.667 -10.833 74.167 -32.5 100.5s-49.5 39.5 -83.5 39.5z" />
    <glyph glyph-name="guilsinglleft" unicode="&#x2116;" horiz-adv-x="1206" 
d="M96 0v794h80l448 -680v680h70v-794h-78l-450 680v-680h-70zM1090 388v-42h-344v42h344zM920 808c49.333 0 89.3311 -16.6689 119.998 -50.002s46 -76.666 46 -129.999c0 -55.333 -15.167 -99.5 -45.5 -132.5s-71.833 -49.5 -124.5 -49.5c-50.667 0 -91 16.833 -121 50.5
s-45 78.834 -45 135.501c0 33.333 7.33301 63.5 22 90.5s34.834 48 60.501 63s54.834 22.5 87.501 22.5zM919.998 769.998c-36 0 -65.001 -13 -87.001 -39s-33 -59.667 -33 -101c0 -43.333 10.5 -78.5 31.5 -105.5s49.167 -40.5 84.5 -40.5
c36.667 0 65.834 13.167 87.501 39.5s32.5 61.833 32.5 106.5c0 40.667 -10.833 74.167 -32.5 100.5s-49.5 39.5 -83.5 39.5z" />
    <glyph glyph-name="guilsinglleft" unicode="&#x2039;" horiz-adv-x="1206" 
d="M96 0v794h80l448 -680v680h70v-794h-78l-450 680v-680h-70zM1090 388v-42h-344v42h344zM920 808c49.333 0 89.3311 -16.6689 119.998 -50.002s46 -76.666 46 -129.999c0 -55.333 -15.167 -99.5 -45.5 -132.5s-71.833 -49.5 -124.5 -49.5c-50.667 0 -91 16.833 -121 50.5
s-45 78.834 -45 135.501c0 33.333 7.33301 63.5 22 90.5s34.834 48 60.501 63s54.834 22.5 87.501 22.5zM919.998 769.998c-36 0 -65.001 -13 -87.001 -39s-33 -59.667 -33 -101c0 -43.333 10.5 -78.5 31.5 -105.5s49.167 -40.5 84.5 -40.5
c36.667 0 65.834 13.167 87.501 39.5s32.5 61.833 32.5 106.5c0 40.667 -10.833 74.167 -32.5 100.5s-49.5 39.5 -83.5 39.5z" />
    <glyph glyph-name="guillemotright" unicode="&#xbb;" horiz-adv-x="560" 
d="M264 478l188 -162v-62l-188 -162v88l124 108l-124 106v84zM58 478l186 -162v-62l-186 -162v88l122 108l-122 106v84z" />
    <glyph glyph-name="divide" unicode="&#xbc;" horiz-adv-x="648" 
d="M30 422h536v-42h-536v42zM300 666c12.667 0 22.833 -4.16602 30.5 -12.499s11.5 -18.833 11.5 -31.5c0 -12 -4 -22 -12 -30s-18 -12 -30 -12c-11.333 0 -21.5 4.16699 -30.5 12.5s-13.5 18.166 -13.5 29.499c0 12 4.33301 22.333 13 31s19 13 31 13zM299.999 224.001
c12.667 0 22.833 -4.16895 30.5 -12.502s11.5 -18.833 11.5 -31.5c0 -11.333 -4.5 -21.166 -13.5 -29.499s-18.5 -12.5 -28.5 -12.5c-11.333 0 -21.833 4.33301 -31.5 13s-14.5 18.334 -14.5 29.001c0 11.333 4.83301 21.5 14.5 30.5s20.167 13.5 31.5 13.5z" />
    <glyph glyph-name="divide" unicode="&#x458;" horiz-adv-x="648" 
d="M30 422h536v-42h-536v42zM300 666c12.667 0 22.833 -4.16602 30.5 -12.499s11.5 -18.833 11.5 -31.5c0 -12 -4 -22 -12 -30s-18 -12 -30 -12c-11.333 0 -21.5 4.16699 -30.5 12.5s-13.5 18.166 -13.5 29.499c0 12 4.33301 22.333 13 31s19 13 31 13zM299.999 224.001
c12.667 0 22.833 -4.16895 30.5 -12.502s11.5 -18.833 11.5 -31.5c0 -11.333 -4.5 -21.166 -13.5 -29.499s-18.5 -12.5 -28.5 -12.5c-11.333 0 -21.833 4.33301 -31.5 13s-14.5 18.334 -14.5 29.001c0 11.333 4.83301 21.5 14.5 30.5s20.167 13.5 31.5 13.5z" />
    <glyph glyph-name="dieresis" unicode="&#xbd;" horiz-adv-x="672" 
d="M110 622l186 -190l194 190l30 -30l-192 -190l192 -190l-30 -32l-190 190l-194 -190l-30 32l192 190l-190 190z" />
    <glyph glyph-name="dieresis" unicode="&#x405;" horiz-adv-x="672" 
d="M110 622l186 -190l194 190l30 -30l-192 -190l192 -190l-30 -32l-190 190l-194 -190l-30 32l192 190l-190 190z" />
    <glyph glyph-name="ellipsis" unicode="&#xbe;" horiz-adv-x="760" 
d="M88 0v100h84v-100h-84zM344 0v100h84v-100h-84zM600 0v100h84v-100h-84z" />
    <glyph glyph-name="ellipsis" unicode="&#x2026;" horiz-adv-x="760" 
d="M88 0v100h84v-100h-84zM344 0v100h84v-100h-84zM600 0v100h84v-100h-84z" />
    <glyph glyph-name="ellipsis" unicode="&#x455;" horiz-adv-x="760" 
d="M88 0v100h84v-100h-84zM344 0v100h84v-100h-84zM600 0v100h84v-100h-84z" />
    <glyph glyph-name="ordfeminine" unicode="&#xbf;" horiz-adv-x="312" 
d="M176 696v98h72v-98h-72zM40 696v98h72v-98h-72zM104 0v570h72v-570h-72z" />
    <glyph glyph-name="ordfeminine" unicode="&#x457;" horiz-adv-x="312" 
d="M176 696v98h72v-98h-72zM40 696v98h72v-98h-72zM104 0v570h72v-570h-72z" />
    <glyph glyph-name="Adieresis" unicode="&#xc0;" horiz-adv-x="760" 
d="M16 0l312 794h82l310 -794h-84l-94 252h-350l-92 -252h-84zM216 314h304l-152 404z" />
    <glyph glyph-name="Adieresis" unicode="&#x410;" horiz-adv-x="760" 
d="M16 0l312 794h82l310 -794h-84l-94 252h-350l-92 -252h-84zM216 314h304l-152 404z" />
    <glyph glyph-name="Aring" unicode="&#xc1;" horiz-adv-x="784" 
d="M96 0l-0.000976562 794h494v-70h-414v-282h258c62 0 112.333 -10.333 151 -31s66.834 -47.667 84.501 -81s26.5 -70 26.5 -110c0 -34 -6.83301 -65.833 -20.5 -95.5s-32.834 -54.5 -57.501 -74.5c-21.333 -17.333 -47.166 -30 -77.499 -38s-68.5 -12 -114.5 -12h-330z
M175.999 66l250 0.000976562c68 0 117.333 12.333 148 37s46 65 46 121c0 55.333 -15 95.166 -45 119.499s-79.667 36.5 -149 36.5h-250v-314z" />
    <glyph glyph-name="Aring" unicode="&#x411;" horiz-adv-x="784" 
d="M96 0l-0.000976562 794h494v-70h-414v-282h258c62 0 112.333 -10.333 151 -31s66.834 -47.667 84.501 -81s26.5 -70 26.5 -110c0 -34 -6.83301 -65.833 -20.5 -95.5s-32.834 -54.5 -57.501 -74.5c-21.333 -17.333 -47.166 -30 -77.499 -38s-68.5 -12 -114.5 -12h-330z
M175.999 66l250 0.000976562c68 0 117.333 12.333 148 37s46 65 46 121c0 55.333 -15 95.166 -45 119.499s-79.667 36.5 -149 36.5h-250v-314z" />
    <glyph glyph-name="Ccedilla" unicode="&#xc2;" horiz-adv-x="784" 
d="M96 0l-0.000976562 793.999h318c76 0 135.667 -15.167 179 -45.5s65 -83.166 65 -158.499c0 -76 -37.333 -132.667 -112 -170c54.667 -16 93.334 -39.333 116.001 -70s34 -74 34 -130c0 -34 -6.83301 -65.833 -20.5 -95.5s-32.834 -54.5 -57.501 -74.5
c-21.333 -17.333 -47.166 -30 -77.499 -38s-68.5 -12 -114.5 -12h-330zM175.999 65.999l250 0.000976562c68 0 117.333 12.333 148 37s46 65 46 121c0 55.333 -15 95.166 -45 119.499s-79.667 36.5 -149 36.5h-250v-314zM175.999 442h228c56 0 100 10.833 132 32.5
s48 60.167 48 115.5s-15.667 91.5 -47 108.5s-77 25.5 -137 25.5h-224v-282z" />
    <glyph glyph-name="Ccedilla" unicode="&#x412;" horiz-adv-x="784" 
d="M96 0l-0.000976562 793.999h318c76 0 135.667 -15.167 179 -45.5s65 -83.166 65 -158.499c0 -76 -37.333 -132.667 -112 -170c54.667 -16 93.334 -39.333 116.001 -70s34 -74 34 -130c0 -34 -6.83301 -65.833 -20.5 -95.5s-32.834 -54.5 -57.501 -74.5
c-21.333 -17.333 -47.166 -30 -77.499 -38s-68.5 -12 -114.5 -12h-330zM175.999 65.999l250 0.000976562c68 0 117.333 12.333 148 37s46 65 46 121c0 55.333 -15 95.166 -45 119.499s-79.667 36.5 -149 36.5h-250v-314zM175.999 442h228c56 0 100 10.833 132 32.5
s48 60.167 48 115.5s-15.667 91.5 -47 108.5s-77 25.5 -137 25.5h-224v-282z" />
    <glyph glyph-name="Eacute" unicode="&#xc3;" horiz-adv-x="622" 
d="M96 0v794h456v-70h-376v-724h-80z" />
    <glyph glyph-name="Eacute" unicode="&#x413;" horiz-adv-x="622" 
d="M96 0v794h456v-70h-376v-724h-80z" />
    <glyph glyph-name="Ntilde" unicode="&#xc4;" horiz-adv-x="872" 
d="M148 66v523.999c0 74.667 21.667 127.334 65 158.001s103 46 179 46h318v-728h104v-66h-780v66h114zM220 65.999h410.001v658h-224c-60.667 0 -106.834 -8.66699 -138.501 -26s-47.5 -53.333 -47.5 -108v-524z" />
    <glyph glyph-name="Ntilde" unicode="&#x414;" horiz-adv-x="872" 
d="M148 66v523.999c0 74.667 21.667 127.334 65 158.001s103 46 179 46h318v-728h104v-66h-780v66h114zM220 65.999h410.001v658h-224c-60.667 0 -106.834 -8.66699 -138.501 -26s-47.5 -53.333 -47.5 -108v-524z" />
    <glyph glyph-name="Odieresis" unicode="&#xc5;" horiz-adv-x="710" 
d="M96 0v794h532v-70h-452v-284h416v-64h-416v-310h462v-66h-542z" />
    <glyph glyph-name="Odieresis" unicode="&#x415;" horiz-adv-x="710" 
d="M96 0v794h532v-70h-452v-284h416v-64h-416v-310h462v-66h-542z" />
    <glyph glyph-name="Udieresis" unicode="&#xc6;" horiz-adv-x="1268" 
d="M574 0v290l-132 124l-314 -414h-94l356 464l-352 330h106l430 -412v412h80v-412l430 412h106l-352 -330l356 -464h-94l-314 414l-132 -124v-290h-80z" />
    <glyph glyph-name="Udieresis" unicode="&#x416;" horiz-adv-x="1268" 
d="M574 0v290l-132 124l-314 -414h-94l356 464l-352 330h106l430 -412v412h80v-412l430 412h106l-352 -330l356 -464h-94l-314 414l-132 -124v-290h-80z" />
    <glyph glyph-name="aacute" unicode="&#xc7;" horiz-adv-x="710" 
d="M344 -14c-62.667 0 -115.837 14.1699 -159.504 42.5029s-75.667 61.5 -96 99.5s-30.5 70 -30.5 96h76c0 -45.333 21.333 -86 64 -122s91.334 -54 146.001 -54c58.667 0 107.334 15.667 146.001 47s58 74.333 58 129c0 55.333 -14.833 95.166 -44.5 119.499
s-79.5 36.5 -149.5 36.5h-68v62h66c47.333 0 86.166 11.833 116.499 35.5s45.5 61.167 45.5 112.5c0 90.667 -60 136 -180 136c-100.667 0 -157.334 -45.333 -170.001 -136h-68c6.66699 66 31.334 116.5 74.001 151.5s99.334 52.5 170.001 52.5
c74 0 133.5 -16.833 178.5 -50.5s67.5 -84.834 67.5 -153.501c0 -76.667 -36.667 -133.334 -110 -170.001c53.333 -16 91.333 -39.333 114 -70s34 -74 34 -130c0 -26 -9.66699 -57.667 -29 -95s-50.166 -69.833 -92.499 -97.5s-95.166 -41.5 -158.499 -41.5z" />
    <glyph glyph-name="aacute" unicode="&#x417;" horiz-adv-x="710" 
d="M344 -14c-62.667 0 -115.837 14.1699 -159.504 42.5029s-75.667 61.5 -96 99.5s-30.5 70 -30.5 96h76c0 -45.333 21.333 -86 64 -122s91.334 -54 146.001 -54c58.667 0 107.334 15.667 146.001 47s58 74.333 58 129c0 55.333 -14.833 95.166 -44.5 119.499
s-79.5 36.5 -149.5 36.5h-68v62h66c47.333 0 86.166 11.833 116.499 35.5s45.5 61.167 45.5 112.5c0 90.667 -60 136 -180 136c-100.667 0 -157.334 -45.333 -170.001 -136h-68c6.66699 66 31.334 116.5 74.001 151.5s99.334 52.5 170.001 52.5
c74 0 133.5 -16.833 178.5 -50.5s67.5 -84.834 67.5 -153.501c0 -76.667 -36.667 -133.334 -110 -170.001c53.333 -16 91.333 -39.333 114 -70s34 -74 34 -130c0 -26 -9.66699 -57.667 -29 -95s-50.166 -69.833 -92.499 -97.5s-95.166 -41.5 -158.499 -41.5z" />
    <glyph glyph-name="agrave" unicode="&#xc8;" horiz-adv-x="772" 
d="M698 0h-70v680l-450 -680h-78v794h68v-680l450 680h80v-794z" />
    <glyph glyph-name="agrave" unicode="&#x418;" horiz-adv-x="772" 
d="M698 0h-70v680l-450 -680h-78v794h68v-680l450 680h80v-794z" />
    <glyph glyph-name="acircumflex" unicode="&#xc9;" horiz-adv-x="772" 
d="M698 0h-70v680l-450 -680h-78v794h68v-680l450 680h80v-794zM390 818c-38 0 -71.167 9.83301 -99.5 29.5s-42.5 45.834 -42.5 78.501h68c0 -12.667 7.83301 -24.167 23.5 -34.5s32.5 -16.166 50.5 -17.499c18.667 1.33301 36 7.16602 52 17.499s24 21.833 24 34.5h68
c0 -32.667 -14.5 -58.834 -43.5 -78.501s-62.5 -29.5 -100.5 -29.5z" />
    <glyph glyph-name="acircumflex" unicode="&#x419;" horiz-adv-x="772" 
d="M698 0h-70v680l-450 -680h-78v794h68v-680l450 680h80v-794zM390 818c-38 0 -71.167 9.83301 -99.5 29.5s-42.5 45.834 -42.5 78.501h68c0 -12.667 7.83301 -24.167 23.5 -34.5s32.5 -16.166 50.5 -17.499c18.667 1.33301 36 7.16602 52 17.499s24 21.833 24 34.5h68
c0 -32.667 -14.5 -58.834 -43.5 -78.501s-62.5 -29.5 -100.5 -29.5z" />
    <glyph glyph-name="adieresis" unicode="&#xca;" horiz-adv-x="784" 
d="M96 0v794h78v-412l430 412h106l-352 -330l356 -464h-94l-314 414l-132 -124v-290h-78z" />
    <glyph glyph-name="adieresis" unicode="&#x41a;" horiz-adv-x="784" 
d="M96 0v794h78v-412l430 412h106l-352 -330l356 -464h-94l-314 414l-132 -124v-290h-78z" />
    <glyph glyph-name="atilde" unicode="&#xcb;" horiz-adv-x="784" 
d="M96 0l0.000976562 589.999c0 74.667 21.667 127.334 65 158.001s103 46 179 46h348v-794h-80v724h-254c-58.667 0 -103.334 -9 -134.001 -27s-46 -55 -46 -111v-586h-78z" />
    <glyph glyph-name="atilde" unicode="&#x41b;" horiz-adv-x="784" 
d="M96 0l0.000976562 589.999c0 74.667 21.667 127.334 65 158.001s103 46 179 46h348v-794h-80v724h-254c-58.667 0 -103.334 -9 -134.001 -27s-46 -55 -46 -111v-586h-78z" />
    <glyph glyph-name="aring" unicode="&#xcc;" horiz-adv-x="922" 
d="M96 0v794h96l276 -702l270 702h96v-794h-72v666l-256 -666h-76l-266 666v-666h-68z" />
    <glyph glyph-name="aring" unicode="&#x41c;" horiz-adv-x="922" 
d="M96 0v794h96l276 -702l270 702h96v-794h-72v666l-256 -666h-76l-266 666v-666h-68z" />
    <glyph glyph-name="ccedilla" unicode="&#xcd;" horiz-adv-x="784" 
d="M96 0v794h78v-342h434v342h80v-794h-80v388h-434v-388h-78z" />
    <glyph glyph-name="ccedilla" unicode="&#x41d;" horiz-adv-x="784" 
d="M96 0v794h78v-342h434v342h80v-794h-80v388h-434v-388h-78z" />
    <glyph glyph-name="eacute" unicode="&#xce;" horiz-adv-x="872" 
d="M62 390c0 122 31.668 222.168 95.001 300.501s153.666 117.5 270.999 117.5c118.667 0 209.334 -39.167 272.001 -117.5s94 -178.5 94 -300.5c0 -82.667 -14.667 -154.334 -44 -215.001s-71.5 -107.667 -126.5 -141s-120.167 -50 -195.5 -50
c-110.667 0 -199.334 37 -266.001 111s-100 172.333 -100 295zM142.001 390.001c0 -69.333 11.501 -129.335 34.501 -180.002s56 -89.667 99 -117s93.833 -41 152.5 -41s109.5 13.667 152.5 41s76 66.333 99 117s34.5 110.667 34.5 180c0 56.667 -6.5 106.834 -19.5 150.501
s-31.333 80.334 -55 110.001s-53.334 52.334 -89.001 68.001s-76.5 23.5 -122.5 23.5c-59.333 0 -110.333 -13.667 -153 -41s-75.5 -67.833 -98.5 -121.5s-34.5 -116.834 -34.5 -189.501z" />
    <glyph glyph-name="eacute" unicode="&#x41e;" horiz-adv-x="872" 
d="M62 390c0 122 31.668 222.168 95.001 300.501s153.666 117.5 270.999 117.5c118.667 0 209.334 -39.167 272.001 -117.5s94 -178.5 94 -300.5c0 -82.667 -14.667 -154.334 -44 -215.001s-71.5 -107.667 -126.5 -141s-120.167 -50 -195.5 -50
c-110.667 0 -199.334 37 -266.001 111s-100 172.333 -100 295zM142.001 390.001c0 -69.333 11.501 -129.335 34.501 -180.002s56 -89.667 99 -117s93.833 -41 152.5 -41s109.5 13.667 152.5 41s76 66.333 99 117s34.5 110.667 34.5 180c0 56.667 -6.5 106.834 -19.5 150.501
s-31.333 80.334 -55 110.001s-53.334 52.334 -89.001 68.001s-76.5 23.5 -122.5 23.5c-59.333 0 -110.333 -13.667 -153 -41s-75.5 -67.833 -98.5 -121.5s-34.5 -116.834 -34.5 -189.501z" />
    <glyph glyph-name="egrave" unicode="&#xcf;" horiz-adv-x="784" 
d="M96 0v794h592v-794h-80v724h-434v-724h-78z" />
    <glyph glyph-name="egrave" unicode="&#x41f;" horiz-adv-x="784" 
d="M96 0v794h592v-794h-80v724h-434v-724h-78z" />
    <glyph glyph-name="ecircumflex" unicode="&#xd0;" horiz-adv-x="734" 
d="M96 0v794.001h308c164 0 246 -75.333 246 -226c0 -55.333 -11.5 -99.333 -34.5 -132s-54.667 -55.834 -95 -69.501s-87.833 -20.5 -142.5 -20.5h-204v-346h-78zM174 416.001h178c70.667 0 124.667 9.33301 162 28s56 60 56 124c0 58 -13.833 98.5 -41.5 121.5
s-76.5 34.5 -146.5 34.5h-208v-308z" />
    <glyph glyph-name="ecircumflex" unicode="&#x420;" horiz-adv-x="734" 
d="M96 0v794.001h308c164 0 246 -75.333 246 -226c0 -55.333 -11.5 -99.333 -34.5 -132s-54.667 -55.834 -95 -69.501s-87.833 -20.5 -142.5 -20.5h-204v-346h-78zM174 416.001h178c70.667 0 124.667 9.33301 162 28s56 60 56 124c0 58 -13.833 98.5 -41.5 121.5
s-76.5 34.5 -146.5 34.5h-208v-308z" />
    <glyph glyph-name="edieresis" unicode="&#xd1;" horiz-adv-x="822" 
d="M748 282c-14 -94.667 -49.998 -168 -107.998 -220s-133.333 -78 -226 -78c-108 0 -193.667 37.667 -257 113s-95 177 -95 305c0 82.667 14.667 154.5 44 215.5s71 108 125 141s117.667 49.5 191 49.5c170 0 274.667 -80 314 -240h-78c-36 116 -115.333 174 -238 174
c-42.667 0 -80.834 -8 -114.501 -24s-62.834 -39 -87.501 -69s-43.5 -67 -56.5 -111s-19.5 -91.333 -19.5 -142c0 -104 24.667 -187.333 74 -250s115.333 -94 198 -94c45.333 0 86.5 9.33301 123.5 28s67.167 45.5 90.5 80.5s38 75.5 44 121.5h76z" />
    <glyph glyph-name="edieresis" unicode="&#x421;" horiz-adv-x="822" 
d="M748 282c-14 -94.667 -49.998 -168 -107.998 -220s-133.333 -78 -226 -78c-108 0 -193.667 37.667 -257 113s-95 177 -95 305c0 82.667 14.667 154.5 44 215.5s71 108 125 141s117.667 49.5 191 49.5c170 0 274.667 -80 314 -240h-78c-36 116 -115.333 174 -238 174
c-42.667 0 -80.834 -8 -114.501 -24s-62.834 -39 -87.501 -69s-43.5 -67 -56.5 -111s-19.5 -91.333 -19.5 -142c0 -104 24.667 -187.333 74 -250s115.333 -94 198 -94c45.333 0 86.5 9.33301 123.5 28s67.167 45.5 90.5 80.5s38 75.5 44 121.5h76z" />
    <glyph glyph-name="iacute" unicode="&#xd2;" horiz-adv-x="684" 
d="M278 0v724h-256v70h590v-70h-254v-724h-80z" />
    <glyph glyph-name="iacute" unicode="&#x422;" horiz-adv-x="684" 
d="M278 0v724h-256v70h590v-70h-254v-724h-80z" />
    <glyph glyph-name="igrave" unicode="&#xd3;" horiz-adv-x="684" 
d="M616 794l-410 -794h-88l164 304l-266 490h96l214 -422l196 422h94z" />
    <glyph glyph-name="igrave" unicode="&#x423;" horiz-adv-x="684" 
d="M616 794l-410 -794h-88l164 304l-266 490h96l214 -422l196 422h94z" />
    <glyph glyph-name="icircumflex" unicode="&#xd4;" horiz-adv-x="1072" 
d="M482 872l80.001 0.00195312v-64h56c67.333 0 129.166 -18.5 185.499 -55.5s100.5 -87.667 132.5 -152s48 -134.5 48 -210.5c0 -61.333 -10.333 -117 -31 -167s-48 -92.333 -82 -127s-73.667 -61.667 -119 -81s-90.666 -29 -135.999 -29h-54v-48h-80v48h-52
c-46 0 -91.167 9.5 -135.5 28.5s-83.833 46.167 -118.5 81.5s-62.334 78.5 -83.001 129.5s-31 105.833 -31 164.5c0 75.333 15.833 145.166 47.5 209.499s75.667 115.166 132 152.499s118.5 56 186.5 56h54v64zM618.001 742.002l-55.999 -0.000976562v-690h56
c36 0 70.5 7.83301 103.5 23.5s63.667 39 92 70s50.166 66.833 65.499 107.5s23 86.334 23 137.001c0 53.333 -7.83301 102.166 -23.5 146.499s-37.167 81.833 -64.5 112.5s-57.833 53.834 -91.5 69.501s-68.5 23.5 -104.5 23.5zM428.002 742.001
c-48.667 0 -94.833 -14.166 -138.5 -42.499s-79.167 -69.333 -106.5 -123s-41 -115.834 -41 -186.501c0 -67.333 13.833 -126.5 41.5 -177.5s63.5 -90.5 107.5 -118.5s89.667 -42 137 -42h54v690h-54z" />
    <glyph glyph-name="icircumflex" unicode="&#x424;" horiz-adv-x="1072" 
d="M482 872l80.001 0.00195312v-64h56c67.333 0 129.166 -18.5 185.499 -55.5s100.5 -87.667 132.5 -152s48 -134.5 48 -210.5c0 -61.333 -10.333 -117 -31 -167s-48 -92.333 -82 -127s-73.667 -61.667 -119 -81s-90.666 -29 -135.999 -29h-54v-48h-80v48h-52
c-46 0 -91.167 9.5 -135.5 28.5s-83.833 46.167 -118.5 81.5s-62.334 78.5 -83.001 129.5s-31 105.833 -31 164.5c0 75.333 15.833 145.166 47.5 209.499s75.667 115.166 132 152.499s118.5 56 186.5 56h54v64zM618.001 742.002l-55.999 -0.000976562v-690h56
c36 0 70.5 7.83301 103.5 23.5s63.667 39 92 70s50.166 66.833 65.499 107.5s23 86.334 23 137.001c0 53.333 -7.83301 102.166 -23.5 146.499s-37.167 81.833 -64.5 112.5s-57.833 53.834 -91.5 69.501s-68.5 23.5 -104.5 23.5zM428.002 742.001
c-48.667 0 -94.833 -14.166 -138.5 -42.499s-79.167 -69.333 -106.5 -123s-41 -115.834 -41 -186.501c0 -67.333 13.833 -126.5 41.5 -177.5s63.5 -90.5 107.5 -118.5s89.667 -42 137 -42h54v690h-54z" />
    <glyph glyph-name="idieresis" unicode="&#xd5;" horiz-adv-x="734" 
d="M12 0l270 400l-266 394h96l216 -328l218 328h88l-264 -394l272 -400h-96l-218 332l-224 -332h-92z" />
    <glyph glyph-name="idieresis" unicode="&#x425;" horiz-adv-x="734" 
d="M12 0l270 400l-266 394h96l216 -328l218 328h88l-264 -394l272 -400h-96l-218 332l-224 -332h-92z" />
    <glyph glyph-name="ntilde" unicode="&#xd6;" horiz-adv-x="896" 
d="M688 66h126v-66h-718v794h78v-728h434v728h80v-728z" />
    <glyph glyph-name="ntilde" unicode="&#x426;" horiz-adv-x="896" 
d="M688 66h126v-66h-718v794h78v-728h434v728h80v-728z" />
    <glyph glyph-name="oacute" unicode="&#xd7;" horiz-adv-x="784" 
d="M96 586l0.000976562 207.999h78v-204c0 -48 12 -83 36 -105s54 -33 90 -33h308v342h80v-794h-80v388h-320c-52.667 0 -97.834 18.833 -135.501 56.5s-56.5 84.834 -56.5 141.501z" />
    <glyph glyph-name="oacute" unicode="&#x427;" horiz-adv-x="784" 
d="M96 586l0.000976562 207.999h78v-204c0 -48 12 -83 36 -105s54 -33 90 -33h308v342h80v-794h-80v388h-320c-52.667 0 -97.834 18.833 -135.501 56.5s-56.5 84.834 -56.5 141.501z" />
    <glyph glyph-name="ograve" unicode="&#xd8;" horiz-adv-x="1106" 
d="M594 66h342v728h80v-794h-920v794h78v-728h342v728h78v-728z" />
    <glyph glyph-name="ograve" unicode="&#x428;" horiz-adv-x="1106" 
d="M594 66h342v728h80v-794h-920v794h78v-728h342v728h78v-728z" />
    <glyph glyph-name="ocircumflex" unicode="&#xd9;" horiz-adv-x="1232" 
d="M594 66h342v728h80v-728h128v-66h-1048v794h78v-728h342v728h78v-728z" />
    <glyph glyph-name="ocircumflex" unicode="&#x429;" horiz-adv-x="1232" 
d="M594 66h342v728h80v-728h128v-66h-1048v794h78v-728h342v728h78v-728z" />
    <glyph glyph-name="odieresis" unicode="&#xda;" horiz-adv-x="972" 
d="M358 794l0.00195312 -352h260c61.333 0 111.166 -10.333 149.499 -31s66.333 -47.667 84 -81s26.5 -70 26.5 -110c0 -34 -6.83301 -65.833 -20.5 -95.5s-32.834 -54.5 -57.501 -74.5c-20.667 -17.333 -46 -30 -76 -38s-68.667 -12 -116 -12h-330v724h-256v70h336z
M358.002 66l250 0.000976562c68.667 0 118.167 12.5 148.5 37.5s45.5 65.167 45.5 120.5s-14.833 95.166 -44.5 119.499s-79.5 36.5 -149.5 36.5h-250v-314z" />
    <glyph glyph-name="odieresis" unicode="&#x42a;" horiz-adv-x="972" 
d="M358 794l0.00195312 -352h260c61.333 0 111.166 -10.333 149.499 -31s66.333 -47.667 84 -81s26.5 -70 26.5 -110c0 -34 -6.83301 -65.833 -20.5 -95.5s-32.834 -54.5 -57.501 -74.5c-20.667 -17.333 -46 -30 -76 -38s-68.667 -12 -116 -12h-330v724h-256v70h336z
M358.002 66l250 0.000976562c68.667 0 118.167 12.5 148.5 37.5s45.5 65.167 45.5 120.5s-14.833 95.166 -44.5 119.499s-79.5 36.5 -149.5 36.5h-250v-314z" />
    <glyph glyph-name="otilde" unicode="&#xdb;" horiz-adv-x="984" 
d="M96 0l-0.000976562 794h80v-352h258c62 0 112.333 -10.333 151 -31s66.834 -47.667 84.501 -81s26.5 -70 26.5 -110c0 -34 -6.83301 -65.833 -20.5 -95.5s-32.834 -54.5 -57.501 -74.5c-21.333 -17.333 -47.166 -30 -77.499 -38s-68.5 -12 -114.5 -12h-330zM175.999 66
l250 0.000976562c68 0 117.333 12.333 148 37s46 65 46 121c0 55.333 -15 95.166 -45 119.499s-79.667 36.5 -149 36.5h-250v-314zM887.999 0.000976562h-80v794h80v-794z" />
    <glyph glyph-name="otilde" unicode="&#x42b;" horiz-adv-x="984" 
d="M96 0l-0.000976562 794h80v-352h258c62 0 112.333 -10.333 151 -31s66.834 -47.667 84.501 -81s26.5 -70 26.5 -110c0 -34 -6.83301 -65.833 -20.5 -95.5s-32.834 -54.5 -57.501 -74.5c-21.333 -17.333 -47.166 -30 -77.499 -38s-68.5 -12 -114.5 -12h-330zM175.999 66
l250 0.000976562c68 0 117.333 12.333 148 37s46 65 46 121c0 55.333 -15 95.166 -45 119.499s-79.667 36.5 -149 36.5h-250v-314zM887.999 0.000976562h-80v794h80v-794z" />
    <glyph glyph-name="uacute" unicode="&#xdc;" horiz-adv-x="784" 
d="M96 0l-0.000976562 794h80v-352h258c62 0 112.333 -10.333 151 -31s66.834 -47.667 84.501 -81s26.5 -70 26.5 -110c0 -34 -6.83301 -65.833 -20.5 -95.5s-32.834 -54.5 -57.501 -74.5c-21.333 -17.333 -47.166 -30 -77.499 -38s-68.5 -12 -114.5 -12h-330zM175.999 66
l250 0.000976562c68 0 117.333 12.333 148 37s46 65 46 121c0 55.333 -15 95.166 -45 119.499s-79.667 36.5 -149 36.5h-250v-314z" />
    <glyph glyph-name="uacute" unicode="&#x42c;" horiz-adv-x="784" 
d="M96 0l-0.000976562 794h80v-352h258c62 0 112.333 -10.333 151 -31s66.834 -47.667 84.501 -81s26.5 -70 26.5 -110c0 -34 -6.83301 -65.833 -20.5 -95.5s-32.834 -54.5 -57.501 -74.5c-21.333 -17.333 -47.166 -30 -77.499 -38s-68.5 -12 -114.5 -12h-330zM175.999 66
l250 0.000976562c68 0 117.333 12.333 148 37s46 65 46 121c0 55.333 -15 95.166 -45 119.499s-79.667 36.5 -149 36.5h-250v-314z" />
    <glyph glyph-name="ugrave" unicode="&#xdd;" horiz-adv-x="846" 
d="M368 388l-0.000976562 63.9971h298c-6 60 -20.833 111.5 -44.5 154.5s-55 76.333 -94 100s-84.167 35.5 -135.5 35.5c-122.667 0 -202 -58 -238 -174h-78c39.333 160 144 240 314 240c73.333 0 137 -16.5 191 -49.5s95.667 -80 125 -141s44 -132.833 44 -215.5
c0 -64.667 -8 -122.667 -24 -174s-39.167 -95.166 -69.5 -131.499s-67.333 -64.166 -111 -83.499s-92.167 -29 -145.5 -29c-93.333 0 -169.166 26.167 -227.499 78.5s-94.5 125.5 -108.5 219.5h76c10 -69.333 38.667 -125 86 -167s105.333 -63 174 -63
c52 0 98.333 13.833 139 41.5s72 66.834 94 117.501s33.667 109.667 35 177h-300z" />
    <glyph glyph-name="ugrave" unicode="&#x42d;" horiz-adv-x="846" 
d="M368 388l-0.000976562 63.9971h298c-6 60 -20.833 111.5 -44.5 154.5s-55 76.333 -94 100s-84.167 35.5 -135.5 35.5c-122.667 0 -202 -58 -238 -174h-78c39.333 160 144 240 314 240c73.333 0 137 -16.5 191 -49.5s95.667 -80 125 -141s44 -132.833 44 -215.5
c0 -64.667 -8 -122.667 -24 -174s-39.167 -95.166 -69.5 -131.499s-67.333 -64.166 -111 -83.499s-92.167 -29 -145.5 -29c-93.333 0 -169.166 26.167 -227.499 78.5s-94.5 125.5 -108.5 219.5h76c10 -69.333 38.667 -125 86 -167s105.333 -63 174 -63
c52 0 98.333 13.833 139 41.5s72 66.834 94 117.501s33.667 109.667 35 177h-300z" />
    <glyph glyph-name="ucircumflex" unicode="&#xde;" horiz-adv-x="1134" 
d="M306 388l-131.998 0.000976562v-388h-78v794h78v-342h138c0 62 15 120.333 45 175s72.667 98.5 128 131.5s118.333 49.5 189 49.5c60 0 113.167 -10.667 159.5 -32s84.666 -50.666 114.999 -87.999s53.166 -81.333 68.499 -132s23 -106 23 -166
c0 -82.667 -14.667 -154.334 -44 -215.001s-71.5 -107.667 -126.5 -141s-120.167 -50 -195.5 -50c-74 0 -138.833 16.667 -194.5 50s-98.5 80.166 -128.5 140.499s-45 131.5 -45 213.5zM390.002 390.001c0 -103.333 25.499 -185.498 76.499 -246.498
s120.167 -91.5 207.5 -91.5c58.667 0 109.667 13.833 153 41.5s76.666 66.667 99.999 117s35 110.166 35 179.499c0 112 -25.167 198.667 -75.5 260s-121.166 92 -212.499 92c-60 0 -111.167 -13.833 -153.5 -41.5s-74.666 -67.834 -96.999 -120.501s-33.5 -116 -33.5 -190z
" />
    <glyph glyph-name="ucircumflex" unicode="&#x42e;" horiz-adv-x="1134" 
d="M306 388l-131.998 0.000976562v-388h-78v794h78v-342h138c0 62 15 120.333 45 175s72.667 98.5 128 131.5s118.333 49.5 189 49.5c60 0 113.167 -10.667 159.5 -32s84.666 -50.666 114.999 -87.999s53.166 -81.333 68.499 -132s23 -106 23 -166
c0 -82.667 -14.667 -154.334 -44 -215.001s-71.5 -107.667 -126.5 -141s-120.167 -50 -195.5 -50c-74 0 -138.833 16.667 -194.5 50s-98.5 80.166 -128.5 140.499s-45 131.5 -45 213.5zM390.002 390.001c0 -103.333 25.499 -185.498 76.499 -246.498
s120.167 -91.5 207.5 -91.5c58.667 0 109.667 13.833 153 41.5s76.666 66.667 99.999 117s35 110.166 35 179.499c0 112 -25.167 198.667 -75.5 260s-121.166 92 -212.499 92c-60 0 -111.167 -13.833 -153.5 -41.5s-74.666 -67.834 -96.999 -120.501s-33.5 -116 -33.5 -190z
" />
    <glyph glyph-name="udieresis" unicode="&#xdf;" horiz-adv-x="760" 
d="M658 0h-78.0049v356h-224c-32 0 -54.667 -0.333008 -68 -1s-25.166 -2.83398 -35.499 -6.50098s-19.166 -8.5 -26.499 -14.5c-22.667 -17.333 -37.334 -42.5 -44.001 -75.5s-12.167 -78.667 -16.5 -137s-10.166 -98.833 -17.499 -121.5h-96c18 18 29.167 34.5 33.5 49.5
s8.5 52.5 12.5 112.5c1.33301 32 2.83301 58.833 4.5 80.5s4.83398 40.5 9.50098 56.5s13.334 31.667 26.001 47s31.334 30 56.001 44c-40.667 18.667 -71.167 43.5 -91.5 74.5s-30.5 69.5 -30.5 115.5c0 54.667 11.5 97.834 34.5 129.501s54.167 53.667 93.5 66
s85.333 18.5 138 18.5h320v-794zM579.995 422v302h-216c-70.667 0 -123.667 -8.5 -159 -25.5s-53 -56.5 -53 -118.5c0 -63.333 18.667 -105.5 56 -126.5s90 -31.5 158 -31.5h214z" />
    <glyph glyph-name="udieresis" unicode="&#x42f;" horiz-adv-x="760" 
d="M658 0h-78.0049v356h-224c-32 0 -54.667 -0.333008 -68 -1s-25.166 -2.83398 -35.499 -6.50098s-19.166 -8.5 -26.499 -14.5c-22.667 -17.333 -37.334 -42.5 -44.001 -75.5s-12.167 -78.667 -16.5 -137s-10.166 -98.833 -17.499 -121.5h-96c18 18 29.167 34.5 33.5 49.5
s8.5 52.5 12.5 112.5c1.33301 32 2.83301 58.833 4.5 80.5s4.83398 40.5 9.50098 56.5s13.334 31.667 26.001 47s31.334 30 56.001 44c-40.667 18.667 -71.167 43.5 -91.5 74.5s-30.5 69.5 -30.5 115.5c0 54.667 11.5 97.834 34.5 129.501s54.167 53.667 93.5 66
s85.333 18.5 138 18.5h320v-794zM579.995 422v302h-216c-70.667 0 -123.667 -8.5 -159 -25.5s-53 -56.5 -53 -118.5c0 -63.333 18.667 -105.5 56 -126.5s90 -31.5 158 -31.5h214z" />
    <glyph glyph-name="daggerdbl" unicode="&#xe0;" horiz-adv-x="622" 
d="M578 50l0.00195312 -49.998c-19.333 -8 -38 -12 -56 -12c-27.333 0 -47 7 -59 21s-19 37.667 -21 71c-32.667 -36 -64.334 -61 -95.001 -75s-67.667 -21 -111 -21c-59.333 0 -104.833 14.833 -136.5 44.5s-47.5 71.5 -47.5 125.5c0 53.333 16.667 92.666 50 117.999
s78.666 42.666 135.999 51.999l142 20c24.667 4 39.334 6.83301 44.001 8.5s8 5.5 10 11.5c6.66699 10 10 28 10 54c0 73.333 -47.333 110 -142 110c-50.667 0 -87.334 -9.33301 -110.001 -28s-36 -51.334 -40 -98.001h-76c8 122.667 83.333 184 226 184
c65.333 0 117.333 -14 156 -42c21.333 -14.667 36 -32.167 44 -52.5s12 -50.166 12 -89.499v-302c0 -20 2.33301 -34 7 -42s13.667 -12 27 -12c9.33301 0 19.333 1.33301 30 4zM442.002 296.002l-194 -29.998c-43.333 -6.66699 -74.833 -18.834 -94.5 -36.501
s-29.5 -42.834 -29.5 -75.501c0 -72 41.333 -108 124 -108c50.667 0 94 14 130 42c24.667 18.667 41.5 39.167 50.5 61.5s13.5 55.833 13.5 100.5v46z" />
    <glyph glyph-name="daggerdbl" unicode="&#x2021;" horiz-adv-x="622" 
d="M578 50l0.00195312 -49.998c-19.333 -8 -38 -12 -56 -12c-27.333 0 -47 7 -59 21s-19 37.667 -21 71c-32.667 -36 -64.334 -61 -95.001 -75s-67.667 -21 -111 -21c-59.333 0 -104.833 14.833 -136.5 44.5s-47.5 71.5 -47.5 125.5c0 53.333 16.667 92.666 50 117.999
s78.666 42.666 135.999 51.999l142 20c24.667 4 39.334 6.83301 44.001 8.5s8 5.5 10 11.5c6.66699 10 10 28 10 54c0 73.333 -47.333 110 -142 110c-50.667 0 -87.334 -9.33301 -110.001 -28s-36 -51.334 -40 -98.001h-76c8 122.667 83.333 184 226 184
c65.333 0 117.333 -14 156 -42c21.333 -14.667 36 -32.167 44 -52.5s12 -50.166 12 -89.499v-302c0 -20 2.33301 -34 7 -42s13.667 -12 27 -12c9.33301 0 19.333 1.33301 30 4zM442.002 296.002l-194 -29.998c-43.333 -6.66699 -74.833 -18.834 -94.5 -36.501
s-29.5 -42.834 -29.5 -75.501c0 -72 41.333 -108 124 -108c50.667 0 94 14 130 42c24.667 18.667 41.5 39.167 50.5 61.5s13.5 55.833 13.5 100.5v46z" />
    <glyph glyph-name="daggerdbl" unicode="&#x430;" horiz-adv-x="622" 
d="M578 50l0.00195312 -49.998c-19.333 -8 -38 -12 -56 -12c-27.333 0 -47 7 -59 21s-19 37.667 -21 71c-32.667 -36 -64.334 -61 -95.001 -75s-67.667 -21 -111 -21c-59.333 0 -104.833 14.833 -136.5 44.5s-47.5 71.5 -47.5 125.5c0 53.333 16.667 92.666 50 117.999
s78.666 42.666 135.999 51.999l142 20c24.667 4 39.334 6.83301 44.001 8.5s8 5.5 10 11.5c6.66699 10 10 28 10 54c0 73.333 -47.333 110 -142 110c-50.667 0 -87.334 -9.33301 -110.001 -28s-36 -51.334 -40 -98.001h-76c8 122.667 83.333 184 226 184
c65.333 0 117.333 -14 156 -42c21.333 -14.667 36 -32.167 44 -52.5s12 -50.166 12 -89.499v-302c0 -20 2.33301 -34 7 -42s13.667 -12 27 -12c9.33301 0 19.333 1.33301 30 4zM442.002 296.002l-194 -29.998c-43.333 -6.66699 -74.833 -18.834 -94.5 -36.501
s-29.5 -42.834 -29.5 -75.501c0 -72 41.333 -108 124 -108c50.667 0 94 14 130 42c24.667 18.667 41.5 39.167 50.5 61.5s13.5 55.833 13.5 100.5v46z" />
    <glyph glyph-name="periodcentered" unicode="&#xe1;" horiz-adv-x="634" 
d="M52 312c0 134.667 21.499 238.333 64.499 311s106.167 109 189.5 109c84 0 126 16 126 48h62c0 -32 -15 -58 -45 -78s-75.667 -30 -137 -30c-62.667 0 -109.667 -20.667 -141 -62s-47 -88 -47 -140c54.667 77.333 119.334 116 194.001 116c52 0 98 -12.333 138 -37
s71 -60 93 -106s33 -98.333 33 -157c0 -62 -10.5 -115.833 -31.5 -161.5s-51.5 -80.5 -91.5 -104.5s-87 -36 -141 -36c-55.333 0 -103 12 -143 36s-70.5 60.333 -91.5 109s-31.5 109.667 -31.5 183zM317.999 527.999c-38 0 -71.5 -10 -100.5 -30s-51.5 -48 -67.5 -84
s-24 -78 -24 -126c0 -54 7.33301 -99.5 22 -136.5s36.167 -65.167 64.5 -84.5s62.833 -29 103.5 -29c62 0 109.833 21.833 143.5 65.5s50.5 105.167 50.5 184.5c0 48 -8 90 -24 126s-38.5 64 -67.5 84s-62.5 30 -100.5 30z" />
    <glyph glyph-name="periodcentered" unicode="&#x431;" horiz-adv-x="634" 
d="M52 312c0 134.667 21.499 238.333 64.499 311s106.167 109 189.5 109c84 0 126 16 126 48h62c0 -32 -15 -58 -45 -78s-75.667 -30 -137 -30c-62.667 0 -109.667 -20.667 -141 -62s-47 -88 -47 -140c54.667 77.333 119.334 116 194.001 116c52 0 98 -12.333 138 -37
s71 -60 93 -106s33 -98.333 33 -157c0 -62 -10.5 -115.833 -31.5 -161.5s-51.5 -80.5 -91.5 -104.5s-87 -36 -141 -36c-55.333 0 -103 12 -143 36s-70.5 60.333 -91.5 109s-31.5 109.667 -31.5 183zM317.999 527.999c-38 0 -71.5 -10 -100.5 -30s-51.5 -48 -67.5 -84
s-24 -78 -24 -126c0 -54 7.33301 -99.5 22 -136.5s36.167 -65.167 64.5 -84.5s62.833 -29 103.5 -29c62 0 109.833 21.833 143.5 65.5s50.5 105.167 50.5 184.5c0 48 -8 90 -24 126s-38.5 64 -67.5 84s-62.5 30 -100.5 30z" />
    <glyph glyph-name="quotesinglbase" unicode="&#xe2;" horiz-adv-x="586" 
d="M162 506v-180h150c44 0 77 8.5 99 25.5s33 39.167 33 66.5c0 30.667 -8.83301 53 -26.5 67s-50.167 21 -97.5 21h-158zM88 0l0.000976562 570.001h230c74 0 125.833 -12.667 155.5 -38s44.5 -64.666 44.5 -117.999c0 -28.667 -10.333 -54 -31 -76
s-46.334 -36.667 -77.001 -44c36 -8.66699 65.333 -24.334 88 -47.001s34 -50.334 34 -83.001c0 -54.667 -18.5 -95.667 -55.5 -123s-89.833 -41 -158.5 -41h-230zM162.001 258.001v-198h154c44 0 79 8 105 24s39 40 39 72c0 68 -49.333 102 -148 102h-150z" />
    <glyph glyph-name="quotesinglbase" unicode="&#x201a;" horiz-adv-x="586" 
d="M162 506v-180h150c44 0 77 8.5 99 25.5s33 39.167 33 66.5c0 30.667 -8.83301 53 -26.5 67s-50.167 21 -97.5 21h-158zM88 0l0.000976562 570.001h230c74 0 125.833 -12.667 155.5 -38s44.5 -64.666 44.5 -117.999c0 -28.667 -10.333 -54 -31 -76
s-46.334 -36.667 -77.001 -44c36 -8.66699 65.333 -24.334 88 -47.001s34 -50.334 34 -83.001c0 -54.667 -18.5 -95.667 -55.5 -123s-89.833 -41 -158.5 -41h-230zM162.001 258.001v-198h154c44 0 79 8 105 24s39 40 39 72c0 68 -49.333 102 -148 102h-150z" />
    <glyph glyph-name="quotesinglbase" unicode="&#x432;" horiz-adv-x="586" 
d="M162 506v-180h150c44 0 77 8.5 99 25.5s33 39.167 33 66.5c0 30.667 -8.83301 53 -26.5 67s-50.167 21 -97.5 21h-158zM88 0l0.000976562 570.001h230c74 0 125.833 -12.667 155.5 -38s44.5 -64.666 44.5 -117.999c0 -28.667 -10.333 -54 -31 -76
s-46.334 -36.667 -77.001 -44c36 -8.66699 65.333 -24.334 88 -47.001s34 -50.334 34 -83.001c0 -54.667 -18.5 -95.667 -55.5 -123s-89.833 -41 -158.5 -41h-230zM162.001 258.001v-198h154c44 0 79 8 105 24s39 40 39 72c0 68 -49.333 102 -148 102h-150z" />
    <glyph glyph-name="quotedblbase" unicode="&#xe3;" horiz-adv-x="572" 
d="M432 180l71.999 -0.000976562c0 -64.667 -21.333 -113.5 -64 -146.5s-97.334 -49.5 -164.001 -49.5c-68.667 0 -123.167 14.5 -163.5 43.5s-60.5 70.5 -60.5 124.5c0 48 15.833 83.167 47.5 105.5s79.334 41.5 143.001 57.5s108.5 30.167 134.5 42.5s39 35.166 39 68.499
c0 30.667 -11.333 55.334 -34 74.001s-54 28 -94 28c-46 0 -82 -10.667 -108 -32s-40.667 -50.666 -44 -87.999h-70c4.66699 56.667 27 100.5 67 131.5s89.667 46.5 149 46.5c68.667 0 119.834 -13.667 153.501 -41s50.5 -69 50.5 -125c0 -47.333 -15.333 -81.5 -46 -102.5
s-77 -39.333 -139 -55s-106.667 -30.167 -134 -43.5s-41 -37 -41 -71c0 -32.667 13.667 -58.5 41 -77.5s63 -28.5 107 -28.5c99.333 0 152 46 158 138z" />
    <glyph glyph-name="quotedblbase" unicode="&#x201e;" horiz-adv-x="572" 
d="M432 180l71.999 -0.000976562c0 -64.667 -21.333 -113.5 -64 -146.5s-97.334 -49.5 -164.001 -49.5c-68.667 0 -123.167 14.5 -163.5 43.5s-60.5 70.5 -60.5 124.5c0 48 15.833 83.167 47.5 105.5s79.334 41.5 143.001 57.5s108.5 30.167 134.5 42.5s39 35.166 39 68.499
c0 30.667 -11.333 55.334 -34 74.001s-54 28 -94 28c-46 0 -82 -10.667 -108 -32s-40.667 -50.666 -44 -87.999h-70c4.66699 56.667 27 100.5 67 131.5s89.667 46.5 149 46.5c68.667 0 119.834 -13.667 153.501 -41s50.5 -69 50.5 -125c0 -47.333 -15.333 -81.5 -46 -102.5
s-77 -39.333 -139 -55s-106.667 -30.167 -134 -43.5s-41 -37 -41 -71c0 -32.667 13.667 -58.5 41 -77.5s63 -28.5 107 -28.5c99.333 0 152 46 158 138z" />
    <glyph glyph-name="quotedblbase" unicode="&#x433;" horiz-adv-x="572" 
d="M432 180l71.999 -0.000976562c0 -64.667 -21.333 -113.5 -64 -146.5s-97.334 -49.5 -164.001 -49.5c-68.667 0 -123.167 14.5 -163.5 43.5s-60.5 70.5 -60.5 124.5c0 48 15.833 83.167 47.5 105.5s79.334 41.5 143.001 57.5s108.5 30.167 134.5 42.5s39 35.166 39 68.499
c0 30.667 -11.333 55.334 -34 74.001s-54 28 -94 28c-46 0 -82 -10.667 -108 -32s-40.667 -50.666 -44 -87.999h-70c4.66699 56.667 27 100.5 67 131.5s89.667 46.5 149 46.5c68.667 0 119.834 -13.667 153.501 -41s50.5 -69 50.5 -125c0 -47.333 -15.333 -81.5 -46 -102.5
s-77 -39.333 -139 -55s-106.667 -30.167 -134 -43.5s-41 -37 -41 -71c0 -32.667 13.667 -58.5 41 -77.5s63 -28.5 107 -28.5c99.333 0 152 46 158 138z" />
    <glyph glyph-name="perthousand" unicode="&#xe4;" horiz-adv-x="622" 
d="M562 570l-0.00390625 -512.001c0 -91.333 -21 -158.166 -63 -200.499s-107 -63.5 -195 -63.5c-63.333 0 -114.166 12.667 -152.499 38s-60.833 62 -67.5 110h70c2.66699 -27.333 17.834 -49.833 45.501 -67.5s62.5 -26.5 104.5 -26.5c70 0 120.667 20 152 60
c13.333 17.333 21.833 35.333 25.5 54s6.5 54 8.5 106c0.666992 4.66699 1.16699 9 1.5 13s0.5 9.66699 0.5 17c-31.333 -36 -60.666 -61 -87.999 -75s-60 -21 -98 -21c-76 0 -137 26.667 -183 80s-69 124 -69 212c0 86.667 23.167 157 69.5 211s106.5 81 180.5 81
c76.667 0 139.334 -32 188.001 -96v80h70zM125.996 293.999c0 -72 16 -128.665 48 -169.998s76 -62 132 -62c61.333 0 108.333 20.667 141 62s49 100.666 49 177.999c0 72 -15.833 127.667 -47.5 167s-76.5 59 -134.5 59c-58.667 0 -104.667 -20.833 -138 -62.5
s-50 -98.834 -50 -171.501z" />
    <glyph glyph-name="perthousand" unicode="&#x2030;" horiz-adv-x="622" 
d="M562 570l-0.00390625 -512.001c0 -91.333 -21 -158.166 -63 -200.499s-107 -63.5 -195 -63.5c-63.333 0 -114.166 12.667 -152.499 38s-60.833 62 -67.5 110h70c2.66699 -27.333 17.834 -49.833 45.501 -67.5s62.5 -26.5 104.5 -26.5c70 0 120.667 20 152 60
c13.333 17.333 21.833 35.333 25.5 54s6.5 54 8.5 106c0.666992 4.66699 1.16699 9 1.5 13s0.5 9.66699 0.5 17c-31.333 -36 -60.666 -61 -87.999 -75s-60 -21 -98 -21c-76 0 -137 26.667 -183 80s-69 124 -69 212c0 86.667 23.167 157 69.5 211s106.5 81 180.5 81
c76.667 0 139.334 -32 188.001 -96v80h70zM125.996 293.999c0 -72 16 -128.665 48 -169.998s76 -62 132 -62c61.333 0 108.333 20.667 141 62s49 100.666 49 177.999c0 72 -15.833 127.667 -47.5 167s-76.5 59 -134.5 59c-58.667 0 -104.667 -20.833 -138 -62.5
s-50 -98.834 -50 -171.501z" />
    <glyph glyph-name="perthousand" unicode="&#x434;" horiz-adv-x="622" 
d="M562 570l-0.00390625 -512.001c0 -91.333 -21 -158.166 -63 -200.499s-107 -63.5 -195 -63.5c-63.333 0 -114.166 12.667 -152.499 38s-60.833 62 -67.5 110h70c2.66699 -27.333 17.834 -49.833 45.501 -67.5s62.5 -26.5 104.5 -26.5c70 0 120.667 20 152 60
c13.333 17.333 21.833 35.333 25.5 54s6.5 54 8.5 106c0.666992 4.66699 1.16699 9 1.5 13s0.5 9.66699 0.5 17c-31.333 -36 -60.666 -61 -87.999 -75s-60 -21 -98 -21c-76 0 -137 26.667 -183 80s-69 124 -69 212c0 86.667 23.167 157 69.5 211s106.5 81 180.5 81
c76.667 0 139.334 -32 188.001 -96v80h70zM125.996 293.999c0 -72 16 -128.665 48 -169.998s76 -62 132 -62c61.333 0 108.333 20.667 141 62s49 100.666 49 177.999c0 72 -15.833 127.667 -47.5 167s-76.5 59 -134.5 59c-58.667 0 -104.667 -20.833 -138 -62.5
s-50 -98.834 -50 -171.501z" />
    <glyph glyph-name="Acircumflex" unicode="&#xe5;" horiz-adv-x="622" 
d="M480 180h74.001c-24 -62.667 -55.333 -111 -94 -145s-89.334 -51 -152.001 -51c-78.667 0 -140.667 26.333 -186 79s-68 124.334 -68 215.001c0 94 23.333 168.833 70 224.5s110 83.5 190 83.5c46 0 87 -10.667 123 -32s63 -50.666 81 -87.999
c11.333 -24.667 19.333 -54.334 24 -89.001s8.66699 -68.334 12 -101.001h-430c0 -74 16 -130.833 48 -170.5s78.667 -59.5 140 -59.5c90 0 146 44.667 168 134zM126.001 334h354c-2 62 -17.5 109.833 -46.5 143.5s-69.5 50.5 -121.5 50.5
c-51.333 0 -92.833 -16.333 -124.5 -49s-52.167 -81 -61.5 -145z" />
    <glyph glyph-name="Acircumflex" unicode="&#x435;" horiz-adv-x="622" 
d="M480 180h74.001c-24 -62.667 -55.333 -111 -94 -145s-89.334 -51 -152.001 -51c-78.667 0 -140.667 26.333 -186 79s-68 124.334 -68 215.001c0 94 23.333 168.833 70 224.5s110 83.5 190 83.5c46 0 87 -10.667 123 -32s63 -50.666 81 -87.999
c11.333 -24.667 19.333 -54.334 24 -89.001s8.66699 -68.334 12 -101.001h-430c0 -74 16 -130.833 48 -170.5s78.667 -59.5 140 -59.5c90 0 146 44.667 168 134zM126.001 334h354c-2 62 -17.5 109.833 -46.5 143.5s-69.5 50.5 -121.5 50.5
c-51.333 0 -92.833 -16.333 -124.5 -49s-52.167 -81 -61.5 -145z" />
    <glyph glyph-name="Ecircumflex" unicode="&#xe6;" horiz-adv-x="960" 
d="M494 572v-268l286 268h96l-232 -210l246 -362h-88l-206 316l-102 -92v-224h-72v224l-102 92l-206 -316h-88l248 362l-234 210h104l278 -268v268h72z" />
    <glyph glyph-name="Ecircumflex" unicode="&#x436;" horiz-adv-x="960" 
d="M494 572v-268l286 268h96l-232 -210l246 -362h-88l-206 316l-102 -92v-224h-72v224l-102 92l-206 -316h-88l248 362l-234 210h104l278 -268v268h72z" />
    <glyph glyph-name="Aacute" unicode="&#xe7;" horiz-adv-x="522" 
d="M266 520c-40 0 -71.001 -10.167 -93.001 -30.5s-33 -45.5 -33 -75.5h-76c0 52.667 16.5 93.834 49.5 123.501s82.5 44.5 148.5 44.5c129.333 0 194 -53.333 194 -160c0 -28 -10.333 -53.833 -31 -77.5s-45.667 -39.834 -75 -48.501
c34.667 -8.66699 63.334 -24.834 86.001 -48.501s34 -51.5 34 -83.5c0 -53.333 -19.167 -95.666 -57.5 -126.999s-87.166 -47 -146.499 -47c-60.667 0 -111.834 15.833 -153.501 47.5s-62.5 73.834 -62.5 126.501h76c0 -32.667 13.5 -59.5 40.5 -80.5
s60.167 -31.5 99.5 -31.5s71.5 10 96.5 30s37.5 44.667 37.5 74c0 68 -44 102 -132 102h-36v68h34c35.333 0 63.5 8.66699 84.5 26s31.5 39.333 31.5 66c0 31.333 -9.5 56.166 -28.5 74.499s-48.167 27.5 -87.5 27.5z" />
    <glyph glyph-name="Aacute" unicode="&#x437;" horiz-adv-x="522" 
d="M266 520c-40 0 -71.001 -10.167 -93.001 -30.5s-33 -45.5 -33 -75.5h-76c0 52.667 16.5 93.834 49.5 123.501s82.5 44.5 148.5 44.5c129.333 0 194 -53.333 194 -160c0 -28 -10.333 -53.833 -31 -77.5s-45.667 -39.834 -75 -48.501
c34.667 -8.66699 63.334 -24.834 86.001 -48.501s34 -51.5 34 -83.5c0 -53.333 -19.167 -95.666 -57.5 -126.999s-87.166 -47 -146.499 -47c-60.667 0 -111.834 15.833 -153.501 47.5s-62.5 73.834 -62.5 126.501h76c0 -32.667 13.5 -59.5 40.5 -80.5
s60.167 -31.5 99.5 -31.5s71.5 10 96.5 30s37.5 44.667 37.5 74c0 68 -44 102 -132 102h-36v68h34c35.333 0 63.5 8.66699 84.5 26s31.5 39.333 31.5 66c0 31.333 -9.5 56.166 -28.5 74.499s-48.167 27.5 -87.5 27.5z" />
    <glyph glyph-name="Edieresis" unicode="&#xe8;" horiz-adv-x="598" 
d="M540 570l-0.00292969 -570.004h-74v68c-21.333 -23.333 -40.166 -40.666 -56.499 -51.999s-34.166 -19.5 -53.499 -24.5s-42.666 -7.5 -69.999 -7.5c-48 0 -87 8.33301 -117 25s-51 40.834 -63 72.501s-18 71.834 -18 120.501v368h72v-372
c0 -55.333 10.833 -95.166 32.5 -119.499s56.167 -36.5 103.5 -36.5c53.333 0 95 17.333 125 52s45 82.667 45 144v332h74z" />
    <glyph glyph-name="Edieresis" unicode="&#x438;" horiz-adv-x="598" 
d="M540 570l-0.00292969 -570.004h-74v68c-21.333 -23.333 -40.166 -40.666 -56.499 -51.999s-34.166 -19.5 -53.499 -24.5s-42.666 -7.5 -69.999 -7.5c-48 0 -87 8.33301 -117 25s-51 40.834 -63 72.501s-18 71.834 -18 120.501v368h72v-372
c0 -55.333 10.833 -95.166 32.5 -119.499s56.167 -36.5 103.5 -36.5c53.333 0 95 17.333 125 52s45 82.667 45 144v332h74z" />
    <glyph glyph-name="Egrave" unicode="&#xe9;" horiz-adv-x="610" 
d="M540 570l-0.00292969 -570.004h-74v68c-21.333 -23.333 -40.166 -40.666 -56.499 -51.999s-34.166 -19.5 -53.499 -24.5s-42.666 -7.5 -69.999 -7.5c-48 0 -87 8.33301 -117 25s-51 40.834 -63 72.501s-18 71.834 -18 120.501v368h72v-372
c0 -55.333 10.833 -95.166 32.5 -119.499s56.167 -36.5 103.5 -36.5c53.333 0 95 17.333 125 52s45 82.667 45 144v332h74zM315.997 683.996c-36 0 -67.999 10 -95.999 30s-42 45.333 -42 76h66c0 -12.667 7.16699 -23.5 21.5 -32.5s31.166 -14.167 50.499 -15.5
c18.667 1.33301 35.667 6.5 51 15.5s23 19.833 23 32.5h66c0 -30.667 -14.333 -56 -43 -76s-61 -30 -97 -30z" />
    <glyph glyph-name="Egrave" unicode="&#x439;" horiz-adv-x="610" 
d="M540 570l-0.00292969 -570.004h-74v68c-21.333 -23.333 -40.166 -40.666 -56.499 -51.999s-34.166 -19.5 -53.499 -24.5s-42.666 -7.5 -69.999 -7.5c-48 0 -87 8.33301 -117 25s-51 40.834 -63 72.501s-18 71.834 -18 120.501v368h72v-372
c0 -55.333 10.833 -95.166 32.5 -119.499s56.167 -36.5 103.5 -36.5c53.333 0 95 17.333 125 52s45 82.667 45 144v332h74zM315.997 683.996c-36 0 -67.999 10 -95.999 30s-42 45.333 -42 76h66c0 -12.667 7.16699 -23.5 21.5 -32.5s31.166 -14.167 50.499 -15.5
c18.667 1.33301 35.667 6.5 51 15.5s23 19.833 23 32.5h66c0 -30.667 -14.333 -56 -43 -76s-61 -30 -97 -30z" />
    <glyph glyph-name="Iacute" unicode="&#xea;" horiz-adv-x="622" 
d="M88 0v572h72v-268l282 268h100l-234 -210l248 -362h-88l-206 316l-102 -92v-224h-72z" />
    <glyph glyph-name="Iacute" unicode="&#x43a;" horiz-adv-x="622" 
d="M88 0v572h72v-268l282 268h100l-234 -210l248 -362h-88l-206 316l-102 -92v-224h-72z" />
    <glyph glyph-name="Icircumflex" unicode="&#xeb;" horiz-adv-x="598" 
d="M536 0l-72 0.000976562v332c0 61.333 -14.667 109.333 -44 144s-71.333 52 -126 52c-48 0 -83 -12.333 -105 -37s-33 -64.334 -33 -119.001v-372h-70v368c0 74 14.333 128.833 43 164.5s79.667 53.5 153 53.5c41.333 0 75 -6 101 -18s53 -34 81 -66v68h72v-570z" />
    <glyph glyph-name="Icircumflex" unicode="&#x43b;" horiz-adv-x="598" 
d="M536 0l-72 0.000976562v332c0 61.333 -14.667 109.333 -44 144s-71.333 52 -126 52c-48 0 -83 -12.333 -105 -37s-33 -64.334 -33 -119.001v-372h-70v368c0 74 14.333 128.833 43 164.5s79.667 53.5 153 53.5c41.333 0 75 -6 101 -18s53 -34 81 -66v68h72v-570z" />
    <glyph glyph-name="Idieresis" unicode="&#xec;" horiz-adv-x="784" 
d="M408 86l248 484h74v-570h-74v428l-212 -428h-72l-210 428v-428h-74v570h74z" />
    <glyph glyph-name="Idieresis" unicode="&#x43c;" horiz-adv-x="784" 
d="M408 86l248 484h74v-570h-74v428l-212 -428h-72l-210 428v-428h-74v570h74z" />
    <glyph glyph-name="Igrave" unicode="&#xed;" horiz-adv-x="598" 
d="M466 258h-304v-258h-74v570h74v-242h304v242h74v-570h-74v258z" />
    <glyph glyph-name="Igrave" unicode="&#x43d;" horiz-adv-x="598" 
d="M466 258h-304v-258h-74v570h74v-242h304v242h74v-570h-74v258z" />
    <glyph glyph-name="Oacute" unicode="&#xee;" horiz-adv-x="648" 
d="M54 286c0 59.333 11.168 111.832 33.501 157.499s53.5 80.834 93.5 105.501s85.667 37 137 37c52 0 98 -12.333 138 -37s71 -60 93 -106s33 -98.333 33 -157c0 -62 -10.5 -115.833 -31.5 -161.5s-51.5 -80.5 -91.5 -104.5s-87 -36 -141 -36
c-82.667 0 -147.334 27 -194.001 81s-70 127.667 -70 221zM126.001 287.999c0 -78.667 16.332 -138.667 48.999 -180s80.334 -62 143.001 -62c62 0 109.5 20.833 142.5 62.5s49.5 101.5 49.5 179.5c0 48 -8 90 -24 126s-38.5 64 -67.5 84s-62.5 30 -100.5 30
s-71.5 -10 -100.5 -30s-51.5 -48 -67.5 -84s-24 -78 -24 -126z" />
    <glyph glyph-name="Oacute" unicode="&#x43e;" horiz-adv-x="648" 
d="M54 286c0 59.333 11.168 111.832 33.501 157.499s53.5 80.834 93.5 105.501s85.667 37 137 37c52 0 98 -12.333 138 -37s71 -60 93 -106s33 -98.333 33 -157c0 -62 -10.5 -115.833 -31.5 -161.5s-51.5 -80.5 -91.5 -104.5s-87 -36 -141 -36
c-82.667 0 -147.334 27 -194.001 81s-70 127.667 -70 221zM126.001 287.999c0 -78.667 16.332 -138.667 48.999 -180s80.334 -62 143.001 -62c62 0 109.5 20.833 142.5 62.5s49.5 101.5 49.5 179.5c0 48 -8 90 -24 126s-38.5 64 -67.5 84s-62.5 30 -100.5 30
s-71.5 -10 -100.5 -30s-51.5 -48 -67.5 -84s-24 -78 -24 -126z" />
    <glyph glyph-name="Ocircumflex" unicode="&#xef;" horiz-adv-x="610" 
d="M88 0l-0.00195312 570.002h74v-68c26.667 31.333 53.334 53.166 80.001 65.499s60 18.5 100 18.5c74 0 125.5 -17.667 154.5 -53s43.5 -90.333 43.5 -165v-368h-72v372c0 55.333 -10.5 95.166 -31.5 119.499s-56.5 36.5 -106.5 36.5
c-53.333 0 -94.666 -17.5 -123.999 -52.5s-44 -82.833 -44 -143.5v-332h-74z" />
    <glyph glyph-name="Ocircumflex" unicode="&#x43f;" horiz-adv-x="610" 
d="M88 0l-0.00195312 570.002h74v-68c26.667 31.333 53.334 53.166 80.001 65.499s60 18.5 100 18.5c74 0 125.5 -17.667 154.5 -53s43.5 -90.333 43.5 -165v-368h-72v372c0 55.333 -10.5 95.166 -31.5 119.499s-56.5 36.5 -106.5 36.5
c-53.333 0 -94.666 -17.5 -123.999 -52.5s-44 -82.833 -44 -143.5v-332h-74z" />
    <glyph glyph-name="apple" unicode="&#xf0;" 
d="M160 -204l-72 0.000976562v774h72v-80c25.333 33.333 52.833 57.666 82.5 72.999s64.167 23 103.5 23c48.667 0 92 -12.5 130 -37.5s67.5 -59.5 88.5 -103.5s31.5 -95 31.5 -153c0 -89.333 -22.667 -163 -68 -221s-111.333 -87 -198 -87c-36 0 -67.833 7.5 -95.5 22.5
s-52.5 37.5 -74.5 67.5v-278zM524 292.001c0 72 -16.168 129.334 -48.501 172.001s-76.166 64 -131.499 64c-67.333 0 -115.5 -23.333 -144.5 -70s-43.5 -105.334 -43.5 -176.001c0 -74.667 15.333 -132.667 46 -174s74 -62 130 -62c40 0 74.5 9.66699 103.5 29
s51 47.833 66 85.5s22.5 81.5 22.5 131.5z" />
    <glyph glyph-name="apple" unicode="&#x440;" 
d="M160 -204l-72 0.000976562v774h72v-80c25.333 33.333 52.833 57.666 82.5 72.999s64.167 23 103.5 23c48.667 0 92 -12.5 130 -37.5s67.5 -59.5 88.5 -103.5s31.5 -95 31.5 -153c0 -89.333 -22.667 -163 -68 -221s-111.333 -87 -198 -87c-36 0 -67.833 7.5 -95.5 22.5
s-52.5 37.5 -74.5 67.5v-278zM524 292.001c0 72 -16.168 129.334 -48.501 172.001s-76.166 64 -131.499 64c-67.333 0 -115.5 -23.333 -144.5 -70s-43.5 -105.334 -43.5 -176.001c0 -74.667 15.333 -132.667 46 -174s74 -62 130 -62c40 0 74.5 9.66699 103.5 29
s51 47.833 66 85.5s22.5 81.5 22.5 131.5z" />
    <glyph glyph-name="Ograve" unicode="&#xf1;" horiz-adv-x="610" 
d="M476 198l70 0.00292969c-32.667 -142.667 -113.334 -214 -242.001 -214c-74.667 0 -135 27.333 -181 82s-69 126 -69 214c0 93.333 24.833 167.666 74.5 222.999s114.834 83 195.501 83c62 0 112.5 -16.833 151.5 -50.5s62.5 -81.5 70.5 -143.5h-70
c-4 43.333 -19 76.166 -45 98.499s-63 33.5 -111 33.5c-59.333 0 -106.5 -21.667 -141.5 -65s-52.5 -102.333 -52.5 -177c0 -70 17.167 -126.5 51.5 -169.5s79.833 -64.5 136.5 -64.5c45.333 0 82.5 13.167 111.5 39.5s45.833 63.166 50.5 110.499z" />
    <glyph glyph-name="Ograve" unicode="&#x441;" horiz-adv-x="610" 
d="M476 198l70 0.00292969c-32.667 -142.667 -113.334 -214 -242.001 -214c-74.667 0 -135 27.333 -181 82s-69 126 -69 214c0 93.333 24.833 167.666 74.5 222.999s114.834 83 195.501 83c62 0 112.5 -16.833 151.5 -50.5s62.5 -81.5 70.5 -143.5h-70
c-4 43.333 -19 76.166 -45 98.499s-63 33.5 -111 33.5c-59.333 0 -106.5 -21.667 -141.5 -65s-52.5 -102.333 -52.5 -177c0 -70 17.167 -126.5 51.5 -169.5s79.833 -64.5 136.5 -64.5c45.333 0 82.5 13.167 111.5 39.5s45.833 63.166 50.5 110.499z" />
    <glyph glyph-name="Uacute" unicode="&#xf2;" horiz-adv-x="922" 
d="M88 0l0.00195312 570.001h72v-62c44 52 97.333 78 160 78c78 0 133.333 -32 166 -96c42 64 100 96 174 96c71.333 0 120.166 -17.333 146.499 -52s39.5 -87.334 39.5 -158.001v-376h-74v382c0 52 -8.83301 89.333 -26.5 112s-46.834 34 -87.501 34
c-52.667 0 -91.5 -15.833 -116.5 -47.5s-37.5 -81.167 -37.5 -148.5v-332h-72v380c0 51.333 -8.66699 88.833 -26 112.5s-46 35.5 -86 35.5c-106.667 0 -160 -70 -160 -210v-318h-72z" />
    <glyph glyph-name="Uacute" unicode="&#x442;" horiz-adv-x="922" 
d="M88 0l0.00195312 570.001h72v-62c44 52 97.333 78 160 78c78 0 133.333 -32 166 -96c42 64 100 96 174 96c71.333 0 120.166 -17.333 146.499 -52s39.5 -87.334 39.5 -158.001v-376h-74v382c0 52 -8.83301 89.333 -26.5 112s-46.834 34 -87.501 34
c-52.667 0 -91.5 -15.833 -116.5 -47.5s-37.5 -81.167 -37.5 -148.5v-332h-72v380c0 51.333 -8.66699 88.833 -26 112.5s-46 35.5 -86 35.5c-106.667 0 -160 -70 -160 -210v-318h-72z" />
    <glyph glyph-name="Ucircumflex" unicode="&#xf3;" horiz-adv-x="560" 
d="M72 -138c16 -4 30.6689 -6 44.002 -6c18.667 0 34.167 5 46.5 15s22.166 21.667 29.499 35s14.666 31.333 21.999 54s12.666 38.667 15.999 48l-220 562h76l180 -472l176 472h74l-260 -668c-16 -40 -34 -67.667 -54 -83s-48 -23 -84 -23
c-17.333 0 -32.666 1.33301 -45.999 4v62z" />
    <glyph glyph-name="Ucircumflex" unicode="&#x443;" horiz-adv-x="560" 
d="M72 -138c16 -4 30.6689 -6 44.002 -6c18.667 0 34.167 5 46.5 15s22.166 21.667 29.499 35s14.666 31.333 21.999 54s12.666 38.667 15.999 48l-220 562h76l180 -472l176 472h74l-260 -668c-16 -40 -34 -67.667 -54 -83s-48 -23 -84 -23
c-17.333 0 -32.666 1.33301 -45.999 4v62z" />
    <glyph glyph-name="Ugrave" unicode="&#xf4;" horiz-adv-x="1034" 
d="M546 794v-304c26 34 53.833 58.5 83.5 73.5s64.5 22.5 104.5 22.5c48.667 0 92 -12.5 130 -37.5s67.5 -59.5 88.5 -103.5s31.5 -95 31.5 -153c0 -89.333 -22.667 -163 -68 -221s-111.333 -87 -198 -87c-36 0 -67.833 7.33301 -95.5 22s-53.167 37.334 -76.5 68.001v-278
h-70v278c-23.333 -30.667 -48.833 -53.334 -76.5 -68.001s-59.5 -22 -95.5 -22c-85.333 0 -151 29.167 -197 87.5s-69 131.833 -69 220.5c0 58 10.5 109 31.5 153s50.5 78.5 88.5 103.5s81.333 37.5 130 37.5c40 0 74.667 -7.5 104 -22.5s57.333 -39.5 84 -73.5v304h70z
M110 292c0 -76.667 16.832 -136.834 50.499 -180.501s80.834 -65.5 141.501 -65.5c56 0 99.333 20.667 130 62s46 99.333 46 174c0 46.667 -5.66699 88 -17 124s-31 65.333 -59 88s-65.333 34 -112 34c-36.667 0 -68.5 -9.66699 -95.5 -29s-47.833 -47.166 -62.5 -83.499
s-22 -77.5 -22 -123.5zM911.999 292c0 70.667 -16.5 127.668 -49.5 171.001s-76.5 65 -130.5 65c-46.667 0 -84 -11.333 -112 -34s-47.667 -52 -59 -88s-17 -77.333 -17 -124c0 -74.667 15.333 -132.667 46 -174s74 -62 130 -62c60 0 107 21.667 141 65
s51 103.666 51 180.999z" />
    <glyph glyph-name="Ugrave" unicode="&#x444;" horiz-adv-x="1034" 
d="M546 794v-304c26 34 53.833 58.5 83.5 73.5s64.5 22.5 104.5 22.5c48.667 0 92 -12.5 130 -37.5s67.5 -59.5 88.5 -103.5s31.5 -95 31.5 -153c0 -89.333 -22.667 -163 -68 -221s-111.333 -87 -198 -87c-36 0 -67.833 7.33301 -95.5 22s-53.167 37.334 -76.5 68.001v-278
h-70v278c-23.333 -30.667 -48.833 -53.334 -76.5 -68.001s-59.5 -22 -95.5 -22c-85.333 0 -151 29.167 -197 87.5s-69 131.833 -69 220.5c0 58 10.5 109 31.5 153s50.5 78.5 88.5 103.5s81.333 37.5 130 37.5c40 0 74.667 -7.5 104 -22.5s57.333 -39.5 84 -73.5v304h70z
M110 292c0 -76.667 16.832 -136.834 50.499 -180.501s80.834 -65.5 141.501 -65.5c56 0 99.333 20.667 130 62s46 99.333 46 174c0 46.667 -5.66699 88 -17 124s-31 65.333 -59 88s-65.333 34 -112 34c-36.667 0 -68.5 -9.66699 -95.5 -29s-47.833 -47.166 -62.5 -83.499
s-22 -77.5 -22 -123.5zM911.999 292c0 70.667 -16.5 127.668 -49.5 171.001s-76.5 65 -130.5 65c-46.667 0 -84 -11.333 -112 -34s-47.667 -52 -59 -88s-17 -77.333 -17 -124c0 -74.667 15.333 -132.667 46 -174s74 -62 130 -62c60 0 107 21.667 141 65
s51 103.666 51 180.999z" />
    <glyph glyph-name="dotlessi" unicode="&#xf5;" horiz-adv-x="572" 
d="M4 0l220 300l-198 270h84l152 -220l156 220h84l-200 -270l218 -300h-86l-172 244l-172 -244h-86z" />
    <glyph glyph-name="dotlessi" unicode="&#x445;" horiz-adv-x="572" 
d="M4 0l220 300l-198 270h84l152 -220l156 220h84l-200 -270l218 -300h-86l-172 244l-172 -244h-86z" />
    <glyph glyph-name="circumflex" unicode="&#xf6;" horiz-adv-x="684" 
d="M540 570l-0.00292969 -508.004h94v-198h-72v136h-96v68c-21.333 -23.333 -40.166 -40.666 -56.499 -51.999s-34.166 -19.5 -53.499 -24.5s-42.666 -7.5 -69.999 -7.5c-48 0 -87 8.33301 -117 25s-51 40.834 -63 72.501s-18 71.834 -18 120.501v368h72v-372
c0 -55.333 10.833 -95.166 32.5 -119.499s56.167 -36.5 103.5 -36.5c53.333 0 95 17.333 125 52s45 82.667 45 144v332h74z" />
    <glyph glyph-name="circumflex" unicode="&#x446;" horiz-adv-x="684" 
d="M540 570l-0.00292969 -508.004h94v-198h-72v136h-96v68c-21.333 -23.333 -40.166 -40.666 -56.499 -51.999s-34.166 -19.5 -53.499 -24.5s-42.666 -7.5 -69.999 -7.5c-48 0 -87 8.33301 -117 25s-51 40.834 -63 72.501s-18 71.834 -18 120.501v368h72v-372
c0 -55.333 10.833 -95.166 32.5 -119.499s56.167 -36.5 103.5 -36.5c53.333 0 95 17.333 125 52s45 82.667 45 144v332h74z" />
    <glyph glyph-name="circumflex" unicode="&#x2c6;" horiz-adv-x="684" 
d="M540 570l-0.00292969 -508.004h94v-198h-72v136h-96v68c-21.333 -23.333 -40.166 -40.666 -56.499 -51.999s-34.166 -19.5 -53.499 -24.5s-42.666 -7.5 -69.999 -7.5c-48 0 -87 8.33301 -117 25s-51 40.834 -63 72.501s-18 71.834 -18 120.501v368h72v-372
c0 -55.333 10.833 -95.166 32.5 -119.499s56.167 -36.5 103.5 -36.5c53.333 0 95 17.333 125 52s45 82.667 45 144v332h74z" />
    <glyph glyph-name="tilde" unicode="&#xf7;" horiz-adv-x="610" 
d="M540 570l-0.00292969 -570.003h-74v282c-21.333 -23.333 -40.166 -40.666 -56.499 -51.999s-34.166 -19.5 -53.499 -24.5s-42.666 -7.5 -69.999 -7.5c-48 0 -87 8.33301 -117 25s-51 40.834 -63 72.501s-18 71.834 -18 120.501v154h72v-160
c0 -54 10.833 -93.167 32.5 -117.5s56.167 -36.5 103.5 -36.5c53.333 0 95 17.333 125 52s45 82.667 45 144v118h74z" />
    <glyph glyph-name="tilde" unicode="&#x447;" horiz-adv-x="610" 
d="M540 570l-0.00292969 -570.003h-74v282c-21.333 -23.333 -40.166 -40.666 -56.499 -51.999s-34.166 -19.5 -53.499 -24.5s-42.666 -7.5 -69.999 -7.5c-48 0 -87 8.33301 -117 25s-51 40.834 -63 72.501s-18 71.834 -18 120.501v154h72v-160
c0 -54 10.833 -93.167 32.5 -117.5s56.167 -36.5 103.5 -36.5c53.333 0 95 17.333 125 52s45 82.667 45 144v118h74z" />
    <glyph glyph-name="tilde" unicode="&#x2dc;" horiz-adv-x="610" 
d="M540 570l-0.00292969 -570.003h-74v282c-21.333 -23.333 -40.166 -40.666 -56.499 -51.999s-34.166 -19.5 -53.499 -24.5s-42.666 -7.5 -69.999 -7.5c-48 0 -87 8.33301 -117 25s-51 40.834 -63 72.501s-18 71.834 -18 120.501v154h72v-160
c0 -54 10.833 -93.167 32.5 -117.5s56.167 -36.5 103.5 -36.5c53.333 0 95 17.333 125 52s45 82.667 45 144v118h74z" />
    <glyph glyph-name="macron" unicode="&#xf8;" horiz-adv-x="896" 
d="M824 572l0.00292969 -569.999h-72v62c-22.667 -26.667 -46.667 -46.334 -72 -59.001s-54.666 -19 -87.999 -19c-38.667 0 -71.834 8 -99.501 24s-49.834 40.667 -66.501 74c-42.667 -65.333 -100.667 -98 -174 -98c-70.667 0 -119.334 17.5 -146.001 52.5
s-40 88.167 -40 159.5v374h74v-382c0 -50 9.16699 -86.5 27.5 -109.5s47.166 -34.5 86.499 -34.5c54 0 93.167 15.5 117.5 46.5s36.5 80.167 36.5 147.5v332h72v-380c0 -50 8.83301 -86.833 26.5 -110.5s46.167 -35.5 85.5 -35.5c58.667 0 100 18.667 124 56s36 88 36 152
v318h72z" />
    <glyph glyph-name="macron" unicode="&#x448;" horiz-adv-x="896" 
d="M824 572l0.00292969 -569.999h-72v62c-22.667 -26.667 -46.667 -46.334 -72 -59.001s-54.666 -19 -87.999 -19c-38.667 0 -71.834 8 -99.501 24s-49.834 40.667 -66.501 74c-42.667 -65.333 -100.667 -98 -174 -98c-70.667 0 -119.334 17.5 -146.001 52.5
s-40 88.167 -40 159.5v374h74v-382c0 -50 9.16699 -86.5 27.5 -109.5s47.166 -34.5 86.499 -34.5c54 0 93.167 15.5 117.5 46.5s36.5 80.167 36.5 147.5v332h72v-380c0 -50 8.83301 -86.833 26.5 -110.5s46.167 -35.5 85.5 -35.5c58.667 0 100 18.667 124 56s36 88 36 152
v318h72z" />
    <glyph glyph-name="breve" unicode="&#xf9;" horiz-adv-x="972" 
d="M824 568v-510h96v-198h-72v140h-96v60c-23.333 -28 -47.5 -48.333 -72.5 -61s-54.167 -19 -87.5 -19c-77.333 0 -132.666 32.667 -165.999 98c-42.667 -65.333 -100.667 -98 -174 -98c-70 0 -118.5 17.667 -145.5 53s-40.5 88.333 -40.5 159v376h74v-382
c0 -50 9.16699 -86.833 27.5 -110.5s47.166 -35.5 86.499 -35.5c54 0 93.167 15.667 117.5 47s36.5 81 36.5 149v332h72v-380c0 -50.667 9 -88 27 -112s46.333 -36 85 -36c59.333 0 100.833 19 124.5 57s35.5 89 35.5 153v318h72z" />
    <glyph glyph-name="breve" unicode="&#x449;" horiz-adv-x="972" 
d="M824 568v-510h96v-198h-72v140h-96v60c-23.333 -28 -47.5 -48.333 -72.5 -61s-54.167 -19 -87.5 -19c-77.333 0 -132.666 32.667 -165.999 98c-42.667 -65.333 -100.667 -98 -174 -98c-70 0 -118.5 17.667 -145.5 53s-40.5 88.333 -40.5 159v376h74v-382
c0 -50 9.16699 -86.833 27.5 -110.5s47.166 -35.5 86.499 -35.5c54 0 93.167 15.667 117.5 47s36.5 81 36.5 149v332h72v-380c0 -50.667 9 -88 27 -112s46.333 -36 85 -36c59.333 0 100.833 19 124.5 57s35.5 89 35.5 153v318h72z" />
    <glyph glyph-name="dotaccent" unicode="&#xfa;" horiz-adv-x="684" 
d="M262 570v-244h148c70 0 124.5 -15 163.5 -45s58.5 -69 58.5 -117c0 -54.667 -18.5 -95.667 -55.5 -123s-89.833 -41 -158.5 -41h-230v508h-136v62h210zM262 258v-198h154c44 0 79 8 105 24s39 40 39 72c0 68 -50 102 -150 102h-148z" />
    <glyph glyph-name="dotaccent" unicode="&#x44a;" horiz-adv-x="684" 
d="M262 570v-244h148c70 0 124.5 -15 163.5 -45s58.5 -69 58.5 -117c0 -54.667 -18.5 -95.667 -55.5 -123s-89.833 -41 -158.5 -41h-230v508h-136v62h210zM262 258v-198h154c44 0 79 8 105 24s39 40 39 72c0 68 -50 102 -150 102h-148z" />
    <glyph glyph-name="ring" unicode="&#xfb;" horiz-adv-x="772" 
d="M162 570v-244h146c70 0 124.5 -15 163.5 -45s58.5 -69 58.5 -117c0 -54.667 -18.5 -95.667 -55.5 -123s-89.833 -41 -158.5 -41h-228v570h74zM162 258v-198h152c44 0 79 8 105 24s39 40 39 72c0 68 -50 102 -150 102h-146zM638 0v570h72v-570h-72z" />
    <glyph glyph-name="ring" unicode="&#x44b;" horiz-adv-x="772" 
d="M162 570v-244h146c70 0 124.5 -15 163.5 -45s58.5 -69 58.5 -117c0 -54.667 -18.5 -95.667 -55.5 -123s-89.833 -41 -158.5 -41h-228v570h74zM162 258v-198h152c44 0 79 8 105 24s39 40 39 72c0 68 -50 102 -150 102h-146zM638 0v570h72v-570h-72z" />
    <glyph glyph-name="cedilla" unicode="&#xfc;" horiz-adv-x="586" 
d="M162 570v-244h146c70 0 124.5 -15 163.5 -45s58.5 -69 58.5 -117c0 -54.667 -18.5 -95.667 -55.5 -123s-89.833 -41 -158.5 -41h-228v570h74zM162 258v-198h152c44 0 79 8 105 24s39 40 39 72c0 68 -50 102 -150 102h-146z" />
    <glyph glyph-name="cedilla" unicode="&#x44c;" horiz-adv-x="586" 
d="M162 570v-244h146c70 0 124.5 -15 163.5 -45s58.5 -69 58.5 -117c0 -54.667 -18.5 -95.667 -55.5 -123s-89.833 -41 -158.5 -41h-228v570h74zM162 258v-198h152c44 0 79 8 105 24s39 40 39 72c0 68 -50 102 -150 102h-146z" />
    <glyph glyph-name="hungarumlaut" unicode="&#xfd;" horiz-adv-x="586" 
d="M466 328c0 57.333 -16.168 104.001 -48.501 140.001s-74.833 54 -127.5 54c-44 0 -81.5 -11.333 -112.5 -34s-50.833 -54.667 -59.5 -96h-70c12 59.333 41 105.833 87 139.5s97.667 50.5 155 50.5c52 0 96.833 -12.333 134.5 -37s66.334 -59.5 86.001 -104.5
s29.5 -98.5 29.5 -160.5c0 -88 -22.833 -159.333 -68.5 -214s-106.167 -82 -181.5 -82c-66 0 -121 18 -165 54s-69.667 89.333 -77 160h70c4.66699 -47.333 22.167 -84.5 52.5 -111.5s68.833 -40.5 115.5 -40.5c35.333 0 66.5 9.16699 93.5 27.5s48.167 43.666 63.5 75.999
s23 68.5 23 108.5h-202v70h202z" />
    <glyph glyph-name="hungarumlaut" unicode="&#x44d;" horiz-adv-x="586" 
d="M466 328c0 57.333 -16.168 104.001 -48.501 140.001s-74.833 54 -127.5 54c-44 0 -81.5 -11.333 -112.5 -34s-50.833 -54.667 -59.5 -96h-70c12 59.333 41 105.833 87 139.5s97.667 50.5 155 50.5c52 0 96.833 -12.333 134.5 -37s66.334 -59.5 86.001 -104.5
s29.5 -98.5 29.5 -160.5c0 -88 -22.833 -159.333 -68.5 -214s-106.167 -82 -181.5 -82c-66 0 -121 18 -165 54s-69.667 89.333 -77 160h70c4.66699 -47.333 22.167 -84.5 52.5 -111.5s68.833 -40.5 115.5 -40.5c35.333 0 66.5 9.16699 93.5 27.5s48.167 43.666 63.5 75.999
s23 68.5 23 108.5h-202v70h202z" />
    <glyph glyph-name="ogonek" unicode="&#xfe;" horiz-adv-x="846" 
d="M274 328c4.66699 51.333 18.665 96.5 41.998 135.5s53.833 69.167 91.5 90.5s80.5 32 128.5 32c52 0 98 -12.333 138 -37s71 -60 93 -106s33 -98.333 33 -157c0 -94 -23.167 -167.833 -69.5 -221.5s-111.166 -80.5 -194.499 -80.5c-52 0 -97.333 11 -136 33
s-69.167 53.5 -91.5 94.5s-35.166 89.833 -38.499 146.5h-108v-258h-74v570h74v-242h112zM343.998 288c0 -77.333 16.668 -137 50.001 -179s80.666 -63 141.999 -63c62.667 0 110.667 20.667 144 62s50 101.333 50 180c0 48 -8 90 -24 126s-38.667 64 -68 84
s-63.333 30 -102 30c-38 0 -71.5 -10 -100.5 -30s-51.5 -48 -67.5 -84s-24 -78 -24 -126z" />
    <glyph glyph-name="ogonek" unicode="&#x44e;" horiz-adv-x="846" 
d="M274 328c4.66699 51.333 18.665 96.5 41.998 135.5s53.833 69.167 91.5 90.5s80.5 32 128.5 32c52 0 98 -12.333 138 -37s71 -60 93 -106s33 -98.333 33 -157c0 -94 -23.167 -167.833 -69.5 -221.5s-111.166 -80.5 -194.499 -80.5c-52 0 -97.333 11 -136 33
s-69.167 53.5 -91.5 94.5s-35.166 89.833 -38.499 146.5h-108v-258h-74v570h74v-242h112zM343.998 288c0 -77.333 16.668 -137 50.001 -179s80.666 -63 141.999 -63c62.667 0 110.667 20.667 144 62s50 101.333 50 180c0 48 -8 90 -24 126s-38.667 64 -68 84
s-63.333 30 -102 30c-38 0 -71.5 -10 -100.5 -30s-51.5 -48 -67.5 -84s-24 -78 -24 -126z" />
    <glyph glyph-name="fl" unicode="&#xff;" horiz-adv-x="622" 
d="M466 328v176.001h-198c-70.667 0 -106 -28.667 -106 -86c0 -28.667 10 -50.834 30 -66.501s44 -23.5 72 -23.5h202zM464 258.001l-196.001 -0.000976562c-32 0 -54.167 -11.333 -66.5 -34s-22.5 -61 -30.5 -115s-15 -90.333 -21 -109h-76
c12 31.333 22.333 72.833 31 124.5s17.834 88.834 27.501 111.501s30.167 42 61.5 58c-25.333 0 -49 11.5 -71 34.5s-33 54.167 -33 93.5c0 44 16.833 79.667 50.5 107s76.167 41 127.5 41h268v-570h-72v258z" />
    <glyph glyph-name="fl" unicode="&#x44f;" horiz-adv-x="622" 
d="M466 328v176.001h-198c-70.667 0 -106 -28.667 -106 -86c0 -28.667 10 -50.834 30 -66.501s44 -23.5 72 -23.5h202zM464 258.001l-196.001 -0.000976562c-32 0 -54.167 -11.333 -66.5 -34s-22.5 -61 -30.5 -115s-15 -90.333 -21 -109h-76
c12 31.333 22.333 72.833 31 124.5s17.834 88.834 27.501 111.501s30.167 42 61.5 58c-25.333 0 -49 11.5 -71 34.5s-33 54.167 -33 93.5c0 44 16.833 79.667 50.5 107s76.167 41 127.5 41h268v-570h-72v258z" />
    <glyph glyph-name="Otilde" unicode="&#x152;" horiz-adv-x="796" 
d="M96 0v794h78v-412l430 412h106l-352 -330l356 -464h-94l-314 414l-132 -124v-290h-78zM270 856l96 146h94l-134 -146h-56z" />
    <glyph glyph-name="oe" unicode="&#x153;" horiz-adv-x="572" 
d="M118 180c8 -88 62.667 -132.001 164 -132.001c42.667 0 77.334 9.66699 104.001 29s40 45.666 40 78.999c0 34.667 -14.5 58.667 -43.5 72s-73.333 26.166 -133 38.499s-105.5 28.833 -137.5 49.5s-48 54.667 -48 102c0 54.667 18.333 96.334 55 125.001
s89.667 43 159 43c38 0 72.167 -6.83301 102.5 -20.5s54.333 -33.5 72 -59.5s28.167 -58.667 31.5 -98h-68c-8 42.667 -22.833 72.334 -44.5 89.001s-56.834 25 -105.501 25c-41.333 0 -73.333 -8.33301 -96 -25s-34 -39.667 -34 -69c0 -33.333 12.5 -55.5 37.5 -66.5
s69.333 -24 133 -39s111.167 -33.167 142.5 -54.5s47 -56 47 -104c0 -55.333 -20 -99.166 -60 -131.499s-93.333 -48.5 -160 -48.5c-66 0 -120.5 16.667 -163.5 50s-64.5 82 -64.5 146h70z" />
    <glyph glyph-name="florin" unicode="&#x192;" horiz-adv-x="672" 
d="M432 620l116.003 -0.000976562l-8 -52h-118l-82 -480c-10 -60.667 -17.5 -100 -22.5 -118s-14.167 -36.667 -27.5 -56c-44 -61.333 -107.333 -92 -190 -92c-23.333 0 -40 3.33301 -50 10l12 68c9.33301 -2.66699 20.666 -4 33.999 -4c41.333 0 73.666 8.33301 96.999 25
s39.833 38.5 49.5 65.5s18.167 64.167 25.5 111.5l84 470h-116l12 52h114c30.667 172 100 258 208 258h14c0 -1.33301 2.66699 -2 8 -2l-12 -78c-3.33301 0.666992 -6.33301 1.16699 -9 1.5s-6.33398 0.5 -11.001 0.5c-27.333 0 -49.833 -9.16699 -67.5 -27.5
s-30.167 -38.666 -37.5 -60.999s-15 -52.833 -23 -91.5z" />
    <glyph glyph-name="dagger" unicode="&#x2020;" horiz-adv-x="772" 
d="M350 -138v590h-254v64h254v278h70v-278h254v-64h-254v-590h-70z" />
    <glyph glyph-name="currency" unicode="&#x2219;" horiz-adv-x="288" 
d="M88 248v98h84v-98h-84z" />
    <glyph glyph-name="glyph1" horiz-adv-x="0" 
 />
    <glyph glyph-name="cent" 
d="M494 306l71.999 0.000976562c-13.333 -57.333 -37.166 -105 -71.499 -143s-78.5 -60.333 -132.5 -67v-108h-56v108c-72.667 6.66699 -129.167 35.667 -169.5 87s-60.5 120.333 -60.5 207s19.667 155.834 59 207.501s96.333 83.834 171 96.501v106h56v-106
c59.333 -4.66699 105.666 -22.834 138.999 -54.501s55 -78.834 65 -141.501h-72c-4 43.333 -16.167 75.333 -36.5 96s-52.166 33.334 -95.499 38.001v-472c40.667 7.33301 71.667 22.666 93 45.999s34.333 56.666 39 99.999zM305.999 160.001l-0.00195312 470
c-51.333 -9.33301 -91.166 -34.333 -119.499 -75s-42.5 -95 -42.5 -163c0 -66.667 14.333 -120 43 -160s68.334 -64 119.001 -72z" />
    <glyph glyph-name="sterling" horiz-adv-x="684" 
d="M592 38c-46 -36 -93.999 -54 -143.999 -54c-22 0 -45.833 3.83301 -71.5 11.5l-77 23c-25.667 7.66699 -49.5 11.5 -71.5 11.5c-45.333 0 -92 -15.333 -140 -46l-36 54c41.333 25.333 73.333 55 96 89s34 69 34 105c0 44 -10.667 87.333 -32 130h-98v46h78l-21.5 61
c-6.33301 18 -11.333 35.333 -15 52s-5.5 33 -5.5 49c0 65.333 23.667 120 71 164s105.666 66 174.999 66c54 0 98.333 -9.83301 133 -29.5s61.167 -47.667 79.5 -84s30.166 -79.833 35.499 -130.5h-78c-1.33301 57.333 -16.166 101 -44.499 131s-68.833 45 -121.5 45
c-51.333 0 -92.833 -15 -124.5 -45s-47.5 -69 -47.5 -117c0 -40.667 15.333 -94.667 46 -162h206v-46h-188c14.667 -44 22 -78.667 22 -104c0 -32 -5.83301 -61 -17.5 -87s-32.5 -57.667 -62.5 -95c34 9.33301 62 14 84 14c22.667 0 55 -6 97 -18s73.667 -18 95 -18
c36 0 71.333 14.667 106 44z" />
    <glyph glyph-name="acute" horiz-adv-x="1232" 
d="M40 594c0 66 12.167 116.167 36.5 150.5s59.5 51.5 105.5 51.5c48 0 83.667 -17 107 -51s35 -84.333 35 -151c0 -64.667 -11.833 -114.5 -35.5 -149.5s-59.167 -52.5 -106.5 -52.5c-45.333 0 -80.333 17.667 -105 53s-37 85 -37 149zM98 594
c0 -49.333 7.16797 -87 21.501 -113s35.166 -39 62.499 -39c56 0 84 50.667 84 152c0 102.667 -28 154 -84 154s-84 -51.333 -84 -154zM118.001 0l506 794h70l-506 -794h-70zM490.001 200c0 65.333 11.667 115.332 35 149.999s58.333 52 105 52
c46 0 81.167 -17.167 105.5 -51.5s36.5 -84.5 36.5 -150.5c0 -67.333 -12.167 -118.166 -36.5 -152.499s-59.5 -51.5 -105.5 -51.5c-93.333 0 -140 68 -140 204zM546.001 199.999c0 -102.667 27.999 -154 83.999 -154c26.667 0 47.334 13 62.001 39s22 64.333 22 115
c0 101.333 -28 152 -84 152s-84 -50.667 -84 -152zM852 199.999c0 65.333 12.333 115.332 37 149.999s60.334 52 107.001 52c45.333 0 80 -17.333 104 -52s36 -84.667 36 -150c0 -136 -46.667 -204 -140 -204c-46.667 0 -82.334 17.333 -107.001 52s-37 85.334 -37 152.001z
M910 199.998c0 -102.667 28.667 -154 86 -154c27.333 0 47.833 13.167 61.5 39.5s20.5 64.5 20.5 114.5c0 101.333 -27.333 152 -82 152c-57.333 0 -86 -50.667 -86 -152z" />
    <glyph glyph-name="notequal" horiz-adv-x="672" 
d="M30 506h256l110 288h70l-114 -288h214v-42h-232l-46 -124h278v-44h-296l-166 -434h-66l166 434h-174v44h190l50 124h-240v42z" />
    <glyph glyph-name="AE" horiz-adv-x="648" 
d="M96 0v794h456v-70h-376v-724h-80zM270 856l96 146h94l-134 -146h-56z" />
    <glyph glyph-name="Oslash" horiz-adv-x="610" 
d="M432 180l71.999 -0.000976562c0 -64.667 -21.333 -113.5 -64 -146.5s-97.334 -49.5 -164.001 -49.5c-68.667 0 -123.167 14.5 -163.5 43.5s-60.5 70.5 -60.5 124.5c0 48 15.833 83.167 47.5 105.5s79.334 41.5 143.001 57.5s108.5 30.167 134.5 42.5s39 35.166 39 68.499
c0 30.667 -11.333 55.334 -34 74.001s-54 28 -94 28c-46 0 -82 -10.667 -108 -32s-40.667 -50.666 -44 -87.999h-70c4.66699 56.667 27 100.5 67 131.5s89.667 46.5 149 46.5c68.667 0 119.834 -13.667 153.501 -41s50.5 -69 50.5 -125c0 -47.333 -15.333 -81.5 -46 -102.5
s-77 -39.333 -139 -55s-106.667 -30.167 -134 -43.5s-41 -37 -41 -71c0 -32.667 13.667 -58.5 41 -77.5s63 -28.5 107 -28.5c99.333 0 152 46 158 138zM253.999 673.999l96 148h94l-132 -148h-58z" />
    <glyph glyph-name="infinity" horiz-adv-x="784" 
d="M700 362c0 -46 -15.833 -84.834 -47.5 -116.501s-70.5 -47.5 -116.5 -47.5c-29.333 0 -57.166 7.83301 -83.499 23.5s-46.5 37.167 -60.5 64.5c-14 -27.333 -34.167 -48.833 -60.5 -64.5s-54.166 -23.5 -83.499 -23.5s-56.333 7.33301 -81 22s-44.667 34.334 -60 59.001
s-23 51 -23 79c0 48 15.5 88.333 46.5 121s70.167 49 117.5 49c32 0 60.167 -8.16699 84.5 -24.5s43.5 -39.5 57.5 -69.5c13.333 29.333 32.666 52.333 57.999 69s54.666 25 87.999 25c47.333 0 86.5 -15.833 117.5 -47.5s46.5 -71.167 46.5 -118.5zM662 361.999
c0 23.333 -5.66602 44.833 -16.999 64.5s-26.5 35.167 -45.5 46.5s-40.167 17 -63.5 17c-34.667 0 -64.334 -12.667 -89.001 -38s-37 -55.333 -37 -90c0 -22.667 5.5 -43.167 16.5 -61.5s26.167 -33.333 45.5 -45s40 -17.5 62 -17.5c35.333 0 65.5 11.833 90.5 35.5
s37.5 53.167 37.5 88.5zM372.001 361.999c0 34.667 -12 64.667 -36 90s-53.333 38 -88 38c-23.333 0 -44.5 -5.66699 -63.5 -17s-34.167 -26.833 -45.5 -46.5s-17 -41.167 -17 -64.5c0 -34 12.167 -63.167 36.5 -87.5s52.833 -36.5 85.5 -36.5
c35.333 0 65.5 11.833 90.5 35.5s37.5 53.167 37.5 88.5z" />
    <glyph glyph-name="lessequal" horiz-adv-x="672" 
d="M554 670v-76l-432 -194l432 -198v-76l-514 238v68zM40 76h514v-46h-514v46z" />
    <glyph glyph-name="greaterequal" horiz-adv-x="672" 
d="M52 670l514 -238v-68l-514 -238v76l432 198l-432 194v76zM566 76v-46h-514v46h514z" />
    <glyph glyph-name="yen" horiz-adv-x="710" 
d="M286 0v288h-244v58h244l-66 96h-178v60h138l-194 292h88l250 -380l246 380h86l-190 -292h140v-60h-178l-62 -96h240v-58h-240v-288h-80z" />
    <glyph glyph-name="mu" horiz-adv-x="648" 
d="M76 -198l0.000976562 768.001h72v-328c0 -45.333 4.5 -80.333 13.5 -105s25.833 -45.667 50.5 -63c30 -21.333 62 -32 96 -32c49.333 0 90.333 20.5 123 61.5s49 91.833 49 152.5v314h72v-570h-72v116c-18.667 -43.333 -42.334 -75.833 -71.001 -97.5
s-63 -32.5 -103 -32.5c-34 0 -64 7.16699 -90 21.5s-48.667 37.166 -68 68.499v-274h-72z" />
    <glyph glyph-name="partialdiff" 
d="M582 286c0 -62 -10.5 -115.835 -31.5 -161.502s-51.5 -80.5 -91.5 -104.5s-87 -36 -141 -36c-82.667 0 -147.334 27 -194.001 81s-70 127.667 -70 221c0 59.333 11.167 111.833 33.5 157.5s53.5 80.834 93.5 105.501s85.667 37 137 37c77.333 0 140 -28 188 -84
c0 34.667 -8.33301 70.334 -25 107.001s-39.334 66.667 -68.001 90s-61 35 -97 35c-34.667 0 -62.167 -5.66699 -82.5 -17s-42.166 -29.666 -65.499 -54.999l-32 56c47.333 52 106 78 176 78c76.667 0 140.834 -35.833 192.501 -107.5s77.5 -205.834 77.5 -402.501z
M126 287.998c0 -78.667 16.332 -138.667 48.999 -180s80.334 -62 143.001 -62c62 0 109.5 20.833 142.5 62.5s49.5 101.5 49.5 179.5c0 48 -8 90 -24 126s-38.5 64 -67.5 84s-62.5 30 -100.5 30s-71.5 -10 -100.5 -30s-51.5 -48 -67.5 -84s-24 -78 -24 -126z" />
    <glyph glyph-name="summation" horiz-adv-x="548" 
d="M14 256l74 0.00195312c0 -40 3.5 -74.833 10.5 -104.5s20.833 -53.667 41.5 -72s51.334 -27.5 92.001 -27.5c50.667 0 86.667 12.833 108 38.5s32 70.167 32 133.5v570h80v-558c0 -80.667 -16.333 -142.834 -49 -186.501s-88.334 -65.5 -167.001 -65.5
c-74 0 -129.833 19.167 -167.5 57.5s-56.5 95.166 -56.5 170.499c0 17.333 0.666992 32 2 44z" />
    <glyph glyph-name="product" horiz-adv-x="834" 
d="M432 388h-298c0.666992 -66.667 12 -125.5 34 -176.5s53.333 -90.333 94 -118s87.334 -41.5 140.001 -41.5c45.333 0 86.5 9.33301 123.5 28s67.167 45.5 90.5 80.5s38 75.5 44 121.5h76c-14 -94.667 -50 -168 -108 -220s-133.333 -78 -226 -78
c-108 0 -193.667 37.667 -257 113s-95 177 -95 305c0 82.667 14.667 154.5 44 215.5s71 108 125 141s117.667 49.5 191 49.5c170 0 274.667 -80 314 -240h-78c-36 116 -115.333 174 -238 174c-51.333 0 -96.5 -11.833 -135.5 -35.5s-70.333 -57.5 -94 -101.5
s-37.834 -95 -42.501 -153h296v-64z" />
    <glyph glyph-name="pi" horiz-adv-x="610" 
d="M116 328h202v-70h-202c0 -60.667 17 -111.167 51 -151.5s77 -60.5 129 -60.5c47.333 0 85.833 13.333 115.5 40s47.167 64 52.5 112h70c-8 -71.333 -33.5 -124.833 -76.5 -160.5s-98.167 -53.5 -165.5 -53.5c-74.667 0 -135 27.333 -181 82s-69 126 -69 214
c0 94 22.167 167.833 66.5 221.5s105.5 80.5 183.5 80.5c38.667 0 74.667 -7.5 108 -22.5s62 -36.833 86 -65.5s40 -62.667 48 -102h-70c-6 28.667 -17 52.5 -33 71.5s-36 33.5 -60 43.5s-50.333 15 -79 15c-52.667 0 -95.167 -18.167 -127.5 -54.5
s-48.5 -82.833 -48.5 -139.5z" />
    <glyph glyph-name="ordmasculine" horiz-adv-x="460" 
d="M258 790h80v-390h-80v390zM258 182h80v-382h-80v382z" />
    <glyph glyph-name="questiondown" horiz-adv-x="276" 
d="M92 570h71.999v-606c0 -44 -3.83301 -77.667 -11.5 -101s-20.667 -40 -39 -50s-44.166 -15 -77.499 -15c-8 0 -16 0.666992 -24 2v62c8 -1.33301 16 -2 24 -2c21.333 0 36 7.5 44 22.5s12 42.833 12 83.5v604zM91.999 694v96h72v-96h-72z" />
    <glyph glyph-name="exclamdown" horiz-adv-x="748" 
d="M48 264l77.999 0.000976562c8 -141.333 80.667 -212 218 -212c67.333 0 120.166 14.5 158.499 43.5s57.5 68.5 57.5 118.5c0 55.333 -19.5 92.666 -58.5 111.999s-99.833 37 -182.5 53s-145.167 37.833 -187.5 65.5s-63.5 76.167 -63.5 145.5
c0 68.667 24.333 122.167 73 160.5s116.334 57.5 203.001 57.5c171.333 0 264 -78 278 -234h-78c-2 58 -20.833 100.5 -56.5 127.5s-83.5 40.5 -143.5 40.5c-63.333 0 -111.833 -13.833 -145.5 -41.5s-50.5 -65.834 -50.5 -114.501c0 -52 24 -87.333 72 -106
c20.667 -7.33301 61.834 -17.333 123.501 -30s112.5 -25.667 152.5 -39s73.333 -35.166 100 -65.499s40 -70.833 40 -121.5c0 -78 -29.167 -137.5 -87.5 -178.5s-127.166 -61.5 -206.499 -61.5c-61.333 0 -115.833 13.167 -163.5 39.5s-81.834 61.833 -102.501 106.5
c-10 20 -17 39.667 -21 59s-6.33301 44.333 -7 75z" />
    <glyph glyph-name="radical" horiz-adv-x="684" 
d="M320 0l-180 486l-80 -38l-20 58l148 64l170 -480l188 704h74l-228 -794h-72z" />
    <glyph glyph-name="approxequal" horiz-adv-x="672" 
d="M58 144l-44 34c40 85.333 92.667 128 158 128c32 0 75 -15 129 -45s95.667 -45 125 -45c21.333 0 40.833 6.83301 58.5 20.5s36.167 37.5 55.5 71.5l42 -32c-18.667 -42 -42 -73.833 -70 -95.5s-58.667 -32.5 -92 -32.5c-18.667 0 -37.5 3.66699 -56.5 11
s-41.833 18.333 -68.5 33s-49 25.667 -67 33s-38 11 -60 11c-42 0 -78.667 -30.667 -110 -92zM58 316l-44.001 34c40.667 85.333 93.334 128 158.001 128c32 0 75 -15 129 -45s95.667 -45 125 -45c21.333 0 40.833 6.83301 58.5 20.5s36.167 37.5 55.5 71.5l42 -34
c-39.333 -85.333 -93.333 -128 -162 -128c-18.667 0 -37.5 3.66699 -56.5 11s-41.833 18.333 -68.5 33s-49 25.667 -67 33s-38 11 -60 11c-41.333 0 -78 -30 -110 -90z" />
    <glyph glyph-name="Delta" horiz-adv-x="734" 
d="M128 0l-60 134l260 660h82l258 -666l-46 -128h-494zM126 62h492l-250 656z" />
    <glyph glyph-name="nonbreakingspace" horiz-adv-x="250" 
d="M88 0v570h72v-570h-72z" />
    <glyph glyph-name="OE" horiz-adv-x="622" 
d="M88 0v572h72v-268l282 268h100l-234 -210l248 -362h-88l-206 316l-102 -92v-224h-72zM254 674l96 148h94l-132 -148h-58z" />
    <glyph glyph-name="fraction" horiz-adv-x="748" 
d="M350 468h-254v62h254v264h70v-264h254v-62h-254v-144h254v-66h-254v-396h-70v396h-254v66h254v144z" />
  </font>
</defs>
</svg>
