<svg id="Слой_1" data-name="Слой 1" xmlns="http://www.w3.org/2000/svg" xmlns:xlink="http://www.w3.org/1999/xlink" viewBox="0 0 123.41 106.87"><defs><style>.cls-1{fill:none;}.cls-2{fill:#a5a7aa;}.cls-3{fill:#171717;}.cls-4{fill-opacity:0.2;stroke:#5a9485;stroke-miterlimit:10;stroke-width:1.5px;fill:url(#Новый_образец_узора_8);}</style><pattern id="Новый_образец_узора_8" data-name="Новый образец узора 8" width="22.84" height="13.19" patternTransform="translate(-3.54 11.16)" patternUnits="userSpaceOnUse" viewBox="0 0 22.84 13.19"><rect class="cls-1" width="22.84" height="13.19"/><path class="cls-2" d="M22.84,0h0l-1.9,3.3,1.9,3.3-1.9,3.3,1.9,3.3H22.4l-1.79-3.1H17l-1.79,3.1H11l-1.79-3.1H5.6l-1.79,3.1H0V13H3.48L5.27,9.89,3.48,6.79H0V6.41H3.48L5.27,3.3,3.48,0.19H0V0H3.81L5.6,3.11H9.19L11,0h4.25L17,3.11h3.59L22.4,0h0.44ZM9.52,3.3l1.79,3.11H14.9L16.69,3.3,14.9,0.19H11.31ZM9.19,9.7L11,6.6,9.19,3.49H5.6L3.81,6.6,5.6,9.7H9.19Zm7.5,0.19L14.9,6.79H11.31L9.52,9.89,11.31,13H14.9Zm3.92-6.4H17L15.23,6.6,17,9.7h3.59L22.4,6.6Z"/></pattern></defs><title>6-angle</title><polygon class="cls-3" points="31.29 106.12 0.87 53.44 31.29 0.75 92.12 0.75 122.54 53.44 92.12 106.12 31.29 106.12"/><polygon class="cls-4" points="31.29 106.12 0.87 53.44 31.29 0.75 92.12 0.75 122.54 53.44 92.12 106.12 31.29 106.12"/></svg>