<?xml version="1.0" encoding="utf-8"?>
<!-- Generator: Adobe Illustrator 19.2.1, SVG Export Plug-In . SVG Version: 6.00 Build 0)  -->
<svg version="1.1" id="Page_9" xmlns="http://www.w3.org/2000/svg" xmlns:xlink="http://www.w3.org/1999/xlink" x="0px" y="0px"
	 viewBox="0 0 119.3 36.5" style="enable-background:new 0 0 119.3 36.5;" xml:space="preserve">
<style type="text/css">
	.st0{fill:#CBCBCB;}
	.st1{fill:#EBBB30;}
	.st2{fill:#27a392;}
</style>
<g>
	<g id="XMLID_833_">
		<path id="XMLID_878_" class="st0" d="M66.4,32.7V33h-1.6v1h1.1v0.3h-1.1v1.1h1.7v0.3h-2.1v-2.9H66.4z"/>
		<path id="XMLID_876_" class="st0" d="M67.2,35.6v-2.9h0.4v2.6h1.6v0.3H67.2z"/>
		<path id="XMLID_874_" class="st0" d="M71.7,32.7V33h-1.6v1h1.1v0.3h-1.1v1.1h1.7v0.3h-2.1v-2.9H71.7z"/>
		<path id="XMLID_872_" class="st0" d="M72.1,32.7h0.4l0.8,2.4h0l0.8-2.4h0.4l-1,2.9h-0.3L72.1,32.7z"/>
		<path id="XMLID_869_" class="st0" d="M74.3,35.6l1-2.9h0.5l1,2.9h-0.4l-0.3-0.9H75l-0.3,0.9H74.3z M75.1,34.4h1l-0.5-1.5h0
			L75.1,34.4z"/>
		<path id="XMLID_867_" class="st0" d="M78,33v2.6h-0.4V33h-1v-0.3H79V33H78z"/>
		<path id="XMLID_865_" class="st0" d="M80,32.7v2.9h-0.4v-2.9H80z"/>
		<path id="XMLID_863_" class="st0" d="M81.1,35.6v-2.9h0.5l1.4,2.2h0v-2.2h0.3v2.9h-0.3L81.4,33h0v2.6H81.1z"/>
		<path id="XMLID_861_" class="st0" d="M86.5,34.2v1.4h-0.3v-0.3h0c-0.1,0.1-0.2,0.2-0.4,0.2c-0.2,0.1-0.3,0.1-0.5,0.1
			c-0.2,0-0.4,0-0.5-0.1c-0.2-0.1-0.3-0.2-0.4-0.3c-0.1-0.1-0.2-0.3-0.3-0.5c-0.1-0.2-0.1-0.4-0.1-0.7c0-0.3,0-0.5,0.1-0.7
			c0.1-0.2,0.2-0.3,0.3-0.5c0.1-0.1,0.2-0.2,0.4-0.3c0.2-0.1,0.3-0.1,0.5-0.1c0.1,0,0.3,0,0.4,0c0.1,0,0.2,0.1,0.3,0.1
			c0.1,0.1,0.2,0.2,0.3,0.3c0.1,0.1,0.1,0.2,0.2,0.4l-0.3,0.1c-0.1-0.2-0.2-0.4-0.3-0.5c-0.1-0.1-0.3-0.1-0.5-0.1
			c-0.1,0-0.2,0-0.3,0.1c-0.1,0-0.2,0.1-0.3,0.2c-0.1,0.1-0.2,0.2-0.2,0.4c-0.1,0.2-0.1,0.4-0.1,0.6c0,0.2,0,0.4,0.1,0.6
			c0.1,0.2,0.1,0.3,0.2,0.4c0.1,0.1,0.2,0.2,0.3,0.2c0.1,0,0.2,0.1,0.3,0.1c0.1,0,0.2,0,0.3-0.1c0.1,0,0.2-0.1,0.2-0.1
			c0.1-0.1,0.1-0.1,0.1-0.2c0-0.1,0-0.2,0-0.3v-0.2h-0.7v-0.3H86.5z"/>
		<path id="XMLID_859_" class="st0" d="M90.7,32.7V33h-1.6v1h1.1v0.3h-1.1v1.1h1.7v0.3h-2.1v-2.9H90.7z"/>
		<path id="XMLID_857_" class="st0" d="M91.5,35.6h-0.4l1-1.5l-0.9-1.4h0.4l0.7,1.1l0.7-1.1h0.4l-0.9,1.4l1,1.5h-0.4l-0.8-1.2
			L91.5,35.6z"/>
		<path id="XMLID_854_" class="st0" d="M94,35.6v-2.9h1.1c0.2,0,0.3,0,0.5,0.1c0.1,0,0.2,0.1,0.3,0.2c0.1,0.1,0.1,0.2,0.2,0.3
			c0,0.1,0.1,0.2,0.1,0.3c0,0.2-0.1,0.4-0.3,0.6c-0.2,0.1-0.5,0.2-0.9,0.2h-0.6v1.3H94z M94.4,34H95c0.2,0,0.3,0,0.4,0
			c0.1,0,0.2-0.1,0.2-0.1c0.1,0,0.1-0.1,0.1-0.2c0-0.1,0-0.1,0-0.2c0-0.2-0.1-0.3-0.2-0.4C95.5,33,95.3,33,95.1,33h-0.7V34z"/>
		<path id="XMLID_852_" class="st0" d="M98.8,32.7V33h-1.6v1h1.1v0.3h-1.1v1.1h1.7v0.3h-2.1v-2.9H98.8z"/>
		<path id="XMLID_850_" class="st0" d="M101.7,34.7c0,0.1-0.1,0.3-0.1,0.4c-0.1,0.1-0.1,0.2-0.2,0.3c-0.1,0.1-0.2,0.1-0.3,0.2
			c-0.1,0-0.3,0.1-0.4,0.1c-0.2,0-0.4,0-0.5-0.1c-0.2-0.1-0.3-0.2-0.4-0.3c-0.1-0.1-0.2-0.3-0.3-0.5c-0.1-0.2-0.1-0.4-0.1-0.7
			c0-0.2,0-0.4,0.1-0.6s0.1-0.3,0.2-0.5c0.1-0.1,0.2-0.2,0.4-0.3c0.2-0.1,0.3-0.1,0.5-0.1c0.3,0,0.5,0.1,0.7,0.2
			c0.2,0.1,0.3,0.4,0.4,0.6l-0.3,0.1c0-0.1-0.1-0.2-0.1-0.3c0-0.1-0.1-0.2-0.2-0.2c-0.1-0.1-0.1-0.1-0.2-0.1c-0.1,0-0.2,0-0.3,0
			c-0.1,0-0.2,0-0.3,0.1c-0.1,0-0.2,0.1-0.3,0.2c-0.1,0.1-0.1,0.2-0.2,0.4c0,0.2-0.1,0.3-0.1,0.5c0,0.2,0,0.4,0.1,0.5
			c0,0.2,0.1,0.3,0.2,0.4c0.1,0.1,0.2,0.2,0.3,0.2c0.1,0,0.2,0.1,0.4,0.1c0.1,0,0.2,0,0.3-0.1c0.1,0,0.2-0.1,0.2-0.2
			c0.1-0.1,0.1-0.1,0.2-0.2c0-0.1,0.1-0.2,0.1-0.3L101.7,34.7z"/>
		<path id="XMLID_848_" class="st0" d="M103.3,33v2.6H103V33h-1v-0.3h2.3V33H103.3z"/>
		<path id="XMLID_845_" class="st0" d="M104.2,35.6l1-2.9h0.5l1,2.9h-0.4l-0.3-0.9h-1.2l-0.3,0.9H104.2z M105,34.4h1l-0.5-1.5h0
			L105,34.4z"/>
		<path id="XMLID_843_" class="st0" d="M107.9,33v2.6h-0.4V33h-1v-0.3h2.3V33H107.9z"/>
		<path id="XMLID_841_" class="st0" d="M109.9,32.7v2.9h-0.4v-2.9H109.9z"/>
		<path id="XMLID_838_" class="st0" d="M110.7,34.2c0-0.5,0.1-0.9,0.3-1.1c0.2-0.3,0.5-0.4,0.9-0.4c0.4,0,0.7,0.1,0.9,0.4
			c0.2,0.3,0.3,0.6,0.3,1.1c0,0.5-0.1,0.9-0.3,1.1c-0.2,0.3-0.5,0.4-0.9,0.4c-0.4,0-0.7-0.1-0.9-0.4C110.8,35,110.7,34.7,110.7,34.2
			z M111,34.2c0,0.4,0.1,0.7,0.2,0.9s0.4,0.3,0.7,0.3s0.5-0.1,0.7-0.3c0.2-0.2,0.2-0.5,0.2-0.9c0-0.4-0.1-0.7-0.2-0.9
			c-0.2-0.2-0.4-0.3-0.7-0.3s-0.5,0.1-0.7,0.3C111.1,33.4,111,33.7,111,34.2z"/>
		<path id="XMLID_836_" class="st0" d="M114,35.6v-2.9h0.5l1.4,2.2h0v-2.2h0.3v2.9H116l-1.7-2.6h0v2.6H114z"/>
		<path id="XMLID_834_" class="st0" d="M118.8,33.4c0-0.1-0.1-0.1-0.1-0.2c0-0.1-0.1-0.1-0.2-0.2c-0.1,0-0.1-0.1-0.2-0.1
			c-0.1,0-0.2,0-0.3,0c-0.2,0-0.3,0-0.4,0.1c-0.1,0.1-0.2,0.2-0.2,0.3c0,0.1,0,0.1,0.1,0.2c0.1,0.1,0.1,0.1,0.2,0.2
			c0.1,0,0.2,0.1,0.3,0.1c0.1,0,0.2,0.1,0.3,0.1c0.1,0,0.2,0.1,0.3,0.1c0.1,0,0.2,0.1,0.3,0.2s0.2,0.1,0.2,0.2
			c0.1,0.1,0.1,0.2,0.1,0.3c0,0.1,0,0.2-0.1,0.3c0,0.1-0.1,0.2-0.2,0.3c-0.1,0.1-0.2,0.1-0.3,0.2c-0.1,0-0.3,0.1-0.5,0.1
			c-0.2,0-0.3,0-0.5-0.1c-0.1,0-0.2-0.1-0.3-0.2c-0.1-0.1-0.2-0.2-0.2-0.2c-0.1-0.1-0.1-0.2-0.2-0.3l0.3-0.1c0,0.1,0.1,0.2,0.1,0.2
			c0,0.1,0.1,0.1,0.2,0.2c0.1,0.1,0.1,0.1,0.2,0.1c0.1,0,0.2,0,0.3,0c0.2,0,0.4,0,0.5-0.1c0.1-0.1,0.2-0.2,0.2-0.4
			c0-0.1,0-0.2-0.1-0.3c-0.1-0.1-0.2-0.1-0.3-0.2c-0.1-0.1-0.3-0.1-0.4-0.2s-0.3-0.1-0.4-0.2c-0.1-0.1-0.2-0.1-0.3-0.2
			c-0.1-0.1-0.1-0.2-0.1-0.4c0-0.1,0-0.2,0.1-0.3c0-0.1,0.1-0.2,0.2-0.2c0.1-0.1,0.2-0.1,0.3-0.2c0.1,0,0.3-0.1,0.4-0.1
			c0.3,0,0.5,0.1,0.7,0.2c0.2,0.1,0.3,0.3,0.4,0.5L118.8,33.4z"/>
	</g>
	<path id="XMLID_818_" class="st1" d="M5.3,0L3.8,1.4l3.9,3.9C6.9,6.1,6.1,6.9,5.4,7.8l-4-4L0,5.3L4,19c0.1-3.4,1.3-6.6,3.4-9.2l0,0
		c0.7-0.9,1.5-1.7,2.4-2.4l0,0c2.2-1.7,4.7-2.9,7.5-3.3l0.9-0.1L5.3,0z"/>
	<g>
		<g id="XMLID_819_">
			<path id="XMLID_831_" class="st2" d="M54.6,24.1c0,1.8-0.7,3.3-2.1,4.6c-1.4,1.3-3,1.9-4.8,1.9c-1.9,0-3.5-0.6-4.8-1.7
				c-0.9-0.8-1.7-1.6-2.4-2.3l2.3-2.3c1.4,1.7,3.1,2.6,5,2.9c0.9,0,1.7-0.3,2.3-0.9c0.6-0.6,0.9-1.4,0.9-2.3c0-1.1-0.8-2-2.4-2.8
				c-1.5-0.7-2.9-1.4-4.4-2c-1.6-1-2.4-2.5-2.4-4.3c0-1.6,0.7-2.9,2.1-4c1.3-0.9,2.7-1.4,4.4-1.4c2.5,0,4.3,0.7,5.6,2.2l-2.1,2.4
				c-1.1-0.9-2.3-1.3-3.6-1.3c-0.7,0-1.3,0.2-1.8,0.5c-0.6,0.4-0.9,0.9-0.9,1.6c0,0.8,0.5,1.5,1.4,2c0.1,0.1,0.9,0.4,2.4,0.9
				c1,0.3,1.9,0.8,2.7,1.4c1,0.7,1.7,1.5,2,2.2c0.1,0.3,0.3,0.7,0.4,1.4C54.6,23.2,54.6,23.7,54.6,24.1z"/>
			<path id="XMLID_828_" class="st2" d="M68.5,16.6c0.1,1.9-0.1,3.3-0.7,4.1c-0.5,0.9-1.6,1.7-3.1,2.5c-1.5,0.4-3,0.7-4.6,0.7l0,6.2
				h-3.6l0.1-20.2h3.7c1.7-0.2,3.1,0,4.4,0.4c1.6,0.7,2.6,1.5,3.1,2.5C68.3,13.7,68.5,15,68.5,16.6z M65.3,17
				c-0.1-2.3-1.5-3.6-3.9-3.9h-1.2v7.3h1.3C64,20.2,65.3,19,65.3,17z"/>
			<path id="XMLID_827_" class="st2" d="M79.5,9.9l0.1,12.9c0,3-0.7,4.4-2.2,4.4c-0.5,0-1.4,0-2.8,0v3.3h2.5c4.1,0,6.1-2.6,6.1-7.7
				V9.9L79.5,9.9z"/>
			<path id="XMLID_825_" class="st2" d="M94.9,30.1h-9.6V9.9l9.6,0l0.1,3.6h-6.1v4.1h5.7v3.5h-5.7v5.2H95L94.9,30.1z"/>
			<path id="XMLID_822_" class="st2" d="M113.2,19.8c0,3.3-1.1,5.9-3.3,7.7c-2.1,1.7-4.8,2.6-8.2,2.6h-4.9V9.9h4.7
				c3.3,0,6,0.8,8.2,2.4C112,14.1,113.2,16.6,113.2,19.8z M109.6,20c0-4.5-3.1-6.8-9.3-6.8v13.7h1c2.4,0,4.3-0.5,5.8-1.6
				C108.8,24.1,109.6,22.3,109.6,20z"/>
			<path id="XMLID_820_" class="st2" d="M119.1,30.1h-3.6V9.9h3.6V30.1z"/>
		</g>
		<g id="XMLID_808_">
			<g>
				<path id="XMLID_521_" class="st2" d="M19.6,34.4L19.6,34.4c8.2,0,14.9-6.7,14.9-14.9l0,0c0-3.6-1.3-6.9-3.4-9.5v8.9l0,0
					c0,0.2,0,0.4,0,0.6l0,0C31.1,25.9,26,31,19.6,31h0c-6.3,0-11.5-5.1-11.5-11.5v0c0-5.5,4-10.2,9.2-11.2l0,0V4.8
					C10.2,5.9,4.8,12.1,4.8,19.5v0C4.8,27.8,11.4,34.4,19.6,34.4z"/>
				<g id="XMLID_518_">
					<path id="XMLID_520_" class="st2" d="M13.3,19.5c0,1.7,0.7,3.3,1.8,4.5c1.2,1.2,2.8,1.8,4.5,1.8h0c3.5,0,6.3-2.8,6.3-6.2h0
						c0,0,0,0,0,0l0,0V5.9c-1.1-0.5-2.2-0.9-3.4-1.1v14.8h0c0,1.6-1.3,2.9-2.9,2.9h0c-0.8,0-1.5-0.3-2-0.8c-0.5-0.5-0.8-1.3-0.8-2
						H13.3z"/>
					<path id="XMLID_519_" class="st2" d="M31.1,10.1v8.9c0,0.2,0,0.4,0,0.6v0C31.1,25.9,26,31,19.6,31h0c-6.3,0-11.5-5.1-11.5-11.5
						l0,0c0-5.5,4-10.2,9.2-11.2V4.8C10.2,5.9,4.8,12.1,4.8,19.5l0,0c0,8.2,6.7,14.9,14.9,14.9h0c8.2,0,14.9-6.7,14.9-14.9v0
						C34.5,15.9,33.2,12.6,31.1,10.1z"/>
				</g>
			</g>
		</g>
	</g>
	<g id="XMLID_804_">
		<path id="XMLID_807_" class="st0" d="M35.3,18.8c0,0.3,0,0.5,0,0.8v0l0,0c0,8.6-7,15.7-15.7,15.7c-0.7,0-1.5-0.1-2.2-0.2l1.2,1.4
			c4.1,0.1,7.9-1.1,10.9-3.3c0.9-0.7,1.8-1.4,2.5-2.3c2.6-2.8,4.3-6.5,4.5-10.5L35.3,18.8z"/>
		<path id="XMLID_806_" class="st0" d="M25.9,2.7L25,1.5l0,0C24.7,1.2,24.3,1,23.8,1c-0.9,0-1.7,0.8-1.7,1.7c0,0.4,0.2,0.8,0.4,1.1
			l0,0l0,0c1.2,0.2,2.3,0.6,3.4,1.1V2.7z"/>
		<path id="XMLID_805_" class="st0" d="M5.3,0L3.8,1.4l3.9,3.9C6.9,6.1,6.1,6.9,5.4,7.8l-4-4L0,5.3L4,19c0.1-3.4,1.3-6.6,3.4-9.2
			l0,0c0.7-0.9,1.5-1.7,2.4-2.4l0,0c2.2-1.7,4.7-2.9,7.5-3.3l0.9-0.1L5.3,0z"/>
	</g>
</g>
</svg>
