<svg id="Слой_1" data-name="Слой 1" xmlns="http://www.w3.org/2000/svg" viewBox="0 0 154.76 133.06"><defs><style>.cls-1{fill:#1ba492;}.cls-2{fill:#558d7c;}.cls-3{fill:#171717;}.cls-4{fill:#606060;}</style></defs><title>About us ICONS</title><path class="cls-1" d="M103.39,63.76a7.62,7.62,0,0,0-2.08-7.44,7.38,7.38,0,0,0-5.71-2.2,7.48,7.48,0,0,0-4.25,1.5,7.56,7.56,0,0,0-2.68,3.61,7.33,7.33,0,0,0-.19,4.54H88.09c-1.68,0-3.37,0-5.05,0a2,2,0,0,1-1.93-1.94c0-3,0-6.1,0-9.14V52.27c-0.37.21-.72,0.39-1,0.6a7.46,7.46,0,0,1-2.94,1.21,4.57,4.57,0,0,1-2.52-.37,5.1,5.1,0,0,1-3-3.68,4.87,4.87,0,0,1,.26-3,5.09,5.09,0,0,1,3.75-3.13,4.38,4.38,0,0,1,3,.36c0.84,0.42,1.67.88,2.55,1.35V45.24q0-4.64,0-9.27a1.9,1.9,0,0,1,1.83-1.83h26a1.9,1.9,0,0,1,1.81,1.8q0,13,0,25.95a1.92,1.92,0,0,1-1.86,1.87h-5.49Z"/><path class="cls-2" d="M78.54,56.42v0.77c0,1.55,0,3.09,0,4.64a1.94,1.94,0,0,1-1.92,1.94H67.05c0.37,0.64.73,1.23,1.06,1.84a5.27,5.27,0,0,1,.67,3.74A5.13,5.13,0,0,1,67.27,72a5.15,5.15,0,0,1-8.63-2.91,5.35,5.35,0,0,1,.83-3.71c0.31-.52.6-1.06,0.93-1.64H50.74a1.9,1.9,0,0,1-1.82-1.83q0-13,0-26a1.89,1.89,0,0,1,1.81-1.81h26a1.91,1.91,0,0,1,1.8,1.78q0,2.62,0,5.25v0.27c-3.6-.66-6.53.36-8.48,3.49a7.29,7.29,0,0,0,.15,8.31A7.62,7.62,0,0,0,78.54,56.42Z"/><path class="cls-1" d="M78.54,84.52v0.33q0,4.64,0,9.27A1.89,1.89,0,0,1,76.71,96h-26a1.91,1.91,0,0,1-1.78-1.78q0-13,0-26.08a1.86,1.86,0,0,1,1.69-1.76c1.83,0,3.67,0,5.5,0h0.11c-0.67,3.58.37,6.51,3.46,8.46A7.18,7.18,0,0,0,68,74.65c2.89-2,3.89-4.84,3.19-8.31h0.34c1.7,0,3.39,0,5.09,0a2,2,0,0,1,1.9,1.92c0,3.06,0,6.12,0,9.18v0.4l1.57-.92a5.66,5.66,0,0,1,3.5-.9,5.16,5.16,0,0,1,2.67,1.12,5.14,5.14,0,0,1,.79,7.24,5.09,5.09,0,0,1-3,1.82,4.34,4.34,0,0,1-2.82-.26C80.38,85.51,79.49,85,78.54,84.52Z"/><path class="cls-3" d="M114.85,70.7l-0.37.21c-2.43,1.39-4.86,2.78-7.29,4.18a2.54,2.54,0,0,1-2.28.24,2.5,2.5,0,0,1-1.55-1.6,7.18,7.18,0,0,1-.13-2.22,3.79,3.79,0,0,0-.53-2.46,2.41,2.41,0,0,0-1.43-.92,2.53,2.53,0,0,0-2.92,1.5A2.45,2.45,0,0,0,99,72.51c0.67,0.44,1.34.87,2,1.26a2.83,2.83,0,0,1,1.47,1.61,2.52,2.52,0,0,1-1,3c-2.5,1.46-5,2.89-7.54,4.33l-0.33.19,1,1.67a10.36,10.36,0,0,1,13,3.37,9.72,9.72,0,0,1,1.84,6.21,10.33,10.33,0,0,1-4.61,8.31l1,1.67,0.32-.18,20.53-11.76c0.36-.21.36-0.21,0.16-0.57L115,71Z"/><path class="cls-4" d="M93.76,88.28L93.58,88,91,83.49A1.9,1.9,0,0,1,91.69,81l8-4.61,0.34-.2c-0.6-.35-1.17-0.66-1.72-1A5.43,5.43,0,0,1,96,72.69a5.13,5.13,0,0,1,1.49-6.06,5,5,0,0,1,3.81-1.13,5,5,0,0,1,3.48,1.92,5.81,5.81,0,0,1,1.1,3.86c0,0.52,0,1,0,1.62l0.35-.2,8-4.61a1.89,1.89,0,0,1,2.47.66l12.93,22.57a1.92,1.92,0,0,1-.66,2.46l-22.6,12.95a1.91,1.91,0,0,1-2.45-.69l-2.58-4.5-0.17-.3a7.62,7.62,0,0,0,5.44-5.57,7.29,7.29,0,0,0-1-6A7.44,7.44,0,0,0,100,86.14,7.56,7.56,0,0,0,93.76,88.28Zm21.1-17.58-0.37.21c-2.43,1.39-4.86,2.78-7.29,4.18a2.54,2.54,0,0,1-2.28.24,2.5,2.5,0,0,1-1.55-1.6,7.18,7.18,0,0,1-.13-2.22,3.79,3.79,0,0,0-.53-2.46,2.41,2.41,0,0,0-1.43-.92,2.53,2.53,0,0,0-2.92,1.5,2.45,2.45,0,0,0,.69,2.87c0.67,0.44,1.34.87,2,1.26a2.83,2.83,0,0,1,1.47,1.61,2.52,2.52,0,0,1-1,3c-2.5,1.46-5,2.89-7.54,4.33l-0.33.19,1,1.67a10.36,10.36,0,0,1,13,3.37,9.72,9.72,0,0,1,1.84,6.21,10.33,10.33,0,0,1-4.61,8.31l1,1.67,0.32-.18,20.53-11.76c0.36-.21.36-0.21,0.16-0.57L115.05,71Z"/></svg>