<svg id="Слой_1" data-name="Слой 1" xmlns="http://www.w3.org/2000/svg" viewBox="0 0 154.76 133.06"><defs><style>.cls-1{fill:#bababa;}.cls-2{fill:#1ba492;}.cls-3{fill:#558d7c;}.cls-4{fill:#606060;}.cls-5{fill:#7c7c7c;}.cls-6{fill:#1ba492;fill-opacity:0.25;}</style></defs><title>About us ICONS</title><polygon class="cls-1" points="63.41 93.37 63.41 93.37 63.41 93.37 63.41 93.37"/><path class="cls-2" d="M136.42,14.45a2,2,0,0,0-1.73-.82,2.3,2.3,0,0,0-1.7.76L61.39,83c-0.35.33-.38,0.5,0,0.84l4,4c6.22-6.42,69.71-70.24,70.73-71.6A2,2,0,0,0,136.42,14.45Z"/><path class="cls-3" d="M136.67,14.9a2.42,2.42,0,0,0-.26-0.45,2,2,0,0,1-.35,1.72c-1,1.36-64.52,65.18-70.73,71.6l0.48,0.48c0.45,0.47.66,0.47,1.12,0l69.29-70.89A2.12,2.12,0,0,0,136.67,14.9Z"/><path class="cls-4" d="M33.29,119.85l0.86,0.86c0.29,0.29.43,0.24,0.69,0,0.5-.5,1.16-1.38,1.53-1.36a2,2,0,0,1,.51.35L35.14,118Z"/><path class="cls-4" d="M37.91,120.71c0.28,0.3.43,0.23,0.68,0L53,106.21a0.63,0.63,0,0,0-.14-0.77L52,104.57,36.87,119.68A14.16,14.16,0,0,1,37.91,120.71Z"/><path class="cls-4" d="M63.41,93.37l-0.72-.71c0.57-.53,1.1-1,1.65-1.53,0.27-.24.25-0.4,0-0.64l-0.87-.86-2,1.89Z"/><path class="cls-4" d="M62.76,96.33a10.33,10.33,0,0,0,1.54-1.4c0.28-.25.32-0.42,0-0.69s-0.6-.56-0.91-0.87l-1.94,1.85A4,4,0,0,0,62.76,96.33Z"/><path class="cls-4" d="M57.71,99L58,99.31,58.31,99c0.4-.4.78-0.82,1.21-1.19s0.35-.51,0-0.86l-1-1-1.95,1.88Z"/><path class="cls-5" d="M44.38,96.93c-0.42-.42-0.62-0.38-1,0-4.37,4.4-9.82,9.74-14.2,14.13a0.72,0.72,0,0,0,0,.93,10.75,10.75,0,0,1,1.1,1l0.05,0.05c0.33,0.24.36,0.45,0,.74s-0.8.8-1.21,1.19c-0.23.22-.31,0.35,0,0.63l4.21,4.2L35.14,118l1.73,1.68h0L52,104.57C49.46,102,46.91,99.49,44.38,96.93Z"/><path class="cls-5" d="M59.31,85.48c-0.27-.27-0.44-0.3-0.7,0-0.47.53-1,1-1.48,1.57l-0.49-.46c-0.48-.46-0.94-1.26-1.44-1.29a5.4,5.4,0,0,0-1.49,1.28c-0.43.45-.32,0.6,0,1,2.51,2.47,5,5,7.49,7.45l0.23,0.23,1.94-1.85h0l-1.9-1.86,2-1.89Q61.38,87.56,59.31,85.48Z"/><path class="cls-5" d="M53.88,91.37A6,6,0,0,0,52.35,90a10.25,10.25,0,0,0-1.54,1.38c-0.31.28-.3,0.45,0,0.75Q53.7,95,56.57,97.88L58.52,96C57,94.46,55.43,92.91,53.88,91.37Z"/><path class="cls-5" d="M48.89,93.92c-0.22-.22-0.36-0.25-0.59,0-0.53.54-1.1,1.05-1.69,1.61l6.12,6.08,2-1.89Z"/><path class="cls-4" d="M54,102.81c0.21,0.21.36,0.27,0.59,0,0.43-.47.89-0.92,1.36-1.35,0.24-.22.22-0.35,0-0.57l-1.2-1.19-2,1.89Z"/><path class="cls-6" d="M66.37,90.08a2.27,2.27,0,0,1-1.61-.79l-4.42-4.42a1.9,1.9,0,0,1,0-3L132,13.32a3.8,3.8,0,0,1,2.65-1.17h0.11a3.53,3.53,0,0,1,2.89,1.43,3.91,3.91,0,0,1,.41.72,3.6,3.6,0,0,1-.73,4.06L68,89.26a2.28,2.28,0,0,1-1.63.82h0Z"/><polygon class="cls-1" points="99.5 86 99.5 86 99.5 86 99.5 86"/><path class="cls-2" d="M18.66,15.12a2,2,0,0,0-.78,1.75,2.3,2.3,0,0,0,.81,1.68L89.16,88.29c0.34,0.34.51,0.37,0.84,0l3.85-4.06c-6.59-6-72.07-67.81-73.46-68.8A2,2,0,0,0,18.66,15.12Z"/><path class="cls-3" d="M19.1,14.85a2.42,2.42,0,0,0-.44.27,2,2,0,0,1,1.73.3c1.39,1,66.88,62.76,73.46,68.8l0.47-.49c0.45-.46.46-0.68,0-1.12L21.56,15.24A2.12,2.12,0,0,0,19.1,14.85Z"/><path class="cls-4" d="M126.78,115.4l0.83-.88c0.28-.29.23-0.43,0-0.69-0.51-.49-1.41-1.12-1.4-1.49a2,2,0,0,1,.33-0.52l-1.64,1.77Z"/><path class="cls-4" d="M127.51,110.76c0.3-.29.22-0.43,0-0.68L112.61,96a0.63,0.63,0,0,0-.76.16l-0.85.9,15.51,14.73A14.16,14.16,0,0,1,127.51,110.76Z"/><path class="cls-4" d="M99.5,86l-0.69.74c-0.54-.55-1.07-1.07-1.57-1.61-0.24-.26-0.4-0.24-0.64,0L95.75,86,97.69,88Z"/><path class="cls-4" d="M102.47,86.57A10.33,10.33,0,0,0,101,85.06c-0.26-.27-0.43-0.31-0.69,0s-0.54.61-.84,0.93l1.9,1.89A4,4,0,0,0,102.47,86.57Z"/><path class="cls-4" d="M105.29,91.55l0.29-.32-0.29-.29c-0.41-.39-0.84-0.76-1.22-1.18s-0.52-.34-0.86,0l-1,1,1.93,1.9Z"/><path class="cls-5" d="M103.57,104.92c-0.41.43-.36,0.63,0,1,4.52,4.25,10,9.56,14.5,13.82a0.72,0.72,0,0,0,.93,0,10.75,10.75,0,0,1,1-1.13l0.05-.05c0.23-.33.44-0.37,0.74,0s0.82,0.78,1.22,1.18c0.22,0.23.36,0.3,0.63,0l4.09-4.32-1.91-1.8,1.64-1.77h0L111,97.09C108.53,99.71,106.06,102.33,103.57,104.92Z"/><path class="cls-5" d="M91.72,90.3c-0.27.28-.29,0.45,0,0.7,0.55,0.46,1.06.95,1.61,1.44l-0.44.5c-0.45.49-1.24,1-1.25,1.47A5.4,5.4,0,0,0,93,95.87c0.46,0.41.61,0.31,1-.06,2.41-2.57,4.84-5.12,7.25-7.69l0.23-.23L99.5,86h0l-1.81,2L95.75,86Q93.74,88.18,91.72,90.3Z"/><path class="cls-5" d="M97.75,95.58a6,6,0,0,0-1.31,1.56,10.25,10.25,0,0,0,1.42,1.5c0.29,0.31.46,0.29,0.75,0q2.78-3,5.58-5.92l-1.93-1.9C100.76,92.4,99.25,94,97.75,95.58Z"/><path class="cls-5" d="M100.43,100.49c-0.21.22-.24,0.36,0,0.59,0.56,0.52,1.08,1.07,1.66,1.65L108,96.45l-1.94-1.91Q103.25,97.52,100.43,100.49Z"/><path class="cls-4" d="M109.18,95.2c0.21-.22.26-0.36,0-0.59-0.48-.42-0.94-0.86-1.39-1.32-0.23-.23-0.36-0.21-0.57,0l-1.16,1.23L108,96.45Z"/><path class="cls-6" d="M96.13,83.12a2.27,2.27,0,0,1-.75,1.63l-4.3,4.54a1.9,1.9,0,0,1-3,0L17.65,19.6A3.8,3.8,0,0,1,16.4,17s0-.07,0-0.11a3.53,3.53,0,0,1,1.35-2.93,3.91,3.91,0,0,1,.71-0.43,3.6,3.6,0,0,1,4.08.62L95.26,81.51a2.28,2.28,0,0,1,.87,1.61h0Z"/><path class="cls-4" d="M91.51,37.7l-2.63-2.37a11.41,11.41,0,0,0,0-3.15l2.62-2.37a14.58,14.58,0,0,0-1.35-3.25l-3.53.18a11.68,11.68,0,0,0-2.23-2.23L84.57,21a14.57,14.57,0,0,0-3.26-1.35l-2.37,2.63a11.41,11.41,0,0,0-3.15,0l-2.37-2.62A14.57,14.57,0,0,0,70.17,21l0.18,3.53a11.68,11.68,0,0,0-2.23,2.23l-3.53-.18a14.57,14.57,0,0,0-1.35,3.26l2.63,2.37a11.41,11.41,0,0,0,0,3.15l-2.62,2.37A14.57,14.57,0,0,0,64.61,41l3.53-.18A11.68,11.68,0,0,0,70.37,43l-0.18,3.53a14.57,14.57,0,0,0,3.26,1.35l2.37-2.63a11.41,11.41,0,0,0,3.15,0l2.37,2.62a14.57,14.57,0,0,0,3.25-1.35L84.41,43a11.68,11.68,0,0,0,2.23-2.23L90.16,41A14.57,14.57,0,0,0,91.51,37.7Z"/><circle class="cls-2" cx="77.38" cy="33.77" r="7.17"/></svg>