<svg id="Слой_1" data-name="Слой 1" xmlns="http://www.w3.org/2000/svg" viewBox="0 0 154.76 133.06"><defs><style>.cls-1{fill:#a38983;}.cls-2{fill:#1ba492;}.cls-3{fill:#3e6a5c;}.cls-4{fill:#558d7c;}.cls-5{fill:#8a9e5d;}.cls-6{fill:#acc274;}.cls-7{fill:#fefefe;}.cls-8{fill:#a1b868;}.cls-9{fill:#d5e9f3;}.cls-10{fill:#3c4044;}</style></defs><title>About us ICONS</title><path class="cls-1" d="M96.69,102.86l-0.25-.33Z"/><path class="cls-2" d="M153.65,43.91h0a1.15,1.15,0,0,0-.48-1.29L153,42.49a7,7,0,0,0-.83-0.56,7.49,7.49,0,0,0-2.09-.83,14.87,14.87,0,0,0-4.67-.22,25.66,25.66,0,0,0-4.77.9c-1.58.45-3.11,1-4.64,1.6a33,33,0,0,1-4.76,1.37,34.17,34.17,0,0,1-4.83.65,37.49,37.49,0,0,1-4.93,0,50.91,50.91,0,0,0-5.11-.18c-6.93.22-9.91,1.62-10.8,1.89A24.38,24.38,0,0,0,100,38.93c-2.62-2.66-9.43-9.65-23.22-9.4a29.1,29.1,0,0,0-17.32,6.58c-8.68,6.83-10.17,11.21-10.17,11.21s-4.94-2.07-14.23-2.13c-1.69,0-3.37.2-5.06,0.18a35.14,35.14,0,0,1-5-.4,30.41,30.41,0,0,1-4.9-1.22c-1.58-.52-3.13-1.12-4.72-1.61A33.59,33.59,0,0,0,10.47,41a15.25,15.25,0,0,0-5,0,14.19,14.19,0,0,0-2.1.55,9.62,9.62,0,0,0-1.66.95A1.71,1.71,0,0,0,1,44a10.45,10.45,0,0,0,2.18.54,19.81,19.81,0,0,1,3.69,1c6.72,2.75,6.85,9.45,8.66,13.34,6.37,13.69,18.76,15.68,18.76,15.68a16,16,0,0,0,0,5,20.59,20.59,0,0,0,.83,4.06A16.45,16.45,0,0,0,36.65,87a18.6,18.6,0,0,0,2.28,3,23.67,23.67,0,0,0,2.88,2.6A32.37,32.37,0,0,0,45.48,95a36.92,36.92,0,0,0,3.91,1.93c1.34,0.57,2.71,1.06,4.09,1.5s2.81,0.82,4.23,1.16c0.71,0.17,1.43.34,2.15,0.48s1.56,0.2,2.33.35c0.38,0.07,3.81.26,5.12,0.52a10.55,10.55,0,0,1,1.93.55c5.05,2.08,9.3,2.35,11.88,1.82a27.7,27.7,0,0,0,6.34-2.09,6.74,6.74,0,0,1,1-.42,4.3,4.3,0,0,1,1-.13c0.69,0,12.36-1.46,21-5.47A20.91,20.91,0,0,0,114,93a21.24,21.24,0,0,0,2.9-2.53,16.36,16.36,0,0,0,2.1-2.74,14.75,14.75,0,0,0,1.4-3,15.1,15.1,0,0,0,.69-3.32,46.49,46.49,0,0,0-.44-7.75A27.52,27.52,0,0,0,129.67,70a32.18,32.18,0,0,0,7.15-7.63,47.57,47.57,0,0,0,3.56-6.17q0.78-1.62,1.47-3.28,0.35-.83.67-1.67c0.2-.51.38-1,0.62-1.52a7.89,7.89,0,0,1,1.73-2.33,9.41,9.41,0,0,1,2.45-1.6,17,17,0,0,1,3.57-1.13c0.63-.14,1.27-0.25,1.91-0.37a1.12,1.12,0,0,0,.84-0.38h0Zm-33.26,28.7"/><path class="cls-3" d="M74.64,55.07C73.5,55.16,75.32,58.81,71,62,67.44,64,54.88,60.9,47.4,63.58s-9.05,6.18-9.72,8.05a4.56,4.56,0,0,0,.5,3.65s29.31-.6,31-0.9,3-.43,3.67-2.5A75.79,75.79,0,0,0,75.33,61.2C75.93,57.32,75.65,55.19,74.64,55.07Z"/><path class="cls-4" d="M38.77,71.36a1.9,1.9,0,0,1-1.22.75,4.73,4.73,0,0,0,.63,3.17s29.31-.6,31-0.9,3-.43,3.67-2.5c0.39-1.13.91-3.08,1.4-5.24a33.12,33.12,0,0,1-9.13.94C52.18,67.61,40.91,68.15,38.77,71.36Z"/><path class="cls-3" d="M79.73,55.07c1.14,0.08-.69,3.73,3.64,6.88C86.93,64,99.48,60.9,107,63.58s9.05,6.18,9.72,8.05a4.56,4.56,0,0,1-.5,3.65s-29.31-.6-31-0.9-3-.43-3.67-2.5A75.79,75.79,0,0,1,79,61.2C78.44,57.32,78.72,55.19,79.73,55.07Z"/><path class="cls-4" d="M115.6,71.36a1.9,1.9,0,0,0,1.22.75,4.73,4.73,0,0,1-.63,3.17s-29.31-.6-31-0.9-3-.43-3.67-2.5c-0.39-1.13-.91-3.08-1.4-5.24a33.12,33.12,0,0,0,9.13.94C102.19,67.61,113.46,68.15,115.6,71.36Z"/><path class="cls-3" d="M34.31,74.56a2.21,2.21,0,0,1,.21,1.63c-0.11,5.42,2.2,9.66,6.19,13.2s8.74,5.47,13.73,7.08a53.26,53.26,0,0,0,12.2,2.1c0.31,0,.62,0,1,0-0.14-.83-0.92-1.24-0.94-2.26,7.47,7.26,14.89,7.4,22.38.23,0,0.71-.69,1.22-0.69,2a39.07,39.07,0,0,0,7.31-.79,63.79,63.79,0,0,0,10-2.65c3.89-1.43,7.62-3.23,10.57-6.18s4.94-6.44,4.45-10.88A1.06,1.06,0,0,1,121,77,15.73,15.73,0,0,1,115,92.25c-4.12,3.36-9,5.14-14,6.53-2.3.63-4.63,1.07-7,1.51a4.33,4.33,0,0,0-2,.25c-1.3.36-2.71-.14-3.92,0.42a47.56,47.56,0,0,1-4.77,2,5.4,5.4,0,0,0-.83.1,16.75,16.75,0,0,1-9.11-.06,7,7,0,0,1-2.62-.8,13.11,13.11,0,0,0-7.4-1.42,22.54,22.54,0,0,0-3.63-.7C53.35,98.69,47.25,96.67,42,92.67c-4-3.07-6.87-7-7.57-12.09A18.31,18.31,0,0,1,34.31,74.56Z"/><path class="cls-4" d="M36.72,65.09A0.68,0.68,0,0,1,37,64.36,0.77,0.77,0,0,1,36.72,65.09Z"/><path class="cls-5" d="M52,52.21l-0.26.18c-0.08-.29.17-0.12,0.26-0.18h0Z"/><path class="cls-5" d="M104,53.19l0.32,0.09c-0.18.23-.23,0-0.32-0.09h0Z"/><path class="cls-5" d="M68.76,84.5a0.53,0.53,0,0,1-.25.49A0.5,0.5,0,0,1,68.76,84.5Z"/><path class="cls-3" d="M114.39,59l0.24,0.27Z"/><path class="cls-5" d="M87.45,85.46q0-.12,0-0.24a1.33,1.33,0,0,1,.1.17A0.43,0.43,0,0,1,87.45,85.46Z"/><path class="cls-5" d="M68.51,85l-0.25.24Z"/><path class="cls-4" d="M36.69,65.31a1,1,0,0,1-.06-0.17,0.34,0.34,0,0,1,.1-0.05A1.11,1.11,0,0,1,36.69,65.31Z"/><path class="cls-4" d="M132.34,50.05c-0.29.74-.74,0.55-1.22,0.21Z"/><path class="cls-6" d="M47,63.64l-0.29.21Z"/><path class="cls-3" d="M90.09,73.58c-0.24-.19-0.32-0.36,0-0.48Z"/><path class="cls-7" d="M54.21,69.73c0-.12.06-0.23,0.2-0.1A0.21,0.21,0,0,1,54.21,69.73Z"/><path class="cls-5" d="M101,65.8c0.16-.24.31-0.24,0.47,0H101Z"/><polygon class="cls-8" points="36.97 64.36 36.97 64.36 36.97 64.36 36.97 64.36"/><polygon class="cls-8" points="36.72 65.09 36.72 65.08 36.72 65.08 36.72 65.09"/><polygon class="cls-8" points="68.52 84.98 68.51 84.99 68.51 84.99 68.52 84.98"/><polygon class="cls-8" points="68.76 84.5 68.75 84.5 68.75 84.5 68.76 84.5"/><polygon class="cls-8" points="80.42 75.51 80.41 75.5 80.41 75.5 80.42 75.51"/><path class="cls-8" d="M47.89,49.3h0Z"/><path class="cls-8" d="M25.28,70v0h0v0Z"/><path class="cls-8" d="M43.25,53.2L43,53A0.23,0.23,0,0,0,43.25,53.2Z"/><path class="cls-8" d="M107.3,76.53l0.22,0.35-0.19-.47A0.1,0.1,0,0,0,107.3,76.53Z"/><polygon class="cls-4" points="36.72 65.08 36.72 65.08 36.72 65.09 36.72 65.08"/><polygon class="cls-4" points="36.97 64.36 36.97 64.36 36.96 64.36 36.97 64.36"/><polygon class="cls-4" points="90.14 73.1 90.13 73.1 90.13 73.11 90.14 73.1"/><polygon class="cls-4" points="48.13 74.31 48.12 74.31 48.12 74.31 48.13 74.31"/><path class="cls-4" d="M114.09,81.53a30.79,30.79,0,0,0-4.21.26l-0.12.09,0.09-.11,2.43-1.71c-1.57.09-2.42,1.21-3.62,1.48-1.93,2.08-4.53,3.19-6.81,4.77-0.09.61-1,.58-1,1.29a8.9,8.9,0,0,0,2.25-1.11c3.81-2.11,7.61-4.26,12.07-4.71A1.33,1.33,0,0,0,114.09,81.53Z"/><path class="cls-4" d="M53.6,86.07c-2-1.3-4.2-2.25-5.83-4-1.32-.49-2.41-1.52-3.9-1.63,0.86,0.7,2,1,2.7,1.86l0.31,0.09-0.06.09-0.26-.18a15.54,15.54,0,0,0-5.6-.39l1.24,0.4a27.33,27.33,0,0,1,8.93,3.45,18,18,0,0,0,4.17,2.13C55,87,53.94,86.89,53.6,86.07Z"/><path class="cls-3" d="M77.06,32.57l0,0.18c0,0.12.05,0.29,0.09,0.51,0.07,0.44.16,1.06,0.25,1.81s0.18,1.62.25,2.56c0,0.23,0,.47.05,0.71s0,0.49,0,.73c0,0.49,0,1,.07,1.5s0,1,0,1.5q0,0.37,0,.73c0,0.24,0,.48,0,0.72,0,0.94,0,1.82-.06,2.57s-0.08,1.38-.12,1.82c0,0.22,0,.39-0.05.51l0,0.18,0-.18c0-.12-0.05-0.29-0.09-0.51-0.07-.44-0.17-1.06-0.25-1.81s-0.18-1.62-.25-2.56c0-.23,0-0.47-0.05-0.71s0-.49,0-0.73c0-.49,0-1-0.07-1.5s0-1,0-1.5c0-.25,0-0.49,0-0.73s0-.48,0-0.72c0-.94,0-1.82.06-2.57s0.08-1.38.12-1.82c0-.22,0-0.39.05-0.51Z"/><path class="cls-3" d="M79.41,34.35a2.34,2.34,0,0,1,.29-0.12l0.34-.1,0.45-.09c0.17,0,.35,0,0.54-0.05h0.6l0.32,0,0.32,0,0.33,0.05,0.33,0.08a5.91,5.91,0,0,1,.64.19l0.3,0.12,0.29,0.13a4.8,4.8,0,0,1,.53.29l0.24,0.15,0.21,0.16c0.13,0.11.25,0.2,0.35,0.29l0.25,0.26L85.88,36,85.93,36l-0.08,0L85.62,36l-0.33-.09-0.42-.11-0.23-.07-0.25-.07-0.54-.15-0.57-.15-0.59-.15-0.3-.08L82.09,35l-0.58-.14-1-.25-0.76-.19-0.22-.06Z"/><path class="cls-3" d="M75,34.26l-0.08,0-0.22.06-0.35.08-0.44.09-0.52.09-0.57.09-0.61.09-0.63.09-0.32,0L71,35l-0.31,0-0.3,0-0.29,0-0.28,0-0.52.06-0.45,0-0.35,0-0.23,0H68.16l0.06-.06,0.18-.15,0.29-.21,0.4-.23,0.24-.12,0.26-.11,0.28-.11,0.3-.1A5.61,5.61,0,0,1,70.8,34l0.33-.07,0.33-.05c0.22,0,.45-0.05.67-0.07h0.65l0.61,0,0.54,0.08a5.36,5.36,0,0,1,.8.21A2.81,2.81,0,0,1,75,34.26Z"/><path class="cls-3" d="M74.48,39l-0.62.08-1.61.2L70,39.55l-1.27.16-0.65.09-0.65.09-0.65.1-0.32,0-0.32.05c-0.43.08-.85,0.13-1.25,0.21s-0.8.14-1.17,0.22l-0.54.11-0.26,0-0.25.06-0.89.2-0.68.17-0.45.1-0.16,0,0.14-.09L61,40.94c0.17-.1.38-0.22,0.63-0.35l0.84-.39,0.24-.1L63,40l0.53-.19c0.37-.14.76-0.24,1.17-0.36,0.2-.06.41-0.12,0.63-0.16L66,39.15l0.33-.07L66.62,39l0.67-.11c0.45-.06.9-0.11,1.34-0.16l0.66,0,0.64,0c0.42,0,.83,0,1.22,0s0.75,0,1.09,0l0.92,0.08,0.71,0.1L74.32,39Z"/><path class="cls-3" d="M80.46,39l0.16,0,0.45-.07c0.38-.05.94-0.11,1.6-0.15s1.43,0,2.26,0c0.41,0,.84,0,1.28.07s0.87,0.08,1.31.14,0.88,0.13,1.31.22,0.85,0.18,1.26.29l0.59,0.17,0.56,0.19L91.75,40l0.48,0.21,0.43,0.22L93,40.66a5.6,5.6,0,0,1,.57.42,3.16,3.16,0,0,1,.33.31l0.11,0.12-0.14-.07a4.38,4.38,0,0,0-.4-0.19c-0.17-.08-0.39-0.15-0.64-0.24l-0.4-.13L92,40.75l-0.49-.12L91,40.51l-0.56-.11-0.58-.11-0.61-.1-0.31,0-0.31,0L88,40l-0.64-.09-1.28-.17-1.25-.16-1.17-.15-1-.14-1.58-.23Z"/><path class="cls-3" d="M74.5,45.35l-1,.1-1.15.12-1.48.16-1.75.21-1.94.26-1,.15-1,.16c-0.7.12-1.41,0.24-2.12,0.38l-0.53.1-0.53.11-1,.23-0.51.12-0.51.13-1,.27-1,.28-0.9.29-0.85.3L55.39,49c-0.5.21-1,.4-1.35,0.6s-0.73.38-1,.52l-0.64.37-0.23.13,0.19-.18,0.24-.21A4.29,4.29,0,0,1,52.91,50c0.26-.19.56-0.45,0.94-0.69s0.81-.52,1.29-0.79l0.77-.4,0.84-.39,0.91-.37,1-.35c0.66-.22,1.34-0.43,2-0.61,0.35-.09.71-0.18,1.07-0.26L62.27,46l0.54-.11a40.78,40.78,0,0,1,4.28-.59l1-.07,1-.05c0.63,0,1.23,0,1.78,0s1.05,0,1.5,0,0.84,0,1.15.07l0.74,0.07Z"/><path class="cls-3" d="M80.15,45.14l0.29,0,0.81,0h1.25c0.48,0,1,0,1.62,0,1.19,0,2.58.15,4.06,0.31l1.13,0.14,1.15,0.16c0.77,0.12,1.56.26,2.34,0.41s1.56,0.34,2.32.54l0.57,0.15L96.24,47l1.09,0.34c0.71,0.24,1.39.5,2,.77a18,18,0,0,1,1.74.87,12,12,0,0,1,1.37.91,8.36,8.36,0,0,1,.95.84,6.25,6.25,0,0,1,.52.62l0.16,0.24-0.2-.2-0.25-.23-0.17-.14-0.19-.15a10.91,10.91,0,0,0-1-.68,14.93,14.93,0,0,0-1.42-.71,28.88,28.88,0,0,0-3.77-1.31c-0.7-.2-1.44-0.39-2.19-0.56s-1.52-.34-2.28-0.5-1.54-.3-2.3-0.44l-1.13-.2-1.11-.18c-1.46-.24-2.82-0.44-4-0.61Z"/><path class="cls-9" d="M57.1,86.5A10.38,10.38,0,1,1,67.48,76.12,10.39,10.39,0,0,1,57.1,86.5Z"/><path class="cls-3" d="M57.1,66.29a9.83,9.83,0,1,1-9.83,9.83,9.83,9.83,0,0,1,9.83-9.83m0-1.1A10.93,10.93,0,1,0,68,76.12,10.95,10.95,0,0,0,57.1,65.18h0Z"/><circle class="cls-10" cx="57.1" cy="76.12" r="7"/><circle class="cls-9" cx="59.25" cy="73.27" r="2.51"/><path class="cls-9" d="M98,86.5a10.38,10.38,0,1,1,10.38-10.38A10.39,10.39,0,0,1,98,86.5Z"/><path class="cls-3" d="M98,66.29a9.83,9.83,0,1,1-9.83,9.83A9.83,9.83,0,0,1,98,66.29m0-1.1A10.93,10.93,0,1,0,108.9,76.12,10.95,10.95,0,0,0,98,65.18h0Z"/><circle class="cls-10" cx="98.26" cy="75.52" r="7"/><circle class="cls-9" cx="100.4" cy="72.67" r="2.51"/><path class="cls-4" d="M71.8,84.51l0,0-0.05.12c0,0.1-.11.23-0.19,0.37l-0.12.22-0.07.11-0.07.12c-0.05.08-.09,0.16-0.14,0.23L71,86c0,0.08-.1.15-0.13,0.23l-0.07.11-0.06.11-0.07.11-0.05.11-0.06.11,0,0.11-0.1.2-0.07.17-0.06.12,0,0,0,0-0.08-.1L70,87.07a1.72,1.72,0,0,1-.09-0.24,1.38,1.38,0,0,1,0-.15c0-.05,0-0.1,0-0.16s0-.11,0-0.17,0-.12,0-0.18,0-.12,0-0.18L70,85.81a1.87,1.87,0,0,1,.16-0.35,2.39,2.39,0,0,1,.22-0.3,2.15,2.15,0,0,1,.26-0.25,2,2,0,0,1,.55-0.31,1.62,1.62,0,0,1,.44-0.09H71.8Z"/><path class="cls-4" d="M74.53,85.23v0s0,0.07,0,.12,0,0.11,0,.18,0,0.14,0,.22,0,0.16,0,.25,0,0.18,0,.27,0,0.18,0,.27,0,0.18-.05.27l-0.06.27-0.07.26,0,0.13,0,0.12-0.08.23-0.08.21L74,88.25l-0.05.12,0,0,0,0-0.09-.09-0.12-.15-0.12-.22a1.45,1.45,0,0,1-.1-0.27s0-.1,0-0.15,0-.1,0-0.16,0-.11,0-0.17,0-.11,0-0.17a2.1,2.1,0,0,1,0-.34,2.37,2.37,0,0,1,.09-0.33,2.43,2.43,0,0,1,.14-0.3,2.25,2.25,0,0,1,.17-0.26A1.92,1.92,0,0,1,74,85.57a1.66,1.66,0,0,1,.34-0.26Z"/><path class="cls-4" d="M78.51,86.18l0,0,0.09,0.08a1.52,1.52,0,0,1,.23.32,1.86,1.86,0,0,1,.11.22,2.13,2.13,0,0,1,.08.26,2.23,2.23,0,0,1,.06.56,2.33,2.33,0,0,1,0,.29,2.12,2.12,0,0,1-.06.27,2.62,2.62,0,0,1-.09.25,2.35,2.35,0,0,1-.11.22l-0.12.18L78.63,89l-0.08.08,0,0,0,0L78.43,89a2.47,2.47,0,0,1-.15-0.35c0-.07,0-0.14-0.07-0.22a2.46,2.46,0,0,1-.05-0.24c0-.08,0-0.17,0-0.26s0-.17,0-0.26a3.07,3.07,0,0,1,.17-1,3.2,3.2,0,0,1,.14-0.34Z"/><path class="cls-4" d="M82.46,85h0.05l0.15,0,0.22,0.07a1.89,1.89,0,0,1,.27.13,2.17,2.17,0,0,1,.29.21l0.14,0.13,0.13,0.15a2.45,2.45,0,0,1,.24.35,3.54,3.54,0,0,1,.19.39,3.43,3.43,0,0,1,.12.41,3,3,0,0,1,.06.41c0,0.13,0,.26,0,0.38s0,0.24-.05.34l0,0.15,0,0.13-0.09.21L84,88.62l0,0,0,0-0.07-.13-0.1-.2L83.7,88c0-.09-0.08-0.19-0.11-0.29s-0.08-.2-0.12-0.31-0.09-.21-0.12-0.32-0.09-.21-0.12-0.32l-0.12-.32c0-.1-0.08-0.21-0.12-0.31L82.91,86l-0.06-.14-0.06-.14-0.06-.13-0.11-.24-0.09-.2L82.48,85Z"/><polygon class="cls-3" points="106.12 63.39 106.13 63.4 106.13 63.4 106.12 63.39"/><path class="cls-4" d="M74.26,72.55l0.06,0,0.17-.15a5.61,5.61,0,0,1,.63-0.5,4.48,4.48,0,0,1,1-.52,4.05,4.05,0,0,1,.61-0.17,4.24,4.24,0,0,1,.65-0.08H77.7l0.32,0,0.32,0.05,0.3,0.07,0.29,0.09,0.27,0.11,0.25,0.12,0.22,0.13c0.14,0.09.27,0.17,0.37,0.26l0.27,0.23,0.16,0.16,0.06,0.06-0.07,0-0.21-.06-0.32-.09-0.19-.05-0.21-.06L79.06,72,78.8,72l-0.27,0L78,71.86H77.39a8,8,0,0,0-2.13.4l-0.72.23-0.21.05H74.26Z"/><path class="cls-4" d="M72.69,74.64A4.27,4.27,0,0,1,73,74.35l0.42-.29c0.17-.11.36-0.22,0.57-0.33s0.45-.23.7-0.33a8.22,8.22,0,0,1,.81-0.29L76,73l0.22-.05,0.23,0,0.47-.07,0.47,0a6.86,6.86,0,0,1,.95,0l0.23,0,0.23,0L79.22,73a5.26,5.26,0,0,1,.83.28c0.13,0.05.25,0.12,0.37,0.18l0.17,0.09,0.16,0.1a5.28,5.28,0,0,1,.55.4l0.38,0.36,0.22,0.26L82,74.74l-0.1,0-0.29-.14-0.45-.19c-0.18-.06-0.37-0.14-0.58-0.21L80.4,74.1l-0.17,0L79.87,74c-0.12,0-.25-0.06-0.38-0.07l-0.4-.06-0.41,0-0.21,0H78.26c-0.28,0-.57,0-0.86,0a14.92,14.92,0,0,0-1.71.19l-0.79.15-0.71.15-1.08.26Z"/><path class="cls-4" d="M68.39,85.23S71,77.95,73,77.82s9.4,0,9.4,0,1.83,0.09,5.06,7.52c-0.25.35-1.44-2.9-4.8-5.89-0.85.84-1.7,2-4.78,2s-4.49-1.3-5-2C71.55,80.32,68.81,85.42,68.39,85.23Z"/><path class="cls-10" d="M77.57,75.14c3.07,0,5,.45,5,2.11S81,80.35,77.91,80.4s-5.06-1.6-5-2.56S73.94,75.18,77.57,75.14Z"/><path class="cls-3" d="M78.61,104.53a25.58,25.58,0,0,1-9.68-2.13,9.52,9.52,0,0,0-1.75-.5c-0.8-.16-2.57-0.3-3.74-0.39-0.9-.07-1.21-0.1-1.38-0.13-0.36-.07-0.74-0.12-1.13-0.17s-0.79-.1-1.2-0.18c-0.74-.14-1.47-0.31-2.18-0.48h0c-1.54-.37-2.95-0.75-4.3-1.18s-2.87-1-4.18-1.53a38.07,38.07,0,0,1-4-2,33.46,33.46,0,0,1-3.78-2.51,24.77,24.77,0,0,1-3-2.71,19.65,19.65,0,0,1-2.4-3.14,17.46,17.46,0,0,1-1.68-3.61,21.83,21.83,0,0,1-.87-4.26,19.1,19.1,0,0,1-.1-4.31,26.16,26.16,0,0,1-6.36-2.61A29.51,29.51,0,0,1,14.65,59.28a26.58,26.58,0,0,1-1.2-3.41c-1.08-3.53-2.3-7.54-6.93-9.43a19,19,0,0,0-3.51-1l-0.25,0C0.9,45.07.33,45,.09,44.31c-0.42-1.14.65-2.37,1.16-2.68l0.35-.22a7.35,7.35,0,0,1,1.51-.82A15.2,15.2,0,0,1,5.36,40a16.27,16.27,0,0,1,5.3,0,35,35,0,0,1,5,1.21c1,0.3,1.94.64,2.87,1l1.87,0.65A29.25,29.25,0,0,0,25.16,44a33.89,33.89,0,0,0,4.89.39c0.83,0,1.64,0,2.51-.09s1.69-.1,2.55-0.09a46,46,0,0,1,13.7,1.88c0.89-1.68,3.45-5.54,10.07-10.75a30.07,30.07,0,0,1,17.92-6.8c14.14-.26,21.23,6.94,23.9,9.66l0,0a26.11,26.11,0,0,1,5.45,7.6,32.88,32.88,0,0,1,10.23-1.64,52,52,0,0,1,5.21.18,36.62,36.62,0,0,0,4.8,0,33.29,33.29,0,0,0,4.69-.63,32.08,32.08,0,0,0,4.61-1.33l0.46-.17c1.38-.51,2.8-1,4.26-1.46a26.43,26.43,0,0,1,5-.94,15.56,15.56,0,0,1,5,.25,8.48,8.48,0,0,1,2.37.94,7.82,7.82,0,0,1,.95.65l0.19,0.17a2,2,0,0,1,.72,2.35l0,0.06,0,0.1,0,0a1.91,1.91,0,0,1-1.44.83l-0.12,0c-0.6.11-1.22,0.23-1.82,0.36a15.91,15.91,0,0,0-3.36,1.06,8.42,8.42,0,0,0-2.19,1.43,6.87,6.87,0,0,0-1.51,2c-0.16.34-.3,0.7-0.45,1.08l-0.14.36c-0.22.58-.45,1.15-0.68,1.7-0.48,1.16-1,2.28-1.5,3.33a48.8,48.8,0,0,1-3.63,6.29,31.89,31.89,0,0,1-7.39,7.88h0a27,27,0,0,1-8.52,3.6,42.56,42.56,0,0,1,.33,7.09,16.11,16.11,0,0,1-.74,3.53,15.76,15.76,0,0,1-1.49,3.23,17.39,17.39,0,0,1-2.23,2.91,25.8,25.8,0,0,1-6.69,4.92c-8.69,4-20.54,5.54-21.38,5.56a3.3,3.3,0,0,0-.78.09,4.05,4.05,0,0,0-.62.26l-0.23.11a28.62,28.62,0,0,1-6.55,2.16A14,14,0,0,1,78.61,104.53ZM2.31,43.32l0.83,0.17,0.25,0A20.65,20.65,0,0,1,7.27,44.6c5.5,2.25,6.93,6.93,8.08,10.69a25.23,25.23,0,0,0,1.1,3.15A27.53,27.53,0,0,0,27.82,71a22.31,22.31,0,0,0,6.66,2.59l1,0.16-0.2,1a15.13,15.13,0,0,0,0,4.66,20,20,0,0,0,.79,3.87,15.47,15.47,0,0,0,1.49,3.2,17.65,17.65,0,0,0,2.16,2.82,22.78,22.78,0,0,0,2.76,2.49A31.48,31.48,0,0,0,46,94.12,36.08,36.08,0,0,0,49.83,96c1.25,0.53,2.59,1,4,1.47S56.5,98.25,58,98.61h0c0.69,0.16,1.4.33,2.09,0.46,0.35,0.07.71,0.11,1.09,0.16s0.83,0.11,1.25.19l1.15,0.1c1.29,0.1,3.05.24,4,.42a11.42,11.42,0,0,1,2.11.61c4.15,1.71,8.37,2.37,11.31,1.77a26.75,26.75,0,0,0,6.12-2l0.21-.1a5.66,5.66,0,0,1,1-.38,5.2,5.2,0,0,1,1.25-.16c1,0,12.35-1.54,20.59-5.38a23.88,23.88,0,0,0,6.09-4.48,15.39,15.39,0,0,0,2-2.58,13.76,13.76,0,0,0,1.3-2.82,14.12,14.12,0,0,0,.65-3.1,46,46,0,0,0-.43-7.5l-0.15-.91,0.9-.21a26.2,26.2,0,0,0,8.71-3.51,29.92,29.92,0,0,0,6.9-7.38,46.82,46.82,0,0,0,3.48-6c0.49-1,1-2.1,1.45-3.22,0.22-.53.45-1.09,0.66-1.65l0.13-.35c0.15-.41.31-0.83,0.52-1.25a8.85,8.85,0,0,1,1.95-2.63A10.4,10.4,0,0,1,147,44.9a17.82,17.82,0,0,1,3.78-1.19c0.61-.13,1.23-0.25,1.82-0.36h0l0,0,0,0a5.93,5.93,0,0,0-.71-0.48,6.5,6.5,0,0,0-1.81-.72,13.68,13.68,0,0,0-4.36-.2,24.48,24.48,0,0,0-4.58.87c-1.38.39-2.71,0.88-4.11,1.4l-0.46.17a34.07,34.07,0,0,1-4.9,1.41,35.28,35.28,0,0,1-5,.67,38.63,38.63,0,0,1-5.06,0c-1.65-.11-3.35-0.23-5-0.18a30,30,0,0,0-10.06,1.69L106,48l-0.78.24-0.39-.72c-0.06-.12-0.13-0.26-0.21-0.46a23.55,23.55,0,0,0-5.25-7.46l0,0c-2.51-2.54-9.17-9.31-22.45-9.06A28.08,28.08,0,0,0,60.11,36.9c-8.36,6.57-9.83,10.71-9.84,10.75l-0.34,1-1-.41s-4.91-2-13.85-2.05c-0.8,0-1.59,0-2.42.09s-1.75.1-2.64,0.09A35.86,35.86,0,0,1,24.86,46,31.22,31.22,0,0,1,19.8,44.7L17.89,44C17,43.71,16,43.38,15.1,43.09a33.11,33.11,0,0,0-4.73-1.15,14.29,14.29,0,0,0-4.65,0,13.21,13.21,0,0,0-2,.52,6.06,6.06,0,0,0-1.08.61l-0.37.23h0Z"/><path class="cls-4" d="M87.22,88.82c0.3-.53.23-1.43-0.4-0.85A14.21,14.21,0,0,1,78,91c-4.87,0-8.92-3.35-9.42-2.89s0.1,1.51,2.79,3.76a10.51,10.51,0,0,0,6.8,2.86c1.8,0,4.28-1.28,5.83-2.46A12.32,12.32,0,0,0,87.22,88.82Z"/><path class="cls-10" d="M87.22,88.58c0.3-.45.23-1.21-0.4-0.72A15.81,15.81,0,0,1,78,90.4c-4.87,0-8.92-2.83-9.42-2.45s0.1,1.28,2.79,3.18a11.62,11.62,0,0,0,6.8,2.42A12.69,12.69,0,0,0,84,91.47,11.54,11.54,0,0,0,87.22,88.58Z"/><path class="cls-4" d="M39.39,62.3s-3.11,4-3.91,11.44a22,22,0,0,1-6.56-2.17,2.38,2.38,0,0,0,2.15-.34c0.83-.77,3-1.32,2.21-2.37s-2.34-4.3-3.51-5.22a54.59,54.59,0,0,0-6.13-3.4c-1.24-.61-1.18-0.47-1.71-0.15-0.78-1.08-5.31-8.76-5.31-8.76l-0.3-1.42a64.54,64.54,0,0,1,6.52,1.6c3.7,1.1,12.37,5.25,12.65,5.25S39.39,62.3,39.39,62.3Z"/><path class="cls-3" d="M16.47,51.06c-2.89-4.56-5.21-5.76-9.52-6.94,3.57-.52,6.37,1.34,8.75,2.77s5.8,3.78,10.83,3.74c8.25-.47,15.2,1.08,18.58,3.92A64.41,64.41,0,0,0,38,64.71a16.22,16.22,0,0,1-1.33-2c-1.77-2.45-1.23-3.15-3.53-4.26s-14.32-7.12-15.47-7.7c0,0-.75-0.48-1,0.55Z"/><path class="cls-4" d="M115.65,61.48s3.11,4,3.91,11.44a31.79,31.79,0,0,0,6.64-2.12A2.63,2.63,0,0,1,124,70.4c-0.83-.77-3-1.32-2.21-2.37s2.34-4.3,3.51-5.22a54.59,54.59,0,0,1,6.13-3.4c1.24-.61,1.18-0.47,1.71-0.15,0.78-1.08,5.31-8.76,5.31-8.76l0.3-1.42a64.54,64.54,0,0,0-6.52,1.6c-3.7,1.1-12.37,5.25-12.65,5.25S115.65,61.48,115.65,61.48Z"/><path class="cls-3" d="M138.58,50.23c2.89-4.56,5.21-5.76,9.52-6.94-3.57-.52-6.37,1.34-8.75,2.77s-5.8,3.78-10.83,3.74c-8.25-.47-15.2,1.08-18.58,3.92a64.41,64.41,0,0,1,7.15,10.16,16.22,16.22,0,0,0,1.33-2c1.77-2.45,1.23-3.15,3.53-4.26s14.32-7.12,15.47-7.7c0,0,.75-0.48,1,0.55Z"/></svg>