<svg id="Слой_1" data-name="Слой 1" xmlns="http://www.w3.org/2000/svg" viewBox="0 0 154.76 133.06"><defs><style>.cls-1{fill:#bababa;}.cls-2{fill:#1ba492;}.cls-3{fill:#558d7c;}.cls-4{fill:#606060;}.cls-5{fill:#7c7c7c;}.cls-6{fill:#5a9297;fill-opacity:0.25;}</style></defs><title>About us ICONS</title><polygon class="cls-1" points="66.57 98.39 66.57 98.39 66.57 98.39 66.57 98.39"/><path class="cls-2" d="M113.95,1.88a2,2,0,0,0-1.89-.3,2.3,2.3,0,0,0-1.41,1.22L61.67,89c-0.24.41-.22,0.58,0.22,0.81l4.93,2.66c4.12-7.93,46.7-87.25,47.29-88.85A2,2,0,0,0,113.95,1.88Z"/><path class="cls-3" d="M114.32,2.23a2.42,2.42,0,0,0-.37-0.36,2,2,0,0,1,.16,1.75c-0.59,1.6-43.17,80.92-47.29,88.85l0.6,0.32c0.56,0.32.77,0.26,1.07-.33l46.1-87.75A2.12,2.12,0,0,0,114.32,2.23Z"/><path class="cls-4" d="M45.29,132.39L46.36,133c0.36,0.2.48,0.11,0.65-.22,0.34-.62.72-1.65,1.08-1.74a2,2,0,0,1,.58.19l-2.14-1.12Z"/><path class="cls-4" d="M50,131.88c0.36,0.21.48,0.1,0.65-.22l9.69-18a0.63,0.63,0,0,0-.35-0.7l-1.09-.59L48.68,131.19A14.16,14.16,0,0,1,50,131.88Z"/><path class="cls-4" d="M66.57,98.39l-0.9-.48c0.39-.67.75-1.31,1.14-1.94,0.19-.3.13-0.45-0.18-0.62l-1.08-.58-1.34,2.37Z"/><path class="cls-4" d="M66.8,101.41a10.33,10.33,0,0,0,1.08-1.78c0.2-.32.19-0.5-0.18-0.67S67,98.6,66.57,98.39l-1.33,2.33A4,4,0,0,0,66.8,101.41Z"/><path class="cls-4" d="M62.72,105.42l0.39,0.2,0.2-.35c0.27-.5.51-1,0.82-1.49s0.19-.59-0.24-0.82l-1.24-.66-1.33,2.36Z"/><path class="cls-5" d="M49.36,107.25c-0.52-.29-0.71-0.19-1,0.31-2.92,5.47-6.62,12.14-9.56,17.6a0.72,0.72,0,0,0,.24.9,10.75,10.75,0,0,1,1.35.68l0.06,0c0.38,0.13.47,0.33,0.24,0.7s-0.53,1-.82,1.49c-0.16.27-.2,0.42,0.15,0.61l5.23,2.82,1.25-2.31,2.14,1.12h0l10.18-18.81C55.69,110.68,52.52,109,49.36,107.25Z"/><path class="cls-5" d="M60.39,92c-0.34-.18-0.51-0.16-0.68.2-0.3.65-.64,1.27-1,1.93l-0.6-.3c-0.59-.3-1.26-0.94-1.75-0.82a5.4,5.4,0,0,0-1.06,1.66c-0.28.55-.14,0.67,0.31,0.91,3.11,1.65,6.2,3.34,9.31,5l0.29,0.16,1.33-2.33h0l-2.36-1.24,1.34-2.37Q63,93.4,60.39,92Z"/><path class="cls-5" d="M56.87,99.2A6,6,0,0,0,55,98.34a10.25,10.25,0,0,0-1.08,1.76c-0.22.36-.16,0.52,0.21,0.72q3.59,1.91,7.17,3.85l1.33-2.36C60.72,101.28,58.8,100.23,56.87,99.2Z"/><path class="cls-5" d="M52.82,103.07c-0.27-.15-0.41-0.14-0.57.16-0.36.67-.75,1.32-1.16,2l7.6,4.07L60,107Z"/><path class="cls-4" d="M60.21,110.14c0.27,0.14.42,0.15,0.57-.15,0.28-.57.59-1.14,0.91-1.69,0.17-.28.11-0.4-0.17-0.55L60,107l-1.33,2.37Z"/><path class="cls-6" d="M68.47,94.39a2.27,2.27,0,0,1-1.77-.3l-5.5-3a1.9,1.9,0,0,1-.81-2.86l49-86.19a3.8,3.8,0,0,1,2.2-1.88l0.11,0a3.53,3.53,0,0,1,3.18.55,3.91,3.91,0,0,1,.6.57,3.6,3.6,0,0,1,.46,4.1L69.8,93.13a2.28,2.28,0,0,1-1.33,1.26h0Z"/><path class="cls-4" d="M35.84,69.2L52.35,56a1.89,1.89,0,0,0,0-3h0A1.89,1.89,0,0,0,50,53L31.64,67.73a1.89,1.89,0,0,0,0,2.95l18.71,15a1.89,1.89,0,0,0,2.31,0h0a1.89,1.89,0,0,0,0-3Z"/><path class="cls-4" d="M118.92,69.2L102,82.72a1.89,1.89,0,0,0,0,3h0a1.89,1.89,0,0,0,2.31,0l18.71-15a1.89,1.89,0,0,0,0-2.95L104.78,53a1.89,1.89,0,0,0-2.31,0h0a1.89,1.89,0,0,0,0,3Z"/></svg>