<svg id="Слой_1" data-name="Слой 1" xmlns="http://www.w3.org/2000/svg" viewBox="0 0 154.76 133.06"><defs><style>.cls-1{fill:#171717;}.cls-2{fill:#558d7c;}.cls-3{fill:#1ba492;}.cls-4{fill:none;}.cls-5{fill:#3c4044;}</style></defs><title>About us ICONS</title><path class="cls-1" d="M126.16,66.69l-4-45.09,0-.52L122,19.16a0.45,0.45,0,0,0-.64-0.36l-1.74.82-5.52,2.6-5.29,2.5-0.23.11-0.74.35a0.45,0.45,0,0,0-.26.39l0,0.81L106.27,61l-10.39-2.2a29.85,29.85,0,0,1-10-4.26,15.47,15.47,0,0,0-16.82,0,29.85,29.85,0,0,1-10,4.26l-10.5,2.22L47.2,26.37l0-.81a0.45,0.45,0,0,0-.26-0.39l-0.74-.35L46,24.72l-5.29-2.5-5.52-2.6L33.4,18.8a0.45,0.45,0,0,0-.64.36L32.6,21.08l0,0.52-4,45.09V67l4,45,0.17,1.91a0.45,0.45,0,0,0,.64.36l1.74-.82,0.05,0,5.47-2.58L46,108.32l0.19-.09,0.74-.35a0.45,0.45,0,0,0,.26-0.39l0-.81,1.28-33.84,9.93,2.52A27.55,27.55,0,0,1,68.17,80a15.47,15.47,0,0,0,18.54,0,27.56,27.56,0,0,1,9.77-4.59l9.81-2.5,1.28,33.81,0,0.81a0.45,0.45,0,0,0,.26.39l0.74,0.35,0.19,0.09,5.33,2.52,5.47,2.58,0.05,0,1.74,0.82a0.45,0.45,0,0,0,.64-0.36l0.17-1.91,4-45V66.69Z"/><path class="cls-2" d="M40.55,73.77a0.45,0.45,0,0,0-.89,0l-4.59,36.48a0.45,0.45,0,0,0,.63.46l8.74-4.12a0.45,0.45,0,0,0,.25-0.46L41.39,80.31Z"/><path class="cls-2" d="M39.65,59.72a0.45,0.45,0,0,0,.89,0L43.4,36.94l1.26-10a0.45,0.45,0,0,0-.25-0.46l-8.87-4.19a0.45,0.45,0,0,0-.63.46l1.66,13Z"/><path class="cls-3" d="M48.7,66.78L47.2,26.37l0-.81a0.45,0.45,0,0,0-.26-0.39l-0.74-.35L46,24.72l-5.29-2.5-5.52-2.6L33.4,18.8a0.45,0.45,0,0,0-.64.36L32.6,21.08l0,0.52-4,45.09V67l4,45,0.17,1.91a0.45,0.45,0,0,0,.64.36l1.74-.82,0.05,0,5.47-2.58L46,108.32l0.19-.09,0.74-.35a0.45,0.45,0,0,0,.26-0.39l0-.81,1.5-39.78V66.78Zm-1.34.08-1.5,39.78a0.45,0.45,0,0,1-.15.32v0l-11.83,5.58L34,112a0.45,0.45,0,0,1,0-.11l-4-45V66.81l4-45.09h0l0-.52a0.45,0.45,0,0,1,.64-0.36l11.1,5.24h0a0.44,0.44,0,0,1,.19.34l1.5,40.41v0Z"/><path class="cls-2" d="M41.4,72.42a0.45,0.45,0,0,0-.08.32l1,7.85,2.11,16.48a0.45,0.45,0,0,0,.89,0l1.11-29.31A0.45,0.45,0,0,0,46,67.25H43.18a0.45,0.45,0,0,0-.45.43A9.63,9.63,0,0,1,41.4,72.42Z"/><path class="cls-2" d="M45.32,36a0.45,0.45,0,0,0-.89,0l-1,7.89-2.14,17a0.45,0.45,0,0,0,.08.32,9.64,9.64,0,0,1,1.35,4.84,0.45,0.45,0,0,0,.45.43H46a0.45,0.45,0,0,0,.45-0.46Z"/><path class="cls-2" d="M34.11,103.73a0.45,0.45,0,0,0,.89,0L36.6,91,38.86,73a0.46,0.46,0,0,0-.11-0.36,9,9,0,0,1-1.53-5,0.45,0.45,0,0,0-.45-0.43H31.35a0.45,0.45,0,0,0-.44.49Z"/><path class="cls-2" d="M38.74,60.86a0.46,0.46,0,0,0,.11-0.36L37.48,49.83,34.94,30a0.45,0.45,0,0,0-.89,0L30.91,65.87a0.45,0.45,0,0,0,.44.49h5.41a0.45,0.45,0,0,0,.45-0.43A9,9,0,0,1,38.74,60.86Z"/><path class="cls-2" d="M114.21,73.77a0.45,0.45,0,0,1,.89,0l4.59,36.48a0.45,0.45,0,0,1-.63.46l-8.74-4.12a0.45,0.45,0,0,1-.25-0.46l3.31-25.81Z"/><path class="cls-2" d="M115.11,59.72a0.45,0.45,0,0,1-.89,0l-2.87-22.77-1.26-10a0.45,0.45,0,0,1,.25-0.46l8.87-4.19a0.45,0.45,0,0,1,.63.46l-1.66,13Z"/><path class="cls-3" d="M106.06,66.85v0.07l1.5,39.78,0,0.81a0.45,0.45,0,0,0,.26.39l0.74,0.35,0.19,0.09,5.33,2.52,5.47,2.58,0.05,0,1.74,0.82a0.45,0.45,0,0,0,.64-0.36l0.17-1.91,4-45V66.69l-4-45.09,0-.52L122,19.16a0.45,0.45,0,0,0-.64-0.36l-1.74.82-5.52,2.6-5.29,2.5-0.23.11-0.74.35a0.45,0.45,0,0,0-.26.39l0,0.81-1.5,40.41v0.07Zm1.34,0,1.5-40.41a0.44,0.44,0,0,1,.19-0.34h0l11.1-5.24a0.45,0.45,0,0,1,.64.36l0,0.52h0l4,45.09v0.08l-4,45a0.45,0.45,0,0,1,0,.11l0.07,0.58L109,107v0a0.45,0.45,0,0,1-.15-0.32l-1.5-39.78v0Z"/><path class="cls-2" d="M113.36,72.42a0.45,0.45,0,0,1,.08.32l-1,7.85-2.11,16.48a0.45,0.45,0,0,1-.89,0l-1.11-29.31a0.45,0.45,0,0,1,.45-0.46h2.81a0.45,0.45,0,0,1,.45.43A9.63,9.63,0,0,0,113.36,72.42Z"/><path class="cls-2" d="M109.44,36a0.45,0.45,0,0,1,.89,0l1,7.89,2.14,17a0.45,0.45,0,0,1-.08.32A9.64,9.64,0,0,0,112,65.93a0.45,0.45,0,0,1-.45.43h-2.8a0.45,0.45,0,0,1-.45-0.46Z"/><path class="cls-2" d="M120.65,103.73a0.45,0.45,0,0,1-.89,0L118.16,91,115.9,73a0.46,0.46,0,0,1,.11-0.36,9,9,0,0,0,1.53-5,0.45,0.45,0,0,1,.45-0.43h5.42a0.45,0.45,0,0,1,.44.49Z"/><path class="cls-2" d="M116,60.86a0.46,0.46,0,0,1-.11-0.36l1.37-10.67L119.82,30a0.45,0.45,0,0,1,.89,0l3.14,35.84a0.45,0.45,0,0,1-.44.49H118a0.45,0.45,0,0,1-.45-0.43A9,9,0,0,0,116,60.86Z"/><path class="cls-3" d="M114.19,62.7l-18.3-3.87a29.85,29.85,0,0,1-10-4.26,15.47,15.47,0,0,0-16.82,0,29.85,29.85,0,0,1-10,4.26L40.68,62.7c-1,0-1.72,1.83-1.72,4.08s0.77,4.08,1.72,4.08L58.4,75.37A27.55,27.55,0,0,1,68.17,80a15.47,15.47,0,0,0,18.54,0,27.55,27.55,0,0,1,9.77-4.59l17.72-4.5c1,0,1.72-1.83,1.72-4.08S115.14,62.7,114.19,62.7ZM96.65,61.4h0a0.45,0.45,0,0,1,.53-0.34l8.54,1.86a0.45,0.45,0,0,1,.34.53h0a0.45,0.45,0,0,1-.53.34L97,61.93A0.45,0.45,0,0,1,96.65,61.4ZM49,63.24l8.42-1.84a0.45,0.45,0,0,1,.53.34h0a0.45,0.45,0,0,1-.34.53l-8.42,1.84a0.45,0.45,0,0,1-.53-0.34h0A0.45,0.45,0,0,1,49,63.24ZM58,72.9a0.45,0.45,0,0,1-.55.32L49,71a0.45,0.45,0,1,1,.23-0.86l8.43,2.23A0.45,0.45,0,0,1,58,72.9Zm3.15-5.61a0.45,0.45,0,0,1-.45.45H52.3a0.45,0.45,0,0,1-.45-0.45V66.66a0.45,0.45,0,0,1,.45-0.45h8.4a0.45,0.45,0,0,1,.45.45v0.62ZM77.38,78.35A10.73,10.73,0,1,1,88.11,67.62,10.73,10.73,0,0,1,77.38,78.35ZM93.94,67.73a0.45,0.45,0,0,1-.45-0.45V66.66a0.45,0.45,0,0,1,.45-0.45h8.52a0.45,0.45,0,0,1,.45.45v0.62a0.45,0.45,0,0,1-.45.45H93.94Zm11.79,3.13L97.19,73a0.45,0.45,0,0,1-.54-0.33h0A0.45,0.45,0,0,1,97,72.11L105.52,70a0.45,0.45,0,0,1,.54.33h0A0.45,0.45,0,0,1,105.73,70.86Z"/><path class="cls-4" d="M76.07,61.37a0.38,0.38,0,0,0,.36.28h1.89a0.38,0.38,0,0,0,.36-0.28L79.33,59A0.38,0.38,0,0,0,79,58.51H75.8a0.38,0.38,0,0,0-.36.47Z"/><path class="cls-4" d="M77.33,64.75h0.1a0.46,0.46,0,0,0,.45-0.34l0.4-1.49a0.46,0.46,0,0,0-.45-0.58H76.93a0.46,0.46,0,0,0-.45.58l0.4,1.49A0.46,0.46,0,0,0,77.33,64.75Z"/><path class="cls-4" d="M73,64.59l-0.45.78a0.46,0.46,0,0,0,.28.68l1.34,0.36a0.46,0.46,0,0,0,.52-0.21L74.82,66a0.46,0.46,0,0,0-.07-0.56l-1-1A0.46,0.46,0,0,0,73,64.59Z"/><path class="cls-4" d="M81.18,62.92a0.38,0.38,0,0,0,.45-0.06l1.75-1.75a0.38,0.38,0,0,0-.08-0.59l-2.74-1.58a0.38,0.38,0,0,0-.55.23l-0.64,2.4a0.38,0.38,0,0,0,.18.42Z"/><path class="cls-4" d="M75.91,65.16l0.08,0a0.46,0.46,0,0,0,.21-0.52l-0.4-1.49a0.46,0.46,0,0,0-.68-0.28l-0.78.45a0.46,0.46,0,0,0-.1.73l1.09,1.09A0.46,0.46,0,0,0,75.91,65.16Z"/><path class="cls-4" d="M82.06,63.82L83,65.45a0.38,0.38,0,0,0,.42.18l2.4-.64a0.38,0.38,0,0,0,.23-0.55l-1.56-2.7a0.42,0.42,0,0,0-.66-0.09l-1.71,1.71A0.38,0.38,0,0,0,82.06,63.82Z"/><path class="cls-4" d="M79.7,66.27a0.46,0.46,0,0,0,.52.21L81.89,66a0.46,0.46,0,0,0,.28-0.68l-0.45-.78a0.46,0.46,0,0,0-.73-0.1l-1.22,1.22A0.46,0.46,0,0,0,79.7,66.27Z"/><path class="cls-4" d="M80.4,63.27l-0.78-.45a0.46,0.46,0,0,0-.68.28l-0.4,1.49a0.46,0.46,0,0,0,.21.52l0.08,0a0.46,0.46,0,0,0,.56-0.07L80.5,64A0.46,0.46,0,0,0,80.4,63.27Z"/><path class="cls-4" d="M73.13,62.87a0.38,0.38,0,0,0,.45.06L75.22,62a0.38,0.38,0,0,0,.18-0.42l-0.64-2.4a0.38,0.38,0,0,0-.55-0.23l-2.74,1.58a0.38,0.38,0,0,0-.08.59Z"/><path class="cls-4" d="M68.94,65l2.4,0.64a0.38,0.38,0,0,0,.42-0.18l0.94-1.63a0.38,0.38,0,0,0-.06-0.45l-1.75-1.75a0.38,0.38,0,0,0-.59.08l-1.58,2.74A0.38,0.38,0,0,0,68.94,65Z"/><path class="cls-5" d="M87.4,67.26a10,10,0,0,0-.25-1.9h0L87.08,65h0L87,64.67h0a10,10,0,0,0-2.26-3.91h0l-0.25-.25-0.25-.25h0A10,10,0,0,0,80.31,58h0L80,57.92h0l-0.34-.09h0a10.1,10.1,0,0,0-4.51,0h0l-0.34.09L74.44,58h0a10,10,0,0,0-3.91,2.26h0l-0.25.25L70,60.76h0a10,10,0,0,0-2.26,3.91h0L67.69,65h0l-0.09.34h0a10.08,10.08,0,0,0-.25,1.9h0V68h0a10.06,10.06,0,0,0,.25,1.9h0l0.09,0.34,0.09,0.34h0A10,10,0,0,0,70,74.45h0l0.25,0.25h0L70.53,75h0a10,10,0,0,0,3.91,2.26h0l0.34,0.09h0l0.34,0.09h0a9.85,9.85,0,0,0,4.51,0h0L80,77.31h0l0.34-.09h0a10,10,0,0,0,3.91-2.26h0l0.25-.25h0l0.25-.25h0A10,10,0,0,0,87,70.55h0l0.09-.34,0.09-.34h0A10.05,10.05,0,0,0,87.4,68h0v-0.7h0ZM84.5,61.74l1.56,2.7a0.38,0.38,0,0,1-.23.55l-2.4.64A0.38,0.38,0,0,1,83,65.45l-0.94-1.63a0.38,0.38,0,0,1,.06-0.45l1.71-1.71A0.42,0.42,0,0,1,84.5,61.74ZM80.5,64l-1.09,1.09a0.46,0.46,0,0,1-.56.07l-0.08,0a0.46,0.46,0,0,1-.21-0.52L79,63.1a0.46,0.46,0,0,1,.68-0.28l0.78,0.45A0.46,0.46,0,0,1,80.5,64Zm0.5,0.5a0.46,0.46,0,0,1,.73.1l0.45,0.78a0.46,0.46,0,0,1-.28.68l-1.67.45a0.46,0.46,0,0,1-.45-0.77ZM78.86,70l0.08,0a0.46,0.46,0,0,1,.56.07l1.09,1.09a0.46,0.46,0,0,1-.1.73l-0.78.45A0.46,0.46,0,0,1,79,72l-0.4-1.49A0.46,0.46,0,0,1,78.86,70Zm1.24-.37A0.46,0.46,0,0,1,80,69.11L80.12,69a0.46,0.46,0,0,1,.52-0.21L82,69.1a0.46,0.46,0,0,1,.28.68l-0.45.78a0.46,0.46,0,0,1-.73.1ZM80,59.17a0.38,0.38,0,0,1,.55-0.23l2.74,1.58a0.38,0.38,0,0,1,.08.59l-1.75,1.75a0.38,0.38,0,0,1-.45.06L79.54,62a0.38,0.38,0,0,1-.18-0.42Zm-4.21-.66H79a0.38,0.38,0,0,1,.36.47l-0.64,2.39a0.38,0.38,0,0,1-.36.28H76.44a0.38,0.38,0,0,1-.36-0.28L75.43,59A0.38,0.38,0,0,1,75.8,58.51Zm0.78,13.71L77,70.73a0.46,0.46,0,0,1,.45-0.34h0.1a0.46,0.46,0,0,1,.45.34l0.4,1.49a0.46,0.46,0,0,1-.45.58H77A0.46,0.46,0,0,1,76.58,72.22Zm-0.09-9.3a0.46,0.46,0,0,1,.45-0.58h0.89a0.46,0.46,0,0,1,.45.58l-0.4,1.49a0.46,0.46,0,0,1-.45.34h-0.1a0.46,0.46,0,0,1-.45-0.34Zm-1.74,2.55a0.46,0.46,0,0,1,.07.56l-0.09.15a0.46,0.46,0,0,1-.52.21L72.87,66a0.46,0.46,0,0,1-.28-0.68L73,64.59a0.46,0.46,0,0,1,.73-0.1Zm-0.39-2.21,0.78-.45a0.46,0.46,0,0,1,.68.28l0.4,1.49a0.46,0.46,0,0,1-.21.52l-0.08,0a0.46,0.46,0,0,1-.56-0.07L74.26,64A0.46,0.46,0,0,1,74.36,63.27ZM73,69.1l1.67-.45a0.46,0.46,0,0,1,.45.77l-1.22,1.22a0.46,0.46,0,0,1-.73-0.1l-0.45-.78A0.46,0.46,0,0,1,73,69.1Zm1.39,2,1.09-1.09A0.46,0.46,0,0,1,76,70l0.08,0a0.46,0.46,0,0,1,.21.52L75.9,72a0.46,0.46,0,0,1-.68.28l-0.78-.45A0.46,0.46,0,0,1,74.35,71.15ZM71.46,60.52l2.74-1.58a0.38,0.38,0,0,1,.55.23l0.64,2.4a0.38,0.38,0,0,1-.18.42l-1.63.94a0.38,0.38,0,0,1-.45-0.06l-1.75-1.75A0.38,0.38,0,0,1,71.46,60.52Zm-2.75,3.91,1.58-2.74a0.38,0.38,0,0,1,.59-0.08l1.75,1.75a0.38,0.38,0,0,1,.06.45l-0.94,1.63a0.38,0.38,0,0,1-.42.18L68.94,65A0.38,0.38,0,0,1,68.71,64.43Zm1.68,9L68.8,70.71A0.38,0.38,0,0,1,69,70.16l2.4-.64a0.38,0.38,0,0,1,.42.18l0.94,1.63a0.38,0.38,0,0,1-.06.45L71,73.54A0.37,0.37,0,0,1,70.39,73.46ZM74.84,76a0.38,0.38,0,0,1-.55.23l-2.74-1.58A0.38,0.38,0,0,1,71.47,74l1.75-1.75a0.38,0.38,0,0,1,.45-0.06l1.64,0.93a0.38,0.38,0,0,1,.18.42Zm4.21,0.66H75.89a0.38,0.38,0,0,1-.36-0.47l0.64-2.39a0.38,0.38,0,0,1,.36-0.28h1.89a0.38,0.38,0,0,1,.36.28l0.64,2.39A0.38,0.38,0,0,1,79.06,76.63Zm4.34-2-2.74,1.58A0.38,0.38,0,0,1,80.1,76l-0.64-2.4a0.38,0.38,0,0,1,.18-0.42l1.63-.94a0.38,0.38,0,0,1,.45.06L83.47,74A0.38,0.38,0,0,1,83.39,74.62Zm2.75-3.91-1.58,2.74a0.38,0.38,0,0,1-.59.08l-1.75-1.75a0.38,0.38,0,0,1-.06-0.45l0.94-1.63a0.38,0.38,0,0,1,.42-0.18l2.4,0.64A0.38,0.38,0,0,1,86.14,70.71Z"/><polygon class="cls-5" points="68.2 69.07 75.98 67.95 76.22 69.07 79.58 69.5 80.2 67.95 84.43 67.61 86.67 69.21 86.32 72.17 84.48 73.93 83.58 73.64 81.7 71.71 77.44 73.32 73.71 71.9 70.48 74.41 69.22 72.8 68.01 70.11 68.2 69.07"/></svg>