<?xml version="1.0" standalone="no"?>
<!DOCTYPE svg PUBLIC "-//W3C//DTD SVG 1.1//EN" "http://www.w3.org/Graphics/SVG/1.1/DTD/svg11.dtd" >
<svg xmlns="http://www.w3.org/2000/svg" xmlns:xlink="http://www.w3.org/1999/xlink" version="1.1">
<metadata>
Created by FontForge 20170731 at Thu Oct 26 18:32:04 2017
 By Aleksey,,,
Copyright 2017 The Barlow Project Authors (https://github.com/jpt/barlow)
</metadata>
<defs>
<font id="BarlowSemiCondensed-Medium" horiz-adv-x="0" >
  <font-face 
    font-family="Barlow Semi Condensed Medium"
    font-weight="500"
    font-stretch="semi-condensed"
    units-per-em="1000"
    panose-1="0 0 6 6 0 0 0 0 0 0"
    ascent="800"
    descent="-200"
    x-height="509"
    cap-height="700"
    bbox="-525 -209 1058 981"
    underline-thickness="50"
    underline-position="-150"
    unicode-range="U+000D-25CA"
  />
<missing-glyph horiz-adv-x="401" 
d="M4 0h393q4 0 4 4v692q0 4 -4 4h-393q-4 0 -4 -4v-692q0 -4 4 -4zM160 249v32q0 33 14 52.5t43 44.5q27 23 40 41t13 45q0 32 -17.5 51t-46.5 19q-31 0 -49 -19.5t-18 -51.5v-16q0 -10 -10 -10l-49 3q-10 0 -10 10v13q0 60 38 96.5t100 36.5q60 0 95.5 -35.5t35.5 -94.5
q0 -45 -17.5 -71t-49.5 -52q-23 -19 -33.5 -32.5t-10.5 -32.5v-29q0 -10 -10 -10h-48q-10 0 -10 10zM164.5 104.5q-13.5 13.5 -13.5 32.5t14 33t33 14q18 0 32 -14t14 -33t-13.5 -32.5t-32.5 -13.5q-20 0 -33.5 13.5z" />
    <glyph glyph-name="I_J.liga" unicode="IJ" horiz-adv-x="749" 
d="M72 10v680q0 10 10 10h76q10 0 10 -10v-680q0 -10 -10 -10h-76q-10 0 -10 10zM361 16.5q-47 24.5 -73 69t-26 102.5v63q0 10 10 10h76q10 0 10 -10v-64q0 -50 30.5 -81t80.5 -31t81 31t31 81v503q0 10 10 10h76q10 0 10 -10v-502q0 -58 -26 -102.5t-73 -69t-109 -24.5
q-61 0 -108 24.5z" />
    <glyph glyph-name="f_f_i.liga" unicode="ffi" horiz-adv-x="853" 
d="M692.5 601.5q-17.5 17.5 -17.5 45.5t17.5 45.5t45.5 17.5t45.5 -17.5t17.5 -45.5t-17.5 -45.5t-45.5 -17.5t-45.5 17.5zM487 513q0 -4 4 -4h90q10 0 10 -10v-54q0 -10 -10 -10h-90q-4 0 -4 -4v-421q0 -10 -10 -10h-76q-10 0 -10 10v421q0 4 -4 4h-196q-4 0 -4 -4v-421
q0 -10 -10 -10h-76q-10 0 -10 10v421q0 4 -4 4h-49q-10 0 -10 10v54q0 10 10 10h49q4 0 4 4v37q0 83 38.5 119t128.5 34h20q10 0 10 -10v-48q0 -10 -10 -10h-20q-41 -1 -56 -23.5t-15 -69.5v-29q0 -4 4 -4h196q4 0 4 4v37q0 83 38.5 119t127.5 34h21q10 0 10 -10v-48
q0 -10 -10 -10h-20q-41 -1 -56 -23.5t-15 -69.5v-29zM690 10v489q0 10 10 10h76q10 0 10 -10v-489q0 -10 -10 -10h-76q-10 0 -10 10z" />
    <glyph glyph-name="f_f_l.liga" unicode="ffl" horiz-adv-x="838" 
d="M488 513q0 -4 4 -4h91q10 0 10 -10v-54q0 -10 -10 -10h-91q-4 0 -4 -4v-421q0 -10 -10 -10h-75q-10 0 -10 10v421q0 4 -4 4h-198q-4 0 -4 -4v-421q0 -10 -10 -10h-76q-10 0 -10 10v421q0 4 -4 4h-49q-10 0 -10 10v54q0 10 10 10h49q4 0 4 4v37q0 83 38.5 119t128.5 34h20
q10 0 10 -10v-48q0 -10 -10 -10h-20q-41 -1 -56 -23.5t-15 -69.5v-29q0 -4 4 -4h198q4 0 4 4v37q0 83 38.5 119t127.5 34h20q10 0 10 -10v-48q0 -10 -10 -10h-20q-41 -1 -56 -23.5t-15 -69.5v-29zM693 700h76q10 0 10 -10v-680q0 -10 -10 -10h-76q-10 0 -10 10v680
q0 10 10 10z" />
    <glyph glyph-name="f_i.liga" unicode="fi" horiz-adv-x="557" 
d="M206.5 599.5q-16.5 -20.5 -16.5 -69.5v-17q0 -4 4 -4h87q10 0 10 -10v-59q0 -10 -10 -10h-87q-4 0 -4 -4v-416q0 -10 -10 -10h-76q-10 0 -10 10v416q0 4 -4 4h-52q-10 0 -10 10v59q0 10 10 10h52q4 0 4 4v22q0 63 16 99.5t51.5 52.5t97.5 16h23q10 0 10 -10l-1 -63
q0 -10 -10 -10h-17q-41 0 -57.5 -20.5zM396 602.5q-18 17.5 -18 45.5t18 45.5t46 17.5t45.5 -17.5t17.5 -45.5t-17.5 -45.5t-45.5 -17.5t-46 17.5zM394 10v489q0 10 10 10h76q10 0 10 -10v-489q0 -10 -10 -10h-76q-10 0 -10 10z" />
    <glyph glyph-name="f_l.liga" unicode="fl" horiz-adv-x="541" 
d="M206.5 599.5q-16.5 -20.5 -16.5 -69.5v-17q0 -4 4 -4h87q10 0 10 -10v-59q0 -10 -10 -10h-87q-4 0 -4 -4v-416q0 -10 -10 -10h-76q-10 0 -10 10v416q0 4 -4 4h-52q-10 0 -10 10v59q0 10 10 10h52q4 0 4 4v22q0 63 16 99.5t51.5 52.5t97.5 16h23q10 0 10 -10l-1 -63
q0 -10 -10 -10h-17q-41 0 -57.5 -20.5zM385 10v680q0 10 10 10h76q10 0 10 -10v-680q0 -10 -10 -10h-76q-10 0 -10 10z" />
    <glyph glyph-name="g_j.liga" unicode="gj" horiz-adv-x="700" 
d="M546 602q-17 18 -17 46q0 26 18.5 44t43.5 18q26 0 45 -18t19 -44q0 -28 -18 -46t-46 -18t-45 18zM330.5 469q1.5 1 1.5 3v27q0 10 10 10h76q10 0 10 -10v-479q0 -222 -238 -222q-21 0 -32 1q-10 1 -10 11l2 67q0 5 3 7.5t7 1.5q94 -4 133 29t39 112v19q0 2 -1.5 3
t-3.5 -1q-39 -48 -109 -48q-65 0 -109.5 38.5t-54.5 107.5q-6 32 -6 109q0 83 7 116q9 67 51.5 106.5t107.5 39.5q72 0 113 -47q2 -2 3.5 -1zM544 499q0 10 10 10h75q10 0 10 -10v-527q0 -92 -42.5 -135.5t-139.5 -42.5q-10 0 -10 10v61q0 10 9 10q41 1 64.5 25.5t23.5 70.5
v528zM332 256q0 56 -3 95q-4 36 -28 59.5t-61 23.5q-36 0 -60.5 -23.5t-29.5 -59.5q-6 -39 -6 -95q0 -52 5 -92q5 -37 30 -60t62 -23t61 23t28 59q2 52 2 93z" />
    <glyph glyph-name="i_j.liga" unicode="ij" horiz-adv-x="445" 
d="M70 602.5q-18 17.5 -18 45.5t18 45.5t46 17.5t45.5 -17.5t17.5 -45.5t-17.5 -45.5t-45.5 -17.5t-46 17.5zM68 10v489q0 10 10 10h76q10 0 10 -10v-489q0 -10 -10 -10h-76q-10 0 -10 10zM290.5 602q-17.5 18 -17.5 45t19 45t44 18q26 0 45 -18t19 -45t-18 -45t-46 -18
t-45.5 18zM184 -197v63q0 10 13 10q48 0 69.5 24t21.5 71v528q0 10 10 10h76q10 0 10 -10v-527q0 -63 -16.5 -101.5t-57.5 -58t-116 -19.5q-10 0 -10 10z" />
    <glyph glyph-name="hyphen_hyphen.liga" unicode="&#x2d;&#x2d;" horiz-adv-x="634" 
d="M32 269v63q0 10 10 10h550q10 0 10 -10v-63q0 -10 -10 -10h-550q-10 0 -10 10z" />
    <glyph glyph-name=".notdef" horiz-adv-x="401" 
d="M4 0h393q4 0 4 4v692q0 4 -4 4h-393q-4 0 -4 -4v-692q0 -4 4 -4zM160 249v32q0 33 14 52.5t43 44.5q27 23 40 41t13 45q0 32 -17.5 51t-46.5 19q-31 0 -49 -19.5t-18 -51.5v-16q0 -10 -10 -10l-49 3q-10 0 -10 10v13q0 60 38 96.5t100 36.5q60 0 95.5 -35.5t35.5 -94.5
q0 -45 -17.5 -71t-49.5 -52q-23 -19 -33.5 -32.5t-10.5 -32.5v-29q0 -10 -10 -10h-48q-10 0 -10 10zM164.5 104.5q-13.5 13.5 -13.5 32.5t14 33t33 14q18 0 32 -14t14 -33t-13.5 -32.5t-32.5 -13.5q-20 0 -33.5 13.5z" />
    <glyph glyph-name=".null" 
 />
    <glyph glyph-name="nonmarkingreturn" unicode="&#xd;" horiz-adv-x="200" 
 />
    <glyph glyph-name="space" unicode=" " horiz-adv-x="200" 
 />
    <glyph glyph-name="exclam" unicode="!" horiz-adv-x="298" 
d="M110 242l-9 448q0 10 10 10h76q10 0 10 -10l-9 -448q0 -10 -10 -10h-58q-10 0 -10 10zM97.5 23q-19.5 20 -19.5 49q0 28 21 48.5t48 20.5t48 -20.5t21 -48.5q0 -29 -20 -49t-49 -20q-30 0 -49.5 20z" />
    <glyph glyph-name="quotedbl" unicode="&#x22;" horiz-adv-x="286" 
d="M32 492l-9 194q0 10 9 10h73q10 0 10 -10l-10 -194q0 -10 -10 -10h-53q-10 0 -10 10zM181 492l-9 194q0 10 9 10h74q9 0 9 -10l-10 -194q0 -10 -10 -10h-53q-10 0 -10 10z" />
    <glyph glyph-name="numbersign" unicode="#" horiz-adv-x="634" 
d="M568 420h-70q-5 0 -5 -4l-20 -138q0 -4 3 -4h57q10 0 10 -10v-63q0 -10 -10 -10h-70q-5 0 -5 -4l-24 -158q-1 -9 -10 -9l-76 1q-4 0 -7 3t-2 8l23 155q0 4 -3 4h-131q-5 0 -5 -4l-24 -158q-1 -9 -10 -9l-76 1q-4 0 -7 3t-2 8l23 155q0 4 -3 4h-59q-10 0 -10 10l1 63
q0 10 10 10h70q5 0 5 4l20 138q0 4 -3 4h-58q-10 0 -10 10l1 64q0 10 10 10h70q5 0 5 4l24 158q1 9 10 9l76 -1q4 0 7 -3t2 -8l-23 -155q0 -4 3 -4h131q5 0 5 4l24 158q1 9 10 9l77 -1q4 0 7 -3t2 -8l-23 -155q0 -4 3 -4h57q10 0 10 -10v-64q0 -10 -10 -10zM376 278l20 138
q0 4 -3 4h-130q-5 0 -5 -4l-21 -138q0 -4 3 -4h131q5 0 5 4z" />
    <glyph glyph-name="dollar" unicode="$" horiz-adv-x="491" 
d="M404 52q-45 -50 -125 -59q-4 0 -4 -4l1 -58q0 -10 -10 -10h-45q-10 0 -10 10l1 59q0 4 -4 5q-74 10 -116.5 57.5t-42.5 118.5v36q0 10 10 10h74q10 0 10 -10v-23q0 -49 29 -79t79 -30q48 0 75 27.5t27 72.5q0 27 -13.5 47t-36 36t-64.5 41q-44 26 -48 29q-47 30 -76.5 56
t-47 61t-17.5 82q0 75 41.5 121.5t114.5 57.5q4 0 4 4l-1 66q0 10 10 10h43q10 0 10 -10l-1 -65q0 -4 4 -4q80 -9 124.5 -58t44.5 -126v-30q0 -10 -10 -10h-75q-10 0 -10 10v21q0 49 -28.5 80t-78.5 31q-45 0 -71 -25.5t-26 -70.5q0 -28 13 -48t35.5 -35t67.5 -40l28 -16
q86 -51 123 -96.5t37 -112.5q0 -79 -45 -129z" />
    <glyph glyph-name="percent" unicode="%" horiz-adv-x="808" 
d="M146 433q-34 20 -54 54t-20 75q0 40 20 74t54 53.5t74 19.5t73.5 -20t53 -53.5t19.5 -73.5q0 -41 -19.5 -75t-53 -54t-73.5 -20t-74 20zM182.5 3.5q-2.5 3.5 0.5 8.5l372 681q3 7 12 7h49q5 0 7.5 -3.5t-0.5 -8.5l-372 -681q-3 -7 -12 -7h-49q-5 0 -7.5 3.5zM284.5 494.5
q26.5 27.5 26.5 67.5q0 39 -26.5 66.5t-64.5 27.5q-39 0 -66 -27.5t-27 -66.5q0 -40 27 -67.5t66 -27.5q38 0 64.5 27.5zM517 11q-34 20 -53.5 54t-19.5 74t19.5 74t53.5 54t74 20t73.5 -20t53.5 -54t20 -74t-20 -74t-53.5 -54t-73.5 -20t-74 20zM656 72q27 28 27 67
t-27 66.5t-65 27.5q-39 0 -65.5 -27.5t-26.5 -66.5q0 -40 26.5 -67.5t65.5 -27.5q38 0 65 28z" />
    <glyph glyph-name="ampersand" unicode="&#x26;" horiz-adv-x="624" 
d="M575 6q0 -6 -8 -6h-85q-7 0 -12 6l-43 53q-1 2 -3 1.5t-3 -1.5q-43 -34 -87.5 -50.5t-96.5 -16.5q-86 0 -138 43t-52 125q0 67 34 115t95 92q3 2 0 5q-52 70 -68 103t-16 68q0 75 46.5 120t123.5 45t126.5 -45t49.5 -118q0 -62 -34 -105.5t-95 -86.5q-3 -1 -1 -5
q50 -65 87 -109q30 -38 32 -41q3 -4 6 0q32 43 55 81q2 4 6 4.5t8 -1.5l56 -32q8 -5 4 -14q-37 -63 -75 -108q-1 -3 0 -6q-2 3 25 -31q10 -12 29 -36t32 -43q2 -2 2 -6zM208.5 599q-20.5 -21 -20.5 -58q0 -22 11 -44.5t50 -74.5q3 -3 6 -1q42 31 64.5 59.5t22.5 63.5
q0 34 -22 55t-56 21q-35 0 -55.5 -21zM367 126q3 3 0 6l-56 71q-18 22 -26 33q-9 11 -21.5 26.5t-28.5 34.5q-1 3 -5 1q-42 -33 -64.5 -64t-22.5 -70q0 -41 26 -65.5t73 -24.5q64 0 125 52z" />
    <glyph glyph-name="quotesingle" unicode="'" horiz-adv-x="141" 
d="M32 496l-9 192q0 10 9 10h78q9 0 9 -10l-10 -192q0 -10 -10 -10h-57q-10 0 -10 10z" />
    <glyph glyph-name="parenleft" unicode="(" horiz-adv-x="272" 
d="M104 -94q-48 76 -77 186t-29 236q0 128 29.5 240t78.5 188q4 6 12 6h73q5 0 7 -3.5t0 -8.5q-40 -80 -66 -189t-26 -232q0 -122 26 -230t66 -187q1 -2 1 -5q0 -7 -8 -7h-75q-7 0 -12 6z" />
    <glyph glyph-name="parenright" unicode=")" horiz-adv-x="272" 
d="M156 -100h-75q-5 0 -7 3.5t0 8.5q40 79 66 187t26 230q0 123 -26 232t-66 189q-1 2 -1 5q0 7 8 7h73q7 0 12 -6q49 -76 78.5 -188t29.5 -240q0 -126 -29 -236t-77 -186q-4 -6 -12 -6z" />
    <glyph glyph-name="asterisk" unicode="*" horiz-adv-x="379" 
d="M161 404v109q0 2 -1.5 3t-3.5 0l-96 -56q-2 -1 -5 -1q-6 0 -9 5l-19 33q-1 2 -1 5q0 6 5 9l98 56q2 1 2 3t-2 3l-98 56q-4 2 -5 6t1 8l19 34q6 10 14 4l96 -57q2 -1 3.5 0t1.5 3v110q0 10 10 10h38q10 0 10 -10v-110q0 -2 1.5 -3t3.5 0l95 57l5 2q5 0 9 -6l19 -34
q1 -2 1 -5q0 -6 -5 -9l-98 -56q-1 -1 -1 -3t1 -3l98 -56q4 -2 5 -6t-1 -8l-19 -34q-6 -10 -14 -4l-95 57q-2 1 -3.5 0t-1.5 -3v-109q0 -10 -10 -10h-38q-10 0 -10 10z" />
    <glyph glyph-name="plus" unicode="+" horiz-adv-x="468" 
d="M435 341v-58q0 -10 -10 -10h-148q-4 0 -4 -4v-147q0 -10 -10 -10h-58q-10 0 -10 10v147q0 4 -4 4h-149q-10 0 -10 10v58q0 10 10 10h149q4 0 4 4v150q0 10 10 10h58q10 0 10 -10v-150q0 -4 4 -4h148q10 0 10 -10z" />
    <glyph glyph-name="comma" unicode="," horiz-adv-x="227" 
d="M49 -83q-3 3 -2 8l34 222q1 9 10 9h67q11 0 8 -11l-53 -222q-2 -9 -11 -9h-46q-4 0 -7 3z" />
    <glyph glyph-name="hyphen" unicode="-" horiz-adv-x="360" 
d="M32 274v63q0 10 10 10h275q10 0 10 -10v-63q0 -10 -10 -10h-275q-10 0 -10 10z" />
    <glyph glyph-name="period" unicode="." horiz-adv-x="250" 
d="M73.5 20q-19.5 20 -19.5 50q0 28 21 48t48 20q28 0 49 -20t21 -48q0 -29 -20.5 -49.5t-49.5 -20.5q-30 0 -49.5 20z" />
    <glyph glyph-name="slash" unicode="/" horiz-adv-x="361" 
d="M26 11l214 681q3 8 12 8h75q11 0 8 -11l-214 -681q-3 -8 -12 -8h-75q-11 0 -8 11z" />
    <glyph glyph-name="zero" unicode="0" horiz-adv-x="494" 
d="M101 44q-54 54 -54 145v322q0 90 54 144t145 54t146 -54t55 -144v-322q0 -91 -54.5 -145t-146.5 -54q-91 0 -145 54zM322.5 103.5q28.5 30.5 28.5 80.5v331q0 50 -28.5 80.5t-76.5 30.5q-47 0 -75 -30.5t-28 -80.5v-331q0 -50 28 -80.5t75 -30.5q48 0 76.5 30.5z" />
    <glyph glyph-name="one" unicode="1" horiz-adv-x="300" 
d="M147 700h79q10 0 10 -10v-680q0 -10 -10 -10h-76q-10 0 -10 10v592q0 2 -1.5 3t-3.5 0l-92 -32l-4 -1q-7 0 -7 9v55q0 9 7 12l95 49q6 3 13 3z" />
    <glyph glyph-name="two" unicode="2" horiz-adv-x="480" 
d="M45 10v64q0 7 4 12q129 166 201 267q77 107 77 171q0 46 -26 73.5t-69 27.5q-42 0 -67.5 -27.5t-24.5 -72.5v-35q0 -10 -10 -10h-77q-10 0 -10 10v43q2 79 55.5 127t135.5 48q57 0 100 -23.5t66.5 -65.5t23.5 -95q0 -89 -80 -202q-52 -74 -135 -182l-40 -52q-3 -5 2 -5
h261q10 0 10 -10v-63q0 -10 -10 -10h-377q-10 0 -10 10z" />
    <glyph glyph-name="three" unicode="3" horiz-adv-x="491" 
d="M440 217q0 -43 -9 -85q-15 -64 -66 -102t-125 -38q-76 0 -128 39.5t-66 105.5q-8 29 -8 70q0 10 10 10h76q10 0 10 -10q2 -27 5 -50q8 -38 34.5 -60t66.5 -22q38 0 63.5 20t34.5 56q8 28 8 72q0 48 -9 81q-10 34 -35.5 53.5t-62.5 19.5q-16 0 -34 -10q-4 -2 -6 -2
q-4 0 -8 4l-38 42q-3 3 -3 7t3 7l164 187q1 2 0 3.5t-3 1.5h-258q-10 0 -10 10v63q0 10 10 10h368q10 0 10 -10v-66q0 -5 -5 -12l-137 -165q-2 -4 2 -5q51 -7 86 -43.5t49 -87.5q11 -38 11 -94z" />
    <glyph glyph-name="four" unicode="4" horiz-adv-x="500" 
d="M462 264v-67q0 -10 -10 -10h-38q-4 0 -4 -4v-173q0 -10 -10 -10h-76q-10 0 -10 10v173q0 4 -4 4h-269q-10 0 -10 10v55q0 7 2 12l171 428q3 8 11 8h82q5 0 7 -3.5t0 -8.5l-161 -409q-1 -2 0 -3.5t3 -1.5h164q4 0 4 4v142q0 10 10 10h76q10 0 10 -10v-142q0 -4 4 -4h38
q10 0 10 -10z" />
    <glyph glyph-name="five" unicode="5" horiz-adv-x="471" 
d="M433 217q0 -67 -21 -113q-20 -54 -64.5 -83t-106.5 -29q-71 0 -118.5 37t-63.5 104q-6 26 -7 40v2q0 8 9 8h77q10 0 11 -10q2 -16 4 -21q8 -37 31 -56.5t57 -19.5t57.5 20t31.5 57q6 23 6 63q0 39 -7 70q-8 34 -31 51.5t-57 17.5q-33 0 -56.5 -15t-33.5 -45q-2 -8 -11 -8
h-78q-10 0 -10 10v393q0 10 10 10h341q10 0 10 -10v-63q0 -10 -10 -10h-251q-4 0 -4 -4l-1 -213q0 -5 5 -2q20 20 48.5 30.5t60.5 10.5q54 0 92 -24t56 -71q24 -52 24 -127z" />
    <glyph glyph-name="six" unicode="6" horiz-adv-x="472" 
d="M434 217q0 -50 -12 -89q-14 -65 -61 -100.5t-118 -35.5t-118 35.5t-63 102.5q-10 36 -10 84l-1 317q0 80 52 128.5t137 48.5q80 0 130.5 -48t50.5 -126v-21q0 -10 -10 -10h-76q-10 0 -10 10v14q0 42 -24.5 69t-60.5 27q-41 0 -66.5 -27t-25.5 -72v-119q0 -2 1.5 -3t3.5 1
q36 40 98 40q63 0 106 -33t60 -91q17 -43 17 -102zM337 219q0 44 -12 81q-22 61 -83 61q-31 0 -52.5 -16.5t-31.5 -47.5q-10 -36 -10 -80q0 -42 8 -71q20 -70 86 -70q33 0 55 18.5t31 52.5q9 35 9 72z" />
    <glyph glyph-name="seven" unicode="7" horiz-adv-x="431" 
d="M114 11l198 601q1 2 -0.5 3.5t-3.5 1.5h-200q-4 0 -4 -4v-43q0 -10 -10 -10h-59q-10 0 -10 10v120q0 10 10 10h369q10 0 10 -10v-67q0 -4 -2 -12l-197 -603q-3 -8 -12 -8h-81q-11 0 -8 11z" />
    <glyph glyph-name="eight" unicode="8" horiz-adv-x="478" 
d="M351 368q38 -22 57 -64q21 -43 21 -106q0 -56 -20 -103q-22 -48 -67 -75.5t-105 -27.5q-59 0 -103.5 27.5t-66.5 77.5q-20 46 -20 102t20 103q19 42 57 66q4 3 0 6q-34 21 -52 55q-24 42 -24 96q0 57 25 101q23 41 66 63t99 22q58 0 102 -23t67 -68q22 -42 22 -96
q0 -53 -23 -93q-19 -33 -55 -57q-3 -3 0 -6zM143 516q0 -38 15 -65q11 -23 31.5 -35t48.5 -12q58 0 83 51q14 26 14 62q0 35 -14 61q-12 24 -33 37.5t-50 13.5t-49.5 -13.5t-32.5 -37.5q-13 -25 -13 -62zM334 206q0 34 -12 67q-10 29 -31.5 44.5t-52.5 15.5q-30 0 -51 -16
t-32 -44q-11 -27 -11 -68q0 -44 13 -74q10 -27 31 -41.5t50 -14.5t50 14.5t31 41.5q15 33 15 75z" />
    <glyph glyph-name="nine" unicode="9" horiz-adv-x="468" 
d="M417 169q0 -80 -52 -128.5t-137 -48.5q-80 0 -130.5 48t-50.5 126v21q0 10 10 10h76q10 0 10 -10v-14q0 -42 24.5 -69t60.5 -27q41 0 66.5 27t25.5 72v119q0 2 -1.5 3t-3.5 -1q-36 -40 -98 -40q-63 0 -106 33t-60 91q-17 43 -17 102q0 50 12 89q14 65 61 100.5t118 35.5
t118 -35.5t63 -102.5q10 -36 10 -84zM320 483q0 42 -8 71q-20 70 -86 70q-33 0 -55 -18.5t-31 -52.5t-9 -72q0 -43 12 -81q22 -61 83 -61q31 0 52.5 16.5t31.5 47.5q10 36 10 80z" />
    <glyph glyph-name="colon" unicode=":" horiz-adv-x="291" 
d="M96.5 361q-19.5 20 -19.5 49q0 28 21 48.5t48 20.5t48 -20.5t21 -48.5q0 -29 -20 -49t-49 -20q-30 0 -49.5 20zM96.5 27q-19.5 20 -19.5 50q0 28 21 48.5t48 20.5t48 -20.5t21 -48.5q0 -29 -20 -49.5t-49 -20.5q-30 0 -49.5 20z" />
    <glyph glyph-name="semicolon" unicode=";" horiz-adv-x="260" 
d="M81.5 355q-19.5 20 -19.5 49q0 28 21 48.5t48 20.5t48 -20.5t21 -48.5q0 -29 -20 -49t-49 -20q-30 0 -49.5 20zM69 -79.5q-3 3.5 -2 7.5l23 216q1 9 10 9h68q5 0 7.5 -3t1.5 -8l-43 -216q-1 -9 -11 -9h-46q-5 0 -8 3.5z" />
    <glyph glyph-name="less" unicode="&#x3c;" horiz-adv-x="468" 
d="M432.5 51q-3.5 -2 -8.5 0l-384 180q-7 4 -7 11v68q0 7 7 11l384 180q2 1 5 1q7 0 7 -8v-72q0 -8 -8 -11l-295 -132q-6 -3 0 -6l295 -132q8 -3 8 -11v-72q0 -5 -3.5 -7z" />
    <glyph glyph-name="equal" unicode="=" horiz-adv-x="468" 
d="M32 388v58q0 10 10 10h383q10 0 10 -10v-58q0 -10 -10 -10h-383q-10 0 -10 10zM32 188v58q0 10 10 10h383q10 0 10 -10v-58q0 -10 -10 -10h-383q-10 0 -10 10z" />
    <glyph glyph-name="greater" unicode="&#x3e;" horiz-adv-x="468" 
d="M39 50q-7 0 -7 8v72q0 8 8 11l295 132q6 3 0 6l-295 132q-8 3 -8 11v72q0 5 3.5 7t8.5 0l384 -180q7 -4 7 -11v-68q0 -7 -7 -11l-384 -180q-2 -1 -5 -1z" />
    <glyph glyph-name="question" unicode="?" horiz-adv-x="438" 
d="M155 218v50q0 45 20.5 74t60.5 62q37 31 55.5 56t18.5 64q0 45 -24.5 71.5t-65.5 26.5q-42 0 -68 -27.5t-26 -72.5v-26q0 -10 -10 -10l-76 4q-10 0 -10 10v22q0 84 53 135.5t139 51.5q84 0 134 -49.5t50 -132.5q0 -44 -13.5 -76t-32 -52t-48.5 -45q-31 -26 -46 -45
t-15 -46v-45q0 -10 -10 -10h-76q-10 0 -10 10zM162 20q-19 19 -19 46t19.5 46t45.5 19t45.5 -19t19.5 -46t-19.5 -46t-45.5 -19q-27 0 -46 19z" />
    <glyph glyph-name="at" unicode="@" horiz-adv-x="791" 
d="M596.5 594q69.5 -36 108 -102t38.5 -153q0 -17 -4 -53q-13 -96 -60.5 -148.5t-119.5 -52.5q-33 0 -59 11.5t-41 32.5q-4 4 -6 0q-17 -22 -41.5 -32.5t-49.5 -10.5q-53 0 -86.5 28t-34.5 75q-1 28 6 82q6 46 14 76q13 50 46.5 77.5t80.5 27.5q20 0 38.5 -7t31.5 -21
q1 -2 3 -1.5t2 2.5l2 13q1 9 10 9h47q5 0 8 -3.5t2 -7.5l-26 -198q-1 -6 -1 -17q0 -34 17 -53.5t46 -19.5q39 0 65.5 36.5t34.5 100.5q4 34 4 50q0 71 -30 124t-84.5 81t-126.5 28q-78 0 -146.5 -37t-113.5 -107t-53 -163q-2 -26 -2 -37q0 -75 30 -131t83.5 -86.5
t120.5 -30.5q48 0 89 12t66 31q3 3 7 3t7 -5l23 -33q2 -4 2 -7q0 -4 -4 -7q-34 -25 -88 -41t-113 -16q-85 0 -150.5 38t-102 108t-36.5 163q0 31 2 47q10 107 65.5 189t140 127t179.5 45q90 0 159.5 -36zM406.5 159.5q17.5 15.5 24.5 41.5q7 23 12 68q6 51 6 70
q0 24 -15 39.5t-39 15.5q-25 0 -44 -15.5t-26 -40.5q-7 -27 -12 -70q-6 -50 -5 -67q0 -26 15 -41.5t41 -15.5q25 0 42.5 15.5z" />
    <glyph glyph-name="A" unicode="A" horiz-adv-x="550" 
d="M420 9l-29 116q0 3 -5 3h-221q-4 0 -5 -3l-30 -116q-1 -9 -11 -9h-78q-5 0 -7.5 3t-1.5 8l185 680q2 9 11 9h94q9 0 11 -9l186 -680l1 -3q0 -8 -10 -8h-79q-9 0 -11 9zM181.5 205.5q1.5 -1.5 3.5 -1.5h180q2 0 3.5 1.5t0.5 2.5l-91 360q-1 2 -2 2t-2 -2l-93 -360
q-1 -1 0.5 -2.5z" />
    <glyph glyph-name="B" unicode="B" horiz-adv-x="540" 
d="M438 50q-56 -50 -148 -50h-208q-10 0 -10 10v680q0 10 10 10h197q97 0 152 -47.5t55 -138.5q0 -107 -88 -149q-5 -3 0 -5q46 -24 70.5 -66t24.5 -102q1 -92 -55 -142zM168 613v-211q0 -4 4 -4h108q52 0 81.5 28.5t29.5 78.5q0 53 -29.5 82.5t-81.5 29.5h-108q-4 0 -4 -4z
M367.5 115.5q29.5 31.5 29.5 86.5t-30 87.5t-82 32.5h-113q-4 0 -4 -4v-230q0 -4 4 -4h114q52 0 81.5 31.5z" />
    <glyph glyph-name="C" unicode="C" horiz-adv-x="530" 
d="M156.5 17.5q-48.5 25.5 -75 72t-26.5 107.5v307q0 93 58.5 148.5t154.5 55.5t154 -55t58 -146v-8q0 -5 -3 -8t-7 -3l-76 -4q-10 0 -10 10v15q0 52 -32 84t-84 32t-84.5 -32t-32.5 -84v-318q0 -52 32.5 -84t84.5 -32t84 32t32 84v14q0 10 10 10l76 -4q10 0 10 -8v-9
q0 -60 -26.5 -106t-74.5 -71t-111 -25t-111.5 25.5z" />
    <glyph glyph-name="D" unicode="D" horiz-adv-x="544" 
d="M72 10v680q0 10 10 10h203q93 0 148.5 -53t55.5 -141v-312q0 -88 -55.5 -141t-148.5 -53h-203q-10 0 -10 10zM172 83l115 1q48 0 76.5 32.5t29.5 87.5v292q0 56 -29 88.5t-78 32.5h-114q-4 0 -4 -4v-526q0 -4 4 -4z" />
    <glyph glyph-name="E" unicode="E" horiz-adv-x="515" 
d="M462 617h-290q-4 0 -4 -4v-216q0 -4 4 -4h191q10 0 10 -10v-63q0 -10 -10 -10h-191q-4 0 -4 -4v-219q0 -4 4 -4h290q10 0 10 -10v-63q0 -10 -10 -10h-380q-10 0 -10 10v680q0 10 10 10h380q10 0 10 -10v-63q0 -10 -10 -10z" />
    <glyph glyph-name="F" unicode="F" horiz-adv-x="487" 
d="M461 617h-289q-4 0 -4 -4v-216q0 -4 4 -4h190q10 0 10 -10v-63q0 -10 -10 -10h-190q-4 0 -4 -4v-296q0 -10 -10 -10h-76q-10 0 -10 10v680q0 10 10 10h379q10 0 10 -10v-63q0 -10 -10 -10z" />
    <glyph glyph-name="G" unicode="G" horiz-adv-x="529" 
d="M114 47.5q-58 55.5 -58 146.5v312q0 91 58 146.5t153 55.5q63 0 111 -24.5t74.5 -69.5t26.5 -102v-27q0 -10 -10 -10h-76q-10 0 -10 10v27q0 50 -31.5 81.5t-84.5 31.5q-52 0 -84 -32.5t-32 -84.5v-316q0 -52 32.5 -84.5t85.5 -32.5q52 0 83 30t31 81v93q0 4 -4 4h-105
q-10 0 -10 10v62q0 10 10 10h195q10 0 10 -10v-156q0 -97 -57.5 -152t-154.5 -55q-95 0 -153 55.5z" />
    <glyph glyph-name="H" unicode="H" horiz-adv-x="560" 
d="M404 700h76q10 0 10 -10v-680q0 -10 -10 -10h-76q-10 0 -10 10v296q0 4 -4 4h-218q-4 0 -4 -4v-296q0 -10 -10 -10h-76q-10 0 -10 10v680q0 10 10 10h76q10 0 10 -10v-293q0 -4 4 -4h218q4 0 4 4v293q0 10 10 10z" />
    <glyph glyph-name="I" unicode="I" horiz-adv-x="240" 
d="M72 10v680q0 10 10 10h76q10 0 10 -10v-680q0 -10 -10 -10h-76q-10 0 -10 10z" />
    <glyph glyph-name="J" unicode="J" horiz-adv-x="509" 
d="M121 16.5q-47 24.5 -73 69t-26 102.5v63q0 10 10 10h76q10 0 10 -10v-64q0 -50 30.5 -81t80.5 -31t81 31t31 81v503q0 10 10 10h76q10 0 10 -10v-502q0 -58 -26 -102.5t-73 -69t-109 -24.5q-61 0 -108 24.5z" />
    <glyph glyph-name="K" unicode="K" horiz-adv-x="541" 
d="M72 10v680q0 10 10 10h76q10 0 10 -10v-310q0 -2 2 -2.5t3 1.5l229 315q4 6 12 6h83q6 0 8.5 -4t-1.5 -8l-195 -279q-1 -3 0 -6l211 -391q1 -2 1 -5t-2.5 -5t-6.5 -2h-85q-9 0 -12 7l-173 320q-2 6 -5 1l-67 -88q-2 -2 -2 -5v-225q0 -10 -10 -10h-76q-10 0 -10 10z" />
    <glyph glyph-name="L" unicode="L" horiz-adv-x="488" 
d="M72 10v680q0 10 10 10h76q10 0 10 -10v-603q0 -4 4 -4h284q10 0 10 -10v-63q0 -10 -10 -10h-374q-10 0 -10 10z" />
    <glyph glyph-name="M" unicode="M" horiz-adv-x="618" 
d="M72 10v680q0 10 10 10h76q9 0 12 -7l136 -279q1 -2 3 -2t3 2l137 279q3 7 12 7h76q10 0 10 -10v-680q0 -10 -10 -10h-76q-10 0 -10 10v476q0 3 -1.5 3t-3.5 -2l-107 -216q-3 -7 -12 -7h-34q-9 0 -12 7l-108 217q-2 2 -3.5 1.5t-1.5 -3.5v-476q0 -10 -10 -10h-76
q-10 0 -10 10z" />
    <glyph glyph-name="N" unicode="N" horiz-adv-x="584" 
d="M72 10v680q0 10 10 10h75q9 0 12 -7l244 -471q2 -2 3.5 -2t1.5 3v467q0 10 10 10h75q10 0 10 -10v-680q0 -10 -10 -10h-76q-9 0 -12 7l-243 473q-2 2 -3.5 2t-1.5 -3l1 -469q0 -10 -10 -10h-76q-10 0 -10 10z" />
    <glyph glyph-name="O" unicode="O" horiz-adv-x="542" 
d="M157.5 17.5q-48.5 26.5 -75.5 74.5t-27 111v294q0 62 27 110t75.5 74.5t112.5 26.5t113 -26.5t76 -74.5t27 -110v-294q0 -63 -27 -111t-76 -74.5t-113 -26.5t-112.5 26.5zM357 109q33 34 33 90v300q0 56 -33 91t-87 35q-53 0 -86 -35t-33 -91v-300q0 -55 33 -89.5
t86 -34.5q54 0 87 34z" />
    <glyph glyph-name="P" unicode="P" horiz-adv-x="522" 
d="M439.5 645.5q51.5 -55.5 51.5 -146.5q0 -89 -51.5 -143.5t-136.5 -54.5h-134q-4 0 -4 -4v-287q0 -10 -10 -10h-76q-10 0 -10 10v681q0 10 10 10h224q85 0 136.5 -55.5zM366.5 410.5q29.5 32.5 29.5 86.5q0 55 -29.5 88t-77.5 33h-120q-4 0 -4 -4v-232q0 -4 4 -4h120
q48 0 77.5 32.5z" />
    <glyph glyph-name="Q" unicode="Q" horiz-adv-x="516" 
d="M367 681.5q47 -26.5 73 -74.5t26 -110v-297q0 -79 -42 -133.5t-114 -69.5q-4 -1 -4 -5v-91q0 -10 -10 -10h-76q-10 0 -10 10v91q0 4 -4 5q-72 15 -114 69.5t-42 133.5v297q0 62 26 110t73.5 74.5t108.5 26.5q62 0 109 -26.5zM370 504q0 54 -31 87.5t-81 33.5t-81 -33.5
t-31 -87.5v-308q0 -54 31 -87.5t81 -33.5t81 33.5t31 87.5v308z" />
    <glyph glyph-name="R" unicode="R" horiz-adv-x="533" 
d="M399 8l-117 300q-1 3 -4 3h-106q-4 0 -4 -4v-297q0 -10 -10 -10h-76q-10 0 -10 10v681q0 10 10 10h224q84 0 135 -55t51 -144q0 -67 -31 -114.5t-86 -66.5q-3 -1 -2 -5l123 -304l1 -4q0 -8 -9 -8h-78q-8 0 -11 8zM168 614v-224q0 -4 4 -4h121q46 0 74.5 31.5t28.5 83.5
q0 53 -28 85t-75 32h-121q-4 0 -4 -4z" />
    <glyph glyph-name="S" unicode="S" horiz-adv-x="511" 
d="M106 43.5q-58 51.5 -58 135.5v28q0 10 10 10h74q10 0 10 -10v-23q0 -48 33 -78.5t88 -30.5q52 0 81.5 27.5t29.5 72.5q0 30 -15 52t-43.5 41t-83.5 48q-61 32 -97 57t-60 63t-24 92q0 84 55 132t145 48q64 0 112 -24t74.5 -67.5t26.5 -100.5v-23q0 -10 -10 -10h-75
q-10 0 -10 10v21q0 49 -32 80t-88 31q-48 0 -76 -25t-28 -71q0 -30 14 -51t41.5 -39t82.5 -47q69 -39 105 -64t58.5 -61t22.5 -87q0 -86 -57 -137t-152 -51q-96 0 -154 51.5z" />
    <glyph glyph-name="T" unicode="T" horiz-adv-x="507" 
d="M473 690v-64q0 -10 -10 -10h-161q-4 0 -4 -4v-602q0 -10 -10 -10h-76q-10 0 -10 10v602q0 4 -4 4h-154q-10 0 -10 10v64q0 10 10 10h419q10 0 10 -10z" />
    <glyph glyph-name="U" unicode="U" horiz-adv-x="559" 
d="M167.5 18.5q-48.5 26.5 -75 75t-26.5 112.5v484q0 10 10 10h76q10 0 10 -10v-490q0 -56 32.5 -90.5t84.5 -34.5q53 0 85.5 34.5t32.5 90.5v490q0 10 10 10h76q10 0 10 -10v-484q0 -64 -26.5 -112.5t-75 -75t-112.5 -26.5q-63 0 -111.5 26.5z" />
    <glyph glyph-name="V" unicode="V" horiz-adv-x="529" 
d="M211 9l-179 680l-1 3q0 8 10 8h82q10 0 11 -9l130 -536q1 -3 2 -3t2 3l130 536q2 9 11 9h79q5 0 7.5 -3t1.5 -8l-181 -680q-2 -9 -11 -9h-83q-9 0 -11 9z" />
    <glyph glyph-name="W" unicode="W" horiz-adv-x="758" 
d="M184 9l-159 680l-1 4q0 7 9 7h80q10 0 11 -9l107 -484q1 -3 2 -3t2 3l97 484q2 9 11 9h73q10 0 11 -9l104 -484q1 -3 2 -3t2 3l102 484q2 9 11 9h77q5 0 7.5 -3t1.5 -8l-153 -680q-1 -9 -11 -9h-75q-9 0 -11 9l-103 495q-1 3 -2 3t-2 -3l-99 -495q-1 -9 -11 -9h-72
q-9 0 -11 9z" />
    <glyph glyph-name="X" unicode="X" horiz-adv-x="526" 
d="M35 3.5q-2 3.5 0 8.5l173 335q2 3 0 6l-173 335q-1 2 -1 5q0 7 8 7h81q9 0 12 -7l126 -253q1 -2 3 -2t3 2l124 253q3 7 12 7h81q5 0 7 -3.5t0 -8.5l-173 -336q-1 -3 0 -6l173 -334q1 -2 1 -5q0 -7 -8 -7h-80q-9 0 -12 7l-125 253q-1 2 -3 2t-3 -2l-126 -253q-3 -7 -12 -7
h-81q-5 0 -7 3.5z" />
    <glyph glyph-name="Y" unicode="Y" horiz-adv-x="514" 
d="M209 11v284q0 4 -1 5l-174 388l-1 4q0 8 9 8h81q8 0 11 -8l120 -284q1 -2 3 -2t3 2l119 284q3 8 11 8h82q5 0 7.5 -3.5t0.5 -8.5l-175 -388q-1 -1 -1 -5v-284q0 -10 -10 -10h-75q-10 0 -10 10z" />
    <glyph glyph-name="Z" unicode="Z" horiz-adv-x="476" 
d="M35 10v68q0 7 3 13l291 521q1 2 0.5 3.5t-2.5 1.5h-282q-10 0 -10 10v63q0 10 10 10h381q10 0 10 -10v-68q0 -7 -3 -13l-292 -521q-1 -2 -0.5 -3.5t2.5 -1.5h283q10 0 10 -10v-63q0 -10 -10 -10h-381q-10 0 -10 10z" />
    <glyph glyph-name="bracketleft" unicode="[" horiz-adv-x="355" 
d="M30 -120v894q0 10 10 10h192q10 0 10 -10v-64q0 -10 -10 -10h-102q-4 0 -4 -4v-739q0 -4 4 -4h103q10 0 10 -10v-63q0 -10 -10 -10h-193q-10 0 -10 10z" />
    <glyph glyph-name="backslash" unicode="\" horiz-adv-x="361" 
d="M336 7q0 -7 -9 -7h-75q-9 0 -12 8l-214 681l-1 4q0 7 9 7h75q9 0 12 -8l214 -681z" />
    <glyph glyph-name="bracketright" unicode="]" horiz-adv-x="355" 
d="M315 -130h-193q-10 0 -10 10v63q0 10 10 10h103q4 0 4 4v739q0 4 -4 4h-102q-10 0 -10 10v64q0 10 10 10h192q10 0 10 -10v-894q0 -10 -10 -10z" />
    <glyph glyph-name="asciicircum" unicode="^" horiz-adv-x="432" 
d="M36 315l135 377q3 8 12 8h64q9 0 12 -8l137 -377l1 -4q0 -7 -9 -7h-62q-9 0 -12 8l-95 282q-1 2 -3 2t-3 -2l-95 -282q-3 -8 -12 -8h-62q-11 0 -8 11z" />
    <glyph glyph-name="underscore" unicode="_" horiz-adv-x="445" 
d="M22 10v55q0 10 10 10h381q10 0 10 -10v-55q0 -10 -10 -10h-381q-10 0 -10 10z" />
    <glyph glyph-name="grave" unicode="`" horiz-adv-x="210" 
d="M182 582q0 -6 -9 -6h-59q-7 0 -12 6l-72 109l-2 5q0 7 9 7h71q8 0 12 -7l60 -108q2 -4 2 -6z" />
    <glyph glyph-name="a" unicode="a" horiz-adv-x="470" 
d="M368.5 470.5q50.5 -46.5 50.5 -121.5v-339q0 -10 -10 -10h-76q-10 0 -10 10v29q0 5 -5 2q-46 -49 -127 -49q-64 0 -109.5 35t-45.5 115q0 82 53 124.5t145 42.5h85q4 0 4 4v28q0 43 -22.5 68t-64.5 25q-34 0 -55.5 -16.5t-26.5 -44.5q-1 -9 -11 -9l-81 5q-4 0 -7 2.5
t-2 6.5q6 62 56.5 100.5t125.5 38.5q83 0 133.5 -46.5zM290.5 99q32.5 25 32.5 67v64q0 4 -4 4h-77q-50 0 -79.5 -22t-29.5 -64q0 -37 22.5 -55.5t58.5 -18.5q44 0 76.5 25z" />
    <glyph glyph-name="b" unicode="b" horiz-adv-x="489" 
d="M443 254q0 -63 -12 -115q-17 -74 -55 -110.5t-101 -36.5q-74 0 -112 53q-1 2 -3 1t-2 -3v-33q0 -10 -10 -10h-76q-10 0 -10 10v680q0 10 10 10h76q10 0 10 -10v-223q0 -3 2 -3.5t3 2.5q35 51 108 51q133 0 162 -150q10 -50 10 -113zM346 255q0 72 -15 114
q-10 30 -31 47.5t-51 17.5q-58 0 -78 -67q-13 -40 -13 -112q0 -71 12 -111q20 -69 80 -69q64 0 84 70q12 40 12 110z" />
    <glyph glyph-name="c" unicode="c" horiz-adv-x="470" 
d="M116.5 32.5q-49.5 40.5 -60.5 110.5q-7 45 -7 113q0 59 7 111q11 68 61 109t126 41q74 0 125 -39t61 -100l4 -24q0 -9 -10 -11l-75 -6h-2q-6 0 -8 7l-1 4l-2 12q-5 31 -30 52.5t-63 21.5t-62.5 -23t-29.5 -61q-5 -42 -5 -95q0 -59 6 -97q5 -38 29 -60.5t62 -22.5
q39 0 64 21.5t29 53.5l1 10q1 10 11 9l75 -5q10 0 10 -11l-3 -17q-8 -64 -59 -104t-127 -40q-77 0 -126.5 40.5z" />
    <glyph glyph-name="d" unicode="d" horiz-adv-x="489" 
d="M341 700h76q10 0 10 -10v-680q0 -10 -10 -10h-76q-10 0 -10 10v33q0 2 -2 3t-3 -1q-38 -53 -112 -53q-63 0 -101 36.5t-55 110.5q-12 52 -12 115t10 113q29 150 162 150q73 0 108 -51q1 -3 3 -2.5t2 3.5v223q0 10 10 10zM331 255q0 72 -13 112q-20 67 -78 67
q-30 0 -51 -17.5t-31 -47.5q-15 -42 -15 -114q0 -70 12 -110q20 -70 84 -70q60 0 80 69q12 40 12 111z" />
    <glyph glyph-name="e" unicode="e" horiz-adv-x="478" 
d="M306.5 92.5q24.5 17.5 36.5 46.5q3 9 12 6l61 -17q10 -3 7 -13q-17 -57 -63.5 -90t-116.5 -33q-74 0 -121.5 37.5t-58.5 102.5q-13 53 -13 124q0 68 5 107q9 70 58.5 112t126.5 42q87 0 135 -46.5t55 -128.5q4 -48 4 -114q0 -10 -10 -10h-275q-4 0 -4 -4q2 -39 4 -55
q5 -38 32 -61t67 -23q34 0 58.5 17.5zM179 412q-24 -22 -29 -58q-4 -32 -4 -55q0 -4 4 -4h184q4 0 4 4q-2 36 -4 51q-5 38 -30 61t-64 23q-37 0 -61 -22z" />
    <glyph glyph-name="f" unicode="f" horiz-adv-x="326" 
d="M206.5 599.5q-16.5 -20.5 -16.5 -69.5v-17q0 -4 4 -4h87q10 0 10 -10v-59q0 -10 -10 -10h-87q-4 0 -4 -4v-416q0 -10 -10 -10h-76q-10 0 -10 10v416q0 4 -4 4h-52q-10 0 -10 10v59q0 10 10 10h52q4 0 4 4v22q0 63 16 99.5t51.5 52.5t97.5 16h23q10 0 10 -10l-1 -63
q0 -10 -10 -10h-17q-41 0 -57.5 -20.5z" />
    <glyph glyph-name="g" unicode="g" horiz-adv-x="483" 
d="M342 509h76q10 0 10 -10v-479q0 -222 -238 -222q-21 0 -32 1q-10 1 -10 11l2 67q0 5 3 7.5t7 1.5q94 -4 133 29t39 112v19q0 2 -1.5 3t-3.5 -1q-39 -48 -109 -48q-65 0 -109.5 38.5t-54.5 107.5q-6 32 -6 109q0 83 7 116q9 67 51.5 106.5t107.5 39.5q72 0 113 -47
q2 -2 3.5 -1t1.5 3v27q0 10 10 10zM332 256q0 56 -3 95q-4 36 -28 59.5t-61 23.5q-36 0 -60.5 -23.5t-29.5 -59.5q-6 -39 -6 -95q0 -52 5 -92q5 -37 30 -60t62 -23t61 23t28 59q2 52 2 93z" />
    <glyph glyph-name="h" unicode="h" horiz-adv-x="487" 
d="M389 471q41 -45 41 -124v-337q0 -10 -10 -10h-76q-10 0 -10 10v323q0 46 -23.5 73t-63.5 27q-41 0 -65.5 -27.5t-24.5 -73.5v-322q0 -10 -10 -10h-76q-10 0 -10 10v680q0 10 10 10h76q10 0 10 -10v-222q0 -3 1.5 -3.5t3.5 2.5q39 49 114 49q72 0 113 -45z" />
    <glyph glyph-name="i" unicode="i" horiz-adv-x="231" 
d="M70 602.5q-18 17.5 -18 45.5t18 45.5t46 17.5t45.5 -17.5t17.5 -45.5t-17.5 -45.5t-45.5 -17.5t-46 17.5zM68 10v489q0 10 10 10h76q10 0 10 -10v-489q0 -10 -10 -10h-76q-10 0 -10 10z" />
    <glyph glyph-name="j" unicode="j" horiz-adv-x="220" 
d="M65.5 602q-17.5 18 -17.5 45t19 45t44 18q26 0 45 -18t19 -45t-18 -45t-46 -18t-45.5 18zM-41 -197v63q0 10 13 10q48 0 69.5 24t21.5 71v528q0 10 10 10h76q10 0 10 -10v-527q0 -63 -16.5 -101.5t-57.5 -58t-116 -19.5q-10 0 -10 10z" />
    <glyph glyph-name="k" unicode="k" horiz-adv-x="467" 
d="M61 10v680q0 10 10 10h76q10 0 10 -10v-382q0 -2 2 -3t3 1l156 197q5 6 13 6h84q6 0 8 -3.5t-2 -8.5l-116 -151q-2 -4 -1 -6l136 -328l1 -4q0 -8 -9 -8h-80q-8 0 -11 8l-100 262q-2 6 -5 1l-77 -96q-2 -4 -2 -5v-160q0 -10 -10 -10h-76q-10 0 -10 10z" />
    <glyph glyph-name="l" unicode="l" horiz-adv-x="215" 
d="M59 10v680q0 10 10 10h76q10 0 10 -10v-680q0 -10 -10 -10h-76q-10 0 -10 10z" />
    <glyph glyph-name="m" unicode="m" horiz-adv-x="741" 
d="M647.5 471q38.5 -45 38.5 -125v-336q0 -10 -10 -10h-75q-10 0 -10 10v322q0 47 -22.5 74t-61.5 27t-62.5 -26.5t-23.5 -72.5v-324q0 -10 -10 -10h-75q-10 0 -10 10v322q0 47 -23 74t-61 27q-39 0 -62.5 -26.5t-23.5 -72.5v-324q0 -10 -10 -10h-75q-10 0 -10 10v489
q0 10 10 10h75q10 0 10 -10v-30q0 -2 1.5 -3t3.5 1q41 49 114 49q44 0 76 -18t49 -53q3 -4 6 1q22 36 57.5 53t75.5 17q70 0 108.5 -45z" />
    <glyph glyph-name="n" unicode="n" horiz-adv-x="487" 
d="M389 471q41 -45 41 -124v-337q0 -10 -10 -10h-76q-10 0 -10 10v323q0 46 -23.5 73t-63.5 27q-41 0 -65.5 -27.5t-24.5 -73.5v-322q0 -10 -10 -10h-76q-10 0 -10 10v489q0 10 10 10h76q10 0 10 -10v-31q0 -3 1.5 -3.5t3.5 2.5q39 49 114 49q72 0 113 -45z" />
    <glyph glyph-name="o" unicode="o" horiz-adv-x="490" 
d="M119.5 32q-50.5 40 -61.5 110q-9 58 -9 113q0 62 8 112q11 69 61.5 109.5t127.5 40.5q75 0 124.5 -40.5t61.5 -108.5q9 -59 9 -112q0 -55 -9 -114q-12 -70 -61.5 -110t-124.5 -40q-76 0 -126.5 40zM307 98q25 23 31 61q6 42 6 96q0 50 -5 95q-6 38 -31.5 61t-62.5 23
t-62.5 -23t-31.5 -61q-5 -45 -5 -95q0 -51 5 -96q6 -38 31.5 -61t63.5 -23q36 0 61 23z" />
    <glyph glyph-name="p" unicode="p" horiz-adv-x="494" 
d="M448 255q0 -63 -10 -113q-29 -150 -162 -150q-73 0 -108 51q-1 3 -3 2.5t-2 -3.5v-223q0 -10 -10 -10h-76q-10 0 -10 10v680q0 10 10 10h76q10 0 10 -10v-33q0 -2 2 -3t3 1q38 53 112 53q63 0 101 -36.5t55 -110.5q12 -52 12 -115zM351 254q0 70 -12 110q-20 70 -84 70
q-60 0 -80 -69q-12 -40 -12 -111q0 -72 13 -112q20 -67 78 -67q30 0 51 17.5t31 47.5q15 42 15 114z" />
    <glyph glyph-name="q" unicode="q" horiz-adv-x="494" 
d="M341 509h76q10 0 10 -10v-680q0 -10 -10 -10h-76q-10 0 -10 10v223q0 3 -2 3.5t-3 -2.5q-34 -51 -108 -51q-133 0 -162 150q-10 50 -10 113t12 115q17 74 55 110.5t101 36.5q74 0 112 -53q1 -2 3 -1t2 3v33q0 10 10 10zM331 254q0 71 -12 111q-20 69 -80 69
q-64 0 -84 -70q-12 -40 -12 -110q0 -72 15 -114q10 -30 31 -47.5t51 -17.5q58 0 78 67q13 40 13 112z" />
    <glyph glyph-name="r" unicode="r" horiz-adv-x="338" 
d="M319 503q7 -4 5 -13l-15 -76q-1 -9 -12 -6q-13 6 -34 6q-10 0 -16 -1q-39 -3 -64.5 -34t-25.5 -77v-292q0 -10 -10 -10h-76q-10 0 -10 10v489q0 10 10 10h76q10 0 10 -10v-55q0 -3 1.5 -3.5t2.5 1.5q37 72 108 72q30 0 50 -11z" />
    <glyph glyph-name="s" unicode="s" horiz-adv-x="437" 
d="M91.5 32q-49.5 38 -49.5 98v10q0 10 10 10h72q10 0 10 -8v-8q0 -28 25.5 -47.5t64.5 -19.5q38 0 61 19t23 47q0 22 -13.5 36t-33 22.5t-57.5 21.5q-47 15 -79.5 31.5t-55.5 47t-23 77.5q0 67 47.5 106t126.5 39q81 0 129.5 -40t48.5 -105v-2q0 -10 -10 -10h-70
q-10 0 -10 7v7q0 29 -24 48t-63 19q-37 0 -60 -18t-23 -46q0 -21 13 -34.5t32.5 -22.5t57.5 -22q50 -17 82.5 -33t56.5 -46t24 -77q0 -67 -49 -106t-132 -39q-82 0 -131.5 38z" />
    <glyph glyph-name="t" unicode="t" horiz-adv-x="322" 
d="M276 435h-89q-4 0 -4 -4v-272q0 -41 16.5 -58t51.5 -17h19q10 0 10 -10v-63q0 -10 -10 -10l-39 -1q-70 0 -105.5 26.5t-35.5 98.5v306q0 4 -4 4h-49q-10 0 -10 10v54q0 10 10 10h49q4 0 4 4v115q0 10 10 10h73q10 0 10 -10v-115q0 -4 4 -4h89q10 0 10 -10v-54
q0 -10 -10 -10z" />
    <glyph glyph-name="u" unicode="u" horiz-adv-x="485" 
d="M338 509h76q10 0 10 -10v-489q0 -10 -10 -10h-76q-10 0 -10 10v31q0 2 -1.5 3t-3.5 -1q-35 -50 -110 -50q-68 0 -112.5 40t-44.5 116v350q0 10 10 10h75q10 0 10 -10v-324q0 -47 22.5 -73t64.5 -26q41 0 65.5 27.5t24.5 74.5v321q0 10 10 10z" />
    <glyph glyph-name="v" unicode="v" horiz-adv-x="445" 
d="M169 8l-144 490l-1 3q0 8 10 8h84q10 0 11 -9l92 -360q1 -2 2 -2t2 2l91 360q2 9 11 9l84 -1q5 0 7.5 -3t1.5 -8l-143 -489q-3 -8 -11 -8h-86q-8 0 -11 8z" />
    <glyph glyph-name="w" unicode="w" horiz-adv-x="659" 
d="M150 9l-125 489l-1 4q0 7 9 7h76q10 0 11 -9l78 -361q1 -3 2 -3t2 3l81 361q2 9 11 9h68q9 0 11 -9l82 -361q1 -3 2 -3t2 3l81 361q2 9 11 9l75 -1q5 0 7.5 -3t0.5 -8l-126 -488q-1 -9 -11 -9h-76q-9 0 -11 9l-81 333q-1 3 -2 3t-2 -3l-78 -333q-2 -9 -11 -9h-75
q-9 0 -11 9z" />
    <glyph glyph-name="x" unicode="x" horiz-adv-x="449" 
d="M23 3.5q-2 3.5 1 8.5l142 239q2 3 0 6l-142 240q-2 4 -2 6q0 6 9 6h82q7 0 12 -7l95 -163q1 -1 3 -1t3 1l95 163q5 7 12 7h85q6 0 8 -3.5t-1 -8.5l-142 -240q-1 -3 0 -6l142 -239q2 -4 2 -6q0 -6 -9 -6h-82q-7 0 -12 7l-95 164q-1 2 -3 2t-3 -2l-95 -164q-5 -7 -12 -7
h-85q-6 0 -8 3.5z" />
    <glyph glyph-name="y" unicode="y" horiz-adv-x="432" 
d="M42 -190v61q0 4 2 7t4 3h5q36 0 56.5 9t33.5 33.5t24 73.5q1 1 0.5 3.5l-0.5 2.5l-147 495l-1 3q0 8 10 8h80q10 0 11 -9l94 -363q1 -2 2.5 -2t2.5 2l92 363q2 9 11 9l81 -1q5 0 7.5 -3t1.5 -8l-159 -532q-21 -69 -42.5 -103t-56.5 -48t-100 -14h-6q-6 0 -6 10z" />
    <glyph glyph-name="z" unicode="z" horiz-adv-x="408" 
d="M29 10v70q0 8 4 13l226 323q1 1 0 3t-3 2h-212q-10 0 -10 10v68q0 10 10 10h321q10 0 10 -10v-71q0 -8 -4 -13l-230 -323q-1 -1 0 -3t3 -2h224q10 0 10 -10v-67q0 -10 -10 -10h-329q-10 0 -10 10z" />
    <glyph glyph-name="braceleft" unicode="{" horiz-adv-x="313" 
d="M94 -13v213q0 43 -13 64.5t-41 25.5q-10 1 -10 11v57q0 10 10 11q28 4 41 26t13 63v208q0 118 111 118h69q10 0 10 -10v-64q0 -10 -10 -10h-30q-26 0 -40 -18t-14 -52v-182q0 -47 -12.5 -74.5t-39.5 -41.5q-2 -1 -2 -2t2 -2q27 -13 39.5 -41.5t12.5 -75.5v-187
q0 -35 14 -53t40 -18h30q10 0 10 -10v-63q0 -10 -10 -10h-69q-111 0 -111 117z" />
    <glyph glyph-name="bar" unicode="|" horiz-adv-x="169" 
d="M36 -70v820q0 10 10 10h76q10 0 10 -10v-820q0 -10 -10 -10h-76q-10 0 -10 10z" />
    <glyph glyph-name="braceright" unicode="}" horiz-adv-x="313" 
d="M39 -130q-10 0 -10 10v63q0 10 10 10h30q26 0 40 18t14 53v187q0 47 12.5 75.5t39.5 41.5q2 1 2 2t-2 2q-27 14 -39.5 41.5t-12.5 74.5v182q0 34 -14 52t-40 18h-30q-10 0 -10 10v64q0 10 10 10h69q111 0 111 -118v-208q0 -41 13 -63t41 -26q10 -1 10 -11v-57
q0 -10 -10 -11q-28 -4 -41 -25.5t-13 -64.5v-213q0 -117 -111 -117h-69z" />
    <glyph glyph-name="asciitilde" unicode="~" horiz-adv-x="492" 
d="M289 229q-20 8 -47 23q-26 15 -41.5 21.5t-34.5 6.5q-44 0 -71 -40q-2 -4 -6 -5t-8 1l-41 27q-8 6 -5 13q16 39 50 63.5t76 24.5q23 0 41 -6.5t42 -19.5q28 -17 45.5 -25t40.5 -8q20 0 34 10t28 29q6 8 14 3l46 -30q8 -6 4 -13q-20 -37 -51 -60t-69 -23q-27 0 -47 8z" />
    <glyph glyph-name="uni00A0" unicode="&#xa0;" horiz-adv-x="200" 
 />
    <glyph glyph-name="exclamdown" unicode="&#xa1;" horiz-adv-x="298" 
d="M196 688q20 -20 20 -49q0 -28 -21 -48.5t-48 -20.5t-48 20.5t-21 48.5q0 29 19.5 49t49.5 20q29 0 49 -20zM120 479h58q10 0 10 -10l9 -448q0 -10 -10 -10h-76q-10 0 -10 10l9 448q0 10 10 10z" />
    <glyph glyph-name="cent" unicode="&#xa2;" horiz-adv-x="470" 
d="M336 250q1 10 11 9l75 -5q10 0 10 -11l-3 -17q-8 -56 -48 -94t-101 -47q-4 -1 -4 -5l2 -69q0 -10 -10 -10h-62q-10 0 -10 10l2 71q0 4 -4 5q-57 12 -93 50t-45 96q-7 45 -7 113q0 59 7 111q9 57 45 95t93 50q4 1 4 5l-2 71q0 10 10 10h62q10 0 10 -10l-2 -69q0 -4 4 -5
q60 -10 100 -46.5t49 -89.5l4 -24q0 -9 -10 -11l-75 -6h-2q-6 0 -8 7l-1 4l-2 12q-5 31 -30 52.5t-63 21.5t-62.5 -23t-29.5 -61q-5 -42 -5 -95q0 -59 6 -97q5 -38 29 -60.5t62 -22.5q39 0 64 21.5t29 53.5z" />
    <glyph glyph-name="sterling" unicode="&#xa3;" horiz-adv-x="558" 
d="M210 84.5q1 -1.5 3 -1.5h304q10 0 10 -10v-63q0 -10 -10 -10h-405q-10 0 -10 10v65q0 8 6 12q43 34 43 112v98q0 4 -4 4h-65q-10 0 -10 10v58q0 10 10 10h65q4 0 4 4v121q0 96 52 150t142 54q68 0 112.5 -37.5t62.5 -107.5l1 -4q0 -6 -8 -8l-73 -11h-2q-7 0 -9 8
q-11 40 -32 58.5t-54 18.5q-46 0 -71 -30t-25 -88v-124q0 -4 4 -4h165q10 0 10 -10v-58q0 -10 -10 -10h-165q-4 0 -4 -4v-96q0 -37 -9.5 -66t-26.5 -47q-2 -2 -1 -3.5z" />
    <glyph glyph-name="currency" unicode="&#xa4;" horiz-adv-x="536" 
d="M439 192q-2 -3 1 -6l65 -65q3 -3 3 -6q0 -4 -4 -8l-47 -42q-3 -3 -6 -3q-4 0 -8 4l-63 62q-2 2 -6 0q-48 -31 -110 -31q-59 0 -106 29q-3 2 -6 -1l-59 -59q-7 -7 -14 -1l-48 42q-7 8 -1 14l61 61q3 3 1 6q-35 51 -35 114q0 61 33 111q2 3 -1 6l-65 64q-3 3 -3 6q0 4 4 8
l47 42q3 3 6 3q4 0 8 -4l61 -61q3 -3 6 -1q51 32 111 32q64 0 115 -35q3 -2 6 1l65 64q8 8 14 1l47 -42q8 -7 1 -14l-70 -69q-3 -3 -1 -6q30 -49 30 -106q0 -60 -32 -110zM157.5 240.5q16.5 -28.5 45 -45t61.5 -16.5q51 0 87 36t37 87q0 33 -17 61.5t-45.5 45.5t-61.5 17
t-61.5 -17t-45 -45.5t-16.5 -61.5t16.5 -61.5z" />
    <glyph glyph-name="yen" unicode="&#xa5;" horiz-adv-x="607" 
d="M525.5 696.5q2.5 -3.5 0.5 -8.5l-156 -345q-1 -2 0 -3.5t3 -1.5h112q10 0 10 -10v-36q0 -10 -10 -10h-131q-4 0 -4 -4v-64q0 -4 4 -4h131q10 0 10 -10v-36q0 -10 -10 -10h-131q-4 0 -4 -4v-139q0 -10 -10 -10h-75q-10 0 -10 10v139q0 4 -4 4h-131q-10 0 -10 10v36
q0 10 10 10h131q4 0 4 4v64q0 4 -4 4h-131q-10 0 -10 10v36q0 10 10 10h112q2 0 3 1.5t0 3.5l-155 345l-1 4q0 8 9 8h81q8 0 11 -8l120 -284q1 -2 3 -2t3 2l119 284q3 8 11 8h82q5 0 7.5 -3.5z" />
    <glyph glyph-name="brokenbar" unicode="&#xa6;" horiz-adv-x="169" 
d="M36 402v348q0 10 10 10h76q10 0 10 -10v-348q0 -10 -10 -10h-76q-10 0 -10 10zM36 -70v345q0 10 10 10h76q10 0 10 -10v-345q0 -10 -10 -10h-76q-10 0 -10 10z" />
    <glyph glyph-name="section" unicode="&#xa7;" horiz-adv-x="442" 
d="M101 -162q-45 44 -47 118v22q0 10 10 10h76q10 0 10 -10v-11q0 -40 20.5 -65t53.5 -25t54.5 24t21.5 60q0 30 -16.5 50.5t-39.5 32.5t-63 28q-45 20 -71.5 39t-42.5 50q-19 37 -19 83q0 54 27 96q24 38 66 54q5 2 0 5q-40 22 -65 60t-25 87q0 45 22 82t61.5 58.5
t89.5 21.5q74 0 121 -46t48 -119v-16q0 -10 -10 -10h-76q-10 0 -10 10v10q0 38 -21 63t-53 25q-34 0 -54.5 -25t-20.5 -62q0 -41 26.5 -65t80.5 -44q42 -18 68 -32.5t45 -39.5q32 -40 32 -100q0 -54 -23 -94q-25 -46 -69 -60q-5 -2 0 -5q88 -48 88 -143q0 -72 -49 -116.5
t-125 -44.5t-121 44zM291 193q13 23 13 57q0 37 -18 62q-23 31 -63 31q-21 0 -38.5 -11.5t-27.5 -29.5q-13 -23 -13 -54q0 -32 13 -55q23 -37 67 -37q48 0 67 37z" />
    <glyph glyph-name="dieresis" unicode="&#xa8;" horiz-adv-x="313" 
d="M37.5 602.5q-15.5 15.5 -15.5 39.5t15.5 39.5t39.5 15.5q23 0 38 -15.5t15 -39.5t-15 -39.5t-38 -15.5q-24 0 -39.5 15.5zM198 602.5q-15 15.5 -15 39.5t15 39.5t40 15.5q23 0 38 -15.5t15 -39.5t-15 -39.5t-38 -15.5q-25 0 -40 15.5z" />
    <glyph glyph-name="copyright" unicode="&#xa9;" horiz-adv-x="835" 
d="M232 39q-83 47 -130 129t-47 183q0 100 47 181.5t130 128.5t185 47t185 -47t130 -128.5t47 -181.5q0 -101 -47 -183t-130 -129t-185 -47t-185 47zM572.5 87.5q69.5 39.5 109 109t39.5 154.5q0 84 -39.5 153t-109 108.5t-155.5 39.5t-155.5 -39.5t-109 -108.5t-39.5 -153
q0 -85 39.5 -154.5t109 -109t155.5 -39.5t155.5 39.5zM343 202.5q-28 26.5 -28 70.5v153q0 43 28 69.5t75 26.5t75.5 -25.5t28.5 -68.5v-2q0 -10 -10 -10l-35 -1q-4 0 -7 2.5t-3 5.5v7q0 20 -13.5 32t-35.5 12t-35 -12t-13 -32v-162q0 -20 13 -32t35 -12t35.5 12t13.5 32v6
q0 10 10 10l35 -1q10 0 10 -6v-6q0 -43 -28.5 -69t-75.5 -26t-75 26.5z" />
    <glyph glyph-name="ordfeminine" unicode="&#xaa;" horiz-adv-x="302" 
d="M203 564q4 0 4 4v22q0 30 -15.5 48t-45.5 18q-21 0 -36.5 -10.5t-20.5 -27.5q-2 -11 -11 -9l-41 3q-4 0 -7 3t-2 8q5 38 37.5 61.5t80.5 23.5q56 0 89 -30.5t33 -79.5v-221q0 -10 -10 -10h-41q-10 0 -10 10v13q0 2 -1.5 3t-3.5 -1q-26 -30 -78 -30q-45 0 -75 22.5
t-30 73.5q0 54 34.5 80t95.5 26h54zM186 427.5q21 16.5 21 44.5v40q0 4 -4 4h-51q-33 0 -53 -14.5t-20 -41.5q0 -24 15.5 -36.5t40.5 -12.5q30 0 51 16.5zM28 312h238q10 0 10 -10v-40q0 -10 -10 -10h-238q-10 0 -10 10v40q0 10 10 10z" />
    <glyph glyph-name="guillemotleft" unicode="&#xab;" horiz-adv-x="498" 
d="M264 114q0 -7 -9 -7h-70q-8 0 -12 6l-108 161q-2 3 -2 7t2 7l108 161q4 6 12 6h70q6 0 8 -3.5t-1 -8.5l-108 -159q-1 -3 0 -6l108 -159zM422 114q0 -7 -9 -7h-70q-8 0 -12 6l-108 161q-2 3 -2 7t2 7l108 161q4 6 12 6h70q6 0 8 -3.5t-1 -8.5l-108 -159q-1 -3 0 -6
l108 -159z" />
    <glyph glyph-name="logicalnot" unicode="&#xac;" horiz-adv-x="468" 
d="M42 350h383q10 0 10 -10v-169q0 -10 -10 -10h-59q-10 0 -10 10v97q0 4 -4 4h-310q-10 0 -10 10v58q0 10 10 10z" />
    <glyph glyph-name="uni00AD" unicode="&#xad;" horiz-adv-x="360" 
d="M32 274v63q0 10 10 10h275q10 0 10 -10v-63q0 -10 -10 -10h-275q-10 0 -10 10z" />
    <glyph glyph-name="registered" unicode="&#xae;" horiz-adv-x="443" 
d="M322.5 686.5q45.5 -25.5 71.5 -70t26 -98.5q0 -56 -26 -102t-71.5 -72t-101.5 -26q-55 0 -100.5 26t-72 72t-26.5 102q0 54 26.5 98.5t72 70t100.5 25.5q56 0 101.5 -25.5zM300 380.5q36 20.5 57 57t21 80.5q0 42 -21 77t-57 55t-79 20t-78.5 -20t-56 -55t-20.5 -77
q0 -44 20.5 -80.5t56 -57t78.5 -20.5t79 20.5zM261 505q-3 -3 -2 -6l25 -62q1 -2 1 -5q0 -7 -8 -7h-19q-9 0 -12 8l-23 63q-1 3 -4 3h-12q-4 0 -4 -4v-60q0 -10 -10 -10h-16q-10 0 -10 10v161q0 10 10 10h56q24 0 39 -15.5t15 -39.5q0 -33 -26 -46zM203 571v-41q0 -4 4 -4
h21q10 0 16.5 6.5t6.5 17.5q0 12 -6 18.5t-17 6.5h-21q-4 0 -4 -4z" />
    <glyph glyph-name="macron" unicode="&#xaf;" horiz-adv-x="357" 
d="M56 599v48q0 10 10 10h224q10 0 10 -10v-48q0 -10 -10 -10h-224q-10 0 -10 10z" />
    <glyph glyph-name="degree" unicode="&#xb0;" horiz-adv-x="369" 
d="M102.5 504q-37.5 22 -59 59.5t-21.5 82.5t21.5 82t59 58.5t81.5 21.5q45 0 82.5 -21.5t59 -58.5t21.5 -82t-21.5 -82.5t-59 -59.5t-82.5 -22q-44 0 -81.5 22zM252 576.5q28 28.5 28 69.5t-28 69.5t-68 28.5t-68 -28.5t-28 -69.5t28 -69.5t68 -28.5t68 28.5z" />
    <glyph glyph-name="plusminus" unicode="&#xb1;" horiz-adv-x="468" 
d="M435 394v-58q0 -10 -10 -10h-148q-4 0 -4 -4v-147q0 -10 -10 -10h-58q-10 0 -10 10v147q0 4 -4 4h-149q-10 0 -10 10v58q0 10 10 10h149q4 0 4 4v150q0 10 10 10h58q10 0 10 -10v-150q0 -4 4 -4h148q10 0 10 -10zM32 21v58q0 10 10 10h383q10 0 10 -10v-58q0 -10 -10 -10
h-383q-10 0 -10 10z" />
    <glyph glyph-name="uni00B2" unicode="&#xb2;" horiz-adv-x="292" 
d="M27 443v39q0 7 4 12l17 21q68 84 103 132q45 63 45 98q0 26 -14.5 41t-38.5 15q-23 0 -37.5 -15t-14.5 -40v-17q0 -10 -10 -10h-46q-10 0 -10 10v23q2 48 35 77t84 29q53 0 85 -30.5t32 -83.5q0 -52 -43 -115q-32 -46 -88 -118l-13 -17q-3 -5 2 -5h142q10 0 10 -10v-36
q0 -10 -10 -10h-224q-10 0 -10 10z" />
    <glyph glyph-name="uni00B3" unicode="&#xb3;" horiz-adv-x="296" 
d="M266 563q0 -36 -10 -60q-11 -37 -39 -57t-70 -20q-44 0 -74.5 24.5t-39.5 64.5q-4 16 -4 38q0 10 10 10h44q10 0 10 -10q2 -18 4 -24q5 -21 18 -33.5t32 -12.5q33 0 47 32q8 22 8 52q0 35 -8 54q-14 33 -47 33q-10 0 -17 -4q-8 -5 -14 1l-22 25q-3 3 -3 7t3 7l87 101
q3 5 -2 5h-135q-10 0 -10 10v35q0 10 10 10h208q10 0 10 -10v-38q0 -7 -4 -12l-75 -91q-3 -4 1 -5q25 -4 43.5 -21.5t27.5 -44.5q11 -30 11 -66z" />
    <glyph glyph-name="acute" unicode="&#xb4;" horiz-adv-x="210" 
d="M28 579.5q-2 3.5 1 8.5l60 108q3 7 12 7h71q6 0 8 -3.5t-1 -8.5l-72 -109q-4 -6 -12 -6h-59q-6 0 -8 3.5z" />
    <glyph glyph-name="uni00B5" unicode="&#xb5;" horiz-adv-x="492" 
d="M344 509h76q10 0 10 -10v-489q0 -10 -10 -10h-76q-10 0 -10 10v31q0 2 -1.5 3t-3.5 -1q-35 -50 -110 -50q-30 0 -57 8q-5 2 -5 -3v-188q0 -10 -10 -10h-76q-10 0 -10 10v689q0 10 10 10h76q10 0 10 -10v-324q0 -47 22.5 -73t64.5 -26q41 0 65.5 27.5t24.5 74.5v321
q0 10 10 10z" />
    <glyph glyph-name="paragraph" unicode="&#xb6;" horiz-adv-x="540" 
d="M460 700q10 0 10 -10v-880q0 -10 -10 -10h-56q-10 0 -10 10v812q0 4 -4 4h-93q-4 0 -4 -4v-812q0 -10 -10 -10h-58q-10 0 -10 10v437q0 4 -4 4q-81 8 -130.5 70t-49.5 154q0 64 25.5 115t72 80.5t106.5 29.5h225z" />
    <glyph glyph-name="periodcentered" unicode="&#xb7;" horiz-adv-x="138" 
d="M12.5 20q-19.5 20 -19.5 50q0 28 21 48t48 20q28 0 49 -20t21 -48q0 -29 -20.5 -49.5t-49.5 -20.5q-30 0 -49.5 20z" />
    <glyph glyph-name="cedilla" unicode="&#xb8;" horiz-adv-x="141" 
d="M3 -170l5 32q1 4 4 6.5t8 1.5q10 -2 16 -2q32 0 39 31q1 3 1 10q0 37 -45 79q-4 3 -4 7q0 5 8 5h41q7 0 10 -3l4 -4q52 -45 52 -98q0 -12 -3 -22q-8 -33 -31 -47t-54 -14q-19 0 -43 6q-9 3 -8 12z" />
    <glyph glyph-name="uni00B9" unicode="&#xb9;" horiz-adv-x="169" 
d="M77 853h48q10 0 10 -10v-400q0 -10 -10 -10h-45q-10 0 -10 10v346q0 2 -1.5 3.5t-2.5 0.5l-26 -6h-2q-9 0 -9 9v29q0 8 7 12l28 13q6 3 13 3z" />
    <glyph glyph-name="ordmasculine" unicode="&#xba;" horiz-adv-x="321" 
d="M79 390.5q-32 26.5 -40 72.5q-6 32 -6 73q0 39 5 74q8 45 40 71.5t82 26.5q49 0 80.5 -26.5t39.5 -71.5q6 -31 6 -73q0 -41 -6 -74q-8 -46 -39.5 -72.5t-80.5 -26.5t-81 26.5zM198 434q16 15 20 39q4 27 4 63q0 37 -3 62q-5 25 -21 40t-38 15q-23 0 -39 -15t-20 -40
q-4 -23 -4 -62q0 -25 4 -63q3 -24 19.5 -39t39.5 -15q22 0 38 15zM25 262v42q0 10 10 10h251q10 0 10 -10v-42q0 -10 -10 -10h-251q-10 0 -10 10z" />
    <glyph glyph-name="guillemotright" unicode="&#xbb;" horiz-adv-x="498" 
d="M79 110.5q-2 3.5 1 8.5l108 159q2 3 0 6l-108 159l-2 5q0 7 9 7h70q8 0 12 -6l108 -161q2 -3 2 -7t-2 -7l-108 -161q-4 -6 -12 -6h-70q-6 0 -8 3.5zM237 110.5q-2 3.5 1 8.5l108 159q2 3 0 6l-108 159l-2 5q0 7 9 7h70q8 0 12 -6l108 -161q2 -3 2 -7t-2 -7l-108 -161
q-4 -6 -12 -6h-70q-6 0 -8 3.5z" />
    <glyph glyph-name="onequarter" unicode="&#xbc;" horiz-adv-x="744" 
d="M77 700h48q10 0 10 -10v-400q0 -10 -10 -10h-45q-10 0 -10 10v346q0 2 -1.5 3.5t-2.5 0.5l-26 -6h-2q-9 0 -9 9v29q0 8 7 12l28 13q6 3 13 3zM86 3.5q-2 3.5 1 8.5l420 681q5 7 12 7h49q6 0 8 -3.5t-1 -8.5l-419 -681q-5 -7 -12 -7h-50q-6 0 -8 3.5zM722 159v-39
q0 -10 -10 -10h-17q-4 0 -4 -4v-96q0 -10 -10 -10h-45q-10 0 -10 10v96q0 4 -4 4h-158q-10 0 -10 10v33q0 7 2 12l99 247q3 8 11 8h48q5 0 7.5 -3.5t0.5 -8.5l-91 -234q-1 -2 0 -3.5t3 -1.5h88q4 0 4 4v76q0 10 10 10h45q10 0 10 -10v-76q0 -4 4 -4h17q10 0 10 -10z" />
    <glyph glyph-name="onehalf" unicode="&#xbd;" horiz-adv-x="732" 
d="M77 700h48q10 0 10 -10v-400q0 -10 -10 -10h-45q-10 0 -10 10v346q0 2 -1.5 3.5t-2.5 0.5l-26 -6h-2q-9 0 -9 9v29q0 8 7 12l28 13q6 3 13 3zM86 3.5q-2 3.5 1 8.5l420 681q5 7 12 7h49q6 0 8 -3.5t-1 -8.5l-419 -681q-5 -7 -12 -7h-50q-6 0 -8 3.5zM467 10v39q0 7 4 12
l17 21q68 84 103 132q45 63 45 98q0 26 -14.5 41t-38.5 15q-23 0 -37.5 -15t-14.5 -40v-17q0 -10 -10 -10h-46q-10 0 -10 10v23q2 48 35 77t84 29q53 0 85 -30.5t32 -83.5q0 -52 -43 -115q-32 -46 -88 -118l-13 -17q-3 -5 2 -5h142q10 0 10 -10v-36q0 -10 -10 -10h-224
q-10 0 -10 10z" />
    <glyph glyph-name="threequarters" unicode="&#xbe;" horiz-adv-x="827" 
d="M266 413q0 -36 -10 -60q-11 -37 -39 -57t-70 -20q-44 0 -74.5 24.5t-39.5 64.5q-4 16 -4 38q0 10 10 10h44q10 0 10 -10q2 -18 4 -24q5 -21 18 -33.5t32 -12.5q33 0 47 32q8 22 8 52q0 35 -8 54q-14 33 -47 33q-10 0 -17 -4q-8 -5 -14 1l-22 25q-3 3 -3 7t3 7l87 101
q3 5 -2 5h-135q-10 0 -10 10v35q0 10 10 10h208q10 0 10 -10v-38q0 -7 -4 -12l-75 -91q-3 -4 1 -5q25 -4 43.5 -21.5t27.5 -44.5q11 -30 11 -66zM169 3.5q-2 3.5 1 8.5l420 681q5 7 12 7h49q6 0 8 -3.5t-1 -8.5l-419 -681q-5 -7 -12 -7h-50q-6 0 -8 3.5zM805 159v-39
q0 -10 -10 -10h-17q-4 0 -4 -4v-96q0 -10 -10 -10h-45q-10 0 -10 10v96q0 4 -4 4h-158q-10 0 -10 10v33q0 7 2 12l99 247q3 8 11 8h48q5 0 7.5 -3.5t0.5 -8.5l-91 -234q-1 -2 0 -3.5t3 -1.5h88q4 0 4 4v76q0 10 10 10h45q10 0 10 -10v-76q0 -4 4 -4h17q10 0 10 -10z" />
    <glyph glyph-name="questiondown" unicode="&#xbf;" horiz-adv-x="438" 
d="M276 480q19 -19 19 -46t-19.5 -46t-45.5 -19t-45.5 19t-19.5 46t19.5 46t45.5 19q27 0 46 -19zM283 282v-50q0 -45 -20.5 -74t-60.5 -62q-37 -31 -55.5 -56t-18.5 -64q0 -45 24.5 -71.5t65.5 -26.5q42 0 68 27.5t26 72.5v26q0 10 10 10l76 -4q10 0 10 -10v-22
q0 -84 -53 -135.5t-139 -51.5q-84 0 -134 49.5t-50 132.5q0 44 13.5 76t32 52t48.5 45q31 26 46 45t15 46v45q0 10 10 10h76q10 0 10 -10z" />
    <glyph glyph-name="Agrave" unicode="&#xc0;" horiz-adv-x="550" 
d="M420 9l-29 116q0 3 -5 3h-221q-4 0 -5 -3l-30 -116q-1 -9 -11 -9h-78q-5 0 -7.5 3t-1.5 8l185 680q2 9 11 9h94q9 0 11 -9l186 -680l1 -3q0 -8 -10 -8h-79q-9 0 -11 9zM181.5 205.5q1.5 -1.5 3.5 -1.5h180q2 0 3.5 1.5t0.5 2.5l-91 360q-1 2 -2 2t-2 -2l-93 -360
q-1 -1 0.5 -2.5zM310 773q0 -6 -9 -6h-59q-7 0 -12 6l-72 109l-2 5q0 7 9 7h71q8 0 12 -7l60 -108q2 -4 2 -6z" />
    <glyph glyph-name="Aacute" unicode="&#xc1;" horiz-adv-x="550" 
d="M420 9l-29 116q0 3 -5 3h-221q-4 0 -5 -3l-30 -116q-1 -9 -11 -9h-78q-5 0 -7.5 3t-1.5 8l185 680q2 9 11 9h94q9 0 11 -9l186 -680l1 -3q0 -8 -10 -8h-79q-9 0 -11 9zM181.5 205.5q1.5 -1.5 3.5 -1.5h180q2 0 3.5 1.5t0.5 2.5l-91 360q-1 2 -2 2t-2 -2l-93 -360
q-1 -1 0.5 -2.5zM222 770.5q-2 3.5 1 8.5l60 108q3 7 12 7h71q6 0 8 -3.5t-1 -8.5l-72 -109q-4 -6 -12 -6h-59q-6 0 -8 3.5z" />
    <glyph glyph-name="Acircumflex" unicode="&#xc2;" horiz-adv-x="550" 
d="M420 9l-29 116q0 3 -5 3h-221q-4 0 -5 -3l-30 -116q-1 -9 -11 -9h-78q-5 0 -7.5 3t-1.5 8l185 680q2 9 11 9h94q9 0 11 -9l186 -680l1 -3q0 -8 -10 -8h-79q-9 0 -11 9zM181.5 205.5q1.5 -1.5 3.5 -1.5h180q2 0 3.5 1.5t0.5 2.5l-91 360q-1 2 -2 2t-2 -2l-93 -360
q-1 -1 0.5 -2.5zM145 764.5q-2 3.5 1 8.5l75 108q4 6 12 6h78q8 0 12 -6l76 -108q2 -2 2 -6q0 -2 -2 -4t-6 -2h-58q-7 0 -12 7l-47 72q-1 2 -3 2t-3 -2l-46 -72q-5 -7 -12 -7h-59q-6 0 -8 3.5z" />
    <glyph glyph-name="Atilde" unicode="&#xc3;" horiz-adv-x="550" 
d="M420 9l-29 116q0 3 -5 3h-221q-4 0 -5 -3l-30 -116q-1 -9 -11 -9h-78q-5 0 -7.5 3t-1.5 8l185 680q2 9 11 9h94q9 0 11 -9l186 -680l1 -3q0 -8 -10 -8h-79q-9 0 -11 9zM181.5 205.5q1.5 -1.5 3.5 -1.5h180q2 0 3.5 1.5t0.5 2.5l-91 360q-1 2 -2 2t-2 -2l-93 -360
q-1 -1 0.5 -2.5zM310.5 784q-12.5 6 -30.5 17q-4 2 -13 8t-16 8.5t-14 2.5q-14 0 -24.5 -5.5t-19.5 -20.5q-6 -9 -14 -3l-29 20q-7 6 -3 13q14 30 35.5 45t47.5 15q16 0 30 -6t31 -17t26 -15.5t20 -4.5q13 0 23.5 5.5t19.5 20.5q4 10 14 4l28 -19q4 -3 4 -9q0 -4 -3 -10
q-16 -28 -39 -41.5t-46 -13.5q-15 0 -27.5 6z" />
    <glyph glyph-name="Adieresis" unicode="&#xc4;" horiz-adv-x="550" 
d="M420 9l-29 116q0 3 -5 3h-221q-4 0 -5 -3l-30 -116q-1 -9 -11 -9h-78q-5 0 -7.5 3t-1.5 8l185 680q2 9 11 9h94q9 0 11 -9l186 -680l1 -3q0 -8 -10 -8h-79q-9 0 -11 9zM181.5 205.5q1.5 -1.5 3.5 -1.5h180q2 0 3.5 1.5t0.5 2.5l-91 360q-1 2 -2 2t-2 -2l-93 -360
q-1 -1 0.5 -2.5zM155.5 793.5q-15.5 15.5 -15.5 39.5t15.5 39.5t39.5 15.5q23 0 38 -15.5t15 -39.5t-15 -39.5t-38 -15.5q-24 0 -39.5 15.5zM316 793.5q-15 15.5 -15 39.5t15 39.5t40 15.5q23 0 38 -15.5t15 -39.5t-15 -39.5t-38 -15.5q-25 0 -40 15.5z" />
    <glyph glyph-name="Aring" unicode="&#xc5;" horiz-adv-x="550" 
d="M420 9l-29 116q0 3 -5 3h-221q-4 0 -5 -3l-30 -116q-1 -9 -11 -9h-78q-5 0 -7.5 3t-1.5 8l185 680q2 9 11 9h94q9 0 11 -9l186 -680l1 -3q0 -8 -10 -8h-79q-9 0 -11 9zM181.5 205.5q1.5 -1.5 3.5 -1.5h180q2 0 3.5 1.5t0.5 2.5l-91 360q-1 2 -2 2t-2 -2l-93 -360
q-1 -1 0.5 -2.5zM199.5 789q-30.5 31 -30.5 75t30.5 74.5t74.5 30.5q45 0 75.5 -30.5t30.5 -74.5t-30.5 -75t-75.5 -31q-44 0 -74.5 31zM315 822.5q17 16.5 17 41.5t-17 42t-41 17q-23 0 -40 -17t-17 -42q0 -24 16.5 -41t40.5 -17t41 16.5z" />
    <glyph glyph-name="AE" unicode="&#xc6;" horiz-adv-x="836" 
d="M783 617h-279q-4 0 -4 -4v-216q0 -4 4 -4h180q10 0 10 -10v-63q0 -10 -10 -10h-180q-4 0 -4 -4v-219q0 -4 4 -4h279q10 0 10 -10v-63q0 -10 -10 -10h-370q-10 0 -10 10v114q0 4 -4 4h-204q-2 0 -4 -3l-56 -118q-3 -7 -11 -7h-82q-5 0 -7 3.5t0 8.5l322 681q3 7 12 7h414
q10 0 10 -10v-63q0 -10 -10 -10zM229 205.5q1 -1.5 3 -1.5h167q4 0 4 4l1 365q0 3 -1.5 3t-3.5 -2l-170 -365q-1 -2 0 -3.5z" />
    <glyph glyph-name="Ccedilla" unicode="&#xc7;" horiz-adv-x="530" 
d="M477 491q-3 -3 -7 -3l-76 -4q-10 0 -10 10v15q0 52 -32 84t-84 32t-84.5 -32t-32.5 -84v-318q0 -52 32.5 -84t84.5 -32t84 32t32 84v14q0 10 10 10l76 -4q10 0 10 -8v-9q0 -85 -50.5 -138.5t-135.5 -61.5q-6 -2 -1 -5q42 -43 42 -91q0 -15 -2 -23q-8 -33 -31 -47t-54 -14
q-19 0 -43 6q-9 3 -8 12l5 32q1 4 4 6.5t8 1.5q10 -2 16 -2q32 0 39 31q1 3 1 10q0 41 -51 84q0 1 -5 3q-73 14 -116 67t-43 132v307q0 93 58.5 148.5t154.5 55.5t154 -55t58 -146v-9q0 -4 -3 -7z" />
    <glyph glyph-name="Egrave" unicode="&#xc8;" horiz-adv-x="515" 
d="M462 617h-290q-4 0 -4 -4v-216q0 -4 4 -4h191q10 0 10 -10v-63q0 -10 -10 -10h-191q-4 0 -4 -4v-219q0 -4 4 -4h290q10 0 10 -10v-63q0 -10 -10 -10h-380q-10 0 -10 10v680q0 10 10 10h380q10 0 10 -10v-63q0 -10 -10 -10zM306 784q0 -6 -9 -6h-59q-7 0 -12 6l-72 109
l-2 5q0 7 9 7h71q8 0 12 -7l60 -108q2 -4 2 -6z" />
    <glyph glyph-name="Eacute" unicode="&#xc9;" horiz-adv-x="515" 
d="M462 617h-290q-4 0 -4 -4v-216q0 -4 4 -4h191q10 0 10 -10v-63q0 -10 -10 -10h-191q-4 0 -4 -4v-219q0 -4 4 -4h290q10 0 10 -10v-63q0 -10 -10 -10h-380q-10 0 -10 10v680q0 10 10 10h380q10 0 10 -10v-63q0 -10 -10 -10zM218 781.5q-2 3.5 1 8.5l60 108q3 7 12 7h71
q6 0 8 -3.5t-1 -8.5l-72 -109q-4 -6 -12 -6h-59q-6 0 -8 3.5z" />
    <glyph glyph-name="Ecircumflex" unicode="&#xca;" horiz-adv-x="515" 
d="M462 617h-290q-4 0 -4 -4v-216q0 -4 4 -4h191q10 0 10 -10v-63q0 -10 -10 -10h-191q-4 0 -4 -4v-219q0 -4 4 -4h290q10 0 10 -10v-63q0 -10 -10 -10h-380q-10 0 -10 10v680q0 10 10 10h380q10 0 10 -10v-63q0 -10 -10 -10zM141 775.5q-2 3.5 1 8.5l75 108q4 6 12 6h78
q8 0 12 -6l76 -108q2 -2 2 -6q0 -2 -2 -4t-6 -2h-58q-7 0 -12 7l-47 72q-1 2 -3 2t-3 -2l-46 -72q-5 -7 -12 -7h-59q-6 0 -8 3.5z" />
    <glyph glyph-name="Edieresis" unicode="&#xcb;" horiz-adv-x="515" 
d="M462 617h-290q-4 0 -4 -4v-216q0 -4 4 -4h191q10 0 10 -10v-63q0 -10 -10 -10h-191q-4 0 -4 -4v-219q0 -4 4 -4h290q10 0 10 -10v-63q0 -10 -10 -10h-380q-10 0 -10 10v680q0 10 10 10h380q10 0 10 -10v-63q0 -10 -10 -10zM151.5 804.5q-15.5 15.5 -15.5 39.5t15.5 39.5
t39.5 15.5q23 0 38 -15.5t15 -39.5t-15 -39.5t-38 -15.5q-24 0 -39.5 15.5zM312 804.5q-15 15.5 -15 39.5t15 39.5t40 15.5q23 0 38 -15.5t15 -39.5t-15 -39.5t-38 -15.5q-25 0 -40 15.5z" />
    <glyph glyph-name="Igrave" unicode="&#xcc;" horiz-adv-x="240" 
d="M72 10v680q0 10 10 10h76q10 0 10 -10v-680q0 -10 -10 -10h-76q-10 0 -10 10zM156 784q0 -6 -9 -6h-59q-7 0 -12 6l-72 109l-2 5q0 7 9 7h71q8 0 12 -7l60 -108q2 -4 2 -6z" />
    <glyph glyph-name="Iacute" unicode="&#xcd;" horiz-adv-x="240" 
d="M72 10v680q0 10 10 10h76q10 0 10 -10v-680q0 -10 -10 -10h-76q-10 0 -10 10zM68 781.5q-2 3.5 1 8.5l60 108q3 7 12 7h71q6 0 8 -3.5t-1 -8.5l-72 -109q-4 -6 -12 -6h-59q-6 0 -8 3.5z" />
    <glyph glyph-name="Icircumflex" unicode="&#xce;" horiz-adv-x="240" 
d="M72 10v680q0 10 10 10h76q10 0 10 -10v-680q0 -10 -10 -10h-76q-10 0 -10 10zM-9 775.5q-2 3.5 1 8.5l75 108q4 6 12 6h78q8 0 12 -6l76 -108q2 -2 2 -6q0 -2 -2 -4t-6 -2h-58q-7 0 -12 7l-47 72q-1 2 -3 2t-3 -2l-46 -72q-5 -7 -12 -7h-59q-6 0 -8 3.5z" />
    <glyph glyph-name="Idieresis" unicode="&#xcf;" horiz-adv-x="240" 
d="M72 10v680q0 10 10 10h76q10 0 10 -10v-680q0 -10 -10 -10h-76q-10 0 -10 10zM1.5 804.5q-15.5 15.5 -15.5 39.5t15.5 39.5t39.5 15.5q23 0 38 -15.5t15 -39.5t-15 -39.5t-38 -15.5q-24 0 -39.5 15.5zM162 804.5q-15 15.5 -15 39.5t15 39.5t40 15.5q23 0 38 -15.5
t15 -39.5t-15 -39.5t-38 -15.5q-25 0 -40 15.5z" />
    <glyph glyph-name="Eth" unicode="&#xd0;" horiz-adv-x="593" 
d="M482.5 647q55.5 -53 55.5 -141v-312q0 -88 -55.5 -141t-148.5 -53h-203q-10 0 -10 10v319q0 4 -4 4h-35q-10 0 -10 10v43q0 10 10 10h35q4 0 4 4v290q0 10 10 10h203q93 0 148.5 -53zM442 496q0 56 -29 88.5t-78 32.5h-114q-4 0 -4 -4v-213q0 -4 4 -4h85q10 0 10 -10v-43
q0 -10 -10 -10h-85q-4 0 -4 -4v-242q0 -4 4 -4l115 1q48 0 76.5 32.5t29.5 87.5v292z" />
    <glyph glyph-name="Ntilde" unicode="&#xd1;" horiz-adv-x="584" 
d="M72 10v680q0 10 10 10h75q9 0 12 -7l244 -471q2 -2 3.5 -2t1.5 3v467q0 10 10 10h75q10 0 10 -10v-680q0 -10 -10 -10h-76q-9 0 -12 7l-243 473q-2 2 -3.5 2t-1.5 -3l1 -469q0 -10 -10 -10h-76q-10 0 -10 10zM326.5 796q-12.5 6 -30.5 17q-4 2 -13 8t-16 8.5t-14 2.5
q-14 0 -24.5 -5.5t-19.5 -20.5q-6 -9 -14 -3l-29 20q-7 6 -3 13q14 30 35.5 45t47.5 15q16 0 30 -6t31 -17t26 -15.5t20 -4.5q13 0 23.5 5.5t19.5 20.5q4 10 14 4l28 -19q4 -3 4 -9q0 -4 -3 -10q-16 -28 -39 -41.5t-46 -13.5q-15 0 -27.5 6z" />
    <glyph glyph-name="Ograve" unicode="&#xd2;" horiz-adv-x="542" 
d="M157.5 17.5q-48.5 26.5 -75.5 74.5t-27 111v294q0 62 27 110t75.5 74.5t112.5 26.5t113 -26.5t76 -74.5t27 -110v-294q0 -63 -27 -111t-76 -74.5t-113 -26.5t-112.5 26.5zM357 109q33 34 33 90v300q0 56 -33 91t-87 35q-53 0 -86 -35t-33 -91v-300q0 -55 33 -89.5
t86 -34.5q54 0 87 34zM306 779q0 -6 -9 -6h-59q-7 0 -12 6l-72 109l-2 5q0 7 9 7h71q8 0 12 -7l60 -108q2 -4 2 -6z" />
    <glyph glyph-name="Oacute" unicode="&#xd3;" horiz-adv-x="542" 
d="M157.5 17.5q-48.5 26.5 -75.5 74.5t-27 111v294q0 62 27 110t75.5 74.5t112.5 26.5t113 -26.5t76 -74.5t27 -110v-294q0 -63 -27 -111t-76 -74.5t-113 -26.5t-112.5 26.5zM357 109q33 34 33 90v300q0 56 -33 91t-87 35q-53 0 -86 -35t-33 -91v-300q0 -55 33 -89.5
t86 -34.5q54 0 87 34zM218 776.5q-2 3.5 1 8.5l60 108q3 7 12 7h71q6 0 8 -3.5t-1 -8.5l-72 -109q-4 -6 -12 -6h-59q-6 0 -8 3.5z" />
    <glyph glyph-name="Ocircumflex" unicode="&#xd4;" horiz-adv-x="542" 
d="M157.5 17.5q-48.5 26.5 -75.5 74.5t-27 111v294q0 62 27 110t75.5 74.5t112.5 26.5t113 -26.5t76 -74.5t27 -110v-294q0 -63 -27 -111t-76 -74.5t-113 -26.5t-112.5 26.5zM357 109q33 34 33 90v300q0 56 -33 91t-87 35q-53 0 -86 -35t-33 -91v-300q0 -55 33 -89.5
t86 -34.5q54 0 87 34zM141 770.5q-2 3.5 1 8.5l75 108q4 6 12 6h78q8 0 12 -6l76 -108q2 -2 2 -6q0 -2 -2 -4t-6 -2h-58q-7 0 -12 7l-47 72q-1 2 -3 2t-3 -2l-46 -72q-5 -7 -12 -7h-59q-6 0 -8 3.5z" />
    <glyph glyph-name="Otilde" unicode="&#xd5;" horiz-adv-x="542" 
d="M157.5 17.5q-48.5 26.5 -75.5 74.5t-27 111v294q0 62 27 110t75.5 74.5t112.5 26.5t113 -26.5t76 -74.5t27 -110v-294q0 -63 -27 -111t-76 -74.5t-113 -26.5t-112.5 26.5zM357 109q33 34 33 90v300q0 56 -33 91t-87 35q-53 0 -86 -35t-33 -91v-300q0 -55 33 -89.5
t86 -34.5q54 0 87 34zM306.5 790q-12.5 6 -30.5 17q-4 2 -13 8t-16 8.5t-14 2.5q-14 0 -24.5 -5.5t-19.5 -20.5q-6 -9 -14 -3l-29 20q-7 6 -3 13q14 30 35.5 45t47.5 15q16 0 30 -6t31 -17t26 -15.5t20 -4.5q13 0 23.5 5.5t19.5 20.5q4 10 14 4l28 -19q4 -3 4 -9
q0 -4 -3 -10q-16 -28 -39 -41.5t-46 -13.5q-15 0 -27.5 6z" />
    <glyph glyph-name="Odieresis" unicode="&#xd6;" horiz-adv-x="542" 
d="M157.5 17.5q-48.5 26.5 -75.5 74.5t-27 111v294q0 62 27 110t75.5 74.5t112.5 26.5t113 -26.5t76 -74.5t27 -110v-294q0 -63 -27 -111t-76 -74.5t-113 -26.5t-112.5 26.5zM357 109q33 34 33 90v300q0 56 -33 91t-87 35q-53 0 -86 -35t-33 -91v-300q0 -55 33 -89.5
t86 -34.5q54 0 87 34zM151.5 799.5q-15.5 15.5 -15.5 39.5t15.5 39.5t39.5 15.5q23 0 38 -15.5t15 -39.5t-15 -39.5t-38 -15.5q-24 0 -39.5 15.5zM312 799.5q-15 15.5 -15 39.5t15 39.5t40 15.5q23 0 38 -15.5t15 -39.5t-15 -39.5t-38 -15.5q-25 0 -40 15.5z" />
    <glyph glyph-name="multiply" unicode="&#xd7;" horiz-adv-x="405" 
d="M370 429q0 -4 -3 -7l-105 -105q-3 -3 0 -6l104 -104q3 -3 3 -7t-3 -7l-41 -41q-3 -3 -7 -3t-7 3l-104 104q-3 3 -6 0l-105 -105q-3 -3 -7 -3t-7 3l-42 41q-3 3 -3 7t3 7l106 106q3 3 0 6l-106 105q-3 3 -3 7t3 7l41 41q3 3 7 3t7 -3l106 -105q3 -3 6 0l104 104q3 3 7 3
t7 -3l42 -41q3 -3 3 -7z" />
    <glyph glyph-name="Oslash" unicode="&#xd8;" horiz-adv-x="565" 
d="M444 639q49 -57 49 -142v-294q0 -63 -27 -111t-76 -74.5t-113 -26.5q-68 0 -117 29q-5 2 -6 -2l-25 -54q-3 -7 -11 -7h-49q-5 0 -7.5 3.5t-0.5 8.5l44 94q1 2 -1 6q-42 54 -42 134v294q0 62 27 110t75.5 74.5t112.5 26.5q63 0 109 -24q5 -2 6 2l26 55q3 7 11 7h50
q5 0 7.5 -3.5t0.5 -8.5l-44 -92q-1 -3 1 -5zM158 190q0 -3 1.5 -3t3.5 2l188 408q1 4 -1 5q-29 23 -73 23q-53 0 -86 -35t-33 -91v-300v-9zM397 499q0 9 -2 27q-1 3 -2.5 3t-2.5 -2l-194 -419q-2 -3 2 -5q30 -28 79 -28q54 0 87 34t33 90v300z" />
    <glyph glyph-name="Ugrave" unicode="&#xd9;" horiz-adv-x="559" 
d="M167.5 18.5q-48.5 26.5 -75 75t-26.5 112.5v484q0 10 10 10h76q10 0 10 -10v-490q0 -56 32.5 -90.5t84.5 -34.5q53 0 85.5 34.5t32.5 90.5v490q0 10 10 10h76q10 0 10 -10v-484q0 -64 -26.5 -112.5t-75 -75t-112.5 -26.5q-63 0 -111.5 26.5zM315 785q0 -6 -9 -6h-59
q-7 0 -12 6l-72 109l-2 5q0 7 9 7h71q8 0 12 -7l60 -108q2 -4 2 -6z" />
    <glyph glyph-name="Uacute" unicode="&#xda;" horiz-adv-x="559" 
d="M167.5 18.5q-48.5 26.5 -75 75t-26.5 112.5v484q0 10 10 10h76q10 0 10 -10v-490q0 -56 32.5 -90.5t84.5 -34.5q53 0 85.5 34.5t32.5 90.5v490q0 10 10 10h76q10 0 10 -10v-484q0 -64 -26.5 -112.5t-75 -75t-112.5 -26.5q-63 0 -111.5 26.5zM227 782.5q-2 3.5 1 8.5
l60 108q3 7 12 7h71q6 0 8 -3.5t-1 -8.5l-72 -109q-4 -6 -12 -6h-59q-6 0 -8 3.5z" />
    <glyph glyph-name="Ucircumflex" unicode="&#xdb;" horiz-adv-x="559" 
d="M167.5 18.5q-48.5 26.5 -75 75t-26.5 112.5v484q0 10 10 10h76q10 0 10 -10v-490q0 -56 32.5 -90.5t84.5 -34.5q53 0 85.5 34.5t32.5 90.5v490q0 10 10 10h76q10 0 10 -10v-484q0 -64 -26.5 -112.5t-75 -75t-112.5 -26.5q-63 0 -111.5 26.5zM150 776.5q-2 3.5 1 8.5
l75 108q4 6 12 6h78q8 0 12 -6l76 -108q2 -2 2 -6q0 -2 -2 -4t-6 -2h-58q-7 0 -12 7l-47 72q-1 2 -3 2t-3 -2l-46 -72q-5 -7 -12 -7h-59q-6 0 -8 3.5z" />
    <glyph glyph-name="Udieresis" unicode="&#xdc;" horiz-adv-x="559" 
d="M167.5 18.5q-48.5 26.5 -75 75t-26.5 112.5v484q0 10 10 10h76q10 0 10 -10v-490q0 -56 32.5 -90.5t84.5 -34.5q53 0 85.5 34.5t32.5 90.5v490q0 10 10 10h76q10 0 10 -10v-484q0 -64 -26.5 -112.5t-75 -75t-112.5 -26.5q-63 0 -111.5 26.5zM160.5 805.5
q-15.5 15.5 -15.5 39.5t15.5 39.5t39.5 15.5q23 0 38 -15.5t15 -39.5t-15 -39.5t-38 -15.5q-24 0 -39.5 15.5zM321 805.5q-15 15.5 -15 39.5t15 39.5t40 15.5q23 0 38 -15.5t15 -39.5t-15 -39.5t-38 -15.5q-25 0 -40 15.5z" />
    <glyph glyph-name="Yacute" unicode="&#xdd;" horiz-adv-x="514" 
d="M209 11v284q0 4 -1 5l-174 388l-1 4q0 8 9 8h81q8 0 11 -8l120 -284q1 -2 3 -2t3 2l119 284q3 8 11 8h82q5 0 7.5 -3.5t0.5 -8.5l-175 -388q-1 -1 -1 -5v-284q0 -10 -10 -10h-75q-10 0 -10 10zM205 770.5q-2 3.5 1 8.5l60 108q3 7 12 7h71q6 0 8 -3.5t-1 -8.5l-72 -109
q-4 -6 -12 -6h-59q-6 0 -8 3.5z" />
    <glyph glyph-name="Thorn" unicode="&#xde;" horiz-adv-x="511" 
d="M391 524.5q43 -25.5 66.5 -71t23.5 -104.5t-24 -104t-66.5 -69.5t-97.5 -24.5h-124q-4 0 -4 -4v-137q0 -10 -10 -10h-76q-10 0 -10 10v680q0 10 10 10h76q10 0 10 -10v-136q0 -4 4 -4h123q56 0 99 -25.5zM356 261q29 32 29 86q0 55 -29 87t-77 32h-110q-4 0 -4 -4v-229
q0 -4 4 -4h110q48 0 77 32z" />
    <glyph glyph-name="germandbls" unicode="&#xdf;" horiz-adv-x="519" 
d="M62 10v491q0 98 52 153t142 55q96 0 150 -51.5t54 -139.5q0 -103 -75 -141q-5 -2 0 -5q39 -20 61.5 -66t22.5 -108q0 -94 -56.5 -146t-163.5 -52h-39q-10 0 -10 10v62q0 10 10 10l46 1q57 0 87.5 32.5t30.5 92.5t-27 93t-78 34h-45q-10 0 -10 10v56q0 10 10 10h46
q45 0 70 26.5t25 74.5q0 54 -26 84t-79 30q-44 0 -73 -30.5t-29 -83.5v-502q0 -10 -10 -10h-76q-10 0 -10 10z" />
    <glyph glyph-name="agrave" unicode="&#xe0;" horiz-adv-x="470" 
d="M368.5 470.5q50.5 -46.5 50.5 -121.5v-339q0 -10 -10 -10h-76q-10 0 -10 10v29q0 5 -5 2q-46 -49 -127 -49q-64 0 -109.5 35t-45.5 115q0 82 53 124.5t145 42.5h85q4 0 4 4v28q0 43 -22.5 68t-64.5 25q-34 0 -55.5 -16.5t-26.5 -44.5q-1 -9 -11 -9l-81 5q-4 0 -7 2.5
t-2 6.5q6 62 56.5 100.5t125.5 38.5q83 0 133.5 -46.5zM290.5 99q32.5 25 32.5 67v64q0 4 -4 4h-77q-50 0 -79.5 -22t-29.5 -64q0 -37 22.5 -55.5t58.5 -18.5q44 0 76.5 25zM271 590q0 -6 -9 -6h-59q-7 0 -12 6l-72 109l-2 5q0 7 9 7h71q8 0 12 -7l60 -108q2 -4 2 -6z" />
    <glyph glyph-name="aacute" unicode="&#xe1;" horiz-adv-x="470" 
d="M368.5 470.5q50.5 -46.5 50.5 -121.5v-339q0 -10 -10 -10h-76q-10 0 -10 10v29q0 5 -5 2q-46 -49 -127 -49q-64 0 -109.5 35t-45.5 115q0 82 53 124.5t145 42.5h85q4 0 4 4v28q0 43 -22.5 68t-64.5 25q-34 0 -55.5 -16.5t-26.5 -44.5q-1 -9 -11 -9l-81 5q-4 0 -7 2.5
t-2 6.5q6 62 56.5 100.5t125.5 38.5q83 0 133.5 -46.5zM290.5 99q32.5 25 32.5 67v64q0 4 -4 4h-77q-50 0 -79.5 -22t-29.5 -64q0 -37 22.5 -55.5t58.5 -18.5q44 0 76.5 25zM183 587.5q-2 3.5 1 8.5l60 108q3 7 12 7h71q6 0 8 -3.5t-1 -8.5l-72 -109q-4 -6 -12 -6h-59
q-6 0 -8 3.5z" />
    <glyph glyph-name="acircumflex" unicode="&#xe2;" horiz-adv-x="470" 
d="M368.5 470.5q50.5 -46.5 50.5 -121.5v-339q0 -10 -10 -10h-76q-10 0 -10 10v29q0 5 -5 2q-46 -49 -127 -49q-64 0 -109.5 35t-45.5 115q0 82 53 124.5t145 42.5h85q4 0 4 4v28q0 43 -22.5 68t-64.5 25q-34 0 -55.5 -16.5t-26.5 -44.5q-1 -9 -11 -9l-81 5q-4 0 -7 2.5
t-2 6.5q6 62 56.5 100.5t125.5 38.5q83 0 133.5 -46.5zM290.5 99q32.5 25 32.5 67v64q0 4 -4 4h-77q-50 0 -79.5 -22t-29.5 -64q0 -37 22.5 -55.5t58.5 -18.5q44 0 76.5 25zM106 581.5q-2 3.5 1 8.5l75 108q4 6 12 6h78q8 0 12 -6l76 -108q2 -2 2 -6q0 -2 -2 -4t-6 -2h-58
q-7 0 -12 7l-47 72q-1 2 -3 2t-3 -2l-46 -72q-5 -7 -12 -7h-59q-6 0 -8 3.5z" />
    <glyph glyph-name="atilde" unicode="&#xe3;" horiz-adv-x="470" 
d="M368.5 470.5q50.5 -46.5 50.5 -121.5v-339q0 -10 -10 -10h-76q-10 0 -10 10v29q0 5 -5 2q-46 -49 -127 -49q-64 0 -109.5 35t-45.5 115q0 82 53 124.5t145 42.5h85q4 0 4 4v28q0 43 -22.5 68t-64.5 25q-34 0 -55.5 -16.5t-26.5 -44.5q-1 -9 -11 -9l-81 5q-4 0 -7 2.5
t-2 6.5q6 62 56.5 100.5t125.5 38.5q83 0 133.5 -46.5zM290.5 99q32.5 25 32.5 67v64q0 4 -4 4h-77q-50 0 -79.5 -22t-29.5 -64q0 -37 22.5 -55.5t58.5 -18.5q44 0 76.5 25zM271.5 601q-12.5 6 -30.5 17q-4 2 -13 8t-16 8.5t-14 2.5q-14 0 -24.5 -5.5t-19.5 -20.5
q-6 -9 -14 -3l-29 20q-7 6 -3 13q14 30 35.5 45t47.5 15q16 0 30 -6t31 -17t26 -15.5t20 -4.5q13 0 23.5 5.5t19.5 20.5q4 10 14 4l28 -19q4 -3 4 -9q0 -4 -3 -10q-16 -28 -39 -41.5t-46 -13.5q-15 0 -27.5 6z" />
    <glyph glyph-name="adieresis" unicode="&#xe4;" horiz-adv-x="470" 
d="M368.5 470.5q50.5 -46.5 50.5 -121.5v-339q0 -10 -10 -10h-76q-10 0 -10 10v29q0 5 -5 2q-46 -49 -127 -49q-64 0 -109.5 35t-45.5 115q0 82 53 124.5t145 42.5h85q4 0 4 4v28q0 43 -22.5 68t-64.5 25q-34 0 -55.5 -16.5t-26.5 -44.5q-1 -9 -11 -9l-81 5q-4 0 -7 2.5
t-2 6.5q6 62 56.5 100.5t125.5 38.5q83 0 133.5 -46.5zM290.5 99q32.5 25 32.5 67v64q0 4 -4 4h-77q-50 0 -79.5 -22t-29.5 -64q0 -37 22.5 -55.5t58.5 -18.5q44 0 76.5 25zM116.5 610.5q-15.5 15.5 -15.5 39.5t15.5 39.5t39.5 15.5q23 0 38 -15.5t15 -39.5t-15 -39.5
t-38 -15.5q-24 0 -39.5 15.5zM277 610.5q-15 15.5 -15 39.5t15 39.5t40 15.5q23 0 38 -15.5t15 -39.5t-15 -39.5t-38 -15.5q-25 0 -40 15.5z" />
    <glyph glyph-name="aring" unicode="&#xe5;" horiz-adv-x="470" 
d="M368.5 470.5q50.5 -46.5 50.5 -121.5v-339q0 -10 -10 -10h-76q-10 0 -10 10v29q0 5 -5 2q-46 -49 -127 -49q-64 0 -109.5 35t-45.5 115q0 82 53 124.5t145 42.5h85q4 0 4 4v28q0 43 -22.5 68t-64.5 25q-34 0 -55.5 -16.5t-26.5 -44.5q-1 -9 -11 -9l-81 5q-4 0 -7 2.5
t-2 6.5q6 62 56.5 100.5t125.5 38.5q83 0 133.5 -46.5zM290.5 99q32.5 25 32.5 67v64q0 4 -4 4h-77q-50 0 -79.5 -22t-29.5 -64q0 -37 22.5 -55.5t58.5 -18.5q44 0 76.5 25zM160.5 606q-30.5 31 -30.5 75t30.5 74.5t74.5 30.5q45 0 75.5 -30.5t30.5 -74.5t-30.5 -75
t-75.5 -31q-44 0 -74.5 31zM276 639.5q17 16.5 17 41.5t-17 42t-41 17q-23 0 -40 -17t-17 -42q0 -24 16.5 -41t40.5 -17t41 16.5z" />
    <glyph glyph-name="ae" unicode="&#xe6;" horiz-adv-x="748" 
d="M82 24.5q-46 32.5 -46 111.5q0 81 50 121t142 40h90q4 0 4 4v36q0 44 -23 70.5t-67 26.5q-34 0 -58.5 -16.5t-29.5 -43.5q-2 -11 -11 -9l-76 6q-10 2 -9 11q7 60 58 97.5t124 37.5q48 0 84 -20t56 -52q3 -4 6 -1q19 31 57 52t84 21q71 0 121.5 -41.5t59.5 -108.5
q6 -49 6 -140q0 -10 -10 -10h-269q-4 0 -4 -4l1 -47q2 -38 30.5 -61t70.5 -23q34 0 57 16t35 44q4 9 13 6l62 -21q9 -3 7 -12q-15 -55 -61.5 -89t-115.5 -34q-52 0 -91.5 21t-57.5 52q-1 2 -2 3t-2 -1q-17 -33 -63.5 -54t-105.5 -21q-70 0 -116 32.5zM425 297h179q4 0 4 4
q0 17 -2 49q-5 37 -29.5 60.5t-62.5 23.5q-37 0 -61.5 -23.5t-29.5 -60.5q-2 -34 -2 -49q0 -4 4 -4zM290.5 92.5q31.5 23.5 31.5 65.5v54q0 4 -4 4h-78q-50 0 -79 -19t-29 -56q0 -34 23.5 -53t60.5 -19q43 0 74.5 23.5z" />
    <glyph glyph-name="ccedilla" unicode="&#xe7;" horiz-adv-x="470" 
d="M336 160q1 10 11 9l75 -5q10 0 10 -11l-3 -17q-8 -56 -48 -94t-103 -47q-5 -2 -2 -5q44 -43 44 -92q0 -16 -2 -23q-8 -33 -31 -47t-54 -14q-19 0 -43 6q-9 3 -8 12l5 32q1 4 4 6.5t8 1.5q10 -2 16 -2q18 0 29 10t11 31q0 40 -49 82q-1 2 -5 2q-60 10 -98 49.5t-47 98.5
q-7 45 -7 113q0 59 7 111q11 68 61 109t126 41q74 0 125 -39t61 -100l4 -24q0 -9 -10 -11l-75 -6h-2q-6 0 -8 7l-1 4l-2 12q-5 31 -30 52.5t-63 21.5t-62.5 -23t-29.5 -61q-5 -42 -5 -95q0 -59 6 -97q5 -38 29 -60.5t62 -22.5q39 0 64 21.5t29 53.5z" />
    <glyph glyph-name="egrave" unicode="&#xe8;" horiz-adv-x="478" 
d="M306.5 92.5q24.5 17.5 36.5 46.5q3 9 12 6l61 -17q10 -3 7 -13q-17 -57 -63.5 -90t-116.5 -33q-74 0 -121.5 37.5t-58.5 102.5q-13 53 -13 124q0 68 5 107q9 70 58.5 112t126.5 42q87 0 135 -46.5t55 -128.5q4 -48 4 -114q0 -10 -10 -10h-275q-4 0 -4 -4q2 -39 4 -55
q5 -38 32 -61t67 -23q34 0 58.5 17.5zM179 412q-24 -22 -29 -58q-4 -32 -4 -55q0 -4 4 -4h184q4 0 4 4q-2 36 -4 51q-5 38 -30 61t-64 23q-37 0 -61 -22zM276 590q0 -6 -9 -6h-59q-7 0 -12 6l-72 109l-2 5q0 7 9 7h71q8 0 12 -7l60 -108q2 -4 2 -6z" />
    <glyph glyph-name="eacute" unicode="&#xe9;" horiz-adv-x="478" 
d="M306.5 92.5q24.5 17.5 36.5 46.5q3 9 12 6l61 -17q10 -3 7 -13q-17 -57 -63.5 -90t-116.5 -33q-74 0 -121.5 37.5t-58.5 102.5q-13 53 -13 124q0 68 5 107q9 70 58.5 112t126.5 42q87 0 135 -46.5t55 -128.5q4 -48 4 -114q0 -10 -10 -10h-275q-4 0 -4 -4q2 -39 4 -55
q5 -38 32 -61t67 -23q34 0 58.5 17.5zM179 412q-24 -22 -29 -58q-4 -32 -4 -55q0 -4 4 -4h184q4 0 4 4q-2 36 -4 51q-5 38 -30 61t-64 23q-37 0 -61 -22zM188 587.5q-2 3.5 1 8.5l60 108q3 7 12 7h71q6 0 8 -3.5t-1 -8.5l-72 -109q-4 -6 -12 -6h-59q-6 0 -8 3.5z" />
    <glyph glyph-name="ecircumflex" unicode="&#xea;" horiz-adv-x="478" 
d="M306.5 92.5q24.5 17.5 36.5 46.5q3 9 12 6l61 -17q10 -3 7 -13q-17 -57 -63.5 -90t-116.5 -33q-74 0 -121.5 37.5t-58.5 102.5q-13 53 -13 124q0 68 5 107q9 70 58.5 112t126.5 42q87 0 135 -46.5t55 -128.5q4 -48 4 -114q0 -10 -10 -10h-275q-4 0 -4 -4q2 -39 4 -55
q5 -38 32 -61t67 -23q34 0 58.5 17.5zM179 412q-24 -22 -29 -58q-4 -32 -4 -55q0 -4 4 -4h184q4 0 4 4q-2 36 -4 51q-5 38 -30 61t-64 23q-37 0 -61 -22zM111 581.5q-2 3.5 1 8.5l75 108q4 6 12 6h78q8 0 12 -6l76 -108q2 -2 2 -6q0 -2 -2 -4t-6 -2h-58q-7 0 -12 7l-47 72
q-1 2 -3 2t-3 -2l-46 -72q-5 -7 -12 -7h-59q-6 0 -8 3.5z" />
    <glyph glyph-name="edieresis" unicode="&#xeb;" horiz-adv-x="478" 
d="M306.5 92.5q24.5 17.5 36.5 46.5q3 9 12 6l61 -17q10 -3 7 -13q-17 -57 -63.5 -90t-116.5 -33q-74 0 -121.5 37.5t-58.5 102.5q-13 53 -13 124q0 68 5 107q9 70 58.5 112t126.5 42q87 0 135 -46.5t55 -128.5q4 -48 4 -114q0 -10 -10 -10h-275q-4 0 -4 -4q2 -39 4 -55
q5 -38 32 -61t67 -23q34 0 58.5 17.5zM179 412q-24 -22 -29 -58q-4 -32 -4 -55q0 -4 4 -4h184q4 0 4 4q-2 36 -4 51q-5 38 -30 61t-64 23q-37 0 -61 -22zM121.5 610.5q-15.5 15.5 -15.5 39.5t15.5 39.5t39.5 15.5q23 0 38 -15.5t15 -39.5t-15 -39.5t-38 -15.5
q-24 0 -39.5 15.5zM282 610.5q-15 15.5 -15 39.5t15 39.5t40 15.5q23 0 38 -15.5t15 -39.5t-15 -39.5t-38 -15.5q-25 0 -40 15.5z" />
    <glyph glyph-name="igrave" unicode="&#xec;" horiz-adv-x="213" 
d="M57 10v489q0 10 10 10h76q10 0 10 -10v-489q0 -10 -10 -10h-76q-10 0 -10 10zM140 592q0 -6 -9 -6h-59q-7 0 -12 6l-72 109l-2 5q0 7 9 7h71q8 0 12 -7l60 -108q2 -4 2 -6z" />
    <glyph glyph-name="iacute" unicode="&#xed;" horiz-adv-x="213" 
d="M57 10v489q0 10 10 10h76q10 0 10 -10v-489q0 -10 -10 -10h-76q-10 0 -10 10zM52 589.5q-2 3.5 1 8.5l60 108q3 7 12 7h71q6 0 8 -3.5t-1 -8.5l-72 -109q-4 -6 -12 -6h-59q-6 0 -8 3.5z" />
    <glyph glyph-name="icircumflex" unicode="&#xee;" horiz-adv-x="213" 
d="M57 10v489q0 10 10 10h76q10 0 10 -10v-489q0 -10 -10 -10h-76q-10 0 -10 10zM-25 583.5q-2 3.5 1 8.5l75 108q4 6 12 6h78q8 0 12 -6l76 -108q2 -2 2 -6q0 -2 -2 -4t-6 -2h-58q-7 0 -12 7l-47 72q-1 2 -3 2t-3 -2l-46 -72q-5 -7 -12 -7h-59q-6 0 -8 3.5z" />
    <glyph glyph-name="idieresis" unicode="&#xef;" horiz-adv-x="213" 
d="M57 10v489q0 10 10 10h76q10 0 10 -10v-489q0 -10 -10 -10h-76q-10 0 -10 10zM-14.5 612.5q-15.5 15.5 -15.5 39.5t15.5 39.5t39.5 15.5q23 0 38 -15.5t15 -39.5t-15 -39.5t-38 -15.5q-24 0 -39.5 15.5zM146 612.5q-15 15.5 -15 39.5t15 39.5t40 15.5q23 0 38 -15.5
t15 -39.5t-15 -39.5t-38 -15.5q-25 0 -40 15.5z" />
    <glyph glyph-name="eth" unicode="&#xf0;" horiz-adv-x="485" 
d="M427 243q0 -69 -6 -105q-10 -66 -59.5 -106t-125.5 -40q-75 0 -124 39.5t-60 106.5q-6 38 -6 105t6 104q7 57 46 94.5t96 41.5q18 2 26 2q27 0 50 -6.5t39 -19.5q5 -3 3 3q-14 50 -46 99q-2 4 -5 2l-86 -23l-4 -1q-6 0 -9 8l-7 28l-1 4q0 6 8 9l65 19q5 2 2 5
q-32 39 -67 76q-3 3 -3 6q0 6 8 6h77q6 0 12 -6l18 -21q36 -43 34 -40q2 -4 5 -2l81 23l4 1q6 0 9 -8l8 -30v-3q0 -7 -7 -10l-61 -17q-4 -2 -3 -4q70 -104 78 -233q5 -41 5 -107zM330 242q0 50 -3 87q-5 37 -30 59.5t-61 22.5q-37 0 -61 -22.5t-29 -59.5q-4 -35 -4 -87
q0 -54 4 -89q5 -37 29 -59.5t61 -22.5q36 0 61 22.5t30 59.5q3 39 3 89z" />
    <glyph glyph-name="ntilde" unicode="&#xf1;" horiz-adv-x="487" 
d="M188.5 625.5q-9.5 -5.5 -18.5 -20.5q-2 -4 -6 -5t-8 2l-26 20q-7 5 -4 13q27 60 80 60q25 0 58 -23q15 -11 24 -15.5t19 -4.5q13 0 23 5.5t18 20.5q2 5 6 6t8 -2l27 -19q8 -5 3 -14q-15 -31 -38 -45.5t-46 -14.5q-14 0 -26.5 6t-28.5 17q-4 3 -12.5 8.5t-15 8t-13.5 2.5
q-14 0 -23.5 -5.5zM389 471q41 -45 41 -124v-337q0 -10 -10 -10h-76q-10 0 -10 10v323q0 46 -23.5 73t-63.5 27q-41 0 -65.5 -27.5t-24.5 -73.5v-322q0 -10 -10 -10h-76q-10 0 -10 10v489q0 10 10 10h76q10 0 10 -10v-31q0 -3 1.5 -3.5t3.5 2.5q39 49 114 49q72 0 113 -45z
" />
    <glyph glyph-name="ograve" unicode="&#xf2;" horiz-adv-x="490" 
d="M119.5 32q-50.5 40 -61.5 110q-9 58 -9 113q0 62 8 112q11 69 61.5 109.5t127.5 40.5q75 0 124.5 -40.5t61.5 -108.5q9 -59 9 -112q0 -55 -9 -114q-12 -70 -61.5 -110t-124.5 -40q-76 0 -126.5 40zM307 98q25 23 31 61q6 42 6 96q0 50 -5 95q-6 38 -31.5 61t-62.5 23
t-62.5 -23t-31.5 -61q-5 -45 -5 -95q0 -51 5 -96q6 -38 31.5 -61t63.5 -23q36 0 61 23zM281 590q0 -6 -9 -6h-59q-7 0 -12 6l-72 109l-2 5q0 7 9 7h71q8 0 12 -7l60 -108q2 -4 2 -6z" />
    <glyph glyph-name="oacute" unicode="&#xf3;" horiz-adv-x="490" 
d="M119.5 32q-50.5 40 -61.5 110q-9 58 -9 113q0 62 8 112q11 69 61.5 109.5t127.5 40.5q75 0 124.5 -40.5t61.5 -108.5q9 -59 9 -112q0 -55 -9 -114q-12 -70 -61.5 -110t-124.5 -40q-76 0 -126.5 40zM307 98q25 23 31 61q6 42 6 96q0 50 -5 95q-6 38 -31.5 61t-62.5 23
t-62.5 -23t-31.5 -61q-5 -45 -5 -95q0 -51 5 -96q6 -38 31.5 -61t63.5 -23q36 0 61 23zM193 587.5q-2 3.5 1 8.5l60 108q3 7 12 7h71q6 0 8 -3.5t-1 -8.5l-72 -109q-4 -6 -12 -6h-59q-6 0 -8 3.5z" />
    <glyph glyph-name="ocircumflex" unicode="&#xf4;" horiz-adv-x="490" 
d="M119.5 32q-50.5 40 -61.5 110q-9 58 -9 113q0 62 8 112q11 69 61.5 109.5t127.5 40.5q75 0 124.5 -40.5t61.5 -108.5q9 -59 9 -112q0 -55 -9 -114q-12 -70 -61.5 -110t-124.5 -40q-76 0 -126.5 40zM307 98q25 23 31 61q6 42 6 96q0 50 -5 95q-6 38 -31.5 61t-62.5 23
t-62.5 -23t-31.5 -61q-5 -45 -5 -95q0 -51 5 -96q6 -38 31.5 -61t63.5 -23q36 0 61 23zM116 581.5q-2 3.5 1 8.5l75 108q4 6 12 6h78q8 0 12 -6l76 -108q2 -2 2 -6q0 -2 -2 -4t-6 -2h-58q-7 0 -12 7l-47 72q-1 2 -3 2t-3 -2l-46 -72q-5 -7 -12 -7h-59q-6 0 -8 3.5z" />
    <glyph glyph-name="otilde" unicode="&#xf5;" horiz-adv-x="490" 
d="M119.5 32q-50.5 40 -61.5 110q-9 58 -9 113q0 62 8 112q11 69 61.5 109.5t127.5 40.5q75 0 124.5 -40.5t61.5 -108.5q9 -59 9 -112q0 -55 -9 -114q-12 -70 -61.5 -110t-124.5 -40q-76 0 -126.5 40zM307 98q25 23 31 61q6 42 6 96q0 50 -5 95q-6 38 -31.5 61t-62.5 23
t-62.5 -23t-31.5 -61q-5 -45 -5 -95q0 -51 5 -96q6 -38 31.5 -61t63.5 -23q36 0 61 23zM281.5 601q-12.5 6 -30.5 17q-4 2 -13 8t-16 8.5t-14 2.5q-14 0 -24.5 -5.5t-19.5 -20.5q-6 -9 -14 -3l-29 20q-7 6 -3 13q14 30 35.5 45t47.5 15q16 0 30 -6t31 -17t26 -15.5t20 -4.5
q13 0 23.5 5.5t19.5 20.5q4 10 14 4l28 -19q4 -3 4 -9q0 -4 -3 -10q-16 -28 -39 -41.5t-46 -13.5q-15 0 -27.5 6z" />
    <glyph glyph-name="odieresis" unicode="&#xf6;" horiz-adv-x="490" 
d="M119.5 32q-50.5 40 -61.5 110q-9 58 -9 113q0 62 8 112q11 69 61.5 109.5t127.5 40.5q75 0 124.5 -40.5t61.5 -108.5q9 -59 9 -112q0 -55 -9 -114q-12 -70 -61.5 -110t-124.5 -40q-76 0 -126.5 40zM307 98q25 23 31 61q6 42 6 96q0 50 -5 95q-6 38 -31.5 61t-62.5 23
t-62.5 -23t-31.5 -61q-5 -45 -5 -95q0 -51 5 -96q6 -38 31.5 -61t63.5 -23q36 0 61 23zM126.5 610.5q-15.5 15.5 -15.5 39.5t15.5 39.5t39.5 15.5q23 0 38 -15.5t15 -39.5t-15 -39.5t-38 -15.5q-24 0 -39.5 15.5zM287 610.5q-15 15.5 -15 39.5t15 39.5t40 15.5
q23 0 38 -15.5t15 -39.5t-15 -39.5t-38 -15.5q-25 0 -40 15.5z" />
    <glyph glyph-name="divide" unicode="&#xf7;" horiz-adv-x="468" 
d="M192 443q-17 17 -17 42q0 23 17.5 40t40.5 17q24 0 41.5 -17t17.5 -40q0 -25 -17.5 -42t-41.5 -17t-41 17zM32 291v58q0 10 10 10h383q10 0 10 -10v-58q0 -10 -10 -10h-383q-10 0 -10 10zM192 124q-17 17 -17 41q0 23 17.5 40.5t40.5 17.5q24 0 41.5 -17.5t17.5 -40.5
q0 -24 -17.5 -41t-41.5 -17t-41 17z" />
    <glyph glyph-name="oslash" unicode="&#xf8;" horiz-adv-x="506" 
d="M452 256q0 -55 -9 -114q-12 -70 -61.5 -110t-124.5 -40q-60 0 -104 25q-4 2 -5 -1l-29 -48q-2 -4 -6 -5t-8 1l-47 31q-7 6 -3 13l37 62q2 3 0 6q-17 30 -23 66q-9 58 -9 113q0 62 8 112q11 69 61.5 109.5t127.5 40.5q51 0 90 -18q4 -2 5 1l27 43q5 10 13 3l48 -31
q4 -3 4.5 -5.5t-1.5 -7.5l-31 -52q-2 -3 0 -5q24 -35 31 -77q9 -59 9 -112zM159 190q2 -7 5 -1l139 229q2 4 -1 5q-19 11 -46 11q-37 0 -62.5 -23t-31.5 -61q-5 -45 -5 -95q0 -25 2 -65zM355 255q0 34 -4 86q-2 7 -5 1l-147 -244q-2 -4 1 -5q23 -18 57 -18q36 0 61 23t31 61
q6 42 6 96z" />
    <glyph glyph-name="ugrave" unicode="&#xf9;" horiz-adv-x="485" 
d="M338 509h76q10 0 10 -10v-489q0 -10 -10 -10h-76q-10 0 -10 10v31q0 2 -1.5 3t-3.5 -1q-35 -50 -110 -50q-68 0 -112.5 40t-44.5 116v350q0 10 10 10h75q10 0 10 -10v-324q0 -47 22.5 -73t64.5 -26q41 0 65.5 27.5t24.5 74.5v321q0 10 10 10zM276 582q0 -6 -9 -6h-59
q-7 0 -12 6l-72 109l-2 5q0 7 9 7h71q8 0 12 -7l60 -108q2 -4 2 -6z" />
    <glyph glyph-name="uacute" unicode="&#xfa;" horiz-adv-x="485" 
d="M338 509h76q10 0 10 -10v-489q0 -10 -10 -10h-76q-10 0 -10 10v31q0 2 -1.5 3t-3.5 -1q-35 -50 -110 -50q-68 0 -112.5 40t-44.5 116v350q0 10 10 10h75q10 0 10 -10v-324q0 -47 22.5 -73t64.5 -26q41 0 65.5 27.5t24.5 74.5v321q0 10 10 10zM188 579.5q-2 3.5 1 8.5
l60 108q3 7 12 7h71q6 0 8 -3.5t-1 -8.5l-72 -109q-4 -6 -12 -6h-59q-6 0 -8 3.5z" />
    <glyph glyph-name="ucircumflex" unicode="&#xfb;" horiz-adv-x="485" 
d="M338 509h76q10 0 10 -10v-489q0 -10 -10 -10h-76q-10 0 -10 10v31q0 2 -1.5 3t-3.5 -1q-35 -50 -110 -50q-68 0 -112.5 40t-44.5 116v350q0 10 10 10h75q10 0 10 -10v-324q0 -47 22.5 -73t64.5 -26q41 0 65.5 27.5t24.5 74.5v321q0 10 10 10zM111 573.5q-2 3.5 1 8.5
l75 108q4 6 12 6h78q8 0 12 -6l76 -108q2 -2 2 -6q0 -2 -2 -4t-6 -2h-58q-7 0 -12 7l-47 72q-1 2 -3 2t-3 -2l-46 -72q-5 -7 -12 -7h-59q-6 0 -8 3.5z" />
    <glyph glyph-name="udieresis" unicode="&#xfc;" horiz-adv-x="485" 
d="M338 509h76q10 0 10 -10v-489q0 -10 -10 -10h-76q-10 0 -10 10v31q0 2 -1.5 3t-3.5 -1q-35 -50 -110 -50q-68 0 -112.5 40t-44.5 116v350q0 10 10 10h75q10 0 10 -10v-324q0 -47 22.5 -73t64.5 -26q41 0 65.5 27.5t24.5 74.5v321q0 10 10 10zM121.5 602.5
q-15.5 15.5 -15.5 39.5t15.5 39.5t39.5 15.5q23 0 38 -15.5t15 -39.5t-15 -39.5t-38 -15.5q-24 0 -39.5 15.5zM282 602.5q-15 15.5 -15 39.5t15 39.5t40 15.5q23 0 38 -15.5t15 -39.5t-15 -39.5t-38 -15.5q-25 0 -40 15.5z" />
    <glyph glyph-name="yacute" unicode="&#xfd;" horiz-adv-x="432" 
d="M42 -190v61q0 4 2 7t4 3h5q36 0 56.5 9t33.5 33.5t24 73.5q1 1 0.5 3.5l-0.5 2.5l-147 495l-1 3q0 8 10 8h80q10 0 11 -9l94 -363q1 -2 2.5 -2t2.5 2l92 363q2 9 11 9l81 -1q5 0 7.5 -3t1.5 -8l-159 -532q-21 -69 -42.5 -103t-56.5 -48t-100 -14h-6q-6 0 -6 10z
M164 582.5q-2 3.5 1 8.5l60 108q3 7 12 7h71q6 0 8 -3.5t-1 -8.5l-72 -109q-4 -6 -12 -6h-59q-6 0 -8 3.5z" />
    <glyph glyph-name="thorn" unicode="&#xfe;" horiz-adv-x="483" 
d="M437 254q0 -63 -12 -115q-17 -74 -55 -110.5t-101 -36.5q-71 0 -109 48q-2 2 -3.5 1.5t-1.5 -2.5v-229q0 -10 -10 -10h-76q-10 0 -10 10v880q0 10 10 10h76q10 0 10 -10v-218q0 -2 1.5 -3t3.5 1q17 24 42.5 35.5t62.5 11.5q133 0 162 -150q10 -50 10 -113zM340 255
q0 72 -15 114q-10 30 -31 47.5t-51 17.5q-58 0 -78 -67q-7 -20 -10 -49v-127q3 -26 9 -47q20 -69 80 -69q64 0 84 70q12 40 12 110z" />
    <glyph glyph-name="ydieresis" unicode="&#xff;" horiz-adv-x="432" 
d="M42 -190v61q0 4 2 7t4 3h5q36 0 56.5 9t33.5 33.5t24 73.5q1 1 0.5 3.5l-0.5 2.5l-147 495l-1 3q0 8 10 8h80q10 0 11 -9l94 -363q1 -2 2.5 -2t2.5 2l92 363q2 9 11 9l81 -1q5 0 7.5 -3t1.5 -8l-159 -532q-21 -69 -42.5 -103t-56.5 -48t-100 -14h-6q-6 0 -6 10z
M97.5 605.5q-15.5 15.5 -15.5 39.5t15.5 39.5t39.5 15.5q23 0 38 -15.5t15 -39.5t-15 -39.5t-38 -15.5q-24 0 -39.5 15.5zM258 605.5q-15 15.5 -15 39.5t15 39.5t40 15.5q23 0 38 -15.5t15 -39.5t-15 -39.5t-38 -15.5q-25 0 -40 15.5z" />
    <glyph glyph-name="Amacron" unicode="&#x100;" horiz-adv-x="550" 
d="M420 9l-29 116q0 3 -5 3h-221q-4 0 -5 -3l-30 -116q-1 -9 -11 -9h-78q-5 0 -7.5 3t-1.5 8l185 680q2 9 11 9h94q9 0 11 -9l186 -680l1 -3q0 -8 -10 -8h-79q-9 0 -11 9zM181.5 205.5q1.5 -1.5 3.5 -1.5h180q2 0 3.5 1.5t0.5 2.5l-91 360q-1 2 -2 2t-2 -2l-93 -360
q-1 -1 0.5 -2.5zM151 790v48q0 10 10 10h224q10 0 10 -10v-48q0 -10 -10 -10h-224q-10 0 -10 10z" />
    <glyph glyph-name="amacron" unicode="&#x101;" horiz-adv-x="470" 
d="M368.5 470.5q50.5 -46.5 50.5 -121.5v-339q0 -10 -10 -10h-76q-10 0 -10 10v29q0 5 -5 2q-46 -49 -127 -49q-64 0 -109.5 35t-45.5 115q0 82 53 124.5t145 42.5h85q4 0 4 4v28q0 43 -22.5 68t-64.5 25q-34 0 -55.5 -16.5t-26.5 -44.5q-1 -9 -11 -9l-81 5q-4 0 -7 2.5
t-2 6.5q6 62 56.5 100.5t125.5 38.5q83 0 133.5 -46.5zM290.5 99q32.5 25 32.5 67v64q0 4 -4 4h-77q-50 0 -79.5 -22t-29.5 -64q0 -37 22.5 -55.5t58.5 -18.5q44 0 76.5 25zM112 607v48q0 10 10 10h224q10 0 10 -10v-48q0 -10 -10 -10h-224q-10 0 -10 10z" />
    <glyph glyph-name="Abreve" unicode="&#x102;" horiz-adv-x="550" 
d="M420 9l-29 116q0 3 -5 3h-221q-4 0 -5 -3l-30 -116q-1 -9 -11 -9h-78q-5 0 -7.5 3t-1.5 8l185 680q2 9 11 9h94q9 0 11 -9l186 -680l1 -3q0 -8 -10 -8h-79q-9 0 -11 9zM181.5 205.5q1.5 -1.5 3.5 -1.5h180q2 0 3.5 1.5t0.5 2.5l-91 360q-1 2 -2 2t-2 -2l-93 -360
q-1 -1 0.5 -2.5zM197 774.5q-32 28.5 -36 71.5q0 10 10 10h34q10 0 11 -10q3 -23 19.5 -38.5t38.5 -15.5t38.5 15.5t19.5 38.5q1 10 11 10h34q10 0 10 -10q-4 -44 -35.5 -72t-77.5 -28q-45 0 -77 28.5z" />
    <glyph glyph-name="abreve" unicode="&#x103;" horiz-adv-x="470" 
d="M368.5 470.5q50.5 -46.5 50.5 -121.5v-339q0 -10 -10 -10h-76q-10 0 -10 10v29q0 5 -5 2q-46 -49 -127 -49q-64 0 -109.5 35t-45.5 115q0 82 53 124.5t145 42.5h85q4 0 4 4v28q0 43 -22.5 68t-64.5 25q-34 0 -55.5 -16.5t-26.5 -44.5q-1 -9 -11 -9l-81 5q-4 0 -7 2.5
t-2 6.5q6 62 56.5 100.5t125.5 38.5q83 0 133.5 -46.5zM290.5 99q32.5 25 32.5 67v64q0 4 -4 4h-77q-50 0 -79.5 -22t-29.5 -64q0 -37 22.5 -55.5t58.5 -18.5q44 0 76.5 25zM158 591.5q-32 28.5 -36 71.5q0 10 10 10h34q10 0 11 -10q3 -23 19.5 -38.5t38.5 -15.5t38.5 15.5
t19.5 38.5q1 10 11 10h34q10 0 10 -10q-4 -44 -35.5 -72t-77.5 -28q-45 0 -77 28.5z" />
    <glyph glyph-name="Aogonek" unicode="&#x104;" horiz-adv-x="567" 
d="M420 9l-29 116q0 3 -5 3h-221q-4 0 -5 -3l-30 -116q-1 -9 -11 -9h-78q-5 0 -7.5 3t-1.5 8l185 680q2 9 11 9h94q9 0 11 -9l186 -680l1 -3q0 -8 -10 -8h-79q-9 0 -11 9zM181.5 205.5q1.5 -1.5 3.5 -1.5h180q2 0 3.5 1.5t0.5 2.5l-91 360q-1 2 -2 2t-2 -2l-93 -360
q-1 -1 0.5 -2.5zM523 -172q0 -7 -8 -10q-24 -6 -43 -6q-31 0 -54 14t-31 47q-3 10 -3 22q0 53 52 98l4 4q3 3 10 3h41q8 0 8 -5q0 -4 -4 -7q-45 -42 -45 -79q0 -7 1 -10q7 -31 39 -31q6 0 16 2h2q8 0 10 -8l5 -32v-2z" />
    <glyph glyph-name="aogonek" unicode="&#x105;" horiz-adv-x="600" 
d="M419 -130q8 0 10 -8l5 -32v-2q0 -7 -8 -10q-24 -6 -43 -6q-31 0 -54 14t-31 47q-3 10 -3 23q0 52 53 99q2 2 1 3.5t-3 1.5h-13q-10 0 -10 10v29q0 5 -5 2q-46 -49 -127 -49q-64 0 -109.5 35t-45.5 115q0 82 53 124.5t145 42.5h85q4 0 4 4v28q0 43 -22.5 68t-64.5 25
q-34 0 -55.5 -16.5t-26.5 -44.5q-1 -9 -11 -9l-81 5q-4 0 -7 3t-2 8q7 61 57 99t125 38q83 0 133.5 -46.5t50.5 -121.5v-346q0 -4 -2 -5l-11 -10q-45 -42 -45 -79q0 -7 1 -10q7 -31 39 -31q6 0 16 2h2zM290.5 99q32.5 25 32.5 67v64q0 4 -4 4h-77q-50 0 -79.5 -22t-29.5 -64
q0 -37 22.5 -55.5t58.5 -18.5q44 0 76.5 25z" />
    <glyph glyph-name="Cacute" unicode="&#x106;" horiz-adv-x="530" 
d="M156.5 17.5q-48.5 25.5 -75 72t-26.5 107.5v307q0 93 58.5 148.5t154.5 55.5t154 -55t58 -146v-8q0 -5 -3 -8t-7 -3l-76 -4q-10 0 -10 10v15q0 52 -32 84t-84 32t-84.5 -32t-32.5 -84v-318q0 -52 32.5 -84t84.5 -32t84 32t32 84v14q0 10 10 10l76 -4q10 0 10 -8v-9
q0 -60 -26.5 -106t-74.5 -71t-111 -25t-111.5 25.5zM216 778.5q-2 3.5 1 8.5l60 108q3 7 12 7h71q6 0 8 -3.5t-1 -8.5l-72 -109q-4 -6 -12 -6h-59q-6 0 -8 3.5z" />
    <glyph glyph-name="cacute" unicode="&#x107;" horiz-adv-x="470" 
d="M116.5 32.5q-49.5 40.5 -60.5 110.5q-7 45 -7 113q0 59 7 111q11 68 61 109t126 41q74 0 125 -39t61 -100l4 -24q0 -9 -10 -11l-75 -6h-2q-6 0 -8 7l-1 4l-2 12q-5 31 -30 52.5t-63 21.5t-62.5 -23t-29.5 -61q-5 -42 -5 -95q0 -59 6 -97q5 -38 29 -60.5t62 -22.5
q39 0 64 21.5t29 53.5l1 10q1 10 11 9l75 -5q10 0 10 -11l-3 -17q-8 -64 -59 -104t-127 -40q-77 0 -126.5 40.5zM190 588.5q-2 3.5 1 8.5l60 108q3 7 12 7h71q6 0 8 -3.5t-1 -8.5l-72 -109q-4 -6 -12 -6h-59q-6 0 -8 3.5z" />
    <glyph glyph-name="Cdotaccent" unicode="&#x10a;" horiz-adv-x="530" 
d="M156.5 17.5q-48.5 25.5 -75 72t-26.5 107.5v307q0 93 58.5 148.5t154.5 55.5t154 -55t58 -146v-8q0 -5 -3 -8t-7 -3l-76 -4q-10 0 -10 10v15q0 52 -32 84t-84 32t-84.5 -32t-32.5 -84v-318q0 -52 32.5 -84t84.5 -32t84 32t32 84v14q0 10 10 10l76 -4q10 0 10 -8v-9
q0 -60 -26.5 -106t-74.5 -71t-111 -25t-111.5 25.5zM231 789.5q-14 14.5 -14 37.5t14 37t37 14q22 0 36 -14t14 -37t-14 -37.5t-36 -14.5q-23 0 -37 14.5z" />
    <glyph glyph-name="cdotaccent" unicode="&#x10b;" horiz-adv-x="470" 
d="M116.5 32.5q-49.5 40.5 -60.5 110.5q-7 45 -7 113q0 59 7 111q11 68 61 109t126 41q74 0 125 -39t61 -100l4 -24q0 -9 -10 -11l-75 -6h-2q-6 0 -8 7l-1 4l-2 12q-5 31 -30 52.5t-63 21.5t-62.5 -23t-29.5 -61q-5 -42 -5 -95q0 -59 6 -97q5 -38 29 -60.5t62 -22.5
q39 0 64 21.5t29 53.5l1 10q1 10 11 9l75 -5q10 0 10 -11l-3 -17q-8 -64 -59 -104t-127 -40q-77 0 -126.5 40.5zM205 599.5q-14 14.5 -14 37.5t14 37t37 14q22 0 36 -14t14 -37t-14 -37.5t-36 -14.5q-23 0 -37 14.5z" />
    <glyph glyph-name="Ccaron" unicode="&#x10c;" horiz-adv-x="530" 
d="M156.5 17.5q-48.5 25.5 -75 72t-26.5 107.5v307q0 93 58.5 148.5t154.5 55.5t154 -55t58 -146v-8q0 -5 -3 -8t-7 -3l-76 -4q-10 0 -10 10v15q0 52 -32 84t-84 32t-84.5 -32t-32.5 -84v-318q0 -52 32.5 -84t84.5 -32t84 32t32 84v14q0 10 10 10l76 -4q10 0 10 -8v-9
q0 -60 -26.5 -106t-74.5 -71t-111 -25t-111.5 25.5zM214 771l-72 107l-2 5q0 7 9 7h56q8 0 12 -6l48 -73q1 -1 3 -1t3 1l47 72q5 7 12 7h54q6 0 8 -3.5t-1 -8.5l-74 -107q-4 -6 -12 -6h-79q-8 0 -12 6z" />
    <glyph glyph-name="ccaron" unicode="&#x10d;" horiz-adv-x="470" 
d="M116.5 32.5q-49.5 40.5 -60.5 110.5q-7 45 -7 113q0 59 7 111q11 68 61 109t126 41q74 0 125 -39t61 -100l4 -24q0 -9 -10 -11l-75 -6h-2q-6 0 -8 7l-1 4l-2 12q-5 31 -30 52.5t-63 21.5t-62.5 -23t-29.5 -61q-5 -42 -5 -95q0 -59 6 -97q5 -38 29 -60.5t62 -22.5
q39 0 64 21.5t29 53.5l1 10q1 10 11 9l75 -5q10 0 10 -11l-3 -17q-8 -64 -59 -104t-127 -40q-77 0 -126.5 40.5zM188 581l-72 107l-2 5q0 7 9 7h56q8 0 12 -6l48 -73q1 -1 3 -1t3 1l47 72q5 7 12 7h54q6 0 8 -3.5t-1 -8.5l-74 -107q-4 -6 -12 -6h-79q-8 0 -12 6z" />
    <glyph glyph-name="Dcaron" unicode="&#x10e;" horiz-adv-x="544" 
d="M72 10v680q0 10 10 10h203q93 0 148.5 -53t55.5 -141v-312q0 -88 -55.5 -141t-148.5 -53h-203q-10 0 -10 10zM172 83l115 1q48 0 76.5 32.5t29.5 87.5v292q0 56 -29 88.5t-78 32.5h-114q-4 0 -4 -4v-526q0 -4 4 -4zM215 762l-72 107l-2 5q0 7 9 7h56q8 0 12 -6l48 -72
q1 -1 3 -1t3 1l47 72q5 6 12 6h54q6 0 8 -3.5t-1 -8.5l-74 -107q-4 -6 -12 -6h-79q-8 0 -12 6z" />
    <glyph glyph-name="dcaron" unicode="&#x10f;" horiz-adv-x="625" 
d="M341 700h76q10 0 10 -10v-680q0 -10 -10 -10h-76q-10 0 -10 10v33q0 2 -2 3t-3 -1q-38 -53 -112 -53q-63 0 -101 36.5t-55 110.5q-12 52 -12 115t10 113q29 150 162 150q73 0 108 -51q1 -3 3 -2.5t2 3.5v223q0 10 10 10zM331 255q0 72 -13 112q-20 67 -78 67
q-30 0 -51 -17.5t-31 -47.5q-15 -42 -15 -114q0 -70 12 -110q20 -70 84 -70q60 0 80 69q12 40 12 111zM471 579.5q-2 3.5 1 8.5l60 108q3 7 12 7h71q6 0 8 -3.5t-1 -8.5l-72 -109q-4 -6 -12 -6h-59q-6 0 -8 3.5z" />
    <glyph glyph-name="Dcroat" unicode="&#x110;" horiz-adv-x="593" 
d="M482.5 647q55.5 -53 55.5 -141v-312q0 -88 -55.5 -141t-148.5 -53h-203q-10 0 -10 10v319q0 4 -4 4h-35q-10 0 -10 10v43q0 10 10 10h35q4 0 4 4v290q0 10 10 10h203q93 0 148.5 -53zM442 496q0 56 -29 88.5t-78 32.5h-114q-4 0 -4 -4v-213q0 -4 4 -4h85q10 0 10 -10v-43
q0 -10 -10 -10h-85q-4 0 -4 -4v-242q0 -4 4 -4l115 1q48 0 76.5 32.5t29.5 87.5v292z" />
    <glyph glyph-name="dcroat" unicode="&#x111;" horiz-adv-x="600" 
d="M488 616v-41q0 -10 -10 -10h-47q-4 0 -4 -4v-551q0 -10 -10 -10h-76q-10 0 -10 10v33q0 2 -2 3t-3 -1q-38 -53 -112 -53q-63 0 -101 36.5t-55 110.5q-12 52 -12 115t10 113q29 150 162 150q73 0 108 -51q1 -3 3 -2.5t2 3.5v94q0 4 -4 4h-135q-10 0 -10 10v41q0 10 10 10
h135q4 0 4 4v60q0 10 10 10h76q10 0 10 -10v-60q0 -4 4 -4h47q10 0 10 -10zM331 255q0 72 -13 112q-20 67 -78 67q-30 0 -51 -17.5t-31 -47.5q-15 -42 -15 -114q0 -70 12 -110q20 -70 84 -70q60 0 80 69q12 40 12 111z" />
    <glyph glyph-name="Emacron" unicode="&#x112;" horiz-adv-x="515" 
d="M462 617h-290q-4 0 -4 -4v-216q0 -4 4 -4h191q10 0 10 -10v-63q0 -10 -10 -10h-191q-4 0 -4 -4v-219q0 -4 4 -4h290q10 0 10 -10v-63q0 -10 -10 -10h-380q-10 0 -10 10v680q0 10 10 10h380q10 0 10 -10v-63q0 -10 -10 -10zM147 801v48q0 10 10 10h224q10 0 10 -10v-48
q0 -10 -10 -10h-224q-10 0 -10 10z" />
    <glyph glyph-name="emacron" unicode="&#x113;" horiz-adv-x="478" 
d="M306.5 92.5q24.5 17.5 36.5 46.5q3 9 12 6l61 -17q10 -3 7 -13q-17 -57 -63.5 -90t-116.5 -33q-74 0 -121.5 37.5t-58.5 102.5q-13 53 -13 124q0 68 5 107q9 70 58.5 112t126.5 42q87 0 135 -46.5t55 -128.5q4 -48 4 -114q0 -10 -10 -10h-275q-4 0 -4 -4q2 -39 4 -55
q5 -38 32 -61t67 -23q34 0 58.5 17.5zM179 412q-24 -22 -29 -58q-4 -32 -4 -55q0 -4 4 -4h184q4 0 4 4q-2 36 -4 51q-5 38 -30 61t-64 23q-37 0 -61 -22zM117 607v48q0 10 10 10h224q10 0 10 -10v-48q0 -10 -10 -10h-224q-10 0 -10 10z" />
    <glyph glyph-name="Edotaccent" unicode="&#x116;" horiz-adv-x="515" 
d="M462 617h-290q-4 0 -4 -4v-216q0 -4 4 -4h191q10 0 10 -10v-63q0 -10 -10 -10h-191q-4 0 -4 -4v-219q0 -4 4 -4h290q10 0 10 -10v-63q0 -10 -10 -10h-380q-10 0 -10 10v680q0 10 10 10h380q10 0 10 -10v-63q0 -10 -10 -10zM233 792.5q-14 14.5 -14 37.5t14 37t37 14
q22 0 36 -14t14 -37t-14 -37.5t-36 -14.5q-23 0 -37 14.5z" />
    <glyph glyph-name="edotaccent" unicode="&#x117;" horiz-adv-x="478" 
d="M306.5 92.5q24.5 17.5 36.5 46.5q3 9 12 6l61 -17q10 -3 7 -13q-17 -57 -63.5 -90t-116.5 -33q-74 0 -121.5 37.5t-58.5 102.5q-13 53 -13 124q0 68 5 107q9 70 58.5 112t126.5 42q87 0 135 -46.5t55 -128.5q4 -48 4 -114q0 -10 -10 -10h-275q-4 0 -4 -4q2 -39 4 -55
q5 -38 32 -61t67 -23q34 0 58.5 17.5zM179 412q-24 -22 -29 -58q-4 -32 -4 -55q0 -4 4 -4h184q4 0 4 4q-2 36 -4 51q-5 38 -30 61t-64 23q-37 0 -61 -22zM203 598.5q-14 14.5 -14 37.5t14 37t37 14q22 0 36 -14t14 -37t-14 -37.5t-36 -14.5q-23 0 -37 14.5z" />
    <glyph glyph-name="Eogonek" unicode="&#x118;" horiz-adv-x="515" 
d="M462 617h-290q-4 0 -4 -4v-216q0 -4 4 -4h191q10 0 10 -10v-63q0 -10 -10 -10h-191q-4 0 -4 -4v-219q0 -4 4 -4h290q10 0 10 -10v-63q0 -10 -10 -10h-156q-3 0 -5 -2q-22 -18 -34.5 -39t-12.5 -41q0 -7 1 -10q7 -31 39 -31q6 0 16 2h2q8 0 10 -8l5 -32v-2q0 -7 -8 -10
q-24 -6 -43 -6q-31 0 -54 14t-31 47q-2 7 -2 22q0 48 43 91q3 5 -2 5h-148q-10 0 -10 10v680q0 10 10 10h380q10 0 10 -10v-63q0 -10 -10 -10z" />
    <glyph glyph-name="eogonek" unicode="&#x119;" horiz-adv-x="478" 
d="M306.5 92.5q24.5 17.5 36.5 46.5q3 9 12 6l61 -17q10 -3 7 -13q-15 -48 -50.5 -80t-89.5 -40q-3 0 -5 -2q-51 -43 -51 -84q0 -21 11 -31t29 -10q6 0 16 2h2q8 0 10 -8l5 -32v-2q0 -7 -8 -10q-24 -6 -43 -6q-31 0 -54 14t-31 47q-3 12 -3 23q0 48 47 94q5 3 -1 5
q-60 9 -97 44.5t-47 92.5q-13 53 -13 124q0 68 5 107q9 70 58.5 112t126.5 42q87 0 135 -46.5t55 -128.5q4 -48 4 -114q0 -10 -10 -10h-275q-4 0 -4 -4q2 -39 4 -55q5 -38 32 -61t67 -23q34 0 58.5 17.5zM179 412q-24 -22 -29 -58q-4 -32 -4 -55q0 -4 4 -4h184q4 0 4 4
q-2 36 -4 51q-5 38 -30 61t-64 23q-37 0 -61 -22z" />
    <glyph glyph-name="Ecaron" unicode="&#x11a;" horiz-adv-x="515" 
d="M462 617h-290q-4 0 -4 -4v-216q0 -4 4 -4h191q10 0 10 -10v-63q0 -10 -10 -10h-191q-4 0 -4 -4v-219q0 -4 4 -4h290q10 0 10 -10v-63q0 -10 -10 -10h-380q-10 0 -10 10v680q0 10 10 10h380q10 0 10 -10v-63q0 -10 -10 -10zM216 774l-72 107l-2 5q0 7 9 7h56q8 0 12 -6
l48 -73q1 -1 3 -1t3 1l47 72q5 7 12 7h54q6 0 8 -3.5t-1 -8.5l-74 -107q-4 -6 -12 -6h-79q-8 0 -12 6z" />
    <glyph glyph-name="ecaron" unicode="&#x11b;" horiz-adv-x="478" 
d="M306.5 92.5q24.5 17.5 36.5 46.5q3 9 12 6l61 -17q10 -3 7 -13q-17 -57 -63.5 -90t-116.5 -33q-74 0 -121.5 37.5t-58.5 102.5q-13 53 -13 124q0 68 5 107q9 70 58.5 112t126.5 42q87 0 135 -46.5t55 -128.5q4 -48 4 -114q0 -10 -10 -10h-275q-4 0 -4 -4q2 -39 4 -55
q5 -38 32 -61t67 -23q34 0 58.5 17.5zM179 412q-24 -22 -29 -58q-4 -32 -4 -55q0 -4 4 -4h184q4 0 4 4q-2 36 -4 51q-5 38 -30 61t-64 23q-37 0 -61 -22zM186 574l-72 107l-2 5q0 7 9 7h56q8 0 12 -6l48 -72q1 -1 3 -1t3 1l47 72q5 6 12 6h54q6 0 8 -3.5t-1 -8.5l-74 -107
q-4 -6 -12 -6h-79q-8 0 -12 6z" />
    <glyph glyph-name="Gbreve" unicode="&#x11e;" horiz-adv-x="529" 
d="M114 47.5q-58 55.5 -58 146.5v312q0 91 58 146.5t153 55.5q63 0 111 -24.5t74.5 -69.5t26.5 -102v-27q0 -10 -10 -10h-76q-10 0 -10 10v27q0 50 -31.5 81.5t-84.5 31.5q-52 0 -84 -32.5t-32 -84.5v-316q0 -52 32.5 -84.5t85.5 -32.5q52 0 83 30t31 81v93q0 4 -4 4h-105
q-10 0 -10 10v62q0 10 10 10h195q10 0 10 -10v-156q0 -97 -57.5 -152t-154.5 -55q-95 0 -153 55.5zM190 782.5q-32 28.5 -36 71.5q0 10 10 10h34q10 0 11 -10q3 -23 19.5 -38.5t38.5 -15.5t38.5 15.5t19.5 38.5q1 10 11 10h34q10 0 10 -10q-4 -44 -35.5 -72t-77.5 -28
q-45 0 -77 28.5z" />
    <glyph glyph-name="gbreve" unicode="&#x11f;" horiz-adv-x="483" 
d="M342 509h76q10 0 10 -10v-479q0 -222 -238 -222q-21 0 -32 1q-10 1 -10 11l2 67q0 5 3 7.5t7 1.5q94 -4 133 29t39 112v19q0 2 -1.5 3t-3.5 -1q-39 -48 -109 -48q-65 0 -109.5 38.5t-54.5 107.5q-6 32 -6 109q0 83 7 116q9 67 51.5 106.5t107.5 39.5q72 0 113 -47
q2 -2 3.5 -1t1.5 3v27q0 10 10 10zM332 256q0 56 -3 95q-4 36 -28 59.5t-61 23.5q-36 0 -60.5 -23.5t-29.5 -59.5q-6 -39 -6 -95q0 -52 5 -92q5 -37 30 -60t62 -23t61 23t28 59q2 52 2 93zM170 590.5q-32 28.5 -36 71.5q0 10 10 10h34q10 0 11 -10q3 -23 19.5 -38.5
t38.5 -15.5t38.5 15.5t19.5 38.5q1 10 11 10h34q10 0 10 -10q-4 -44 -35.5 -72t-77.5 -28q-45 0 -77 28.5z" />
    <glyph glyph-name="Gdotaccent" unicode="&#x120;" horiz-adv-x="529" 
d="M114 47.5q-58 55.5 -58 146.5v312q0 91 58 146.5t153 55.5q63 0 111 -24.5t74.5 -69.5t26.5 -102v-27q0 -10 -10 -10h-76q-10 0 -10 10v27q0 50 -31.5 81.5t-84.5 31.5q-52 0 -84 -32.5t-32 -84.5v-316q0 -52 32.5 -84.5t85.5 -32.5q52 0 83 30t31 81v93q0 4 -4 4h-105
q-10 0 -10 10v62q0 10 10 10h195q10 0 10 -10v-156q0 -97 -57.5 -152t-154.5 -55q-95 0 -153 55.5zM230 789.5q-14 14.5 -14 37.5t14 37t37 14q22 0 36 -14t14 -37t-14 -37.5t-36 -14.5q-23 0 -37 14.5z" />
    <glyph glyph-name="gdotaccent" unicode="&#x121;" horiz-adv-x="483" 
d="M342 509h76q10 0 10 -10v-479q0 -222 -238 -222q-21 0 -32 1q-10 1 -10 11l2 67q0 5 3 7.5t7 1.5q94 -4 133 29t39 112v19q0 2 -1.5 3t-3.5 -1q-39 -48 -109 -48q-65 0 -109.5 38.5t-54.5 107.5q-6 32 -6 109q0 83 7 116q9 67 51.5 106.5t107.5 39.5q72 0 113 -47
q2 -2 3.5 -1t1.5 3v27q0 10 10 10zM332 256q0 56 -3 95q-4 36 -28 59.5t-61 23.5q-36 0 -60.5 -23.5t-29.5 -59.5q-6 -39 -6 -95q0 -52 5 -92q5 -37 30 -60t62 -23t61 23t28 59q2 52 2 93zM210 597.5q-14 14.5 -14 37.5t14 37t37 14q22 0 36 -14t14 -37t-14 -37.5t-36 -14.5
q-23 0 -37 14.5z" />
    <glyph glyph-name="uni0122" unicode="&#x122;" horiz-adv-x="529" 
d="M114 47.5q-58 55.5 -58 146.5v312q0 91 58 146.5t153 55.5q63 0 111 -24.5t74.5 -69.5t26.5 -102v-27q0 -10 -10 -10h-76q-10 0 -10 10v27q0 50 -31.5 81.5t-84.5 31.5q-52 0 -84 -32.5t-32 -84.5v-316q0 -52 32.5 -84.5t85.5 -32.5q52 0 83 30t31 81v93q0 4 -4 4h-105
q-10 0 -10 10v62q0 10 10 10h195q10 0 10 -10v-156q0 -97 -57.5 -152t-154.5 -55q-95 0 -153 55.5zM191 -186.5q-2 3.5 1 8.5l60 108q3 7 12 7h71q6 0 8 -3.5t-1 -8.5l-72 -109q-4 -6 -12 -6h-59q-6 0 -8 3.5z" />
    <glyph glyph-name="uni0123" unicode="&#x123;" horiz-adv-x="483" 
d="M321 694.5q2 -3.5 -1 -8.5l-60 -108q-3 -7 -12 -7h-71q-6 0 -8 3.5t1 8.5l72 109q4 6 12 6h59q6 0 8 -3.5zM342 509h76q10 0 10 -10v-479q0 -222 -238 -222q-21 0 -32 1q-10 1 -10 11l2 67q0 5 3 7.5t7 1.5q94 -4 133 29t39 112v19q0 2 -1.5 3t-3.5 -1q-39 -48 -109 -48
q-65 0 -109.5 38.5t-54.5 107.5q-6 32 -6 109q0 83 7 116q9 67 51.5 106.5t107.5 39.5q72 0 113 -47q2 -2 3.5 -1t1.5 3v27q0 10 10 10zM332 256q0 56 -3 95q-4 36 -28 59.5t-61 23.5q-36 0 -60.5 -23.5t-29.5 -59.5q-6 -39 -6 -95q0 -52 5 -92q5 -37 30 -60t62 -23t61 23
t28 59q2 52 2 93z" />
    <glyph glyph-name="Hbar" unicode="&#x126;" horiz-adv-x="560" 
d="M543 566v-48q0 -10 -10 -10h-39q-4 0 -4 -4v-494q0 -10 -10 -10h-76q-10 0 -10 10v296q0 4 -4 4h-218q-4 0 -4 -4v-296q0 -10 -10 -10h-76q-10 0 -10 10v494q0 4 -4 4h-40q-10 0 -10 10v48q0 10 10 10h40q4 0 4 4v110q0 10 10 10h76q10 0 10 -10v-110q0 -4 4 -4h218
q4 0 4 4v110q0 10 10 10h76q10 0 10 -10v-110q0 -4 4 -4h39q10 0 10 -10zM394 397v107q0 4 -4 4h-218q-4 0 -4 -4v-107q0 -4 4 -4h218q4 0 4 4z" />
    <glyph glyph-name="hbar" unicode="&#x127;" horiz-adv-x="487" 
d="M389 471q41 -45 41 -124v-337q0 -10 -10 -10h-76q-10 0 -10 10v323q0 46 -23.5 73t-63.5 27q-41 0 -65.5 -27.5t-24.5 -73.5v-322q0 -10 -10 -10h-76q-10 0 -10 10v534q0 4 -4 4h-47q-10 0 -10 10v41q0 10 10 10h47q4 0 4 4v77q0 10 10 10h76q10 0 10 -10v-77q0 -4 4 -4
h135q10 0 10 -10v-41q0 -10 -10 -10h-135q-4 0 -4 -4v-76q0 -3 1.5 -3.5t3.5 2.5q39 49 114 49q72 0 113 -45z" />
    <glyph glyph-name="Imacron" unicode="&#x12a;" horiz-adv-x="240" 
d="M72 10v680q0 10 10 10h76q10 0 10 -10v-680q0 -10 -10 -10h-76q-10 0 -10 10zM-3 801v48q0 10 10 10h224q10 0 10 -10v-48q0 -10 -10 -10h-224q-10 0 -10 10z" />
    <glyph glyph-name="imacron" unicode="&#x12b;" horiz-adv-x="213" 
d="M57 10v489q0 10 10 10h76q10 0 10 -10v-489q0 -10 -10 -10h-76q-10 0 -10 10zM-19 609v48q0 10 10 10h224q10 0 10 -10v-48q0 -10 -10 -10h-224q-10 0 -10 10z" />
    <glyph glyph-name="Iogonek" unicode="&#x12e;" horiz-adv-x="289" 
d="M105 10v680q0 10 10 10h76q10 0 10 -10v-680q0 -10 -10 -10h-76q-10 0 -10 10zM214 -172q0 -7 -8 -10q-24 -6 -43 -6q-31 0 -54 14t-31 47q-3 10 -3 22q0 53 52 98l4 4q3 3 10 3h41q8 0 8 -5q0 -4 -4 -7q-45 -42 -45 -79q0 -7 1 -10q7 -31 39 -31q6 0 16 2h2q8 0 10 -8
l5 -32v-2z" />
    <glyph glyph-name="iogonek" unicode="&#x12f;" horiz-adv-x="250" 
d="M86 10v489q0 10 10 10h76q10 0 10 -10v-489q0 -10 -10 -10h-76q-10 0 -10 10zM96 601.5q-14 14.5 -14 37.5t14 37t37 14q22 0 36 -14t14 -37t-14 -37.5t-36 -14.5q-23 0 -37 14.5zM194 -172q0 -7 -8 -10q-24 -6 -43 -6q-31 0 -54 14t-31 47q-3 10 -3 22q0 53 52 98l4 4
q3 3 10 3h41q8 0 8 -5q0 -4 -4 -7q-45 -42 -45 -79q0 -7 1 -10q7 -31 39 -31q6 0 16 2h2q8 0 10 -8l5 -32v-2z" />
    <glyph glyph-name="Idotaccent" unicode="&#x130;" horiz-adv-x="240" 
d="M72 10v680q0 10 10 10h76q10 0 10 -10v-680q0 -10 -10 -10h-76q-10 0 -10 10zM83 792.5q-14 14.5 -14 37.5t14 37t37 14q22 0 36 -14t14 -37t-14 -37.5t-36 -14.5q-23 0 -37 14.5z" />
    <glyph glyph-name="dotlessi" unicode="&#x131;" horiz-adv-x="213" 
d="M57 10v489q0 10 10 10h76q10 0 10 -10v-489q0 -10 -10 -10h-76q-10 0 -10 10z" />
    <glyph glyph-name="ij" unicode="&#x133;" horiz-adv-x="445" 
d="M70 602.5q-18 17.5 -18 45.5t18 45.5t46 17.5t45.5 -17.5t17.5 -45.5t-17.5 -45.5t-45.5 -17.5t-46 17.5zM68 10v489q0 10 10 10h76q10 0 10 -10v-489q0 -10 -10 -10h-76q-10 0 -10 10zM290.5 602q-17.5 18 -17.5 45t19 45t44 18q26 0 45 -18t19 -45t-18 -45t-46 -18
t-45.5 18zM184 -197v63q0 10 13 10q48 0 69.5 24t21.5 71v528q0 10 10 10h76q10 0 10 -10v-527q0 -63 -16.5 -101.5t-57.5 -58t-116 -19.5q-10 0 -10 10z" />
    <glyph glyph-name="uni0136" unicode="&#x136;" horiz-adv-x="541" 
d="M72 10v680q0 10 10 10h76q10 0 10 -10v-310q0 -2 2 -2.5t3 1.5l229 315q4 6 12 6h83q6 0 8.5 -4t-1.5 -8l-195 -279q-1 -3 0 -6l211 -391q1 -2 1 -5t-2.5 -5t-6.5 -2h-85q-9 0 -12 7l-173 320q-2 6 -5 1l-67 -88q-2 -2 -2 -5v-225q0 -10 -10 -10h-76q-10 0 -10 10z
M211 -178.5q-2 3.5 1 8.5l60 108q3 7 12 7h71q6 0 8 -3.5t-1 -8.5l-72 -109q-4 -6 -12 -6h-59q-6 0 -8 3.5z" />
    <glyph glyph-name="uni0137" unicode="&#x137;" horiz-adv-x="467" 
d="M61 10v680q0 10 10 10h76q10 0 10 -10v-382q0 -2 2 -3t3 1l156 197q5 6 13 6h84q6 0 8 -3.5t-2 -8.5l-116 -151q-2 -4 -1 -6l136 -328l1 -4q0 -8 -9 -8h-80q-8 0 -11 8l-100 262q-2 6 -5 1l-77 -96q-2 -4 -2 -5v-160q0 -10 -10 -10h-76q-10 0 -10 10zM171 -178.5
q-2 3.5 1 8.5l60 108q3 7 12 7h71q6 0 8 -3.5t-1 -8.5l-72 -109q-4 -6 -12 -6h-59q-6 0 -8 3.5z" />
    <glyph glyph-name="Lacute" unicode="&#x139;" horiz-adv-x="488" 
d="M72 10v680q0 10 10 10h76q10 0 10 -10v-603q0 -4 4 -4h284q10 0 10 -10v-63q0 -10 -10 -10h-374q-10 0 -10 10zM68 770.5q-2 3.5 1 8.5l60 108q3 7 12 7h71q6 0 8 -3.5t-1 -8.5l-72 -109q-4 -6 -12 -6h-59q-6 0 -8 3.5z" />
    <glyph glyph-name="lacute" unicode="&#x13a;" horiz-adv-x="215" 
d="M59 10v680q0 10 10 10h76q10 0 10 -10v-680q0 -10 -10 -10h-76q-10 0 -10 10zM56 770.5q-2 3.5 1 8.5l60 108q3 7 12 7h71q6 0 8 -3.5t-1 -8.5l-72 -109q-4 -6 -12 -6h-59q-6 0 -8 3.5z" />
    <glyph glyph-name="uni013B" unicode="&#x13b;" horiz-adv-x="488" 
d="M72 10v680q0 10 10 10h76q10 0 10 -10v-603q0 -4 4 -4h284q10 0 10 -10v-63q0 -10 -10 -10h-374q-10 0 -10 10zM168 -178.5q-2 3.5 1 8.5l60 108q3 7 12 7h71q6 0 8 -3.5t-1 -8.5l-72 -109q-4 -6 -12 -6h-59q-6 0 -8 3.5z" />
    <glyph glyph-name="uni013C" unicode="&#x13c;" horiz-adv-x="215" 
d="M59 10v680q0 10 10 10h76q10 0 10 -10v-680q0 -10 -10 -10h-76q-10 0 -10 10zM-6 -178.5q-2 3.5 1 8.5l60 108q3 7 12 7h71q6 0 8 -3.5t-1 -8.5l-72 -109q-4 -6 -12 -6h-59q-6 0 -8 3.5z" />
    <glyph glyph-name="Lcaron" unicode="&#x13d;" horiz-adv-x="488" 
d="M72 10v680q0 10 10 10h76q10 0 10 -10v-603q0 -4 4 -4h284q10 0 10 -10v-63q0 -10 -10 -10h-374q-10 0 -10 10zM66 757l-72 107l-2 5q0 7 9 7h56q8 0 12 -6l48 -72q1 -1 3 -1t3 1l47 72q5 6 12 6h54q6 0 8 -3.5t-1 -8.5l-74 -107q-4 -6 -12 -6h-79q-8 0 -12 6z" />
    <glyph glyph-name="lcaron" unicode="&#x13e;" horiz-adv-x="215" 
d="M59 10v680q0 10 10 10h76q10 0 10 -10v-680q0 -10 -10 -10h-76q-10 0 -10 10zM54 757l-72 107l-2 5q0 7 9 7h56q8 0 12 -6l48 -72q1 -1 3 -1t3 1l47 72q5 6 12 6h54q6 0 8 -3.5t-1 -8.5l-74 -107q-4 -6 -12 -6h-79q-8 0 -12 6z" />
    <glyph glyph-name="Lslash" unicode="&#x141;" horiz-adv-x="488" 
d="M172 83h284q10 0 10 -10v-63q0 -10 -10 -10h-374q-10 0 -10 10v216q0 2 -1.5 3t-3.5 -1l-76 -59q-3 -3 -7 -3t-7 4l-35 42q-3 3 -3 7t4 7l127 99q2 2 2 5v360q0 10 10 10h76q10 0 10 -10v-283q0 -2 1.5 -3t3.5 1l177 138q2 2 6 2q5 0 8 -4l35 -42q3 -3 3 -7t-4 -7
l-228 -177q-2 -2 -2 -5v-216q0 -4 4 -4z" />
    <glyph glyph-name="lslash" unicode="&#x142;" horiz-adv-x="215" 
d="M277 399q0 -6 -5 -9l-114 -65q-3 -1 -3 -5v-310q0 -10 -10 -10h-76q-10 0 -10 10v252q0 2 -1.5 3t-3.5 0l-47 -27q-2 -1 -5 -1q-6 0 -9 5l-24 45q-1 2 -1 5q0 6 5 9l83 48q3 2 3 5v336q0 10 10 10h76q10 0 10 -10v-277q0 -2 1.5 -3t3.5 0l76 44q2 1 5 1q6 0 9 -5l26 -46
q1 -2 1 -5z" />
    <glyph glyph-name="Nacute" unicode="&#x143;" horiz-adv-x="584" 
d="M72 10v680q0 10 10 10h75q9 0 12 -7l244 -471q2 -2 3.5 -2t1.5 3v467q0 10 10 10h75q10 0 10 -10v-680q0 -10 -10 -10h-76q-9 0 -12 7l-243 473q-2 2 -3.5 2t-1.5 -3l1 -469q0 -10 -10 -10h-76q-10 0 -10 10zM238 782.5q-2 3.5 1 8.5l60 108q3 7 12 7h71q6 0 8 -3.5
t-1 -8.5l-72 -109q-4 -6 -12 -6h-59q-6 0 -8 3.5z" />
    <glyph glyph-name="nacute" unicode="&#x144;" horiz-adv-x="487" 
d="M389 471q41 -45 41 -124v-337q0 -10 -10 -10h-76q-10 0 -10 10v323q0 46 -23.5 73t-63.5 27q-41 0 -65.5 -27.5t-24.5 -73.5v-322q0 -10 -10 -10h-76q-10 0 -10 10v489q0 10 10 10h76q10 0 10 -10v-31q0 -3 1.5 -3.5t3.5 2.5q39 49 114 49q72 0 113 -45zM195 581.5
q-2 3.5 1 8.5l60 108q3 7 12 7h71q6 0 8 -3.5t-1 -8.5l-72 -109q-4 -6 -12 -6h-59q-6 0 -8 3.5z" />
    <glyph glyph-name="uni0145" unicode="&#x145;" horiz-adv-x="584" 
d="M72 10v680q0 10 10 10h75q9 0 12 -7l244 -471q2 -2 3.5 -2t1.5 3v467q0 10 10 10h75q10 0 10 -10v-680q0 -10 -10 -10h-76q-9 0 -12 7l-243 473q-2 2 -3.5 2t-1.5 -3l1 -469q0 -10 -10 -10h-76q-10 0 -10 10zM227 -178.5q-2 3.5 1 8.5l60 108q3 7 12 7h71q6 0 8 -3.5
t-1 -8.5l-72 -109q-4 -6 -12 -6h-59q-6 0 -8 3.5z" />
    <glyph glyph-name="uni0146" unicode="&#x146;" horiz-adv-x="487" 
d="M389 471q41 -45 41 -124v-337q0 -10 -10 -10h-76q-10 0 -10 10v323q0 46 -23.5 73t-63.5 27q-41 0 -65.5 -27.5t-24.5 -73.5v-322q0 -10 -10 -10h-76q-10 0 -10 10v489q0 10 10 10h76q10 0 10 -10v-31q0 -3 1.5 -3.5t3.5 2.5q39 49 114 49q72 0 113 -45zM176 -178.5
q-2 3.5 1 8.5l60 108q3 7 12 7h71q6 0 8 -3.5t-1 -8.5l-72 -109q-4 -6 -12 -6h-59q-6 0 -8 3.5z" />
    <glyph glyph-name="Ncaron" unicode="&#x147;" horiz-adv-x="584" 
d="M72 10v680q0 10 10 10h75q9 0 12 -7l244 -471q2 -2 3.5 -2t1.5 3v467q0 10 10 10h75q10 0 10 -10v-680q0 -10 -10 -10h-76q-9 0 -12 7l-243 473q-2 2 -3.5 2t-1.5 -3l1 -469q0 -10 -10 -10h-76q-10 0 -10 10zM236 775l-72 107l-2 5q0 7 9 7h56q8 0 12 -6l48 -73
q1 -1 3 -1t3 1l47 72q5 7 12 7h54q6 0 8 -3.5t-1 -8.5l-74 -107q-4 -6 -12 -6h-79q-8 0 -12 6z" />
    <glyph glyph-name="ncaron" unicode="&#x148;" horiz-adv-x="487" 
d="M389 471q41 -45 41 -124v-337q0 -10 -10 -10h-76q-10 0 -10 10v323q0 46 -23.5 73t-63.5 27q-41 0 -65.5 -27.5t-24.5 -73.5v-322q0 -10 -10 -10h-76q-10 0 -10 10v489q0 10 10 10h76q10 0 10 -10v-31q0 -3 1.5 -3.5t3.5 2.5q39 49 114 49q72 0 113 -45zM193 574l-72 107
l-2 5q0 7 9 7h56q8 0 12 -6l48 -73q1 -1 3 -1t3 1l47 72q5 7 12 7h54q6 0 8 -3.5t-1 -8.5l-74 -107q-4 -6 -12 -6h-79q-8 0 -12 6z" />
    <glyph glyph-name="Eng" unicode="&#x14a;" horiz-adv-x="587" 
d="M514 481h1v-470q0 -65 -12.5 -102.5t-50 -56.5t-110.5 -19q-14 0 -14 10v62q0 10 10 10q46 0 61 21.5t15 70.5q0 4 -1 5l-241 468q-2 2 -3.5 2t-1.5 -3l1 -469q0 -10 -10 -10h-76q-10 0 -10 10v680q0 10 10 10h75q9 0 12 -7l240 -463q2 -2 3.5 -2t1.5 3v240q0 10 2 10
t2 4v205q0 10 10 10h75q10 0 10 -10v-205z" />
    <glyph glyph-name="eng" unicode="&#x14b;" horiz-adv-x="487" 
d="M431 223h1v-223q0 -60 -13 -97.5t-50.5 -58t-108.5 -20.5q-10 0 -10 10v60q0 10 10 10q42 2 59 25.5t17 68.5l-1 4q-1 2 -1 8v323q0 46 -23.5 73t-63.5 27q-41 0 -65.5 -27.5t-24.5 -73.5v-322q0 -10 -10 -10h-76q-10 0 -10 10v489q0 10 10 10h76q10 0 10 -10v-31
q0 -2 1.5 -3t3.5 1q39 50 114 50q72 0 113 -45t41 -124v-120z" />
    <glyph glyph-name="Omacron" unicode="&#x14c;" horiz-adv-x="542" 
d="M157.5 17.5q-48.5 26.5 -75.5 74.5t-27 111v294q0 62 27 110t75.5 74.5t112.5 26.5t113 -26.5t76 -74.5t27 -110v-294q0 -63 -27 -111t-76 -74.5t-113 -26.5t-112.5 26.5zM357 109q33 34 33 90v300q0 56 -33 91t-87 35q-53 0 -86 -35t-33 -91v-300q0 -55 33 -89.5
t86 -34.5q54 0 87 34zM147 796v48q0 10 10 10h224q10 0 10 -10v-48q0 -10 -10 -10h-224q-10 0 -10 10z" />
    <glyph glyph-name="omacron" unicode="&#x14d;" horiz-adv-x="490" 
d="M119.5 32q-50.5 40 -61.5 110q-9 58 -9 113q0 62 8 112q11 69 61.5 109.5t127.5 40.5q75 0 124.5 -40.5t61.5 -108.5q9 -59 9 -112q0 -55 -9 -114q-12 -70 -61.5 -110t-124.5 -40q-76 0 -126.5 40zM307 98q25 23 31 61q6 42 6 96q0 50 -5 95q-6 38 -31.5 61t-62.5 23
t-62.5 -23t-31.5 -61q-5 -45 -5 -95q0 -51 5 -96q6 -38 31.5 -61t63.5 -23q36 0 61 23zM122 607v48q0 10 10 10h224q10 0 10 -10v-48q0 -10 -10 -10h-224q-10 0 -10 10z" />
    <glyph glyph-name="Ohungarumlaut" unicode="&#x150;" horiz-adv-x="542" 
d="M157.5 17.5q-48.5 26.5 -75.5 74.5t-27 111v294q0 62 27 110t75.5 74.5t112.5 26.5t113 -26.5t76 -74.5t27 -110v-294q0 -63 -27 -111t-76 -74.5t-113 -26.5t-112.5 26.5zM357 109q33 34 33 90v300q0 56 -33 91t-87 35q-53 0 -86 -35t-33 -91v-300q0 -55 33 -89.5
t86 -34.5q54 0 87 34zM158 774.5q-2 3.5 0 8.5l54 108q3 7 12 7h65q6 0 8.5 -3.5t-0.5 -8.5l-59 -108q-3 -7 -12 -7h-61q-5 0 -7 3.5zM310.5 774.5q-2.5 3.5 0.5 8.5l58 108q3 7 12 7h61q6 0 8 -3.5t-1 -8.5l-59 -108q-3 -7 -12 -7h-59q-6 0 -8.5 3.5z" />
    <glyph glyph-name="ohungarumlaut" unicode="&#x151;" horiz-adv-x="490" 
d="M119.5 32q-50.5 40 -61.5 110q-9 58 -9 113q0 62 8 112q11 69 61.5 109.5t127.5 40.5q75 0 124.5 -40.5t61.5 -108.5q9 -59 9 -112q0 -55 -9 -114q-12 -70 -61.5 -110t-124.5 -40q-76 0 -126.5 40zM307 98q25 23 31 61q6 42 6 96q0 50 -5 95q-6 38 -31.5 61t-62.5 23
t-62.5 -23t-31.5 -61q-5 -45 -5 -95q0 -51 5 -96q6 -38 31.5 -61t63.5 -23q36 0 61 23zM133 585.5q-2 3.5 0 8.5l54 108q3 7 12 7h65q6 0 8.5 -3.5t-0.5 -8.5l-59 -108q-3 -7 -12 -7h-61q-5 0 -7 3.5zM285.5 585.5q-2.5 3.5 0.5 8.5l58 108q3 7 12 7h61q6 0 8 -3.5t-1 -8.5
l-59 -108q-3 -7 -12 -7h-59q-6 0 -8.5 3.5z" />
    <glyph glyph-name="OE" unicode="&#x152;" horiz-adv-x="806" 
d="M753 617h-274q-4 0 -4 -4v-216q0 -4 4 -4h175q10 0 10 -10v-63q0 -10 -10 -10h-175q-4 0 -4 -4v-219q0 -4 4 -4h274q10 0 10 -10v-63q0 -10 -10 -10h-364q-10 0 -10 10v29q0 2 -1.5 3t-3.5 -1q-53 -50 -132 -50q-52 0 -94.5 26t-67.5 73t-25 107v305q0 60 25 107t67.5 73
t94.5 26q79 0 132 -50q2 -2 3.5 -1t1.5 3v30q0 10 10 10h364q10 0 10 -10v-63q0 -10 -10 -10zM347.5 108q31.5 33 31.5 86v311q0 53 -31.5 86.5t-82.5 33.5t-82.5 -33.5t-31.5 -86.5v-311q0 -53 31.5 -86t82.5 -33t82.5 33z" />
    <glyph glyph-name="oe" unicode="&#x153;" horiz-adv-x="766" 
d="M595.5 91.5q24.5 17.5 36.5 46.5q3 9 12 6l60 -20q9 -3 6 -12q-17 -56 -62.5 -88t-113.5 -32q-92 0 -145 73q-3 5 -6 0q-55 -73 -144 -73q-75 0 -124 41t-60 109q-6 40 -6 113q0 75 6 112q10 68 59.5 109t124.5 41q90 0 144 -74q3 -3 6 0q53 74 142 74q76 0 126 -41.5
t59 -108.5q6 -54 6 -133q0 -10 -10 -10h-271q-4 0 -4 -4q2 -41 4 -61q5 -39 31 -62t68 -23q31 0 55.5 17.5zM333 255q0 62 -4 95q-4 38 -28.5 61t-61.5 23q-36 0 -60.5 -23.5t-29.5 -60.5q-4 -35 -4 -95q0 -61 4 -96q5 -38 29.5 -61t60.5 -23q37 0 61.5 23.5t28.5 60.5
q4 35 4 96zM470 410.5q-24 -23.5 -29 -60.5q-2 -17 -4 -56q0 -4 4 -4h181q4 0 4 4l-3 56q-5 37 -29.5 60.5t-62.5 23.5q-37 0 -61 -23.5z" />
    <glyph glyph-name="Racute" unicode="&#x154;" horiz-adv-x="533" 
d="M399 8l-117 300q-1 3 -4 3h-106q-4 0 -4 -4v-297q0 -10 -10 -10h-76q-10 0 -10 10v681q0 10 10 10h224q84 0 135 -55t51 -144q0 -67 -31 -114.5t-86 -66.5q-3 -1 -2 -5l123 -304l1 -4q0 -8 -9 -8h-78q-8 0 -11 8zM168 614v-224q0 -4 4 -4h121q46 0 74.5 31.5t28.5 83.5
q0 53 -28 85t-75 32h-121q-4 0 -4 -4zM208 770.5q-2 3.5 1 8.5l60 108q3 7 12 7h71q6 0 8 -3.5t-1 -8.5l-72 -109q-4 -6 -12 -6h-59q-6 0 -8 3.5z" />
    <glyph glyph-name="racute" unicode="&#x155;" horiz-adv-x="338" 
d="M319 503q7 -4 5 -13l-15 -76q-1 -9 -12 -6q-13 6 -34 6q-10 0 -16 -1q-39 -3 -64.5 -34t-25.5 -77v-292q0 -10 -10 -10h-76q-10 0 -10 10v489q0 10 10 10h76q10 0 10 -10v-55q0 -3 1.5 -3.5t2.5 1.5q37 72 108 72q30 0 50 -11zM144 585.5q-2 3.5 1 8.5l60 108q3 7 12 7
h71q6 0 8 -3.5t-1 -8.5l-72 -109q-4 -6 -12 -6h-59q-6 0 -8 3.5z" />
    <glyph glyph-name="uni0156" unicode="&#x156;" horiz-adv-x="533" 
d="M399 8l-117 300q-1 3 -4 3h-106q-4 0 -4 -4v-297q0 -10 -10 -10h-76q-10 0 -10 10v681q0 10 10 10h224q84 0 135 -55t51 -144q0 -67 -31 -114.5t-86 -66.5q-3 -1 -2 -5l123 -304l1 -4q0 -8 -9 -8h-78q-8 0 -11 8zM168 614v-224q0 -4 4 -4h121q46 0 74.5 31.5t28.5 83.5
q0 53 -28 85t-75 32h-121q-4 0 -4 -4zM198 -178.5q-2 3.5 1 8.5l60 108q3 7 12 7h71q6 0 8 -3.5t-1 -8.5l-72 -109q-4 -6 -12 -6h-59q-6 0 -8 3.5z" />
    <glyph glyph-name="uni0157" unicode="&#x157;" horiz-adv-x="339" 
d="M319 503q7 -4 5 -13l-15 -76q-1 -9 -12 -6q-13 6 -34 6q-10 0 -16 -1q-39 -3 -64.5 -34t-25.5 -77v-292q0 -10 -10 -10h-76q-10 0 -10 10v489q0 10 10 10h76q10 0 10 -10v-55q0 -3 1.5 -3.5t2.5 1.5q37 72 108 72q30 0 50 -11zM-5 -178.5q-2 3.5 1 8.5l60 108q3 7 12 7
h71q6 0 8 -3.5t-1 -8.5l-72 -109q-4 -6 -12 -6h-59q-6 0 -8 3.5z" />
    <glyph glyph-name="Rcaron" unicode="&#x158;" horiz-adv-x="533" 
d="M399 8l-117 300q-1 3 -4 3h-106q-4 0 -4 -4v-297q0 -10 -10 -10h-76q-10 0 -10 10v681q0 10 10 10h224q84 0 135 -55t51 -144q0 -67 -31 -114.5t-86 -66.5q-3 -1 -2 -5l123 -304l1 -4q0 -8 -9 -8h-78q-8 0 -11 8zM168 614v-224q0 -4 4 -4h121q46 0 74.5 31.5t28.5 83.5
q0 53 -28 85t-75 32h-121q-4 0 -4 -4zM206 763l-72 107l-2 5q0 7 9 7h56q8 0 12 -6l48 -73q1 -1 3 -1t3 1l47 72q5 7 12 7h54q6 0 8 -3.5t-1 -8.5l-74 -107q-4 -6 -12 -6h-79q-8 0 -12 6z" />
    <glyph glyph-name="rcaron" unicode="&#x159;" horiz-adv-x="338" 
d="M319 503q7 -4 5 -13l-15 -76q-1 -9 -12 -6q-13 6 -34 6q-10 0 -16 -1q-39 -3 -64.5 -34t-25.5 -77v-292q0 -10 -10 -10h-76q-10 0 -10 10v489q0 10 10 10h76q10 0 10 -10v-55q0 -3 1.5 -3.5t2.5 1.5q37 72 108 72q30 0 50 -11zM142 578l-72 107l-2 5q0 7 9 7h56
q8 0 12 -6l48 -73q1 -1 3 -1t3 1l47 72q5 7 12 7h54q6 0 8 -3.5t-1 -8.5l-74 -107q-4 -6 -12 -6h-79q-8 0 -12 6z" />
    <glyph glyph-name="Sacute" unicode="&#x15a;" horiz-adv-x="511" 
d="M106 43.5q-58 51.5 -58 135.5v28q0 10 10 10h74q10 0 10 -10v-23q0 -48 33 -78.5t88 -30.5q52 0 81.5 27.5t29.5 72.5q0 30 -15 52t-43.5 41t-83.5 48q-61 32 -97 57t-60 63t-24 92q0 84 55 132t145 48q64 0 112 -24t74.5 -67.5t26.5 -100.5v-23q0 -10 -10 -10h-75
q-10 0 -10 10v21q0 49 -32 80t-88 31q-48 0 -76 -25t-28 -71q0 -30 14 -51t41.5 -39t82.5 -47q69 -39 105 -64t58.5 -61t22.5 -87q0 -86 -57 -137t-152 -51q-96 0 -154 51.5zM201 778.5q-2 3.5 1 8.5l60 108q3 7 12 7h71q6 0 8 -3.5t-1 -8.5l-72 -109q-4 -6 -12 -6h-59
q-6 0 -8 3.5z" />
    <glyph glyph-name="sacute" unicode="&#x15b;" horiz-adv-x="437" 
d="M91.5 32q-49.5 38 -49.5 98v10q0 10 10 10h72q10 0 10 -8v-8q0 -28 25.5 -47.5t64.5 -19.5q38 0 61 19t23 47q0 22 -13.5 36t-33 22.5t-57.5 21.5q-47 15 -79.5 31.5t-55.5 47t-23 77.5q0 67 47.5 106t126.5 39q81 0 129.5 -40t48.5 -105v-2q0 -10 -10 -10h-70
q-10 0 -10 7v7q0 29 -24 48t-63 19q-37 0 -60 -18t-23 -46q0 -21 13 -34.5t32.5 -22.5t57.5 -22q50 -17 82.5 -33t56.5 -46t24 -77q0 -67 -49 -106t-132 -39q-82 0 -131.5 38zM168 584.5q-2 3.5 1 8.5l60 108q3 7 12 7h71q6 0 8 -3.5t-1 -8.5l-72 -109q-4 -6 -12 -6h-59
q-6 0 -8 3.5z" />
    <glyph glyph-name="Scedilla" unicode="&#x15e;" horiz-adv-x="511" 
d="M423 54q-46 -49 -126 -59q-6 -2 -1 -5q43 -43 43 -92q0 -16 -2 -23q-8 -33 -31 -47t-54 -14q-19 0 -43 6q-9 3 -8 12l5 32q1 4 4 6.5t8 1.5q10 -2 16 -2q32 0 39 31q1 3 1 9q0 21 -13 42.5t-35 39.5q-1 2 -5 2q-80 11 -126.5 60.5t-46.5 124.5v28q0 10 10 10h74
q10 0 10 -10v-23q0 -48 33 -78.5t88 -30.5q52 0 81.5 27.5t29.5 72.5q0 30 -15 52t-43.5 41t-83.5 48q-61 32 -97 57t-60 63t-24 92q0 84 55 132t145 48q64 0 112 -24t74.5 -67.5t26.5 -100.5v-23q0 -10 -10 -10h-75q-10 0 -10 10v21q0 49 -32 80t-88 31q-48 0 -76 -25
t-28 -71q0 -30 14 -51t41.5 -39t82.5 -47q69 -39 105 -64t58.5 -61t22.5 -87q0 -77 -46 -126z" />
    <glyph glyph-name="scedilla" unicode="&#x15f;" horiz-adv-x="437" 
d="M366 43q-38 -38 -104 -46q-6 -2 -1 -5q44 -43 44 -92q0 -16 -2 -23q-8 -33 -31 -47t-54 -14q-19 0 -43 6q-9 3 -8 12l5 32q1 4 4 6.5t8 1.5q10 -2 16 -2q32 0 39 31q1 3 1 9q0 41 -48 82q-1 2 -5 2q-66 8 -105.5 44.5t-39.5 89.5v10q0 10 10 10h72q10 0 10 -8v-8
q0 -28 25.5 -47.5t64.5 -19.5q38 0 61 19t23 47q0 22 -13.5 36t-33 22.5t-57.5 21.5q-47 15 -79.5 31.5t-55.5 47t-23 77.5q0 67 47.5 106t126.5 39q81 0 129.5 -40t48.5 -105v-2q0 -10 -10 -10h-70q-10 0 -10 7v7q0 29 -24 48t-63 19q-37 0 -60 -18t-23 -46q0 -21 13 -34.5
t32.5 -22.5t57.5 -22q50 -17 82.5 -33t56.5 -46t24 -77q0 -58 -38 -96z" />
    <glyph glyph-name="Scaron" unicode="&#x160;" horiz-adv-x="511" 
d="M106 43.5q-58 51.5 -58 135.5v28q0 10 10 10h74q10 0 10 -10v-23q0 -48 33 -78.5t88 -30.5q52 0 81.5 27.5t29.5 72.5q0 30 -15 52t-43.5 41t-83.5 48q-61 32 -97 57t-60 63t-24 92q0 84 55 132t145 48q64 0 112 -24t74.5 -67.5t26.5 -100.5v-23q0 -10 -10 -10h-75
q-10 0 -10 10v21q0 49 -32 80t-88 31q-48 0 -76 -25t-28 -71q0 -30 14 -51t41.5 -39t82.5 -47q69 -39 105 -64t58.5 -61t22.5 -87q0 -86 -57 -137t-152 -51q-96 0 -154 51.5zM199 771l-72 107l-2 5q0 7 9 7h56q8 0 12 -6l48 -73q1 -1 3 -1t3 1l47 72q5 7 12 7h54q6 0 8 -3.5
t-1 -8.5l-74 -107q-4 -6 -12 -6h-79q-8 0 -12 6z" />
    <glyph glyph-name="scaron" unicode="&#x161;" horiz-adv-x="437" 
d="M91.5 32q-49.5 38 -49.5 98v10q0 10 10 10h72q10 0 10 -8v-8q0 -28 25.5 -47.5t64.5 -19.5q38 0 61 19t23 47q0 22 -13.5 36t-33 22.5t-57.5 21.5q-47 15 -79.5 31.5t-55.5 47t-23 77.5q0 67 47.5 106t126.5 39q81 0 129.5 -40t48.5 -105v-2q0 -10 -10 -10h-70
q-10 0 -10 7v7q0 29 -24 48t-63 19q-37 0 -60 -18t-23 -46q0 -21 13 -34.5t32.5 -22.5t57.5 -22q50 -17 82.5 -33t56.5 -46t24 -77q0 -67 -49 -106t-132 -39q-82 0 -131.5 38zM166 577l-72 107l-2 5q0 7 9 7h56q8 0 12 -6l48 -73q1 -1 3 -1t3 1l47 72q5 7 12 7h54
q6 0 8 -3.5t-1 -8.5l-74 -107q-4 -6 -12 -6h-79q-8 0 -12 6z" />
    <glyph glyph-name="uni0162" unicode="&#x162;" horiz-adv-x="507" 
d="M298 612v-602q0 -10 -6 -10q-5 0 -2 -5q43 -43 43 -91q0 -15 -2 -22q-8 -33 -31 -47t-54 -14q-19 0 -43 6q-9 3 -8 12l5 32q1 4 4 6.5t8 1.5q10 -2 16 -2q32 0 39 31q1 3 1 10q0 20 -12.5 41t-34.5 39q-1 2 -5 2h-4q-10 0 -10 10v602q0 4 -4 4h-154q-10 0 -10 10v64
q0 10 10 10h419q10 0 10 -10v-64q0 -10 -10 -10h-161q-4 0 -4 -4z" />
    <glyph glyph-name="uni0163" unicode="&#x163;" horiz-adv-x="322" 
d="M276 435h-89q-4 0 -4 -4v-272q0 -41 16.5 -58t51.5 -17h19q10 0 10 -10v-63q0 -10 -10 -10l-39 -1q-70 0 -105.5 26.5t-35.5 98.5v306q0 4 -4 4h-49q-10 0 -10 10v54q0 10 10 10h49q4 0 4 4v115q0 10 10 10h73q10 0 10 -10v-115q0 -4 4 -4h89q10 0 10 -10v-54
q0 -10 -10 -10zM145 -173l5 32q1 4 4 6.5t8 1.5q10 -2 16 -2q32 0 39 31q1 3 1 10q0 37 -45 79q-4 3 -4 7q0 5 8 5h41q7 0 10 -3l4 -4q52 -45 52 -98q0 -12 -3 -22q-8 -33 -31 -47t-54 -14q-19 0 -43 6q-9 3 -8 12z" />
    <glyph glyph-name="Tcaron" unicode="&#x164;" horiz-adv-x="507" 
d="M473 690v-64q0 -10 -10 -10h-161q-4 0 -4 -4v-602q0 -10 -10 -10h-76q-10 0 -10 10v602q0 4 -4 4h-154q-10 0 -10 10v64q0 10 10 10h419q10 0 10 -10zM198 757l-72 107l-2 5q0 7 9 7h56q8 0 12 -6l48 -72q1 -1 3 -1t3 1l47 72q5 6 12 6h54q6 0 8 -3.5t-1 -8.5l-74 -107
q-4 -6 -12 -6h-79q-8 0 -12 6z" />
    <glyph glyph-name="tcaron" unicode="&#x165;" horiz-adv-x="322" 
d="M276 435h-89q-4 0 -4 -4v-272q0 -41 16.5 -58t51.5 -17h19q10 0 10 -10v-63q0 -10 -10 -10l-39 -1q-70 0 -105.5 26.5t-35.5 98.5v306q0 4 -4 4h-49q-10 0 -10 10v54q0 10 10 10h49q4 0 4 4v115q0 10 10 10h73q10 0 10 -10v-115q0 -4 4 -4h89q10 0 10 -10v-54
q0 -10 -10 -10zM85 695l-72 107l-2 5q0 7 9 7h56q8 0 12 -6l48 -72q1 -1 3 -1t3 1l47 72q5 6 12 6h54q6 0 8 -3.5t-1 -8.5l-74 -107q-4 -6 -12 -6h-79q-8 0 -12 6z" />
    <glyph glyph-name="Tbar" unicode="&#x166;" horiz-adv-x="600" 
d="M463 616h-161q-4 0 -4 -4v-193q0 -4 4 -4h90q10 0 10 -10v-41q0 -10 -10 -10h-90q-4 0 -4 -4v-340q0 -10 -10 -10h-76q-10 0 -10 10v340q0 4 -4 4h-92q-10 0 -10 10v41q0 10 10 10h92q4 0 4 4v193q0 4 -4 4h-154q-10 0 -10 10v64q0 10 10 10h419q10 0 10 -10v-64
q0 -10 -10 -10z" />
    <glyph glyph-name="tbar" unicode="&#x167;" horiz-adv-x="600" 
d="M277 355h-90q-4 0 -4 -4v-192q0 -41 16.5 -58t51.5 -17h19q10 0 10 -10v-63q0 -10 -10 -10l-39 -1q-70 0 -105.5 26.5t-35.5 98.5v226q0 4 -4 4h-47q-10 0 -10 10v41q0 10 10 10h47q4 0 4 4v11q0 4 -4 4h-49q-10 0 -10 10v54q0 10 10 10h49q4 0 4 4v115q0 10 10 10h73
q10 0 10 -10v-115q0 -4 4 -4h89q10 0 10 -10v-54q0 -10 -10 -10h-89q-4 0 -4 -4v-11q0 -4 4 -4h90q10 0 10 -10v-41q0 -10 -10 -10z" />
    <glyph glyph-name="Umacron" unicode="&#x16a;" horiz-adv-x="559" 
d="M167.5 18.5q-48.5 26.5 -75 75t-26.5 112.5v484q0 10 10 10h76q10 0 10 -10v-490q0 -56 32.5 -90.5t84.5 -34.5q53 0 85.5 34.5t32.5 90.5v490q0 10 10 10h76q10 0 10 -10v-484q0 -64 -26.5 -112.5t-75 -75t-112.5 -26.5q-63 0 -111.5 26.5zM156 802v48q0 10 10 10h224
q10 0 10 -10v-48q0 -10 -10 -10h-224q-10 0 -10 10z" />
    <glyph glyph-name="umacron" unicode="&#x16b;" horiz-adv-x="485" 
d="M338 509h76q10 0 10 -10v-489q0 -10 -10 -10h-76q-10 0 -10 10v31q0 2 -1.5 3t-3.5 -1q-35 -50 -110 -50q-68 0 -112.5 40t-44.5 116v350q0 10 10 10h75q10 0 10 -10v-324q0 -47 22.5 -73t64.5 -26q41 0 65.5 27.5t24.5 74.5v321q0 10 10 10zM117 599v48q0 10 10 10h224
q10 0 10 -10v-48q0 -10 -10 -10h-224q-10 0 -10 10z" />
    <glyph glyph-name="Uring" unicode="&#x16e;" horiz-adv-x="559" 
d="M167.5 18.5q-48.5 26.5 -75 75t-26.5 112.5v484q0 10 10 10h76q10 0 10 -10v-490q0 -56 32.5 -90.5t84.5 -34.5q53 0 85.5 34.5t32.5 90.5v490q0 10 10 10h76q10 0 10 -10v-484q0 -64 -26.5 -112.5t-75 -75t-112.5 -26.5q-63 0 -111.5 26.5zM204.5 801q-30.5 31 -30.5 75
t30.5 74.5t74.5 30.5q45 0 75.5 -30.5t30.5 -74.5t-30.5 -75t-75.5 -31q-44 0 -74.5 31zM320 834.5q17 16.5 17 41.5t-17 42t-41 17q-23 0 -40 -17t-17 -42q0 -24 16.5 -41t40.5 -17t41 16.5z" />
    <glyph glyph-name="uring" unicode="&#x16f;" horiz-adv-x="485" 
d="M338 509h76q10 0 10 -10v-489q0 -10 -10 -10h-76q-10 0 -10 10v31q0 2 -1.5 3t-3.5 -1q-35 -50 -110 -50q-68 0 -112.5 40t-44.5 116v350q0 10 10 10h75q10 0 10 -10v-324q0 -47 22.5 -73t64.5 -26q41 0 65.5 27.5t24.5 74.5v321q0 10 10 10zM165.5 598
q-30.5 31 -30.5 75t30.5 74.5t74.5 30.5q45 0 75.5 -30.5t30.5 -74.5t-30.5 -75t-75.5 -31q-44 0 -74.5 31zM281 631.5q17 16.5 17 41.5t-17 42t-41 17q-23 0 -40 -17t-17 -42q0 -24 16.5 -41t40.5 -17t41 16.5z" />
    <glyph glyph-name="Uhungarumlaut" unicode="&#x170;" horiz-adv-x="559" 
d="M167.5 18.5q-48.5 26.5 -75 75t-26.5 112.5v484q0 10 10 10h76q10 0 10 -10v-490q0 -56 32.5 -90.5t84.5 -34.5q53 0 85.5 34.5t32.5 90.5v490q0 10 10 10h76q10 0 10 -10v-484q0 -64 -26.5 -112.5t-75 -75t-112.5 -26.5q-63 0 -111.5 26.5zM167 780.5q-2 3.5 0 8.5
l54 108q3 7 12 7h65q6 0 8.5 -3.5t-0.5 -8.5l-59 -108q-3 -7 -12 -7h-61q-5 0 -7 3.5zM319.5 780.5q-2.5 3.5 0.5 8.5l58 108q3 7 12 7h61q6 0 8 -3.5t-1 -8.5l-59 -108q-3 -7 -12 -7h-59q-6 0 -8.5 3.5z" />
    <glyph glyph-name="uhungarumlaut" unicode="&#x171;" horiz-adv-x="485" 
d="M338 509h76q10 0 10 -10v-489q0 -10 -10 -10h-76q-10 0 -10 10v31q0 2 -1.5 3t-3.5 -1q-35 -50 -110 -50q-68 0 -112.5 40t-44.5 116v350q0 10 10 10h75q10 0 10 -10v-324q0 -47 22.5 -73t64.5 -26q41 0 65.5 27.5t24.5 74.5v321q0 10 10 10zM128 577.5q-2 3.5 0 8.5
l54 108q3 7 12 7h65q6 0 8.5 -3.5t-0.5 -8.5l-59 -108q-3 -7 -12 -7h-61q-5 0 -7 3.5zM280.5 577.5q-2.5 3.5 0.5 8.5l58 108q3 7 12 7h61q6 0 8 -3.5t-1 -8.5l-59 -108q-3 -7 -12 -7h-59q-6 0 -8.5 3.5z" />
    <glyph glyph-name="Uogonek" unicode="&#x172;" horiz-adv-x="559" 
d="M407 700h76q10 0 10 -10v-484q0 -89 -50.5 -146.5t-134.5 -66.5q-3 0 -5 -2q-39 -37 -39 -73q0 -21 11 -31t29 -10q6 0 16 2h2q8 0 10 -8l5 -32v-2q0 -7 -8 -10q-24 -6 -43 -6q-31 0 -54 14t-31 47q-3 12 -3 23q0 46 39 86q3 3 -2 5q-77 13 -123 69t-46 141v484
q0 10 10 10h76q10 0 10 -10v-490q0 -56 32.5 -90.5t84.5 -34.5q53 0 85.5 34.5t32.5 90.5v490q0 10 10 10z" />
    <glyph glyph-name="uogonek" unicode="&#x173;" horiz-adv-x="487" 
d="M424 -130q8 0 10 -8l5 -32v-2q0 -7 -8 -10q-24 -6 -43 -6q-31 0 -54 14t-31 47q-3 10 -3 23q0 52 53 99q2 2 1 3.5t-3 1.5h-13q-10 0 -10 10v31q0 2 -1.5 3t-3.5 -1q-35 -50 -110 -50q-68 0 -112.5 40t-44.5 116v350q0 10 10 10h75q10 0 10 -10v-324q0 -47 22.5 -73
t64.5 -26q41 0 65.5 27.5t24.5 74.5v321q0 10 10 10h76q10 0 10 -10v-496q0 -4 -2 -5l-11 -10q-45 -42 -45 -79q0 -7 1 -10q7 -31 39 -31q6 0 16 2h2z" />
    <glyph glyph-name="Wcircumflex" unicode="&#x174;" horiz-adv-x="758" 
d="M184 9l-159 680l-1 4q0 7 9 7h80q10 0 11 -9l107 -484q1 -3 2 -3t2 3l97 484q2 9 11 9h73q10 0 11 -9l104 -484q1 -3 2 -3t2 3l102 484q2 9 11 9h77q5 0 7.5 -3t1.5 -8l-153 -680q-1 -9 -11 -9h-75q-9 0 -11 9l-103 495q-1 3 -2 3t-2 -3l-99 -495q-1 -9 -11 -9h-72
q-9 0 -11 9zM248 764.5q-2 3.5 1 8.5l75 108q4 6 12 6h78q8 0 12 -6l76 -108q2 -2 2 -6q0 -2 -2 -4t-6 -2h-58q-7 0 -12 7l-47 72q-1 2 -3 2t-3 -2l-46 -72q-5 -7 -12 -7h-59q-6 0 -8 3.5z" />
    <glyph glyph-name="wcircumflex" unicode="&#x175;" horiz-adv-x="659" 
d="M150 9l-125 489l-1 4q0 7 9 7h76q10 0 11 -9l78 -361q1 -3 2 -3t2 3l81 361q2 9 11 9h68q9 0 11 -9l82 -361q1 -3 2 -3t2 3l81 361q2 9 11 9l75 -1q5 0 7.5 -3t0.5 -8l-126 -488q-1 -9 -11 -9h-76q-9 0 -11 9l-81 333q-1 3 -2 3t-2 -3l-78 -333q-2 -9 -11 -9h-75
q-9 0 -11 9zM197 573.5q-2 3.5 1 8.5l75 108q4 6 12 6h78q8 0 12 -6l76 -108q2 -2 2 -6q0 -2 -2 -4t-6 -2h-58q-7 0 -12 7l-47 72q-1 2 -3 2t-3 -2l-46 -72q-5 -7 -12 -7h-59q-6 0 -8 3.5z" />
    <glyph glyph-name="Ycircumflex" unicode="&#x176;" horiz-adv-x="514" 
d="M209 11v284q0 4 -1 5l-174 388l-1 4q0 8 9 8h81q8 0 11 -8l120 -284q1 -2 3 -2t3 2l119 284q3 8 11 8h82q5 0 7.5 -3.5t0.5 -8.5l-175 -388q-1 -1 -1 -5v-284q0 -10 -10 -10h-75q-10 0 -10 10zM128 764.5q-2 3.5 1 8.5l75 108q4 6 12 6h78q8 0 12 -6l76 -108q2 -2 2 -6
q0 -2 -2 -4t-6 -2h-58q-7 0 -12 7l-47 72q-1 2 -3 2t-3 -2l-46 -72q-5 -7 -12 -7h-59q-6 0 -8 3.5z" />
    <glyph glyph-name="ycircumflex" unicode="&#x177;" horiz-adv-x="432" 
d="M42 -190v61q0 4 2 7t4 3h5q36 0 56.5 9t33.5 33.5t24 73.5q1 1 0.5 3.5l-0.5 2.5l-147 495l-1 3q0 8 10 8h80q10 0 11 -9l94 -363q1 -2 2.5 -2t2.5 2l92 363q2 9 11 9l81 -1q5 0 7.5 -3t1.5 -8l-159 -532q-21 -69 -42.5 -103t-56.5 -48t-100 -14h-6q-6 0 -6 10zM87 576.5
q-2 3.5 1 8.5l75 108q4 6 12 6h78q8 0 12 -6l76 -108q2 -2 2 -6q0 -2 -2 -4t-6 -2h-58q-7 0 -12 7l-47 72q-1 2 -3 2t-3 -2l-46 -72q-5 -7 -12 -7h-59q-6 0 -8 3.5z" />
    <glyph glyph-name="Ydieresis" unicode="&#x178;" horiz-adv-x="514" 
d="M209 11v284q0 4 -1 5l-174 388l-1 4q0 8 9 8h81q8 0 11 -8l120 -284q1 -2 3 -2t3 2l119 284q3 8 11 8h82q5 0 7.5 -3.5t0.5 -8.5l-175 -388q-1 -1 -1 -5v-284q0 -10 -10 -10h-75q-10 0 -10 10zM138.5 793.5q-15.5 15.5 -15.5 39.5t15.5 39.5t39.5 15.5q23 0 38 -15.5
t15 -39.5t-15 -39.5t-38 -15.5q-24 0 -39.5 15.5zM299 793.5q-15 15.5 -15 39.5t15 39.5t40 15.5q23 0 38 -15.5t15 -39.5t-15 -39.5t-38 -15.5q-25 0 -40 15.5z" />
    <glyph glyph-name="Zacute" unicode="&#x179;" horiz-adv-x="476" 
d="M35 10v68q0 7 3 13l291 521q1 2 0.5 3.5t-2.5 1.5h-282q-10 0 -10 10v63q0 10 10 10h381q10 0 10 -10v-68q0 -7 -3 -13l-292 -521q-1 -2 -0.5 -3.5t2.5 -1.5h283q10 0 10 -10v-63q0 -10 -10 -10h-381q-10 0 -10 10zM183 783.5q-2 3.5 1 8.5l60 108q3 7 12 7h71
q6 0 8 -3.5t-1 -8.5l-72 -109q-4 -6 -12 -6h-59q-6 0 -8 3.5z" />
    <glyph glyph-name="zacute" unicode="&#x17a;" horiz-adv-x="408" 
d="M29 10v70q0 8 4 13l226 323q1 1 0 3t-3 2h-212q-10 0 -10 10v68q0 10 10 10h321q10 0 10 -10v-71q0 -8 -4 -13l-230 -323q-1 -1 0 -3t3 -2h224q10 0 10 -10v-67q0 -10 -10 -10h-329q-10 0 -10 10zM152 590.5q-2 3.5 1 8.5l60 108q3 7 12 7h71q6 0 8 -3.5t-1 -8.5
l-72 -109q-4 -6 -12 -6h-59q-6 0 -8 3.5z" />
    <glyph glyph-name="Zdotaccent" unicode="&#x17b;" horiz-adv-x="476" 
d="M35 10v68q0 7 3 13l291 521q1 2 0.5 3.5t-2.5 1.5h-282q-10 0 -10 10v63q0 10 10 10h381q10 0 10 -10v-68q0 -7 -3 -13l-292 -521q-1 -2 -0.5 -3.5t2.5 -1.5h283q10 0 10 -10v-63q0 -10 -10 -10h-381q-10 0 -10 10zM198 794.5q-14 14.5 -14 37.5t14 37t37 14q22 0 36 -14
t14 -37t-14 -37.5t-36 -14.5q-23 0 -37 14.5z" />
    <glyph glyph-name="zdotaccent" unicode="&#x17c;" horiz-adv-x="408" 
d="M29 10v70q0 8 4 13l226 323q1 1 0 3t-3 2h-212q-10 0 -10 10v68q0 10 10 10h321q10 0 10 -10v-71q0 -8 -4 -13l-230 -323q-1 -1 0 -3t3 -2h224q10 0 10 -10v-67q0 -10 -10 -10h-329q-10 0 -10 10zM167 601.5q-14 14.5 -14 37.5t14 37t37 14q22 0 36 -14t14 -37t-14 -37.5
t-36 -14.5q-23 0 -37 14.5z" />
    <glyph glyph-name="Zcaron" unicode="&#x17d;" horiz-adv-x="476" 
d="M35 10v68q0 7 3 13l291 521q1 2 0.5 3.5t-2.5 1.5h-282q-10 0 -10 10v63q0 10 10 10h381q10 0 10 -10v-68q0 -7 -3 -13l-292 -521q-1 -2 -0.5 -3.5t2.5 -1.5h283q10 0 10 -10v-63q0 -10 -10 -10h-381q-10 0 -10 10zM181 776l-72 107l-2 5q0 7 9 7h56q8 0 12 -6l48 -73
q1 -1 3 -1t3 1l47 72q5 7 12 7h54q6 0 8 -3.5t-1 -8.5l-74 -107q-4 -6 -12 -6h-79q-8 0 -12 6z" />
    <glyph glyph-name="zcaron" unicode="&#x17e;" horiz-adv-x="408" 
d="M29 10v70q0 8 4 13l226 323q1 1 0 3t-3 2h-212q-10 0 -10 10v68q0 10 10 10h321q10 0 10 -10v-71q0 -8 -4 -13l-230 -323q-1 -1 0 -3t3 -2h224q10 0 10 -10v-67q0 -10 -10 -10h-329q-10 0 -10 10zM150 583l-72 107l-2 5q0 7 9 7h56q8 0 12 -6l48 -73q1 -1 3 -1t3 1l47 72
q5 7 12 7h54q6 0 8 -3.5t-1 -8.5l-74 -107q-4 -6 -12 -6h-79q-8 0 -12 6z" />
    <glyph glyph-name="florin" unicode="&#x192;" horiz-adv-x="510" 
d="M283.5 644.5q22.5 35.5 65 49t117.5 10.5q10 -1 10 -11l-1 -65q0 -10 -10 -10h-31q-42 0 -61.5 -21.5t-27.5 -70.5l-18 -112q0 -4 3 -4h76q10 0 10 -10v-59q0 -10 -10 -10h-88q-5 0 -5 -4l-59 -369q-11 -67 -33.5 -102.5t-65 -49t-117.5 -10.5q-10 1 -10 11l1 65
q0 10 10 10h31q42 0 61.5 21.5t27.5 70.5l57 353q0 4 -3 4h-64q-10 0 -10 10v59q0 10 10 10h77q5 0 5 4l20 128q10 67 32.5 102.5z" />
    <glyph glyph-name="uni01CD" unicode="&#x1cd;" horiz-adv-x="550" 
d="M420 9l-29 116q0 3 -5 3h-221q-4 0 -5 -3l-30 -116q-1 -9 -11 -9h-78q-5 0 -7.5 3t-1.5 8l185 680q2 9 11 9h94q9 0 11 -9l186 -680l1 -3q0 -8 -10 -8h-79q-9 0 -11 9zM181.5 205.5q1.5 -1.5 3.5 -1.5h180q2 0 3.5 1.5t0.5 2.5l-91 360q-1 2 -2 2t-2 -2l-93 -360
q-1 -1 0.5 -2.5zM220 757l-72 107l-2 5q0 7 9 7h56q8 0 12 -6l48 -72q1 -1 3 -1t3 1l47 72q5 6 12 6h54q6 0 8 -3.5t-1 -8.5l-74 -107q-4 -6 -12 -6h-79q-8 0 -12 6z" />
    <glyph glyph-name="uni01CE" unicode="&#x1ce;" horiz-adv-x="470" 
d="M368.5 470.5q50.5 -46.5 50.5 -121.5v-339q0 -10 -10 -10h-76q-10 0 -10 10v29q0 5 -5 2q-46 -49 -127 -49q-64 0 -109.5 35t-45.5 115q0 82 53 124.5t145 42.5h85q4 0 4 4v28q0 43 -22.5 68t-64.5 25q-34 0 -55.5 -16.5t-26.5 -44.5q-1 -9 -11 -9l-81 5q-4 0 -7 2.5
t-2 6.5q6 62 56.5 100.5t125.5 38.5q83 0 133.5 -46.5zM290.5 99q32.5 25 32.5 67v64q0 4 -4 4h-77q-50 0 -79.5 -22t-29.5 -64q0 -37 22.5 -55.5t58.5 -18.5q44 0 76.5 25zM181 574l-72 107l-2 5q0 7 9 7h56q8 0 12 -6l48 -72q1 -1 3 -1t3 1l47 72q5 6 12 6h54q6 0 8 -3.5
t-1 -8.5l-74 -107q-4 -6 -12 -6h-79q-8 0 -12 6z" />
    <glyph glyph-name="uni0218" unicode="&#x218;" horiz-adv-x="511" 
d="M106 43.5q-58 51.5 -58 135.5v28q0 10 10 10h74q10 0 10 -10v-23q0 -48 33 -78.5t88 -30.5q52 0 81.5 27.5t29.5 72.5q0 30 -15 52t-43.5 41t-83.5 48q-61 32 -97 57t-60 63t-24 92q0 84 55 132t145 48q64 0 112 -24t74.5 -67.5t26.5 -100.5v-23q0 -10 -10 -10h-75
q-10 0 -10 10v21q0 49 -32 80t-88 31q-48 0 -76 -25t-28 -71q0 -30 14 -51t41.5 -39t82.5 -47q69 -39 105 -64t58.5 -61t22.5 -87q0 -86 -57 -137t-152 -51q-96 0 -154 51.5zM183 -186.5q-2 3.5 1 8.5l60 108q3 7 12 7h71q6 0 8 -3.5t-1 -8.5l-72 -109q-4 -6 -12 -6h-59
q-6 0 -8 3.5z" />
    <glyph glyph-name="uni0219" unicode="&#x219;" horiz-adv-x="437" 
d="M91.5 32q-49.5 38 -49.5 98v10q0 10 10 10h72q10 0 10 -8v-8q0 -28 25.5 -47.5t64.5 -19.5q38 0 61 19t23 47q0 22 -13.5 36t-33 22.5t-57.5 21.5q-47 15 -79.5 31.5t-55.5 47t-23 77.5q0 67 47.5 106t126.5 39q81 0 129.5 -40t48.5 -105v-2q0 -10 -10 -10h-70
q-10 0 -10 7v7q0 29 -24 48t-63 19q-37 0 -60 -18t-23 -46q0 -21 13 -34.5t32.5 -22.5t57.5 -22q50 -17 82.5 -33t56.5 -46t24 -77q0 -67 -49 -106t-132 -39q-82 0 -131.5 38zM149 -184.5q-2 3.5 1 8.5l60 108q3 7 12 7h71q6 0 8 -3.5t-1 -8.5l-72 -109q-4 -6 -12 -6h-59
q-6 0 -8 3.5z" />
    <glyph glyph-name="uni021A" unicode="&#x21a;" horiz-adv-x="505" 
d="M473 690v-64q0 -10 -10 -10h-161q-4 0 -4 -4v-602q0 -10 -10 -10h-76q-10 0 -10 10v602q0 4 -4 4h-154q-10 0 -10 10v64q0 10 10 10h419q10 0 10 -10zM135 -179.5q-2 3.5 1 8.5l60 108q3 7 12 7h71q6 0 8 -3.5t-1 -8.5l-72 -109q-4 -6 -12 -6h-59q-6 0 -8 3.5z" />
    <glyph glyph-name="uni021B" unicode="&#x21b;" horiz-adv-x="322" 
d="M276 435h-89q-4 0 -4 -4v-272q0 -41 16.5 -58t51.5 -17h19q10 0 10 -10v-63q0 -10 -10 -10l-39 -1q-70 0 -105.5 26.5t-35.5 98.5v306q0 4 -4 4h-49q-10 0 -10 10v54q0 10 10 10h49q4 0 4 4v115q0 10 10 10h73q10 0 10 -10v-115q0 -4 4 -4h89q10 0 10 -10v-54
q0 -10 -10 -10zM127 -191.5q-2 3.5 1 8.5l60 108q3 7 12 7h71q6 0 8 -3.5t-1 -8.5l-72 -109q-4 -6 -12 -6h-59q-6 0 -8 3.5z" />
    <glyph glyph-name="uni0228" unicode="&#x228;" horiz-adv-x="515" 
d="M462 617h-290q-4 0 -4 -4v-216q0 -4 4 -4h191q10 0 10 -10v-63q0 -10 -10 -10h-191q-4 0 -4 -4v-219q0 -4 4 -4h290q10 0 10 -10v-63q0 -10 -10 -10h-149q-5 0 -2 -5q42 -42 42 -90q0 -15 -2 -22q-8 -33 -31 -47t-54 -14q-19 0 -43 6q-9 3 -8 12l5 32q1 4 4 6.5t8 1.5
q10 -2 16 -2q32 0 39 31q1 3 1 9q0 20 -12.5 41t-33.5 39q-2 2 -5 2h-155q-10 0 -10 10v680q0 10 10 10h380q10 0 10 -10v-63q0 -10 -10 -10z" />
    <glyph glyph-name="uni0229" unicode="&#x229;" horiz-adv-x="478" 
d="M306.5 92.5q24.5 17.5 36.5 46.5q3 9 12 6l61 -17q10 -3 7 -13q-15 -49 -51 -80.5t-90 -39.5q-6 -2 -1 -5q45 -42 45 -93q0 -15 -2 -23q-8 -33 -31 -47t-54 -14q-19 0 -43 6q-9 3 -8 12l5 32q1 4 4 6.5t8 1.5q10 -2 16 -2q18 0 29 10t11 31q0 40 -49 82q-1 2 -5 2
q-59 9 -96.5 45t-47.5 93q-13 53 -13 124q0 68 5 107q9 70 58.5 112t126.5 42q87 0 135 -46.5t55 -128.5q4 -48 4 -114q0 -10 -10 -10h-275q-4 0 -4 -4q2 -39 4 -55q5 -38 32 -61t67 -23q34 0 58.5 17.5zM179 412q-24 -22 -29 -58q-4 -32 -4 -55q0 -4 4 -4h184q4 0 4 4
q-2 36 -4 51q-5 38 -30 61t-64 23q-37 0 -61 -22z" />
    <glyph glyph-name="circumflex" unicode="&#x2c6;" horiz-adv-x="269" 
d="M7 573.5q-2 3.5 1 8.5l75 108q4 6 12 6h78q8 0 12 -6l76 -108q2 -2 2 -6q0 -2 -2 -4t-6 -2h-58q-7 0 -12 7l-47 72q-1 2 -3 2t-3 -2l-46 -72q-5 -7 -12 -7h-59q-6 0 -8 3.5z" />
    <glyph glyph-name="caron" unicode="&#x2c7;" horiz-adv-x="309" 
d="M102 574l-72 107l-2 5q0 7 9 7h56q8 0 12 -6l48 -73q1 -1 3 -1t3 1l47 72q5 7 12 7h54q6 0 8 -3.5t-1 -8.5l-74 -107q-4 -6 -12 -6h-79q-8 0 -12 6z" />
    <glyph glyph-name="uni02C9" unicode="&#x2c9;" horiz-adv-x="357" 
d="M56 599v48q0 10 10 10h224q10 0 10 -10v-48q0 -10 -10 -10h-224q-10 0 -10 10z" />
    <glyph glyph-name="breve" unicode="&#x2d8;" horiz-adv-x="270" 
d="M58 583.5q-32 28.5 -36 71.5q0 10 10 10h34q10 0 11 -10q3 -23 19.5 -38.5t38.5 -15.5t38.5 15.5t19.5 38.5q1 10 11 10h34q10 0 10 -10q-4 -44 -35.5 -72t-77.5 -28q-45 0 -77 28.5z" />
    <glyph glyph-name="dotaccent" unicode="&#x2d9;" horiz-adv-x="145" 
d="M36 590.5q-14 14.5 -14 37.5t14 37t37 14q22 0 36 -14t14 -37t-14 -37.5t-36 -14.5q-23 0 -37 14.5z" />
    <glyph glyph-name="ring" unicode="&#x2da;" horiz-adv-x="256" 
d="M53.5 598q-30.5 31 -30.5 75t30.5 74.5t74.5 30.5q45 0 75.5 -30.5t30.5 -74.5t-30.5 -75t-75.5 -31q-44 0 -74.5 31zM169 631.5q17 16.5 17 41.5t-17 42t-41 17q-23 0 -40 -17t-17 -42q0 -24 16.5 -41t40.5 -17t41 16.5z" />
    <glyph glyph-name="ogonek" unicode="&#x2db;" horiz-adv-x="141" 
d="M138 -172q0 -7 -8 -10q-24 -6 -43 -6q-31 0 -54 14t-31 47q-3 10 -3 22q0 53 52 98l4 4q3 3 10 3h41q8 0 8 -5q0 -4 -4 -7q-45 -42 -45 -79q0 -7 1 -10q7 -31 39 -31q6 0 16 2h2q8 0 10 -8l5 -32v-2z" />
    <glyph glyph-name="tilde" unicode="&#x2dc;" horiz-adv-x="331" 
d="M189.5 593q-12.5 6 -30.5 17q-4 2 -13 8t-16 8.5t-14 2.5q-14 0 -24.5 -5.5t-19.5 -20.5q-6 -9 -14 -3l-29 20q-7 6 -3 13q14 30 35.5 45t47.5 15q16 0 30 -6t31 -17t26 -15.5t20 -4.5q13 0 23.5 5.5t19.5 20.5q4 10 14 4l28 -19q4 -3 4 -9q0 -4 -3 -10
q-16 -28 -39 -41.5t-46 -13.5q-15 0 -27.5 6z" />
    <glyph glyph-name="hungarumlaut" unicode="&#x2dd;" horiz-adv-x="362" 
d="M28 587.5q-2 3.5 1 8.5l59 108q3 7 12 7h71q6 0 7.5 -3.5t-1.5 -8.5l-71 -108q-5 -7 -12 -7h-58q-6 0 -8 3.5zM183 587.5q-2 3.5 1 8.5l59 108q3 7 12 7h71q6 0 7.5 -3.5t-1.5 -8.5l-71 -108q-5 -7 -12 -7h-58q-6 0 -8 3.5z" />
    <glyph glyph-name="gravecomb" unicode="&#x300;" 
d="M-5 582q0 -6 -9 -6h-59q-7 0 -12 6l-72 109l-2 5q0 7 9 7h71q8 0 12 -7l60 -108q2 -4 2 -6z" />
    <glyph glyph-name="acutecomb" unicode="&#x301;" 
d="M-179 579.5q-2 3.5 1 8.5l60 108q3 7 12 7h71q6 0 8 -3.5t-1 -8.5l-72 -109q-4 -6 -12 -6h-59q-6 0 -8 3.5z" />
    <glyph glyph-name="uni0302" unicode="&#x302;" 
d="M-263 573.5q-2 3.5 1 8.5l75 108q4 6 12 6h78q8 0 12 -6l76 -108q2 -2 2 -6q0 -2 -2 -4t-6 -2h-58q-7 0 -12 7l-47 72q-1 2 -3 2t-3 -2l-46 -72q-5 -7 -12 -7h-59q-6 0 -8 3.5z" />
    <glyph glyph-name="tildecomb" unicode="&#x303;" 
d="M-123.5 593q-12.5 6 -30.5 17q-4 2 -13 8t-16 8.5t-14 2.5q-14 0 -24.5 -5.5t-19.5 -20.5q-6 -9 -14 -3l-29 20q-7 6 -3 13q14 30 35.5 45t47.5 15q16 0 30 -6t31 -17t26 -15.5t20 -4.5q13 0 23.5 5.5t19.5 20.5q4 10 14 4l28 -19q4 -3 4 -9q0 -4 -3 -10
q-16 -28 -39 -41.5t-46 -13.5q-15 0 -27.5 6z" />
    <glyph glyph-name="uni0304" unicode="&#x304;" 
d="M-301 599v48q0 10 10 10h224q10 0 10 -10v-48q0 -10 -10 -10h-224q-10 0 -10 10z" />
    <glyph glyph-name="uni0306" unicode="&#x306;" 
d="M-212 572.5q-32 28.5 -36 71.5q0 10 10 10h34q10 0 11 -10q3 -23 19.5 -38.5t38.5 -15.5t38.5 15.5t19.5 38.5q1 10 11 10h34q10 0 10 -10q-4 -44 -35.5 -72t-77.5 -28q-45 0 -77 28.5z" />
    <glyph glyph-name="uni0307" unicode="&#x307;" 
d="M-87 590.5q-14 14.5 -14 37.5t14 37t37 14q22 0 36 -14t14 -37t-14 -37.5t-36 -14.5q-23 0 -37 14.5z" />
    <glyph glyph-name="uni0308" unicode="&#x308;" 
d="M-253.5 602.5q-15.5 15.5 -15.5 39.5t15.5 39.5t39.5 15.5q23 0 38 -15.5t15 -39.5t-15 -39.5t-38 -15.5q-24 0 -39.5 15.5zM-93 602.5q-15 15.5 -15 39.5t15 39.5t40 15.5q23 0 38 -15.5t15 -39.5t-15 -39.5t-38 -15.5q-25 0 -40 15.5z" />
    <glyph glyph-name="uni030A" unicode="&#x30a;" 
d="M-179.5 598q-30.5 31 -30.5 75t30.5 74.5t74.5 30.5q45 0 75.5 -30.5t30.5 -74.5t-30.5 -75t-75.5 -31q-44 0 -74.5 31zM-64 631.5q17 16.5 17 41.5t-17 42t-41 17q-23 0 -40 -17t-17 -42q0 -24 16.5 -41t40.5 -17t41 16.5z" />
    <glyph glyph-name="uni030B" unicode="&#x30b;" 
d="M-320 577.5q-2 3.5 0 8.5l54 108q3 7 12 7h65q6 0 8.5 -3.5t-0.5 -8.5l-59 -108q-3 -7 -12 -7h-61q-5 0 -7 3.5zM-167.5 577.5q-2.5 3.5 0.5 8.5l58 108q3 7 12 7h61q6 0 8 -3.5t-1 -8.5l-59 -108q-3 -7 -12 -7h-59q-6 0 -8.5 3.5z" />
    <glyph glyph-name="uni030C" unicode="&#x30c;" 
d="M-207 568l-72 107l-2 5q0 7 9 7h56q8 0 12 -6l48 -72q1 -1 3 -1t3 1l47 72q5 6 12 6h54q6 0 8 -3.5t-1 -8.5l-74 -107q-4 -6 -12 -6h-79q-8 0 -12 6z" />
    <glyph glyph-name="uni0312" unicode="&#x312;" 
d="M-29 688.5q2 -3.5 -1 -8.5l-60 -108q-4 -7 -12 -7h-71q-6 0 -8 3.5t1 8.5l72 109q4 6 12 6h59q6 0 8 -3.5z" />
    <glyph glyph-name="uni0313" unicode="&#x313;" 
d="M-159 579.5q-2 3.5 1 8.5l60 108q3 7 12 7h71q6 0 8 -3.5t-1 -8.5l-72 -109q-4 -6 -12 -6h-59q-6 0 -8 3.5z" />
    <glyph glyph-name="uni0326" unicode="&#x326;" 
d="M-182 -178.5q-2 3.5 1 8.5l60 108q3 7 12 7h71q6 0 8 -3.5t-1 -8.5l-72 -109q-4 -6 -12 -6h-59q-6 0 -8 3.5z" />
    <glyph glyph-name="uni0327" unicode="&#x327;" 
d="M-138 -170l5 32q1 4 4 6.5t8 1.5q10 -2 16 -2q32 0 39 31q1 3 1 10q0 37 -45 79q-4 3 -4 7q0 5 8 5h41q7 0 10 -3l4 -4q52 -45 52 -98q0 -12 -3 -22q-8 -33 -31 -47t-54 -14q-19 0 -43 6q-9 3 -8 12z" />
    <glyph glyph-name="uni0328" unicode="&#x328;" 
d="M-3 -172q0 -7 -8 -10q-24 -6 -43 -6q-31 0 -54 14t-31 47q-3 10 -3 22q0 53 52 98l4 4q3 3 10 3h41q8 0 8 -5q0 -4 -4 -7q-45 -42 -45 -79q0 -7 1 -10q7 -31 39 -31q6 0 16 2h2q8 0 10 -8l5 -32v-2z" />
    <glyph glyph-name="uni0335" unicode="&#x335;" 
d="M-296 626h286q10 0 10 -10v-41q0 -10 -10 -10h-286q-10 0 -10 10v41q0 10 10 10z" />
    <glyph glyph-name="uni0336" unicode="&#x336;" 
d="M-525 523v48q0 10 10 10h505q10 0 10 -10v-48q0 -10 -10 -10h-505q-10 0 -10 10z" />
    <glyph glyph-name="uni0337" unicode="&#x337;" 
d="M-355 71q-4 0 -7 4l-35 42q-3 3 -3 7t4 7l407 317q2 2 6 2q5 0 8 -4l35 -42q3 -3 3 -7t-4 -7l-407 -316q-3 -3 -7 -3z" />
    <glyph glyph-name="uni0338" unicode="&#x338;" 
d="M-430.5 -39.5q-2.5 3.5 -0.5 8.5l357 772q3 7 11 7h50q5 0 7.5 -3.5t0.5 -8.5l-358 -772q-3 -7 -11 -7h-49q-5 0 -7.5 3.5z" />
    <glyph glyph-name="uni0394" unicode="&#x394;" horiz-adv-x="598" 
d="M29 10v67q0 7 2 12l229 603q3 8 11 8h55q8 0 11 -8l230 -604q2 -5 2 -12v-66q0 -10 -10 -10h-520q-10 0 -10 10zM125 84.5q1 -1.5 3 -1.5h342q2 0 3 1.5t0 3.5l-171 483q-1 2 -3 2t-3 -2l-171 -483q-1 -2 0 -3.5z" />
    <glyph glyph-name="uni03A9" unicode="&#x3a9;" horiz-adv-x="563" 
d="M55 10v63q0 10 10 10h60q2 0 3 1.5t-1 3.5q-28 25 -44 61.5t-16 81.5v266q0 62 27 110t75.5 74.5t111.5 26.5q64 0 113 -26.5t76 -74.5t27 -110v-266q0 -45 -16 -81.5t-44 -61.5q-2 -2 -1 -3.5t3 -1.5h58q10 0 10 -10v-63q0 -10 -10 -10h-177q-10 0 -10 10v65q0 8 9 11
q34 8 58 41.5t24 80.5v292q0 56 -33 90.5t-87 34.5q-53 0 -85.5 -34.5t-32.5 -90.5v-292q0 -47 23.5 -80t56.5 -42q9 -3 9 -11v-65q0 -10 -10 -10h-177q-10 0 -10 10z" />
    <glyph glyph-name="uni03BC" unicode="&#x3bc;" horiz-adv-x="492" 
d="M344 509h76q10 0 10 -10v-489q0 -10 -10 -10h-76q-10 0 -10 10v31q0 2 -1.5 3t-3.5 -1q-35 -50 -110 -50q-30 0 -57 8q-5 2 -5 -3v-188q0 -10 -10 -10h-76q-10 0 -10 10v689q0 10 10 10h76q10 0 10 -10v-324q0 -47 22.5 -73t64.5 -26q41 0 65.5 27.5t24.5 74.5v321
q0 10 10 10z" />
    <glyph glyph-name="pi" unicode="&#x3c0;" horiz-adv-x="585" 
d="M543 427h-58q-4 0 -4 -4v-273q0 -29 6 -43.5t17 -18.5t30 -4q10 0 10 -10v-64q0 -10 -14 -10q-45 0 -74.5 5.5t-50.5 27.5t-20 69v321q0 4 -4 4h-173q-4 0 -4 -4v-413q0 -10 -10 -10h-76q-10 0 -10 10v413q0 4 -4 4h-62q-10 0 -10 10v62q0 10 10 10h501q10 0 10 -10v-62
q0 -10 -10 -10z" />
    <glyph glyph-name="Wgrave" unicode="&#x1e80;" horiz-adv-x="758" 
d="M184 9l-159 680l-1 4q0 7 9 7h80q10 0 11 -9l107 -484q1 -3 2 -3t2 3l97 484q2 9 11 9h73q10 0 11 -9l104 -484q1 -3 2 -3t2 3l102 484q2 9 11 9h77q5 0 7.5 -3t1.5 -8l-153 -680q-1 -9 -11 -9h-75q-9 0 -11 9l-103 495q-1 3 -2 3t-2 -3l-99 -495q-1 -9 -11 -9h-72
q-9 0 -11 9zM413 773q0 -6 -9 -6h-59q-7 0 -12 6l-72 109l-2 5q0 7 9 7h71q8 0 12 -7l60 -108q2 -4 2 -6z" />
    <glyph glyph-name="wgrave" unicode="&#x1e81;" horiz-adv-x="659" 
d="M150 9l-125 489l-1 4q0 7 9 7h76q10 0 11 -9l78 -361q1 -3 2 -3t2 3l81 361q2 9 11 9h68q9 0 11 -9l82 -361q1 -3 2 -3t2 3l81 361q2 9 11 9l75 -1q5 0 7.5 -3t0.5 -8l-126 -488q-1 -9 -11 -9h-76q-9 0 -11 9l-81 333q-1 3 -2 3t-2 -3l-78 -333q-2 -9 -11 -9h-75
q-9 0 -11 9zM362 582q0 -6 -9 -6h-59q-7 0 -12 6l-72 109l-2 5q0 7 9 7h71q8 0 12 -7l60 -108q2 -4 2 -6z" />
    <glyph glyph-name="Wacute" unicode="&#x1e82;" horiz-adv-x="758" 
d="M184 9l-159 680l-1 4q0 7 9 7h80q10 0 11 -9l107 -484q1 -3 2 -3t2 3l97 484q2 9 11 9h73q10 0 11 -9l104 -484q1 -3 2 -3t2 3l102 484q2 9 11 9h77q5 0 7.5 -3t1.5 -8l-153 -680q-1 -9 -11 -9h-75q-9 0 -11 9l-103 495q-1 3 -2 3t-2 -3l-99 -495q-1 -9 -11 -9h-72
q-9 0 -11 9zM325 770.5q-2 3.5 1 8.5l60 108q3 7 12 7h71q6 0 8 -3.5t-1 -8.5l-72 -109q-4 -6 -12 -6h-59q-6 0 -8 3.5z" />
    <glyph glyph-name="wacute" unicode="&#x1e83;" horiz-adv-x="659" 
d="M150 9l-125 489l-1 4q0 7 9 7h76q10 0 11 -9l78 -361q1 -3 2 -3t2 3l81 361q2 9 11 9h68q9 0 11 -9l82 -361q1 -3 2 -3t2 3l81 361q2 9 11 9l75 -1q5 0 7.5 -3t0.5 -8l-126 -488q-1 -9 -11 -9h-76q-9 0 -11 9l-81 333q-1 3 -2 3t-2 -3l-78 -333q-2 -9 -11 -9h-75
q-9 0 -11 9zM274 579.5q-2 3.5 1 8.5l60 108q3 7 12 7h71q6 0 8 -3.5t-1 -8.5l-72 -109q-4 -6 -12 -6h-59q-6 0 -8 3.5z" />
    <glyph glyph-name="Wdieresis" unicode="&#x1e84;" horiz-adv-x="758" 
d="M184 9l-159 680l-1 4q0 7 9 7h80q10 0 11 -9l107 -484q1 -3 2 -3t2 3l97 484q2 9 11 9h73q10 0 11 -9l104 -484q1 -3 2 -3t2 3l102 484q2 9 11 9h77q5 0 7.5 -3t1.5 -8l-153 -680q-1 -9 -11 -9h-75q-9 0 -11 9l-103 495q-1 3 -2 3t-2 -3l-99 -495q-1 -9 -11 -9h-72
q-9 0 -11 9zM258.5 793.5q-15.5 15.5 -15.5 39.5t15.5 39.5t39.5 15.5q23 0 38 -15.5t15 -39.5t-15 -39.5t-38 -15.5q-24 0 -39.5 15.5zM419 793.5q-15 15.5 -15 39.5t15 39.5t40 15.5q23 0 38 -15.5t15 -39.5t-15 -39.5t-38 -15.5q-25 0 -40 15.5z" />
    <glyph glyph-name="wdieresis" unicode="&#x1e85;" horiz-adv-x="659" 
d="M150 9l-125 489l-1 4q0 7 9 7h76q10 0 11 -9l78 -361q1 -3 2 -3t2 3l81 361q2 9 11 9h68q9 0 11 -9l82 -361q1 -3 2 -3t2 3l81 361q2 9 11 9l75 -1q5 0 7.5 -3t0.5 -8l-126 -488q-1 -9 -11 -9h-76q-9 0 -11 9l-81 333q-1 3 -2 3t-2 -3l-78 -333q-2 -9 -11 -9h-75
q-9 0 -11 9zM207.5 602.5q-15.5 15.5 -15.5 39.5t15.5 39.5t39.5 15.5q23 0 38 -15.5t15 -39.5t-15 -39.5t-38 -15.5q-24 0 -39.5 15.5zM368 602.5q-15 15.5 -15 39.5t15 39.5t40 15.5q23 0 38 -15.5t15 -39.5t-15 -39.5t-38 -15.5q-25 0 -40 15.5z" />
    <glyph glyph-name="Ygrave" unicode="&#x1ef2;" horiz-adv-x="514" 
d="M209 11v284q0 4 -1 5l-174 388l-1 4q0 8 9 8h81q8 0 11 -8l120 -284q1 -2 3 -2t3 2l119 284q3 8 11 8h82q5 0 7.5 -3.5t0.5 -8.5l-175 -388q-1 -1 -1 -5v-284q0 -10 -10 -10h-75q-10 0 -10 10zM293 773q0 -6 -9 -6h-59q-7 0 -12 6l-72 109l-2 5q0 7 9 7h71q8 0 12 -7
l60 -108q2 -4 2 -6z" />
    <glyph glyph-name="ygrave" unicode="&#x1ef3;" horiz-adv-x="432" 
d="M42 -190v61q0 4 2 7t4 3h5q36 0 56.5 9t33.5 33.5t24 73.5q1 1 0.5 3.5l-0.5 2.5l-147 495l-1 3q0 8 10 8h80q10 0 11 -9l94 -363q1 -2 2.5 -2t2.5 2l92 363q2 9 11 9l81 -1q5 0 7.5 -3t1.5 -8l-159 -532q-21 -69 -42.5 -103t-56.5 -48t-100 -14h-6q-6 0 -6 10zM252 585
q0 -6 -9 -6h-59q-7 0 -12 6l-72 109l-2 5q0 7 9 7h71q8 0 12 -7l60 -108q2 -4 2 -6z" />
    <glyph glyph-name="endash" unicode="&#x2013;" horiz-adv-x="417" 
d="M32 252v63q0 10 10 10h333q10 0 10 -10v-63q0 -10 -10 -10h-333q-10 0 -10 10z" />
    <glyph glyph-name="emdash" unicode="&#x2014;" horiz-adv-x="634" 
d="M32 252v63q0 10 10 10h550q10 0 10 -10v-63q0 -10 -10 -10h-550q-10 0 -10 10z" />
    <glyph glyph-name="quoteleft" unicode="&#x2018;" horiz-adv-x="155" 
d="M4.5 491.5q-2.5 3.5 -0.5 8.5l71 192q3 8 11 8h57q5 0 7.5 -3t1.5 -8l-52 -192q-2 -9 -11 -9h-77q-5 0 -7.5 3.5z" />
    <glyph glyph-name="quoteright" unicode="&#x2019;" horiz-adv-x="155" 
d="M150.5 696.5q2.5 -3.5 0.5 -8.5l-71 -192q-3 -8 -11 -8h-57q-5 0 -7.5 3t-1.5 8l52 192q2 9 11 9h77q5 0 7.5 -3.5z" />
    <glyph glyph-name="quotesinglbase" unicode="&#x201a;" horiz-adv-x="600" 
d="M49 -83q-3 3 -2 8l34 222q1 9 10 9h67q11 0 8 -11l-53 -222q-2 -9 -11 -9h-46q-4 0 -7 3z" />
    <glyph glyph-name="quotedblleft" unicode="&#x201c;" horiz-adv-x="294" 
d="M4 499l69 193q3 8 12 8h54q5 0 7.5 -3t1.5 -8l-51 -192q-2 -9 -11 -9h-74q-11 0 -8 11zM148 499l69 193q3 8 12 8h53q5 0 7.5 -3t1.5 -8l-50 -192q-1 -9 -11 -9h-74q-11 0 -8 11z" />
    <glyph glyph-name="quotedblright" unicode="&#x201d;" horiz-adv-x="294" 
d="M146 689l-69 -193q-3 -8 -12 -8h-53q-5 0 -7.5 3t-1.5 8l50 192q2 9 11 9h74q11 0 8 -11zM290 689l-69 -193q-3 -8 -12 -8h-54q-5 0 -7.5 3t-1.5 8l51 192q2 9 11 9h74q11 0 8 -11z" />
    <glyph glyph-name="quotedblbase" unicode="&#x201e;" horiz-adv-x="295" 
d="M146 117l-69 -193q-3 -8 -12 -8h-53q-5 0 -7.5 3t-1.5 8l50 192q2 9 11 9h74q11 0 8 -11zM290 117l-69 -193q-3 -8 -12 -8h-54q-5 0 -7.5 3t-1.5 8l51 192q2 9 11 9h74q11 0 8 -11z" />
    <glyph glyph-name="dagger" unicode="&#x2020;" horiz-adv-x="391" 
d="M359 449v-54q0 -10 -10 -10h-101q-4 0 -4 -4v-571q0 -10 -10 -10h-76q-10 0 -10 10v571q0 4 -4 4h-102q-10 0 -10 10v54q0 10 10 10h102q4 0 4 4v227q0 10 10 10h76q10 0 10 -10v-227q0 -4 4 -4h101q10 0 10 -10z" />
    <glyph glyph-name="daggerdbl" unicode="&#x2021;" horiz-adv-x="391" 
d="M349 385h-101q-4 0 -4 -4v-262q0 -4 4 -4h101q10 0 10 -10v-54q0 -10 -10 -10h-101q-4 0 -4 -4v-227q0 -10 -10 -10h-76q-10 0 -10 10v227q0 4 -4 4h-102q-10 0 -10 10v54q0 10 10 10h102q4 0 4 4v262q0 4 -4 4h-102q-10 0 -10 10v54q0 10 10 10h102q4 0 4 4v227
q0 10 10 10h76q10 0 10 -10v-227q0 -4 4 -4h101q10 0 10 -10v-54q0 -10 -10 -10z" />
    <glyph glyph-name="bullet" unicode="&#x2022;" horiz-adv-x="305" 
d="M67.5 185.5q-35.5 35.5 -35.5 85.5t35.5 84.5t85.5 34.5t85 -34.5t35 -84.5t-35 -85.5t-85 -35.5t-85.5 35.5z" />
    <glyph glyph-name="ellipsis" unicode="&#x2026;" horiz-adv-x="747" 
d="M73.5 20q-19.5 20 -19.5 50q0 28 21 48t48 20q28 0 49 -20t21 -48q0 -29 -20.5 -49.5t-49.5 -20.5q-30 0 -49.5 20zM322.5 20q-19.5 20 -19.5 50q0 28 21 48t48 20q28 0 49 -20t21 -48q0 -29 -20.5 -49.5t-49.5 -20.5q-30 0 -49.5 20zM570.5 20q-19.5 20 -19.5 50
q0 28 21 48t48 20q28 0 49 -20t21 -48q0 -29 -20.5 -49.5t-49.5 -20.5q-30 0 -49.5 20z" />
    <glyph glyph-name="perthousand" unicode="&#x2030;" horiz-adv-x="1081" 
d="M59.5 309.5q-33.5 33.5 -33.5 89.5v187q0 56 33.5 89t88.5 33q56 0 90 -33.5t34 -88.5v-187q0 -56 -34 -89.5t-90 -33.5q-55 0 -88.5 33.5zM191 350q16 17 16 45v195q0 28 -16 45t-43 17q-26 0 -41.5 -17t-15.5 -45v-195q0 -28 15.5 -45t41.5 -17q27 0 43 17zM152 3.5
q-2 3.5 1 8.5l420 681q5 7 12 7h49q6 0 8 -3.5t-1 -8.5l-419 -681q-5 -7 -12 -7h-50q-6 0 -8 3.5zM550.5 25.5q-33.5 33.5 -33.5 89.5v187q0 56 33.5 89t88.5 33q56 0 90 -33.5t34 -88.5v-187q0 -56 -34 -89.5t-90 -33.5q-55 0 -88.5 33.5zM682 66q16 17 16 45v195
q0 28 -16 45t-43 17q-26 0 -41.5 -17t-15.5 -45v-195q0 -28 15.5 -45t41.5 -17q27 0 43 17zM845.5 25.5q-33.5 33.5 -33.5 89.5v187q0 56 33.5 89t88.5 33q56 0 90 -33.5t34 -88.5v-187q0 -56 -34 -89.5t-90 -33.5q-55 0 -88.5 33.5zM977 66q16 17 16 45v195q0 28 -16 45
t-43 17q-26 0 -41.5 -17t-15.5 -45v-195q0 -28 15.5 -45t41.5 -17q27 0 43 17z" />
    <glyph glyph-name="guilsinglleft" unicode="&#x2039;" horiz-adv-x="328" 
d="M250 114q0 -7 -9 -7h-70q-8 0 -12 6l-108 161q-2 3 -2 7t2 7l108 161q4 6 12 6h70q6 0 8 -3.5t-1 -8.5l-108 -159q-1 -3 0 -6l108 -159z" />
    <glyph glyph-name="guilsinglright" unicode="&#x203a;" horiz-adv-x="351" 
d="M79 110.5q-2 3.5 1 8.5l108 159q2 3 0 6l-108 159l-2 5q0 7 9 7h70q8 0 12 -6l108 -161q2 -3 2 -7t-2 -7l-108 -161q-4 -6 -12 -6h-70q-6 0 -8 3.5z" />
    <glyph glyph-name="fraction" unicode="&#x2044;" horiz-adv-x="227" 
d="M-127 3.5q-2 3.5 1 8.5l420 681q5 7 12 7h49q6 0 8 -3.5t-1 -8.5l-419 -681q-5 -7 -12 -7h-50q-6 0 -8 3.5z" />
    <glyph glyph-name="uni2074" unicode="&#x2074;" horiz-adv-x="307" 
d="M285 592v-39q0 -10 -10 -10h-17q-4 0 -4 -4v-96q0 -10 -10 -10h-45q-10 0 -10 10v96q0 4 -4 4h-158q-10 0 -10 10v33q0 7 2 12l99 247q3 8 11 8h48q5 0 7.5 -3.5t0.5 -8.5l-91 -234q-1 -2 0 -3.5t3 -1.5h88q4 0 4 4v76q0 10 10 10h45q10 0 10 -10v-76q0 -4 4 -4h17
q10 0 10 -10z" />
    <glyph glyph-name="uni2075" unicode="&#x2075;" horiz-adv-x="276" 
d="M256 561q0 -45 -16 -76q-14 -29 -40 -44.5t-62 -15.5q-44 0 -73.5 22.5t-39.5 63.5q-2 7 -4 29q0 10 10 10h45q9 0 10 -8v-4l3 -14q4 -19 17 -30t32 -11q35 0 46 34q7 17 7 44t-7 44q-5 16 -17 24.5t-28 8.5q-37 0 -49 -29q-5 -8 -12 -8h-47q-10 0 -10 10v229q0 10 10 10
h204q10 0 10 -10v-36q0 -10 -10 -10h-145q-4 0 -4 -4v-113q0 -5 5 -2q25 20 62 20q59 0 88 -56q15 -33 15 -78z" />
    <glyph glyph-name="uni2076" unicode="&#x2076;" horiz-adv-x="286" 
d="M265 561q0 -39 -12 -69q-13 -32 -40.5 -49.5t-65.5 -17.5q-43 0 -71.5 21.5t-39.5 60.5q-7 20 -7 53v187q-1 50 31 79t85 29q49 0 80.5 -29t31.5 -76v-10q0 -10 -10 -10h-45q-10 0 -10 7v7q0 24 -13.5 39t-33.5 15q-23 0 -37.5 -15.5t-14.5 -40.5v-73q0 -2 1.5 -2.5
t3.5 1.5q25 27 62 27q32 0 55.5 -15.5t34.5 -43.5q15 -33 15 -75zM199 562q0 29 -6 45q-11 35 -47 35q-18 0 -30.5 -10t-17.5 -27q-4 -15 -4 -42t4 -42q5 -18 17.5 -28t30.5 -10q36 0 47 35q6 18 6 44z" />
    <glyph glyph-name="uni2077" unicode="&#x2077;" horiz-adv-x="257" 
d="M64 444l115 348q1 2 -0.5 3.5t-3.5 1.5h-108q-4 0 -4 -4v-33q0 -10 -10 -10h-34q-10 0 -10 10l1 83q0 10 10 10h218q10 0 10 -10v-40q0 -4 -2 -12l-115 -350q-3 -8 -12 -8h-47q-11 0 -8 11z" />
    <glyph glyph-name="uni2078" unicode="&#x2078;" horiz-adv-x="289" 
d="M216 649q28 -18 38 -48q8 -24 8 -50q0 -24 -7 -49q-11 -34 -41 -55t-70 -21q-39 0 -68 20t-42 56q-8 23 -8 49t8 50q10 31 38 47q3 3 0 6q-27 19 -37 47q-8 19 -8 43t8 44q13 34 41 51.5t68 17.5t69 -18t41 -51q8 -24 8 -44q0 -21 -8 -42q-10 -27 -38 -47q-3 -3 0 -6z
M91 739q0 -9 3 -21q10 -41 50 -41q20 0 33 11t18 30q2 12 2 21q0 14 -2 21q-5 20 -18.5 30.5t-32.5 10.5q-20 0 -33 -11t-17 -30q-3 -10 -3 -21zM196 555q0 17 -1 26q-5 21 -18 33.5t-33 12.5t-33.5 -12.5t-16.5 -33.5q-2 -9 -2 -26q0 -18 2 -28q3 -20 17 -32.5t33 -12.5
t32.5 12.5t17.5 32.5q2 10 2 28z" />
    <glyph glyph-name="uni2079" unicode="&#x2079;" horiz-adv-x="286" 
d="M226 455q-32 -29 -85 -29q-49 0 -80.5 29t-31.5 76v10q0 10 10 10h45q10 0 10 -7v-7q0 -24 13.5 -39t33.5 -15q23 0 37.5 15.5t14.5 40.5v73q0 2 -1.5 2.5t-3.5 -1.5q-25 -27 -62 -27q-32 0 -55.5 15.5t-34.5 43.5q-15 33 -15 75q0 39 12 69q13 32 40.5 49.5t65.5 17.5
q43 0 71.5 -21.5t39.5 -60.5q7 -20 7 -53v-187q1 -50 -31 -79zM192 718q0 27 -4 42q-5 18 -17.5 28t-30.5 10q-36 0 -47 -35q-6 -18 -6 -44q0 -28 6 -45q11 -35 47 -35q18 0 30.5 10t17.5 27q4 15 4 42z" />
    <glyph glyph-name="franc" unicode="&#x20a3;" horiz-adv-x="559" 
d="M533 617h-289q-4 0 -4 -4v-216q0 -4 4 -4h190q10 0 10 -10v-63q0 -10 -10 -10h-190q-4 0 -4 -4v-110q0 -4 4 -4h124q10 0 10 -10v-41q0 -10 -10 -10h-124q-4 0 -4 -4v-117q0 -10 -10 -10h-76q-10 0 -10 10v117q0 4 -4 4h-58q-10 0 -10 10v41q0 10 10 10h58q4 0 4 4v494
q0 10 10 10h379q10 0 10 -10v-63q0 -10 -10 -10z" />
    <glyph glyph-name="Euro" unicode="&#x20ac;" horiz-adv-x="563" 
d="M387 99q25 24 30 65q2 10 11 8l75 -12q10 -2 9 -11q-11 -72 -62 -114.5t-128 -42.5q-86 0 -138.5 53.5t-52.5 141.5v74q0 4 -4 4h-62q-10 0 -10 10v34q0 10 10 10h62q4 0 4 4v52q0 4 -4 4h-62q-10 0 -10 10v34q0 10 10 10h62q4 0 4 4v77q0 88 52.5 141t138.5 53
q79 0 130 -43t60 -117v-2q0 -7 -9 -9l-76 -10h-2q-7 0 -9 9q-4 41 -29 65t-65 24q-43 0 -69 -29.5t-26 -76.5v-82q0 -4 4 -4h194q11 0 8 -11l-10 -35q-3 -8 -12 -8h-180q-4 0 -4 -4v-52q0 -4 4 -4h162q11 0 8 -11l-11 -35q-3 -8 -12 -8h-147q-4 0 -4 -4v-80q0 -47 26 -76.5
t69 -29.5q40 0 65 24z" />
    <glyph glyph-name="uni20BA" unicode="&#x20ba;" horiz-adv-x="604" 
d="M554 263q-1 -67 -31.5 -123.5t-90 -92.5t-142.5 -43q-63 -5 -111 -4q-10 0 -10 10v285q0 2 -1.5 3.5t-2.5 0.5l-83 -24l-4 -1q-6 0 -9 8l-11 36l-1 4q0 6 8 9l101 29q3 2 3 5v52q0 2 -1.5 3.5t-2.5 0.5l-83 -24l-4 -1q-6 0 -9 8l-11 36l-1 4q0 6 8 9l101 29q3 2 3 5v203
q0 10 10 10h76q10 0 10 -10v-173q0 -2 2 -3.5t3 -0.5l133 39l4 1q6 0 9 -8l11 -36l1 -4q0 -6 -8 -9l-152 -44q-3 -1 -3 -5v-53q0 -2 2 -3.5t3 -0.5l133 39q2 1 5 1q7 0 8 -7l11 -36l1 -4q0 -6 -8 -9l-152 -44q-3 -1 -3 -5v-238q0 -4 4 -4q88 6 137.5 54.5t51.5 125.5
q0 10 10 10h76q10 0 10 -10z" />
    <glyph glyph-name="uni20BD" unicode="&#x20bd;" horiz-adv-x="608" 
d="M255 303q-4 0 -4 -4v-72q0 -4 4 -4h193q10 0 10 -10v-37q0 -10 -10 -10h-193q-4 0 -4 -4v-152q0 -10 -10 -10h-76q-10 0 -10 10v152q0 4 -4 4h-69q-10 0 -10 10v37q0 10 10 10h69q4 0 4 4v72q0 4 -4 4h-69q-10 0 -10 10v58q0 10 10 10h69q4 0 4 4v306q0 10 10 10h225
q55 0 98 -25t66.5 -71t23.5 -105t-24 -103.5t-66.5 -69t-97.5 -24.5h-135zM251 614v-229q0 -4 4 -4h121q49 0 77.5 31.5t28.5 85.5q0 55 -28.5 87.5t-77.5 32.5h-121q-4 0 -4 -4z" />
    <glyph glyph-name="uni2113" unicode="&#x2113;" horiz-adv-x="464" 
d="M358 98q4 0 7 -4l32 -41q6 -6 0 -14q-20 -23 -52.5 -35t-74.5 -12q-67 0 -104 42.5t-37 118.5v71q0 2 -2 3t-3 0l-31 -22l-5 -2q-5 0 -8 6l-18 43q-1 2 -1 5q0 5 5 8q29 22 60 45q2 2 2 5l-1 188q0 50 18 97t53 77.5t82 30.5q54 0 87.5 -38.5t33.5 -98.5
q0 -78 -50.5 -144.5t-140.5 -135.5q-2 -2 -2 -5l1 -120q0 -101 71 -101q22 0 40 8.5t31 21.5q3 3 7 3zM208 381q0 -5 5 -2q54 48 84.5 93t30.5 92q0 34 -14.5 55.5t-39.5 19.5q-29 -4 -48 -43t-19 -106z" />
    <glyph glyph-name="trademark" unicode="&#x2122;" horiz-adv-x="593" 
d="M17 661v29q0 10 10 10h216q10 0 10 -10v-29q0 -10 -10 -10h-78q-4 0 -4 -4v-288q0 -10 -10 -10h-36q-10 0 -10 10v288q0 4 -4 4h-74q-10 0 -10 10zM511 700h36q10 0 10 -10v-331q0 -10 -10 -10h-36q-10 0 -10 10v244q0 3 -2 3.5t-3 -2.5l-51 -86q-5 -7 -12 -7h-1
q-7 0 -12 7l-52 87q-1 3 -3 2.5t-2 -3.5v-245q0 -10 -10 -10h-36q-10 0 -10 10v331q0 10 10 10h37q7 0 12 -7l63 -104q1 -1 3 -1t3 1l64 104q5 7 12 7z" />
    <glyph glyph-name="uni2126" unicode="&#x2126;" horiz-adv-x="563" 
d="M55 10v63q0 10 10 10h60q2 0 3 1.5t-1 3.5q-28 25 -44 61.5t-16 81.5v266q0 62 27 110t75.5 74.5t111.5 26.5q64 0 113 -26.5t76 -74.5t27 -110v-266q0 -45 -16 -81.5t-44 -61.5q-2 -2 -1 -3.5t3 -1.5h58q10 0 10 -10v-63q0 -10 -10 -10h-177q-10 0 -10 10v65q0 8 9 11
q34 8 58 41.5t24 80.5v292q0 56 -33 90.5t-87 34.5q-53 0 -85.5 -34.5t-32.5 -90.5v-292q0 -47 23.5 -80t56.5 -42q9 -3 9 -11v-65q0 -10 -10 -10h-177q-10 0 -10 10z" />
    <glyph glyph-name="estimated" unicode="&#x212e;" horiz-adv-x="845" 
d="M610.5 661q83.5 -47 131 -129t47.5 -185q0 -4 -10 -4h-621q-4 0 -4 -4v-192q0 -3 2 -5q46 -57 114.5 -88.5t151.5 -31.5q94 0 174 46.5t121 122.5q4 7 12 7h15q5 0 7.5 -3.5t-0.5 -8.5q-44 -87 -133 -140.5t-196 -53.5q-105 0 -188.5 46.5t-131 127.5t-47.5 181
q0 103 47.5 185t131 129t188.5 47t188.5 -47zM155 552v-175q0 -4 4 -4h526q4 0 4 4v174q0 3 -2 5q-46 58 -114 90t-151 32t-151 -32t-114 -89q-2 -1 -2 -5z" />
    <glyph glyph-name="oneeighth" unicode="&#x215b;" horiz-adv-x="740" 
d="M77 700h48q10 0 10 -10v-400q0 -10 -10 -10h-45q-10 0 -10 10v346q0 2 -1.5 3.5t-2.5 0.5l-26 -6h-2q-9 0 -9 9v29q0 8 7 12l28 13q6 3 13 3zM86 3.5q-2 3.5 1 8.5l420 681q5 7 12 7h49q6 0 8 -3.5t-1 -8.5l-419 -681q-5 -7 -12 -7h-50q-6 0 -8 3.5zM667 216
q28 -18 38 -48q8 -24 8 -50q0 -24 -7 -49q-11 -34 -41 -55t-70 -21q-39 0 -68 20t-42 56q-8 23 -8 49t8 50q10 31 38 47q3 3 0 6q-27 19 -37 47q-8 19 -8 43t8 44q13 34 41 51.5t68 17.5t69 -18t41 -51q8 -24 8 -44q0 -21 -8 -42q-10 -27 -38 -47q-3 -3 0 -6zM542 306
q0 -9 3 -21q10 -41 50 -41q20 0 33 11t18 30q2 12 2 21q0 14 -2 21q-5 20 -18.5 30.5t-32.5 10.5q-20 0 -33 -11t-17 -30q-3 -10 -3 -21zM647 122q0 17 -1 26q-5 21 -18 33.5t-33 12.5t-33.5 -12.5t-16.5 -33.5q-2 -9 -2 -26q0 -18 2 -28q3 -20 17 -32.5t33 -12.5t32.5 12.5
t17.5 32.5q2 10 2 28z" />
    <glyph glyph-name="threeeighths" unicode="&#x215c;" horiz-adv-x="823" 
d="M266 413q0 -36 -10 -60q-11 -37 -39 -57t-70 -20q-44 0 -74.5 24.5t-39.5 64.5q-4 16 -4 38q0 10 10 10h44q10 0 10 -10q2 -18 4 -24q5 -21 18 -33.5t32 -12.5q33 0 47 32q8 22 8 52q0 35 -8 54q-14 33 -47 33q-10 0 -17 -4q-8 -5 -14 1l-22 25q-3 3 -3 7t3 7l87 101
q3 5 -2 5h-135q-10 0 -10 10v35q0 10 10 10h208q10 0 10 -10v-38q0 -7 -4 -12l-75 -91q-3 -4 1 -5q25 -4 43.5 -21.5t27.5 -44.5q11 -30 11 -66zM169 3.5q-2 3.5 1 8.5l420 681q5 7 12 7h49q6 0 8 -3.5t-1 -8.5l-419 -681q-5 -7 -12 -7h-50q-6 0 -8 3.5zM750 216
q28 -18 38 -48q8 -24 8 -50q0 -24 -7 -49q-11 -34 -41 -55t-70 -21q-39 0 -68 20t-42 56q-8 23 -8 49t8 50q10 31 38 47q3 3 0 6q-27 19 -37 47q-8 19 -8 43t8 44q13 34 41 51.5t68 17.5t69 -18t41 -51q8 -24 8 -44q0 -21 -8 -42q-10 -27 -38 -47q-3 -3 0 -6zM625 306
q0 -9 3 -21q10 -41 50 -41q20 0 33 11t18 30q2 12 2 21q0 14 -2 21q-5 20 -18.5 30.5t-32.5 10.5q-20 0 -33 -11t-17 -30q-3 -10 -3 -21zM730 122q0 17 -1 26q-5 21 -18 33.5t-33 12.5t-33.5 -12.5t-16.5 -33.5q-2 -9 -2 -26q0 -18 2 -28q3 -20 17 -32.5t33 -12.5t32.5 12.5
t17.5 32.5q2 10 2 28z" />
    <glyph glyph-name="fiveeighths" unicode="&#x215d;" horiz-adv-x="792" 
d="M256 409q0 -45 -16 -76q-14 -29 -40 -44.5t-62 -15.5q-44 0 -73.5 22.5t-39.5 63.5q-2 7 -4 29q0 10 10 10h45q9 0 10 -8v-4l3 -14q4 -19 17 -30t32 -11q35 0 46 34q7 17 7 44t-7 44q-5 16 -17 24.5t-28 8.5q-37 0 -49 -29q-5 -8 -12 -8h-47q-10 0 -10 10v229q0 10 10 10
h204q10 0 10 -10v-36q0 -10 -10 -10h-145q-4 0 -4 -4v-113q0 -5 5 -2q25 20 62 20q59 0 88 -56q15 -33 15 -78zM138 3.5q-2 3.5 1 8.5l420 681q5 7 12 7h49q6 0 8 -3.5t-1 -8.5l-419 -681q-5 -7 -12 -7h-50q-6 0 -8 3.5zM719 216q28 -18 38 -48q8 -24 8 -50q0 -24 -7 -49
q-11 -34 -41 -55t-70 -21q-39 0 -68 20t-42 56q-8 23 -8 49t8 50q10 31 38 47q3 3 0 6q-27 19 -37 47q-8 19 -8 43t8 44q13 34 41 51.5t68 17.5t69 -18t41 -51q8 -24 8 -44q0 -21 -8 -42q-10 -27 -38 -47q-3 -3 0 -6zM594 306q0 -9 3 -21q10 -41 50 -41q20 0 33 11t18 30
q2 12 2 21q0 14 -2 21q-5 20 -18.5 30.5t-32.5 10.5q-20 0 -33 -11t-17 -30q-3 -10 -3 -21zM699 122q0 17 -1 26q-5 21 -18 33.5t-33 12.5t-33.5 -12.5t-16.5 -33.5q-2 -9 -2 -26q0 -18 2 -28q3 -20 17 -32.5t33 -12.5t32.5 12.5t17.5 32.5q2 10 2 28z" />
    <glyph glyph-name="seveneighths" unicode="&#x215e;" horiz-adv-x="745" 
d="M64 291l115 348q1 2 -0.5 3.5t-3.5 1.5h-108q-4 0 -4 -4v-33q0 -10 -10 -10h-34q-10 0 -10 10l1 83q0 10 10 10h218q10 0 10 -10v-40q0 -4 -2 -12l-115 -350q-3 -8 -12 -8h-47q-11 0 -8 11zM91 3.5q-2 3.5 1 8.5l420 681q5 7 12 7h49q6 0 8 -3.5t-1 -8.5l-419 -681
q-5 -7 -12 -7h-50q-6 0 -8 3.5zM672 216q28 -18 38 -48q8 -24 8 -50q0 -24 -7 -49q-11 -34 -41 -55t-70 -21q-39 0 -68 20t-42 56q-8 23 -8 49t8 50q10 31 38 47q3 3 0 6q-27 19 -37 47q-8 19 -8 43t8 44q13 34 41 51.5t68 17.5t69 -18t41 -51q8 -24 8 -44q0 -21 -8 -42
q-10 -27 -38 -47q-3 -3 0 -6zM547 306q0 -9 3 -21q10 -41 50 -41q20 0 33 11t18 30q2 12 2 21q0 14 -2 21q-5 20 -18.5 30.5t-32.5 10.5q-20 0 -33 -11t-17 -30q-3 -10 -3 -21zM652 122q0 17 -1 26q-5 21 -18 33.5t-33 12.5t-33.5 -12.5t-16.5 -33.5q-2 -9 -2 -26
q0 -18 2 -28q3 -20 17 -32.5t33 -12.5t32.5 12.5t17.5 32.5q2 10 2 28z" />
    <glyph glyph-name="partialdiff" unicode="&#x2202;" horiz-adv-x="559" 
d="M477 493.5q19 -77.5 19 -159.5q0 -28 -1 -42q-7 -128 -62.5 -214t-174.5 -86q-95 0 -153.5 58t-58.5 162q0 72 29 123t77.5 77t104.5 26q37 0 72 -11t64 -32q2 -1 3.5 -0.5t0.5 2.5q-10 106 -51 163q-34 48 -92 55l-13 1q-50 0 -99 -31l-6 -2q-7 0 -8 7l-25 65q-1 1 -1 4
q0 7 6 10q72 38 136 38q54 0 98 -22t75 -63q41 -51 60 -128.5zM360.5 126.5q33.5 51.5 39.5 145.5q0 4 -1 5q-17 36 -51.5 58.5t-74.5 22.5q-56 0 -93.5 -39.5t-37.5 -105.5q0 -61 34.5 -99.5t88.5 -38.5q62 0 95.5 51.5z" />
    <glyph glyph-name="uni2206" unicode="&#x2206;" horiz-adv-x="598" 
d="M29 10v67q0 7 2 12l229 603q3 8 11 8h55q8 0 11 -8l230 -604q2 -5 2 -12v-66q0 -10 -10 -10h-520q-10 0 -10 10zM125 84.5q1 -1.5 3 -1.5h342q2 0 3 1.5t0 3.5l-171 483q-1 2 -3 2t-3 -2l-171 -483q-1 -2 0 -3.5z" />
    <glyph glyph-name="product" unicode="&#x220f;" horiz-adv-x="560" 
d="M490 790v-980q0 -10 -10 -10h-76q-10 0 -10 10v903q0 4 -4 4h-218q-4 0 -4 -4v-903q0 -10 -10 -10h-76q-10 0 -10 10v980q0 10 10 10h398q10 0 10 -10z" />
    <glyph glyph-name="summation" unicode="&#x2211;" horiz-adv-x="556" 
d="M72 -189v65q0 5 3 13l221 416q1 2 -1 6l-218 344q-4 8 -4 13v66q0 10 10 10h420q10 0 10 -10v-63q0 -10 -10 -10h-331q-2 0 -3 -2t0 -3l223 -341q2 -4 2 -6t-2 -8l-223 -413q-2 -5 2 -5h332q10 0 10 -10v-62q0 -10 -10 -10h-421q-10 0 -10 10z" />
    <glyph glyph-name="minus" unicode="&#x2212;" horiz-adv-x="468" 
d="M32 282v58q0 10 10 10h383q10 0 10 -10v-58q0 -10 -10 -10h-383q-10 0 -10 10z" />
    <glyph glyph-name="uni2215" unicode="&#x2215;" horiz-adv-x="463" 
d="M28 3.5q-2 3.5 0 8.5l321 681q3 7 11 7h68q5 0 7 -3.5t0 -8.5l-320 -681q-3 -7 -11 -7h-69q-5 0 -7 3.5z" />
    <glyph glyph-name="uni2219" unicode="&#x2219;" horiz-adv-x="305" 
d="M67.5 220.5q-35.5 35.5 -35.5 85.5t35.5 85t85.5 35t85 -35t35 -85t-35.5 -85.5t-84.5 -35.5q-50 0 -85.5 35.5z" />
    <glyph glyph-name="radical" unicode="&#x221a;" horiz-adv-x="720" 
d="M155 -192l-130 367l-1 4q0 6 8 9l71 23q2 1 5 1q6 0 7 -7l80 -243q1 -2 2.5 -2t2.5 2l205 821q2 9 11 9h233q10 0 10 -10v-63q0 -10 -10 -10h-164q-5 0 -5 -3l-226 -897q-1 -9 -11 -9h-76q-9 0 -12 8z" />
    <glyph glyph-name="infinity" unicode="&#x221e;" horiz-adv-x="696" 
d="M587 465q36 -22 56.5 -60.5t20.5 -85.5q0 -48 -20.5 -86.5t-57 -60t-82.5 -21.5q-48 0 -86 26t-72 73q-3 5 -6 0q-33 -44 -70.5 -71.5t-84.5 -27.5q-42 0 -77 22.5t-55.5 61t-20.5 85.5q0 48 20.5 86t56.5 59.5t79 21.5q48 0 84.5 -26.5t68.5 -71.5q2 -4 6 0
q36 47 74.5 72.5t85.5 25.5q44 0 80 -22zM239 247.5q24 21.5 57 69.5q2 3 0 6q-31 48 -54 68.5t-53 20.5q-35 0 -58 -25.5t-23 -66.5t22.5 -67.5t55.5 -26.5q29 0 53 21.5zM565 251.5q23 25.5 23 67.5q0 41 -22.5 67t-57.5 26q-31 0 -59 -22t-60 -68q-2 -3 1 -7
q29 -45 55 -67t60 -22q37 0 60 25.5z" />
    <glyph glyph-name="integral" unicode="&#x222b;" horiz-adv-x="375" 
d="M28 -193v65q0 10 10 10h20q42 0 58 21.5t16 70.5l7 568q1 66 18 100t57.5 47t116.5 14q10 0 10 -10v-65q0 -10 -10 -10h-20q-42 0 -58 -21.5t-17 -70.5l-6 -568q-1 -66 -18.5 -100t-57.5 -47t-116 -14q-10 0 -10 10z" />
    <glyph glyph-name="approxequal" unicode="&#x2248;" horiz-adv-x="492" 
d="M289 357q-20 8 -47 23q-26 15 -41.5 21.5t-34.5 6.5q-44 0 -71 -40q-2 -4 -6 -5t-8 1l-41 27q-8 6 -5 13q16 39 50 63.5t76 24.5q23 0 41 -6.5t42 -19.5q28 -17 45.5 -25t40.5 -8q20 0 34 10t28 29q6 8 14 3l46 -30q8 -6 4 -13q-20 -37 -51 -60t-69 -23q-27 0 -47 8z
M289 144q-20 8 -47 23q-26 15 -41.5 21.5t-34.5 6.5q-44 0 -71 -40q-2 -4 -6 -5t-8 1l-41 27q-8 6 -5 13q16 39 50 63.5t76 24.5q23 0 41 -6.5t42 -19.5q28 -17 45.5 -25t40.5 -8q20 0 34 10t28 29q6 8 14 3l46 -30q8 -6 4 -13q-20 -37 -51 -60t-69 -23q-27 0 -47 8z" />
    <glyph glyph-name="notequal" unicode="&#x2260;" horiz-adv-x="468" 
d="M425 383h-135q-2 0 -4 -3l-53 -114q-1 -2 0 -3.5t3 -1.5h189q10 0 10 -10v-58q0 -10 -10 -10h-227q-2 0 -4 -3l-39 -84q-3 -8 -11 -8h-41q-5 0 -7.5 3.5t-0.5 8.5l37 78q1 2 0 3.5t-3 1.5h-87q-10 0 -10 10v58q0 10 10 10h124q3 0 4 3l53 114q1 2 0 3.5t-3 1.5h-178
q-10 0 -10 10v58q0 10 10 10h216q3 0 4 3l41 88q3 7 11 7h40q5 0 7.5 -3.5t0.5 -8.5l-38 -81q-1 -2 0 -3.5t3 -1.5h98q10 0 10 -10v-58q0 -10 -10 -10z" />
    <glyph glyph-name="lessequal" unicode="&#x2264;" horiz-adv-x="468" 
d="M432.5 130q-3.5 -2 -8.5 0l-384 180q-7 4 -7 11v68q0 7 7 11l384 180q2 1 5 1q7 0 7 -8v-72q0 -8 -8 -11l-295 -132q-6 -3 0 -6l295 -132q8 -3 8 -11v-72q0 -5 -3.5 -7zM426 11h-383q-10 0 -10 10v58q0 10 10 10h383q10 0 10 -10v-58q0 -10 -10 -10z" />
    <glyph glyph-name="greaterequal" unicode="&#x2265;" horiz-adv-x="468" 
d="M32 21v58q0 10 10 10h383q10 0 10 -10v-58q0 -10 -10 -10h-383q-10 0 -10 10zM39 129q-7 0 -7 8v72q0 8 8 11l295 132q6 3 0 6l-295 132q-8 3 -8 11v72q0 5 3.5 7t8.5 0l384 -180q7 -4 7 -11v-68q0 -7 -7 -11l-384 -180q-2 -1 -5 -1z" />
    <glyph glyph-name="lozenge" unicode="&#x25ca;" horiz-adv-x="463" 
d="M194 -41l-159 384q-3 7 0 14l160 384q3 8 11 8h52q8 0 11 -8l159 -384q4 -7 0 -14l-158 -384q-3 -8 -11 -8h-54q-8 0 -11 8zM232 53q2 0 3 3l112 291q2 3 0 6l-112 289q-1 3 -3 3t-3 -3l-112 -289q-1 -3 0 -6l112 -291q1 -3 3 -3z" />
    <glyph glyph-name="NULL" 
 />
    <glyph glyph-name="i.loclTRK" horiz-adv-x="213" 
d="M57 10v489q0 10 10 10h76q10 0 10 -10v-489q0 -10 -10 -10h-76q-10 0 -10 10zM67 600.5q-14 14.5 -14 37.5t14 37t37 14q22 0 36 -14t14 -37t-14 -37.5t-36 -14.5q-23 0 -37 14.5z" />
    <glyph glyph-name="a.alt" horiz-adv-x="488" 
d="M341 509h76q10 0 10 -10v-489q0 -10 -10 -10h-76q-10 0 -10 10v33q0 2 -2 3t-3 -1q-38 -53 -112 -53q-63 0 -101 36.5t-55 110.5q-12 52 -12 115t10 113q29 150 162 150q73 0 108 -51q1 -3 3 -2.5t2 3.5v32q0 10 10 10zM331 255q0 72 -13 112q-20 67 -78 67
q-30 0 -51 -17.5t-31 -47.5q-15 -42 -15 -114q0 -70 12 -110q20 -70 84 -70q60 0 80 69q12 40 12 111z" />
    <glyph glyph-name="a.sc" horiz-adv-x="487" 
d="M363 9l-23 87q-1 3 -5 3h-184q-4 0 -5 -3l-23 -87q-2 -9 -11 -9h-75q-5 0 -7.5 3t-1.5 8l160 558q3 8 11 8h88q8 0 11 -8l161 -558l1 -3q0 -8 -10 -8h-76q-9 0 -11 9zM168.5 176.5q1.5 -1.5 3.5 -1.5h143q2 0 3.5 1.5t0.5 2.5l-73 279q-1 2 -2 2t-2 -2l-74 -279
q-1 -1 0.5 -2.5z" />
    <glyph glyph-name="aacute.sc" horiz-adv-x="487" 
d="M363 9l-23 87q-1 3 -5 3h-184q-4 0 -5 -3l-23 -87q-2 -9 -11 -9h-75q-5 0 -7.5 3t-1.5 8l160 558q3 8 11 8h88q8 0 11 -8l161 -558l1 -3q0 -8 -10 -8h-76q-9 0 -11 9zM168.5 176.5q1.5 -1.5 3.5 -1.5h143q2 0 3.5 1.5t0.5 2.5l-73 279q-1 2 -2 2t-2 -2l-74 -279
q-1 -1 0.5 -2.5zM191 647.5q-2 3.5 1 8.5l60 108q3 7 12 7h71q6 0 8 -3.5t-1 -8.5l-72 -109q-4 -6 -12 -6h-59q-6 0 -8 3.5z" />
    <glyph glyph-name="abreve.sc" horiz-adv-x="487" 
d="M363 9l-23 87q-1 3 -5 3h-184q-4 0 -5 -3l-23 -87q-2 -9 -11 -9h-75q-5 0 -7.5 3t-1.5 8l160 558q3 8 11 8h88q8 0 11 -8l161 -558l1 -3q0 -8 -10 -8h-76q-9 0 -11 9zM168.5 176.5q1.5 -1.5 3.5 -1.5h143q2 0 3.5 1.5t0.5 2.5l-73 279q-1 2 -2 2t-2 -2l-74 -279
q-1 -1 0.5 -2.5zM166 640.5q-32 28.5 -36 71.5q0 10 10 10h34q10 0 11 -10q3 -23 19.5 -38.5t38.5 -15.5t38.5 15.5t19.5 38.5q1 10 11 10h34q10 0 10 -10q-4 -44 -35.5 -72t-77.5 -28q-45 0 -77 28.5z" />
    <glyph glyph-name="uni01CE.sc" horiz-adv-x="487" 
d="M363 9l-23 87q-1 3 -5 3h-184q-4 0 -5 -3l-23 -87q-2 -9 -11 -9h-75q-5 0 -7.5 3t-1.5 8l160 558q3 8 11 8h88q8 0 11 -8l161 -558l1 -3q0 -8 -10 -8h-76q-9 0 -11 9zM168.5 176.5q1.5 -1.5 3.5 -1.5h143q2 0 3.5 1.5t0.5 2.5l-73 279q-1 2 -2 2t-2 -2l-74 -279
q-1 -1 0.5 -2.5zM189 634l-72 107l-2 5q0 7 9 7h56q8 0 12 -6l48 -72q1 -1 3 -1t3 1l47 72q5 6 12 6h54q6 0 8 -3.5t-1 -8.5l-74 -107q-4 -6 -12 -6h-79q-8 0 -12 6z" />
    <glyph glyph-name="acircumflex.sc" horiz-adv-x="487" 
d="M363 9l-23 87q-1 3 -5 3h-184q-4 0 -5 -3l-23 -87q-2 -9 -11 -9h-75q-5 0 -7.5 3t-1.5 8l160 558q3 8 11 8h88q8 0 11 -8l161 -558l1 -3q0 -8 -10 -8h-76q-9 0 -11 9zM168.5 176.5q1.5 -1.5 3.5 -1.5h143q2 0 3.5 1.5t0.5 2.5l-73 279q-1 2 -2 2t-2 -2l-74 -279
q-1 -1 0.5 -2.5zM114 641.5q-2 3.5 1 8.5l75 108q4 6 12 6h78q8 0 12 -6l76 -108q2 -2 2 -6q0 -2 -2 -4t-6 -2h-58q-7 0 -12 7l-47 72q-1 2 -3 2t-3 -2l-46 -72q-5 -7 -12 -7h-59q-6 0 -8 3.5z" />
    <glyph glyph-name="adieresis.sc" horiz-adv-x="487" 
d="M363 9l-23 87q-1 3 -5 3h-184q-4 0 -5 -3l-23 -87q-2 -9 -11 -9h-75q-5 0 -7.5 3t-1.5 8l160 558q3 8 11 8h88q8 0 11 -8l161 -558l1 -3q0 -8 -10 -8h-76q-9 0 -11 9zM168.5 176.5q1.5 -1.5 3.5 -1.5h143q2 0 3.5 1.5t0.5 2.5l-73 279q-1 2 -2 2t-2 -2l-74 -279
q-1 -1 0.5 -2.5zM124.5 670.5q-15.5 15.5 -15.5 39.5t15.5 39.5t39.5 15.5q23 0 38 -15.5t15 -39.5t-15 -39.5t-38 -15.5q-24 0 -39.5 15.5zM285 670.5q-15 15.5 -15 39.5t15 39.5t40 15.5q23 0 38 -15.5t15 -39.5t-15 -39.5t-38 -15.5q-25 0 -40 15.5z" />
    <glyph glyph-name="agrave.sc" horiz-adv-x="487" 
d="M363 9l-23 87q-1 3 -5 3h-184q-4 0 -5 -3l-23 -87q-2 -9 -11 -9h-75q-5 0 -7.5 3t-1.5 8l160 558q3 8 11 8h88q8 0 11 -8l161 -558l1 -3q0 -8 -10 -8h-76q-9 0 -11 9zM168.5 176.5q1.5 -1.5 3.5 -1.5h143q2 0 3.5 1.5t0.5 2.5l-73 279q-1 2 -2 2t-2 -2l-74 -279
q-1 -1 0.5 -2.5zM279 650q0 -6 -9 -6h-59q-7 0 -12 6l-72 109l-2 5q0 7 9 7h71q8 0 12 -7l60 -108q2 -4 2 -6z" />
    <glyph glyph-name="amacron.sc" horiz-adv-x="487" 
d="M363 9l-23 87q-1 3 -5 3h-184q-4 0 -5 -3l-23 -87q-2 -9 -11 -9h-75q-5 0 -7.5 3t-1.5 8l160 558q3 8 11 8h88q8 0 11 -8l161 -558l1 -3q0 -8 -10 -8h-76q-9 0 -11 9zM168.5 176.5q1.5 -1.5 3.5 -1.5h143q2 0 3.5 1.5t0.5 2.5l-73 279q-1 2 -2 2t-2 -2l-74 -279
q-1 -1 0.5 -2.5zM120 667v48q0 10 10 10h224q10 0 10 -10v-48q0 -10 -10 -10h-224q-10 0 -10 10z" />
    <glyph glyph-name="aogonek.sc" horiz-adv-x="502" 
d="M363 9l-23 87q-1 3 -5 3h-184q-4 0 -5 -3l-23 -87q-2 -9 -11 -9h-75q-5 0 -7.5 3t-1.5 8l160 558q3 8 11 8h88q8 0 11 -8l161 -558l1 -3q0 -8 -10 -8h-76q-9 0 -11 9zM168.5 176.5q1.5 -1.5 3.5 -1.5h143q2 0 3.5 1.5t0.5 2.5l-73 279q-1 2 -2 2t-2 -2l-74 -279
q-1 -1 0.5 -2.5zM474 -172q0 -7 -8 -10q-24 -6 -43 -6q-31 0 -54 14t-31 47q-3 10 -3 22q0 53 52 98l4 4q3 3 10 3h41q8 0 8 -5q0 -4 -4 -7q-45 -42 -45 -79q0 -7 1 -10q7 -31 39 -31q6 0 16 2h2q8 0 10 -8l5 -32v-2z" />
    <glyph glyph-name="aring.sc" horiz-adv-x="487" 
d="M363 9l-23 87q-1 3 -5 3h-184q-4 0 -5 -3l-23 -87q-2 -9 -11 -9h-75q-5 0 -7.5 3t-1.5 8l160 558q3 8 11 8h88q8 0 11 -8l161 -558l1 -3q0 -8 -10 -8h-76q-9 0 -11 9zM168.5 176.5q1.5 -1.5 3.5 -1.5h143q2 0 3.5 1.5t0.5 2.5l-73 279q-1 2 -2 2t-2 -2l-74 -279
q-1 -1 0.5 -2.5zM168.5 666q-30.5 31 -30.5 75t30.5 74.5t74.5 30.5q45 0 75.5 -30.5t30.5 -74.5t-30.5 -75t-75.5 -31q-44 0 -74.5 31zM284 699.5q17 16.5 17 41.5t-17 42t-41 17q-23 0 -40 -17t-17 -42q0 -24 16.5 -41t40.5 -17t41 16.5z" />
    <glyph glyph-name="atilde.sc" horiz-adv-x="487" 
d="M363 9l-23 87q-1 3 -5 3h-184q-4 0 -5 -3l-23 -87q-2 -9 -11 -9h-75q-5 0 -7.5 3t-1.5 8l160 558q3 8 11 8h88q8 0 11 -8l161 -558l1 -3q0 -8 -10 -8h-76q-9 0 -11 9zM168.5 176.5q1.5 -1.5 3.5 -1.5h143q2 0 3.5 1.5t0.5 2.5l-73 279q-1 2 -2 2t-2 -2l-74 -279
q-1 -1 0.5 -2.5zM279.5 661q-12.5 6 -30.5 17q-4 2 -13 8t-16 8.5t-14 2.5q-14 0 -24.5 -5.5t-19.5 -20.5q-6 -9 -14 -3l-29 20q-7 6 -3 13q14 30 35.5 45t47.5 15q16 0 30 -6t31 -17t26 -15.5t20 -4.5q13 0 23.5 5.5t19.5 20.5q4 10 14 4l28 -19q4 -3 4 -9q0 -4 -3 -10
q-16 -28 -39 -41.5t-46 -13.5q-15 0 -27.5 6z" />
    <glyph glyph-name="ae.sc" horiz-adv-x="739" 
d="M695 493h-239q-4 0 -4 -4v-153q0 -4 4 -4h151q10 0 10 -10v-64q0 -10 -10 -10h-151q-4 0 -4 -4v-157q0 -4 4 -4h239q10 0 10 -10v-63q0 -10 -10 -10h-330q-10 0 -10 10v85q0 4 -4 4h-171q-2 0 -4 -3l-44 -89q-3 -7 -12 -7h-82q-5 0 -7 3.5t0 8.5l278 558q3 7 12 7h374
q10 0 10 -10v-64q0 -10 -10 -10zM219 175h132q4 0 4 4v271q0 3 -1.5 3t-3.5 -2l-134 -271q-2 -5 3 -5z" />
    <glyph glyph-name="b.sc" horiz-adv-x="474" 
d="M385.5 41q-50.5 -41 -132.5 -41h-185q-10 0 -10 10v557q0 10 10 10h175q88 0 137 -39t49 -117q0 -86 -74 -120q-5 -4 -1 -5q82 -40 82 -138q0 -76 -50.5 -117zM154 489v-154q0 -4 4 -4h90q40 0 64 21.5t24 58.5q0 39 -23.5 60.5t-64.5 21.5h-90q-4 0 -4 -4zM316.5 107
q23.5 23 23.5 64q0 40 -24 64t-64 24h-94q-4 0 -4 -4v-167q0 -4 4 -4h95q40 0 63.5 23z" />
    <glyph glyph-name="c.sc" horiz-adv-x="465" 
d="M97 43.5q-52 50.5 -52 136.5v218q0 86 52 136t138 50t138 -49t52 -134v-4q0 -5 -3 -8t-7 -3l-76 -4q-10 0 -10 10v11q0 46 -26.5 71.5t-71.5 25.5q-41 0 -65.5 -26.5t-24.5 -70.5v-229q0 -45 25.5 -71.5t68.5 -26.5q42 0 68 26.5t26 71.5v10q0 10 10 10l76 -4q10 0 10 -7
v-7q0 -84 -52 -133.5t-138 -49.5t-138 50.5z" />
    <glyph glyph-name="cacute.sc" horiz-adv-x="465" 
d="M97 43.5q-52 50.5 -52 136.5v218q0 86 52 136t138 50t138 -49t52 -134v-4q0 -5 -3 -8t-7 -3l-76 -4q-10 0 -10 10v11q0 46 -26.5 71.5t-71.5 25.5q-41 0 -65.5 -26.5t-24.5 -70.5v-229q0 -45 25.5 -71.5t68.5 -26.5q42 0 68 26.5t26 71.5v10q0 10 10 10l76 -4q10 0 10 -7
v-7q0 -84 -52 -133.5t-138 -49.5t-138 50.5zM183 654.5q-2 3.5 1 8.5l60 108q3 7 12 7h71q6 0 8 -3.5t-1 -8.5l-72 -109q-4 -6 -12 -6h-59q-6 0 -8 3.5z" />
    <glyph glyph-name="ccaron.sc" horiz-adv-x="465" 
d="M97 43.5q-52 50.5 -52 136.5v218q0 86 52 136t138 50t138 -49t52 -134v-4q0 -5 -3 -8t-7 -3l-76 -4q-10 0 -10 10v11q0 46 -26.5 71.5t-71.5 25.5q-41 0 -65.5 -26.5t-24.5 -70.5v-229q0 -45 25.5 -71.5t68.5 -26.5q42 0 68 26.5t26 71.5v10q0 10 10 10l76 -4q10 0 10 -7
v-7q0 -84 -52 -133.5t-138 -49.5t-138 50.5zM181 641l-72 107l-2 5q0 7 9 7h56q8 0 12 -6l48 -72q1 -1 3 -1t3 1l47 72q5 6 12 6h54q6 0 8 -3.5t-1 -8.5l-74 -107q-4 -6 -12 -6h-79q-8 0 -12 6z" />
    <glyph glyph-name="ccedilla.sc" horiz-adv-x="465" 
d="M422 388.5q-3 -2.5 -7 -2.5l-76 -4q-10 0 -10 10v11q0 46 -26.5 71.5t-71.5 25.5q-41 0 -65.5 -26.5t-24.5 -70.5v-229q0 -45 25.5 -71.5t68.5 -26.5q42 0 68 26.5t26 71.5v10q0 10 10 10l76 -4q10 0 10 -7v-7q0 -77 -43.5 -125t-117.5 -56q-6 -2 -1 -5q43 -43 43 -91
q0 -16 -2 -23q-8 -33 -31 -47t-54 -14q-19 0 -43 6q-9 3 -8 12l5 32q1 4 4 6.5t8 1.5q10 -2 16 -2q32 0 39 31q1 3 1 10q0 20 -13.5 41.5t-37.5 41.5q0 1 -5 3q-64 13 -102 61t-38 121v218q0 86 52 136t138 50t138 -49t52 -134v-7q0 -3 -3 -5.5z" />
    <glyph glyph-name="cdotaccent.sc" horiz-adv-x="465" 
d="M97 43.5q-52 50.5 -52 136.5v218q0 86 52 136t138 50t138 -49t52 -134v-4q0 -5 -3 -8t-7 -3l-76 -4q-10 0 -10 10v11q0 46 -26.5 71.5t-71.5 25.5q-41 0 -65.5 -26.5t-24.5 -70.5v-229q0 -45 25.5 -71.5t68.5 -26.5q42 0 68 26.5t26 71.5v10q0 10 10 10l76 -4q10 0 10 -7
v-7q0 -84 -52 -133.5t-138 -49.5t-138 50.5zM198 665.5q-14 14.5 -14 37.5t14 37t37 14q22 0 36 -14t14 -37t-14 -37.5t-36 -14.5q-23 0 -37 14.5z" />
    <glyph glyph-name="d.sc" horiz-adv-x="475" 
d="M58 10v557q0 10 10 10h179q84 0 134.5 -45t50.5 -119v-249q0 -74 -50.5 -119t-134.5 -45h-179q-10 0 -10 10zM158 83l91 1q39 0 62.5 24.5t24.5 65.5v229q0 41 -24 65.5t-64 24.5h-90q-4 0 -4 -4v-402q0 -4 4 -4z" />
    <glyph glyph-name="eth.sc" horiz-adv-x="516" 
d="M422.5 532q50.5 -45 50.5 -119v-249q0 -74 -50.5 -119t-134.5 -45h-179q-10 0 -10 10v254q0 4 -4 4h-27q-10 0 -10 10v41q0 10 10 10h27q4 0 4 4v234q0 10 10 10h179q84 0 134.5 -45zM377 403q0 41 -24 65.5t-64 24.5h-90q-4 0 -4 -4v-156q0 -4 4 -4h65q10 0 10 -10v-41
q0 -10 -10 -10h-65q-4 0 -4 -4v-177q0 -4 4 -4l91 1q39 0 62.5 24.5t24.5 65.5v229z" />
    <glyph glyph-name="dcaron.sc" horiz-adv-x="475" 
d="M58 10v557q0 10 10 10h179q84 0 134.5 -45t50.5 -119v-249q0 -74 -50.5 -119t-134.5 -45h-179q-10 0 -10 10zM158 83l91 1q39 0 62.5 24.5t24.5 65.5v229q0 41 -24 65.5t-64 24.5h-90q-4 0 -4 -4v-402q0 -4 4 -4zM179 638l-72 107l-2 5q0 7 9 7h56q8 0 12 -6l48 -72
q1 -1 3 -1t3 1l47 72q5 6 12 6h54q6 0 8 -3.5t-1 -8.5l-74 -107q-4 -6 -12 -6h-79q-8 0 -12 6z" />
    <glyph glyph-name="dcroat.sc" horiz-adv-x="516" 
d="M422.5 532q50.5 -45 50.5 -119v-249q0 -74 -50.5 -119t-134.5 -45h-179q-10 0 -10 10v254q0 4 -4 4h-27q-10 0 -10 10v41q0 10 10 10h27q4 0 4 4v234q0 10 10 10h179q84 0 134.5 -45zM377 403q0 41 -24 65.5t-64 24.5h-90q-4 0 -4 -4v-156q0 -4 4 -4h65q10 0 10 -10v-41
q0 -10 -10 -10h-65q-4 0 -4 -4v-177q0 -4 4 -4l91 1q39 0 62.5 24.5t24.5 65.5v229z" />
    <glyph glyph-name="e.sc" horiz-adv-x="448" 
d="M404 493h-246q-4 0 -4 -4v-153q0 -4 4 -4h158q10 0 10 -10v-64q0 -10 -10 -10h-158q-4 0 -4 -4v-157q0 -4 4 -4h246q10 0 10 -10v-63q0 -10 -10 -10h-336q-10 0 -10 10v556q0 10 10 10h336q10 0 10 -10v-63q0 -10 -10 -10z" />
    <glyph glyph-name="eacute.sc" horiz-adv-x="448" 
d="M404 493h-246q-4 0 -4 -4v-153q0 -4 4 -4h158q10 0 10 -10v-64q0 -10 -10 -10h-158q-4 0 -4 -4v-157q0 -4 4 -4h246q10 0 10 -10v-63q0 -10 -10 -10h-336q-10 0 -10 10v556q0 10 10 10h336q10 0 10 -10v-63q0 -10 -10 -10zM180 657.5q-2 3.5 1 8.5l60 108q3 7 12 7h71
q6 0 8 -3.5t-1 -8.5l-72 -109q-4 -6 -12 -6h-59q-6 0 -8 3.5z" />
    <glyph glyph-name="ecaron.sc" horiz-adv-x="448" 
d="M404 493h-246q-4 0 -4 -4v-153q0 -4 4 -4h158q10 0 10 -10v-64q0 -10 -10 -10h-158q-4 0 -4 -4v-157q0 -4 4 -4h246q10 0 10 -10v-63q0 -10 -10 -10h-336q-10 0 -10 10v556q0 10 10 10h336q10 0 10 -10v-63q0 -10 -10 -10zM178 644l-72 107l-2 5q0 7 9 7h56q8 0 12 -6
l48 -72q1 -1 3 -1t3 1l47 72q5 6 12 6h54q6 0 8 -3.5t-1 -8.5l-74 -107q-4 -6 -12 -6h-79q-8 0 -12 6z" />
    <glyph glyph-name="uni0229.sc" horiz-adv-x="448" 
d="M404 493h-246q-4 0 -4 -4v-153q0 -4 4 -4h158q10 0 10 -10v-64q0 -10 -10 -10h-158q-4 0 -4 -4v-157q0 -4 4 -4h246q10 0 10 -10v-63q0 -10 -10 -10h-136q-5 0 -2 -5q42 -42 42 -90q0 -15 -2 -22q-8 -33 -31 -47t-54 -14q-19 0 -43 6q-9 3 -8 12l5 32q1 4 4 6.5t8 1.5
q10 -2 16 -2q32 0 39 31q1 3 1 9q0 20 -12.5 41t-33.5 39q-2 2 -5 2h-124q-10 0 -10 10v556q0 10 10 10h336q10 0 10 -10v-63q0 -10 -10 -10z" />
    <glyph glyph-name="ecircumflex.sc" horiz-adv-x="448" 
d="M404 493h-246q-4 0 -4 -4v-153q0 -4 4 -4h158q10 0 10 -10v-64q0 -10 -10 -10h-158q-4 0 -4 -4v-157q0 -4 4 -4h246q10 0 10 -10v-63q0 -10 -10 -10h-336q-10 0 -10 10v556q0 10 10 10h336q10 0 10 -10v-63q0 -10 -10 -10zM103 651.5q-2 3.5 1 8.5l75 108q4 6 12 6h78
q8 0 12 -6l76 -108q2 -2 2 -6q0 -2 -2 -4t-6 -2h-58q-7 0 -12 7l-47 72q-1 2 -3 2t-3 -2l-46 -72q-5 -7 -12 -7h-59q-6 0 -8 3.5z" />
    <glyph glyph-name="edieresis.sc" horiz-adv-x="448" 
d="M404 493h-246q-4 0 -4 -4v-153q0 -4 4 -4h158q10 0 10 -10v-64q0 -10 -10 -10h-158q-4 0 -4 -4v-157q0 -4 4 -4h246q10 0 10 -10v-63q0 -10 -10 -10h-336q-10 0 -10 10v556q0 10 10 10h336q10 0 10 -10v-63q0 -10 -10 -10zM113.5 680.5q-15.5 15.5 -15.5 39.5t15.5 39.5
t39.5 15.5q23 0 38 -15.5t15 -39.5t-15 -39.5t-38 -15.5q-24 0 -39.5 15.5zM274 680.5q-15 15.5 -15 39.5t15 39.5t40 15.5q23 0 38 -15.5t15 -39.5t-15 -39.5t-38 -15.5q-25 0 -40 15.5z" />
    <glyph glyph-name="edotaccent.sc" horiz-adv-x="448" 
d="M404 493h-246q-4 0 -4 -4v-153q0 -4 4 -4h158q10 0 10 -10v-64q0 -10 -10 -10h-158q-4 0 -4 -4v-157q0 -4 4 -4h246q10 0 10 -10v-63q0 -10 -10 -10h-336q-10 0 -10 10v556q0 10 10 10h336q10 0 10 -10v-63q0 -10 -10 -10zM195 668.5q-14 14.5 -14 37.5t14 37t37 14
q22 0 36 -14t14 -37t-14 -37.5t-36 -14.5q-23 0 -37 14.5z" />
    <glyph glyph-name="egrave.sc" horiz-adv-x="448" 
d="M404 493h-246q-4 0 -4 -4v-153q0 -4 4 -4h158q10 0 10 -10v-64q0 -10 -10 -10h-158q-4 0 -4 -4v-157q0 -4 4 -4h246q10 0 10 -10v-63q0 -10 -10 -10h-336q-10 0 -10 10v556q0 10 10 10h336q10 0 10 -10v-63q0 -10 -10 -10zM268 660q0 -6 -9 -6h-59q-7 0 -12 6l-72 109
l-2 5q0 7 9 7h71q8 0 12 -7l60 -108q2 -4 2 -6z" />
    <glyph glyph-name="emacron.sc" horiz-adv-x="448" 
d="M404 493h-246q-4 0 -4 -4v-153q0 -4 4 -4h158q10 0 10 -10v-64q0 -10 -10 -10h-158q-4 0 -4 -4v-157q0 -4 4 -4h246q10 0 10 -10v-63q0 -10 -10 -10h-336q-10 0 -10 10v556q0 10 10 10h336q10 0 10 -10v-63q0 -10 -10 -10zM109 677v48q0 10 10 10h224q10 0 10 -10v-48
q0 -10 -10 -10h-224q-10 0 -10 10z" />
    <glyph glyph-name="eogonek.sc" horiz-adv-x="448" 
d="M404 493h-246q-4 0 -4 -4v-153q0 -4 4 -4h158q10 0 10 -10v-64q0 -10 -10 -10h-158q-4 0 -4 -4v-157q0 -4 4 -4h246q10 0 10 -10v-63q0 -10 -10 -10h-143q-3 0 -5 -2q-22 -18 -34.5 -39t-12.5 -41q0 -7 1 -10q7 -31 39 -31q6 0 16 2h2q8 0 10 -8l5 -32v-2q0 -7 -8 -10
q-24 -6 -43 -6q-31 0 -54 14t-31 47q-2 7 -2 22q0 48 43 91q3 5 -2 5h-117q-10 0 -10 10v556q0 10 10 10h336q10 0 10 -10v-63q0 -10 -10 -10z" />
    <glyph glyph-name="f.sc" horiz-adv-x="426" 
d="M403 493h-245q-4 0 -4 -4v-153q0 -4 4 -4h158q10 0 10 -10v-64q0 -10 -10 -10h-158q-4 0 -4 -4v-234q0 -10 -10 -10h-76q-10 0 -10 10v557q0 10 10 10h335q10 0 10 -10v-64q0 -10 -10 -10z" />
    <glyph glyph-name="g.sc" horiz-adv-x="491" 
d="M104 42.5q-54 49.5 -54 135.5v221q0 86 54 135.5t145 49.5q89 0 143.5 -49t54.5 -134v-12q0 -10 -10 -10h-75q-10 0 -10 10v12q0 47 -28 73.5t-75 26.5q-48 0 -76 -27t-28 -76v-221q0 -48 28.5 -74.5t75.5 -26.5t75 26.5t28 74.5v44q0 4 -4 4h-84q-10 0 -10 10v55
q0 10 10 10h173q10 0 10 -10v-112q0 -86 -54 -135.5t-144 -49.5q-91 0 -145 49.5z" />
    <glyph glyph-name="gbreve.sc" horiz-adv-x="491" 
d="M104 42.5q-54 49.5 -54 135.5v221q0 86 54 135.5t145 49.5q89 0 143.5 -49t54.5 -134v-12q0 -10 -10 -10h-75q-10 0 -10 10v12q0 47 -28 73.5t-75 26.5q-48 0 -76 -27t-28 -76v-221q0 -48 28.5 -74.5t75.5 -26.5t75 26.5t28 74.5v44q0 4 -4 4h-84q-10 0 -10 10v55
q0 10 10 10h173q10 0 10 -10v-112q0 -86 -54 -135.5t-144 -49.5q-91 0 -145 49.5zM171 647.5q-32 28.5 -36 71.5q0 10 10 10h34q10 0 11 -10q3 -23 19.5 -38.5t38.5 -15.5t38.5 15.5t19.5 38.5q1 10 11 10h34q10 0 10 -10q-4 -44 -35.5 -72t-77.5 -28q-45 0 -77 28.5z" />
    <glyph glyph-name="uni0123.sc" horiz-adv-x="491" 
d="M104 42.5q-54 49.5 -54 135.5v221q0 86 54 135.5t145 49.5q89 0 143.5 -49t54.5 -134v-12q0 -10 -10 -10h-75q-10 0 -10 10v12q0 47 -28 73.5t-75 26.5q-48 0 -76 -27t-28 -76v-221q0 -48 28.5 -74.5t75.5 -26.5t75 26.5t28 74.5v44q0 4 -4 4h-84q-10 0 -10 10v55
q0 10 10 10h173q10 0 10 -10v-112q0 -86 -54 -135.5t-144 -49.5q-91 0 -145 49.5zM173 -185.5q-2 3.5 1 8.5l60 108q3 7 12 7h71q6 0 8 -3.5t-1 -8.5l-72 -109q-4 -6 -12 -6h-59q-6 0 -8 3.5z" />
    <glyph glyph-name="gdotaccent.sc" horiz-adv-x="491" 
d="M104 42.5q-54 49.5 -54 135.5v221q0 86 54 135.5t145 49.5q89 0 143.5 -49t54.5 -134v-12q0 -10 -10 -10h-75q-10 0 -10 10v12q0 47 -28 73.5t-75 26.5q-48 0 -76 -27t-28 -76v-221q0 -48 28.5 -74.5t75.5 -26.5t75 26.5t28 74.5v44q0 4 -4 4h-84q-10 0 -10 10v55
q0 10 10 10h173q10 0 10 -10v-112q0 -86 -54 -135.5t-144 -49.5q-91 0 -145 49.5zM211 665.5q-14 14.5 -14 37.5t14 37t37 14q22 0 36 -14t14 -37t-14 -37.5t-36 -14.5q-23 0 -37 14.5z" />
    <glyph glyph-name="h.sc" horiz-adv-x="487" 
d="M346 577h76q10 0 10 -10v-557q0 -10 -10 -10h-76q-10 0 -10 10v234q0 4 -4 4h-174q-4 0 -4 -4v-234q0 -10 -10 -10h-76q-10 0 -10 10v557q0 10 10 10h76q10 0 10 -10v-231q0 -4 4 -4h174q4 0 4 4v231q0 10 10 10z" />
    <glyph glyph-name="hbar.sc" horiz-adv-x="487" 
d="M507 477v-48q0 -10 -10 -10h-61q-4 0 -4 -4v-405q0 -10 -10 -10h-76q-10 0 -10 10v234q0 4 -4 4h-174q-4 0 -4 -4v-234q0 -10 -10 -10h-76q-10 0 -10 10v405q0 4 -4 4h-62q-10 0 -10 10v48q0 10 10 10h62q4 0 4 4v76q0 10 10 10h76q10 0 10 -10v-76q0 -4 4 -4h174
q4 0 4 4v76q0 10 10 10h76q10 0 10 -10v-76q0 -4 4 -4h61q10 0 10 -10zM336 336v79q0 4 -4 4h-174q-4 0 -4 -4v-79q0 -4 4 -4h174q4 0 4 4z" />
    <glyph glyph-name="i.sc" horiz-adv-x="212" 
d="M58 10v556q0 10 10 10h76q10 0 10 -10v-556q0 -10 -10 -10h-76q-10 0 -10 10z" />
    <glyph glyph-name="iacute.sc" horiz-adv-x="212" 
d="M58 10v556q0 10 10 10h76q10 0 10 -10v-556q0 -10 -10 -10h-76q-10 0 -10 10zM54 657.5q-2 3.5 1 8.5l60 108q3 7 12 7h71q6 0 8 -3.5t-1 -8.5l-72 -109q-4 -6 -12 -6h-59q-6 0 -8 3.5z" />
    <glyph glyph-name="icircumflex.sc" horiz-adv-x="212" 
d="M58 10v556q0 10 10 10h76q10 0 10 -10v-556q0 -10 -10 -10h-76q-10 0 -10 10zM-23 651.5q-2 3.5 1 8.5l75 108q4 6 12 6h78q8 0 12 -6l76 -108q2 -2 2 -6q0 -2 -2 -4t-6 -2h-58q-7 0 -12 7l-47 72q-1 2 -3 2t-3 -2l-46 -72q-5 -7 -12 -7h-59q-6 0 -8 3.5z" />
    <glyph glyph-name="idieresis.sc" horiz-adv-x="212" 
d="M58 10v556q0 10 10 10h76q10 0 10 -10v-556q0 -10 -10 -10h-76q-10 0 -10 10zM-12.5 680.5q-15.5 15.5 -15.5 39.5t15.5 39.5t39.5 15.5q23 0 38 -15.5t15 -39.5t-15 -39.5t-38 -15.5q-24 0 -39.5 15.5zM148 680.5q-15 15.5 -15 39.5t15 39.5t40 15.5q23 0 38 -15.5
t15 -39.5t-15 -39.5t-38 -15.5q-25 0 -40 15.5z" />
    <glyph glyph-name="i.sc.loclTRK" horiz-adv-x="212" 
d="M58 10v556q0 10 10 10h76q10 0 10 -10v-556q0 -10 -10 -10h-76q-10 0 -10 10zM69 668.5q-14 14.5 -14 37.5t14 37t37 14q22 0 36 -14t14 -37t-14 -37.5t-36 -14.5q-23 0 -37 14.5z" />
    <glyph glyph-name="igrave.sc" horiz-adv-x="212" 
d="M58 10v556q0 10 10 10h76q10 0 10 -10v-556q0 -10 -10 -10h-76q-10 0 -10 10zM142 660q0 -6 -9 -6h-59q-7 0 -12 6l-72 109l-2 5q0 7 9 7h71q8 0 12 -7l60 -108q2 -4 2 -6z" />
    <glyph glyph-name="ij.sc" horiz-adv-x="660" 
d="M58 10v556q0 10 10 10h76q10 0 10 -10v-556q0 -10 -10 -10h-76q-10 0 -10 10zM280 42q-51 49 -51 131v40q0 10 10 10h76q10 0 10 -10v-40q0 -45 24.5 -71t65.5 -26t66 26t25 71v394q0 10 10 10h76q10 0 10 -10v-394q0 -82 -51.5 -131t-135.5 -49t-135 49z" />
    <glyph glyph-name="imacron.sc" horiz-adv-x="212" 
d="M58 10v556q0 10 10 10h76q10 0 10 -10v-556q0 -10 -10 -10h-76q-10 0 -10 10zM-17 677v48q0 10 10 10h224q10 0 10 -10v-48q0 -10 -10 -10h-224q-10 0 -10 10z" />
    <glyph glyph-name="iogonek.sc" horiz-adv-x="223" 
d="M58 10v556q0 10 10 10h76q10 0 10 -10v-556q0 -10 -10 -10h-76q-10 0 -10 10zM167 -172q0 -7 -8 -10q-24 -6 -43 -6q-31 0 -54 14t-31 47q-3 10 -3 22q0 53 52 98l4 4q3 3 10 3h41q8 0 8 -5q0 -4 -4 -7q-45 -42 -45 -79q0 -7 1 -10q7 -31 39 -31q6 0 16 2h2q8 0 10 -8
l5 -32v-2z" />
    <glyph glyph-name="j.sc" horiz-adv-x="448" 
d="M68 42q-51 49 -51 131v40q0 10 10 10h76q10 0 10 -10v-40q0 -45 24.5 -71t65.5 -26t66 26t25 71v394q0 10 10 10h76q10 0 10 -10v-394q0 -82 -51.5 -131t-135.5 -49t-135 49z" />
    <glyph glyph-name="k.sc" horiz-adv-x="477" 
d="M58 10v557q0 10 10 10h76q10 0 10 -10v-242q0 -2 2 -2.5t3 1.5l185 247q4 6 13 6h82q6 0 8 -4t-2 -8l-163 -225q-1 -3 0 -6l175 -322l2 -5q0 -3 -2.5 -5t-6.5 -2h-83q-9 0 -12 7l-139 252q-2 5 -5 0l-55 -72q-2 -2 -2 -5v-172q0 -10 -10 -10h-76q-10 0 -10 10z" />
    <glyph glyph-name="uni0137.sc" horiz-adv-x="476" 
d="M58 10v557q0 10 10 10h76q10 0 10 -10v-242q0 -2 2 -2.5t3 1.5l185 247q4 6 13 6h82q6 0 8 -4t-2 -8l-163 -225q-1 -3 0 -6l175 -322l2 -5q0 -3 -2.5 -5t-6.5 -2h-83q-9 0 -12 7l-139 252q-2 5 -5 0l-55 -72q-2 -2 -2 -5v-172q0 -10 -10 -10h-76q-10 0 -10 10z
M169 -178.5q-2 3.5 1 8.5l60 108q3 7 12 7h71q6 0 8 -3.5t-1 -8.5l-72 -109q-4 -6 -12 -6h-59q-6 0 -8 3.5z" />
    <glyph glyph-name="l.sc" horiz-adv-x="428" 
d="M58 10v557q0 10 10 10h76q10 0 10 -10v-480q0 -4 4 -4h242q10 0 10 -10v-63q0 -10 -10 -10h-332q-10 0 -10 10z" />
    <glyph glyph-name="lacute.sc" horiz-adv-x="428" 
d="M58 10v557q0 10 10 10h76q10 0 10 -10v-480q0 -4 4 -4h242q10 0 10 -10v-63q0 -10 -10 -10h-332q-10 0 -10 10zM54 647.5q-2 3.5 1 8.5l60 108q3 7 12 7h71q6 0 8 -3.5t-1 -8.5l-72 -109q-4 -6 -12 -6h-59q-6 0 -8 3.5z" />
    <glyph glyph-name="lcaron.sc" horiz-adv-x="428" 
d="M58 10v557q0 10 10 10h76q10 0 10 -10v-480q0 -4 4 -4h242q10 0 10 -10v-63q0 -10 -10 -10h-332q-10 0 -10 10zM52 634l-72 107l-2 5q0 7 9 7h56q8 0 12 -6l48 -72q1 -1 3 -1t3 1l47 72q5 6 12 6h54q6 0 8 -3.5t-1 -8.5l-74 -107q-4 -6 -12 -6h-79q-8 0 -12 6z" />
    <glyph glyph-name="uni013C.sc" horiz-adv-x="428" 
d="M58 10v557q0 10 10 10h76q10 0 10 -10v-480q0 -4 4 -4h242q10 0 10 -10v-63q0 -10 -10 -10h-332q-10 0 -10 10zM137 -178.5q-2 3.5 1 8.5l60 108q3 7 12 7h71q6 0 8 -3.5t-1 -8.5l-72 -109q-4 -6 -12 -6h-59q-6 0 -8 3.5z" />
    <glyph glyph-name="lslash.sc" horiz-adv-x="542" 
d="M158 83h242q10 0 10 -10v-63q0 -10 -10 -10h-332q-10 0 -10 10v156q0 2 -1.5 3t-3.5 -1l-37 -29q-3 -3 -7 -3t-7 4l-31 37q-3 3 -3 7t4 7l84 65q2 2 2 5v306q0 10 10 10h76q10 0 10 -10v-228q0 -2 1.5 -3t3.5 1l183 142q2 2 6 2q5 0 8 -4l31 -37q2 -2 2 -6q0 -5 -4 -8
l-229 -178q-2 -2 -2 -5v-156q0 -4 4 -4z" />
    <glyph glyph-name="m.sc" horiz-adv-x="542" 
d="M58 10v557q0 10 10 10h76q7 0 12 -7l112 -198q1 -1 3 -1t3 1l112 198q5 7 12 7h76q10 0 10 -10v-557q0 -10 -10 -10h-76q-10 0 -10 10v423q0 3 -1.5 3t-3.5 -2l-95 -174q-3 -7 -12 -7h-9q-9 0 -12 7l-96 175q-2 2 -3.5 2t-1.5 -3v-424q0 -10 -10 -10h-76q-10 0 -10 10z
" />
    <glyph glyph-name="n.sc" horiz-adv-x="513" 
d="M58 10v556q0 10 10 10h77q9 0 12 -7l198 -392q2 -2 3.5 -1.5t1.5 3.5v387q0 10 10 10h76q10 0 10 -10v-556q0 -10 -10 -10h-78q-9 0 -12 7l-198 394q-2 2 -3.5 1.5t-1.5 -3.5v-389q0 -10 -10 -10h-75q-10 0 -10 10z" />
    <glyph glyph-name="nacute.sc" horiz-adv-x="513" 
d="M58 10v556q0 10 10 10h77q9 0 12 -7l198 -392q2 -2 3.5 -1.5t1.5 3.5v387q0 10 10 10h76q10 0 10 -10v-556q0 -10 -10 -10h-78q-9 0 -12 7l-198 394q-2 2 -3.5 1.5t-1.5 -3.5v-389q0 -10 -10 -10h-75q-10 0 -10 10zM202 657.5q-2 3.5 1 8.5l60 108q3 7 12 7h71
q6 0 8 -3.5t-1 -8.5l-72 -109q-4 -6 -12 -6h-59q-6 0 -8 3.5z" />
    <glyph glyph-name="ncaron.sc" horiz-adv-x="513" 
d="M58 10v556q0 10 10 10h77q9 0 12 -7l198 -392q2 -2 3.5 -1.5t1.5 3.5v387q0 10 10 10h76q10 0 10 -10v-556q0 -10 -10 -10h-78q-9 0 -12 7l-198 394q-2 2 -3.5 1.5t-1.5 -3.5v-389q0 -10 -10 -10h-75q-10 0 -10 10zM200 644l-72 107l-2 5q0 7 9 7h56q8 0 12 -6l48 -72
q1 -1 3 -1t3 1l47 72q5 6 12 6h54q6 0 8 -3.5t-1 -8.5l-74 -107q-4 -6 -12 -6h-79q-8 0 -12 6z" />
    <glyph glyph-name="uni0146.sc" horiz-adv-x="513" 
d="M58 10v556q0 10 10 10h77q9 0 12 -7l198 -392q2 -2 3.5 -1.5t1.5 3.5v387q0 10 10 10h76q10 0 10 -10v-556q0 -10 -10 -10h-78q-9 0 -12 7l-198 394q-2 2 -3.5 1.5t-1.5 -3.5v-389q0 -10 -10 -10h-75q-10 0 -10 10zM184 -178.5q-2 3.5 1 8.5l60 108q3 7 12 7h71
q6 0 8 -3.5t-1 -8.5l-72 -109q-4 -6 -12 -6h-59q-6 0 -8 3.5z" />
    <glyph glyph-name="eng.sc" horiz-adv-x="514" 
d="M456 566v-559v-7l-1 -2q-1 -53 -13.5 -83.5t-47 -45.5t-101.5 -15q-7 0 -10.5 2t-3.5 8l-1 63q0 10 14 10q39 0 51 16t12 54q0 4 -1 5l-196 389q-2 2 -3.5 1.5t-1.5 -3.5v-389q0 -10 -10 -10h-75q-10 0 -10 10v556q0 10 10 10h77q9 0 12 -7l193 -382q2 -2 3.5 -1.5
t1.5 3.5v176q0 4 1 6.5t2 3.5q2 0 2 4v187q0 10 10 10h76q10 0 10 -10z" />
    <glyph glyph-name="ntilde.sc" horiz-adv-x="513" 
d="M58 10v556q0 10 10 10h77q9 0 12 -7l198 -392q2 -2 3.5 -1.5t1.5 3.5v387q0 10 10 10h76q10 0 10 -10v-556q0 -10 -10 -10h-78q-9 0 -12 7l-198 394q-2 2 -3.5 1.5t-1.5 -3.5v-389q0 -10 -10 -10h-75q-10 0 -10 10zM290.5 671q-12.5 6 -30.5 17q-4 2 -13 8t-16 8.5
t-14 2.5q-14 0 -24.5 -5.5t-19.5 -20.5q-6 -9 -14 -3l-29 20q-7 6 -3 13q14 30 35.5 45t47.5 15q16 0 30 -6t31 -17t26 -15.5t20 -4.5q13 0 23.5 5.5t19.5 20.5q4 10 14 4l28 -19q4 -3 4 -9q0 -4 -3 -10q-16 -28 -39 -41.5t-46 -13.5q-15 0 -27.5 6z" />
    <glyph glyph-name="o.sc" horiz-adv-x="480" 
d="M98 44.5q-53 52.5 -53 141.5v204q0 90 53 142t142 52q88 0 141.5 -52.5t53.5 -141.5v-204q0 -89 -53.5 -141.5t-141.5 -52.5q-89 0 -142 52.5zM312 104.5q27 28.5 27 78.5v210q0 50 -27 78.5t-72 28.5t-72 -28.5t-27 -78.5v-210q0 -50 26.5 -78.5t72.5 -28.5
q45 0 72 28.5z" />
    <glyph glyph-name="oacute.sc" horiz-adv-x="480" 
d="M98 44.5q-53 52.5 -53 141.5v204q0 90 53 142t142 52q88 0 141.5 -52.5t53.5 -141.5v-204q0 -89 -53.5 -141.5t-141.5 -52.5q-89 0 -142 52.5zM312 104.5q27 28.5 27 78.5v210q0 50 -27 78.5t-72 28.5t-72 -28.5t-27 -78.5v-210q0 -50 26.5 -78.5t72.5 -28.5
q45 0 72 28.5zM188 652.5q-2 3.5 1 8.5l60 108q3 7 12 7h71q6 0 8 -3.5t-1 -8.5l-72 -109q-4 -6 -12 -6h-59q-6 0 -8 3.5z" />
    <glyph glyph-name="ocircumflex.sc" horiz-adv-x="480" 
d="M98 44.5q-53 52.5 -53 141.5v204q0 90 53 142t142 52q88 0 141.5 -52.5t53.5 -141.5v-204q0 -89 -53.5 -141.5t-141.5 -52.5q-89 0 -142 52.5zM312 104.5q27 28.5 27 78.5v210q0 50 -27 78.5t-72 28.5t-72 -28.5t-27 -78.5v-210q0 -50 26.5 -78.5t72.5 -28.5
q45 0 72 28.5zM111 646.5q-2 3.5 1 8.5l75 108q4 6 12 6h78q8 0 12 -6l76 -108q2 -2 2 -6q0 -2 -2 -4t-6 -2h-58q-7 0 -12 7l-47 72q-1 2 -3 2t-3 -2l-46 -72q-5 -7 -12 -7h-59q-6 0 -8 3.5z" />
    <glyph glyph-name="odieresis.sc" horiz-adv-x="480" 
d="M98 44.5q-53 52.5 -53 141.5v204q0 90 53 142t142 52q88 0 141.5 -52.5t53.5 -141.5v-204q0 -89 -53.5 -141.5t-141.5 -52.5q-89 0 -142 52.5zM312 104.5q27 28.5 27 78.5v210q0 50 -27 78.5t-72 28.5t-72 -28.5t-27 -78.5v-210q0 -50 26.5 -78.5t72.5 -28.5
q45 0 72 28.5zM121.5 675.5q-15.5 15.5 -15.5 39.5t15.5 39.5t39.5 15.5q23 0 38 -15.5t15 -39.5t-15 -39.5t-38 -15.5q-24 0 -39.5 15.5zM282 675.5q-15 15.5 -15 39.5t15 39.5t40 15.5q23 0 38 -15.5t15 -39.5t-15 -39.5t-38 -15.5q-25 0 -40 15.5z" />
    <glyph glyph-name="ograve.sc" horiz-adv-x="480" 
d="M98 44.5q-53 52.5 -53 141.5v204q0 90 53 142t142 52q88 0 141.5 -52.5t53.5 -141.5v-204q0 -89 -53.5 -141.5t-141.5 -52.5q-89 0 -142 52.5zM312 104.5q27 28.5 27 78.5v210q0 50 -27 78.5t-72 28.5t-72 -28.5t-27 -78.5v-210q0 -50 26.5 -78.5t72.5 -28.5
q45 0 72 28.5zM276 655q0 -6 -9 -6h-59q-7 0 -12 6l-72 109l-2 5q0 7 9 7h71q8 0 12 -7l60 -108q2 -4 2 -6z" />
    <glyph glyph-name="ohungarumlaut.sc" horiz-adv-x="480" 
d="M98 44.5q-53 52.5 -53 141.5v204q0 90 53 142t142 52q88 0 141.5 -52.5t53.5 -141.5v-204q0 -89 -53.5 -141.5t-141.5 -52.5q-89 0 -142 52.5zM312 104.5q27 28.5 27 78.5v210q0 50 -27 78.5t-72 28.5t-72 -28.5t-27 -78.5v-210q0 -50 26.5 -78.5t72.5 -28.5
q45 0 72 28.5zM128 650.5q-2 3.5 0 8.5l54 108q3 7 12 7h65q6 0 8.5 -3.5t-0.5 -8.5l-59 -108q-3 -7 -12 -7h-61q-5 0 -7 3.5zM280.5 650.5q-2.5 3.5 0.5 8.5l58 108q3 7 12 7h61q6 0 8 -3.5t-1 -8.5l-59 -108q-3 -7 -12 -7h-59q-6 0 -8.5 3.5z" />
    <glyph glyph-name="omacron.sc" horiz-adv-x="480" 
d="M98 44.5q-53 52.5 -53 141.5v204q0 90 53 142t142 52q88 0 141.5 -52.5t53.5 -141.5v-204q0 -89 -53.5 -141.5t-141.5 -52.5q-89 0 -142 52.5zM312 104.5q27 28.5 27 78.5v210q0 50 -27 78.5t-72 28.5t-72 -28.5t-27 -78.5v-210q0 -50 26.5 -78.5t72.5 -28.5
q45 0 72 28.5zM117 672v48q0 10 10 10h224q10 0 10 -10v-48q0 -10 -10 -10h-224q-10 0 -10 10z" />
    <glyph glyph-name="oslash.sc" horiz-adv-x="499" 
d="M489.5 688.5q2.5 -3.5 0.5 -8.5l-83 -176q-1 -2 1 -6q27 -43 27 -108v-204q0 -89 -53.5 -141.5t-141.5 -52.5q-31 0 -61 8q-5 2 -6 -2l-41 -90q-3 -7 -11 -7h-49q-5 0 -7.5 3.5t-0.5 8.5l52 112q1 4 -1 5q-33 25 -51.5 65t-18.5 91v204q0 90 53 142t142 52q67 0 115 -31
q5 -2 6 2l60 130q3 7 11 7h50q5 0 7.5 -3.5zM155 121q2 -2 3.5 -2t2.5 2l157 339q1 2 -1 6q-28 34 -77 34q-45 0 -72 -28.5t-27 -78.5v-210q0 -36 14 -62zM339 344q0 3 -1.5 3t-3.5 -2l-121 -262q-2 -3 2 -5q16 -2 25 -2q45 0 72 28.5t27 78.5v161z" />
    <glyph glyph-name="otilde.sc" horiz-adv-x="480" 
d="M98 44.5q-53 52.5 -53 141.5v204q0 90 53 142t142 52q88 0 141.5 -52.5t53.5 -141.5v-204q0 -89 -53.5 -141.5t-141.5 -52.5q-89 0 -142 52.5zM312 104.5q27 28.5 27 78.5v210q0 50 -27 78.5t-72 28.5t-72 -28.5t-27 -78.5v-210q0 -50 26.5 -78.5t72.5 -28.5
q45 0 72 28.5zM276.5 666q-12.5 6 -30.5 17q-4 2 -13 8t-16 8.5t-14 2.5q-14 0 -24.5 -5.5t-19.5 -20.5q-6 -9 -14 -3l-29 20q-7 6 -3 13q14 30 35.5 45t47.5 15q16 0 30 -6t31 -17t26 -15.5t20 -4.5q13 0 23.5 5.5t19.5 20.5q4 10 14 4l28 -19q4 -3 4 -9q0 -4 -3 -10
q-16 -28 -39 -41.5t-46 -13.5q-15 0 -27.5 6z" />
    <glyph glyph-name="oe.sc" horiz-adv-x="706" 
d="M661 493h-234q-4 0 -4 -4v-153q0 -4 4 -4h147q10 0 10 -10v-64q0 -10 -10 -10h-147q-4 0 -4 -4v-157q0 -4 4 -4h234q10 0 10 -10v-63q0 -10 -10 -10h-324q-10 0 -10 10v19q0 2 -1.5 3t-3.5 0q-45 -40 -112 -40q-46 0 -83.5 23t-59.5 64.5t-22 96.5v224q0 55 22 97
t59.5 64.5t83.5 22.5q69 0 112 -40q2 -1 3.5 0t1.5 3v20q0 10 10 10h324q10 0 10 -10v-64q0 -10 -10 -10zM301.5 102q25.5 26 25.5 71v230q0 45 -25.5 71t-68.5 26q-42 0 -67 -26t-25 -71v-230q0 -45 25 -71t67 -26q43 0 68.5 26z" />
    <glyph glyph-name="p.sc" horiz-adv-x="457" 
d="M385 530.5q47 -47.5 47 -124.5q0 -75 -47 -121t-123 -46h-109q-4 0 -4 -4v-225q0 -10 -10 -10h-76q-10 0 -10 10v558q0 10 10 10h199q76 0 123 -47.5zM312.5 340q23.5 24 23.5 64q0 42 -23.5 66.5t-61.5 24.5h-98q-4 0 -4 -4v-171q0 -4 4 -4h98q38 0 61.5 24z" />
    <glyph glyph-name="thorn.sc" horiz-adv-x="448" 
d="M376.5 410q46.5 -47 46.5 -123q0 -75 -46.5 -121t-122.5 -46h-101q-4 0 -4 -4v-106q0 -10 -10 -10h-76q-10 0 -10 10v557q0 10 10 10h76q10 0 10 -10v-106q0 -4 4 -4h101q76 0 122.5 -47zM304.5 221.5q22.5 23.5 22.5 63.5q0 41 -22.5 65t-59.5 24h-92q-4 0 -4 -4v-168
q0 -4 4 -4h92q37 0 59.5 23.5z" />
    <glyph glyph-name="q.sc" horiz-adv-x="456" 
d="M363 532q51 -52 51 -141v-208q0 -73 -36 -121.5t-98 -62.5q-4 -1 -4 -5v-69q0 -10 -10 -10h-76q-10 0 -10 10v69q0 4 -4 5q-62 14 -98 62.5t-36 121.5v208q0 89 51 141t135 52t135 -52zM318 398q0 48 -24.5 75t-65.5 27t-65.5 -27t-24.5 -75v-219q0 -48 24.5 -75.5
t65.5 -27.5t65.5 27.5t24.5 75.5v219z" />
    <glyph glyph-name="r.sc" horiz-adv-x="465" 
d="M337 8l-96 234q-1 3 -4 3h-79q-4 0 -4 -4v-231q0 -10 -10 -10h-76q-10 0 -10 10v558q0 10 10 10h197q75 0 121.5 -47t46.5 -122q0 -54 -26.5 -95t-72.5 -58q-3 -1 -2 -5l104 -239l1 -4q0 -8 -9 -8h-80q-8 0 -11 8zM154 491v-167q0 -4 4 -4h94q38 0 61.5 24t23.5 63
q0 40 -23.5 64t-61.5 24h-94q-4 0 -4 -4z" />
    <glyph glyph-name="racute.sc" horiz-adv-x="465" 
d="M337 8l-96 234q-1 3 -4 3h-79q-4 0 -4 -4v-231q0 -10 -10 -10h-76q-10 0 -10 10v558q0 10 10 10h197q75 0 121.5 -47t46.5 -122q0 -54 -26.5 -95t-72.5 -58q-3 -1 -2 -5l104 -239l1 -4q0 -8 -9 -8h-80q-8 0 -11 8zM154 491v-167q0 -4 4 -4h94q38 0 61.5 24t23.5 63
q0 40 -23.5 64t-61.5 24h-94q-4 0 -4 -4zM175 647.5q-2 3.5 1 8.5l60 108q3 7 12 7h71q6 0 8 -3.5t-1 -8.5l-72 -109q-4 -6 -12 -6h-59q-6 0 -8 3.5z" />
    <glyph glyph-name="rcaron.sc" horiz-adv-x="465" 
d="M337 8l-96 234q-1 3 -4 3h-79q-4 0 -4 -4v-231q0 -10 -10 -10h-76q-10 0 -10 10v558q0 10 10 10h197q75 0 121.5 -47t46.5 -122q0 -54 -26.5 -95t-72.5 -58q-3 -1 -2 -5l104 -239l1 -4q0 -8 -9 -8h-80q-8 0 -11 8zM154 491v-167q0 -4 4 -4h94q38 0 61.5 24t23.5 63
q0 40 -23.5 64t-61.5 24h-94q-4 0 -4 -4zM173 634l-72 107l-2 5q0 7 9 7h56q8 0 12 -6l48 -72q1 -1 3 -1t3 1l47 72q5 6 12 6h54q6 0 8 -3.5t-1 -8.5l-74 -107q-4 -6 -12 -6h-79q-8 0 -12 6z" />
    <glyph glyph-name="uni0157.sc" horiz-adv-x="465" 
d="M337 8l-96 234q-1 3 -4 3h-79q-4 0 -4 -4v-231q0 -10 -10 -10h-76q-10 0 -10 10v558q0 10 10 10h197q75 0 121.5 -47t46.5 -122q0 -54 -26.5 -95t-72.5 -58q-3 -1 -2 -5l104 -239l1 -4q0 -8 -9 -8h-80q-8 0 -11 8zM154 491v-167q0 -4 4 -4h94q38 0 61.5 24t23.5 63
q0 40 -23.5 64t-61.5 24h-94q-4 0 -4 -4zM163 -178.5q-2 3.5 1 8.5l60 108q3 7 12 7h71q6 0 8 -3.5t-1 -8.5l-72 -109q-4 -6 -12 -6h-59q-6 0 -8 3.5z" />
    <glyph glyph-name="s.sc" horiz-adv-x="451" 
d="M91 35.5q-51 42.5 -51 113.5v19q0 10 10 10h74q10 0 10 -10v-10q0 -37 25.5 -59.5t70.5 -22.5q42 0 66 20.5t24 53.5q0 31 -25 51.5t-89 52.5q-56 25 -88.5 44.5t-54.5 51t-22 78.5q0 73 49 114.5t133 41.5q87 0 137.5 -44t50.5 -119v-12q0 -10 -10 -10h-75q-10 0 -10 10
v9q0 37 -25 60t-70 23q-40 0 -62.5 -19t-22.5 -53q0 -21 11 -35.5t31 -26.5t64 -35q65 -32 98 -52t54.5 -50.5t21.5 -75.5q0 -74 -51 -117.5t-138 -43.5q-85 0 -136 42.5z" />
    <glyph glyph-name="sacute.sc" horiz-adv-x="451" 
d="M91 35.5q-51 42.5 -51 113.5v19q0 10 10 10h74q10 0 10 -10v-10q0 -37 25.5 -59.5t70.5 -22.5q42 0 66 20.5t24 53.5q0 31 -25 51.5t-89 52.5q-56 25 -88.5 44.5t-54.5 51t-22 78.5q0 73 49 114.5t133 41.5q87 0 137.5 -44t50.5 -119v-12q0 -10 -10 -10h-75q-10 0 -10 10
v9q0 37 -25 60t-70 23q-40 0 -62.5 -19t-22.5 -53q0 -21 11 -35.5t31 -26.5t64 -35q65 -32 98 -52t54.5 -50.5t21.5 -75.5q0 -74 -51 -117.5t-138 -43.5q-85 0 -136 42.5zM170 654.5q-2 3.5 1 8.5l60 108q3 7 12 7h71q6 0 8 -3.5t-1 -8.5l-72 -109q-4 -6 -12 -6h-59
q-6 0 -8 3.5z" />
    <glyph glyph-name="scaron.sc" horiz-adv-x="451" 
d="M91 35.5q-51 42.5 -51 113.5v19q0 10 10 10h74q10 0 10 -10v-10q0 -37 25.5 -59.5t70.5 -22.5q42 0 66 20.5t24 53.5q0 31 -25 51.5t-89 52.5q-56 25 -88.5 44.5t-54.5 51t-22 78.5q0 73 49 114.5t133 41.5q87 0 137.5 -44t50.5 -119v-12q0 -10 -10 -10h-75q-10 0 -10 10
v9q0 37 -25 60t-70 23q-40 0 -62.5 -19t-22.5 -53q0 -21 11 -35.5t31 -26.5t64 -35q65 -32 98 -52t54.5 -50.5t21.5 -75.5q0 -74 -51 -117.5t-138 -43.5q-85 0 -136 42.5zM168 641l-72 107l-2 5q0 7 9 7h56q8 0 12 -6l48 -72q1 -1 3 -1t3 1l47 72q5 6 12 6h54q6 0 8 -3.5
t-1 -8.5l-74 -107q-4 -6 -12 -6h-79q-8 0 -12 6z" />
    <glyph glyph-name="scedilla.sc" horiz-adv-x="451" 
d="M376 48q-40 -42 -110 -52q-6 -2 -1 -5q43 -43 43 -92q0 -16 -2 -23q-8 -33 -31 -47t-54 -14q-19 0 -43 6q-9 3 -8 12l5 32q1 4 4 6.5t8 1.5q10 -2 16 -2q32 0 39 31q1 3 1 9q0 21 -13 42.5t-35 39.5q-1 2 -5 2q-69 9 -109.5 50t-40.5 104v19q0 10 10 10h74q10 0 10 -10
v-10q0 -37 25.5 -59.5t70.5 -22.5q42 0 66 20.5t24 53.5q0 31 -25 51.5t-89 52.5q-56 25 -88.5 44.5t-54.5 51t-22 78.5q0 73 49 114.5t133 41.5q87 0 137.5 -44t50.5 -119v-12q0 -10 -10 -10h-75q-10 0 -10 10v9q0 37 -25 60t-70 23q-40 0 -62.5 -19t-22.5 -53
q0 -21 11 -35.5t31 -26.5t64 -35q65 -32 98 -52t54.5 -50.5t21.5 -75.5q0 -64 -40 -106z" />
    <glyph glyph-name="uni0219.sc" horiz-adv-x="451" 
d="M91 35.5q-51 42.5 -51 113.5v19q0 10 10 10h74q10 0 10 -10v-10q0 -37 25.5 -59.5t70.5 -22.5q42 0 66 20.5t24 53.5q0 31 -25 51.5t-89 52.5q-56 25 -88.5 44.5t-54.5 51t-22 78.5q0 73 49 114.5t133 41.5q87 0 137.5 -44t50.5 -119v-12q0 -10 -10 -10h-75q-10 0 -10 10
v9q0 37 -25 60t-70 23q-40 0 -62.5 -19t-22.5 -53q0 -21 11 -35.5t31 -26.5t64 -35q65 -32 98 -52t54.5 -50.5t21.5 -75.5q0 -74 -51 -117.5t-138 -43.5q-85 0 -136 42.5zM152 -185.5q-2 3.5 1 8.5l60 108q3 7 12 7h71q6 0 8 -3.5t-1 -8.5l-72 -109q-4 -6 -12 -6h-59
q-6 0 -8 3.5z" />
    <glyph glyph-name="t.sc" horiz-adv-x="446" 
d="M422 567v-64q0 -10 -10 -10h-140q-4 0 -4 -4v-479q0 -10 -10 -10h-76q-10 0 -10 10v479q0 4 -4 4h-134q-10 0 -10 10v64q0 10 10 10h378q10 0 10 -10z" />
    <glyph glyph-name="tbar.sc" horiz-adv-x="446" 
d="M412 493h-140q-4 0 -4 -4v-123q0 -4 4 -4h94q10 0 10 -10v-41q0 -10 -10 -10h-94q-4 0 -4 -4v-287q0 -10 -10 -10h-76q-10 0 -10 10v287q0 4 -4 4h-88q-10 0 -10 10v41q0 10 10 10h88q4 0 4 4v123q0 4 -4 4h-134q-10 0 -10 10v64q0 10 10 10h378q10 0 10 -10v-64
q0 -10 -10 -10z" />
    <glyph glyph-name="tcaron.sc" horiz-adv-x="446" 
d="M422 567v-64q0 -10 -10 -10h-140q-4 0 -4 -4v-479q0 -10 -10 -10h-76q-10 0 -10 10v479q0 4 -4 4h-134q-10 0 -10 10v64q0 10 10 10h378q10 0 10 -10zM168 634l-72 107l-2 5q0 7 9 7h56q8 0 12 -6l48 -72q1 -1 3 -1t3 1l47 72q5 6 12 6h54q6 0 8 -3.5t-1 -8.5l-74 -107
q-4 -6 -12 -6h-79q-8 0 -12 6z" />
    <glyph glyph-name="uni0163.sc" horiz-adv-x="446" 
d="M268 489v-479q0 -10 -6 -10q-5 0 -2 -5q43 -43 43 -91q0 -15 -2 -22q-8 -33 -31 -47t-54 -14q-19 0 -43 6q-9 3 -8 12l5 32q1 4 4 6.5t8 1.5q10 -2 16 -2q32 0 39 31q1 3 1 10q0 20 -12.5 41t-34.5 39q-1 2 -5 2h-4q-10 0 -10 10v479q0 4 -4 4h-134q-10 0 -10 10v64
q0 10 10 10h378q10 0 10 -10v-64q0 -10 -10 -10h-140q-4 0 -4 -4z" />
    <glyph glyph-name="uni021B.sc" horiz-adv-x="446" 
d="M422 567v-64q0 -10 -10 -10h-140q-4 0 -4 -4v-479q0 -10 -10 -10h-76q-10 0 -10 10v479q0 4 -4 4h-134q-10 0 -10 10v64q0 10 10 10h378q10 0 10 -10zM143 -179.5q-2 3.5 1 8.5l60 108q3 7 12 7h71q6 0 8 -3.5t-1 -8.5l-72 -109q-4 -6 -12 -6h-59q-6 0 -8 3.5z" />
    <glyph glyph-name="u.sc" horiz-adv-x="486" 
d="M105 45q-52 52 -52 140v381q0 10 10 10h76q10 0 10 -10v-385q0 -49 25.5 -77t69.5 -28q42 0 67.5 28.5t25.5 76.5v385q0 10 10 10h76q10 0 10 -10v-381q0 -88 -51.5 -140t-137.5 -52q-87 0 -139 52z" />
    <glyph glyph-name="uacute.sc" horiz-adv-x="486" 
d="M105 45q-52 52 -52 140v381q0 10 10 10h76q10 0 10 -10v-385q0 -49 25.5 -77t69.5 -28q42 0 67.5 28.5t25.5 76.5v385q0 10 10 10h76q10 0 10 -10v-381q0 -88 -51.5 -140t-137.5 -52q-87 0 -139 52zM192 657.5q-2 3.5 1 8.5l60 108q3 7 12 7h71q6 0 8 -3.5t-1 -8.5
l-72 -109q-4 -6 -12 -6h-59q-6 0 -8 3.5z" />
    <glyph glyph-name="ucircumflex.sc" horiz-adv-x="486" 
d="M105 45q-52 52 -52 140v381q0 10 10 10h76q10 0 10 -10v-385q0 -49 25.5 -77t69.5 -28q42 0 67.5 28.5t25.5 76.5v385q0 10 10 10h76q10 0 10 -10v-381q0 -88 -51.5 -140t-137.5 -52q-87 0 -139 52zM115 651.5q-2 3.5 1 8.5l75 108q4 6 12 6h78q8 0 12 -6l76 -108
q2 -2 2 -6q0 -2 -2 -4t-6 -2h-58q-7 0 -12 7l-47 72q-1 2 -3 2t-3 -2l-46 -72q-5 -7 -12 -7h-59q-6 0 -8 3.5z" />
    <glyph glyph-name="udieresis.sc" horiz-adv-x="486" 
d="M105 45q-52 52 -52 140v381q0 10 10 10h76q10 0 10 -10v-385q0 -49 25.5 -77t69.5 -28q42 0 67.5 28.5t25.5 76.5v385q0 10 10 10h76q10 0 10 -10v-381q0 -88 -51.5 -140t-137.5 -52q-87 0 -139 52zM125.5 680.5q-15.5 15.5 -15.5 39.5t15.5 39.5t39.5 15.5
q23 0 38 -15.5t15 -39.5t-15 -39.5t-38 -15.5q-24 0 -39.5 15.5zM286 680.5q-15 15.5 -15 39.5t15 39.5t40 15.5q23 0 38 -15.5t15 -39.5t-15 -39.5t-38 -15.5q-25 0 -40 15.5z" />
    <glyph glyph-name="ugrave.sc" horiz-adv-x="486" 
d="M105 45q-52 52 -52 140v381q0 10 10 10h76q10 0 10 -10v-385q0 -49 25.5 -77t69.5 -28q42 0 67.5 28.5t25.5 76.5v385q0 10 10 10h76q10 0 10 -10v-381q0 -88 -51.5 -140t-137.5 -52q-87 0 -139 52zM280 660q0 -6 -9 -6h-59q-7 0 -12 6l-72 109l-2 5q0 7 9 7h71
q8 0 12 -7l60 -108q2 -4 2 -6z" />
    <glyph glyph-name="uhungarumlaut.sc" horiz-adv-x="486" 
d="M105 45q-52 52 -52 140v381q0 10 10 10h76q10 0 10 -10v-385q0 -49 25.5 -77t69.5 -28q42 0 67.5 28.5t25.5 76.5v385q0 10 10 10h76q10 0 10 -10v-381q0 -88 -51.5 -140t-137.5 -52q-87 0 -139 52zM132 655.5q-2 3.5 0 8.5l54 108q3 7 12 7h65q6 0 8.5 -3.5t-0.5 -8.5
l-59 -108q-3 -7 -12 -7h-61q-5 0 -7 3.5zM284.5 655.5q-2.5 3.5 0.5 8.5l58 108q3 7 12 7h61q6 0 8 -3.5t-1 -8.5l-59 -108q-3 -7 -12 -7h-59q-6 0 -8.5 3.5z" />
    </font>
</defs>
</svg>
