<?xml version="1.0" standalone="no"?>
<!DOCTYPE svg PUBLIC "-//W3C//DTD SVG 1.1//EN" "http://www.w3.org/Graphics/SVG/1.1/DTD/svg11.dtd" >
<svg xmlns="http://www.w3.org/2000/svg" xmlns:xlink="http://www.w3.org/1999/xlink" version="1.1">
<metadata>
Created by FontForge 20170731 at Thu Oct 26 18:32:19 2017
 By Aleksey,,,
Copyright 2017 The Barlow Project Authors (https://github.com/jpt/barlow)
</metadata>
<defs>
<font id="Barlow-Regular" horiz-adv-x="0" >
  <font-face 
    font-family="Barlow"
    font-weight="400"
    font-stretch="normal"
    units-per-em="1000"
    panose-1="0 0 5 0 0 0 0 0 0 0"
    ascent="800"
    descent="-200"
    x-height="506"
    cap-height="700"
    bbox="-591 -209 1114 980"
    underline-thickness="50"
    underline-position="-150"
    unicode-range="U+000D-25CA"
  />
<missing-glyph horiz-adv-x="419" 
d="M5 0h409q5 0 5 5v690q0 5 -5 5h-409q-5 0 -5 -5v-690q0 -5 5 -5zM176 245v36q0 31 15.5 50.5t45.5 43.5q31 25 46 44.5t15 50.5q0 36 -23 57.5t-61 21.5t-61.5 -22t-23.5 -58v-16q0 -12 -13 -12l-24 1q-13 0 -13 13v14q0 57 37.5 91.5t99.5 34.5q60 0 96.5 -34t36.5 -91
q0 -45 -19 -71t-54 -53q-25 -19 -37 -33.5t-12 -34.5v-33q0 -13 -13 -13h-25q-13 0 -13 13zM174.5 102q-12.5 12 -12.5 29t12.5 29t29.5 12t30 -12.5t13 -28.5q0 -17 -13 -29t-30 -12t-29.5 12z" />
    <glyph glyph-name="I_J.liga" unicode="IJ" horiz-adv-x="839" 
d="M94 13v674q0 13 13 13h45q13 0 13 -13v-674q0 -13 -13 -13h-45q-13 0 -13 13zM396.5 18q-51.5 26 -80 73.5t-28.5 109.5v46q0 13 13 13h45q13 0 13 -13v-46q0 -66 43.5 -106.5t113.5 -40.5q71 0 114.5 40.5t43.5 106.5v486q0 13 13 13h45q13 0 13 -13v-486
q0 -62 -28.5 -109.5t-80.5 -73.5t-120 -26t-119.5 26z" />
    <glyph glyph-name="f_f_i.liga" unicode="ffi" horiz-adv-x="934" 
d="M181 511q0 -5 5 -5h121q13 0 13 -13v-33q0 -13 -13 -13h-121q-5 0 -5 -5v-429q0 -13 -13 -13h-44q-13 0 -13 13v429q0 5 -5 5h-59q-13 0 -13 13v33q0 13 13 13h59q5 0 5 5v34q0 81 35.5 118.5t125.5 36.5h26q13 0 13 -13v-26q0 -13 -13 -13h-26q-53 -1 -72 -27t-19 -81
v-29zM482 663.5q36 37.5 126 36.5h26q13 0 13 -13v-26q0 -13 -13 -13h-26q-53 -1 -72 -27t-19 -81v-29q0 -5 5 -5h112q13 0 13 -13v-33q0 -13 -13 -13h-112q-5 0 -5 -5v-429q0 -13 -13 -13h-45q-13 0 -13 13v429q0 5 -5 5h-88q-13 0 -13 13v33q0 13 13 13h88q5 0 5 5v34
q0 81 36 118.5zM850 684.5q15 -14.5 15 -37.5t-15 -37.5t-39 -14.5q-23 0 -38.5 15t-15.5 37t15.5 37t38.5 15q24 0 39 -14.5zM776 13v480q0 13 13 13h45q13 0 13 -13v-480q0 -13 -13 -13h-45q-13 0 -13 13z" />
    <glyph glyph-name="f_f_l.liga" unicode="ffl" horiz-adv-x="920" 
d="M482 663.5q36 37.5 126 36.5h26q13 0 13 -13v-26q0 -13 -13 -13h-26q-53 -1 -72 -27t-19 -81v-29q0 -5 5 -5h112q13 0 13 -13v-33q0 -13 -13 -13h-112q-5 0 -5 -5v-429q0 -13 -13 -13h-45q-13 0 -13 13v429q0 5 -5 5h-255q-5 0 -5 -5v-429q0 -13 -13 -13h-44
q-13 0 -13 13v429q0 5 -5 5h-59q-13 0 -13 13v33q0 13 13 13h59q5 0 5 5v34q0 81 35.5 118.5t125.5 36.5h26q13 0 13 -13v-26q0 -13 -13 -13h-26q-53 -1 -72 -27t-19 -81v-29q0 -5 5 -5h255q5 0 5 5v34q0 81 36 118.5zM781 700h45q13 0 13 -13v-674q0 -13 -13 -13h-45
q-13 0 -13 13v674q0 13 13 13z" />
    <glyph glyph-name="f_i.liga" unicode="fi" horiz-adv-x="601" 
d="M205 613.5q-20 -24.5 -20 -83.5v-19q0 -5 5 -5h108q13 0 13 -13v-39q0 -13 -13 -13h-108q-5 0 -5 -5v-423q0 -13 -13 -13h-44q-13 0 -13 13v423q0 5 -5 5h-63q-13 0 -13 13v39q0 13 13 13h63q5 0 5 5v23q0 62 14 97.5t48.5 52t96.5 16.5h26q13 0 13 -13v-36
q0 -13 -13 -13h-20q-55 0 -75 -24.5zM440 611.5q-15 14.5 -15 37.5t15 37t39 14t39 -14t15 -37t-15 -37.5t-39 -14.5t-39 14.5zM444 13v480q0 13 13 13h45q13 0 13 -13v-480q0 -13 -13 -13h-45q-13 0 -13 13z" />
    <glyph glyph-name="f_l.liga" unicode="fl" horiz-adv-x="588" 
d="M205 613.5q-20 -24.5 -20 -83.5v-19q0 -5 5 -5h108q13 0 13 -13v-39q0 -13 -13 -13h-108q-5 0 -5 -5v-423q0 -13 -13 -13h-44q-13 0 -13 13v423q0 5 -5 5h-63q-13 0 -13 13v39q0 13 13 13h63q5 0 5 5v23q0 62 14 97.5t48.5 52t96.5 16.5h26q13 0 13 -13v-36
q0 -13 -13 -13h-20q-55 0 -75 -24.5zM436 13v674q0 13 13 13h45q13 0 13 -13v-674q0 -13 -13 -13h-45q-13 0 -13 13z" />
    <glyph glyph-name="g_j.liga" unicode="gj" horiz-adv-x="768" 
d="M692.5 684q15.5 -14 15.5 -37t-15 -37t-40 -14q-24 0 -39 14t-15 37t16 37t38 14q24 0 39.5 -14zM390 455q2 1 2 4v34q0 13 13 13h45q13 0 13 -13v-476q0 -112 -65 -164t-177 -52q-21 0 -32 1q-13 1 -13 14l2 40q0 14 13 12q106 -5 153.5 31t47.5 120v35q0 3 -2 4t-4 -2
q-46 -59 -130 -59q-65 0 -115.5 35t-67.5 99q-12 41 -12 122q0 44 2.5 74t10.5 54q18 60 65 96.5t113 36.5q87 0 134 -57q2 -3 4 -2zM617 493q0 13 13 13h45q13 0 13 -13v-537q0 -83 -43.5 -122.5t-130.5 -41.5q-13 0 -13 13v35q0 13 13 13q48 2 75.5 28.5t27.5 74.5v537z
M391 190q1 22 1 64q0 51 -1 68.5t-5 32.5q-8 42 -39.5 69.5t-79.5 27.5q-47 0 -79.5 -27t-45.5 -70q-10 -32 -10 -100q0 -73 10 -101q10 -42 43.5 -69.5t81.5 -27.5q49 0 80.5 27t39.5 69q3 15 4 37z" />
    <glyph glyph-name="i_j.liga" unicode="ij" horiz-adv-x="472" 
d="M84 611.5q-15 14.5 -15 37.5t15 37t39 14t39 -14t15 -37t-15 -37.5t-39 -14.5t-39 14.5zM88 13v480q0 13 13 13h45q13 0 13 -13v-480q0 -13 -13 -13h-45q-13 0 -13 13zM318 609.5q-15 14.5 -15 37.5t16 37.5t38 14.5q24 0 39.5 -14.5t15.5 -37.5t-15 -37.5t-40 -14.5
q-24 0 -39 14.5zM204 -195v35q0 13 13 13q104 3 104 103v537q0 13 13 13h45q13 0 13 -13v-537q0 -85 -41.5 -124t-133.5 -40q-13 0 -13 13z" />
    <glyph glyph-name="hyphen_hyphen.liga" unicode="&#x2d;&#x2d;" horiz-adv-x="685" 
d="M39 286v36q0 13 13 13h581q13 0 13 -13v-36q0 -13 -13 -13h-581q-13 0 -13 13z" />
    <glyph glyph-name=".notdef" horiz-adv-x="419" 
d="M5 0h409q5 0 5 5v690q0 5 -5 5h-409q-5 0 -5 -5v-690q0 -5 5 -5zM176 245v36q0 31 15.5 50.5t45.5 43.5q31 25 46 44.5t15 50.5q0 36 -23 57.5t-61 21.5t-61.5 -22t-23.5 -58v-16q0 -12 -13 -12l-24 1q-13 0 -13 13v14q0 57 37.5 91.5t99.5 34.5q60 0 96.5 -34t36.5 -91
q0 -45 -19 -71t-54 -53q-25 -19 -37 -33.5t-12 -34.5v-33q0 -13 -13 -13h-25q-13 0 -13 13zM174.5 102q-12.5 12 -12.5 29t12.5 29t29.5 12t30 -12.5t13 -28.5q0 -17 -13 -29t-30 -12t-29.5 12z" />
    <glyph glyph-name=".null" 
 />
    <glyph glyph-name="nonmarkingreturn" unicode="&#xd;" horiz-adv-x="200" 
 />
    <glyph glyph-name="space" unicode=" " horiz-adv-x="200" 
 />
    <glyph glyph-name="exclam" unicode="!" horiz-adv-x="323" 
d="M131 241l-5 446q0 13 13 13h45q13 0 13 -13l-6 -446q0 -13 -13 -13h-34q-13 0 -13 13zM114.5 21q-17.5 17 -17.5 42q0 24 19 41.5t43 17.5t43 -17.5t19 -41.5q0 -25 -18 -42t-44 -17q-27 0 -44.5 17z" />
    <glyph glyph-name="quotedbl" unicode="&#x22;" horiz-adv-x="263" 
d="M37 501l-7 180q0 13 12 13h46q12 0 12 -13l-7 -180q0 -13 -13 -13h-30q-13 0 -13 13zM172 501l-7 180q0 13 12 13h45q12 0 12 -13l-7 -180q0 -13 -13 -13h-29q-13 0 -13 13z" />
    <glyph glyph-name="numbersign" unicode="#" horiz-adv-x="659" 
d="M573 429h-72q-6 0 -6 -5l-24 -157q0 -5 4 -5h63q13 0 13 -13l-1 -36q0 -13 -13 -13h-71q-6 0 -6 -5l-26 -167q-1 -12 -14 -12l-45 2q-6 0 -9.5 4t-2.5 10l25 163q0 5 -4 5h-157q-6 0 -6 -5l-26 -167q-1 -12 -14 -12l-45 2q-6 0 -9.5 4t-2.5 10l25 163q0 5 -4 5h-60
q-13 0 -13 13l1 36q0 13 13 13h69q6 0 6 5l24 157q0 5 -4 5h-59q-13 0 -13 13v37q0 13 13 13h69q6 0 6 5l26 167q2 12 14 12l45 -2q6 0 9.5 -4t2.5 -10l-25 -163q0 -5 4 -5h156q6 0 6 5l26 167q2 12 14 12l45 -2q6 0 9.5 -4t2.5 -10l-25 -163q0 -5 4 -5h63q13 0 13 -13
l-1 -37q0 -13 -13 -13zM400 267l24 157q0 5 -4 5h-157q-6 0 -6 -5l-24 -157q0 -5 4 -5h157q6 0 6 5z" />
    <glyph glyph-name="dollar" unicode="$" horiz-adv-x="545" 
d="M441 48.5q-50 -49.5 -143 -56.5q-5 0 -5 -5l1 -56q0 -13 -13 -13h-25q-13 0 -13 13l1 57q0 5 -5 5q-84 9 -132 56t-48 120v38q0 13 13 13h42q13 0 13 -13v-24q0 -58 40.5 -93.5t112.5 -35.5q68 0 104 32.5t36 87.5q0 32 -18.5 55.5t-48.5 42.5t-89 50l-50 26
q-54 28 -84.5 51t-47.5 54t-17 77q0 77 43.5 122.5t126.5 54.5q5 0 5 5l-1 63q0 13 13 13h24q13 0 13 -13l-1 -62q0 -5 5 -5q92 -6 142.5 -54.5t50.5 -126.5v-28q0 -13 -13 -13h-44q-13 0 -13 13v15q0 59 -38.5 95.5t-110.5 36.5q-63 0 -97 -29t-34 -83q0 -34 16.5 -56
t43.5 -37.5t81 -39.5q11 -5 20.5 -9t17.5 -8q92 -43 134 -90t42 -116q0 -80 -50 -129.5z" />
    <glyph glyph-name="percent" unicode="%" horiz-adv-x="848" 
d="M166 444q-33 19 -52.5 51.5t-19.5 71.5t19.5 71.5t52.5 51.5t72 19t72 -19t52 -51.5t19 -71.5t-19 -71.5t-52 -51.5t-72 -19t-72 19zM208.5 4.5q-2.5 4.5 1.5 11.5l376 675q5 9 15 9h26q8 0 10.5 -4.5t-1.5 -11.5l-375 -675q-4 -9 -15 -9h-27q-8 0 -10.5 4.5zM308 496.5
q29 29.5 29 70.5q0 42 -29 71t-70 29q-42 0 -71 -29t-29 -71t29 -71t71 -29q41 0 70 29.5zM542 10q-33 19 -52.5 52t-19.5 72q0 38 19.5 70.5t52.5 51.5t72 19q38 0 71 -19t52 -51.5t19 -70.5q0 -39 -19 -72t-51.5 -52t-71.5 -19t-72 19zM684 62.5q29 29.5 29 71.5
q0 41 -29 70t-70 29q-42 0 -71.5 -29t-29.5 -70q0 -43 29.5 -72t71.5 -29q41 0 70 29.5z" />
    <glyph glyph-name="ampersand" unicode="&#x26;" horiz-adv-x="662" 
d="M597 8q0 -8 -11 -8h-50q-10 0 -16 7l-57 66q-3 4 -7 1q-47 -43 -96 -62.5t-107 -19.5q-88 0 -142 41.5t-54 120.5q0 69 39 118.5t109 95.5q4 4 1 7q-58 71 -77 106t-19 70q0 71 46 114t122 43q77 0 125.5 -42t48.5 -111q0 -61 -37.5 -105t-105.5 -89q-3 -3 -1 -7
l117 -137l33 -40q4 -4 7 0q32 38 64 83q7 10 18 4l32 -19q7 -4 7 -10q0 -3 -3 -8q-51 -72 -77 -102l-1 -2q0 -4 6 -10l43 -51l40 -46q3 -4 3 -8zM208 617.5q-27 -24.5 -27 -66.5q0 -24 15 -51t65 -88q3 -4 7 -1q55 38 84 70.5t29 73.5q0 39 -28 63t-73 24t-72 -24.5zM337 70
q38 17 77 53q4 3 1 7l-44 51q-20 24 -33 38q-65 75 -85 99q-3 4 -7 1q-57 -41 -87.5 -78.5t-30.5 -85.5t34.5 -75t92.5 -27q44 0 82 17z" />
    <glyph glyph-name="quotesingle" unicode="'" horiz-adv-x="132" 
d="M37 506l-7 179q0 13 12 13h48q12 0 12 -13l-7 -179q0 -13 -13 -13h-32q-13 0 -13 13z" />
    <glyph glyph-name="parenleft" unicode="(" horiz-adv-x="261" 
d="M102 -96q-48 75 -77.5 186t-29.5 235q0 126 30 240t80 190q4 8 15 8h42q8 0 10.5 -4t-1.5 -11q-42 -78 -68.5 -189.5t-26.5 -232.5q0 -119 26.5 -228.5t68.5 -186.5q2 -6 2 -7q0 -8 -11 -8h-44q-11 0 -16 8z" />
    <glyph glyph-name="parenright" unicode=")" horiz-adv-x="261" 
d="M143 -104h-44q-8 0 -10.5 4t1.5 11q42 77 68.5 186.5t26.5 228.5q0 121 -26.5 232.5t-68.5 189.5q-2 6 -2 7q0 8 11 8h42q11 0 15 -8q50 -76 80 -190t30 -240q0 -124 -29.5 -235t-77.5 -186q-5 -8 -16 -8z" />
    <glyph glyph-name="asterisk" unicode="*" horiz-adv-x="397" 
d="M175 406l1 118q0 3 -2 4.5t-4 -0.5l-107 -62q-4 -2 -7 -2q-7 0 -11 7l-10 19q-2 6 -2 7q0 6 7 10l107 60q5 3 0 6l-107 60q-10 6 -5 17l10 19q3 5 8 6.5t10 -1.5l107 -62q2 -1 4 0t2 4l-1 118q0 13 13 13h21q13 0 13 -13l-1 -118q0 -3 2 -4t4 0l107 62q4 2 7 2q7 0 11 -7
l10 -19q2 -6 2 -7q0 -6 -7 -10l-108 -60q-4 -3 0 -6l108 -60q11 -6 5 -17l-10 -19q-3 -5 -8 -6.5t-10 1.5l-107 62q-2 2 -4 0.5t-2 -4.5l1 -118q0 -13 -13 -13h-21q-13 0 -13 13z" />
    <glyph glyph-name="plus" unicode="+" horiz-adv-x="500" 
d="M461 331v-36q0 -13 -13 -13h-162q-5 0 -5 -5v-158q0 -13 -13 -13h-36q-13 0 -13 13v158q0 5 -5 5h-162q-13 0 -13 13v36q0 13 13 13h162q5 0 5 5v166q0 13 13 13h36q13 0 13 -13v-166q0 -5 5 -5h162q13 0 13 -13z" />
    <glyph glyph-name="comma" unicode="," horiz-adv-x="264" 
d="M70 -75.5q-3 3.5 -2 10.5l43 208q3 12 14 12h38q14 0 11 -14l-54 -209q-3 -11 -15 -11h-25q-7 0 -10 3.5z" />
    <glyph glyph-name="hyphen" unicode="-" horiz-adv-x="394" 
d="M39 293v36q0 13 13 13h290q13 0 13 -13v-36q0 -13 -13 -13h-290q-13 0 -13 13z" />
    <glyph glyph-name="period" unicode="." horiz-adv-x="274" 
d="M90.5 20q-17.5 17 -17.5 42q0 24 18.5 41.5t43.5 17.5q24 0 43 -17.5t19 -41.5q0 -25 -18 -42t-44 -17q-27 0 -44.5 17z" />
    <glyph glyph-name="slash" unicode="/" horiz-adv-x="357" 
d="M35 4q-3 4 -1 11l220 674q3 11 14 11h44q7 0 10 -4t1 -11l-220 -674q-3 -11 -14 -11h-44q-7 0 -10 4z" />
    <glyph glyph-name="zero" unicode="0" horiz-adv-x="565" 
d="M128 45q-57 55 -57 147v316q0 92 57 146.5t153 54.5q97 0 155 -55t58 -146v-316q0 -92 -58 -147t-155 -55q-96 0 -153 55zM384 89q39 37 39 99v323q0 61 -38.5 98t-103.5 37q-63 0 -101 -37t-38 -98v-323q0 -62 38 -99t101 -37q64 0 103 37z" />
    <glyph glyph-name="one" unicode="1" horiz-adv-x="344" 
d="M189 700h49q13 0 13 -13v-674q0 -13 -13 -13h-45q-13 0 -13 13v609q0 3 -1.5 4t-4.5 0l-105 -44q-2 -1 -6 -1q-9 0 -9 11v31q0 10 9 15l109 58q7 4 17 4z" />
    <glyph glyph-name="two" unicode="2" horiz-adv-x="536" 
d="M59 13v37q0 9 6 16q75 89 226 278q94 119 94 185q0 53 -36 85t-94 32q-57 0 -92 -32.5t-34 -85.5v-28q0 -13 -13 -13h-46q-13 0 -13 13v37q2 77 57.5 124t140.5 47q60 0 106 -23t71 -63.5t25 -91.5q0 -85 -94 -205q-45 -59 -166 -207l-41 -50q-2 -2 -1 -4t4 -2h306
q13 0 13 -13v-36q0 -13 -13 -13h-393q-13 0 -13 13z" />
    <glyph glyph-name="three" unicode="3" horiz-adv-x="516" 
d="M450 214q0 -51 -15 -96q-20 -61 -67.5 -93.5t-117.5 -32.5q-71 0 -121 37t-68 98q-9 31 -11 73q0 13 13 13h46q13 0 13 -13q2 -34 6 -51q11 -43 43 -69t79 -26q43 0 72.5 20.5t42.5 58.5q14 37 14 83q0 59 -18 98q-28 72 -112 72q-16 0 -32 -6q-6 -2 -7 -2q-6 0 -10 6
l-22 26q-4 6 -4 9t4 9l174 204q5 6 -3 6h-280q-13 0 -13 13v36q0 13 13 13h364q13 0 13 -13v-40q0 -8 -6 -16l-161 -193q-2 -2 -1 -4t5 -2q109 -7 147 -101q20 -49 20 -117z" />
    <glyph glyph-name="four" unicode="4" horiz-adv-x="551" 
d="M491 244v-38q0 -13 -13 -13h-39q-5 0 -5 -5v-175q0 -13 -13 -13h-45q-13 0 -13 13v175q0 5 -5 5h-296q-13 0 -13 13v32q0 6 4 16l202 436q5 10 16 10h46q8 0 10.5 -4t-0.5 -11l-196 -422q-1 -2 0 -4t3 -2h224q5 0 5 5v157q0 13 13 13h45q13 0 13 -13v-157q0 -5 5 -5h39
q13 0 13 -13z" />
    <glyph glyph-name="five" unicode="5" horiz-adv-x="514" 
d="M464 216q0 -49 -9 -84q-17 -64 -68 -101.5t-123 -37.5q-71 0 -121 36t-68 96q-6 20 -9 40v2q0 6 3.5 9t9.5 3h46q13 0 14 -13q0 -5 4 -17q10 -43 42 -68.5t79 -25.5q48 0 80 27t42 74q6 23 6 59q0 34 -5 66q-7 46 -40 70t-83 24q-43 0 -76 -18t-45 -50q-4 -11 -15 -11
h-49q-13 0 -13 13v378q0 13 13 13h344q13 0 13 -13v-36q0 -13 -13 -13h-281q-5 0 -5 -5l-1 -239q0 -4 2 -4.5t4 1.5q25 23 59 35t71 12q71 0 120 -34.5t63 -97.5q9 -44 9 -90z" />
    <glyph glyph-name="six" unicode="6" horiz-adv-x="515" 
d="M465 215q0 -62 -16 -100q-21 -58 -67 -90t-115 -32q-72 0 -121 34t-69 96q-12 40 -12 94v312q0 82 54 130.5t141 48.5q85 0 137 -47t52 -124v-11q0 -13 -13 -13h-45q-6 0 -9.5 2.5t-3.5 6.5v9q0 51 -33 83t-85 32q-54 0 -89 -33.5t-35 -88.5v-145q0 -3 2 -3.5t4 2.5
q44 58 132 58q63 0 105.5 -28t64.5 -79q21 -45 21 -114zM394 215q0 52 -14 80q-12 37 -42 58t-74 21t-74 -21.5t-42 -59.5q-12 -31 -12 -81q0 -44 10 -73q12 -38 42.5 -61t76.5 -23q43 0 74 21.5t43 62.5q12 31 12 76z" />
    <glyph glyph-name="seven" unicode="7" horiz-adv-x="473" 
d="M145.5 4q-2.5 4 -0.5 11l229 617q2 6 -4 6h-268q-5 0 -5 -5v-42q0 -13 -13 -13h-35q-13 0 -13 13l1 96q0 13 13 13h388q13 0 13 -13v-41q0 -8 -3 -16l-228 -620q-3 -10 -15 -10h-50q-7 0 -9.5 4z" />
    <glyph glyph-name="eight" unicode="8" horiz-adv-x="519" 
d="M458 196q0 -68 -28 -117q-24 -41 -68.5 -64t-103.5 -23t-104 24t-69 68q-27 48 -27 113q0 55 20 100q24 50 67 75q5 3 0 6q-35 22 -56 52q-30 43 -30 98q0 56 28 98q25 40 69.5 62t101.5 22q63 0 108 -23.5t69 -69.5q22 -39 22 -89q0 -55 -29 -95q-23 -34 -57 -55
q-6 -4 0 -7q46 -26 68 -77q19 -39 19 -98zM151 449q16 -24 42 -37.5t60 -14.5h6q36 0 63.5 15t45.5 41q19 29 19 70q0 37 -15 64q-16 29 -45.5 45.5t-69.5 16.5q-38 0 -67 -16.5t-45 -45.5q-16 -30 -16 -65q0 -42 22 -73zM387 202q0 35 -12 69q-14 36 -44 55.5t-73 19.5
q-83 0 -114 -72q-14 -29 -14 -74q0 -53 21 -92q34 -55 107 -55q71 0 105 51q24 40 24 98z" />
    <glyph glyph-name="nine" unicode="9" horiz-adv-x="521" 
d="M456 483v-312q0 -82 -54 -130.5t-141 -48.5q-85 0 -137 47t-52 124v11q0 13 13 13h45q6 0 9.5 -2.5t3.5 -6.5v-9q0 -51 33 -83t85 -32q54 0 89 33.5t35 88.5v145q0 3 -2 3.5t-4 -2.5q-43 -58 -132 -58q-63 0 -105.5 28t-64.5 79q-21 45 -21 114q0 62 16 100q21 58 67 90
t115 32q72 0 121 -34t69 -96q12 -40 12 -94zM331 347.5q30 21.5 42 59.5q12 32 12 81q0 44 -10 73q-12 38 -42.5 61t-76.5 23q-43 0 -74 -21.5t-43 -62.5q-12 -31 -12 -76q0 -52 14 -80q12 -37 42 -58t74 -21t74 21.5z" />
    <glyph glyph-name="colon" unicode=":" horiz-adv-x="339" 
d="M125.5 368q-17.5 17 -17.5 42q0 24 18.5 41.5t42.5 17.5q25 0 44 -17.5t19 -41.5q0 -25 -18.5 -42t-44.5 -17t-43.5 17zM125.5 31.5q-17.5 17.5 -17.5 42.5q0 24 18.5 41.5t42.5 17.5q25 0 44 -17.5t19 -41.5q0 -25 -18.5 -42.5t-44.5 -17.5t-43.5 17.5z" />
    <glyph glyph-name="semicolon" unicode=";" horiz-adv-x="311" 
d="M113.5 364q-17.5 17 -17.5 43q0 24 19 41t43 17t43.5 -17t19.5 -41q0 -25 -18.5 -42.5t-44.5 -17.5q-27 0 -44.5 17zM103.5 -71q-3.5 4 -2.5 10l26 200q2 12 14 12h40q14 0 11 -14l-40 -200q-2 -12 -14 -12h-25q-6 0 -9.5 4z" />
    <glyph glyph-name="less" unicode="&#x3c;" horiz-adv-x="500" 
d="M457 49q-4 -3 -11 0l-397 184q-10 5 -10 16v42q0 11 10 16l397 184q4 2 6 2q9 0 9 -12v-42q0 -10 -10 -15l-334 -151q-6 -3 0 -6l334 -151q10 -5 10 -15v-42q0 -7 -4 -10z" />
    <glyph glyph-name="equal" unicode="=" horiz-adv-x="500" 
d="M39 403v36q0 13 13 13h396q13 0 13 -13v-36q0 -13 -13 -13h-396q-13 0 -13 13zM39 194v36q0 13 13 13h396q13 0 13 -13v-36q0 -13 -13 -13h-396q-13 0 -13 13z" />
    <glyph glyph-name="greater" unicode="&#x3e;" horiz-adv-x="500" 
d="M48 47q-9 0 -9 12v42q0 10 10 15l334 151q6 3 0 6l-334 151q-10 5 -10 15v42q0 8 4 10.5t11 -0.5l397 -184q10 -5 10 -16v-42q0 -11 -10 -16l-397 -184q-4 -2 -6 -2z" />
    <glyph glyph-name="question" unicode="?" horiz-adv-x="461" 
d="M176 213v56q0 43 21 70t64 61q29 23 46 39.5t28.5 39.5t11.5 54q0 50 -32 80.5t-85 30.5q-54 0 -86.5 -31t-32.5 -81v-28q0 -12 -13 -12l-45 2q-13 0 -13 13v25q0 79 53 128t139 49q84 0 135 -48t51 -128q0 -44 -14.5 -76t-34.5 -52t-53 -46q-34 -26 -51 -46t-17 -48v-52
q0 -13 -13 -13h-46q-13 0 -13 13zM174 18.5q-17 16.5 -17 40.5q0 23 17.5 40t41.5 17t42 -17t18 -40q0 -24 -18 -40.5t-42 -16.5q-25 0 -42 16.5z" />
    <glyph glyph-name="at" unicode="@" horiz-adv-x="827" 
d="M616.5 580q70.5 -37 109 -104t38.5 -153q0 -16 -4 -52q-13 -92 -58 -143t-113 -51q-70 0 -101 51q-3 4 -7 0q-18 -24 -45 -37t-59 -13q-54 0 -88 26.5t-39 69.5q-1 7 -1 24q0 22 5 62q8 59 18 87q15 44 53 70t84 26q56 0 85 -37q2 -2 4 -1.5t2 3.5l2 18q2 12 14 12h25
q6 0 9.5 -4t2.5 -10l-26 -206q-1 -6 -1 -16q0 -34 18.5 -56t50.5 -22q42 0 71.5 38t39.5 106q4 24 4 52q0 76 -33 132.5t-92 86.5t-135 30q-85 0 -161.5 -39t-124.5 -116t-48 -187q0 -79 30 -140.5t87.5 -96t136.5 -34.5q48 0 94 11.5t71 27.5q6 4 9 4q5 0 9 -6l13 -16
q4 -6 4 -9q0 -5 -6 -9q-34 -24 -89.5 -38t-111.5 -14q-91 0 -159 40.5t-104 113.5t-36 168q0 120 56 208.5t145.5 134t188.5 45.5q92 0 162.5 -37zM473 213.5q3 13.5 7 47.5q5 41 5 71q-2 29 -21.5 47.5t-51.5 18.5t-56.5 -18.5t-35.5 -46.5q-5 -10 -8 -27t-7 -47
q-5 -36 -5 -54q0 -11 1 -16q2 -29 22.5 -47t54.5 -18q32 0 55 18t33 47q4 11 7 24.5z" />
    <glyph glyph-name="A" unicode="A" horiz-adv-x="607" 
d="M497 11l-40 122q-2 4 -5 4h-298q-3 0 -5 -4l-39 -122q-3 -11 -14 -11h-48q-7 0 -10 4t-1 11l220 674q3 11 14 11h64q11 0 14 -11l221 -674q1 -2 1 -5q0 -4 -3.5 -7t-8.5 -3h-48q-11 0 -14 11zM175 195h257q6 0 4 6l-130 409q-1 4 -3 4t-3 -4l-129 -409q-1 -6 4 -6z" />
    <glyph glyph-name="B" unicode="B" horiz-adv-x="627" 
d="M447 359q53 -22 80.5 -65t27.5 -104q0 -90 -57.5 -140t-151.5 -50h-239q-13 0 -13 13v674q0 13 13 13h232q97 0 152.5 -48t55.5 -135q0 -55 -25.5 -93t-74.5 -59q-6 -3 0 -6zM165 633v-238q0 -5 5 -5h169q63 0 100.5 33t37.5 88q0 58 -37.5 92.5t-100.5 34.5h-169
q-5 0 -5 -5zM446.5 99q37.5 36 37.5 97t-38.5 97.5t-103.5 36.5h-172q-5 0 -5 -5v-257q0 -5 5 -5h176q63 0 100.5 36z" />
    <glyph glyph-name="C" unicode="C" horiz-adv-x="607" 
d="M184 18.5q-53 27.5 -82.5 78t-29.5 116.5v275q0 65 29.5 115t82.5 77.5t123 27.5t123 -27t82.5 -76t29.5 -113q0 -9 -13 -11l-45 -3h-3q-4 0 -7 2t-3 4v6q0 71 -45 113.5t-119 42.5t-119 -43t-45 -113v-280q0 -70 45 -113t119 -43t119 42.5t45 113.5q0 12 13 11l45 -2
q13 0 13 -5v-5q0 -65 -29.5 -114.5t-82.5 -76.5t-123 -27t-123 27.5z" />
    <glyph glyph-name="D" unicode="D" horiz-adv-x="618" 
d="M94 13v674q0 13 13 13h233q99 0 157.5 -52t58.5 -141v-314q0 -89 -58.5 -141t-157.5 -52h-233q-13 0 -13 13zM170 62h173q65 0 103.5 38t38.5 102v295q0 65 -38 103t-104 38h-173q-5 0 -5 -5v-566q0 -5 5 -5z" />
    <glyph glyph-name="E" unicode="E" horiz-adv-x="605" 
d="M534 638h-364q-5 0 -5 -5v-245q0 -5 5 -5h254q13 0 13 -13v-36q0 -13 -13 -13h-254q-5 0 -5 -5v-249q0 -5 5 -5h364q13 0 13 -13v-36q0 -13 -13 -13h-427q-13 0 -13 13v674q0 13 13 13h427q13 0 13 -13v-36q0 -13 -13 -13z" />
    <glyph glyph-name="F" unicode="F" horiz-adv-x="568" 
d="M533 638h-363q-5 0 -5 -5v-245q0 -5 5 -5h253q13 0 13 -13v-36q0 -13 -13 -13h-253q-5 0 -5 -5v-303q0 -13 -13 -13h-45q-13 0 -13 13v674q0 13 13 13h426q13 0 13 -13v-36q0 -13 -13 -13z" />
    <glyph glyph-name="G" unicode="G" horiz-adv-x="606" 
d="M184 19.5q-53 27.5 -82.5 77.5t-29.5 115v276q0 65 29.5 115t82.5 77.5t123 27.5q69 0 122.5 -27t82.5 -75.5t29 -109.5v-10q0 -13 -13 -13h-45q-13 0 -13 11v11q0 67 -44.5 109t-118.5 42t-119 -43t-45 -113v-280q0 -70 46 -113t121 -43q73 0 116.5 40t43.5 107v90
q0 5 -5 5h-143q-13 0 -13 13v36q0 13 13 13h206q13 0 13 -13v-126q0 -107 -63.5 -167t-170.5 -60q-70 0 -123 27.5z" />
    <glyph glyph-name="H" unicode="H" horiz-adv-x="654" 
d="M505 700h45q13 0 13 -13v-674q0 -13 -13 -13h-45q-13 0 -13 13v303q0 5 -5 5h-317q-5 0 -5 -5v-303q0 -13 -13 -13h-45q-13 0 -13 13v674q0 13 13 13h45q13 0 13 -13v-299q0 -5 5 -5h317q5 0 5 5v299q0 13 13 13z" />
    <glyph glyph-name="I" unicode="I" horiz-adv-x="259" 
d="M94 13v674q0 13 13 13h45q13 0 13 -13v-674q0 -13 -13 -13h-45q-13 0 -13 13z" />
    <glyph glyph-name="J" unicode="J" horiz-adv-x="580" 
d="M137.5 18q-51.5 26 -80 73.5t-28.5 109.5v46q0 13 13 13h45q13 0 13 -13v-46q0 -66 43.5 -106.5t113.5 -40.5q71 0 114.5 40.5t43.5 106.5v486q0 13 13 13h45q13 0 13 -13v-486q0 -62 -28.5 -109.5t-80.5 -73.5t-120 -26t-119.5 26z" />
    <glyph glyph-name="K" unicode="K" horiz-adv-x="611" 
d="M94 13v674q0 13 13 13h45q13 0 13 -13v-334q0 -3 2 -4t4 2l314 342q6 7 16 7h50q11 0 11 -8q0 -4 -4 -8l-241 -273q-3 -4 -1 -7l263 -388q3 -4 3 -8q0 -8 -11 -8h-52q-10 0 -16 8l-235 345q-4 6 -7 1l-94 -99q-2 -4 -2 -7v-235q0 -13 -13 -13h-45q-13 0 -13 13z" />
    <glyph glyph-name="L" unicode="L" horiz-adv-x="568" 
d="M94 13v674q0 13 13 13h45q13 0 13 -13v-620q0 -5 5 -5h349q13 0 13 -13v-36q0 -13 -13 -13h-412q-13 0 -13 13z" />
    <glyph glyph-name="M" unicode="M" horiz-adv-x="711" 
d="M94 13v674q0 13 13 13h47q9 0 15 -9l183 -289q3 -6 6 0l184 289q6 9 15 9h47q13 0 13 -13v-674q0 -13 -13 -13h-45q-13 0 -13 13v552q0 4 -2 4t-4 -3l-158 -250q-6 -9 -15 -9h-23q-9 0 -15 9l-158 250q-2 3 -4 3t-2 -4v-552q0 -13 -13 -13h-45q-13 0 -13 13z" />
    <glyph glyph-name="N" unicode="N" horiz-adv-x="673" 
d="M94 13v674q0 13 13 13h45q9 0 15 -9l336 -544q2 -3 4 -2.5t2 4.5v538q0 13 13 13h45q13 0 13 -13v-674q0 -13 -13 -13h-45q-9 0 -15 9l-337 546q-2 3 -4 2.5t-2 -4.5l1 -540q0 -13 -13 -13h-45q-13 0 -13 13z" />
    <glyph glyph-name="O" unicode="O" horiz-adv-x="622" 
d="M185 21q-54 29 -83.5 81.5t-29.5 121.5v252q0 69 29.5 121.5t83.5 81.5t125 29t125.5 -29t84 -81.5t29.5 -121.5v-252q0 -69 -29.5 -121.5t-84 -81.5t-125.5 -29t-125 29zM432 99q46 46 46 122v256q0 76 -46 122.5t-122 46.5q-75 0 -121 -46.5t-46 -122.5v-256
q0 -76 46 -122t121 -46q76 0 122 46z" />
    <glyph glyph-name="P" unicode="P" horiz-adv-x="592" 
d="M501.5 647q53.5 -54 53.5 -142q0 -87 -54.5 -140t-143.5 -53h-194q-5 0 -5 -5v-294q0 -13 -13 -13h-45q-13 0 -13 13v675q0 13 13 13h260q88 0 141.5 -54zM448 407.5q37 36.5 37 96.5q0 61 -37 98t-96 37h-189q-5 0 -5 -5v-258q0 -5 5 -5h189q59 0 96 36.5z" />
    <glyph glyph-name="Q" unicode="Q" horiz-adv-x="576" 
d="M408.5 679.5q52.5 -28.5 81 -79.5t28.5 -118v-268q0 -89 -51.5 -148.5t-137.5 -70.5q-5 -2 -5 -6v-91q0 -13 -13 -13h-45q-13 0 -13 13v91q0 4 -5 6q-87 11 -138.5 70.5t-51.5 148.5v268q0 67 28.5 118t81 79.5t120.5 28.5t120.5 -28.5zM447 485q0 72 -44 116.5
t-115 44.5t-115 -44.5t-44 -116.5v-270q0 -72 44 -116.5t115 -44.5t115 44.5t44 116.5v270z" />
    <glyph glyph-name="R" unicode="R" horiz-adv-x="612" 
d="M489 10l-146 308q-2 4 -6 4h-167q-5 0 -5 -5v-304q0 -13 -13 -13h-45q-13 0 -13 13v675q0 13 13 13h256q86 0 139 -53t53 -139q0 -70 -37.5 -118.5t-102.5 -63.5q-5 -1 -3 -6l149 -306q2 -4 2 -6q0 -9 -12 -9h-46q-11 0 -16 10zM165 634v-250q0 -5 5 -5h185q58 0 94 35.5
t36 93.5t-36 94.5t-94 36.5h-185q-5 0 -5 -5z" />
    <glyph glyph-name="S" unicode="S" horiz-adv-x="586" 
d="M170.5 15q-54.5 23 -84 65.5t-29.5 98.5v28q0 13 13 13h43q13 0 13 -13v-24q0 -57 48 -93t129 -36q77 0 117 32.5t40 86.5q0 35 -18.5 60t-56.5 47t-109 51q-75 30 -116.5 52.5t-67 58t-25.5 89.5q0 84 58.5 130.5t161.5 46.5q110 0 174 -52t64 -138v-19q0 -13 -13 -13
h-44q-13 0 -13 13v15q0 58 -45 95t-127 37q-71 0 -108.5 -29t-37.5 -84q0 -36 18.5 -59.5t53 -41t105.5 -45.5q73 -30 118 -56t72 -63.5t27 -91.5q0 -83 -61.5 -133.5t-171.5 -50.5q-73 0 -127.5 23z" />
    <glyph glyph-name="T" unicode="T" horiz-adv-x="569" 
d="M526 687v-37q0 -13 -13 -13h-192q-5 0 -5 -5v-619q0 -13 -13 -13h-45q-13 0 -13 13v619q0 5 -5 5h-184q-13 0 -13 13v37q0 13 13 13h457q13 0 13 -13z" />
    <glyph glyph-name="U" unicode="U" horiz-adv-x="648" 
d="M200 20q-54 28 -84 78.5t-30 117.5v471q0 13 13 13h45q13 0 13 -13v-473q0 -71 46 -115.5t121 -44.5t121 44.5t46 115.5v473q0 13 13 13h45q13 0 13 -13v-471q0 -67 -29.5 -117.5t-83.5 -78.5t-125 -28q-70 0 -124 28z" />
    <glyph glyph-name="V" unicode="V" horiz-adv-x="589" 
d="M254 11l-217 674q-1 2 -1 5q0 4 3.5 7t8.5 3h48q11 0 14 -11l182 -581q1 -4 3 -4t3 4l182 581q3 11 14 11h47q7 0 10 -4t1 -11l-219 -674q-3 -11 -14 -11h-51q-11 0 -14 11z" />
    <glyph glyph-name="W" unicode="W" horiz-adv-x="872" 
d="M216 11l-190 674l-1 4q0 11 12 11h49q11 0 14 -11l150 -542q1 -3 3 -3t3 3l140 542q3 11 15 11h48q11 0 14 -11l146 -543q1 -3 3 -3t3 3l150 543q3 11 14 11h46q7 0 10 -4t1 -11l-187 -674q-3 -11 -14 -11h-48q-12 0 -15 11l-144 556q-1 3 -3 3t-3 -3l-142 -556
q-3 -11 -15 -11h-45q-11 0 -14 11z" />
    <glyph glyph-name="X" unicode="X" horiz-adv-x="589" 
d="M40.5 4.5q-2.5 4.5 1.5 11.5l208 331q2 3 0 6l-208 331q-2 6 -2 7q0 4 3 6.5t8 2.5h49q9 0 15 -9l177 -281q3 -6 6 0l176 281q6 9 15 9h49q10 0 10 -8q0 -5 -2 -8l-207 -332q-1 -3 0 -6l207 -330q2 -6 2 -7q0 -4 -3 -6.5t-8 -2.5h-48q-9 0 -15 9l-176 280q-3 6 -6 0
l-177 -280q-6 -9 -15 -9h-49q-8 0 -10.5 4.5z" />
    <glyph glyph-name="Y" unicode="Y" horiz-adv-x="567" 
d="M248 14v293q0 2 -2 6l-205 371q-2 6 -2 7q0 4 3 6.5t8 2.5h48q11 0 15 -9l167 -302q3 -4 6 0l168 302q5 9 15 9h48q8 0 10.5 -4.5t-1.5 -11.5l-205 -371q-2 -4 -2 -6v-293q0 -13 -13 -13h-45q-13 0 -13 13z" />
    <glyph glyph-name="Z" unicode="Z" horiz-adv-x="549" 
d="M45 13v43q0 8 5 16l364 560q3 6 -3 6h-353q-13 0 -13 13v36q0 13 13 13h425q13 0 13 -13v-43q0 -8 -5 -16l-363 -560q-3 -6 3 -6h352q13 0 13 -13v-36q0 -13 -13 -13h-425q-13 0 -13 13z" />
    <glyph glyph-name="bracketleft" unicode="[" horiz-adv-x="380" 
d="M32 -108v869q0 13 13 13h187q13 0 13 -13v-36q0 -13 -13 -13h-124q-5 0 -5 -5v-761q0 -5 5 -5h125q13 0 13 -13v-36q0 -13 -13 -13h-188q-13 0 -13 13z" />
    <glyph glyph-name="backslash" unicode="\" horiz-adv-x="357" 
d="M324 10q0 -4 -3.5 -7t-8.5 -3h-44q-11 0 -14 11l-220 674q-1 2 -1 5q0 4 3.5 7t8.5 3h44q11 0 14 -11l220 -674q1 -2 1 -5z" />
    <glyph glyph-name="bracketright" unicode="]" horiz-adv-x="380" 
d="M335 -121h-188q-13 0 -13 13v36q0 13 13 13h125q5 0 5 5v761q0 5 -5 5h-124q-13 0 -13 13v36q0 13 13 13h187q13 0 13 -13v-869q0 -13 -13 -13z" />
    <glyph glyph-name="asciicircum" unicode="^" horiz-adv-x="450" 
d="M45.5 311q-2.5 4 -0.5 11l144 368q4 10 15 10h41q11 0 15 -10l145 -368q1 -2 1 -6t-3 -6.5t-8 -2.5h-35q-11 0 -15 10l-117 304q-3 8 -6 0l-117 -304q-4 -10 -15 -10h-35q-7 0 -9.5 4z" />
    <glyph glyph-name="underscore" unicode="_" horiz-adv-x="484" 
d="M29 13v31q0 13 13 13h400q13 0 13 -13v-31q0 -13 -13 -13h-400q-13 0 -13 13z" />
    <glyph glyph-name="grave" unicode="`" horiz-adv-x="200" 
d="M164 586q0 -4 -3 -6.5t-8 -2.5h-35q-9 0 -15 9l-64 103q-2 3 -2 8q0 8 10 8h43q10 0 15 -9l57 -103q2 -6 2 -7z" />
    <glyph glyph-name="a" unicode="a" horiz-adv-x="511" 
d="M394.5 468q49.5 -46 49.5 -122v-333q0 -13 -13 -13h-45q-13 0 -13 13v36q0 3 -2 4t-4 -2q-27 -29 -67.5 -44t-88.5 -15q-70 0 -117.5 36t-47.5 110q0 75 54.5 118.5t151.5 43.5h116q5 0 5 5v37q0 51 -28.5 80.5t-88.5 29.5q-47 0 -77 -18t-38 -50q-3 -12 -15 -10l-49 6
q-13 2 -12 11q10 55 61.5 89t128.5 34q90 0 139.5 -46zM329.5 82.5q43.5 29.5 43.5 79.5v77q0 5 -5 5h-105q-66 0 -106 -27t-40 -75q0 -44 31 -66.5t79 -22.5q59 0 102.5 29.5z" />
    <glyph glyph-name="b" unicode="b" horiz-adv-x="542" 
d="M481 253q0 -82 -14 -127q-18 -62 -65.5 -98t-117.5 -36q-40 0 -72.5 16t-54.5 45q-2 2 -4 1.5t-2 -3.5v-38q0 -13 -13 -13h-45q-13 0 -13 13v674q0 13 13 13h45q13 0 13 -13v-231q0 -3 2 -4t4 2q22 29 55 44.5t72 15.5q71 0 119 -36.5t66 -100.5q12 -41 12 -124z
M406 179.5q4 26.5 4 73.5q0 49 -5.5 76.5t-17.5 49.5q-13 33 -42 53t-69 20q-38 0 -65.5 -20.5t-39.5 -54.5q-10 -21 -14 -48.5t-4 -75.5t4 -75t13 -47q13 -35 40 -56t67 -21q42 0 72.5 21t42.5 57q10 21 14 47.5z" />
    <glyph glyph-name="c" unicode="c" horiz-adv-x="520" 
d="M147.5 29.5q-51.5 37.5 -70.5 101.5q-13 44 -13 124q0 72 13 122q18 62 70 99.5t124 37.5q73 0 126.5 -37t69.5 -92q4 -14 6 -27v-2q0 -11 -12 -13l-44 -5h-3q-9 0 -12 11q0 4 -2 12q-9 38 -44 64.5t-85 26.5t-83.5 -26.5t-43.5 -70.5q-9 -38 -9 -101q0 -66 9 -102
q10 -45 43.5 -71.5t83.5 -26.5q49 0 84.5 25.5t43.5 64.5q1 2 1 5l1 1q1 13 15 11l43 -7q13 -2 12 -15l-4 -17q-15 -58 -69 -94t-127 -36q-72 0 -123.5 37.5z" />
    <glyph glyph-name="d" unicode="d" horiz-adv-x="542" 
d="M404 700h45q13 0 13 -13v-674q0 -13 -13 -13h-45q-13 0 -13 13v38q0 3 -2 3.5t-4 -1.5q-22 -29 -54.5 -45t-72.5 -16q-70 0 -117.5 36t-65.5 98q-14 45 -14 127q0 83 12 124q18 64 66 100.5t119 36.5q39 0 72 -15.5t55 -44.5q2 -3 4 -2t2 4v231q0 13 13 13zM385 178
q4 27 4 75t-4 75.5t-14 48.5q-12 34 -39.5 54.5t-65.5 20.5q-40 0 -69 -20t-42 -53q-12 -22 -17.5 -49.5t-5.5 -76.5q0 -47 4 -73.5t14 -47.5q12 -36 42.5 -57t72.5 -21q40 0 67 21t40 56q9 20 13 47z" />
    <glyph glyph-name="e" unicode="e" horiz-adv-x="534" 
d="M354.5 73.5q32.5 19.5 50.5 54.5q2 5 7 7t10 -1l29 -16q12 -7 6 -17q-24 -50 -72 -79.5t-114 -29.5q-70 0 -118 33t-69 92q-19 50 -19 138q0 43 1.5 68.5t7.5 47.5q17 65 68.5 104t124.5 39q87 0 136.5 -45t63.5 -127q6 -32 6 -100q0 -13 -13 -13h-320q-5 0 -5 -5
q0 -50 6 -73q11 -45 46.5 -71.5t89.5 -26.5q45 1 77.5 20.5zM185 426.5q-32 -25.5 -42 -68.5q-6 -20 -8 -68q0 -5 5 -5h257q5 0 5 5q-2 44 -6 64q-11 45 -44.5 71.5t-84.5 26.5q-50 0 -82 -25.5z" />
    <glyph glyph-name="f" unicode="f" horiz-adv-x="356" 
d="M205 613.5q-20 -24.5 -20 -83.5v-19q0 -5 5 -5h108q13 0 13 -13v-39q0 -13 -13 -13h-108q-5 0 -5 -5v-423q0 -13 -13 -13h-44q-13 0 -13 13v423q0 5 -5 5h-63q-13 0 -13 13v39q0 13 13 13h63q5 0 5 5v23q0 62 14 97.5t48.5 52t96.5 16.5h26q13 0 13 -13v-36
q0 -13 -13 -13h-20q-55 0 -75 -24.5z" />
    <glyph glyph-name="g" unicode="g" horiz-adv-x="535" 
d="M405 506h45q13 0 13 -13v-476q0 -112 -65 -164t-177 -52q-21 0 -32 1q-13 1 -13 14l2 40q0 14 13 12q106 -5 153.5 31t47.5 120v35q0 3 -2 4t-4 -2q-46 -59 -130 -59q-65 0 -115.5 35t-67.5 99q-12 41 -12 122q0 44 2.5 74t10.5 54q18 60 65 96.5t113 36.5q87 0 134 -57
q2 -3 4 -2t2 4v34q0 13 13 13zM391 190q1 22 1 64q0 51 -1 68.5t-5 32.5q-8 42 -39.5 69.5t-79.5 27.5q-47 0 -79.5 -27t-45.5 -70q-10 -32 -10 -100q0 -73 10 -101q10 -42 43.5 -69.5t81.5 -27.5q49 0 80.5 27t39.5 69q3 15 4 37z" />
    <glyph glyph-name="h" unicode="h" horiz-adv-x="539" 
d="M416.5 466q47.5 -47 47.5 -126v-327q0 -13 -13 -13h-45q-13 0 -13 13v313q0 56 -33 90.5t-86 34.5q-51 0 -84.5 -29t-38.5 -76v-333q0 -13 -13 -13h-45q-13 0 -13 13v674q0 13 13 13h45q13 0 13 -13v-231q0 -3 2 -4.5t3 1.5q44 60 134 60q79 0 126.5 -47z" />
    <glyph glyph-name="i" unicode="i" horiz-adv-x="245" 
d="M84 611.5q-15 14.5 -15 37.5t15 37t39 14t39 -14t15 -37t-15 -37.5t-39 -14.5t-39 14.5zM88 13v480q0 13 13 13h45q13 0 13 -13v-480q0 -13 -13 -13h-45q-13 0 -13 13z" />
    <glyph glyph-name="j" unicode="j" horiz-adv-x="233" 
d="M79 609.5q-15 14.5 -15 37.5t16 37.5t38 14.5q24 0 39.5 -14.5t15.5 -37.5t-15 -37.5t-40 -14.5q-24 0 -39 14.5zM-35 -195v35q0 13 13 13q104 3 104 103v537q0 13 13 13h45q13 0 13 -13v-537q0 -85 -41.5 -124t-133.5 -40q-13 0 -13 13z" />
    <glyph glyph-name="k" unicode="k" horiz-adv-x="501" 
d="M80 13v674q0 13 13 13h45q13 0 13 -13v-404q0 -3 2 -4.5t4 1.5l209 219q6 7 16 7h53q11 0 11 -8q0 -3 -3 -8l-124 -137q-3 -3 -1 -7l150 -331q2 -4 2 -6q0 -9 -12 -9h-47q-10 0 -15 10l-127 289q-1 2 -3 2.5t-4 -1.5l-109 -114q-2 -4 -2 -7v-166q0 -13 -13 -13h-45
q-13 0 -13 13z" />
    <glyph glyph-name="l" unicode="l" horiz-adv-x="232" 
d="M80 13v674q0 13 13 13h45q13 0 13 -13v-674q0 -13 -13 -13h-45q-13 0 -13 13z" />
    <glyph glyph-name="m" unicode="m" horiz-adv-x="827" 
d="M710.5 468q43.5 -45 43.5 -123v-332q0 -13 -13 -13h-44q-13 0 -13 13v318q0 55 -31.5 87.5t-82.5 32.5q-53 0 -85.5 -32t-32.5 -86v-320q0 -13 -13 -13h-45q-13 0 -13 13v318q0 55 -31 87.5t-83 32.5q-53 0 -84.5 -32t-31.5 -86v-320q0 -13 -13 -13h-45q-13 0 -13 13v480
q0 13 13 13h45q13 0 13 -13v-35q0 -3 2 -4t4 2q22 29 56 43t76 14q51 0 88 -21t56 -59q3 -6 6 -1q22 41 62 61t91 20q75 0 118.5 -45z" />
    <glyph glyph-name="n" unicode="n" horiz-adv-x="539" 
d="M416.5 466q47.5 -47 47.5 -126v-327q0 -13 -13 -13h-45q-13 0 -13 13v313q0 56 -33 90.5t-86 34.5q-51 0 -84.5 -29t-38.5 -76v-333q0 -13 -13 -13h-45q-13 0 -13 13v480q0 13 13 13h45q13 0 13 -13v-37q0 -3 2 -4.5t3 1.5q44 60 134 60q79 0 126.5 -47z" />
    <glyph glyph-name="o" unicode="o" horiz-adv-x="546" 
d="M149.5 29q-51.5 37 -71.5 102q-14 46 -14 123q0 76 13 122q20 64 71.5 101t125.5 37q72 0 123.5 -37t70.5 -100q14 -48 14 -123q0 -77 -14 -123q-20 -65 -71.5 -102t-122.5 -37q-73 0 -124.5 37zM356 80.5q34 26.5 46 71.5q8 32 8 101q0 72 -8 101q-11 45 -45.5 71.5
t-84.5 26.5q-48 0 -82 -26.5t-46 -71.5q-8 -29 -8 -101t8 -101q11 -45 45.5 -71.5t84.5 -26.5q48 0 82 26.5z" />
    <glyph glyph-name="p" unicode="p" horiz-adv-x="548" 
d="M487 253q0 -83 -12 -124q-18 -64 -66 -100.5t-119 -36.5q-39 0 -72 15.5t-55 44.5q-2 3 -4 2t-2 -4v-231q0 -13 -13 -13h-45q-13 0 -13 13v674q0 13 13 13h45q13 0 13 -13v-38q0 -3 2 -3.5t4 1.5q22 29 54.5 45t72.5 16q70 0 117.5 -36t65.5 -98q14 -45 14 -127z
M410.5 176.5q5.5 27.5 5.5 76.5q0 47 -4 73.5t-14 47.5q-12 36 -42.5 57t-72.5 21q-40 0 -67 -21t-40 -56q-9 -20 -13 -47t-4 -75t4 -75.5t14 -48.5q12 -34 39.5 -54.5t65.5 -20.5q40 0 69 20t42 53q12 22 17.5 49.5z" />
    <glyph glyph-name="q" unicode="q" horiz-adv-x="548" 
d="M404 506h45q13 0 13 -13v-674q0 -13 -13 -13h-45q-13 0 -13 13v231q0 3 -2 4t-4 -2q-22 -29 -55 -44.5t-72 -15.5q-71 0 -119 36.5t-66 100.5q-12 41 -12 124q0 82 14 127q18 62 65.5 98t117.5 36q40 0 72.5 -16t54.5 -45q2 -2 4 -1.5t2 3.5v38q0 13 13 13zM385 177.5
q4 27.5 4 75.5t-4 75t-13 47q-13 35 -40 56t-67 21q-42 0 -72.5 -21t-42.5 -57q-10 -21 -14 -47.5t-4 -73.5q0 -49 5.5 -76.5t17.5 -49.5q13 -33 42 -53t69 -20q38 0 65.5 20.5t39.5 54.5q10 21 14 48.5z" />
    <glyph glyph-name="r" unicode="r" horiz-adv-x="364" 
d="M339 499q10 -4 7 -16l-10 -44q-3 -12 -16 -8q-19 6 -49 5q-52 -2 -86 -38.5t-34 -92.5v-292q0 -13 -13 -13h-45q-13 0 -13 13v480q0 13 13 13h45q13 0 13 -13v-56q0 -4 1.5 -4.5t3.5 2.5q21 36 53.5 56t74.5 20q33 0 55 -12z" />
    <glyph glyph-name="s" unicode="s" horiz-adv-x="482" 
d="M146.5 13q-43.5 18 -67 48t-23.5 67v9q0 13 13 13h43q6 0 9.5 -2.5t3.5 -6.5v-9q0 -33 34 -57.5t86 -24.5t84 23.5t32 59.5q0 25 -16 41t-39 25t-69 23q-56 16 -92 32t-61 44.5t-25 72.5q0 64 50.5 102t132.5 38q55 0 97.5 -18t65.5 -49.5t23 -70.5q0 -13 -13 -13h-41
q-13 0 -13 7v6q0 34 -32.5 57t-87.5 23q-51 0 -82 -20.5t-31 -56.5q0 -34 29.5 -52t92.5 -36q58 -16 94 -31t62 -44t26 -75q0 -65 -50.5 -104t-135.5 -39q-56 0 -99.5 18z" />
    <glyph glyph-name="t" unicode="t" horiz-adv-x="364" 
d="M294 447h-109q-5 0 -5 -5v-292q0 -48 21.5 -67.5t67.5 -19.5h22q13 0 13 -13v-35q0 -13 -13 -14h-34q-72 0 -109 27t-37 100v314q0 5 -5 5h-57q-13 0 -13 13v33q0 13 13 13h57q5 0 5 5v112q0 13 13 13h43q13 0 13 -13v-112q0 -5 5 -5h109q13 0 13 -13v-33q0 -13 -13 -13z
" />
    <glyph glyph-name="u" unicode="u" horiz-adv-x="536" 
d="M399 506h45q13 0 13 -13v-480q0 -13 -13 -13h-45q-13 0 -13 13v38q0 3 -2 4t-4 -2q-43 -60 -132 -60q-48 0 -88.5 19.5t-64 56.5t-23.5 89v335q0 13 13 13h45q13 0 13 -13v-314q0 -57 32 -90.5t87 -33.5q57 0 90.5 34t33.5 90v314q0 13 13 13z" />
    <glyph glyph-name="v" unicode="v" horiz-adv-x="475" 
d="M196 11l-162 480q-1 2 -1 5q0 4 3.5 7t8.5 3h51q11 0 14 -11l125 -389q1 -4 3 -4t3 4l125 389q3 11 14 11l51 -1q7 0 9.5 -4t0.5 -11l-161 -479q-3 -11 -15 -11h-54q-12 0 -15 11z" />
    <glyph glyph-name="w" unicode="w" horiz-adv-x="721" 
d="M173 11l-140 480q-1 2 -1 5q0 4 3.5 7t8.5 3h47q11 0 14 -11l104 -390q1 -3 3 -3t3 3l107 390q3 11 14 11h44q11 0 14 -11l109 -390q1 -3 3 -3t3 3l107 390q3 11 15 11l46 -1q7 0 10 -4t1 -11l-142 -479q-3 -11 -14 -11h-49q-11 0 -14 11l-108 369q-1 3 -3 3t-3 -3
l-104 -369q-3 -11 -14 -11h-50q-11 0 -14 11z" />
    <glyph glyph-name="x" unicode="x" horiz-adv-x="477" 
d="M31.5 5q-2.5 5 1.5 11l164 234q2 3 0 6l-164 234q-3 5 -3 7q0 4 3 6.5t8 2.5h48q10 0 16 -8l128 -186q2 -2 4 -2t3 2l128 186q6 8 16 8h53q8 0 10.5 -5t-2.5 -11l-165 -234q-1 -3 0 -6l165 -234q3 -4 3 -7q0 -4 -3 -6.5t-8 -2.5h-49q-10 0 -16 8l-128 186q-1 2 -3 2
t-4 -2l-129 -186q-6 -8 -16 -8h-51q-7 0 -9.5 5z" />
    <glyph glyph-name="y" unicode="y" horiz-adv-x="461" 
d="M50 -187v35q0 13 7 13h7q39 0 60.5 11t37 39t33.5 86q1 2 0 6l-168 488q-1 2 -1 5q0 4 3.5 7t8.5 3h47q12 0 15 -11l129 -392q1 -4 3 -4t3 4l126 392q3 11 14 11h48q7 0 10 -4t1 -11l-184 -535q-24 -67 -45 -99t-52.5 -44.5t-88.5 -12.5h-7q-7 0 -7 13z" />
    <glyph glyph-name="z" unicode="z" horiz-adv-x="445" 
d="M34 13v43q0 9 6 16l281 363q2 2 1 4t-4 2h-267q-13 0 -13 13v39q0 13 13 13h345q13 0 13 -13v-43q0 -8 -6 -16l-284 -363q-2 -2 -1 -4t4 -2h274q13 0 13 -13v-39q0 -13 -13 -13h-349q-13 0 -13 13z" />
    <glyph glyph-name="braceleft" unicode="{" horiz-adv-x="302" 
d="M119 -93.5q-25 27.5 -25 86.5v217q0 42 -12 63t-38 26q-12 3 -12 14v34q0 11 12 14q26 4 38 25.5t12 62.5v212q0 58 25 85.5t78 27.5h60q13 0 13 -13v-36q0 -13 -13 -13h-35q-29 0 -43 -18t-14 -56v-194q0 -45 -11.5 -71.5t-36.5 -39.5q-4 -3 0 -6q25 -14 36.5 -40.5
t11.5 -71.5v-199q0 -75 57 -75h35q13 0 13 -13v-36q0 -13 -13 -13h-60q-53 0 -78 27.5z" />
    <glyph glyph-name="bar" unicode="|" horiz-adv-x="166" 
d="M47 -67v814q0 13 13 13h45q13 0 13 -13v-814q0 -13 -13 -13h-45q-13 0 -13 13z" />
    <glyph glyph-name="braceright" unicode="}" horiz-adv-x="302" 
d="M45 -121q-13 0 -13 13v36q0 13 13 13h35q57 0 57 75v199q0 45 11.5 71.5t36.5 40.5q4 3 0 6q-25 13 -36.5 39.5t-11.5 71.5v194q0 38 -14 56t-43 18h-35q-13 0 -13 13v36q0 13 13 13h60q53 0 78 -27.5t25 -85.5v-212q0 -41 12 -62.5t38 -25.5q12 -3 12 -14v-34
q0 -11 -12 -14q-26 -5 -38 -26t-12 -63v-217q0 -59 -25 -86.5t-78 -27.5h-60z" />
    <glyph glyph-name="asciitilde" unicode="~" horiz-adv-x="501" 
d="M294 239.5q-21 8.5 -51 25.5q-23 12 -40.5 19t-38.5 7q-49 0 -74 -39q-4 -6 -10 -6q-3 0 -8 3l-23 15q-11 8 -5 18q16 33 47.5 52.5t70.5 19.5q25 0 43.5 -6.5t42.5 -19.5q5 -3 22.5 -13t35.5 -15.5t36 -5.5q20 0 34.5 9.5t29.5 28.5q4 6 10 6q3 0 8 -3l27 -17
q11 -8 5 -18q-18 -32 -46.5 -50.5t-64.5 -18.5q-30 0 -51 8.5z" />
    <glyph glyph-name="uni00A0" unicode="&#xa0;" horiz-adv-x="200" 
 />
    <glyph glyph-name="exclamdown" unicode="&#xa1;" horiz-adv-x="323" 
d="M203 691q18 -17 18 -42q0 -24 -19 -41.5t-43 -17.5t-43 17.5t-19 41.5q0 25 17.5 42t44.5 17q26 0 44 -17zM144 484h34q13 0 13 -13l6 -446q0 -13 -13 -13h-45q-13 0 -13 13l5 446q0 13 13 13z" />
    <glyph glyph-name="cent" unicode="&#xa2;" horiz-adv-x="520" 
d="M400 239l1 1q1 13 15 11l43 -7q13 -2 12 -15l-4 -17q-14 -53 -60.5 -88t-112.5 -41q-5 0 -5 -5l2 -64q0 -13 -13 -13h-36q-13 0 -13 13l2 66q0 4 -5 6q-55 10 -94 45.5t-55 89.5q-13 44 -13 124q0 72 13 122q16 52 55 87.5t94 45.5q5 2 5 6l-2 66q0 13 13 13h36
q13 0 13 -13l-2 -64q0 -5 5 -5q65 -6 111.5 -41.5t61.5 -86.5q4 -14 6 -27v-2q0 -11 -12 -13l-44 -5h-3q-9 0 -12 11q0 4 -2 12q-9 38 -44 64.5t-85 26.5t-83.5 -26.5t-43.5 -70.5q-9 -38 -9 -101q0 -66 9 -102q10 -45 43.5 -71.5t83.5 -26.5q49 0 84.5 25.5t43.5 64.5
q1 2 1 5z" />
    <glyph glyph-name="sterling" unicode="&#xa3;" horiz-adv-x="606" 
d="M210 64q1 -2 4 -2h345q13 0 13 -13v-36q0 -13 -13 -13h-422q-13 0 -13 13v39q0 9 9 15q24 16 37.5 47.5t13.5 72.5v116q0 5 -5 5h-72q-13 0 -13 13v33q0 13 13 13h72q5 0 5 5v140q0 92 54 144t149 52q65 0 110 -33.5t66 -96.5q1 -2 1 -5q0 -7 -11 -11l-42 -8l-4 -1
q-9 0 -12 11q-15 43 -42 62.5t-68 19.5q-62 0 -96 -34t-34 -99v-141q0 -5 5 -5h188q13 0 13 -13v-33q0 -13 -13 -13h-188q-5 0 -5 -5v-114q0 -79 -44 -121q-2 -2 -1 -4z" />
    <glyph glyph-name="currency" unicode="&#xa4;" horiz-adv-x="521" 
d="M421 190q-3 -4 0 -7l62 -62q5 -5 5 -10q0 -4 -5 -9l-28 -24q-4 -4 -9 -4q-4 0 -9 5l-60 60q-3 3 -7 0q-51 -35 -113 -35q-59 0 -109 32q-4 3 -7 0l-57 -57q-5 -5 -9 -5q-5 0 -9 4l-28 24q-4 4 -4 9q0 6 4 10l58 57q3 3 0 7q-38 51 -38 116q0 64 35 113q3 4 0 7l-62 62
q-4 4 -4 8q0 5 5 10l27 24q6 4 9 4q4 0 9 -5l59 -59q3 -3 7 0q51 35 114 35q65 0 117 -39q4 -3 7 0l63 63q5 5 9 5q5 0 9 -4l28 -24q5 -3 5 -9q0 -5 -5 -10l-66 -65q-2 -2 -1 -7q33 -49 33 -109q0 -62 -35 -111zM138.5 234q18.5 -31 50 -49.5t68.5 -18.5t68 18t50 49t19 68
t-19 68.5t-50.5 50t-67.5 18.5q-37 0 -68.5 -18.5t-50 -50t-18.5 -68.5q0 -36 18.5 -67z" />
    <glyph glyph-name="yen" unicode="&#xa5;" horiz-adv-x="688" 
d="M589.5 695.5q2.5 -4.5 -1.5 -11.5l-188 -339q-3 -6 4 -6h112q13 0 13 -13v-17q0 -13 -13 -13h-130q-5 0 -5 -5v-80q0 -5 5 -5h130q13 0 13 -13v-18q0 -13 -13 -13h-130q-5 0 -5 -5v-143q0 -13 -13 -13h-45q-13 0 -13 13v143q0 5 -5 5h-135q-13 0 -13 13v18q0 13 13 13
h135q5 0 5 5v80q0 5 -5 5h-135q-13 0 -13 13v17q0 13 13 13h117q7 0 4 6l-188 339q-2 6 -2 7q0 4 3 6.5t8 2.5h48q11 0 15 -9l167 -302q3 -4 6 0l168 302q5 9 15 9h48q8 0 10.5 -4.5z" />
    <glyph glyph-name="brokenbar" unicode="&#xa6;" horiz-adv-x="166" 
d="M47 411v336q0 13 13 13h45q13 0 13 -13v-336q0 -13 -13 -13h-45q-13 0 -13 13zM47 -67v336q0 13 13 13h45q13 0 13 -13v-336q0 -13 -13 -13h-45q-13 0 -13 13z" />
    <glyph glyph-name="section" unicode="&#xa7;" horiz-adv-x="457" 
d="M112 -163q-43 44 -44 119l-1 20q0 13 13 13h45q6 0 9.5 -3.5t3.5 -8.5v-11q0 -51 26 -81.5t68 -30.5q41 0 68 30t27 73q0 36 -18 58.5t-43 34t-67 25.5q-45 15 -73.5 32.5t-46.5 47.5q-22 39 -22 88q0 57 27 97q29 45 78 58q7 2 0 5q-43 18 -70.5 57t-27.5 89
q0 42 21 78.5t59.5 58t87.5 21.5q71 0 116.5 -44.5t46.5 -114.5v-14q0 -13 -13 -13h-45q-6 0 -9.5 3t-3.5 8v10q0 46 -26 75t-67 29q-42 0 -69 -31t-27 -74q0 -44 32 -71t91 -46q34 -11 62 -25t49 -39q34 -41 34 -105q0 -57 -26 -98q-13 -23 -32 -38.5t-42 -20.5
q-6 -1 -1 -4q45 -20 70.5 -56t25.5 -87q0 -45 -22 -81t-60.5 -56.5t-86.5 -20.5q-74 0 -117 44zM316 182q16 26 16 66q0 46 -21 73q-31 38 -80 38q-28 0 -51 -14.5t-36 -37.5q-16 -26 -16 -62q0 -39 16 -62q29 -45 85 -45q60 0 87 44z" />
    <glyph glyph-name="dieresis" unicode="&#xa8;" horiz-adv-x="321" 
d="M42.5 613q-13.5 13 -13.5 33t13.5 33.5t34.5 13.5q20 0 33 -13.5t13 -33.5t-13 -33t-33 -13q-21 0 -34.5 13zM211 613q-13 13 -13 33t13 33.5t34 13.5t34 -13.5t13 -33.5t-13 -33t-34 -13t-34 13z" />
    <glyph glyph-name="copyright" unicode="&#xa9;" horiz-adv-x="869" 
d="M248.5 38.5q-82.5 46.5 -129.5 128.5t-47 183t47 183t129.5 128.5t185.5 46.5t186 -46.5t129.5 -128.5t46.5 -183t-46.5 -183t-129.5 -128.5t-186 -46.5t-185.5 46.5zM597 77q72 41 112.5 112.5t40.5 160.5t-40.5 160.5t-112.5 112.5t-163 41t-163 -41t-112.5 -112.5
t-40.5 -160.5t40.5 -160.5t112.5 -112.5t163 -41t163 41zM355 199q-30 28 -30 75v153q0 47 30 74.5t80 27.5t80 -27t30 -72q0 -11 -13 -11l-18 1q-6 0 -9.5 2t-3.5 4v5q0 27 -18.5 43.5t-47.5 16.5q-30 0 -48 -16.5t-18 -43.5v-162q0 -27 18 -43.5t48 -16.5q29 0 47.5 16.5
t18.5 43.5q0 11 13 11l18 1q13 0 13 -5v-5q0 -45 -30.5 -72.5t-79.5 -27.5q-50 0 -80 28z" />
    <glyph glyph-name="ordfeminine" unicode="&#xaa;" horiz-adv-x="324" 
d="M233 564q5 0 5 5v23q0 35 -20.5 56t-60.5 21q-28 0 -48.5 -11.5t-27.5 -31.5q-3 -12 -14 -11l-19 2q-6 1 -9 5t-2 10q8 34 40.5 55t80.5 21q58 0 91.5 -30.5t33.5 -80.5v-215q0 -13 -13 -13h-19q-13 0 -13 13v16q0 3 -2 4t-4 -2q-33 -37 -98 -37q-49 0 -80 23.5t-31 69.5
q0 50 37 79t100 29h73zM209.5 420q28.5 20 28.5 55v47q0 5 -5 5h-69q-44 0 -70 -17t-26 -50q0 -30 20 -45t53 -15q40 0 68.5 20zM36 301h242q13 0 13 -13v-27q0 -13 -13 -13h-242q-13 0 -13 13v27q0 13 13 13z" />
    <glyph glyph-name="guillemotleft" unicode="&#xab;" horiz-adv-x="540" 
d="M282 115q0 -8 -11 -8h-42q-11 0 -16 8l-123 157q-4 6 -4 9t4 9l123 157q5 8 16 8h42q11 0 11 -8q0 -3 -3 -8l-121 -154q-3 -4 0 -8l121 -154q3 -4 3 -8zM440 115q0 -8 -11 -8h-42q-11 0 -16 8l-123 157q-4 6 -4 9t4 9l123 157q5 8 16 8h42q11 0 11 -8q0 -3 -3 -8
l-121 -154q-3 -4 0 -8l121 -154q3 -4 3 -8z" />
    <glyph glyph-name="logicalnot" unicode="&#xac;" horiz-adv-x="500" 
d="M52 344h396q13 0 13 -13v-156q0 -13 -13 -13h-37q-13 0 -13 13v102q0 5 -5 5h-341q-13 0 -13 13v36q0 13 13 13z" />
    <glyph glyph-name="uni00AD" unicode="&#xad;" horiz-adv-x="394" 
d="M39 293v36q0 13 13 13h290q13 0 13 -13v-36q0 -13 -13 -13h-290q-13 0 -13 13z" />
    <glyph glyph-name="registered" unicode="&#xae;" horiz-adv-x="451" 
d="M325 688q45 -26 71 -70.5t26 -97.5q0 -54 -26 -99t-71 -71t-99 -26t-99.5 26t-71.5 71t-26 99q0 53 26.5 97.5t71.5 70.5t99 26t99 -26zM307 380.5q37 21.5 58 58.5t21 81q0 43 -21 79.5t-58 58t-81 21.5t-81 -21.5t-58.5 -58t-21.5 -79.5q0 -44 21.5 -81t58.5 -58.5
t81 -21.5t81 21.5zM263 510q-4 -2 -2 -7l24 -59q1 -2 1 -6q0 -9 -11 -9h-7q-11 0 -15 10l-23 61q-2 4 -6 4h-14q-5 0 -5 -5v-57q0 -13 -13 -13h-5q-13 0 -13 13v153q0 13 13 13h50q23 0 37.5 -15t14.5 -38q0 -32 -26 -45zM205 576v-43q0 -5 5 -5h22q12 0 19 7.5t7 18.5
q0 13 -7 20t-19 7h-22q-5 0 -5 -5z" />
    <glyph glyph-name="macron" unicode="&#xaf;" horiz-adv-x="269" 
d="M0 607v25q0 13 13 13h243q13 0 13 -13v-25q0 -13 -13 -13h-243q-13 0 -13 13z" />
    <glyph glyph-name="degree" unicode="&#xb0;" horiz-adv-x="381" 
d="M109 508.5q-37 21.5 -58.5 58t-21.5 81.5q0 44 21.5 81t58.5 58t81 21q45 0 82 -21t58.5 -58t21.5 -81q0 -45 -21.5 -82t-58.5 -58t-82 -21q-44 0 -81 21.5zM269 569.5q32 32.5 32 78.5t-32 78t-79 32q-46 0 -78 -32t-32 -78t32 -78.5t78 -32.5q47 0 79 32.5z" />
    <glyph glyph-name="plusminus" unicode="&#xb1;" horiz-adv-x="500" 
d="M461 370v-36q0 -13 -13 -13h-162q-5 0 -5 -5v-158q0 -13 -13 -13h-36q-13 0 -13 13v158q0 5 -5 5h-162q-13 0 -13 13v36q0 13 13 13h162q5 0 5 5v166q0 13 13 13h36q13 0 13 -13v-166q0 -5 5 -5h162q13 0 13 -13zM39 13v36q0 13 13 13h396q13 0 13 -13v-36q0 -13 -13 -13
h-396q-13 0 -13 13z" />
    <glyph glyph-name="uni00B2" unicode="&#xb2;" horiz-adv-x="326" 
d="M36 455v22q0 9 6 16q76 87 132 157q57 68 57 107q0 29 -20.5 47t-53.5 18q-32 0 -52 -18t-19 -48v-11q0 -13 -13 -13h-25q-13 0 -13 13v18q1 47 35.5 75.5t86.5 28.5q56 0 90 -31t34 -78q0 -50 -54 -121q-38 -50 -120 -145q-2 -2 -1 -4t4 -2h171q13 0 13 -13v-18
q0 -13 -13 -13h-232q-13 0 -13 13z" />
    <glyph glyph-name="uni00B3" unicode="&#xb3;" horiz-adv-x="322" 
d="M284 570q0 -41 -14 -71q-14 -31 -42.5 -47.5t-67.5 -16.5q-42 0 -72.5 22t-43.5 60q-5 17 -7 39q0 13 13 13h25q13 0 13 -13q2 -18 4 -24q5 -23 23.5 -37.5t44.5 -14.5q43 0 61 35q12 23 12 56q0 39 -13 62q-18 35 -60 35q-9 0 -16 -3q-6 -2 -8 -2q-5 0 -10 6l-11 14
q-4 8 -4 9q0 3 4 9l97 109q4 6 -2 6h-156q-13 0 -13 13v18q0 13 13 13h214q13 0 13 -13v-22q0 -8 -6 -16l-88 -101q-4 -5 3 -7q56 -7 79 -55q15 -30 15 -76z" />
    <glyph glyph-name="acute" unicode="&#xb4;" horiz-adv-x="200" 
d="M36.5 581.5q-2.5 4.5 1.5 11.5l57 103q4 9 15 9h43q10 0 10 -8q0 -5 -2 -8l-64 -103q-6 -9 -15 -9h-35q-8 0 -10.5 4.5z" />
    <glyph glyph-name="uni00B5" unicode="&#xb5;" horiz-adv-x="546" 
d="M406 506h45q13 0 13 -13v-480q0 -13 -13 -13h-45q-13 0 -13 13v38q0 3 -2 4t-4 -2q-43 -60 -132 -60q-56 0 -98 24q-2 2 -4 1t-2 -4v-201q0 -13 -13 -13h-45q-13 0 -13 13v322v6q-1 5 -1 17v335q0 13 13 13h46q13 0 13 -13v-333q5 -49 36.5 -77t81.5 -28q57 0 90.5 34
t33.5 90v314q0 13 13 13z" />
    <glyph glyph-name="paragraph" unicode="&#xb6;" horiz-adv-x="577" 
d="M472 700q13 0 13 -13v-874q0 -13 -13 -13h-28q-13 0 -13 13v829q0 5 -5 5h-126q-5 0 -5 -5v-829q0 -13 -13 -13h-29q-13 0 -13 13v432q0 5 -5 5q-56 4 -101.5 34.5t-71.5 80t-26 110.5q0 63 28 114.5t78 81t112 29.5h218z" />
    <glyph glyph-name="periodcentered" unicode="&#xb7;" horiz-adv-x="124" 
d="M0.5 20q-17.5 17 -17.5 42q0 24 18.5 41.5t43.5 17.5q24 0 43 -17.5t19 -41.5q0 -25 -18 -42t-44 -17q-27 0 -44.5 17z" />
    <glyph glyph-name="cedilla" unicode="&#xb8;" horiz-adv-x="140" 
d="M2 -166l3 16q1 13 15 10q12 -2 18 -2q42 0 49 36q1 4 1 12q0 36 -47 78q-5 5 -5 9q0 7 11 7h19q10 0 16 -6q58 -46 58 -98q0 -12 -3 -22q-8 -32 -31.5 -46t-54.5 -14q-19 0 -39 5q-12 3 -10 15z" />
    <glyph glyph-name="uni00B9" unicode="&#xb9;" horiz-adv-x="184" 
d="M96 862h30q13 0 13 -13v-394q0 -13 -13 -13h-25q-13 0 -13 13v353q0 2 -2 4t-4 1l-30 -8h-4q-10 0 -10 12v12q0 10 10 15l32 15q6 3 16 3z" />
    <glyph glyph-name="ordmasculine" unicode="&#xba;" horiz-adv-x="349" 
d="M96.5 391q-32.5 24 -46.5 67q-10 31 -10 80t9 80q13 42 46 66t80 24q45 0 77.5 -24t45.5 -66q9 -28 9 -79q0 -53 -9 -81q-13 -42 -45.5 -66.5t-77.5 -24.5q-46 0 -78.5 24zM224.5 427q20.5 17 27.5 45q6 19 6 66q0 46 -5 65q-8 29 -28.5 45.5t-50.5 16.5t-50 -16.5
t-28 -45.5q-6 -22 -6 -65t6 -66q7 -29 28 -45.5t51 -16.5q29 0 49.5 17zM32 261v28q0 13 13 13h259q13 0 13 -13v-28q0 -13 -13 -13h-259q-13 0 -13 13z" />
    <glyph glyph-name="guillemotright" unicode="&#xbb;" horiz-adv-x="540" 
d="M103 115q0 4 3 8l121 154q3 4 0 8l-121 154q-3 5 -3 8q0 8 11 8h42q11 0 16 -8l123 -157q4 -4 4 -9t-4 -9l-123 -157q-5 -8 -16 -8h-42q-11 0 -11 8zM261 115q0 4 3 8l121 154q3 4 0 8l-121 154q-3 5 -3 8q0 8 11 8h42q11 0 16 -8l123 -157q4 -4 4 -9t-4 -9l-123 -157
q-5 -8 -16 -8h-42q-11 0 -11 8z" />
    <glyph glyph-name="onequarter" unicode="&#xbc;" horiz-adv-x="794" 
d="M96 700h30q13 0 13 -13v-394q0 -13 -13 -13h-25q-13 0 -13 13v353q0 2 -2 4t-4 1l-30 -8h-4q-10 0 -10 12v12q0 10 10 15l32 15q6 3 16 3zM106 8q0 5 2 8l423 675q6 9 15 9h27q10 0 10 -8q0 -5 -2 -8l-422 -675q-6 -9 -15 -9h-28q-10 0 -10 8zM759 146v-20q0 -13 -13 -13
h-16q-5 0 -5 -5v-95q0 -13 -13 -13h-25q-13 0 -13 13v95q0 5 -5 5h-171q-13 0 -13 13v18q0 6 4 16l115 250q5 10 15 10h25q8 0 10.5 -4t-0.5 -11l-109 -240q-1 -2 0 -4t3 -2h121q5 0 5 5v84q0 13 13 13h25q13 0 13 -13v-84q0 -5 5 -5h16q13 0 13 -13z" />
    <glyph glyph-name="onehalf" unicode="&#xbd;" horiz-adv-x="783" 
d="M96 700h30q13 0 13 -13v-394q0 -13 -13 -13h-25q-13 0 -13 13v353q0 2 -2 4t-4 1l-30 -8h-4q-10 0 -10 12v12q0 10 10 15l32 15q6 3 16 3zM106 8q0 5 2 8l423 675q6 9 15 9h27q10 0 10 -8q0 -5 -2 -8l-422 -675q-6 -9 -15 -9h-28q-10 0 -10 8zM493 13v22q0 9 6 16
q76 87 132 157q57 68 57 107q0 29 -20.5 47t-53.5 18q-32 0 -52 -18t-19 -48v-11q0 -13 -13 -13h-25q-13 0 -13 13v18q1 47 35.5 75.5t86.5 28.5q56 0 90 -31t34 -78q0 -50 -54 -121q-38 -50 -120 -145q-2 -2 -1 -4t4 -2h171q13 0 13 -13v-18q0 -13 -13 -13h-232
q-13 0 -13 13z" />
    <glyph glyph-name="threequarters" unicode="&#xbe;" horiz-adv-x="894" 
d="M284 416q0 -41 -14 -71q-14 -31 -42.5 -47.5t-67.5 -16.5q-42 0 -72.5 22t-43.5 60q-5 17 -7 39q0 13 13 13h25q13 0 13 -13q2 -18 4 -24q5 -23 23.5 -37.5t44.5 -14.5q43 0 61 35q12 23 12 56q0 39 -13 62q-18 35 -60 35q-9 0 -16 -3q-6 -2 -8 -2q-5 0 -10 6l-11 14
q-4 8 -4 9q0 3 4 9l97 109q4 6 -2 6h-156q-13 0 -13 13v18q0 13 13 13h214q13 0 13 -13v-22q0 -8 -6 -16l-88 -101q-4 -5 3 -7q56 -7 79 -55q15 -30 15 -76zM206 8q0 5 2 8l423 675q6 9 15 9h27q10 0 10 -8q0 -5 -2 -8l-422 -675q-6 -9 -15 -9h-28q-10 0 -10 8zM859 146v-20
q0 -13 -13 -13h-16q-5 0 -5 -5v-95q0 -13 -13 -13h-25q-13 0 -13 13v95q0 5 -5 5h-171q-13 0 -13 13v18q0 6 4 16l115 250q5 10 15 10h25q8 0 10.5 -4t-0.5 -11l-109 -240q-1 -2 0 -4t3 -2h121q5 0 5 5v84q0 13 13 13h25q13 0 13 -13v-84q0 -5 5 -5h16q13 0 13 -13z" />
    <glyph glyph-name="questiondown" unicode="&#xbf;" horiz-adv-x="461" 
d="M287 481.5q17 -16.5 17 -40.5q0 -23 -17.5 -40t-41.5 -17t-42 17t-18 40q0 24 18 40.5t42 16.5q25 0 42 -16.5zM285 287v-56q0 -43 -21 -70t-64 -61q-29 -23 -46 -39.5t-28.5 -39.5t-11.5 -54q0 -50 32 -80.5t85 -30.5q54 0 86.5 31t32.5 81v28q0 12 13 12l45 -2
q13 0 13 -13v-25q0 -79 -53 -128t-139 -49q-84 0 -135 48t-51 128q0 44 14.5 76t34.5 52t53 46q34 26 51 46t17 48v52q0 13 13 13h46q13 0 13 -13z" />
    <glyph glyph-name="Agrave" unicode="&#xc0;" horiz-adv-x="607" 
d="M497 11l-40 122q-2 4 -5 4h-298q-3 0 -5 -4l-39 -122q-3 -11 -14 -11h-48q-7 0 -10 4t-1 11l220 674q3 11 14 11h64q11 0 14 -11l221 -674q1 -2 1 -5q0 -4 -3.5 -7t-8.5 -3h-48q-11 0 -14 11zM175 195h257q6 0 4 6l-130 409q-1 4 -3 4t-3 -4l-129 -409q-1 -6 4 -6z
M325 780q0 -4 -3 -6.5t-8 -2.5h-35q-9 0 -15 9l-64 103q-2 3 -2 8q0 8 10 8h43q10 0 15 -9l57 -103q2 -6 2 -7z" />
    <glyph glyph-name="Aacute" unicode="&#xc1;" horiz-adv-x="607" 
d="M497 11l-40 122q-2 4 -5 4h-298q-3 0 -5 -4l-39 -122q-3 -11 -14 -11h-48q-7 0 -10 4t-1 11l220 674q3 11 14 11h64q11 0 14 -11l221 -674q1 -2 1 -5q0 -4 -3.5 -7t-8.5 -3h-48q-11 0 -14 11zM175 195h257q6 0 4 6l-130 409q-1 4 -3 4t-3 -4l-129 -409q-1 -6 4 -6z
M262.5 775.5q-2.5 4.5 1.5 11.5l57 103q4 9 15 9h43q10 0 10 -8q0 -5 -2 -8l-64 -103q-6 -9 -15 -9h-35q-8 0 -10.5 4.5z" />
    <glyph glyph-name="Acircumflex" unicode="&#xc2;" horiz-adv-x="607" 
d="M497 11l-40 122q-2 4 -5 4h-298q-3 0 -5 -4l-39 -122q-3 -11 -14 -11h-48q-7 0 -10 4t-1 11l220 674q3 11 14 11h64q11 0 14 -11l221 -674q1 -2 1 -5q0 -4 -3.5 -7t-8.5 -3h-48q-11 0 -14 11zM175 195h257q6 0 4 6l-130 409q-1 4 -3 4t-3 -4l-129 -409q-1 -6 4 -6z
M180 772q0 4 3 8l78 102q5 8 16 8h47q11 0 16 -8l79 -102q3 -4 3 -8q0 -8 -11 -8h-32q-10 0 -16 8l-58 80q-2 2 -4 2t-3 -2l-59 -80q-6 -8 -16 -8h-32q-11 0 -11 8z" />
    <glyph glyph-name="Atilde" unicode="&#xc3;" horiz-adv-x="607" 
d="M497 11l-40 122q-2 4 -5 4h-298q-3 0 -5 -4l-39 -122q-3 -11 -14 -11h-48q-7 0 -10 4t-1 11l220 674q3 11 14 11h64q11 0 14 -11l221 -674q1 -2 1 -5q0 -4 -3.5 -7t-8.5 -3h-48q-11 0 -14 11zM175 195h257q6 0 4 6l-130 409q-1 4 -3 4t-3 -4l-129 -409q-1 -6 4 -6z
M335.5 792.5q-14.5 6.5 -30.5 17.5t-25 15.5t-20 4.5q-15 0 -25.5 -5t-21.5 -19q-7 -7 -11 -7t-8 3l-14 10q-5 3 -6 8t2 10q30 50 80 50q16 0 29 -5.5t32 -17.5q17 -11 27.5 -16t21.5 -5q29 0 47 27q7 10 18 4l15 -9q6 -4 6 -10t-6 -15q-16 -24 -37.5 -35.5t-41.5 -11.5
q-17 0 -31.5 6.5z" />
    <glyph glyph-name="Adieresis" unicode="&#xc4;" horiz-adv-x="607" 
d="M497 11l-40 122q-2 4 -5 4h-298q-3 0 -5 -4l-39 -122q-3 -11 -14 -11h-48q-7 0 -10 4t-1 11l220 674q3 11 14 11h64q11 0 14 -11l221 -674q1 -2 1 -5q0 -4 -3.5 -7t-8.5 -3h-48q-11 0 -14 11zM175 195h257q6 0 4 6l-130 409q-1 4 -3 4t-3 -4l-129 -409q-1 -6 4 -6z
M184.5 807q-13.5 13 -13.5 33t13.5 33.5t34.5 13.5q20 0 33 -13.5t13 -33.5t-13 -33t-33 -13q-21 0 -34.5 13zM353 807q-13 13 -13 33t13 33.5t34 13.5t34 -13.5t13 -33.5t-13 -33t-34 -13t-34 13z" />
    <glyph glyph-name="Aring" unicode="&#xc5;" horiz-adv-x="607" 
d="M497 11l-40 122q-2 4 -5 4h-298q-3 0 -5 -4l-39 -122q-3 -11 -14 -11h-48q-7 0 -10 4t-1 11l220 674q3 11 14 11h64q11 0 14 -11l221 -674q1 -2 1 -5q0 -4 -3.5 -7t-8.5 -3h-48q-11 0 -14 11zM175 195h257q6 0 4 6l-130 409q-1 4 -3 4t-3 -4l-129 -409q-1 -6 4 -6z
M227.5 793q-30.5 30 -30.5 73t30.5 72.5t74.5 29.5t74 -29.5t30 -72.5t-30 -73t-74 -30t-74.5 30zM347.5 820.5q18.5 18.5 18.5 45.5t-19 45.5t-45 18.5q-27 0 -46 -18.5t-19 -45.5t19 -45.5t46 -18.5t45.5 18.5z" />
    <glyph glyph-name="AE" unicode="&#xc6;" horiz-adv-x="921" 
d="M850 638h-337q-5 0 -5 -5v-245q0 -5 5 -5h227q13 0 13 -13v-36q0 -13 -13 -13h-227q-5 0 -5 -5v-249q0 -5 5 -5h337q13 0 13 -13v-36q0 -13 -13 -13h-400q-13 0 -13 13v119q0 5 -5 5h-246q-5 0 -6 -4l-64 -124q-4 -9 -16 -9h-51q-8 0 -10.5 4t1.5 11l356 676q5 9 15 9
h439q13 0 13 -13v-36q0 -13 -13 -13zM220 195h212q5 0 5 5v412q0 4 -2 4.5t-4 -2.5l-215 -413q-3 -6 4 -6z" />
    <glyph glyph-name="Ccedilla" unicode="&#xc7;" horiz-adv-x="607" 
d="M529 481l-45 -3h-3q-4 0 -7 2t-3 4v6q0 71 -45 113.5t-119 42.5t-119 -43t-45 -113v-280q0 -70 45 -113t119 -43t119 42.5t45 113.5q0 12 13 11l45 -2q13 0 13 -5v-5q0 -65 -29.5 -114.5t-82.5 -76.5t-123 -27q-3 0 3 -6q48 -44 48 -90q0 -12 -3 -22q-8 -32 -31.5 -46
t-54.5 -14q-19 0 -39 5q-12 3 -10 15l3 16q1 13 15 10q12 -2 18 -2q22 0 36 11.5t14 36.5q0 43 -62 91q-2 2 -3.5 2.5t-2.5 0.5q-77 19 -121.5 75.5t-44.5 138.5v275q0 65 29.5 115t82.5 77.5t123 27.5t123 -27t82.5 -76t29.5 -113v-5q0 -4 -13 -6z" />
    <glyph glyph-name="Egrave" unicode="&#xc8;" horiz-adv-x="605" 
d="M534 638h-364q-5 0 -5 -5v-245q0 -5 5 -5h254q13 0 13 -13v-36q0 -13 -13 -13h-254q-5 0 -5 -5v-249q0 -5 5 -5h364q13 0 13 -13v-36q0 -13 -13 -13h-427q-13 0 -13 13v674q0 13 13 13h427q13 0 13 -13v-36q0 -13 -13 -13zM339 791q0 -4 -3 -6.5t-8 -2.5h-35q-9 0 -15 9
l-64 103q-2 3 -2 8q0 8 10 8h43q10 0 15 -9l57 -103q2 -6 2 -7z" />
    <glyph glyph-name="Eacute" unicode="&#xc9;" horiz-adv-x="605" 
d="M534 638h-364q-5 0 -5 -5v-245q0 -5 5 -5h254q13 0 13 -13v-36q0 -13 -13 -13h-254q-5 0 -5 -5v-249q0 -5 5 -5h364q13 0 13 -13v-36q0 -13 -13 -13h-427q-13 0 -13 13v674q0 13 13 13h427q13 0 13 -13v-36q0 -13 -13 -13zM276.5 786.5q-2.5 4.5 1.5 11.5l57 103
q4 9 15 9h43q10 0 10 -8q0 -5 -2 -8l-64 -103q-6 -9 -15 -9h-35q-8 0 -10.5 4.5z" />
    <glyph glyph-name="Ecircumflex" unicode="&#xca;" horiz-adv-x="605" 
d="M534 638h-364q-5 0 -5 -5v-245q0 -5 5 -5h254q13 0 13 -13v-36q0 -13 -13 -13h-254q-5 0 -5 -5v-249q0 -5 5 -5h364q13 0 13 -13v-36q0 -13 -13 -13h-427q-13 0 -13 13v674q0 13 13 13h427q13 0 13 -13v-36q0 -13 -13 -13zM194 783q0 4 3 8l78 102q5 8 16 8h47
q11 0 16 -8l79 -102q3 -4 3 -8q0 -8 -11 -8h-32q-10 0 -16 8l-58 80q-2 2 -4 2t-3 -2l-59 -80q-6 -8 -16 -8h-32q-11 0 -11 8z" />
    <glyph glyph-name="Edieresis" unicode="&#xcb;" horiz-adv-x="605" 
d="M534 638h-364q-5 0 -5 -5v-245q0 -5 5 -5h254q13 0 13 -13v-36q0 -13 -13 -13h-254q-5 0 -5 -5v-249q0 -5 5 -5h364q13 0 13 -13v-36q0 -13 -13 -13h-427q-13 0 -13 13v674q0 13 13 13h427q13 0 13 -13v-36q0 -13 -13 -13zM198.5 818q-13.5 13 -13.5 33t13.5 33.5
t34.5 13.5q20 0 33 -13.5t13 -33.5t-13 -33t-33 -13q-21 0 -34.5 13zM367 818q-13 13 -13 33t13 33.5t34 13.5t34 -13.5t13 -33.5t-13 -33t-34 -13t-34 13z" />
    <glyph glyph-name="Igrave" unicode="&#xcc;" horiz-adv-x="259" 
d="M94 13v674q0 13 13 13h45q13 0 13 -13v-674q0 -13 -13 -13h-45q-13 0 -13 13zM152 791q0 -4 -3 -6.5t-8 -2.5h-35q-9 0 -15 9l-64 103q-2 3 -2 8q0 8 10 8h43q10 0 15 -9l57 -103q2 -6 2 -7z" />
    <glyph glyph-name="Iacute" unicode="&#xcd;" horiz-adv-x="259" 
d="M94 13v674q0 13 13 13h45q13 0 13 -13v-674q0 -13 -13 -13h-45q-13 0 -13 13zM89.5 786.5q-2.5 4.5 1.5 11.5l57 103q4 9 15 9h43q10 0 10 -8q0 -5 -2 -8l-64 -103q-6 -9 -15 -9h-35q-8 0 -10.5 4.5z" />
    <glyph glyph-name="Icircumflex" unicode="&#xce;" horiz-adv-x="259" 
d="M94 13v674q0 13 13 13h45q13 0 13 -13v-674q0 -13 -13 -13h-45q-13 0 -13 13zM7 783q0 4 3 8l78 102q5 8 16 8h47q11 0 16 -8l79 -102q3 -4 3 -8q0 -8 -11 -8h-32q-10 0 -16 8l-58 80q-2 2 -4 2t-3 -2l-59 -80q-6 -8 -16 -8h-32q-11 0 -11 8z" />
    <glyph glyph-name="Idieresis" unicode="&#xcf;" horiz-adv-x="259" 
d="M94 13v674q0 13 13 13h45q13 0 13 -13v-674q0 -13 -13 -13h-45q-13 0 -13 13zM10.5 818q-13.5 13 -13.5 33t13.5 33.5t34.5 13.5q20 0 33 -13.5t13 -33.5t-13 -33t-33 -13q-21 0 -34.5 13zM179 818q-13 13 -13 33t13 33.5t34 13.5t34 -13.5t13 -33.5t-13 -33t-34 -13
t-34 13z" />
    <glyph glyph-name="Eth" unicode="&#xd0;" horiz-adv-x="683" 
d="M562.5 648q58.5 -52 58.5 -141v-314q0 -89 -58.5 -141t-157.5 -52h-233q-13 0 -13 13v320q0 5 -5 5h-47q-13 0 -13 13v26q0 13 13 13h47q5 0 5 5v292q0 13 13 13h233q99 0 157.5 -52zM550 497q0 65 -38 103t-104 38h-173q-5 0 -5 -5v-238q0 -5 5 -5h115q13 0 13 -13v-26
q0 -13 -13 -13h-115q-5 0 -5 -5v-266q0 -5 5 -5h173q65 0 103.5 38t38.5 102v295z" />
    <glyph glyph-name="Ntilde" unicode="&#xd1;" horiz-adv-x="673" 
d="M94 13v674q0 13 13 13h45q9 0 15 -9l336 -544q2 -3 4 -2.5t2 4.5v538q0 13 13 13h45q13 0 13 -13v-674q0 -13 -13 -13h-45q-9 0 -15 9l-337 546q-2 3 -4 2.5t-2 -4.5l1 -540q0 -13 -13 -13h-45q-13 0 -13 13zM368.5 803.5q-14.5 6.5 -30.5 17.5t-25 15.5t-20 4.5
q-15 0 -25.5 -5t-21.5 -19q-7 -7 -11 -7t-8 3l-14 10q-5 3 -6 8t2 10q30 50 80 50q16 0 29 -5.5t32 -17.5q17 -11 27.5 -16t21.5 -5q29 0 47 27q7 10 18 4l15 -9q6 -4 6 -10t-6 -15q-16 -24 -37.5 -35.5t-41.5 -11.5q-17 0 -31.5 6.5z" />
    <glyph glyph-name="Ograve" unicode="&#xd2;" horiz-adv-x="622" 
d="M185 21q-54 29 -83.5 81.5t-29.5 121.5v252q0 69 29.5 121.5t83.5 81.5t125 29t125.5 -29t84 -81.5t29.5 -121.5v-252q0 -69 -29.5 -121.5t-84 -81.5t-125.5 -29t-125 29zM432 99q46 46 46 122v256q0 76 -46 122.5t-122 46.5q-75 0 -121 -46.5t-46 -122.5v-256
q0 -76 46 -122t121 -46q76 0 122 46zM333 788q0 -4 -3 -6.5t-8 -2.5h-35q-9 0 -15 9l-64 103q-2 3 -2 8q0 8 10 8h43q10 0 15 -9l57 -103q2 -6 2 -7z" />
    <glyph glyph-name="Oacute" unicode="&#xd3;" horiz-adv-x="622" 
d="M185 21q-54 29 -83.5 81.5t-29.5 121.5v252q0 69 29.5 121.5t83.5 81.5t125 29t125.5 -29t84 -81.5t29.5 -121.5v-252q0 -69 -29.5 -121.5t-84 -81.5t-125.5 -29t-125 29zM432 99q46 46 46 122v256q0 76 -46 122.5t-122 46.5q-75 0 -121 -46.5t-46 -122.5v-256
q0 -76 46 -122t121 -46q76 0 122 46zM270.5 783.5q-2.5 4.5 1.5 11.5l57 103q4 9 15 9h43q10 0 10 -8q0 -5 -2 -8l-64 -103q-6 -9 -15 -9h-35q-8 0 -10.5 4.5z" />
    <glyph glyph-name="Ocircumflex" unicode="&#xd4;" horiz-adv-x="622" 
d="M185 21q-54 29 -83.5 81.5t-29.5 121.5v252q0 69 29.5 121.5t83.5 81.5t125 29t125.5 -29t84 -81.5t29.5 -121.5v-252q0 -69 -29.5 -121.5t-84 -81.5t-125.5 -29t-125 29zM432 99q46 46 46 122v256q0 76 -46 122.5t-122 46.5q-75 0 -121 -46.5t-46 -122.5v-256
q0 -76 46 -122t121 -46q76 0 122 46zM188 780q0 4 3 8l78 102q5 8 16 8h47q11 0 16 -8l79 -102q3 -4 3 -8q0 -8 -11 -8h-32q-10 0 -16 8l-58 80q-2 2 -4 2t-3 -2l-59 -80q-6 -8 -16 -8h-32q-11 0 -11 8z" />
    <glyph glyph-name="Otilde" unicode="&#xd5;" horiz-adv-x="622" 
d="M185 21q-54 29 -83.5 81.5t-29.5 121.5v252q0 69 29.5 121.5t83.5 81.5t125 29t125.5 -29t84 -81.5t29.5 -121.5v-252q0 -69 -29.5 -121.5t-84 -81.5t-125.5 -29t-125 29zM432 99q46 46 46 122v256q0 76 -46 122.5t-122 46.5q-75 0 -121 -46.5t-46 -122.5v-256
q0 -76 46 -122t121 -46q76 0 122 46zM343.5 800.5q-14.5 6.5 -30.5 17.5t-25 15.5t-20 4.5q-15 0 -25.5 -5t-21.5 -19q-7 -7 -11 -7t-8 3l-14 10q-5 3 -6 8t2 10q30 50 80 50q16 0 29 -5.5t32 -17.5q17 -11 27.5 -16t21.5 -5q29 0 47 27q7 10 18 4l15 -9q6 -4 6 -10t-6 -15
q-16 -24 -37.5 -35.5t-41.5 -11.5q-17 0 -31.5 6.5z" />
    <glyph glyph-name="Odieresis" unicode="&#xd6;" horiz-adv-x="622" 
d="M185 21q-54 29 -83.5 81.5t-29.5 121.5v252q0 69 29.5 121.5t83.5 81.5t125 29t125.5 -29t84 -81.5t29.5 -121.5v-252q0 -69 -29.5 -121.5t-84 -81.5t-125.5 -29t-125 29zM432 99q46 46 46 122v256q0 76 -46 122.5t-122 46.5q-75 0 -121 -46.5t-46 -122.5v-256
q0 -76 46 -122t121 -46q76 0 122 46zM192.5 815q-13.5 13 -13.5 33t13.5 33.5t34.5 13.5q20 0 33 -13.5t13 -33.5t-13 -33t-33 -13q-21 0 -34.5 13zM361 815q-13 13 -13 33t13 33.5t34 13.5t34 -13.5t13 -33.5t-13 -33t-34 -13t-34 13z" />
    <glyph glyph-name="multiply" unicode="&#xd7;" horiz-adv-x="422" 
d="M380 445q0 -4 -5 -9l-114 -114q-2 -2 -2 -4t2 -4l111 -111q5 -5 5 -9t-5 -9l-26 -26q-4 -4 -9 -4t-9 4l-111 111q-4 4 -8 0l-115 -114q-4 -4 -9 -4t-9 4l-26 26q-4 4 -4 9t4 9l115 114q4 4 0 8l-117 117q-4 4 -4 9t4 9l25 26q5 5 9 5t9 -5l118 -117q4 -4 8 0l114 114
q5 5 9 5t9 -5l26 -26q5 -5 5 -9z" />
    <glyph glyph-name="Oslash" unicode="&#xd8;" horiz-adv-x="627" 
d="M474 657q38 -31 59 -77.5t21 -103.5v-252q0 -69 -29.5 -121.5t-84 -81.5t-125.5 -29q-80 0 -139 37q-1 2 -3 1t-3 -3l-27 -56q-5 -10 -16 -10h-29q-7 0 -10 4t0 11l41 87q2 4 -1 7q-51 64 -51 154v252q0 69 29.5 121.5t83.5 81.5t125 29q58 0 106 -20q5 -2 6 2l21 45
q5 10 16 10h30q8 0 10.5 -4t-0.5 -11l-32 -66q-2 -4 2 -7zM163 146q1 -3 3 -3t3 3l226 478q1 4 -2 6q-33 16 -78 16q-75 0 -121 -46.5t-46 -122.5v-256q0 -42 15 -75zM483 477q0 70 -39 114q-1 2 -3.5 1.5t-3.5 -2.5l-234 -493q-2 -4 1 -7q43 -37 111 -37q76 0 122 46
t46 122v256z" />
    <glyph glyph-name="Ugrave" unicode="&#xd9;" horiz-adv-x="648" 
d="M200 20q-54 28 -84 78.5t-30 117.5v471q0 13 13 13h45q13 0 13 -13v-473q0 -71 46 -115.5t121 -44.5t121 44.5t46 115.5v473q0 13 13 13h45q13 0 13 -13v-471q0 -67 -29.5 -117.5t-83.5 -78.5t-125 -28q-70 0 -124 28zM347 792q0 -4 -3 -6.5t-8 -2.5h-35q-9 0 -15 9
l-64 103q-2 3 -2 8q0 8 10 8h43q10 0 15 -9l57 -103q2 -6 2 -7z" />
    <glyph glyph-name="Uacute" unicode="&#xda;" horiz-adv-x="648" 
d="M200 20q-54 28 -84 78.5t-30 117.5v471q0 13 13 13h45q13 0 13 -13v-473q0 -71 46 -115.5t121 -44.5t121 44.5t46 115.5v473q0 13 13 13h45q13 0 13 -13v-471q0 -67 -29.5 -117.5t-83.5 -78.5t-125 -28q-70 0 -124 28zM284.5 787.5q-2.5 4.5 1.5 11.5l57 103q4 9 15 9h43
q10 0 10 -8q0 -5 -2 -8l-64 -103q-6 -9 -15 -9h-35q-8 0 -10.5 4.5z" />
    <glyph glyph-name="Ucircumflex" unicode="&#xdb;" horiz-adv-x="648" 
d="M200 20q-54 28 -84 78.5t-30 117.5v471q0 13 13 13h45q13 0 13 -13v-473q0 -71 46 -115.5t121 -44.5t121 44.5t46 115.5v473q0 13 13 13h45q13 0 13 -13v-471q0 -67 -29.5 -117.5t-83.5 -78.5t-125 -28q-70 0 -124 28zM202 784q0 4 3 8l78 102q5 8 16 8h47q11 0 16 -8
l79 -102q3 -4 3 -8q0 -8 -11 -8h-32q-10 0 -16 8l-58 80q-2 2 -4 2t-3 -2l-59 -80q-6 -8 -16 -8h-32q-11 0 -11 8z" />
    <glyph glyph-name="Udieresis" unicode="&#xdc;" horiz-adv-x="648" 
d="M200 20q-54 28 -84 78.5t-30 117.5v471q0 13 13 13h45q13 0 13 -13v-473q0 -71 46 -115.5t121 -44.5t121 44.5t46 115.5v473q0 13 13 13h45q13 0 13 -13v-471q0 -67 -29.5 -117.5t-83.5 -78.5t-125 -28q-70 0 -124 28zM206.5 819q-13.5 13 -13.5 33t13.5 33.5t34.5 13.5
q20 0 33 -13.5t13 -33.5t-13 -33t-33 -13q-21 0 -34.5 13zM375 819q-13 13 -13 33t13 33.5t34 13.5t34 -13.5t13 -33.5t-13 -33t-34 -13t-34 13z" />
    <glyph glyph-name="Yacute" unicode="&#xdd;" horiz-adv-x="567" 
d="M248 14v293q0 2 -2 6l-205 371q-2 6 -2 7q0 4 3 6.5t8 2.5h48q11 0 15 -9l167 -302q3 -4 6 0l168 302q5 9 15 9h48q8 0 10.5 -4.5t-1.5 -11.5l-205 -371q-2 -4 -2 -6v-293q0 -13 -13 -13h-45q-13 0 -13 13zM243.5 774.5q-2.5 4.5 1.5 11.5l57 103q4 9 15 9h43q10 0 10 -8
q0 -5 -2 -8l-64 -103q-6 -9 -15 -9h-35q-8 0 -10.5 4.5z" />
    <glyph glyph-name="Thorn" unicode="&#xde;" horiz-adv-x="567" 
d="M477 489.5q54 -53.5 54 -140.5q0 -57 -25.5 -100.5t-70.5 -67.5t-102 -24h-170q-5 0 -5 -5v-139q0 -13 -13 -13h-45q-13 0 -13 13v674q0 13 13 13h45q13 0 13 -13v-139q0 -5 5 -5h172q88 0 142 -53.5zM424 252q36 36 36 96q0 61 -36 97t-96 36h-165q-5 0 -5 -5v-255
q0 -5 5 -5h165q60 0 96 36z" />
    <glyph glyph-name="germandbls" unicode="&#xdf;" horiz-adv-x="589" 
d="M80 13v497q1 92 59.5 145.5t153.5 53.5q106 0 165 -49.5t59 -137.5q0 -53 -22 -90.5t-65 -55.5q-6 -3 0 -6q43 -19 68.5 -65t25.5 -110q0 -93 -61 -144t-181 -51h-66q-13 0 -13 13v35q0 13 13 13h74q81 0 122 36.5t41 103.5q0 69 -36 105.5t-107 37.5h-70q-13 0 -13 13
v31q0 13 13 13h72q66 0 100 30.5t34 86.5q0 61 -37 95t-112 34q-61 0 -103 -35.5t-43 -96.5v-502q0 -13 -13 -13h-45q-13 0 -13 13z" />
    <glyph glyph-name="agrave" unicode="&#xe0;" horiz-adv-x="511" 
d="M394.5 468q49.5 -46 49.5 -122v-333q0 -13 -13 -13h-45q-13 0 -13 13v36q0 3 -2 4t-4 -2q-27 -29 -67.5 -44t-88.5 -15q-70 0 -117.5 36t-47.5 110q0 75 54.5 118.5t151.5 43.5h116q5 0 5 5v37q0 51 -28.5 80.5t-88.5 29.5q-47 0 -77 -18t-38 -50q-3 -12 -15 -10l-49 6
q-13 2 -12 11q10 55 61.5 89t128.5 34q90 0 139.5 -46zM329.5 82.5q43.5 29.5 43.5 79.5v77q0 5 -5 5h-105q-66 0 -106 -27t-40 -75q0 -44 31 -66.5t79 -22.5q59 0 102.5 29.5zM279 594q0 -4 -3 -6.5t-8 -2.5h-35q-9 0 -15 9l-64 103q-2 3 -2 8q0 8 10 8h43q10 0 15 -9
l57 -103q2 -6 2 -7z" />
    <glyph glyph-name="aacute" unicode="&#xe1;" horiz-adv-x="511" 
d="M394.5 468q49.5 -46 49.5 -122v-333q0 -13 -13 -13h-45q-13 0 -13 13v36q0 3 -2 4t-4 -2q-27 -29 -67.5 -44t-88.5 -15q-70 0 -117.5 36t-47.5 110q0 75 54.5 118.5t151.5 43.5h116q5 0 5 5v37q0 51 -28.5 80.5t-88.5 29.5q-47 0 -77 -18t-38 -50q-3 -12 -15 -10l-49 6
q-13 2 -12 11q10 55 61.5 89t128.5 34q90 0 139.5 -46zM329.5 82.5q43.5 29.5 43.5 79.5v77q0 5 -5 5h-105q-66 0 -106 -27t-40 -75q0 -44 31 -66.5t79 -22.5q59 0 102.5 29.5zM216.5 589.5q-2.5 4.5 1.5 11.5l57 103q4 9 15 9h43q10 0 10 -8q0 -5 -2 -8l-64 -103
q-6 -9 -15 -9h-35q-8 0 -10.5 4.5z" />
    <glyph glyph-name="acircumflex" unicode="&#xe2;" horiz-adv-x="511" 
d="M394.5 468q49.5 -46 49.5 -122v-333q0 -13 -13 -13h-45q-13 0 -13 13v36q0 3 -2 4t-4 -2q-27 -29 -67.5 -44t-88.5 -15q-70 0 -117.5 36t-47.5 110q0 75 54.5 118.5t151.5 43.5h116q5 0 5 5v37q0 51 -28.5 80.5t-88.5 29.5q-47 0 -77 -18t-38 -50q-3 -12 -15 -10l-49 6
q-13 2 -12 11q10 55 61.5 89t128.5 34q90 0 139.5 -46zM329.5 82.5q43.5 29.5 43.5 79.5v77q0 5 -5 5h-105q-66 0 -106 -27t-40 -75q0 -44 31 -66.5t79 -22.5q59 0 102.5 29.5zM134 586q0 4 3 8l78 102q5 8 16 8h47q11 0 16 -8l79 -102q3 -4 3 -8q0 -8 -11 -8h-32
q-10 0 -16 8l-58 80q-2 2 -4 2t-3 -2l-59 -80q-6 -8 -16 -8h-32q-11 0 -11 8z" />
    <glyph glyph-name="atilde" unicode="&#xe3;" horiz-adv-x="511" 
d="M394.5 468q49.5 -46 49.5 -122v-333q0 -13 -13 -13h-45q-13 0 -13 13v36q0 3 -2 4t-4 -2q-27 -29 -67.5 -44t-88.5 -15q-70 0 -117.5 36t-47.5 110q0 75 54.5 118.5t151.5 43.5h116q5 0 5 5v37q0 51 -28.5 80.5t-88.5 29.5q-47 0 -77 -18t-38 -50q-3 -12 -15 -10l-49 6
q-13 2 -12 11q10 55 61.5 89t128.5 34q90 0 139.5 -46zM329.5 82.5q43.5 29.5 43.5 79.5v77q0 5 -5 5h-105q-66 0 -106 -27t-40 -75q0 -44 31 -66.5t79 -22.5q59 0 102.5 29.5zM289.5 606.5q-14.5 6.5 -30.5 17.5t-25 15.5t-20 4.5q-15 0 -25.5 -5t-21.5 -19q-7 -7 -11 -7
t-8 3l-14 10q-5 3 -6 8t2 10q30 50 80 50q16 0 29 -5.5t32 -17.5q17 -11 27.5 -16t21.5 -5q29 0 47 27q7 10 18 4l15 -9q6 -4 6 -10t-6 -15q-16 -24 -37.5 -35.5t-41.5 -11.5q-17 0 -31.5 6.5z" />
    <glyph glyph-name="adieresis" unicode="&#xe4;" horiz-adv-x="511" 
d="M394.5 468q49.5 -46 49.5 -122v-333q0 -13 -13 -13h-45q-13 0 -13 13v36q0 3 -2 4t-4 -2q-27 -29 -67.5 -44t-88.5 -15q-70 0 -117.5 36t-47.5 110q0 75 54.5 118.5t151.5 43.5h116q5 0 5 5v37q0 51 -28.5 80.5t-88.5 29.5q-47 0 -77 -18t-38 -50q-3 -12 -15 -10l-49 6
q-13 2 -12 11q10 55 61.5 89t128.5 34q90 0 139.5 -46zM329.5 82.5q43.5 29.5 43.5 79.5v77q0 5 -5 5h-105q-66 0 -106 -27t-40 -75q0 -44 31 -66.5t79 -22.5q59 0 102.5 29.5zM138.5 621q-13.5 13 -13.5 33t13.5 33.5t34.5 13.5q20 0 33 -13.5t13 -33.5t-13 -33t-33 -13
q-21 0 -34.5 13zM307 621q-13 13 -13 33t13 33.5t34 13.5t34 -13.5t13 -33.5t-13 -33t-34 -13t-34 13z" />
    <glyph glyph-name="aring" unicode="&#xe5;" horiz-adv-x="511" 
d="M394.5 468q49.5 -46 49.5 -122v-333q0 -13 -13 -13h-45q-13 0 -13 13v36q0 3 -2 4t-4 -2q-27 -29 -67.5 -44t-88.5 -15q-70 0 -117.5 36t-47.5 110q0 75 54.5 118.5t151.5 43.5h116q5 0 5 5v37q0 51 -28.5 80.5t-88.5 29.5q-47 0 -77 -18t-38 -50q-3 -12 -15 -10l-49 6
q-13 2 -12 11q10 55 61.5 89t128.5 34q90 0 139.5 -46zM329.5 82.5q43.5 29.5 43.5 79.5v77q0 5 -5 5h-105q-66 0 -106 -27t-40 -75q0 -44 31 -66.5t79 -22.5q59 0 102.5 29.5zM181.5 607q-30.5 30 -30.5 73t30.5 72.5t74.5 29.5t74 -29.5t30 -72.5t-30 -73t-74 -30
t-74.5 30zM301.5 634.5q18.5 18.5 18.5 45.5t-19 45.5t-45 18.5q-27 0 -46 -18.5t-19 -45.5t19 -45.5t46 -18.5t45.5 18.5z" />
    <glyph glyph-name="ae" unicode="&#xe6;" horiz-adv-x="833" 
d="M96 26q-50 34 -50 106q0 74 54.5 116t151.5 42h116q5 0 5 5v42q0 52 -29.5 83.5t-90.5 31.5q-46 0 -77 -18t-39 -50q-3 -12 -15 -10l-45 5q-6 1 -9 5t-2 10q11 53 62 86.5t124 33.5q59 0 101 -24.5t58 -62.5q3 -6 6 0q20 37 62 62t95 25q68 0 120.5 -37.5t68.5 -100.5
q5 -20 7 -47t2 -85q0 -14 -13 -14h-309q-5 0 -5 -5q0 -14 2 -62q2 -50 40.5 -77t96.5 -27q45 0 76 18.5t48 52.5q2 6 7 7.5t10 -1.5l29 -16q11 -7 7 -17q-21 -48 -70.5 -79.5t-115.5 -31.5q-56 0 -99 22.5t-63 61.5q-4 5 -5 1q-21 -40 -71.5 -62.5t-113.5 -22.5
q-77 0 -127 34zM450 290h247q5 0 5 5q-2 46 -5 59q-8 43 -42 70.5t-82 27.5t-81.5 -27t-42.5 -71q-4 -19 -4 -59q0 -5 5 -5zM330.5 77.5q42.5 28.5 42.5 82.5v65q0 5 -5 5h-105q-67 0 -106.5 -23.5t-39.5 -68.5q0 -42 31.5 -65.5t81.5 -23.5q58 0 100.5 28.5z" />
    <glyph glyph-name="ccedilla" unicode="&#xe7;" horiz-adv-x="520" 
d="M400 149l1 1q1 13 15 11l43 -7q13 -2 12 -15l-4 -17q-14 -53 -60.5 -88t-110.5 -40q-3 -1 -3.5 -3t1.5 -3q50 -44 50 -92q0 -12 -3 -22q-8 -32 -31.5 -46t-54.5 -14q-19 0 -39 5q-12 3 -10 15l3 16q1 13 15 10q12 -2 18 -2q42 0 49 36q1 4 1 12q0 40 -56 87l-6 3
q-57 9 -96.5 44.5t-56.5 90.5q-13 44 -13 124q0 72 13 122q18 62 70 99.5t124 37.5q73 0 126.5 -37t69.5 -92q4 -14 6 -27v-2q0 -11 -12 -13l-44 -5h-3q-9 0 -12 11q0 4 -2 12q-9 38 -44 64.5t-85 26.5t-83.5 -26.5t-43.5 -70.5q-9 -38 -9 -101q0 -66 9 -102
q10 -45 43.5 -71.5t83.5 -26.5q49 0 84.5 25.5t43.5 64.5q1 2 1 5z" />
    <glyph glyph-name="egrave" unicode="&#xe8;" horiz-adv-x="534" 
d="M354.5 73.5q32.5 19.5 50.5 54.5q2 5 7 7t10 -1l29 -16q12 -7 6 -17q-24 -50 -72 -79.5t-114 -29.5q-70 0 -118 33t-69 92q-19 50 -19 138q0 43 1.5 68.5t7.5 47.5q17 65 68.5 104t124.5 39q87 0 136.5 -45t63.5 -127q6 -32 6 -100q0 -13 -13 -13h-320q-5 0 -5 -5
q0 -50 6 -73q11 -45 46.5 -71.5t89.5 -26.5q45 1 77.5 20.5zM185 426.5q-32 -25.5 -42 -68.5q-6 -20 -8 -68q0 -5 5 -5h257q5 0 5 5q-2 44 -6 64q-11 45 -44.5 71.5t-84.5 26.5q-50 0 -82 -25.5zM289 594q0 -4 -3 -6.5t-8 -2.5h-35q-9 0 -15 9l-64 103q-2 3 -2 8q0 8 10 8
h43q10 0 15 -9l57 -103q2 -6 2 -7z" />
    <glyph glyph-name="eacute" unicode="&#xe9;" horiz-adv-x="534" 
d="M354.5 73.5q32.5 19.5 50.5 54.5q2 5 7 7t10 -1l29 -16q12 -7 6 -17q-24 -50 -72 -79.5t-114 -29.5q-70 0 -118 33t-69 92q-19 50 -19 138q0 43 1.5 68.5t7.5 47.5q17 65 68.5 104t124.5 39q87 0 136.5 -45t63.5 -127q6 -32 6 -100q0 -13 -13 -13h-320q-5 0 -5 -5
q0 -50 6 -73q11 -45 46.5 -71.5t89.5 -26.5q45 1 77.5 20.5zM185 426.5q-32 -25.5 -42 -68.5q-6 -20 -8 -68q0 -5 5 -5h257q5 0 5 5q-2 44 -6 64q-11 45 -44.5 71.5t-84.5 26.5q-50 0 -82 -25.5zM226.5 589.5q-2.5 4.5 1.5 11.5l57 103q4 9 15 9h43q10 0 10 -8q0 -5 -2 -8
l-64 -103q-6 -9 -15 -9h-35q-8 0 -10.5 4.5z" />
    <glyph glyph-name="ecircumflex" unicode="&#xea;" horiz-adv-x="534" 
d="M354.5 73.5q32.5 19.5 50.5 54.5q2 5 7 7t10 -1l29 -16q12 -7 6 -17q-24 -50 -72 -79.5t-114 -29.5q-70 0 -118 33t-69 92q-19 50 -19 138q0 43 1.5 68.5t7.5 47.5q17 65 68.5 104t124.5 39q87 0 136.5 -45t63.5 -127q6 -32 6 -100q0 -13 -13 -13h-320q-5 0 -5 -5
q0 -50 6 -73q11 -45 46.5 -71.5t89.5 -26.5q45 1 77.5 20.5zM185 426.5q-32 -25.5 -42 -68.5q-6 -20 -8 -68q0 -5 5 -5h257q5 0 5 5q-2 44 -6 64q-11 45 -44.5 71.5t-84.5 26.5q-50 0 -82 -25.5zM144 586q0 4 3 8l78 102q5 8 16 8h47q11 0 16 -8l79 -102q3 -4 3 -8
q0 -8 -11 -8h-32q-10 0 -16 8l-58 80q-2 2 -4 2t-3 -2l-59 -80q-6 -8 -16 -8h-32q-11 0 -11 8z" />
    <glyph glyph-name="edieresis" unicode="&#xeb;" horiz-adv-x="534" 
d="M354.5 73.5q32.5 19.5 50.5 54.5q2 5 7 7t10 -1l29 -16q12 -7 6 -17q-24 -50 -72 -79.5t-114 -29.5q-70 0 -118 33t-69 92q-19 50 -19 138q0 43 1.5 68.5t7.5 47.5q17 65 68.5 104t124.5 39q87 0 136.5 -45t63.5 -127q6 -32 6 -100q0 -13 -13 -13h-320q-5 0 -5 -5
q0 -50 6 -73q11 -45 46.5 -71.5t89.5 -26.5q45 1 77.5 20.5zM185 426.5q-32 -25.5 -42 -68.5q-6 -20 -8 -68q0 -5 5 -5h257q5 0 5 5q-2 44 -6 64q-11 45 -44.5 71.5t-84.5 26.5q-50 0 -82 -25.5zM148.5 621q-13.5 13 -13.5 33t13.5 33.5t34.5 13.5q20 0 33 -13.5t13 -33.5
t-13 -33t-33 -13q-21 0 -34.5 13zM317 621q-13 13 -13 33t13 33.5t34 13.5t34 -13.5t13 -33.5t-13 -33t-34 -13t-34 13z" />
    <glyph glyph-name="igrave" unicode="&#xec;" horiz-adv-x="221" 
d="M74 13v480q0 13 13 13h45q13 0 13 -13v-480q0 -13 -13 -13h-45q-13 0 -13 13zM131 596q0 -4 -3 -6.5t-8 -2.5h-35q-9 0 -15 9l-64 103q-2 3 -2 8q0 8 10 8h43q10 0 15 -9l57 -103q2 -6 2 -7z" />
    <glyph glyph-name="iacute" unicode="&#xed;" horiz-adv-x="221" 
d="M74 13v480q0 13 13 13h45q13 0 13 -13v-480q0 -13 -13 -13h-45q-13 0 -13 13zM68.5 591.5q-2.5 4.5 1.5 11.5l57 103q4 9 15 9h43q10 0 10 -8q0 -5 -2 -8l-64 -103q-6 -9 -15 -9h-35q-8 0 -10.5 4.5z" />
    <glyph glyph-name="icircumflex" unicode="&#xee;" horiz-adv-x="221" 
d="M74 13v480q0 13 13 13h45q13 0 13 -13v-480q0 -13 -13 -13h-45q-13 0 -13 13zM-14 588q0 4 3 8l78 102q5 8 16 8h47q11 0 16 -8l79 -102q3 -4 3 -8q0 -8 -11 -8h-32q-10 0 -16 8l-58 80q-2 2 -4 2t-3 -2l-59 -80q-6 -8 -16 -8h-32q-11 0 -11 8z" />
    <glyph glyph-name="idieresis" unicode="&#xef;" horiz-adv-x="287" 
d="M110 13v480q0 13 13 13h45q13 0 13 -13v-480q0 -13 -13 -13h-45q-13 0 -13 13zM23.5 623q-13.5 13 -13.5 33t13.5 33.5t34.5 13.5q20 0 33 -13.5t13 -33.5t-13 -33t-33 -13q-21 0 -34.5 13zM192 623q-13 13 -13 33t13 33.5t34 13.5t34 -13.5t13 -33.5t-13 -33t-34 -13
t-34 13z" />
    <glyph glyph-name="eth" unicode="&#xf0;" horiz-adv-x="526" 
d="M460 244q0 -46 -2 -72t-8 -47q-18 -60 -69 -96.5t-122 -36.5q-70 0 -120.5 36.5t-68.5 96.5q-7 22 -9 49t-2 70q0 42 2.5 69t8.5 49q13 49 51 81.5t92 37.5q17 3 35 3q32 0 62.5 -8.5t50.5 -23.5q2 -2 3 -1.5t0 3.5q-19 59 -65 116q-4 4 -7 2l-88 -26q-2 -1 -6 -1
q-7 0 -10 10l-5 17l-1 5q0 8 10 11l67 19q5 2 2 7q-24 26 -74 70q-5 4 -5 9q0 7 11 7h49q9 0 16 -7q42 -40 63 -63q4 -4 7 -2l74 22q2 1 6 1q9 0 10 -10l5 -17l1 -4q0 -9 -10 -12l-52 -15q-6 -2 -3 -6q39 -48 63.5 -103.5t30.5 -128.5q7 -45 7 -111zM388 242q0 73 -6 96
q-10 43 -43 69.5t-80 26.5t-79.5 -26t-42.5 -70q-6 -24 -6 -96q0 -75 7 -98q9 -43 41.5 -69.5t79.5 -26.5t80 26.5t43 69.5q6 24 6 98z" />
    <glyph glyph-name="ntilde" unicode="&#xf1;" horiz-adv-x="539" 
d="M416.5 466q47.5 -47 47.5 -126v-327q0 -13 -13 -13h-45q-13 0 -13 13v313q0 56 -33 90.5t-86 34.5q-51 0 -84.5 -29t-38.5 -76v-333q0 -13 -13 -13h-45q-13 0 -13 13v480q0 13 13 13h45q13 0 13 -13v-37q0 -3 2 -4.5t3 1.5q44 60 134 60q79 0 126.5 -47zM304.5 598.5
q-14.5 6.5 -30.5 17.5t-25 15.5t-20 4.5q-15 0 -25.5 -5t-21.5 -19q-7 -7 -11 -7t-8 3l-14 10q-5 3 -6 8t2 10q30 50 80 50q16 0 29 -5.5t32 -17.5q17 -11 27.5 -16t21.5 -5q29 0 47 27q7 10 18 4l15 -9q6 -4 6 -10t-6 -15q-16 -24 -37.5 -35.5t-41.5 -11.5q-17 0 -31.5 6.5
z" />
    <glyph glyph-name="ograve" unicode="&#xf2;" horiz-adv-x="546" 
d="M149.5 29q-51.5 37 -71.5 102q-14 46 -14 123q0 76 13 122q20 64 71.5 101t125.5 37q72 0 123.5 -37t70.5 -100q14 -48 14 -123q0 -77 -14 -123q-20 -65 -71.5 -102t-122.5 -37q-73 0 -124.5 37zM356 80.5q34 26.5 46 71.5q8 32 8 101q0 72 -8 101q-11 45 -45.5 71.5
t-84.5 26.5q-48 0 -82 -26.5t-46 -71.5q-8 -29 -8 -101t8 -101q11 -45 45.5 -71.5t84.5 -26.5q48 0 82 26.5zM295 594q0 -4 -3 -6.5t-8 -2.5h-35q-9 0 -15 9l-64 103q-2 3 -2 8q0 8 10 8h43q10 0 15 -9l57 -103q2 -6 2 -7z" />
    <glyph glyph-name="oacute" unicode="&#xf3;" horiz-adv-x="546" 
d="M149.5 29q-51.5 37 -71.5 102q-14 46 -14 123q0 76 13 122q20 64 71.5 101t125.5 37q72 0 123.5 -37t70.5 -100q14 -48 14 -123q0 -77 -14 -123q-20 -65 -71.5 -102t-122.5 -37q-73 0 -124.5 37zM356 80.5q34 26.5 46 71.5q8 32 8 101q0 72 -8 101q-11 45 -45.5 71.5
t-84.5 26.5q-48 0 -82 -26.5t-46 -71.5q-8 -29 -8 -101t8 -101q11 -45 45.5 -71.5t84.5 -26.5q48 0 82 26.5zM232.5 589.5q-2.5 4.5 1.5 11.5l57 103q4 9 15 9h43q10 0 10 -8q0 -5 -2 -8l-64 -103q-6 -9 -15 -9h-35q-8 0 -10.5 4.5z" />
    <glyph glyph-name="ocircumflex" unicode="&#xf4;" horiz-adv-x="546" 
d="M149.5 29q-51.5 37 -71.5 102q-14 46 -14 123q0 76 13 122q20 64 71.5 101t125.5 37q72 0 123.5 -37t70.5 -100q14 -48 14 -123q0 -77 -14 -123q-20 -65 -71.5 -102t-122.5 -37q-73 0 -124.5 37zM356 80.5q34 26.5 46 71.5q8 32 8 101q0 72 -8 101q-11 45 -45.5 71.5
t-84.5 26.5q-48 0 -82 -26.5t-46 -71.5q-8 -29 -8 -101t8 -101q11 -45 45.5 -71.5t84.5 -26.5q48 0 82 26.5zM150 586q0 4 3 8l78 102q5 8 16 8h47q11 0 16 -8l79 -102q3 -4 3 -8q0 -8 -11 -8h-32q-10 0 -16 8l-58 80q-2 2 -4 2t-3 -2l-59 -80q-6 -8 -16 -8h-32q-11 0 -11 8
z" />
    <glyph glyph-name="otilde" unicode="&#xf5;" horiz-adv-x="546" 
d="M149.5 29q-51.5 37 -71.5 102q-14 46 -14 123q0 76 13 122q20 64 71.5 101t125.5 37q72 0 123.5 -37t70.5 -100q14 -48 14 -123q0 -77 -14 -123q-20 -65 -71.5 -102t-122.5 -37q-73 0 -124.5 37zM356 80.5q34 26.5 46 71.5q8 32 8 101q0 72 -8 101q-11 45 -45.5 71.5
t-84.5 26.5q-48 0 -82 -26.5t-46 -71.5q-8 -29 -8 -101t8 -101q11 -45 45.5 -71.5t84.5 -26.5q48 0 82 26.5zM305.5 606.5q-14.5 6.5 -30.5 17.5t-25 15.5t-20 4.5q-15 0 -25.5 -5t-21.5 -19q-7 -7 -11 -7t-8 3l-14 10q-5 3 -6 8t2 10q30 50 80 50q16 0 29 -5.5t32 -17.5
q17 -11 27.5 -16t21.5 -5q29 0 47 27q7 10 18 4l15 -9q6 -4 6 -10t-6 -15q-16 -24 -37.5 -35.5t-41.5 -11.5q-17 0 -31.5 6.5z" />
    <glyph glyph-name="odieresis" unicode="&#xf6;" horiz-adv-x="546" 
d="M149.5 29q-51.5 37 -71.5 102q-14 46 -14 123q0 76 13 122q20 64 71.5 101t125.5 37q72 0 123.5 -37t70.5 -100q14 -48 14 -123q0 -77 -14 -123q-20 -65 -71.5 -102t-122.5 -37q-73 0 -124.5 37zM356 80.5q34 26.5 46 71.5q8 32 8 101q0 72 -8 101q-11 45 -45.5 71.5
t-84.5 26.5q-48 0 -82 -26.5t-46 -71.5q-8 -29 -8 -101t8 -101q11 -45 45.5 -71.5t84.5 -26.5q48 0 82 26.5zM154.5 621q-13.5 13 -13.5 33t13.5 33.5t34.5 13.5q20 0 33 -13.5t13 -33.5t-13 -33t-33 -13q-21 0 -34.5 13zM323 621q-13 13 -13 33t13 33.5t34 13.5t34 -13.5
t13 -33.5t-13 -33t-34 -13t-34 13z" />
    <glyph glyph-name="divide" unicode="&#xf7;" horiz-adv-x="500" 
d="M212 455.5q-15 15.5 -15 37.5q0 21 15.5 36t36.5 15t37 -15t16 -36q0 -22 -16 -37.5t-37 -15.5q-22 0 -37 15.5zM39 307v36q0 13 13 13h396q13 0 13 -13v-36q0 -13 -13 -13h-396q-13 0 -13 13zM212 138q-15 15 -15 37q0 21 15.5 36.5t36.5 15.5t37 -15.5t16 -36.5
t-16 -36.5t-37 -15.5q-22 0 -37 15z" />
    <glyph glyph-name="oslash" unicode="&#xf8;" horiz-adv-x="552" 
d="M488 254q0 -77 -14 -123q-20 -65 -71.5 -102t-122.5 -37q-70 0 -121 34q-4 2 -7 -1l-33 -50q-3 -6 -9 -6q-4 0 -9 3l-27 19q-6 4 -6 10q0 4 3 8l40 59q2 4 -1 7q-15 23 -26 56q-14 46 -14 123q0 76 13 122q20 64 71.5 101t125.5 37q57 0 104 -25q4 -1 7 2l28 43q3 6 9 6
q4 0 9 -3l27 -19q6 -4 6 -10q0 -3 -3 -8l-31 -46q-2 -4 1 -7q26 -32 37 -70q14 -48 14 -123zM152 143q1 -3 3 -3t4 2l190 287q2 2 1 3.5t-3 2.5q-31 17 -69 17q-48 0 -82 -26.5t-46 -71.5q-8 -29 -8 -101t8 -101zM416 253q0 72 -8 101q-3 15 -11 30q-4 6 -7 0l-196 -296
q-4 -4 1 -7q35 -27 85 -27q48 0 82 26.5t46 71.5q8 32 8 101z" />
    <glyph glyph-name="ugrave" unicode="&#xf9;" horiz-adv-x="536" 
d="M399 506h45q13 0 13 -13v-480q0 -13 -13 -13h-45q-13 0 -13 13v38q0 3 -2 4t-4 -2q-43 -60 -132 -60q-48 0 -88.5 19.5t-64 56.5t-23.5 89v335q0 13 13 13h45q13 0 13 -13v-314q0 -57 32 -90.5t87 -33.5q57 0 90.5 34t33.5 90v314q0 13 13 13zM289 586q0 -4 -3 -6.5
t-8 -2.5h-35q-9 0 -15 9l-64 103q-2 3 -2 8q0 8 10 8h43q10 0 15 -9l57 -103q2 -6 2 -7z" />
    <glyph glyph-name="uacute" unicode="&#xfa;" horiz-adv-x="536" 
d="M399 506h45q13 0 13 -13v-480q0 -13 -13 -13h-45q-13 0 -13 13v38q0 3 -2 4t-4 -2q-43 -60 -132 -60q-48 0 -88.5 19.5t-64 56.5t-23.5 89v335q0 13 13 13h45q13 0 13 -13v-314q0 -57 32 -90.5t87 -33.5q57 0 90.5 34t33.5 90v314q0 13 13 13zM226.5 581.5
q-2.5 4.5 1.5 11.5l57 103q4 9 15 9h43q10 0 10 -8q0 -5 -2 -8l-64 -103q-6 -9 -15 -9h-35q-8 0 -10.5 4.5z" />
    <glyph glyph-name="ucircumflex" unicode="&#xfb;" horiz-adv-x="536" 
d="M399 506h45q13 0 13 -13v-480q0 -13 -13 -13h-45q-13 0 -13 13v38q0 3 -2 4t-4 -2q-43 -60 -132 -60q-48 0 -88.5 19.5t-64 56.5t-23.5 89v335q0 13 13 13h45q13 0 13 -13v-314q0 -57 32 -90.5t87 -33.5q57 0 90.5 34t33.5 90v314q0 13 13 13zM144 578q0 4 3 8l78 102
q5 8 16 8h47q11 0 16 -8l79 -102q3 -4 3 -8q0 -8 -11 -8h-32q-10 0 -16 8l-58 80q-2 2 -4 2t-3 -2l-59 -80q-6 -8 -16 -8h-32q-11 0 -11 8z" />
    <glyph glyph-name="udieresis" unicode="&#xfc;" horiz-adv-x="536" 
d="M399 506h45q13 0 13 -13v-480q0 -13 -13 -13h-45q-13 0 -13 13v38q0 3 -2 4t-4 -2q-43 -60 -132 -60q-48 0 -88.5 19.5t-64 56.5t-23.5 89v335q0 13 13 13h45q13 0 13 -13v-314q0 -57 32 -90.5t87 -33.5q57 0 90.5 34t33.5 90v314q0 13 13 13zM148.5 613
q-13.5 13 -13.5 33t13.5 33.5t34.5 13.5q20 0 33 -13.5t13 -33.5t-13 -33t-33 -13q-21 0 -34.5 13zM317 613q-13 13 -13 33t13 33.5t34 13.5t34 -13.5t13 -33.5t-13 -33t-34 -13t-34 13z" />
    <glyph glyph-name="yacute" unicode="&#xfd;" horiz-adv-x="461" 
d="M50 -187v35q0 13 7 13h7q39 0 60.5 11t37 39t33.5 86q1 2 0 6l-168 488q-1 2 -1 5q0 4 3.5 7t8.5 3h47q12 0 15 -11l129 -392q1 -4 3 -4t3 4l126 392q3 11 14 11h48q7 0 10 -4t1 -11l-184 -535q-24 -67 -45 -99t-52.5 -44.5t-88.5 -12.5h-7q-7 0 -7 13zM190.5 585.5
q-2.5 4.5 1.5 11.5l57 103q4 9 15 9h43q10 0 10 -8q0 -5 -2 -8l-64 -103q-6 -9 -15 -9h-35q-8 0 -10.5 4.5z" />
    <glyph glyph-name="thorn" unicode="&#xfe;" horiz-adv-x="536" 
d="M476 253q0 -82 -14 -127q-18 -62 -65.5 -98t-117.5 -36q-75 0 -122 55q-2 2 -4 1t-2 -4v-231q0 -13 -13 -13h-45q-13 0 -13 13v874q0 13 13 13h45q13 0 13 -13v-224q0 -3 2 -4t4 1q46 54 122 54q71 0 119 -36.5t66 -100.5q12 -41 12 -124zM401 179.5q4 26.5 4 73.5
q0 49 -5.5 76.5t-17.5 49.5q-13 33 -42 53t-69 20q-38 0 -65.5 -20.5t-39.5 -54.5q-11 -25 -15 -58v-134q4 -33 14 -54q13 -35 40 -56t67 -21q42 0 72.5 21t42.5 57q10 21 14 47.5z" />
    <glyph glyph-name="ydieresis" unicode="&#xff;" horiz-adv-x="461" 
d="M50 -187v35q0 13 7 13h7q39 0 60.5 11t37 39t33.5 86q1 2 0 6l-168 488q-1 2 -1 5q0 4 3.5 7t8.5 3h47q12 0 15 -11l129 -392q1 -4 3 -4t3 4l126 392q3 11 14 11h48q7 0 10 -4t1 -11l-184 -535q-24 -67 -45 -99t-52.5 -44.5t-88.5 -12.5h-7q-7 0 -7 13zM112.5 617
q-13.5 13 -13.5 33t13.5 33.5t34.5 13.5q20 0 33 -13.5t13 -33.5t-13 -33t-33 -13q-21 0 -34.5 13zM281 617q-13 13 -13 33t13 33.5t34 13.5t34 -13.5t13 -33.5t-13 -33t-34 -13t-34 13z" />
    <glyph glyph-name="Amacron" unicode="&#x100;" horiz-adv-x="607" 
d="M497 11l-40 122q-2 4 -5 4h-298q-3 0 -5 -4l-39 -122q-3 -11 -14 -11h-48q-7 0 -10 4t-1 11l220 674q3 11 14 11h64q11 0 14 -11l221 -674q1 -2 1 -5q0 -4 -3.5 -7t-8.5 -3h-48q-11 0 -14 11zM175 195h257q6 0 4 6l-130 409q-1 4 -3 4t-3 -4l-129 -409q-1 -6 4 -6z
M168 801v25q0 13 13 13h243q13 0 13 -13v-25q0 -13 -13 -13h-243q-13 0 -13 13z" />
    <glyph glyph-name="amacron" unicode="&#x101;" horiz-adv-x="511" 
d="M394.5 468q49.5 -46 49.5 -122v-333q0 -13 -13 -13h-45q-13 0 -13 13v36q0 3 -2 4t-4 -2q-27 -29 -67.5 -44t-88.5 -15q-70 0 -117.5 36t-47.5 110q0 75 54.5 118.5t151.5 43.5h116q5 0 5 5v37q0 51 -28.5 80.5t-88.5 29.5q-47 0 -77 -18t-38 -50q-3 -12 -15 -10l-49 6
q-13 2 -12 11q10 55 61.5 89t128.5 34q90 0 139.5 -46zM329.5 82.5q43.5 29.5 43.5 79.5v77q0 5 -5 5h-105q-66 0 -106 -27t-40 -75q0 -44 31 -66.5t79 -22.5q59 0 102.5 29.5zM122 615v25q0 13 13 13h243q13 0 13 -13v-25q0 -13 -13 -13h-243q-13 0 -13 13z" />
    <glyph glyph-name="Abreve" unicode="&#x102;" horiz-adv-x="607" 
d="M497 11l-40 122q-2 4 -5 4h-298q-3 0 -5 -4l-39 -122q-3 -11 -14 -11h-48q-7 0 -10 4t-1 11l220 674q3 11 14 11h64q11 0 14 -11l221 -674q1 -2 1 -5q0 -4 -3.5 -7t-8.5 -3h-48q-11 0 -14 11zM175 195h257q6 0 4 6l-130 409q-1 4 -3 4t-3 -4l-129 -409q-1 -6 4 -6z
M229 778.5q-31 26.5 -36 66.5v2q0 11 12 11h18q12 0 13 -12q5 -24 23 -40t43 -16q24 0 42 16t23 40q2 12 13 12h19q6 0 9.5 -3.5t2.5 -9.5q-4 -40 -35.5 -66.5t-73.5 -26.5t-73 26.5z" />
    <glyph glyph-name="abreve" unicode="&#x103;" horiz-adv-x="511" 
d="M394.5 468q49.5 -46 49.5 -122v-333q0 -13 -13 -13h-45q-13 0 -13 13v36q0 3 -2 4t-4 -2q-27 -29 -67.5 -44t-88.5 -15q-70 0 -117.5 36t-47.5 110q0 75 54.5 118.5t151.5 43.5h116q5 0 5 5v37q0 51 -28.5 80.5t-88.5 29.5q-47 0 -77 -18t-38 -50q-3 -12 -15 -10l-49 6
q-13 2 -12 11q10 55 61.5 89t128.5 34q90 0 139.5 -46zM329.5 82.5q43.5 29.5 43.5 79.5v77q0 5 -5 5h-105q-66 0 -106 -27t-40 -75q0 -44 31 -66.5t79 -22.5q59 0 102.5 29.5zM183 592.5q-31 26.5 -36 66.5v2q0 11 12 11h18q12 0 13 -12q5 -24 23 -40t43 -16q24 0 42 16
t23 40q2 12 13 12h19q6 0 9.5 -3.5t2.5 -9.5q-4 -40 -35.5 -66.5t-73.5 -26.5t-73 26.5z" />
    <glyph glyph-name="Aogonek" unicode="&#x104;" horiz-adv-x="633" 
d="M497 11l-40 122q-2 4 -5 4h-298q-3 0 -5 -4l-39 -122q-3 -11 -14 -11h-48q-7 0 -10 4t-1 11l220 674q3 11 14 11h64q11 0 14 -11l221 -674q1 -2 1 -5q0 -4 -3.5 -7t-8.5 -3h-48q-11 0 -14 11zM175 195h257q6 0 4 6l-130 409q-1 4 -3 4t-3 -4l-129 -409q-1 -6 4 -6z
M584 -169q0 -9 -10 -12q-20 -5 -39 -5q-31 0 -54.5 14t-31.5 46q-3 10 -3 22q0 52 58 98q6 6 16 6h19q11 0 11 -7q0 -4 -5 -9q-47 -42 -47 -78q0 -8 1 -12q7 -36 49 -36q6 0 18 2l4 1q9 0 11 -11l3 -16v-3z" />
    <glyph glyph-name="aogonek" unicode="&#x105;" horiz-adv-x="600" 
d="M453 -139q9 0 11 -11l3 -16v-3q0 -9 -10 -12q-20 -5 -39 -5q-31 0 -54.5 14t-31.5 46q-3 12 -3 23q0 51 57 97q3 2 4.5 4t-0.5 2h-4q-13 0 -13 13v36q0 3 -2 4t-4 -2q-27 -29 -67.5 -44t-88.5 -15q-70 0 -117.5 36t-47.5 110q0 75 54.5 118.5t151.5 43.5h116q5 0 5 5v37
q0 51 -28.5 80.5t-88.5 29.5q-47 0 -77 -18t-38 -50q-3 -12 -15 -10l-49 6q-6 1 -9 4.5t-2 9.5q11 54 62 87t127 33q90 0 139.5 -46t49.5 -122v-343q0 -4 -2 -6q-3 -2 -14 -13q-47 -42 -47 -78q0 -8 1 -12q7 -36 49 -36q6 0 18 2zM329.5 82.5q43.5 29.5 43.5 79.5v77
q0 5 -5 5h-105q-66 0 -106 -27t-40 -75q0 -44 31 -66.5t79 -22.5q59 0 102.5 29.5z" />
    <glyph glyph-name="Cacute" unicode="&#x106;" horiz-adv-x="607" 
d="M184 18.5q-53 27.5 -82.5 78t-29.5 116.5v275q0 65 29.5 115t82.5 77.5t123 27.5t123 -27t82.5 -76t29.5 -113q0 -9 -13 -11l-45 -3h-3q-4 0 -7 2t-3 4v6q0 71 -45 113.5t-119 42.5t-119 -43t-45 -113v-280q0 -70 45 -113t119 -43t119 42.5t45 113.5q0 12 13 11l45 -2
q13 0 13 -5v-5q0 -65 -29.5 -114.5t-82.5 -76.5t-123 -27t-123 27.5zM267.5 783.5q-2.5 4.5 1.5 11.5l57 103q4 9 15 9h43q10 0 10 -8q0 -5 -2 -8l-64 -103q-6 -9 -15 -9h-35q-8 0 -10.5 4.5z" />
    <glyph glyph-name="cacute" unicode="&#x107;" horiz-adv-x="520" 
d="M147.5 29.5q-51.5 37.5 -70.5 101.5q-13 44 -13 124q0 72 13 122q18 62 70 99.5t124 37.5q73 0 126.5 -37t69.5 -92q4 -14 6 -27v-2q0 -11 -12 -13l-44 -5h-3q-9 0 -12 11q0 4 -2 12q-9 38 -44 64.5t-85 26.5t-83.5 -26.5t-43.5 -70.5q-9 -38 -9 -101q0 -66 9 -102
q10 -45 43.5 -71.5t83.5 -26.5q49 0 84.5 25.5t43.5 64.5q1 2 1 5l1 1q1 13 15 11l43 -7q13 -2 12 -15l-4 -17q-15 -58 -69 -94t-127 -36q-72 0 -123.5 37.5zM230.5 589.5q-2.5 4.5 1.5 11.5l57 103q4 9 15 9h43q10 0 10 -8q0 -5 -2 -8l-64 -103q-6 -9 -15 -9h-35
q-8 0 -10.5 4.5z" />
    <glyph glyph-name="Cdotaccent" unicode="&#x10a;" horiz-adv-x="607" 
d="M184 18.5q-53 27.5 -82.5 78t-29.5 116.5v275q0 65 29.5 115t82.5 77.5t123 27.5t123 -27t82.5 -76t29.5 -113q0 -9 -13 -11l-45 -3h-3q-4 0 -7 2t-3 4v6q0 71 -45 113.5t-119 42.5t-119 -43t-45 -113v-280q0 -70 45 -113t119 -43t119 42.5t45 113.5q0 12 13 11l45 -2
q13 0 13 -5v-5q0 -65 -29.5 -114.5t-82.5 -76.5t-123 -27t-123 27.5zM274 800.5q-13 12.5 -13 31.5t13 31.5t33 12.5q19 0 31 -12.5t12 -31.5t-12 -31.5t-31 -12.5q-20 0 -33 12.5z" />
    <glyph glyph-name="cdotaccent" unicode="&#x10b;" horiz-adv-x="520" 
d="M147.5 29.5q-51.5 37.5 -70.5 101.5q-13 44 -13 124q0 72 13 122q18 62 70 99.5t124 37.5q73 0 126.5 -37t69.5 -92q4 -14 6 -27v-2q0 -11 -12 -13l-44 -5h-3q-9 0 -12 11q0 4 -2 12q-9 38 -44 64.5t-85 26.5t-83.5 -26.5t-43.5 -70.5q-9 -38 -9 -101q0 -66 9 -102
q10 -45 43.5 -71.5t83.5 -26.5q49 0 84.5 25.5t43.5 64.5q1 2 1 5l1 1q1 13 15 11l43 -7q13 -2 12 -15l-4 -17q-15 -58 -69 -94t-127 -36q-72 0 -123.5 37.5zM237 606.5q-13 12.5 -13 31.5t13 31.5t33 12.5q19 0 31 -12.5t12 -31.5t-12 -31.5t-31 -12.5q-20 0 -33 12.5z" />
    <glyph glyph-name="Ccaron" unicode="&#x10c;" horiz-adv-x="607" 
d="M184 18.5q-53 27.5 -82.5 78t-29.5 116.5v275q0 65 29.5 115t82.5 77.5t123 27.5t123 -27t82.5 -76t29.5 -113q0 -9 -13 -11l-45 -3h-3q-4 0 -7 2t-3 4v6q0 71 -45 113.5t-119 42.5t-119 -43t-45 -113v-280q0 -70 45 -113t119 -43t119 42.5t45 113.5q0 12 13 11l45 -2
q13 0 13 -5v-5q0 -65 -29.5 -114.5t-82.5 -76.5t-123 -27t-123 27.5zM264 777l-74 102q-3 5 -3 8q0 8 11 8h30q10 0 16 -8l59 -80q2 -2 4 -2t3 2l59 80q6 8 16 8h30q11 0 11 -8q0 -3 -3 -8l-75 -102q-6 -8 -16 -8h-52q-10 0 -16 8z" />
    <glyph glyph-name="ccaron" unicode="&#x10d;" horiz-adv-x="520" 
d="M147.5 29.5q-51.5 37.5 -70.5 101.5q-13 44 -13 124q0 72 13 122q18 62 70 99.5t124 37.5q73 0 126.5 -37t69.5 -92q4 -14 6 -27v-2q0 -11 -12 -13l-44 -5h-3q-9 0 -12 11q0 4 -2 12q-9 38 -44 64.5t-85 26.5t-83.5 -26.5t-43.5 -70.5q-9 -38 -9 -101q0 -66 9 -102
q10 -45 43.5 -71.5t83.5 -26.5q49 0 84.5 25.5t43.5 64.5q1 2 1 5l1 1q1 13 15 11l43 -7q13 -2 12 -15l-4 -17q-15 -58 -69 -94t-127 -36q-72 0 -123.5 37.5zM227 583l-74 102q-3 5 -3 8q0 8 11 8h30q10 0 16 -8l59 -80q2 -2 4 -2t3 2l59 80q6 8 16 8h30q11 0 11 -8
q0 -3 -3 -8l-75 -102q-6 -8 -16 -8h-52q-10 0 -16 8z" />
    <glyph glyph-name="Dcaron" unicode="&#x10e;" horiz-adv-x="618" 
d="M94 13v674q0 13 13 13h233q99 0 157.5 -52t58.5 -141v-314q0 -89 -58.5 -141t-157.5 -52h-233q-13 0 -13 13zM170 62h173q65 0 103.5 38t38.5 102v295q0 65 -38 103t-104 38h-173q-5 0 -5 -5v-566q0 -5 5 -5zM268 766l-75 103q-3 5 -3 7q0 9 12 9h30q10 0 16 -8l59 -80
q1 -2 3 -2t4 2l59 80q6 8 16 8h30q11 0 11 -8q0 -3 -3 -8l-75 -103q-6 -8 -16 -8h-52q-10 0 -16 8z" />
    <glyph glyph-name="dcaron" unicode="&#x10f;" horiz-adv-x="638" 
d="M404 700h45q13 0 13 -13v-674q0 -13 -13 -13h-45q-13 0 -13 13v38q0 3 -2 3.5t-4 -1.5q-22 -29 -54.5 -45t-72.5 -16q-70 0 -117.5 36t-65.5 98q-14 45 -14 127q0 83 12 124q18 64 66 100.5t119 36.5q39 0 72 -15.5t55 -44.5q2 -3 4 -2t2 4v231q0 13 13 13zM385 178
q4 27 4 75t-4 75.5t-14 48.5q-12 34 -39.5 54.5t-65.5 20.5q-40 0 -69 -20t-42 -53q-12 -22 -17.5 -49.5t-5.5 -76.5q0 -47 4 -73.5t14 -47.5q12 -36 42.5 -57t72.5 -21q40 0 67 21t40 56q9 20 13 47zM509.5 581.5q-2.5 4.5 1.5 11.5l57 103q4 9 15 9h43q10 0 10 -8
q0 -5 -2 -8l-64 -103q-6 -9 -15 -9h-35q-8 0 -10.5 4.5z" />
    <glyph glyph-name="Dcroat" unicode="&#x110;" horiz-adv-x="683" 
d="M562.5 648q58.5 -52 58.5 -141v-314q0 -89 -58.5 -141t-157.5 -52h-233q-13 0 -13 13v320q0 5 -5 5h-47q-13 0 -13 13v26q0 13 13 13h47q5 0 5 5v292q0 13 13 13h233q99 0 157.5 -52zM550 497q0 65 -38 103t-104 38h-173q-5 0 -5 -5v-238q0 -5 5 -5h115q13 0 13 -13v-26
q0 -13 -13 -13h-115q-5 0 -5 -5v-266q0 -5 5 -5h173q65 0 103.5 38t38.5 102v295z" />
    <glyph glyph-name="dcroat" unicode="&#x111;" horiz-adv-x="600" 
d="M538 607v-21q0 -13 -13 -13h-58q-5 0 -5 -5v-555q0 -13 -13 -13h-45q-13 0 -13 13v38q0 3 -2 3.5t-4 -1.5q-22 -29 -54.5 -45t-72.5 -16q-70 0 -117.5 36t-65.5 98q-14 45 -14 127q0 83 12 124q18 64 66 100.5t119 36.5q39 0 72 -15.5t55 -44.5q2 -3 4 -2t2 4v112
q0 5 -5 5h-152q-13 0 -13 13v21q0 13 13 13h152q5 0 5 5v62q0 13 13 13h45q13 0 13 -13v-62q0 -5 5 -5h58q13 0 13 -13zM385 178q4 27 4 75t-4 75.5t-14 48.5q-12 34 -39.5 54.5t-65.5 20.5q-40 0 -69 -20t-42 -53q-12 -22 -17.5 -49.5t-5.5 -76.5q0 -47 4 -73.5t14 -47.5
q12 -36 42.5 -57t72.5 -21q40 0 67 21t40 56q9 20 13 47z" />
    <glyph glyph-name="Emacron" unicode="&#x112;" horiz-adv-x="605" 
d="M534 638h-364q-5 0 -5 -5v-245q0 -5 5 -5h254q13 0 13 -13v-36q0 -13 -13 -13h-254q-5 0 -5 -5v-249q0 -5 5 -5h364q13 0 13 -13v-36q0 -13 -13 -13h-427q-13 0 -13 13v674q0 13 13 13h427q13 0 13 -13v-36q0 -13 -13 -13zM182 812v25q0 13 13 13h243q13 0 13 -13v-25
q0 -13 -13 -13h-243q-13 0 -13 13z" />
    <glyph glyph-name="emacron" unicode="&#x113;" horiz-adv-x="534" 
d="M354.5 73.5q32.5 19.5 50.5 54.5q2 5 7 7t10 -1l29 -16q12 -7 6 -17q-24 -50 -72 -79.5t-114 -29.5q-70 0 -118 33t-69 92q-19 50 -19 138q0 43 1.5 68.5t7.5 47.5q17 65 68.5 104t124.5 39q87 0 136.5 -45t63.5 -127q6 -32 6 -100q0 -13 -13 -13h-320q-5 0 -5 -5
q0 -50 6 -73q11 -45 46.5 -71.5t89.5 -26.5q45 1 77.5 20.5zM185 426.5q-32 -25.5 -42 -68.5q-6 -20 -8 -68q0 -5 5 -5h257q5 0 5 5q-2 44 -6 64q-11 45 -44.5 71.5t-84.5 26.5q-50 0 -82 -25.5zM132 615v25q0 13 13 13h243q13 0 13 -13v-25q0 -13 -13 -13h-243
q-13 0 -13 13z" />
    <glyph glyph-name="Edotaccent" unicode="&#x116;" horiz-adv-x="605" 
d="M534 638h-364q-5 0 -5 -5v-245q0 -5 5 -5h254q13 0 13 -13v-36q0 -13 -13 -13h-254q-5 0 -5 -5v-249q0 -5 5 -5h364q13 0 13 -13v-36q0 -13 -13 -13h-427q-13 0 -13 13v674q0 13 13 13h427q13 0 13 -13v-36q0 -13 -13 -13zM283 803.5q-13 12.5 -13 31.5t13 31.5t33 12.5
q19 0 31 -12.5t12 -31.5t-12 -31.5t-31 -12.5q-20 0 -33 12.5z" />
    <glyph glyph-name="edotaccent" unicode="&#x117;" horiz-adv-x="534" 
d="M354.5 73.5q32.5 19.5 50.5 54.5q2 5 7 7t10 -1l29 -16q12 -7 6 -17q-24 -50 -72 -79.5t-114 -29.5q-70 0 -118 33t-69 92q-19 50 -19 138q0 43 1.5 68.5t7.5 47.5q17 65 68.5 104t124.5 39q87 0 136.5 -45t63.5 -127q6 -32 6 -100q0 -13 -13 -13h-320q-5 0 -5 -5
q0 -50 6 -73q11 -45 46.5 -71.5t89.5 -26.5q45 1 77.5 20.5zM185 426.5q-32 -25.5 -42 -68.5q-6 -20 -8 -68q0 -5 5 -5h257q5 0 5 5q-2 44 -6 64q-11 45 -44.5 71.5t-84.5 26.5q-50 0 -82 -25.5zM233 606.5q-13 12.5 -13 31.5t13 31.5t33 12.5q19 0 31 -12.5t12 -31.5
t-12 -31.5t-31 -12.5q-20 0 -33 12.5z" />
    <glyph glyph-name="Eogonek" unicode="&#x118;" horiz-adv-x="605" 
d="M534 638h-364q-5 0 -5 -5v-245q0 -5 5 -5h254q13 0 13 -13v-36q0 -13 -13 -13h-254q-5 0 -5 -5v-249q0 -5 5 -5h364q13 0 13 -13v-36q0 -13 -13 -13h-184q-2 0 -6 -2q-53 -46 -53 -85q0 -23 14 -35t36 -12q6 0 18 2l4 1q9 0 11 -11l3 -16v-3q0 -9 -10 -12q-20 -5 -39 -5
q-31 0 -54.5 14t-31.5 46q-3 10 -3 22q0 46 48 90q2 2 1.5 4t-3.5 2h-178q-13 0 -13 13v674q0 13 13 13h427q13 0 13 -13v-36q0 -13 -13 -13z" />
    <glyph glyph-name="eogonek" unicode="&#x119;" horiz-adv-x="534" 
d="M354.5 73.5q32.5 19.5 50.5 54.5q2 5 7 7t10 -1l29 -16q12 -7 6 -17q-22 -44 -61.5 -72.5t-93.5 -35.5q-2 0 -6 -2q-56 -46 -56 -86q0 -8 1 -12q7 -36 49 -36q6 0 18 2l4 1q9 0 11 -11l3 -16v-3q0 -9 -10 -12q-20 -5 -39 -5q-31 0 -54.5 14t-31.5 46q-3 10 -3 22
q0 48 52 93q4 4 -2 6q-58 7 -97 39t-57 84q-19 50 -19 138q0 43 1.5 68.5t7.5 47.5q17 65 68.5 104t124.5 39q87 0 136.5 -45t63.5 -127q6 -32 6 -100q0 -13 -13 -13h-320q-5 0 -5 -5q0 -50 6 -73q11 -45 46.5 -71.5t89.5 -26.5q45 1 77.5 20.5zM185 426.5
q-32 -25.5 -42 -68.5q-6 -20 -8 -68q0 -5 5 -5h257q5 0 5 5q-2 44 -6 64q-11 45 -44.5 71.5t-84.5 26.5q-50 0 -82 -25.5z" />
    <glyph glyph-name="Ecaron" unicode="&#x11a;" horiz-adv-x="605" 
d="M534 638h-364q-5 0 -5 -5v-245q0 -5 5 -5h254q13 0 13 -13v-36q0 -13 -13 -13h-254q-5 0 -5 -5v-249q0 -5 5 -5h364q13 0 13 -13v-36q0 -13 -13 -13h-427q-13 0 -13 13v674q0 13 13 13h427q13 0 13 -13v-36q0 -13 -13 -13zM273 780l-74 102q-3 5 -3 8q0 8 11 8h30
q10 0 16 -8l59 -80q2 -2 4 -2t3 2l59 80q6 8 16 8h30q11 0 11 -8q0 -3 -3 -8l-75 -102q-6 -8 -16 -8h-52q-10 0 -16 8z" />
    <glyph glyph-name="ecaron" unicode="&#x11b;" horiz-adv-x="534" 
d="M354.5 73.5q32.5 19.5 50.5 54.5q2 5 7 7t10 -1l29 -16q12 -7 6 -17q-24 -50 -72 -79.5t-114 -29.5q-70 0 -118 33t-69 92q-19 50 -19 138q0 43 1.5 68.5t7.5 47.5q17 65 68.5 104t124.5 39q87 0 136.5 -45t63.5 -127q6 -32 6 -100q0 -13 -13 -13h-320q-5 0 -5 -5
q0 -50 6 -73q11 -45 46.5 -71.5t89.5 -26.5q45 1 77.5 20.5zM185 426.5q-32 -25.5 -42 -68.5q-6 -20 -8 -68q0 -5 5 -5h257q5 0 5 5q-2 44 -6 64q-11 45 -44.5 71.5t-84.5 26.5q-50 0 -82 -25.5zM223 575l-75 103q-3 5 -3 7q0 9 12 9h30q10 0 16 -8l59 -80q1 -2 3 -2t4 2
l59 80q6 8 16 8h30q11 0 11 -8q0 -3 -3 -8l-75 -103q-6 -8 -16 -8h-52q-10 0 -16 8z" />
    <glyph glyph-name="Gbreve" unicode="&#x11e;" horiz-adv-x="606" 
d="M184 19.5q-53 27.5 -82.5 77.5t-29.5 115v276q0 65 29.5 115t82.5 77.5t123 27.5q69 0 122.5 -27t82.5 -75.5t29 -109.5v-10q0 -13 -13 -13h-45q-13 0 -13 11v11q0 67 -44.5 109t-118.5 42t-119 -43t-45 -113v-280q0 -70 46 -113t121 -43q73 0 116.5 40t43.5 107v90
q0 5 -5 5h-143q-13 0 -13 13v36q0 13 13 13h206q13 0 13 -13v-126q0 -107 -63.5 -167t-170.5 -60q-70 0 -123 27.5zM233 786.5q-31 26.5 -36 66.5v2q0 11 12 11h18q12 0 13 -12q5 -24 23 -40t43 -16q24 0 42 16t23 40q2 12 13 12h19q6 0 9.5 -3.5t2.5 -9.5
q-4 -40 -35.5 -66.5t-73.5 -26.5t-73 26.5z" />
    <glyph glyph-name="gbreve" unicode="&#x11f;" horiz-adv-x="535" 
d="M405 506h45q13 0 13 -13v-476q0 -112 -65 -164t-177 -52q-21 0 -32 1q-13 1 -13 14l2 40q0 14 13 12q106 -5 153.5 31t47.5 120v35q0 3 -2 4t-4 -2q-46 -59 -130 -59q-65 0 -115.5 35t-67.5 99q-12 41 -12 122q0 44 2.5 74t10.5 54q18 60 65 96.5t113 36.5q87 0 134 -57
q2 -3 4 -2t2 4v34q0 13 13 13zM391 190q1 22 1 64q0 51 -1 68.5t-5 32.5q-8 42 -39.5 69.5t-79.5 27.5q-47 0 -79.5 -27t-45.5 -70q-10 -32 -10 -100q0 -73 10 -101q10 -42 43.5 -69.5t81.5 -27.5q49 0 80.5 27t39.5 69q3 15 4 37zM203 593.5q-31 26.5 -36 66.5v2
q0 11 12 11h18q12 0 13 -12q5 -24 23 -40t43 -16q24 0 42 16t23 40q2 12 13 12h19q6 0 9.5 -3.5t2.5 -9.5q-4 -40 -35.5 -66.5t-73.5 -26.5t-73 26.5z" />
    <glyph glyph-name="Gdotaccent" unicode="&#x120;" horiz-adv-x="606" 
d="M184 19.5q-53 27.5 -82.5 77.5t-29.5 115v276q0 65 29.5 115t82.5 77.5t123 27.5q69 0 122.5 -27t82.5 -75.5t29 -109.5v-10q0 -13 -13 -13h-45q-13 0 -13 11v11q0 67 -44.5 109t-118.5 42t-119 -43t-45 -113v-280q0 -70 46 -113t121 -43q73 0 116.5 40t43.5 107v90
q0 5 -5 5h-143q-13 0 -13 13v36q0 13 13 13h206q13 0 13 -13v-126q0 -107 -63.5 -167t-170.5 -60q-70 0 -123 27.5zM273 800.5q-13 12.5 -13 31.5t13 31.5t33 12.5q19 0 31 -12.5t12 -31.5t-12 -31.5t-31 -12.5q-20 0 -33 12.5z" />
    <glyph glyph-name="gdotaccent" unicode="&#x121;" horiz-adv-x="535" 
d="M405 506h45q13 0 13 -13v-476q0 -112 -65 -164t-177 -52q-21 0 -32 1q-13 1 -13 14l2 40q0 14 13 12q106 -5 153.5 31t47.5 120v35q0 3 -2 4t-4 -2q-46 -59 -130 -59q-65 0 -115.5 35t-67.5 99q-12 41 -12 122q0 44 2.5 74t10.5 54q18 60 65 96.5t113 36.5q87 0 134 -57
q2 -3 4 -2t2 4v34q0 13 13 13zM391 190q1 22 1 64q0 51 -1 68.5t-5 32.5q-8 42 -39.5 69.5t-79.5 27.5q-47 0 -79.5 -27t-45.5 -70q-10 -32 -10 -100q0 -73 10 -101q10 -42 43.5 -69.5t81.5 -27.5q49 0 80.5 27t39.5 69q3 15 4 37zM243 607.5q-13 12.5 -13 31.5t13 31.5
t33 12.5q19 0 31 -12.5t12 -31.5t-12 -31.5t-31 -12.5q-20 0 -33 12.5z" />
    <glyph glyph-name="uni0122" unicode="&#x122;" horiz-adv-x="606" 
d="M184 19.5q-53 27.5 -82.5 77.5t-29.5 115v276q0 65 29.5 115t82.5 77.5t123 27.5q69 0 122.5 -27t82.5 -75.5t29 -109.5v-10q0 -13 -13 -13h-45q-13 0 -13 11v11q0 67 -44.5 109t-118.5 42t-119 -43t-45 -113v-280q0 -70 46 -113t121 -43q73 0 116.5 40t43.5 107v90
q0 5 -5 5h-143q-13 0 -13 13v36q0 13 13 13h206q13 0 13 -13v-126q0 -107 -63.5 -167t-170.5 -60q-70 0 -123 27.5zM237.5 -188.5q-2.5 4.5 1.5 11.5l57 103q4 9 15 9h43q10 0 10 -8q0 -5 -2 -8l-64 -103q-6 -9 -15 -9h-35q-8 0 -10.5 4.5z" />
    <glyph glyph-name="uni0123" unicode="&#x123;" horiz-adv-x="535" 
d="M344.5 695.5q2.5 -4.5 -1.5 -11.5l-57 -103q-4 -9 -15 -9h-43q-10 0 -10 8q0 5 2 8l64 103q6 9 15 9h35q8 0 10.5 -4.5zM405 506h45q13 0 13 -13v-476q0 -112 -65 -164t-177 -52q-21 0 -32 1q-13 1 -13 14l2 40q0 14 13 12q106 -5 153.5 31t47.5 120v35q0 3 -2 4t-4 -2
q-46 -59 -130 -59q-65 0 -115.5 35t-67.5 99q-12 41 -12 122q0 44 2.5 74t10.5 54q18 60 65 96.5t113 36.5q87 0 134 -57q2 -3 4 -2t2 4v34q0 13 13 13zM391 190q1 22 1 64q0 51 -1 68.5t-5 32.5q-8 42 -39.5 69.5t-79.5 27.5q-47 0 -79.5 -27t-45.5 -70q-10 -32 -10 -100
q0 -73 10 -101q10 -42 43.5 -69.5t81.5 -27.5q49 0 80.5 27t39.5 69q3 15 4 37z" />
    <glyph glyph-name="Hbar" unicode="&#x126;" horiz-adv-x="654" 
d="M624 546v-25q0 -13 -13 -13h-43q-5 0 -5 -5v-490q0 -13 -13 -13h-45q-13 0 -13 13v303q0 5 -5 5h-317q-5 0 -5 -5v-303q0 -13 -13 -13h-45q-13 0 -13 13v490q0 5 -5 5h-43q-13 0 -13 13v25q0 13 13 13h43q5 0 5 5v123q0 13 13 13h45q13 0 13 -13v-123q0 -5 5 -5h317
q5 0 5 5v123q0 13 13 13h45q13 0 13 -13v-123q0 -5 5 -5h43q13 0 13 -13zM492 388v115q0 5 -5 5h-317q-5 0 -5 -5v-115q0 -5 5 -5h317q5 0 5 5z" />
    <glyph glyph-name="hbar" unicode="&#x127;" horiz-adv-x="539" 
d="M416.5 466q47.5 -47 47.5 -126v-327q0 -13 -13 -13h-45q-13 0 -13 13v313q0 56 -33 90.5t-86 34.5q-51 0 -84.5 -29t-38.5 -76v-333q0 -13 -13 -13h-45q-13 0 -13 13v540q0 5 -5 5h-54q-13 0 -13 13v21q0 13 13 13h54q5 0 5 5v77q0 13 13 13h45q13 0 13 -13v-77
q0 -5 5 -5h156q13 0 13 -13v-21q0 -13 -13 -13h-156q-5 0 -5 -5v-97q0 -3 2 -4.5t3 1.5q44 60 134 60q79 0 126.5 -47z" />
    <glyph glyph-name="Imacron" unicode="&#x12a;" horiz-adv-x="259" 
d="M94 13v674q0 13 13 13h45q13 0 13 -13v-674q0 -13 -13 -13h-45q-13 0 -13 13zM-5 812v25q0 13 13 13h243q13 0 13 -13v-25q0 -13 -13 -13h-243q-13 0 -13 13z" />
    <glyph glyph-name="imacron" unicode="&#x12b;" horiz-adv-x="221" 
d="M74 13v480q0 13 13 13h45q13 0 13 -13v-480q0 -13 -13 -13h-45q-13 0 -13 13zM-26 617v25q0 13 13 13h243q13 0 13 -13v-25q0 -13 -13 -13h-243q-13 0 -13 13z" />
    <glyph glyph-name="Iogonek" unicode="&#x12e;" horiz-adv-x="328" 
d="M142 13v674q0 13 13 13h45q13 0 13 -13v-674q0 -13 -13 -13h-45q-13 0 -13 13zM232 -169q0 -9 -10 -12q-20 -5 -39 -5q-31 0 -54.5 14t-31.5 46q-3 10 -3 22q0 52 58 98q6 6 16 6h19q11 0 11 -7q0 -4 -5 -9q-47 -42 -47 -78q0 -8 1 -12q7 -36 49 -36q6 0 18 2l4 1
q9 0 11 -11l3 -16v-3z" />
    <glyph glyph-name="iogonek" unicode="&#x12f;" horiz-adv-x="278" 
d="M117 13v480q0 13 13 13h45q13 0 13 -13v-480q0 -13 -13 -13h-45q-13 0 -13 13zM118 608.5q-13 12.5 -13 31.5t13 31.5t33 12.5q19 0 31 -12.5t12 -31.5t-12 -31.5t-31 -12.5q-20 0 -33 12.5zM207 -169q0 -9 -10 -12q-20 -5 -39 -5q-31 0 -54.5 14t-31.5 46q-3 10 -3 22
q0 52 58 98q6 6 16 6h19q11 0 11 -7q0 -4 -5 -9q-47 -42 -47 -78q0 -8 1 -12q7 -36 49 -36q6 0 18 2l4 1q9 0 11 -11l3 -16v-3z" />
    <glyph glyph-name="Idotaccent" unicode="&#x130;" horiz-adv-x="259" 
d="M94 13v674q0 13 13 13h45q13 0 13 -13v-674q0 -13 -13 -13h-45q-13 0 -13 13zM96 803.5q-13 12.5 -13 31.5t13 31.5t33 12.5q19 0 31 -12.5t12 -31.5t-12 -31.5t-31 -12.5q-20 0 -33 12.5z" />
    <glyph glyph-name="dotlessi" unicode="&#x131;" horiz-adv-x="221" 
d="M74 13v480q0 13 13 13h45q13 0 13 -13v-480q0 -13 -13 -13h-45q-13 0 -13 13z" />
    <glyph glyph-name="ij" unicode="&#x133;" horiz-adv-x="472" 
d="M84 611.5q-15 14.5 -15 37.5t15 37t39 14t39 -14t15 -37t-15 -37.5t-39 -14.5t-39 14.5zM88 13v480q0 13 13 13h45q13 0 13 -13v-480q0 -13 -13 -13h-45q-13 0 -13 13zM318 609.5q-15 14.5 -15 37.5t16 37.5t38 14.5q24 0 39.5 -14.5t15.5 -37.5t-15 -37.5t-40 -14.5
q-24 0 -39 14.5zM204 -195v35q0 13 13 13q104 3 104 103v537q0 13 13 13h45q13 0 13 -13v-537q0 -85 -41.5 -124t-133.5 -40q-13 0 -13 13z" />
    <glyph glyph-name="uni0136" unicode="&#x136;" horiz-adv-x="611" 
d="M94 13v674q0 13 13 13h45q13 0 13 -13v-334q0 -3 2 -4t4 2l314 342q6 7 16 7h50q11 0 11 -8q0 -4 -4 -8l-241 -273q-3 -4 -1 -7l263 -388q3 -4 3 -8q0 -8 -11 -8h-52q-10 0 -16 8l-235 345q-4 6 -7 1l-94 -99q-2 -4 -2 -7v-235q0 -13 -13 -13h-45q-13 0 -13 13z
M251.5 -180.5q-2.5 4.5 1.5 11.5l57 103q4 9 15 9h43q10 0 10 -8q0 -5 -2 -8l-64 -103q-6 -9 -15 -9h-35q-8 0 -10.5 4.5z" />
    <glyph glyph-name="uni0137" unicode="&#x137;" horiz-adv-x="501" 
d="M80 13v674q0 13 13 13h45q13 0 13 -13v-404q0 -3 2 -4.5t4 1.5l209 219q6 7 16 7h53q11 0 11 -8q0 -3 -3 -8l-124 -137q-3 -3 -1 -7l150 -331q2 -4 2 -6q0 -9 -12 -9h-47q-10 0 -15 10l-127 289q-1 2 -3 2.5t-4 -1.5l-109 -114q-2 -4 -2 -7v-166q0 -13 -13 -13h-45
q-13 0 -13 13zM199.5 -180.5q-2.5 4.5 1.5 11.5l57 103q4 9 15 9h43q10 0 10 -8q0 -5 -2 -8l-64 -103q-6 -9 -15 -9h-35q-8 0 -10.5 4.5z" />
    <glyph glyph-name="Lacute" unicode="&#x139;" horiz-adv-x="568" 
d="M94 13v674q0 13 13 13h45q13 0 13 -13v-620q0 -5 5 -5h349q13 0 13 -13v-36q0 -13 -13 -13h-412q-13 0 -13 13zM89.5 775.5q-2.5 4.5 1.5 11.5l57 103q4 9 15 9h43q10 0 10 -8q0 -5 -2 -8l-64 -103q-6 -9 -15 -9h-35q-8 0 -10.5 4.5z" />
    <glyph glyph-name="lacute" unicode="&#x13a;" horiz-adv-x="232" 
d="M80 13v674q0 13 13 13h45q13 0 13 -13v-674q0 -13 -13 -13h-45q-13 0 -13 13zM77.5 775.5q-2.5 4.5 1.5 11.5l57 103q4 9 15 9h43q10 0 10 -8q0 -5 -2 -8l-64 -103q-6 -9 -15 -9h-35q-8 0 -10.5 4.5z" />
    <glyph glyph-name="uni013B" unicode="&#x13b;" horiz-adv-x="568" 
d="M94 13v674q0 13 13 13h45q13 0 13 -13v-620q0 -5 5 -5h349q13 0 13 -13v-36q0 -13 -13 -13h-412q-13 0 -13 13zM218.5 -180.5q-2.5 4.5 1.5 11.5l57 103q4 9 15 9h43q10 0 10 -8q0 -5 -2 -8l-64 -103q-6 -9 -15 -9h-35q-8 0 -10.5 4.5z" />
    <glyph glyph-name="uni013C" unicode="&#x13c;" horiz-adv-x="233" 
d="M80 13v674q0 13 13 13h45q13 0 13 -13v-674q0 -13 -13 -13h-45q-13 0 -13 13zM17.5 -180.5q-2.5 4.5 1.5 11.5l57 103q4 9 15 9h43q10 0 10 -8q0 -5 -2 -8l-64 -103q-6 -9 -15 -9h-35q-8 0 -10.5 4.5z" />
    <glyph glyph-name="Lcaron" unicode="&#x13d;" horiz-adv-x="568" 
d="M94 13v674q0 13 13 13h45q13 0 13 -13v-620q0 -5 5 -5h349q13 0 13 -13v-36q0 -13 -13 -13h-412q-13 0 -13 13zM86 761l-75 103q-3 5 -3 7q0 9 12 9h30q10 0 16 -8l59 -80q1 -2 3 -2t4 2l59 80q6 8 16 8h30q11 0 11 -8q0 -3 -3 -8l-75 -103q-6 -8 -16 -8h-52q-10 0 -16 8
z" />
    <glyph glyph-name="lcaron" unicode="&#x13e;" horiz-adv-x="232" 
d="M80 13v674q0 13 13 13h45q13 0 13 -13v-674q0 -13 -13 -13h-45q-13 0 -13 13zM74 761l-75 103q-3 5 -3 7q0 9 12 9h30q10 0 16 -8l59 -80q1 -2 3 -2t4 2l59 80q6 8 16 8h30q11 0 11 -8q0 -3 -3 -8l-75 -103q-6 -8 -16 -8h-52q-10 0 -16 8z" />
    <glyph glyph-name="Lslash" unicode="&#x141;" horiz-adv-x="568" 
d="M170 62h349q13 0 13 -13v-36q0 -13 -13 -13h-412q-13 0 -13 13v230q0 3 -2 4t-4 -1l-98 -73q-4 -3 -8 -3q-5 0 -10 5l-20 24q-3 5 -3 8q0 6 6 10l136 103q3 2 3 6v361q0 13 13 13h45q13 0 13 -13v-303q0 -3 2 -4t4 1l222 166q5 3 8 3q5 0 10 -5l19 -24q3 -4 3 -8
q0 -5 -6 -10l-259 -196q-3 -1 -3 -6v-234q0 -5 5 -5z" />
    <glyph glyph-name="lslash" unicode="&#x142;" horiz-adv-x="232" 
d="M277 409q0 -5 -7 -9l-116 -68q-3 -2 -3 -6v-313q0 -13 -13 -13h-45q-13 0 -13 13v267q0 3 -2 4.5t-4 -0.5l-54 -32q-4 -3 -8 -3q-6 0 -9 7l-15 26l-2 8q0 6 7 10l84 50q3 2 3 6v331q0 13 13 13h45q13 0 13 -13v-286q0 -3 2 -4t4 1l85 50q4 3 8 3q6 0 9 -7l15 -26
q3 -4 3 -9z" />
    <glyph glyph-name="Nacute" unicode="&#x143;" horiz-adv-x="673" 
d="M94 13v674q0 13 13 13h45q9 0 15 -9l336 -544q2 -3 4 -2.5t2 4.5v538q0 13 13 13h45q13 0 13 -13v-674q0 -13 -13 -13h-45q-9 0 -15 9l-337 546q-2 3 -4 2.5t-2 -4.5l1 -540q0 -13 -13 -13h-45q-13 0 -13 13zM295.5 786.5q-2.5 4.5 1.5 11.5l57 103q4 9 15 9h43
q10 0 10 -8q0 -5 -2 -8l-64 -103q-6 -9 -15 -9h-35q-8 0 -10.5 4.5z" />
    <glyph glyph-name="nacute" unicode="&#x144;" horiz-adv-x="539" 
d="M416.5 466q47.5 -47 47.5 -126v-327q0 -13 -13 -13h-45q-13 0 -13 13v313q0 56 -33 90.5t-86 34.5q-51 0 -84.5 -29t-38.5 -76v-333q0 -13 -13 -13h-45q-13 0 -13 13v480q0 13 13 13h45q13 0 13 -13v-37q0 -3 2 -4.5t3 1.5q44 60 134 60q79 0 126.5 -47zM231.5 581.5
q-2.5 4.5 1.5 11.5l57 103q4 9 15 9h43q10 0 10 -8q0 -5 -2 -8l-64 -103q-6 -9 -15 -9h-35q-8 0 -10.5 4.5z" />
    <glyph glyph-name="uni0145" unicode="&#x145;" horiz-adv-x="673" 
d="M94 13v674q0 13 13 13h45q9 0 15 -9l336 -544q2 -3 4 -2.5t2 4.5v538q0 13 13 13h45q13 0 13 -13v-674q0 -13 -13 -13h-45q-9 0 -15 9l-337 546q-2 3 -4 2.5t-2 -4.5l1 -540q0 -13 -13 -13h-45q-13 0 -13 13zM278.5 -180.5q-2.5 4.5 1.5 11.5l57 103q4 9 15 9h43
q10 0 10 -8q0 -5 -2 -8l-64 -103q-6 -9 -15 -9h-35q-8 0 -10.5 4.5z" />
    <glyph glyph-name="uni0146" unicode="&#x146;" horiz-adv-x="539" 
d="M416.5 466q47.5 -47 47.5 -126v-327q0 -13 -13 -13h-45q-13 0 -13 13v313q0 56 -33 90.5t-86 34.5q-51 0 -84.5 -29t-38.5 -76v-333q0 -13 -13 -13h-45q-13 0 -13 13v480q0 13 13 13h45q13 0 13 -13v-37q0 -3 2 -4.5t3 1.5q44 60 134 60q79 0 126.5 -47zM209.5 -180.5
q-2.5 4.5 1.5 11.5l57 103q4 9 15 9h43q10 0 10 -8q0 -5 -2 -8l-64 -103q-6 -9 -15 -9h-35q-8 0 -10.5 4.5z" />
    <glyph glyph-name="Ncaron" unicode="&#x147;" horiz-adv-x="673" 
d="M94 13v674q0 13 13 13h45q9 0 15 -9l336 -544q2 -3 4 -2.5t2 4.5v538q0 13 13 13h45q13 0 13 -13v-674q0 -13 -13 -13h-45q-9 0 -15 9l-337 546q-2 3 -4 2.5t-2 -4.5l1 -540q0 -13 -13 -13h-45q-13 0 -13 13zM292 780l-74 102q-3 5 -3 8q0 8 11 8h30q10 0 16 -8l59 -80
q2 -2 4 -2t3 2l59 80q6 8 16 8h30q11 0 11 -8q0 -3 -3 -8l-75 -102q-6 -8 -16 -8h-52q-10 0 -16 8z" />
    <glyph glyph-name="ncaron" unicode="&#x148;" horiz-adv-x="539" 
d="M416.5 466q47.5 -47 47.5 -126v-327q0 -13 -13 -13h-45q-13 0 -13 13v313q0 56 -33 90.5t-86 34.5q-51 0 -84.5 -29t-38.5 -76v-333q0 -13 -13 -13h-45q-13 0 -13 13v480q0 13 13 13h45q13 0 13 -13v-37q0 -3 2 -4.5t3 1.5q44 60 134 60q79 0 126.5 -47zM228 575l-74 102
q-3 5 -3 8q0 8 11 8h30q10 0 16 -8l59 -80q2 -2 4 -2t3 2l59 80q6 8 16 8h30q11 0 11 -8q0 -3 -3 -8l-75 -102q-6 -8 -16 -8h-52q-10 0 -16 8z" />
    <glyph glyph-name="Eng" unicode="&#x14a;" horiz-adv-x="676" 
d="M580.5 558.5l0.5 -1.5h1v-550q0 -86 -35.5 -124.5t-125.5 -39.5q-13 0 -13 13v35q0 13 13 13q48 1 68 24t22 71q0 2 -2 6l-339 550q-2 3 -4 2.5t-2 -4.5l1 -540q0 -13 -13 -13h-45q-13 0 -13 13v674q0 13 13 13h45q9 0 15 -9l336 -544q2 -3 4 -2.5t2 4.5v538q0 13 13 13
h45q13 0 13 -13v-125q0 -2 0.5 -3.5z" />
    <glyph glyph-name="eng" unicode="&#x14b;" horiz-adv-x="540" 
d="M466 206h1v-214q0 -81 -34.5 -121.5t-118.5 -43.5q-13 0 -13 13v33q0 13 13 14q82 6 82 103v7q0 1 -2 5q-1 3 -1 11v313q0 56 -33 90.5t-86 34.5q-51 0 -84.5 -29t-38.5 -76v-333q0 -13 -13 -13h-45q-13 0 -13 13v480q0 13 13 13h45q13 0 13 -13v-37q0 -3 2 -4t4 2
q43 59 133 59q79 0 126.5 -47t47.5 -126v-129q0 -5 2 -5z" />
    <glyph glyph-name="Omacron" unicode="&#x14c;" horiz-adv-x="622" 
d="M185 21q-54 29 -83.5 81.5t-29.5 121.5v252q0 69 29.5 121.5t83.5 81.5t125 29t125.5 -29t84 -81.5t29.5 -121.5v-252q0 -69 -29.5 -121.5t-84 -81.5t-125.5 -29t-125 29zM432 99q46 46 46 122v256q0 76 -46 122.5t-122 46.5q-75 0 -121 -46.5t-46 -122.5v-256
q0 -76 46 -122t121 -46q76 0 122 46zM176 809v25q0 13 13 13h243q13 0 13 -13v-25q0 -13 -13 -13h-243q-13 0 -13 13z" />
    <glyph glyph-name="omacron" unicode="&#x14d;" horiz-adv-x="546" 
d="M149.5 29q-51.5 37 -71.5 102q-14 46 -14 123q0 76 13 122q20 64 71.5 101t125.5 37q72 0 123.5 -37t70.5 -100q14 -48 14 -123q0 -77 -14 -123q-20 -65 -71.5 -102t-122.5 -37q-73 0 -124.5 37zM356 80.5q34 26.5 46 71.5q8 32 8 101q0 72 -8 101q-11 45 -45.5 71.5
t-84.5 26.5q-48 0 -82 -26.5t-46 -71.5q-8 -29 -8 -101t8 -101q11 -45 45.5 -71.5t84.5 -26.5q48 0 82 26.5zM138 615v25q0 13 13 13h243q13 0 13 -13v-25q0 -13 -13 -13h-243q-13 0 -13 13z" />
    <glyph glyph-name="Ohungarumlaut" unicode="&#x150;" horiz-adv-x="622" 
d="M185 21q-54 29 -83.5 81.5t-29.5 121.5v252q0 69 29.5 121.5t83.5 81.5t125 29t125.5 -29t84 -81.5t29.5 -121.5v-252q0 -69 -29.5 -121.5t-84 -81.5t-125.5 -29t-125 29zM432 99q46 46 46 122v256q0 76 -46 122.5t-122 46.5q-75 0 -121 -46.5t-46 -122.5v-256
q0 -76 46 -122t121 -46q76 0 122 46zM199.5 781q-2.5 4 0.5 11l53 104q4 9 16 9h39q8 0 10.5 -4.5t-1.5 -11.5l-57 -103q-5 -9 -15 -9h-36q-7 0 -9.5 4zM362 781q-3 4 1 11l56 104q4 9 15 9h37q8 0 10.5 -4.5t-1.5 -11.5l-58 -103q-5 -9 -15 -9h-34q-8 0 -11 4z" />
    <glyph glyph-name="ohungarumlaut" unicode="&#x151;" horiz-adv-x="546" 
d="M149.5 29q-51.5 37 -71.5 102q-14 46 -14 123q0 76 13 122q20 64 71.5 101t125.5 37q72 0 123.5 -37t70.5 -100q14 -48 14 -123q0 -77 -14 -123q-20 -65 -71.5 -102t-122.5 -37q-73 0 -124.5 37zM356 80.5q34 26.5 46 71.5q8 32 8 101q0 72 -8 101q-11 45 -45.5 71.5
t-84.5 26.5q-48 0 -82 -26.5t-46 -71.5q-8 -29 -8 -101t8 -101q11 -45 45.5 -71.5t84.5 -26.5q48 0 82 26.5zM161.5 587q-2.5 4 0.5 11l53 104q4 9 16 9h39q8 0 10.5 -4.5t-1.5 -11.5l-57 -103q-5 -9 -15 -9h-36q-7 0 -9.5 4zM324 587q-3 4 1 11l56 104q4 9 15 9h37
q8 0 10.5 -4.5t-1.5 -11.5l-58 -103q-5 -9 -15 -9h-34q-8 0 -11 4z" />
    <glyph glyph-name="OE" unicode="&#x152;" horiz-adv-x="920" 
d="M849 638h-323q-5 0 -5 -5v-245q0 -5 5 -5h213q13 0 13 -13v-36q0 -13 -13 -13h-213q-5 0 -5 -5v-249q0 -5 5 -5h323q13 0 13 -13v-36q0 -13 -13 -13h-386q-13 0 -13 13v44q0 3 -2 4t-4 -2q-30 -32 -72 -49.5t-91 -17.5q-60 0 -107.5 28t-74.5 77t-27 112v281
q0 63 27 112.5t74.5 77.5t107.5 28q49 0 91 -17.5t72 -49.5q2 -3 4 -2t2 4v44q0 13 13 13h386q13 0 13 -13v-36q0 -13 -13 -13zM407.5 96.5q42.5 43.5 42.5 110.5v284q0 68 -42.5 111.5t-111.5 43.5q-68 0 -110.5 -43.5t-42.5 -111.5v-284q0 -67 42.5 -110.5t110.5 -43.5
q69 0 111.5 43.5z" />
    <glyph glyph-name="oe" unicode="&#x153;" horiz-adv-x="858" 
d="M680.5 72.5q32.5 19.5 49.5 52.5q2 6 7 7.5t10 -1.5l28 -17q10 -7 5 -18q-25 -48 -71.5 -76t-108.5 -28q-54 0 -97 23t-69 63q-3 5 -6 0q-27 -39 -70 -62.5t-95 -23.5q-70 0 -120.5 37.5t-68.5 100.5q-6 24 -8 52t-2 72q0 46 2 73.5t8 49.5q17 62 68 99.5t121 37.5
q51 0 94 -23t71 -63q3 -4 6 0q27 40 69 63t93 23q71 0 123 -38.5t69 -99.5q5 -20 7.5 -48t2.5 -82q0 -14 -13 -14h-312q-5 0 -5 -5q0 -56 6 -75q10 -46 45 -72.5t89 -26.5q40 0 72.5 19.5zM392 254q0 76 -6 100q-9 44 -42 71t-81 27q-47 0 -79.5 -27t-42.5 -71
q-6 -25 -6 -100q0 -73 7 -102q9 -44 41.5 -71t79.5 -27q48 0 81 27t42 71q6 25 6 102zM515.5 425q-32.5 -27 -41.5 -71q-4 -16 -6 -67q0 -5 5 -5h248q5 0 5 5q-2 52 -5 67q-10 44 -43.5 71t-81.5 27t-80.5 -27z" />
    <glyph glyph-name="Racute" unicode="&#x154;" horiz-adv-x="612" 
d="M489 10l-146 308q-2 4 -6 4h-167q-5 0 -5 -5v-304q0 -13 -13 -13h-45q-13 0 -13 13v675q0 13 13 13h256q86 0 139 -53t53 -139q0 -70 -37.5 -118.5t-102.5 -63.5q-5 -1 -3 -6l149 -306q2 -4 2 -6q0 -9 -12 -9h-46q-11 0 -16 10zM165 634v-250q0 -5 5 -5h185q58 0 94 35.5
t36 93.5t-36 94.5t-94 36.5h-185q-5 0 -5 -5zM258.5 775.5q-2.5 4.5 1.5 11.5l57 103q4 9 15 9h43q10 0 10 -8q0 -5 -2 -8l-64 -103q-6 -9 -15 -9h-35q-8 0 -10.5 4.5z" />
    <glyph glyph-name="racute" unicode="&#x155;" horiz-adv-x="364" 
d="M339 499q10 -4 7 -16l-10 -44q-3 -12 -16 -8q-19 6 -49 5q-52 -2 -86 -38.5t-34 -92.5v-292q0 -13 -13 -13h-45q-13 0 -13 13v480q0 13 13 13h45q13 0 13 -13v-56q0 -4 1.5 -4.5t3.5 2.5q21 36 53.5 56t74.5 20q33 0 55 -12zM177.5 588.5q-2.5 4.5 1.5 11.5l57 103
q4 9 15 9h43q10 0 10 -8q0 -5 -2 -8l-64 -103q-6 -9 -15 -9h-35q-8 0 -10.5 4.5z" />
    <glyph glyph-name="uni0156" unicode="&#x156;" horiz-adv-x="612" 
d="M489 10l-146 308q-2 4 -6 4h-167q-5 0 -5 -5v-304q0 -13 -13 -13h-45q-13 0 -13 13v675q0 13 13 13h256q86 0 139 -53t53 -139q0 -70 -37.5 -118.5t-102.5 -63.5q-5 -1 -3 -6l149 -306q2 -4 2 -6q0 -9 -12 -9h-46q-11 0 -16 10zM165 634v-250q0 -5 5 -5h185q58 0 94 35.5
t36 93.5t-36 94.5t-94 36.5h-185q-5 0 -5 -5zM243.5 -180.5q-2.5 4.5 1.5 11.5l57 103q4 9 15 9h43q10 0 10 -8q0 -5 -2 -8l-64 -103q-6 -9 -15 -9h-35q-8 0 -10.5 4.5z" />
    <glyph glyph-name="uni0157" unicode="&#x157;" horiz-adv-x="367" 
d="M339 499q10 -4 7 -16l-10 -44q-3 -12 -16 -8q-19 6 -49 5q-52 -2 -86 -38.5t-34 -92.5v-292q0 -13 -13 -13h-45q-13 0 -13 13v480q0 13 13 13h45q13 0 13 -13v-56q0 -4 1.5 -4.5t3.5 2.5q21 36 53.5 56t74.5 20q33 0 55 -12zM15.5 -180.5q-2.5 4.5 1.5 11.5l57 103
q4 9 15 9h43q10 0 10 -8q0 -5 -2 -8l-64 -103q-6 -9 -15 -9h-35q-8 0 -10.5 4.5z" />
    <glyph glyph-name="Rcaron" unicode="&#x158;" horiz-adv-x="612" 
d="M489 10l-146 308q-2 4 -6 4h-167q-5 0 -5 -5v-304q0 -13 -13 -13h-45q-13 0 -13 13v675q0 13 13 13h256q86 0 139 -53t53 -139q0 -70 -37.5 -118.5t-102.5 -63.5q-5 -1 -3 -6l149 -306q2 -4 2 -6q0 -9 -12 -9h-46q-11 0 -16 10zM165 634v-250q0 -5 5 -5h185q58 0 94 35.5
t36 93.5t-36 94.5t-94 36.5h-185q-5 0 -5 -5zM255 769l-74 102q-3 5 -3 8q0 8 11 8h30q10 0 16 -8l59 -80q2 -2 4 -2t3 2l59 80q6 8 16 8h30q11 0 11 -8q0 -3 -3 -8l-75 -102q-6 -8 -16 -8h-52q-10 0 -16 8z" />
    <glyph glyph-name="rcaron" unicode="&#x159;" horiz-adv-x="364" 
d="M339 499q10 -4 7 -16l-10 -44q-3 -12 -16 -8q-19 6 -49 5q-52 -2 -86 -38.5t-34 -92.5v-292q0 -13 -13 -13h-45q-13 0 -13 13v480q0 13 13 13h45q13 0 13 -13v-56q0 -4 1.5 -4.5t3.5 2.5q21 36 53.5 56t74.5 20q33 0 55 -12zM174 582l-74 102q-3 5 -3 8q0 8 11 8h30
q10 0 16 -8l59 -80q2 -2 4 -2t3 2l59 80q6 8 16 8h30q11 0 11 -8q0 -3 -3 -8l-75 -102q-6 -8 -16 -8h-52q-10 0 -16 8z" />
    <glyph glyph-name="Sacute" unicode="&#x15a;" horiz-adv-x="586" 
d="M170.5 15q-54.5 23 -84 65.5t-29.5 98.5v28q0 13 13 13h43q13 0 13 -13v-24q0 -57 48 -93t129 -36q77 0 117 32.5t40 86.5q0 35 -18.5 60t-56.5 47t-109 51q-75 30 -116.5 52.5t-67 58t-25.5 89.5q0 84 58.5 130.5t161.5 46.5q110 0 174 -52t64 -138v-19q0 -13 -13 -13
h-44q-13 0 -13 13v15q0 58 -45 95t-127 37q-71 0 -108.5 -29t-37.5 -84q0 -36 18.5 -59.5t53 -41t105.5 -45.5q73 -30 118 -56t72 -63.5t27 -91.5q0 -83 -61.5 -133.5t-171.5 -50.5q-73 0 -127.5 23zM248.5 783.5q-2.5 4.5 1.5 11.5l57 103q4 9 15 9h43q10 0 10 -8
q0 -5 -2 -8l-64 -103q-6 -9 -15 -9h-35q-8 0 -10.5 4.5z" />
    <glyph glyph-name="sacute" unicode="&#x15b;" horiz-adv-x="482" 
d="M146.5 13q-43.5 18 -67 48t-23.5 67v9q0 13 13 13h43q6 0 9.5 -2.5t3.5 -6.5v-9q0 -33 34 -57.5t86 -24.5t84 23.5t32 59.5q0 25 -16 41t-39 25t-69 23q-56 16 -92 32t-61 44.5t-25 72.5q0 64 50.5 102t132.5 38q55 0 97.5 -18t65.5 -49.5t23 -70.5q0 -13 -13 -13h-41
q-13 0 -13 7v6q0 34 -32.5 57t-87.5 23q-51 0 -82 -20.5t-31 -56.5q0 -34 29.5 -52t92.5 -36q58 -16 94 -31t62 -44t26 -75q0 -65 -50.5 -104t-135.5 -39q-56 0 -99.5 18zM202.5 586.5q-2.5 4.5 1.5 11.5l57 103q4 9 15 9h43q10 0 10 -8q0 -5 -2 -8l-64 -103q-6 -9 -15 -9
h-35q-8 0 -10.5 4.5z" />
    <glyph glyph-name="Scedilla" unicode="&#x15e;" horiz-adv-x="586" 
d="M477.5 49q-53.5 -49 -149.5 -56q-4 -1 -4.5 -3t2.5 -4q48 -42 48 -89q0 -13 -3 -23q-8 -32 -31.5 -46t-54.5 -14q-19 0 -39 5q-12 3 -10 15l3 16q1 13 15 10q12 -2 18 -2q22 0 36 11.5t14 35.5q0 39 -54 86q-4 2 -6 2q-95 9 -150 59t-55 127v28q0 13 13 13h43
q13 0 13 -13v-24q0 -57 48 -93t129 -36q77 0 117 32.5t40 86.5q0 35 -18.5 60t-56.5 47t-109 51q-75 30 -116.5 52.5t-67 58t-25.5 89.5q0 84 58.5 130.5t161.5 46.5q110 0 174 -52t64 -138v-19q0 -13 -13 -13h-44q-13 0 -13 13v15q0 58 -45 95t-127 37q-71 0 -108.5 -29
t-37.5 -84q0 -36 18.5 -59.5t53 -41t105.5 -45.5q73 -30 118 -56t72 -63.5t27 -91.5q0 -78 -53.5 -127z" />
    <glyph glyph-name="scedilla" unicode="&#x15f;" horiz-adv-x="482" 
d="M391 42.5q-41 -37.5 -111 -45.5q-6 -2 -2 -6q50 -44 50 -92q0 -12 -3 -22q-8 -32 -31.5 -46t-54.5 -14q-19 0 -39 5q-12 3 -10 15l3 16q1 13 15 10q12 -2 18 -2q22 0 36 11.5t14 35.5q0 41 -54 86q-4 2 -6 2q-72 7 -116 44.5t-44 87.5v9q0 13 13 13h43q6 0 9.5 -2.5
t3.5 -6.5v-9q0 -33 34 -57.5t86 -24.5t84 23.5t32 59.5q0 25 -16 41t-39 25t-69 23q-56 16 -92 32t-61 44.5t-25 72.5q0 64 50.5 102t132.5 38q55 0 97.5 -18t65.5 -49.5t23 -70.5q0 -13 -13 -13h-41q-13 0 -13 7v6q0 34 -32.5 57t-87.5 23q-51 0 -82 -20.5t-31 -56.5
q0 -34 29.5 -52t92.5 -36q58 -16 94 -31t62 -44t26 -75q0 -58 -41 -95.5z" />
    <glyph glyph-name="Scaron" unicode="&#x160;" horiz-adv-x="586" 
d="M170.5 15q-54.5 23 -84 65.5t-29.5 98.5v28q0 13 13 13h43q13 0 13 -13v-24q0 -57 48 -93t129 -36q77 0 117 32.5t40 86.5q0 35 -18.5 60t-56.5 47t-109 51q-75 30 -116.5 52.5t-67 58t-25.5 89.5q0 84 58.5 130.5t161.5 46.5q110 0 174 -52t64 -138v-19q0 -13 -13 -13
h-44q-13 0 -13 13v15q0 58 -45 95t-127 37q-71 0 -108.5 -29t-37.5 -84q0 -36 18.5 -59.5t53 -41t105.5 -45.5q73 -30 118 -56t72 -63.5t27 -91.5q0 -83 -61.5 -133.5t-171.5 -50.5q-73 0 -127.5 23zM245 777l-74 102q-3 5 -3 8q0 8 11 8h30q10 0 16 -8l59 -80q2 -2 4 -2
t3 2l59 80q6 8 16 8h30q11 0 11 -8q0 -3 -3 -8l-75 -102q-6 -8 -16 -8h-52q-10 0 -16 8z" />
    <glyph glyph-name="scaron" unicode="&#x161;" horiz-adv-x="482" 
d="M146.5 13q-43.5 18 -67 48t-23.5 67v9q0 13 13 13h43q6 0 9.5 -2.5t3.5 -6.5v-9q0 -33 34 -57.5t86 -24.5t84 23.5t32 59.5q0 25 -16 41t-39 25t-69 23q-56 16 -92 32t-61 44.5t-25 72.5q0 64 50.5 102t132.5 38q55 0 97.5 -18t65.5 -49.5t23 -70.5q0 -13 -13 -13h-41
q-13 0 -13 7v6q0 34 -32.5 57t-87.5 23q-51 0 -82 -20.5t-31 -56.5q0 -34 29.5 -52t92.5 -36q58 -16 94 -31t62 -44t26 -75q0 -65 -50.5 -104t-135.5 -39q-56 0 -99.5 18zM199 580l-74 102q-3 5 -3 8q0 8 11 8h30q10 0 16 -8l59 -80q2 -2 4 -2t3 2l59 80q6 8 16 8h30
q11 0 11 -8q0 -3 -3 -8l-75 -102q-6 -8 -16 -8h-52q-10 0 -16 8z" />
    <glyph glyph-name="uni0162" unicode="&#x162;" horiz-adv-x="569" 
d="M316 632v-619q0 -13 -3 -13q-2 0 4 -6q48 -44 48 -90q0 -12 -3 -22q-8 -32 -31.5 -46t-54.5 -14q-19 0 -39 5q-12 3 -10 15l3 16q1 13 15 10q12 -2 18 -2q22 0 36 11.5t14 35.5q0 39 -53 85q-4 2 -6 2q-9 3 -9 13v619q0 5 -5 5h-184q-13 0 -13 13v37q0 13 13 13h457
q13 0 13 -13v-37q0 -13 -13 -13h-192q-5 0 -5 -5z" />
    <glyph glyph-name="uni0163" unicode="&#x163;" horiz-adv-x="364" 
d="M294 447h-109q-5 0 -5 -5v-292q0 -48 21.5 -67.5t67.5 -19.5h22q13 0 13 -13v-35q0 -13 -13 -14h-34q-72 0 -109 27t-37 100v314q0 5 -5 5h-57q-13 0 -13 13v33q0 13 13 13h57q5 0 5 5v112q0 13 13 13h43q13 0 13 -13v-112q0 -5 5 -5h109q13 0 13 -13v-33q0 -13 -13 -13z
M176 -179l3 16q1 13 15 10q12 -2 18 -2q42 0 49 36q1 4 1 12q0 36 -47 78q-5 5 -5 9q0 7 11 7h19q10 0 16 -6q58 -46 58 -98q0 -12 -3 -22q-8 -32 -31.5 -46t-54.5 -14q-19 0 -39 5q-12 3 -10 15z" />
    <glyph glyph-name="Tcaron" unicode="&#x164;" horiz-adv-x="569" 
d="M526 687v-37q0 -13 -13 -13h-192q-5 0 -5 -5v-619q0 -13 -13 -13h-45q-13 0 -13 13v619q0 5 -5 5h-184q-13 0 -13 13v37q0 13 13 13h457q13 0 13 -13zM238 761l-75 103q-3 5 -3 7q0 9 12 9h30q10 0 16 -8l59 -80q1 -2 3 -2t4 2l59 80q6 8 16 8h30q11 0 11 -8q0 -3 -3 -8
l-75 -103q-6 -8 -16 -8h-52q-10 0 -16 8z" />
    <glyph glyph-name="tcaron" unicode="&#x165;" horiz-adv-x="364" 
d="M294 447h-109q-5 0 -5 -5v-292q0 -48 21.5 -67.5t67.5 -19.5h22q13 0 13 -13v-35q0 -13 -13 -14h-34q-72 0 -109 27t-37 100v314q0 5 -5 5h-57q-13 0 -13 13v33q0 13 13 13h57q5 0 5 5v112q0 13 13 13h43q13 0 13 -13v-112q0 -5 5 -5h109q13 0 13 -13v-33q0 -13 -13 -13z
M104 696l-75 103q-3 5 -3 7q0 9 12 9h30q10 0 16 -8l59 -80q1 -2 3 -2t4 2l59 80q6 8 16 8h30q11 0 11 -8q0 -3 -3 -8l-75 -103q-6 -8 -16 -8h-52q-10 0 -16 8z" />
    <glyph glyph-name="Tbar" unicode="&#x166;" horiz-adv-x="600" 
d="M513 637h-192q-5 0 -5 -5v-208q0 -5 5 -5h106q13 0 13 -13v-21q0 -13 -13 -13h-106q-5 0 -5 -5v-354q0 -13 -13 -13h-45q-13 0 -13 13v354q0 5 -5 5h-104q-13 0 -13 13v21q0 13 13 13h104q5 0 5 5v208q0 5 -5 5h-184q-13 0 -13 13v37q0 13 13 13h457q13 0 13 -13v-37
q0 -13 -13 -13z" />
    <glyph glyph-name="tbar" unicode="&#x167;" horiz-adv-x="600" 
d="M294 447h-109q-5 0 -5 -5v-89q0 -5 5 -5h105q13 0 13 -13v-21q0 -13 -13 -13h-105q-5 0 -5 -5v-146q0 -48 21.5 -67.5t67.5 -19.5h22q13 0 13 -13v-35q0 -13 -13 -14h-34q-72 0 -109 27t-37 100v168q0 5 -5 5h-51q-13 0 -13 13v21q0 13 13 13h51q5 0 5 5v89q0 5 -5 5h-57
q-13 0 -13 13v33q0 13 13 13h57q5 0 5 5v112q0 13 13 13h43q13 0 13 -13v-112q0 -5 5 -5h109q13 0 13 -13v-33q0 -13 -13 -13z" />
    <glyph glyph-name="Umacron" unicode="&#x16a;" horiz-adv-x="648" 
d="M200 20q-54 28 -84 78.5t-30 117.5v471q0 13 13 13h45q13 0 13 -13v-473q0 -71 46 -115.5t121 -44.5t121 44.5t46 115.5v473q0 13 13 13h45q13 0 13 -13v-471q0 -67 -29.5 -117.5t-83.5 -78.5t-125 -28q-70 0 -124 28zM190 813v25q0 13 13 13h243q13 0 13 -13v-25
q0 -13 -13 -13h-243q-13 0 -13 13z" />
    <glyph glyph-name="umacron" unicode="&#x16b;" horiz-adv-x="536" 
d="M399 506h45q13 0 13 -13v-480q0 -13 -13 -13h-45q-13 0 -13 13v38q0 3 -2 4t-4 -2q-43 -60 -132 -60q-48 0 -88.5 19.5t-64 56.5t-23.5 89v335q0 13 13 13h45q13 0 13 -13v-314q0 -57 32 -90.5t87 -33.5q57 0 90.5 34t33.5 90v314q0 13 13 13zM132 607v25q0 13 13 13h243
q13 0 13 -13v-25q0 -13 -13 -13h-243q-13 0 -13 13z" />
    <glyph glyph-name="Uring" unicode="&#x16e;" horiz-adv-x="648" 
d="M200 20q-54 28 -84 78.5t-30 117.5v471q0 13 13 13h45q13 0 13 -13v-473q0 -71 46 -115.5t121 -44.5t121 44.5t46 115.5v473q0 13 13 13h45q13 0 13 -13v-471q0 -67 -29.5 -117.5t-83.5 -78.5t-125 -28q-70 0 -124 28zM249.5 805q-30.5 30 -30.5 73t30.5 72.5t74.5 29.5
t74 -29.5t30 -72.5t-30 -73t-74 -30t-74.5 30zM369.5 832.5q18.5 18.5 18.5 45.5t-19 45.5t-45 18.5q-27 0 -46 -18.5t-19 -45.5t19 -45.5t46 -18.5t45.5 18.5z" />
    <glyph glyph-name="uring" unicode="&#x16f;" horiz-adv-x="536" 
d="M399 506h45q13 0 13 -13v-480q0 -13 -13 -13h-45q-13 0 -13 13v38q0 3 -2 4t-4 -2q-43 -60 -132 -60q-48 0 -88.5 19.5t-64 56.5t-23.5 89v335q0 13 13 13h45q13 0 13 -13v-314q0 -57 32 -90.5t87 -33.5q57 0 90.5 34t33.5 90v314q0 13 13 13zM191.5 599
q-30.5 30 -30.5 73t30.5 72.5t74.5 29.5t74 -29.5t30 -72.5t-30 -73t-74 -30t-74.5 30zM311.5 626.5q18.5 18.5 18.5 45.5t-19 45.5t-45 18.5q-27 0 -46 -18.5t-19 -45.5t19 -45.5t46 -18.5t45.5 18.5z" />
    <glyph glyph-name="Uhungarumlaut" unicode="&#x170;" horiz-adv-x="648" 
d="M200 20q-54 28 -84 78.5t-30 117.5v471q0 13 13 13h45q13 0 13 -13v-473q0 -71 46 -115.5t121 -44.5t121 44.5t46 115.5v473q0 13 13 13h45q13 0 13 -13v-471q0 -67 -29.5 -117.5t-83.5 -78.5t-125 -28q-70 0 -124 28zM213.5 785q-2.5 4 0.5 11l53 104q4 9 16 9h39
q8 0 10.5 -4.5t-1.5 -11.5l-57 -103q-5 -9 -15 -9h-36q-7 0 -9.5 4zM376 785q-3 4 1 11l56 104q4 9 15 9h37q8 0 10.5 -4.5t-1.5 -11.5l-58 -103q-5 -9 -15 -9h-34q-8 0 -11 4z" />
    <glyph glyph-name="uhungarumlaut" unicode="&#x171;" horiz-adv-x="536" 
d="M399 506h45q13 0 13 -13v-480q0 -13 -13 -13h-45q-13 0 -13 13v38q0 3 -2 4t-4 -2q-43 -60 -132 -60q-48 0 -88.5 19.5t-64 56.5t-23.5 89v335q0 13 13 13h45q13 0 13 -13v-314q0 -57 32 -90.5t87 -33.5q57 0 90.5 34t33.5 90v314q0 13 13 13zM155.5 579q-2.5 4 0.5 11
l53 104q4 9 16 9h39q8 0 10.5 -4.5t-1.5 -11.5l-57 -103q-5 -9 -15 -9h-36q-7 0 -9.5 4zM318 579q-3 4 1 11l56 104q4 9 15 9h37q8 0 10.5 -4.5t-1.5 -11.5l-58 -103q-5 -9 -15 -9h-34q-8 0 -11 4z" />
    <glyph glyph-name="Uogonek" unicode="&#x172;" horiz-adv-x="648" 
d="M504 700h45q13 0 13 -13v-471q0 -96 -58.5 -156t-156.5 -67q-3 0 -7 -2q-44 -42 -44 -77q0 -8 1 -12q7 -36 49 -36q6 0 18 2l4 1q9 0 11 -11l3 -16v-3q0 -9 -10 -12q-20 -5 -39 -5q-31 0 -54.5 14t-31.5 46q-3 10 -3 22q0 43 41 85q5 5 -2 6q-89 11 -143 71t-54 150v471
q0 13 13 13h45q13 0 13 -13v-473q0 -71 46 -115.5t121 -44.5t121 44.5t46 115.5v473q0 13 13 13z" />
    <glyph glyph-name="uogonek" unicode="&#x173;" horiz-adv-x="539" 
d="M466 -139q9 0 11 -11l3 -16v-3q0 -9 -10 -12q-20 -5 -39 -5q-31 0 -54.5 14t-31.5 46q-3 12 -3 23q0 51 57 97q3 2 4.5 4t-0.5 2h-4q-13 0 -13 13v38q0 3 -2 4t-4 -2q-43 -60 -132 -60q-48 0 -88.5 19.5t-64 56.5t-23.5 89v335q0 13 13 13h45q13 0 13 -13v-314
q0 -57 32 -90.5t87 -33.5q57 0 90.5 34t33.5 90v314q0 13 13 13h45q13 0 13 -13v-490q0 -4 -2 -6q-3 -2 -14 -13q-47 -42 -47 -78q0 -8 1 -12q7 -36 49 -36q6 0 18 2z" />
    <glyph glyph-name="Wcircumflex" unicode="&#x174;" horiz-adv-x="872" 
d="M216 11l-190 674l-1 4q0 11 12 11h49q11 0 14 -11l150 -542q1 -3 3 -3t3 3l140 542q3 11 15 11h48q11 0 14 -11l146 -543q1 -3 3 -3t3 3l150 543q3 11 14 11h46q7 0 10 -4t1 -11l-187 -674q-3 -11 -14 -11h-48q-12 0 -15 11l-144 556q-1 3 -3 3t-3 -3l-142 -556
q-3 -11 -15 -11h-45q-11 0 -14 11zM313 772q0 4 3 8l78 102q5 8 16 8h47q11 0 16 -8l79 -102q3 -4 3 -8q0 -8 -11 -8h-32q-10 0 -16 8l-58 80q-2 2 -4 2t-3 -2l-59 -80q-6 -8 -16 -8h-32q-11 0 -11 8z" />
    <glyph glyph-name="wcircumflex" unicode="&#x175;" horiz-adv-x="721" 
d="M173 11l-140 480q-1 2 -1 5q0 4 3.5 7t8.5 3h47q11 0 14 -11l104 -390q1 -3 3 -3t3 3l107 390q3 11 14 11h44q11 0 14 -11l109 -390q1 -3 3 -3t3 3l107 390q3 11 15 11l46 -1q7 0 10 -4t1 -11l-142 -479q-3 -11 -14 -11h-49q-11 0 -14 11l-108 369q-1 3 -3 3t-3 -3
l-104 -369q-3 -11 -14 -11h-50q-11 0 -14 11zM234 578q0 4 3 8l78 102q5 8 16 8h47q11 0 16 -8l79 -102q3 -4 3 -8q0 -8 -11 -8h-32q-10 0 -16 8l-58 80q-2 2 -4 2t-3 -2l-59 -80q-6 -8 -16 -8h-32q-11 0 -11 8z" />
    <glyph glyph-name="Ycircumflex" unicode="&#x176;" horiz-adv-x="567" 
d="M248 14v293q0 2 -2 6l-205 371q-2 6 -2 7q0 4 3 6.5t8 2.5h48q11 0 15 -9l167 -302q3 -4 6 0l168 302q5 9 15 9h48q8 0 10.5 -4.5t-1.5 -11.5l-205 -371q-2 -4 -2 -6v-293q0 -13 -13 -13h-45q-13 0 -13 13zM161 771q0 4 3 8l78 102q5 8 16 8h47q11 0 16 -8l79 -102
q3 -4 3 -8q0 -8 -11 -8h-32q-10 0 -16 8l-58 80q-2 2 -4 2t-3 -2l-59 -80q-6 -8 -16 -8h-32q-11 0 -11 8z" />
    <glyph glyph-name="ycircumflex" unicode="&#x177;" horiz-adv-x="461" 
d="M50 -187v35q0 13 7 13h7q39 0 60.5 11t37 39t33.5 86q1 2 0 6l-168 488q-1 2 -1 5q0 4 3.5 7t8.5 3h47q12 0 15 -11l129 -392q1 -4 3 -4t3 4l126 392q3 11 14 11h48q7 0 10 -4t1 -11l-184 -535q-24 -67 -45 -99t-52.5 -44.5t-88.5 -12.5h-7q-7 0 -7 13zM108 582q0 4 3 8
l78 102q5 8 16 8h47q11 0 16 -8l79 -102q3 -4 3 -8q0 -8 -11 -8h-32q-10 0 -16 8l-58 80q-2 2 -4 2t-3 -2l-59 -80q-6 -8 -16 -8h-32q-11 0 -11 8z" />
    <glyph glyph-name="Ydieresis" unicode="&#x178;" horiz-adv-x="567" 
d="M248 14v293q0 2 -2 6l-205 371q-2 6 -2 7q0 4 3 6.5t8 2.5h48q11 0 15 -9l167 -302q3 -4 6 0l168 302q5 9 15 9h48q8 0 10.5 -4.5t-1.5 -11.5l-205 -371q-2 -4 -2 -6v-293q0 -13 -13 -13h-45q-13 0 -13 13zM165.5 806q-13.5 13 -13.5 33t13.5 33.5t34.5 13.5
q20 0 33 -13.5t13 -33.5t-13 -33t-33 -13q-21 0 -34.5 13zM334 806q-13 13 -13 33t13 33.5t34 13.5t34 -13.5t13 -33.5t-13 -33t-34 -13t-34 13z" />
    <glyph glyph-name="Zacute" unicode="&#x179;" horiz-adv-x="549" 
d="M45 13v43q0 8 5 16l364 560q3 6 -3 6h-353q-13 0 -13 13v36q0 13 13 13h425q13 0 13 -13v-43q0 -8 -5 -16l-363 -560q-3 -6 3 -6h352q13 0 13 -13v-36q0 -13 -13 -13h-425q-13 0 -13 13zM228.5 788.5q-2.5 4.5 1.5 11.5l57 103q4 9 15 9h43q10 0 10 -8q0 -5 -2 -8
l-64 -103q-6 -9 -15 -9h-35q-8 0 -10.5 4.5z" />
    <glyph glyph-name="zacute" unicode="&#x17a;" horiz-adv-x="445" 
d="M34 13v43q0 9 6 16l281 363q2 2 1 4t-4 2h-267q-13 0 -13 13v39q0 13 13 13h345q13 0 13 -13v-43q0 -8 -6 -16l-284 -363q-2 -2 -1 -4t4 -2h274q13 0 13 -13v-39q0 -13 -13 -13h-349q-13 0 -13 13zM180.5 591.5q-2.5 4.5 1.5 11.5l57 103q4 9 15 9h43q10 0 10 -8
q0 -5 -2 -8l-64 -103q-6 -9 -15 -9h-35q-8 0 -10.5 4.5z" />
    <glyph glyph-name="Zdotaccent" unicode="&#x17b;" horiz-adv-x="549" 
d="M45 13v43q0 8 5 16l364 560q3 6 -3 6h-353q-13 0 -13 13v36q0 13 13 13h425q13 0 13 -13v-43q0 -8 -5 -16l-363 -560q-3 -6 3 -6h352q13 0 13 -13v-36q0 -13 -13 -13h-425q-13 0 -13 13zM235 805.5q-13 12.5 -13 31.5t13 31.5t33 12.5q19 0 31 -12.5t12 -31.5t-12 -31.5
t-31 -12.5q-20 0 -33 12.5z" />
    <glyph glyph-name="zdotaccent" unicode="&#x17c;" horiz-adv-x="445" 
d="M34 13v43q0 9 6 16l281 363q2 2 1 4t-4 2h-267q-13 0 -13 13v39q0 13 13 13h345q13 0 13 -13v-43q0 -8 -6 -16l-284 -363q-2 -2 -1 -4t4 -2h274q13 0 13 -13v-39q0 -13 -13 -13h-349q-13 0 -13 13zM187 608.5q-13 12.5 -13 31.5t13 31.5t33 12.5q19 0 31 -12.5t12 -31.5
t-12 -31.5t-31 -12.5q-20 0 -33 12.5z" />
    <glyph glyph-name="Zcaron" unicode="&#x17d;" horiz-adv-x="549" 
d="M45 13v43q0 8 5 16l364 560q3 6 -3 6h-353q-13 0 -13 13v36q0 13 13 13h425q13 0 13 -13v-43q0 -8 -5 -16l-363 -560q-3 -6 3 -6h352q13 0 13 -13v-36q0 -13 -13 -13h-425q-13 0 -13 13zM225 782l-74 102q-3 5 -3 8q0 8 11 8h30q10 0 16 -8l59 -80q2 -2 4 -2t3 2l59 80
q6 8 16 8h30q11 0 11 -8q0 -3 -3 -8l-75 -102q-6 -8 -16 -8h-52q-10 0 -16 8z" />
    <glyph glyph-name="zcaron" unicode="&#x17e;" horiz-adv-x="445" 
d="M34 13v43q0 9 6 16l281 363q2 2 1 4t-4 2h-267q-13 0 -13 13v39q0 13 13 13h345q13 0 13 -13v-43q0 -8 -6 -16l-284 -363q-2 -2 -1 -4t4 -2h274q13 0 13 -13v-39q0 -13 -13 -13h-349q-13 0 -13 13zM177 585l-74 102q-3 5 -3 8q0 8 11 8h30q10 0 16 -8l59 -80q2 -2 4 -2
t3 2l59 80q6 8 16 8h30q11 0 11 -8q0 -3 -3 -8l-75 -102q-6 -8 -16 -8h-52q-10 0 -16 8z" />
    <glyph glyph-name="florin" unicode="&#x192;" horiz-adv-x="547" 
d="M310.5 637.5q21.5 34.5 62.5 48t118 14.5q13 0 13 -13v-36q0 -13 -13 -13h-30q-55 0 -79 -24.5t-33 -83.5l-19 -120q0 -5 4 -5h88q13 0 13 -13v-39q0 -13 -13 -13h-98q-6 0 -6 -5l-59 -369q-11 -69 -32.5 -103.5t-62 -48t-117.5 -14.5q-13 0 -13 13v36q0 13 13 13h30
q55 0 79 24.5t33 83.5l58 365q0 5 -4 5h-72q-13 0 -13 13v39q0 13 13 13h82q6 0 6 5l20 124q10 69 31.5 103.5z" />
    <glyph glyph-name="uni01CD" unicode="&#x1cd;" horiz-adv-x="607" 
d="M497 11l-40 122q-2 4 -5 4h-298q-3 0 -5 -4l-39 -122q-3 -11 -14 -11h-48q-7 0 -10 4t-1 11l220 674q3 11 14 11h64q11 0 14 -11l221 -674q1 -2 1 -5q0 -4 -3.5 -7t-8.5 -3h-48q-11 0 -14 11zM175 195h257q6 0 4 6l-130 409q-1 4 -3 4t-3 -4l-129 -409q-1 -6 4 -6z
M259 761l-75 103q-3 5 -3 7q0 9 12 9h30q10 0 16 -8l59 -80q1 -2 3 -2t4 2l59 80q6 8 16 8h30q11 0 11 -8q0 -3 -3 -8l-75 -103q-6 -8 -16 -8h-52q-10 0 -16 8z" />
    <glyph glyph-name="uni01CE" unicode="&#x1ce;" horiz-adv-x="511" 
d="M394.5 468q49.5 -46 49.5 -122v-333q0 -13 -13 -13h-45q-13 0 -13 13v36q0 3 -2 4t-4 -2q-27 -29 -67.5 -44t-88.5 -15q-70 0 -117.5 36t-47.5 110q0 75 54.5 118.5t151.5 43.5h116q5 0 5 5v37q0 51 -28.5 80.5t-88.5 29.5q-47 0 -77 -18t-38 -50q-3 -12 -15 -10l-49 6
q-13 2 -12 11q10 55 61.5 89t128.5 34q90 0 139.5 -46zM329.5 82.5q43.5 29.5 43.5 79.5v77q0 5 -5 5h-105q-66 0 -106 -27t-40 -75q0 -44 31 -66.5t79 -22.5q59 0 102.5 29.5zM213 575l-75 103q-3 5 -3 7q0 9 12 9h30q10 0 16 -8l59 -80q1 -2 3 -2t4 2l59 80q6 8 16 8h30
q11 0 11 -8q0 -3 -3 -8l-75 -103q-6 -8 -16 -8h-52q-10 0 -16 8z" />
    <glyph glyph-name="uni0218" unicode="&#x218;" horiz-adv-x="586" 
d="M170.5 15q-54.5 23 -84 65.5t-29.5 98.5v28q0 13 13 13h43q13 0 13 -13v-24q0 -57 48 -93t129 -36q77 0 117 32.5t40 86.5q0 35 -18.5 60t-56.5 47t-109 51q-75 30 -116.5 52.5t-67 58t-25.5 89.5q0 84 58.5 130.5t161.5 46.5q110 0 174 -52t64 -138v-19q0 -13 -13 -13
h-44q-13 0 -13 13v15q0 58 -45 95t-127 37q-71 0 -108.5 -29t-37.5 -84q0 -36 18.5 -59.5t53 -41t105.5 -45.5q73 -30 118 -56t72 -63.5t27 -91.5q0 -83 -61.5 -133.5t-171.5 -50.5q-73 0 -127.5 23zM223.5 -188.5q-2.5 4.5 1.5 11.5l57 103q4 9 15 9h43q10 0 10 -8
q0 -5 -2 -8l-64 -103q-6 -9 -15 -9h-35q-8 0 -10.5 4.5z" />
    <glyph glyph-name="uni0219" unicode="&#x219;" horiz-adv-x="482" 
d="M146.5 13q-43.5 18 -67 48t-23.5 67v9q0 13 13 13h43q6 0 9.5 -2.5t3.5 -6.5v-9q0 -33 34 -57.5t86 -24.5t84 23.5t32 59.5q0 25 -16 41t-39 25t-69 23q-56 16 -92 32t-61 44.5t-25 72.5q0 64 50.5 102t132.5 38q55 0 97.5 -18t65.5 -49.5t23 -70.5q0 -13 -13 -13h-41
q-13 0 -13 7v6q0 34 -32.5 57t-87.5 23q-51 0 -82 -20.5t-31 -56.5q0 -34 29.5 -52t92.5 -36q58 -16 94 -31t62 -44t26 -75q0 -65 -50.5 -104t-135.5 -39q-56 0 -99.5 18zM177.5 -185.5q-2.5 4.5 1.5 11.5l57 103q4 9 15 9h43q10 0 10 -8q0 -5 -2 -8l-64 -103q-6 -9 -15 -9
h-35q-8 0 -10.5 4.5z" />
    <glyph glyph-name="uni021A" unicode="&#x21a;" horiz-adv-x="575" 
d="M526 687v-37q0 -13 -13 -13h-192q-5 0 -5 -5v-619q0 -13 -13 -13h-45q-13 0 -13 13v619q0 5 -5 5h-184q-13 0 -13 13v37q0 13 13 13h457q13 0 13 -13zM183.5 -180.5q-2.5 4.5 1.5 11.5l57 103q4 9 15 9h43q10 0 10 -8q0 -5 -2 -8l-64 -103q-6 -9 -15 -9h-35
q-8 0 -10.5 4.5z" />
    <glyph glyph-name="uni021B" unicode="&#x21b;" horiz-adv-x="364" 
d="M294 447h-109q-5 0 -5 -5v-292q0 -48 21.5 -67.5t67.5 -19.5h22q13 0 13 -13v-35q0 -13 -13 -14h-34q-72 0 -109 27t-37 100v314q0 5 -5 5h-57q-13 0 -13 13v33q0 13 13 13h57q5 0 5 5v112q0 13 13 13h43q13 0 13 -13v-112q0 -5 5 -5h109q13 0 13 -13v-33q0 -13 -13 -13z
M163.5 -201.5q-2.5 4.5 1.5 11.5l57 103q4 9 15 9h43q10 0 10 -8q0 -5 -2 -8l-64 -103q-6 -9 -15 -9h-35q-8 0 -10.5 4.5z" />
    <glyph glyph-name="uni0228" unicode="&#x228;" horiz-adv-x="605" 
d="M534 638h-364q-5 0 -5 -5v-245q0 -5 5 -5h254q13 0 13 -13v-36q0 -13 -13 -13h-254q-5 0 -5 -5v-249q0 -5 5 -5h364q13 0 13 -13v-36q0 -13 -13 -13h-177q-3 0 -3.5 -2t1.5 -4q48 -44 48 -90q0 -12 -3 -22q-8 -32 -31.5 -46t-54.5 -14q-19 0 -39 5q-12 3 -10 15l3 16
q1 13 15 10q12 -2 18 -2q22 0 36 11.5t14 35.5q0 39 -53 85q-4 2 -6 2h-185q-13 0 -13 13v674q0 13 13 13h427q13 0 13 -13v-36q0 -13 -13 -13z" />
    <glyph glyph-name="uni0229" unicode="&#x229;" horiz-adv-x="534" 
d="M354.5 73.5q32.5 19.5 50.5 54.5q2 5 7 7t10 -1l29 -16q11 -6 6 -17q-21 -44 -60.5 -72t-93.5 -35q-6 -2 -2 -6q51 -45 51 -93q0 -12 -3 -22q-8 -32 -31.5 -46t-54.5 -14q-19 0 -39 5q-12 3 -10 15l3 16q1 13 15 10q12 -2 18 -2q42 0 49 36q1 4 1 12q0 41 -56 87
q-4 2 -6 2q-58 7 -97 39t-57 84q-19 50 -19 138q0 43 1.5 68.5t7.5 47.5q17 65 68.5 104t124.5 39q87 0 136.5 -45t63.5 -127q6 -32 6 -100q0 -13 -13 -13h-320q-5 0 -5 -5q0 -50 6 -73q11 -45 46.5 -71.5t89.5 -26.5q45 1 77.5 20.5zM185 426.5q-32 -25.5 -42 -68.5
q-6 -20 -8 -68q0 -5 5 -5h257q5 0 5 5q-2 44 -6 64q-11 45 -44.5 71.5t-84.5 26.5q-50 0 -82 -25.5z" />
    <glyph glyph-name="circumflex" unicode="&#x2c6;" horiz-adv-x="260" 
d="M9 578q0 4 3 8l78 102q5 8 16 8h47q11 0 16 -8l79 -102q3 -4 3 -8q0 -8 -11 -8h-32q-10 0 -16 8l-58 80q-2 2 -4 2t-3 -2l-59 -80q-6 -8 -16 -8h-32q-11 0 -11 8z" />
    <glyph glyph-name="caron" unicode="&#x2c7;" horiz-adv-x="315" 
d="M115 577l-74 102q-3 5 -3 8q0 8 11 8h30q10 0 16 -8l59 -80q2 -2 4 -2t3 2l59 80q6 8 16 8h30q11 0 11 -8q0 -3 -3 -8l-75 -102q-6 -8 -16 -8h-52q-10 0 -16 8z" />
    <glyph glyph-name="uni02C9" unicode="&#x2c9;" horiz-adv-x="269" 
d="M0 607v25q0 13 13 13h243q13 0 13 -13v-25q0 -13 -13 -13h-243q-13 0 -13 13z" />
    <glyph glyph-name="breve" unicode="&#x2d8;" horiz-adv-x="278" 
d="M66 584.5q-31 26.5 -36 66.5v2q0 11 12 11h18q12 0 13 -12q5 -24 23 -40t43 -16q24 0 42 16t23 40q2 12 13 12h19q6 0 9.5 -3.5t2.5 -9.5q-4 -40 -35.5 -66.5t-73.5 -26.5t-73 26.5z" />
    <glyph glyph-name="dotaccent" unicode="&#x2d9;" horiz-adv-x="147" 
d="M42 598.5q-13 12.5 -13 31.5t13 31.5t33 12.5q19 0 31 -12.5t12 -31.5t-12 -31.5t-31 -12.5q-20 0 -33 12.5z" />
    <glyph glyph-name="ring" unicode="&#x2da;" horiz-adv-x="266" 
d="M59.5 599q-30.5 30 -30.5 73t30.5 72.5t74.5 29.5t74 -29.5t30 -72.5t-30 -73t-74 -30t-74.5 30zM179.5 626.5q18.5 18.5 18.5 45.5t-19 45.5t-45 18.5q-27 0 -46 -18.5t-19 -45.5t19 -45.5t46 -18.5t45.5 18.5z" />
    <glyph glyph-name="ogonek" unicode="&#x2db;" horiz-adv-x="140" 
d="M138 -169q0 -9 -10 -12q-20 -5 -39 -5q-31 0 -54.5 14t-31.5 46q-3 10 -3 22q0 52 58 98q6 6 16 6h19q11 0 11 -7q0 -4 -5 -9q-47 -42 -47 -78q0 -8 1 -12q7 -36 49 -36q6 0 18 2l4 1q9 0 11 -11l3 -16v-3z" />
    <glyph glyph-name="tilde" unicode="&#x2dc;" horiz-adv-x="343" 
d="M194.5 598.5q-14.5 6.5 -30.5 17.5t-25 15.5t-20 4.5q-15 0 -25.5 -5t-21.5 -19q-7 -7 -11 -7t-8 3l-14 10q-5 3 -6 8t2 10q30 50 80 50q16 0 29 -5.5t32 -17.5q17 -11 27.5 -16t21.5 -5q29 0 47 27q7 10 18 4l15 -9q6 -4 6 -10t-6 -15q-16 -24 -37.5 -35.5t-41.5 -11.5
q-17 0 -31.5 6.5z" />
    <glyph glyph-name="hungarumlaut" unicode="&#x2dd;" horiz-adv-x="364" 
d="M36 589.5q-3 4.5 1 11.5l57 103q5 9 15 9h43q10 0 10 -8q0 -5 -2 -8l-64 -103q-6 -9 -15 -9h-34q-8 0 -11 4.5zM201 589.5q-3 4.5 1 11.5l57 103q5 9 15 9h43q10 0 10 -8q0 -5 -2 -8l-64 -103q-6 -9 -15 -9h-34q-8 0 -11 4.5z" />
    <glyph glyph-name="gravecomb" unicode="&#x300;" 
d="M-7 586q0 -4 -3 -6.5t-8 -2.5h-35q-9 0 -15 9l-64 103q-2 3 -2 8q0 8 10 8h43q10 0 15 -9l57 -103q2 -6 2 -7z" />
    <glyph glyph-name="acutecomb" unicode="&#x301;" 
d="M-186.5 581.5q-2.5 4.5 1.5 11.5l57 103q4 9 15 9h43q10 0 10 -8q0 -5 -2 -8l-64 -103q-6 -9 -15 -9h-35q-8 0 -10.5 4.5z" />
    <glyph glyph-name="uni0302" unicode="&#x302;" 
d="M-251 578q0 4 3 8l78 102q5 8 16 8h47q11 0 16 -8l79 -102q3 -4 3 -8q0 -8 -11 -8h-32q-10 0 -16 8l-58 80q-2 2 -4 2t-3 -2l-59 -80q-6 -8 -16 -8h-32q-11 0 -11 8z" />
    <glyph glyph-name="tildecomb" unicode="&#x303;" 
d="M-125.5 598.5q-14.5 6.5 -30.5 17.5t-25 15.5t-20 4.5q-15 0 -25.5 -5t-21.5 -19q-7 -7 -11 -7t-8 3l-14 10q-5 3 -6 8t2 10q30 50 80 50q16 0 29 -5.5t32 -17.5q17 -11 27.5 -16t21.5 -5q29 0 47 27q7 10 18 4l15 -9q6 -4 6 -10t-6 -15q-16 -24 -37.5 -35.5t-41.5 -11.5
q-17 0 -31.5 6.5z" />
    <glyph glyph-name="uni0304" unicode="&#x304;" 
d="M-269 607v25q0 13 13 13h243q13 0 13 -13v-25q0 -13 -13 -13h-243q-13 0 -13 13z" />
    <glyph glyph-name="uni0306" unicode="&#x306;" 
d="M-212 570.5q-31 26.5 -36 66.5v2q0 11 12 11h18q11 0 13 -12q5 -24 23 -40t43 -16q24 0 42 16t23 40q1 12 13 12h19q6 0 9.5 -3.5t2.5 -9.5q-4 -40 -35.5 -66.5t-73.5 -26.5t-73 26.5z" />
    <glyph glyph-name="uni0307" unicode="&#x307;" 
d="M-76 598.5q-13 12.5 -13 31.5t13 31.5t33 12.5q19 0 31 -12.5t12 -31.5t-12 -31.5t-31 -12.5q-20 0 -33 12.5z" />
    <glyph glyph-name="uni0308" unicode="&#x308;" 
d="M-249.5 613q-13.5 13 -13.5 33t13.5 33.5t34.5 13.5q20 0 33 -13.5t13 -33.5t-13 -33t-33 -13q-21 0 -34.5 13zM-81 613q-13 13 -13 33t13 33.5t34 13.5t34 -13.5t13 -33.5t-13 -33t-34 -13t-34 13z" />
    <glyph glyph-name="uni030A" unicode="&#x30a;" 
d="M-176.5 599q-30.5 30 -30.5 73t30.5 72.5t74.5 29.5t74 -29.5t30 -72.5t-30 -73t-74 -30t-74.5 30zM-56.5 626.5q18.5 18.5 18.5 45.5t-19 45.5t-45 18.5q-27 0 -46 -18.5t-19 -45.5t19 -45.5t46 -18.5t45.5 18.5z" />
    <glyph glyph-name="uni030B" unicode="&#x30b;" 
d="M-318.5 579q-2.5 4 0.5 11l53 104q4 9 16 9h39q8 0 10.5 -4.5t-1.5 -11.5l-57 -103q-5 -9 -15 -9h-36q-7 0 -9.5 4zM-156 579q-3 4 1 11l56 104q4 9 15 9h37q8 0 10.5 -4.5t-1.5 -11.5l-58 -103q-5 -9 -15 -9h-34q-8 0 -11 4z" />
    <glyph glyph-name="uni030C" unicode="&#x30c;" 
d="M-200 569l-75 103q-3 5 -3 7q0 9 12 9h30q10 0 16 -8l59 -80q1 -2 3 -2t4 2l59 80q6 8 16 8h30q11 0 11 -8q0 -3 -3 -8l-75 -103q-6 -8 -16 -8h-52q-10 0 -16 8z" />
    <glyph glyph-name="uni0312" unicode="&#x312;" 
d="M-36.5 687.5q2.5 -4.5 -1.5 -11.5l-57 -103q-5 -9 -15 -9h-43q-10 0 -10 8q0 5 2 8l64 103q6 9 15 9h35q8 0 10.5 -4.5z" />
    <glyph glyph-name="uni0313" unicode="&#x313;" 
d="M-134.5 581.5q-2.5 4.5 1.5 11.5l57 103q4 9 15 9h43q10 0 10 -8q0 -5 -2 -8l-64 -103q-6 -9 -15 -9h-35q-8 0 -10.5 4.5z" />
    <glyph glyph-name="uni0326" unicode="&#x326;" 
d="M-163.5 -180.5q-2.5 4.5 1.5 11.5l57 103q4 9 15 9h43q10 0 10 -8q0 -5 -2 -8l-64 -103q-6 -9 -15 -9h-35q-8 0 -10.5 4.5z" />
    <glyph glyph-name="uni0327" unicode="&#x327;" 
d="M-138 -166l3 16q1 13 15 10q12 -2 18 -2q42 0 49 36q1 4 1 12q0 36 -47 78q-5 5 -5 9q0 7 11 7h19q10 0 16 -6q58 -46 58 -98q0 -12 -3 -22q-8 -32 -31.5 -46t-54.5 -14q-19 0 -39 5q-12 3 -10 15z" />
    <glyph glyph-name="uni0328" unicode="&#x328;" 
d="M-2 -169q0 -9 -10 -12q-20 -5 -39 -5q-31 0 -54.5 14t-31.5 46q-3 10 -3 22q0 52 58 98q6 6 16 6h19q11 0 11 -7q0 -4 -5 -9q-47 -42 -47 -78q0 -8 1 -12q7 -36 49 -36q6 0 18 2l4 1q9 0 11 -11l3 -16v-3z" />
    <glyph glyph-name="uni0335" unicode="&#x335;" 
d="M-304 620h291q13 0 13 -13v-21q0 -13 -13 -13h-291q-13 0 -13 13v21q0 13 13 13z" />
    <glyph glyph-name="uni0336" unicode="&#x336;" 
d="M-591 529v25q0 13 13 13h565q13 0 13 -13v-25q0 -13 -13 -13h-565q-13 0 -13 13z" />
    <glyph glyph-name="uni0337" unicode="&#x337;" 
d="M-393 37q-5 0 -10 5l-20 24q-3 5 -3 8q0 6 6 10l438 330q5 3 8 3q5 0 10 -5l19 -24q3 -4 3 -8q0 -5 -6 -10l-437 -330q-4 -3 -8 -3z" />
    <glyph glyph-name="uni0338" unicode="&#x338;" 
d="M-423.5 -35q-2.5 4 0.5 11l360 759q5 10 16 10h30q7 0 10 -4t0 -11l-361 -759q-5 -10 -16 -10h-29q-8 0 -10.5 4z" />
    <glyph glyph-name="uni0394" unicode="&#x394;" horiz-adv-x="638" 
d="M32 13v41q0 9 3 16l252 620q4 10 15 10h34q11 0 15 -10l252 -621q3 -7 3 -16v-40q0 -13 -13 -13h-548q-13 0 -13 13zM104.5 64q1.5 -2 3.5 -2h422q2 0 3.5 2t0.5 4l-212 534q-3 8 -6 0l-212 -534q-1 -2 0.5 -4z" />
    <glyph glyph-name="uni03A9" unicode="&#x3a9;" horiz-adv-x="641" 
d="M72 13v36q0 13 13 13h78q3 0 4 2t-2 4q-40 27 -61.5 71.5t-21.5 100.5v236q0 69 29.5 121.5t83.5 81.5t125 29t125.5 -29t84 -81.5t29.5 -121.5v-236q0 -56 -22 -100.5t-62 -71.5q-3 -2 -2 -4t4 -2h79q13 0 13 -13v-36q0 -13 -13 -13h-181q-13 0 -13 13v38q0 11 11 14
q47 12 81 57t34 108v248q0 76 -46 122t-122 46q-75 0 -121 -46t-46 -122v-248q0 -63 34 -108t80 -57q11 -3 11 -14v-38q0 -13 -13 -13h-180q-13 0 -13 13z" />
    <glyph glyph-name="uni03BC" unicode="&#x3bc;" horiz-adv-x="546" 
d="M406 506h45q13 0 13 -13v-480q0 -13 -13 -13h-45q-13 0 -13 13v38q0 3 -2 4t-4 -2q-43 -60 -132 -60q-56 0 -98 24q-2 2 -4 1t-2 -4v-201q0 -13 -13 -13h-45q-13 0 -13 13v322v6q-1 5 -1 17v335q0 13 13 13h46q13 0 13 -13v-333q5 -49 36.5 -77t81.5 -28q57 0 90.5 34
t33.5 90v314q0 13 13 13z" />
    <glyph glyph-name="pi" unicode="&#x3c0;" horiz-adv-x="646" 
d="M594 445h-69q-5 0 -5 -5v-287q0 -52 14 -70.5t48 -20.5q13 0 13 -13v-35q0 -13 -13 -13q-62 0 -97.5 23.5t-35.5 97.5v318q0 5 -5 5h-235q-5 0 -5 -5v-427q0 -13 -13 -13h-45q-13 0 -13 13v427q0 5 -5 5h-76q-13 0 -13 13v35q0 13 13 13h542q13 0 13 -13v-35
q0 -13 -13 -13z" />
    <glyph glyph-name="Wgrave" unicode="&#x1e80;" horiz-adv-x="872" 
d="M216 11l-190 674l-1 4q0 11 12 11h49q11 0 14 -11l150 -542q1 -3 3 -3t3 3l140 542q3 11 15 11h48q11 0 14 -11l146 -543q1 -3 3 -3t3 3l150 543q3 11 14 11h46q7 0 10 -4t1 -11l-187 -674q-3 -11 -14 -11h-48q-12 0 -15 11l-144 556q-1 3 -3 3t-3 -3l-142 -556
q-3 -11 -15 -11h-45q-11 0 -14 11zM458 780q0 -4 -3 -6.5t-8 -2.5h-35q-9 0 -15 9l-64 103q-2 3 -2 8q0 8 10 8h43q10 0 15 -9l57 -103q2 -6 2 -7z" />
    <glyph glyph-name="wgrave" unicode="&#x1e81;" horiz-adv-x="721" 
d="M173 11l-140 480q-1 2 -1 5q0 4 3.5 7t8.5 3h47q11 0 14 -11l104 -390q1 -3 3 -3t3 3l107 390q3 11 14 11h44q11 0 14 -11l109 -390q1 -3 3 -3t3 3l107 390q3 11 15 11l46 -1q7 0 10 -4t1 -11l-142 -479q-3 -11 -14 -11h-49q-11 0 -14 11l-108 369q-1 3 -3 3t-3 -3
l-104 -369q-3 -11 -14 -11h-50q-11 0 -14 11zM379 586q0 -4 -3 -6.5t-8 -2.5h-35q-9 0 -15 9l-64 103q-2 3 -2 8q0 8 10 8h43q10 0 15 -9l57 -103q2 -6 2 -7z" />
    <glyph glyph-name="Wacute" unicode="&#x1e82;" horiz-adv-x="872" 
d="M216 11l-190 674l-1 4q0 11 12 11h49q11 0 14 -11l150 -542q1 -3 3 -3t3 3l140 542q3 11 15 11h48q11 0 14 -11l146 -543q1 -3 3 -3t3 3l150 543q3 11 14 11h46q7 0 10 -4t1 -11l-187 -674q-3 -11 -14 -11h-48q-12 0 -15 11l-144 556q-1 3 -3 3t-3 -3l-142 -556
q-3 -11 -15 -11h-45q-11 0 -14 11zM395.5 775.5q-2.5 4.5 1.5 11.5l57 103q4 9 15 9h43q10 0 10 -8q0 -5 -2 -8l-64 -103q-6 -9 -15 -9h-35q-8 0 -10.5 4.5z" />
    <glyph glyph-name="wacute" unicode="&#x1e83;" horiz-adv-x="721" 
d="M173 11l-140 480q-1 2 -1 5q0 4 3.5 7t8.5 3h47q11 0 14 -11l104 -390q1 -3 3 -3t3 3l107 390q3 11 14 11h44q11 0 14 -11l109 -390q1 -3 3 -3t3 3l107 390q3 11 15 11l46 -1q7 0 10 -4t1 -11l-142 -479q-3 -11 -14 -11h-49q-11 0 -14 11l-108 369q-1 3 -3 3t-3 -3
l-104 -369q-3 -11 -14 -11h-50q-11 0 -14 11zM316.5 581.5q-2.5 4.5 1.5 11.5l57 103q4 9 15 9h43q10 0 10 -8q0 -5 -2 -8l-64 -103q-6 -9 -15 -9h-35q-8 0 -10.5 4.5z" />
    <glyph glyph-name="Wdieresis" unicode="&#x1e84;" horiz-adv-x="872" 
d="M216 11l-190 674l-1 4q0 11 12 11h49q11 0 14 -11l150 -542q1 -3 3 -3t3 3l140 542q3 11 15 11h48q11 0 14 -11l146 -543q1 -3 3 -3t3 3l150 543q3 11 14 11h46q7 0 10 -4t1 -11l-187 -674q-3 -11 -14 -11h-48q-12 0 -15 11l-144 556q-1 3 -3 3t-3 -3l-142 -556
q-3 -11 -15 -11h-45q-11 0 -14 11zM317.5 807q-13.5 13 -13.5 33t13.5 33.5t34.5 13.5q20 0 33 -13.5t13 -33.5t-13 -33t-33 -13q-21 0 -34.5 13zM486 807q-13 13 -13 33t13 33.5t34 13.5t34 -13.5t13 -33.5t-13 -33t-34 -13t-34 13z" />
    <glyph glyph-name="wdieresis" unicode="&#x1e85;" horiz-adv-x="721" 
d="M173 11l-140 480q-1 2 -1 5q0 4 3.5 7t8.5 3h47q11 0 14 -11l104 -390q1 -3 3 -3t3 3l107 390q3 11 14 11h44q11 0 14 -11l109 -390q1 -3 3 -3t3 3l107 390q3 11 15 11l46 -1q7 0 10 -4t1 -11l-142 -479q-3 -11 -14 -11h-49q-11 0 -14 11l-108 369q-1 3 -3 3t-3 -3
l-104 -369q-3 -11 -14 -11h-50q-11 0 -14 11zM238.5 613q-13.5 13 -13.5 33t13.5 33.5t34.5 13.5q20 0 33 -13.5t13 -33.5t-13 -33t-33 -13q-21 0 -34.5 13zM407 613q-13 13 -13 33t13 33.5t34 13.5t34 -13.5t13 -33.5t-13 -33t-34 -13t-34 13z" />
    <glyph glyph-name="Ygrave" unicode="&#x1ef2;" horiz-adv-x="567" 
d="M248 14v293q0 2 -2 6l-205 371q-2 6 -2 7q0 4 3 6.5t8 2.5h48q11 0 15 -9l167 -302q3 -4 6 0l168 302q5 9 15 9h48q8 0 10.5 -4.5t-1.5 -11.5l-205 -371q-2 -4 -2 -6v-293q0 -13 -13 -13h-45q-13 0 -13 13zM306 779q0 -4 -3 -6.5t-8 -2.5h-35q-9 0 -15 9l-64 103
q-2 3 -2 8q0 8 10 8h43q10 0 15 -9l57 -103q2 -6 2 -7z" />
    <glyph glyph-name="ygrave" unicode="&#x1ef3;" horiz-adv-x="461" 
d="M50 -187v35q0 13 7 13h7q39 0 60.5 11t37 39t33.5 86q1 2 0 6l-168 488q-1 2 -1 5q0 4 3.5 7t8.5 3h47q12 0 15 -11l129 -392q1 -4 3 -4t3 4l126 392q3 11 14 11h48q7 0 10 -4t1 -11l-184 -535q-24 -67 -45 -99t-52.5 -44.5t-88.5 -12.5h-7q-7 0 -7 13zM253 590
q0 -4 -3 -6.5t-8 -2.5h-35q-9 0 -15 9l-64 103q-2 3 -2 8q0 8 10 8h43q10 0 15 -9l57 -103q2 -6 2 -7z" />
    <glyph glyph-name="endash" unicode="&#x2013;" horiz-adv-x="450" 
d="M39 264v37q0 13 13 13h346q13 0 13 -13v-37q0 -13 -13 -13h-346q-13 0 -13 13z" />
    <glyph glyph-name="emdash" unicode="&#x2014;" horiz-adv-x="685" 
d="M39 265v36q0 13 13 13h581q13 0 13 -13v-36q0 -13 -13 -13h-581q-13 0 -13 13z" />
    <glyph glyph-name="quoteleft" unicode="&#x2018;" horiz-adv-x="140" 
d="M6.5 499q-2.5 4 -0.5 11l72 180q4 10 15 10h31q7 0 10 -4t1 -11l-58 -179q-3 -11 -14 -11h-47q-7 0 -9.5 4z" />
    <glyph glyph-name="quoteright" unicode="&#x2019;" horiz-adv-x="140" 
d="M133.5 696q2.5 -4 0.5 -11l-72 -180q-4 -10 -15 -10h-31q-7 0 -10 4t-1 11l58 179q3 11 14 11h47q7 0 9.5 -4z" />
    <glyph glyph-name="quotesinglbase" unicode="&#x201a;" horiz-adv-x="600" 
d="M70 -75.5q-3 3.5 -2 10.5l43 208q3 12 14 12h38q14 0 11 -14l-54 -209q-3 -11 -15 -11h-25q-7 0 -10 3.5z" />
    <glyph glyph-name="quotedblleft" unicode="&#x201c;" horiz-adv-x="267" 
d="M6.5 499q-2.5 4 -0.5 11l68 180q4 10 15 10h30q7 0 10 -4t1 -11l-55 -179q-3 -11 -14 -11h-45q-7 0 -9.5 4zM139.5 499q-2.5 4 -0.5 11l68 180q4 10 15 10h30q7 0 10 -4t1 -11l-55 -179q-3 -11 -14 -11h-45q-7 0 -9.5 4z" />
    <glyph glyph-name="quotedblright" unicode="&#x201d;" horiz-adv-x="267" 
d="M127.5 696q2.5 -4 0.5 -11l-68 -180q-4 -10 -15 -10h-30q-7 0 -10 4t-1 11l55 179q3 11 14 11h45q7 0 9.5 -4zM260.5 696q2.5 -4 0.5 -11l-68 -180q-4 -10 -15 -10h-30q-7 0 -10 4t-1 11l55 179q3 11 14 11h45q7 0 9.5 -4z" />
    <glyph glyph-name="quotedblbase" unicode="&#x201e;" horiz-adv-x="275" 
d="M127.5 124q2.5 -4 0.5 -11l-68 -180q-4 -10 -15 -10h-30q-7 0 -10 4t-1 11l55 179q3 11 14 11h45q7 0 9.5 -4zM260.5 124q2.5 -4 0.5 -11l-68 -180q-4 -10 -15 -10h-30q-7 0 -10 4t-1 11l55 179q3 11 14 11h45q7 0 9.5 -4z" />
    <glyph glyph-name="dagger" unicode="&#x2020;" horiz-adv-x="427" 
d="M388 445v-30q0 -13 -13 -13h-121q-5 0 -5 -5v-584q0 -13 -13 -13h-45q-13 0 -13 13v584q0 5 -5 5h-121q-13 0 -13 13v30q0 13 13 13h121q5 0 5 5v224q0 13 13 13h45q13 0 13 -13v-224q0 -5 5 -5h121q13 0 13 -13z" />
    <glyph glyph-name="daggerdbl" unicode="&#x2021;" horiz-adv-x="427" 
d="M375 402h-121q-5 0 -5 -5v-294q0 -5 5 -5h121q13 0 13 -13v-30q0 -13 -13 -13h-121q-5 0 -5 -5v-224q0 -13 -13 -13h-45q-13 0 -13 13v224q0 5 -5 5h-121q-13 0 -13 13v30q0 13 13 13h121q5 0 5 5v294q0 5 -5 5h-121q-13 0 -13 13v30q0 13 13 13h121q5 0 5 5v224
q0 13 13 13h45q13 0 13 -13v-224q0 -5 5 -5h121q13 0 13 -13v-30q0 -13 -13 -13z" />
    <glyph glyph-name="bullet" unicode="&#x2022;" horiz-adv-x="309" 
d="M73 185.5q-34 34.5 -34 81.5q0 48 34 81.5t82 33.5q47 0 81 -33.5t34 -81.5q0 -47 -34 -81.5t-81 -34.5q-48 0 -82 34.5z" />
    <glyph glyph-name="ellipsis" unicode="&#x2026;" horiz-adv-x="791" 
d="M90.5 20q-17.5 17 -17.5 42q0 24 18.5 41.5t43.5 17.5q24 0 43 -17.5t19 -41.5q0 -25 -18 -42t-44 -17q-27 0 -44.5 17zM351.5 20q-17.5 17 -17.5 42q0 24 18.5 41.5t43.5 17.5q24 0 43 -17.5t19 -41.5q0 -25 -18 -42t-44 -17q-27 0 -44.5 17zM607.5 20
q-17.5 17 -17.5 42q0 24 18.5 41.5t43.5 17.5q24 0 43 -17.5t19 -41.5q0 -25 -18 -42t-44 -17q-27 0 -44.5 17z" />
    <glyph glyph-name="perthousand" unicode="&#x2030;" horiz-adv-x="1140" 
d="M67 311q-35 34 -35 91v183q0 56 35 89.5t94 33.5t95 -33.5t36 -89.5v-183q0 -57 -36 -91t-95 -34t-94 34zM219.5 342.5q21.5 20.5 21.5 55.5v189q0 35 -21.5 56t-58.5 21q-35 0 -57 -21.5t-22 -55.5v-189q0 -34 22 -55t57 -21q37 0 58.5 20.5zM181 8q0 5 2 8l423 675
q6 9 15 9h27q10 0 10 -8q0 -5 -2 -8l-422 -675q-6 -9 -15 -9h-28q-10 0 -10 8zM571 26q-35 34 -35 91v183q0 56 35 89.5t94 33.5t95 -33.5t36 -89.5v-183q0 -57 -36 -91t-95 -34t-94 34zM723.5 57.5q21.5 20.5 21.5 55.5v189q0 35 -21.5 56t-58.5 21q-35 0 -57 -21.5
t-22 -55.5v-189q0 -34 22 -55t57 -21q37 0 58.5 20.5zM889 26q-35 34 -35 91v183q0 56 35 89.5t94 33.5t95 -33.5t36 -89.5v-183q0 -57 -36 -91t-95 -34t-94 34zM1041.5 57.5q21.5 20.5 21.5 55.5v189q0 35 -21.5 56t-58.5 21q-35 0 -57 -21.5t-22 -55.5v-189q0 -34 22 -55
t57 -21q37 0 58.5 20.5z" />
    <glyph glyph-name="guilsinglleft" unicode="&#x2039;" horiz-adv-x="363" 
d="M260 115q0 -8 -11 -8h-42q-11 0 -16 8l-123 157q-4 6 -4 9t4 9l123 157q5 8 16 8h42q11 0 11 -8q0 -3 -3 -8l-121 -154q-3 -4 0 -8l121 -154q3 -4 3 -8z" />
    <glyph glyph-name="guilsinglright" unicode="&#x203a;" horiz-adv-x="393" 
d="M103 115q0 4 3 8l121 154q3 4 0 8l-121 154q-3 5 -3 8q0 8 11 8h42q11 0 16 -8l123 -157q4 -4 4 -9t-4 -9l-123 -157q-5 -8 -16 -8h-42q-11 0 -11 8z" />
    <glyph glyph-name="fraction" unicode="&#x2044;" horiz-adv-x="235" 
d="M-116 8q0 5 2 8l423 675q6 9 15 9h27q10 0 10 -8q0 -5 -2 -8l-422 -675q-6 -9 -15 -9h-28q-10 0 -10 8z" />
    <glyph glyph-name="uni2074" unicode="&#x2074;" horiz-adv-x="337" 
d="M302 588v-20q0 -13 -13 -13h-16q-5 0 -5 -5v-95q0 -13 -13 -13h-25q-13 0 -13 13v95q0 5 -5 5h-171q-13 0 -13 13v18q0 6 4 16l115 250q5 10 15 10h25q8 0 10.5 -4t-0.5 -11l-109 -240q-1 -2 0 -4t3 -2h121q5 0 5 5v84q0 13 13 13h25q13 0 13 -13v-84q0 -5 5 -5h16
q13 0 13 -13z" />
    <glyph glyph-name="uni2075" unicode="&#x2075;" horiz-adv-x="302" 
d="M278 569q0 -36 -12 -67q-14 -33 -43 -50.5t-69 -17.5q-43 0 -73.5 21.5t-42.5 58.5q-4 16 -6 31v2q0 11 12 11h27q12 0 13 -12l3 -15q5 -24 23 -38t44 -14q45 0 62 39q11 22 11 50q0 31 -11 53q-17 38 -61 38q-22 0 -40 -9t-26 -26q-7 -10 -15 -10h-29q-13 0 -13 13v219
q0 13 13 13h204q13 0 13 -13v-18q0 -13 -13 -13h-162q-5 0 -5 -5v-125q0 -3 2 -4t4 1q30 21 74 21q36 0 62.5 -17t41.5 -49q12 -28 12 -68z" />
    <glyph glyph-name="uni2076" unicode="&#x2076;" horiz-adv-x="311" 
d="M283 569q0 -33 -6 -55q-11 -36 -43 -58t-75 -22q-42 0 -72 22t-43 58q-7 20 -7 56v183q0 51 33 81t89 30q50 0 82.5 -29t32.5 -75v-3q0 -13 -13 -13h-25q-13 0 -13 5v5q0 29 -18.5 47t-46.5 18q-32 0 -51.5 -19t-19.5 -53v-73q0 -3 2 -3.5t4 1.5q30 30 74 30
q39 0 69 -21.5t41 -56.5q6 -19 6 -55zM233 568q0 20 -5 37q-5 24 -23 38.5t-45 14.5q-25 0 -43 -14t-24 -36q-5 -15 -5 -40q0 -24 4 -39q5 -23 23.5 -36.5t44.5 -13.5t43.5 13.5t23.5 35.5q6 18 6 40z" />
    <glyph glyph-name="uni2077" unicode="&#x2077;" horiz-adv-x="278" 
d="M79.5 446q-2.5 4 -0.5 11l131 355q2 6 -4 6h-147q-5 0 -5 -5v-29q0 -13 -13 -13h-16q-13 0 -13 13v65q0 13 13 13h228q13 0 13 -13v-23q0 -8 -3 -16l-132 -358q-3 -10 -15 -10h-27q-7 0 -9.5 4z" />
    <glyph glyph-name="uni2078" unicode="&#x2078;" horiz-adv-x="314" 
d="M231 659q30 -18 42 -52q7 -21 7 -49q0 -26 -7 -47q-11 -35 -42 -56t-75 -21q-42 0 -72.5 20.5t-43.5 56.5q-8 24 -8 48q0 20 9 47q12 35 41 52q6 3 0 6q-30 20 -40 50q-9 18 -9 40q0 23 9 42q13 34 42.5 51.5t71.5 17.5q43 0 73.5 -18.5t42.5 -51.5q8 -19 8 -40
q0 -19 -8 -40q-13 -32 -41 -50q-6 -3 0 -6zM87 729q6 -22 23.5 -34.5t45.5 -12.5q26 0 44 10.5t24 29.5q3 6 4 15q1 4 1 14q0 15 -3 23q-6 22 -24.5 34.5t-45.5 12.5t-44.5 -13t-23.5 -35q-5 -12 -5 -22q0 -6 4 -22zM228 562q0 17 -2 28q-5 24 -24 38.5t-46 14.5
t-44.5 -14.5t-23.5 -38.5q-4 -15 -4 -29q0 -15 4 -30q5 -24 23 -38.5t45 -14.5t45.5 14.5t23.5 38.5q3 10 3 31z" />
    <glyph glyph-name="uni2079" unicode="&#x2079;" horiz-adv-x="311" 
d="M274 728v-183q0 -51 -33 -81t-89 -30q-50 0 -82.5 29t-32.5 75v3q0 13 13 13h25q13 0 13 -5v-5q0 -29 18.5 -47t46.5 -18q32 0 51.5 19t19.5 53v73q0 3 -2 3.5t-4 -1.5q-30 -30 -74 -30q-39 0 -69 21.5t-41 56.5q-6 19 -6 55q0 33 6 55q11 36 43 58t75 22q42 0 72 -22
t43 -58q7 -20 7 -56zM223 730q0 24 -4 39q-5 23 -23.5 36.5t-44.5 13.5t-43.5 -13.5t-23.5 -35.5q-6 -18 -6 -40q0 -20 5 -37q5 -24 23 -38.5t45 -14.5q25 0 43 14t24 36q5 15 5 40z" />
    <glyph glyph-name="franc" unicode="&#x20a3;" horiz-adv-x="649" 
d="M614 638h-363q-5 0 -5 -5v-245q0 -5 5 -5h253q13 0 13 -13v-36q0 -13 -13 -13h-253q-5 0 -5 -5v-125q0 -5 5 -5h147q13 0 13 -13v-21q0 -13 -13 -13h-147q-5 0 -5 -5v-121q0 -13 -13 -13h-45q-13 0 -13 13v121q0 5 -5 5h-63q-13 0 -13 13v21q0 13 13 13h63q5 0 5 5v496
q0 13 13 13h426q13 0 13 -13v-36q0 -13 -13 -13z" />
    <glyph glyph-name="Euro" unicode="&#x20ac;" horiz-adv-x="636" 
d="M455 84q36 30 44 81q2 14 14 11l45 -8q13 -3 10 -15q-11 -74 -66 -118t-138 -44q-62 0 -109.5 25t-73 71t-25.5 106v72q0 5 -5 5h-66q-13 0 -13 13v17q0 13 13 13h66q5 0 5 5v62q0 5 -5 5h-66q-13 0 -13 13v17q0 13 13 13h66q5 0 5 5v75q0 91 57 145.5t151 54.5
q84 0 139.5 -44.5t66.5 -119.5v-2q0 -11 -12 -13l-45 -6h-2q-10 0 -12 11q-8 51 -44 81.5t-91 30.5q-62 0 -99.5 -37.5t-37.5 -98.5v-77q0 -5 5 -5h237q7 0 10 -4t1 -11l-6 -18q-3 -10 -15 -10h-227q-5 0 -5 -5v-62q0 -5 5 -5h203q7 0 10 -4t1 -11l-6 -18q-3 -10 -15 -10
h-193q-5 0 -5 -5v-75q0 -61 37.5 -98.5t99.5 -37.5q55 0 91 30z" />
    <glyph glyph-name="uni20BA" unicode="&#x20ba;" horiz-adv-x="637" 
d="M514 268h45q13 0 13 -13q-4 -62 -35.5 -116t-89.5 -90t-137 -44q-52 -6 -100 -5q-13 0 -13 13v295q0 2 -2 3.5t-4 0.5l-94 -26l-5 -1q-8 0 -11 9l-5 18l-1 5q0 9 10 12l108 30q4 2 4 5v58q0 2 -2 3.5t-4 0.5l-94 -26l-5 -1q-8 0 -11 9l-5 19l-1 5q0 9 10 12l108 30
q4 2 4 5v208q0 13 13 13h45q13 0 13 -13v-186q0 -2 2 -3.5t4 -0.5l134 37l5 1q8 0 11 -9l5 -19l1 -5q0 -8 -10 -11l-148 -42q-4 -2 -4 -5v-58q0 -2 2 -3.5t4 -0.5l134 37l5 1q8 0 11 -9l5 -18l1 -5q0 -9 -10 -12l-148 -41q-4 -2 -4 -5v-263q0 -5 7 -5q66 4 116 30.5t78 69
t32 93.5q0 13 13 13z" />
    <glyph glyph-name="uni20BD" unicode="&#x20bd;" horiz-adv-x="699" 
d="M270 315q-5 0 -5 -5v-81q0 -5 5 -5h237q13 0 13 -13v-20q0 -13 -13 -13h-237q-5 0 -5 -5v-160q0 -13 -13 -13h-45q-13 0 -13 13v160q0 5 -5 5h-82q-13 0 -13 13v20q0 13 13 13h82q5 0 5 5v81q0 5 -5 5h-82q-13 0 -13 13v33q0 13 13 13h82q5 0 5 5v309q0 13 13 13h260
q58 0 102.5 -24.5t69 -68.5t24.5 -101t-25.5 -100.5t-70.5 -67.5t-103 -24h-194zM265 634v-255q0 -5 5 -5h189q61 0 97 36t36 96q0 61 -36 97t-97 36h-189q-5 0 -5 -5z" />
    <glyph glyph-name="uni2113" unicode="&#x2113;" horiz-adv-x="501" 
d="M380 75q4 4 9 4t9 -6l15 -23q3 -4 3 -9t-4 -9q-19 -19 -51 -29.5t-70 -10.5q-65 0 -100.5 41t-35.5 114l-1 96q0 4 -2 4.5t-4 -1.5l-34 -25q-4 -3 -8 -3q-6 0 -9 7l-12 22q-2 6 -2 7q0 7 6 11l39 30q2 1 23 17q3 2 3 6l-1 185q-1 51 18 98.5t53.5 77t79.5 29.5
q50 0 82.5 -37.5t32.5 -93.5q0 -75 -53 -140t-149 -139q-3 -1 -3 -6l1 -136q0 -109 85 -109q46 0 80 28zM214 368q0 -4 2 -4.5t4 1.5q68 56 105.5 105.5t37.5 101.5q0 35 -16.5 59t-43.5 24q-38 0 -64 -44.5t-26 -116.5z" />
    <glyph glyph-name="trademark" unicode="&#x2122;" horiz-adv-x="658" 
d="M22 674v13q0 13 13 13h225q13 0 13 -13v-13q0 -13 -13 -13h-88q-5 0 -5 -5v-294q0 -13 -13 -13h-18q-13 0 -13 13v294q0 5 -5 5h-83q-13 0 -13 13zM577 700h20q13 0 13 -13v-325q0 -13 -13 -13h-18q-13 0 -13 13v255q0 3 -2.5 4t-3.5 -2l-66 -100q-5 -8 -16 -8h-1
q-11 0 -16 8l-66 100q-1 3 -3.5 2t-2.5 -4v-255q0 -13 -13 -13h-19q-13 0 -13 13v325q0 13 13 13h21q11 0 16 -8l80 -122q3 -6 7 0l80 122q5 8 16 8z" />
    <glyph glyph-name="uni2126" unicode="&#x2126;" horiz-adv-x="641" 
d="M72 13v36q0 13 13 13h78q3 0 4 2t-2 4q-40 27 -61.5 71.5t-21.5 100.5v236q0 69 29.5 121.5t83.5 81.5t125 29t125.5 -29t84 -81.5t29.5 -121.5v-236q0 -56 -22 -100.5t-62 -71.5q-3 -2 -2 -4t4 -2h79q13 0 13 -13v-36q0 -13 -13 -13h-181q-13 0 -13 13v38q0 11 11 14
q47 12 81 57t34 108v248q0 76 -46 122t-122 46q-75 0 -121 -46t-46 -122v-248q0 -63 34 -108t80 -57q11 -3 11 -14v-38q0 -13 -13 -13h-180q-13 0 -13 13z" />
    <glyph glyph-name="estimated" unicode="&#x212e;" horiz-adv-x="875" 
d="M625.5 661.5q83.5 -46.5 130.5 -129t47 -185.5q0 -4 -13 -4h-623q-5 0 -5 -5v-184q0 -2 2 -6q45 -60 116 -94.5t157 -34.5q95 0 174 45.5t121 121.5q6 9 15 9h6q8 0 10.5 -4t-1.5 -11q-45 -86 -131.5 -137t-193.5 -51q-104 0 -187.5 46.5t-130.5 127.5t-47 181
q0 103 47 185t130 129t188 47t188.5 -46.5zM163 546v-171q0 -5 5 -5h539q5 0 5 5v169q0 2 -2 6q-45 62 -116 96.5t-157 34.5q-85 0 -156 -34.5t-116 -94.5q-2 -4 -2 -6z" />
    <glyph glyph-name="oneeighth" unicode="&#x215b;" horiz-adv-x="785" 
d="M96 700h30q13 0 13 -13v-394q0 -13 -13 -13h-25q-13 0 -13 13v353q0 2 -2 4t-4 1l-30 -8h-4q-10 0 -10 12v12q0 10 10 15l32 15q6 3 16 3zM106 8q0 5 2 8l423 675q6 9 15 9h27q10 0 10 -8q0 -5 -2 -8l-422 -675q-6 -9 -15 -9h-28q-10 0 -10 8zM702 217q30 -18 42 -52
q7 -21 7 -49q0 -26 -7 -47q-11 -35 -42 -56t-75 -21q-42 0 -72.5 20.5t-43.5 56.5q-8 24 -8 48q0 20 9 47q12 35 41 52q6 3 0 6q-30 20 -40 50q-9 18 -9 40q0 23 9 42q13 34 42.5 51.5t71.5 17.5q43 0 73.5 -18.5t42.5 -51.5q8 -19 8 -40q0 -19 -8 -40q-13 -32 -41 -50
q-6 -3 0 -6zM558 287q6 -22 23.5 -34.5t45.5 -12.5q26 0 44 10.5t24 29.5q3 6 4 15q1 4 1 14q0 15 -3 23q-6 22 -24.5 34.5t-45.5 12.5t-44.5 -13t-23.5 -35q-5 -12 -5 -22q0 -6 4 -22zM699 120q0 17 -2 28q-5 24 -24 38.5t-46 14.5t-44.5 -14.5t-23.5 -38.5q-4 -15 -4 -29
q0 -15 4 -30q5 -24 23 -38.5t45 -14.5t45.5 14.5t23.5 38.5q3 10 3 31z" />
    <glyph glyph-name="threeeighths" unicode="&#x215c;" horiz-adv-x="885" 
d="M284 416q0 -41 -14 -71q-14 -31 -42.5 -47.5t-67.5 -16.5q-42 0 -72.5 22t-43.5 60q-5 17 -7 39q0 13 13 13h25q13 0 13 -13q2 -18 4 -24q5 -23 23.5 -37.5t44.5 -14.5q43 0 61 35q12 23 12 56q0 39 -13 62q-18 35 -60 35q-9 0 -16 -3q-6 -2 -8 -2q-5 0 -10 6l-11 14
q-4 8 -4 9q0 3 4 9l97 109q4 6 -2 6h-156q-13 0 -13 13v18q0 13 13 13h214q13 0 13 -13v-22q0 -8 -6 -16l-88 -101q-4 -5 3 -7q56 -7 79 -55q15 -30 15 -76zM206 8q0 5 2 8l423 675q6 9 15 9h27q10 0 10 -8q0 -5 -2 -8l-422 -675q-6 -9 -15 -9h-28q-10 0 -10 8zM802 217
q30 -18 42 -52q7 -21 7 -49q0 -26 -7 -47q-11 -35 -42 -56t-75 -21q-42 0 -72.5 20.5t-43.5 56.5q-8 24 -8 48q0 20 9 47q12 35 41 52q6 3 0 6q-30 20 -40 50q-9 18 -9 40q0 23 9 42q13 34 42.5 51.5t71.5 17.5q43 0 73.5 -18.5t42.5 -51.5q8 -19 8 -40q0 -19 -8 -40
q-13 -32 -41 -50q-6 -3 0 -6zM658 287q6 -22 23.5 -34.5t45.5 -12.5q26 0 44 10.5t24 29.5q3 6 4 15q1 4 1 14q0 15 -3 23q-6 22 -24.5 34.5t-45.5 12.5t-44.5 -13t-23.5 -35q-5 -12 -5 -22q0 -6 4 -22zM799 120q0 17 -2 28q-5 24 -24 38.5t-46 14.5t-44.5 -14.5
t-23.5 -38.5q-4 -15 -4 -29q0 -15 4 -30q5 -24 23 -38.5t45 -14.5t45.5 14.5t23.5 38.5q3 10 3 31z" />
    <glyph glyph-name="fiveeighths" unicode="&#x215d;" horiz-adv-x="858" 
d="M278 409q0 -36 -12 -67q-14 -33 -43 -50.5t-69 -17.5q-43 0 -73.5 21.5t-42.5 58.5q-4 16 -6 31v2q0 11 12 11h27q12 0 13 -12l3 -15q5 -24 23 -38t44 -14q45 0 62 39q11 22 11 50q0 31 -11 53q-17 38 -61 38q-22 0 -40 -9t-26 -26q-7 -10 -15 -10h-29q-13 0 -13 13v219
q0 13 13 13h204q13 0 13 -13v-18q0 -13 -13 -13h-162q-5 0 -5 -5v-125q0 -3 2 -4t4 1q30 21 74 21q36 0 62.5 -17t41.5 -49q12 -28 12 -68zM179 8q0 5 2 8l423 675q6 9 15 9h27q10 0 10 -8q0 -5 -2 -8l-422 -675q-6 -9 -15 -9h-28q-10 0 -10 8zM775 217q30 -18 42 -52
q7 -21 7 -49q0 -26 -7 -47q-11 -35 -42 -56t-75 -21q-42 0 -72.5 20.5t-43.5 56.5q-8 24 -8 48q0 20 9 47q12 35 41 52q6 3 0 6q-30 20 -40 50q-9 18 -9 40q0 23 9 42q13 34 42.5 51.5t71.5 17.5q43 0 73.5 -18.5t42.5 -51.5q8 -19 8 -40q0 -19 -8 -40q-13 -32 -41 -50
q-6 -3 0 -6zM631 287q6 -22 23.5 -34.5t45.5 -12.5q26 0 44 10.5t24 29.5q3 6 4 15q1 4 1 14q0 15 -3 23q-6 22 -24.5 34.5t-45.5 12.5t-44.5 -13t-23.5 -35q-5 -12 -5 -22q0 -6 4 -22zM772 120q0 17 -2 28q-5 24 -24 38.5t-46 14.5t-44.5 -14.5t-23.5 -38.5q-4 -15 -4 -29
q0 -15 4 -30q5 -24 23 -38.5t45 -14.5t45.5 14.5t23.5 38.5q3 10 3 31z" />
    <glyph glyph-name="seveneighths" unicode="&#x215e;" horiz-adv-x="795" 
d="M79.5 284q-2.5 4 -0.5 11l131 355q2 6 -4 6h-147q-5 0 -5 -5v-29q0 -13 -13 -13h-16q-13 0 -13 13v65q0 13 13 13h228q13 0 13 -13v-23q0 -8 -3 -16l-132 -358q-3 -10 -15 -10h-27q-7 0 -9.5 4zM116 8q0 5 2 8l423 675q6 9 15 9h27q10 0 10 -8q0 -5 -2 -8l-422 -675
q-6 -9 -15 -9h-28q-10 0 -10 8zM712 217q30 -18 42 -52q7 -21 7 -49q0 -26 -7 -47q-11 -35 -42 -56t-75 -21q-42 0 -72.5 20.5t-43.5 56.5q-8 24 -8 48q0 20 9 47q12 35 41 52q6 3 0 6q-30 20 -40 50q-9 18 -9 40q0 23 9 42q13 34 42.5 51.5t71.5 17.5q43 0 73.5 -18.5
t42.5 -51.5q8 -19 8 -40q0 -19 -8 -40q-13 -32 -41 -50q-6 -3 0 -6zM568 287q6 -22 23.5 -34.5t45.5 -12.5q26 0 44 10.5t24 29.5q3 6 4 15q1 4 1 14q0 15 -3 23q-6 22 -24.5 34.5t-45.5 12.5t-44.5 -13t-23.5 -35q-5 -12 -5 -22q0 -6 4 -22zM709 120q0 17 -2 28
q-5 24 -24 38.5t-46 14.5t-44.5 -14.5t-23.5 -38.5q-4 -15 -4 -29q0 -15 4 -30q5 -24 23 -38.5t45 -14.5t45.5 14.5t23.5 38.5q3 10 3 31z" />
    <glyph glyph-name="partialdiff" unicode="&#x2202;" horiz-adv-x="586" 
d="M487 495q18 -76 18 -159q0 -147 -51.5 -245.5t-185.5 -98.5q-94 0 -151.5 58.5t-57.5 158.5q0 68 29.5 119t78.5 78t108 27q43 0 81.5 -15t69.5 -41q2 -2 4 -1.5t2 3.5q-9 133 -57 199q-44 62 -122 62q-48 0 -98 -29q-5 -3 -8 -3q-6 0 -9 9l-15 37q-1 2 -1 6q0 7 7 11
q57 36 124 36q111 0 175 -83q41 -53 59 -129zM388 110.5q39 56.5 45 165.5q0 4 -2 6q-21 40 -59.5 65t-86.5 25q-43 0 -78 -20t-56 -56.5t-21 -84.5q0 -70 39.5 -113.5t102.5 -43.5q77 0 116 56.5z" />
    <glyph glyph-name="uni2206" unicode="&#x2206;" horiz-adv-x="638" 
d="M32 13v41q0 9 3 16l252 620q4 10 15 10h34q11 0 15 -10l252 -621q3 -7 3 -16v-40q0 -13 -13 -13h-548q-13 0 -13 13zM104.5 64q1.5 -2 3.5 -2h422q2 0 3.5 2t0.5 4l-212 534q-3 8 -6 0l-212 -534q-1 -2 0.5 -4z" />
    <glyph glyph-name="product" unicode="&#x220f;" horiz-adv-x="653" 
d="M561 787v-974q0 -13 -13 -13h-45q-13 0 -13 13v920q0 5 -5 5h-315q-5 0 -5 -5v-920q0 -13 -13 -13h-45q-13 0 -13 13v974q0 13 13 13h441q13 0 13 -13z" />
    <glyph glyph-name="summation" unicode="&#x2211;" horiz-adv-x="612" 
d="M94 -186v39q0 9 4 17l239 428q2 4 0 7l-237 355q-5 8 -5 16v40q0 13 13 13h433q13 0 13 -13v-36q0 -13 -13 -13h-366q-3 0 -4 -2t1 -4l238 -350q3 -4 3 -10l-2 -8l-240 -425q-3 -6 4 -6h366q13 0 13 -13v-35q0 -13 -13 -13h-434q-13 0 -13 13z" />
    <glyph glyph-name="minus" unicode="&#x2212;" horiz-adv-x="500" 
d="M39 295v36q0 13 13 13h396q13 0 13 -13v-36q0 -13 -13 -13h-396q-13 0 -13 13z" />
    <glyph glyph-name="uni2215" unicode="&#x2215;" horiz-adv-x="484" 
d="M36.5 4q-2.5 4 0.5 11l347 676q5 9 16 9h38q7 0 9.5 -4t-0.5 -11l-346 -676q-4 -9 -16 -9h-39q-7 0 -9.5 4z" />
    <glyph glyph-name="uni2219" unicode="&#x2219;" horiz-adv-x="309" 
d="M73 229.5q-34 34.5 -34 81.5q0 48 34 81.5t82 33.5q47 0 81 -33.5t34 -81.5q0 -47 -34 -81.5t-81 -34.5q-48 0 -82 34.5z" />
    <glyph glyph-name="radical" unicode="&#x221a;" horiz-adv-x="737" 
d="M161 -190l-127 350q-1 2 -1 6q0 7 9 10l41 13l5 1q8 0 11 -9l93 -258q2 -3 4 -3t3 3l230 856q3 11 14 11h201q13 0 13 -13v-35q0 -13 -13 -13h-153q-3 0 -5 -4l-246 -914q-3 -11 -14 -11h-50q-12 0 -15 10z" />
    <glyph glyph-name="infinity" unicode="&#x221e;" horiz-adv-x="736" 
d="M620 457q36 -21 56.5 -57.5t20.5 -81.5q0 -44 -20.5 -80t-57 -57t-84.5 -21q-53 0 -92.5 26.5t-77.5 77.5q-3 4 -7 0q-37 -49 -75 -76.5t-88 -27.5q-43 0 -78.5 21t-56.5 58t-21 81t20.5 80t57 57t81.5 21q52 0 89 -26.5t73 -76.5q3 -5 8 1q43 53 82.5 77.5t87.5 24.5
q46 0 82 -21zM261 242q28 25 64 75q1 3 0 7q-35 51 -61.5 74t-65.5 23q-45 0 -73 -28.5t-28 -72.5t28.5 -73.5t69.5 -29.5q38 0 66 25zM610.5 245.5q28.5 28.5 28.5 72.5q0 45 -28 74t-72 29q-40 0 -72 -24t-67 -74q-3 -4 0 -8q35 -51 64 -74.5t71 -23.5q47 0 75.5 28.5z
" />
    <glyph glyph-name="integral" unicode="&#x222b;" horiz-adv-x="415" 
d="M35 -187l-1 36q0 13 13 13h22q55 0 75 24.5t20 83.5l7 564q1 69 17 103.5t55 48t115 14.5q13 0 13 -13l1 -36q0 -13 -13 -13h-21q-55 0 -75.5 -24.5t-20.5 -83.5l-7 -564q-1 -69 -17.5 -103.5t-55 -48t-114.5 -14.5q-13 0 -13 13z" />
    <glyph glyph-name="approxequal" unicode="&#x2248;" horiz-adv-x="501" 
d="M294 371.5q-21 8.5 -51 25.5q-23 12 -40.5 19t-38.5 7q-49 0 -74 -39q-4 -6 -10 -6q-3 0 -8 3l-23 15q-11 8 -5 18q16 33 47.5 52.5t70.5 19.5q25 0 43.5 -6.5t42.5 -19.5q5 -3 22.5 -13t35.5 -15.5t36 -5.5q20 0 34.5 9.5t29.5 28.5q4 6 10 6q3 0 8 -3l27 -17
q11 -8 5 -18q-18 -32 -46.5 -50.5t-64.5 -18.5q-30 0 -51 8.5zM294 154.5q-21 8.5 -51 25.5q-23 12 -40.5 19t-38.5 7q-49 0 -74 -39q-4 -6 -10 -6q-3 0 -8 3l-23 15q-11 8 -5 18q16 33 47.5 52.5t70.5 19.5q25 0 43.5 -6.5t42.5 -19.5q5 -3 22.5 -13t35.5 -15.5t36 -5.5
q20 0 34.5 9.5t29.5 28.5q4 6 10 6q3 0 8 -3l27 -17q11 -8 5 -18q-18 -32 -46.5 -50.5t-64.5 -18.5q-30 0 -51 8.5z" />
    <glyph glyph-name="notequal" unicode="&#x2260;" horiz-adv-x="500" 
d="M448 396h-145q-4 0 -6 -4l-65 -137q-1 -2 0.5 -4t3.5 -2h212q13 0 13 -13v-36q0 -13 -13 -13h-244q-4 0 -6 -4l-37 -78q-5 -10 -16 -10h-20q-7 0 -10 4t0 11l34 71q1 2 -0.5 4t-3.5 2h-93q-13 0 -13 13v36q0 13 13 13h125q4 0 6 4l65 137q1 2 -0.5 4t-3.5 2h-192
q-13 0 -13 13v36q0 13 13 13h224q4 0 6 4l43 91q5 10 16 10h20q8 0 10.5 -4t-0.5 -11l-40 -84q-1 -2 0.5 -4t3.5 -2h113q13 0 13 -13v-36q0 -13 -13 -13z" />
    <glyph glyph-name="lessequal" unicode="&#x2264;" horiz-adv-x="500" 
d="M457 120q-4 -3 -11 0l-397 184q-10 5 -10 16v42q0 11 10 16l397 184q4 2 6 2q9 0 9 -12v-42q0 -10 -10 -15l-334 -151q-6 -3 0 -6l334 -151q10 -5 10 -15v-42q0 -7 -4 -10zM448 0h-396q-13 0 -13 13v36q0 13 13 13h396q13 0 13 -13v-36q0 -13 -13 -13z" />
    <glyph glyph-name="greaterequal" unicode="&#x2265;" horiz-adv-x="500" 
d="M39 13v36q0 13 13 13h396q13 0 13 -13v-36q0 -13 -13 -13h-396q-13 0 -13 13zM48 118q-9 0 -9 12v42q0 10 10 15l334 151q6 3 0 6l-334 151q-10 5 -10 15v42q0 8 4 10.5t11 -0.5l397 -184q10 -5 10 -16v-42q0 -11 -10 -16l-397 -184q-4 -2 -6 -2z" />
    <glyph glyph-name="lozenge" unicode="&#x25ca;" horiz-adv-x="490" 
d="M213 -36l-170 377q-2 8 -2 9q0 3 2 9l171 377q5 10 15 10h31q10 0 15 -10l172 -377q2 -3 2 -9q0 -5 -2 -9l-171 -377q-5 -10 -15 -10h-33q-10 0 -15 10zM248 35l135 312q1 3 0 6l-135 312q-3 6 -6 0l-135 -312q-1 -3 0 -6l135 -312q3 -6 6 0z" />
    <glyph glyph-name="NULL" 
 />
    <glyph glyph-name="i.loclTRK" horiz-adv-x="221" 
d="M74 13v480q0 13 13 13h45q13 0 13 -13v-480q0 -13 -13 -13h-45q-13 0 -13 13zM75 608.5q-13 12.5 -13 31.5t13 31.5t33 12.5q19 0 31 -12.5t12 -31.5t-12 -31.5t-31 -12.5q-20 0 -33 12.5z" />
    <glyph glyph-name="a.alt" horiz-adv-x="541" 
d="M403 506h45q13 0 13 -13v-480q0 -13 -13 -13h-45q-13 0 -13 13v37q0 3 -2 4t-4 -2q-22 -29 -54.5 -44.5t-71.5 -15.5q-70 0 -117.5 36t-65.5 98q-14 45 -14 127q0 83 12 124q18 64 66 100.5t119 36.5q39 0 71.5 -15.5t54.5 -43.5q2 -3 4 -2t2 4v36q0 13 13 13zM385 178
q4 27 4 75t-4 75.5t-14 48.5q-12 34 -39.5 54.5t-65.5 20.5q-40 0 -69 -20t-42 -53q-12 -22 -17.5 -49.5t-5.5 -76.5q0 -47 4 -73.5t14 -47.5q12 -36 42.5 -57t72.5 -21q40 0 67 21t40 56q9 20 13 47z" />
    <glyph glyph-name="a.sc" horiz-adv-x="526" 
d="M423 11l-31 93q-2 4 -5 4h-248q-3 0 -5 -4l-31 -93q-3 -11 -14 -11h-44q-7 0 -10 4t-1 11l185 551q3 11 15 11h57q12 0 15 -11l186 -551q1 -2 1 -5q0 -4 -3.5 -7t-8.5 -3h-44q-11 0 -14 11zM160 166h206q6 0 4 6l-104 320q-1 4 -3 4t-3 -4l-104 -320q-1 -6 4 -6z" />
    <glyph glyph-name="aacute.sc" horiz-adv-x="526" 
d="M423 11l-31 93q-2 4 -5 4h-248q-3 0 -5 -4l-31 -93q-3 -11 -14 -11h-44q-7 0 -10 4t-1 11l185 551q3 11 15 11h57q12 0 15 -11l186 -551q1 -2 1 -5q0 -4 -3.5 -7t-8.5 -3h-44q-11 0 -14 11zM160 166h206q6 0 4 6l-104 320q-1 4 -3 4t-3 -4l-104 -320q-1 -6 4 -6z
M222.5 652.5q-2.5 4.5 1.5 11.5l57 103q4 9 15 9h43q10 0 10 -8q0 -5 -2 -8l-64 -103q-6 -9 -15 -9h-35q-8 0 -10.5 4.5z" />
    <glyph glyph-name="abreve.sc" horiz-adv-x="526" 
d="M423 11l-31 93q-2 4 -5 4h-248q-3 0 -5 -4l-31 -93q-3 -11 -14 -11h-44q-7 0 -10 4t-1 11l185 551q3 11 15 11h57q12 0 15 -11l186 -551q1 -2 1 -5q0 -4 -3.5 -7t-8.5 -3h-44q-11 0 -14 11zM160 166h206q6 0 4 6l-104 320q-1 4 -3 4t-3 -4l-104 -320q-1 -6 4 -6z
M189 641.5q-31 26.5 -36 66.5v2q0 11 12 11h18q11 0 13 -12q5 -24 23 -40t43 -16q24 0 42 16t23 40q1 12 13 12h19q6 0 9.5 -3.5t2.5 -9.5q-4 -40 -35.5 -66.5t-73.5 -26.5t-73 26.5z" />
    <glyph glyph-name="uni01CE.sc" horiz-adv-x="526" 
d="M423 11l-31 93q-2 4 -5 4h-248q-3 0 -5 -4l-31 -93q-3 -11 -14 -11h-44q-7 0 -10 4t-1 11l185 551q3 11 15 11h57q12 0 15 -11l186 -551q1 -2 1 -5q0 -4 -3.5 -7t-8.5 -3h-44q-11 0 -14 11zM160 166h206q6 0 4 6l-104 320q-1 4 -3 4t-3 -4l-104 -320q-1 -6 4 -6zM219 638
l-75 103q-3 5 -3 7q0 9 12 9h30q10 0 16 -8l59 -80q1 -2 3 -2t4 2l59 80q6 8 16 8h30q11 0 11 -8q0 -3 -3 -8l-75 -103q-6 -8 -16 -8h-52q-10 0 -16 8z" />
    <glyph glyph-name="acircumflex.sc" horiz-adv-x="526" 
d="M423 11l-31 93q-2 4 -5 4h-248q-3 0 -5 -4l-31 -93q-3 -11 -14 -11h-44q-7 0 -10 4t-1 11l185 551q3 11 15 11h57q12 0 15 -11l186 -551q1 -2 1 -5q0 -4 -3.5 -7t-8.5 -3h-44q-11 0 -14 11zM160 166h206q6 0 4 6l-104 320q-1 4 -3 4t-3 -4l-104 -320q-1 -6 4 -6zM140 649
q0 4 3 8l78 102q5 8 16 8h47q11 0 16 -8l79 -102q3 -4 3 -8q0 -8 -11 -8h-32q-10 0 -16 8l-58 80q-2 2 -4 2t-3 -2l-59 -80q-6 -8 -16 -8h-32q-11 0 -11 8z" />
    <glyph glyph-name="adieresis.sc" horiz-adv-x="526" 
d="M423 11l-31 93q-2 4 -5 4h-248q-3 0 -5 -4l-31 -93q-3 -11 -14 -11h-44q-7 0 -10 4t-1 11l185 551q3 11 15 11h57q12 0 15 -11l186 -551q1 -2 1 -5q0 -4 -3.5 -7t-8.5 -3h-44q-11 0 -14 11zM160 166h206q6 0 4 6l-104 320q-1 4 -3 4t-3 -4l-104 -320q-1 -6 4 -6z
M144.5 684q-13.5 13 -13.5 33t13.5 33.5t34.5 13.5q20 0 33 -13.5t13 -33.5t-13 -33t-33 -13q-21 0 -34.5 13zM313 684q-13 13 -13 33t13 33.5t34 13.5t34 -13.5t13 -33.5t-13 -33t-34 -13t-34 13z" />
    <glyph glyph-name="agrave.sc" horiz-adv-x="526" 
d="M423 11l-31 93q-2 4 -5 4h-248q-3 0 -5 -4l-31 -93q-3 -11 -14 -11h-44q-7 0 -10 4t-1 11l185 551q3 11 15 11h57q12 0 15 -11l186 -551q1 -2 1 -5q0 -4 -3.5 -7t-8.5 -3h-44q-11 0 -14 11zM160 166h206q6 0 4 6l-104 320q-1 4 -3 4t-3 -4l-104 -320q-1 -6 4 -6zM285 657
q0 -4 -3 -6.5t-8 -2.5h-35q-9 0 -15 9l-64 103q-2 3 -2 8q0 8 10 8h43q10 0 15 -9l57 -103q2 -6 2 -7z" />
    <glyph glyph-name="amacron.sc" horiz-adv-x="526" 
d="M423 11l-31 93q-2 4 -5 4h-248q-3 0 -5 -4l-31 -93q-3 -11 -14 -11h-44q-7 0 -10 4t-1 11l185 551q3 11 15 11h57q12 0 15 -11l186 -551q1 -2 1 -5q0 -4 -3.5 -7t-8.5 -3h-44q-11 0 -14 11zM160 166h206q6 0 4 6l-104 320q-1 4 -3 4t-3 -4l-104 -320q-1 -6 4 -6zM128 678
v25q0 13 13 13h243q13 0 13 -13v-25q0 -13 -13 -13h-243q-13 0 -13 13z" />
    <glyph glyph-name="aogonek.sc" horiz-adv-x="548" 
d="M423 11l-31 93q-2 4 -5 4h-248q-3 0 -5 -4l-31 -93q-3 -11 -14 -11h-44q-7 0 -10 4t-1 11l185 551q3 11 15 11h57q12 0 15 -11l186 -551q1 -2 1 -5q0 -4 -3.5 -7t-8.5 -3h-44q-11 0 -14 11zM160 166h206q6 0 4 6l-104 320q-1 4 -3 4t-3 -4l-104 -320q-1 -6 4 -6z
M515 -169q0 -9 -10 -12q-20 -5 -39 -5q-31 0 -54.5 14t-31.5 46q-3 10 -3 22q0 52 58 98q6 6 16 6h19q11 0 11 -7q0 -4 -5 -9q-47 -42 -47 -78q0 -8 1 -12q7 -36 49 -36q6 0 18 2l4 1q9 0 11 -11l3 -16v-3z" />
    <glyph glyph-name="aring.sc" horiz-adv-x="526" 
d="M423 11l-31 93q-2 4 -5 4h-248q-3 0 -5 -4l-31 -93q-3 -11 -14 -11h-44q-7 0 -10 4t-1 11l185 551q3 11 15 11h57q12 0 15 -11l186 -551q1 -2 1 -5q0 -4 -3.5 -7t-8.5 -3h-44q-11 0 -14 11zM160 166h206q6 0 4 6l-104 320q-1 4 -3 4t-3 -4l-104 -320q-1 -6 4 -6z
M187.5 670q-30.5 30 -30.5 73t30.5 72.5t74.5 29.5t74 -29.5t30 -72.5t-30 -73t-74 -30t-74.5 30zM307.5 697.5q18.5 18.5 18.5 45.5t-19 45.5t-45 18.5q-27 0 -46 -18.5t-19 -45.5t19 -45.5t46 -18.5t45.5 18.5z" />
    <glyph glyph-name="atilde.sc" horiz-adv-x="526" 
d="M423 11l-31 93q-2 4 -5 4h-248q-3 0 -5 -4l-31 -93q-3 -11 -14 -11h-44q-7 0 -10 4t-1 11l185 551q3 11 15 11h57q12 0 15 -11l186 -551q1 -2 1 -5q0 -4 -3.5 -7t-8.5 -3h-44q-11 0 -14 11zM160 166h206q6 0 4 6l-104 320q-1 4 -3 4t-3 -4l-104 -320q-1 -6 4 -6z
M295.5 669.5q-14.5 6.5 -30.5 17.5t-25 15.5t-20 4.5q-15 0 -25.5 -5t-21.5 -19q-7 -7 -11 -7t-8 3l-14 10q-5 3 -6 8t2 10q30 50 80 50q16 0 29 -5.5t32 -17.5q17 -11 27.5 -16t21.5 -5q29 0 47 27q7 10 18 4l15 -9q6 -4 6 -10t-6 -15q-16 -24 -37.5 -35.5t-41.5 -11.5
q-17 0 -31.5 6.5z" />
    <glyph glyph-name="ae.sc" horiz-adv-x="797" 
d="M738 514h-284q-5 0 -5 -5v-183q0 -5 5 -5h188q13 0 13 -13v-36q0 -13 -13 -13h-188q-5 0 -5 -5v-187q0 -5 5 -5h284q13 0 13 -13v-36q0 -13 -13 -13h-348q-13 0 -13 13v90q0 5 -5 5h-202q-4 0 -6 -4l-51 -95q-4 -9 -15 -9h-51q-8 0 -11 4t1 11l301 553q5 9 15 9h385
q13 0 13 -13v-37q0 -13 -13 -13zM204 166h168q5 0 5 5v315q0 4 -2 4.5t-4 -2.5l-171 -316q-3 -6 4 -6z" />
    <glyph glyph-name="b.sc" horiz-adv-x="537" 
d="M389 295q90 -40 90 -138q0 -75 -50.5 -116t-133.5 -41h-206q-13 0 -13 13v551q0 13 13 13h201q85 0 133.5 -39.5t48.5 -114.5q0 -44 -21.5 -74.5t-61.5 -47.5q-6 -3 0 -6zM147 509v-179q0 -5 5 -5h142q49 0 78.5 26t29.5 67q0 43 -29.5 69.5t-78.5 26.5h-142q-5 0 -5 -5z
M378 90.5q30 27.5 30 73.5t-30.5 74t-80.5 28h-145q-5 0 -5 -5v-193q0 -5 5 -5h148q48 0 78 27.5z" />
    <glyph glyph-name="c.sc" horiz-adv-x="519" 
d="M114 46.5q-56 54.5 -56 145.5v194q0 91 56 144.5t149 53.5q92 0 148 -52.5t56 -140.5q0 -5 -3.5 -8t-9.5 -3l-45 -2q-13 0 -13 5v5q0 63 -38.5 98t-102.5 35q-57 0 -91.5 -37t-34.5 -96v-200q0 -61 37 -97t97 -36t96.5 36t36.5 97q0 11 13 10l45 -2q6 0 9.5 -1.5
t3.5 -3.5v-4q0 -89 -55.5 -142t-148.5 -53t-149 54.5z" />
    <glyph glyph-name="cacute.sc" horiz-adv-x="519" 
d="M114 46.5q-56 54.5 -56 145.5v194q0 91 56 144.5t149 53.5q92 0 148 -52.5t56 -140.5q0 -5 -3.5 -8t-9.5 -3l-45 -2q-13 0 -13 5v5q0 63 -38.5 98t-102.5 35q-57 0 -91.5 -37t-34.5 -96v-200q0 -61 37 -97t97 -36t96.5 36t36.5 97q0 11 13 10l45 -2q6 0 9.5 -1.5
t3.5 -3.5v-4q0 -89 -55.5 -142t-148.5 -53t-149 54.5zM223.5 659.5q-2.5 4.5 1.5 11.5l57 103q4 9 15 9h43q10 0 10 -8q0 -5 -2 -8l-64 -103q-6 -9 -15 -9h-35q-8 0 -10.5 4.5z" />
    <glyph glyph-name="ccaron.sc" horiz-adv-x="519" 
d="M114 46.5q-56 54.5 -56 145.5v194q0 91 56 144.5t149 53.5q92 0 148 -52.5t56 -140.5q0 -5 -3.5 -8t-9.5 -3l-45 -2q-13 0 -13 5v5q0 63 -38.5 98t-102.5 35q-57 0 -91.5 -37t-34.5 -96v-200q0 -61 37 -97t97 -36t96.5 36t36.5 97q0 11 13 10l45 -2q6 0 9.5 -1.5
t3.5 -3.5v-4q0 -89 -55.5 -142t-148.5 -53t-149 54.5zM220 645l-75 103q-3 5 -3 7q0 9 12 9h30q10 0 16 -8l59 -80q1 -2 3 -2t4 2l59 80q6 8 16 8h30q11 0 11 -8q0 -3 -3 -8l-75 -103q-6 -8 -16 -8h-52q-10 0 -16 8z" />
    <glyph glyph-name="ccedilla.sc" horiz-adv-x="519" 
d="M463.5 382q-3.5 -2 -9.5 -2l-45 -2q-13 0 -13 5v5q0 63 -38.5 98t-102.5 35q-57 0 -91.5 -37t-34.5 -96v-200q0 -61 37 -97t97 -36t96.5 36t36.5 97q0 11 13 10l45 -2q6 0 9.5 -1.5t3.5 -3.5v-4q0 -86 -52.5 -138.5t-140.5 -56.5q-4 0 -4.5 -2t2.5 -4q48 -44 48 -90
q0 -12 -3 -22q-8 -32 -31.5 -46t-54.5 -14q-19 0 -39 5q-12 3 -10 15l3 16q1 13 15 10q12 -2 18 -2q22 0 36 11.5t14 36.5q0 22 -16.5 45.5t-44.5 45.5q-2 2 -3.5 2.5t-2.5 0.5q-67 17 -105 67.5t-38 124.5v194q0 91 56 144.5t149 53.5q92 0 148 -52.5t56 -140.5v-5
q0 -2 -3.5 -4z" />
    <glyph glyph-name="cdotaccent.sc" horiz-adv-x="519" 
d="M114 46.5q-56 54.5 -56 145.5v194q0 91 56 144.5t149 53.5q92 0 148 -52.5t56 -140.5q0 -5 -3.5 -8t-9.5 -3l-45 -2q-13 0 -13 5v5q0 63 -38.5 98t-102.5 35q-57 0 -91.5 -37t-34.5 -96v-200q0 -61 37 -97t97 -36t96.5 36t36.5 97q0 11 13 10l45 -2q6 0 9.5 -1.5
t3.5 -3.5v-4q0 -89 -55.5 -142t-148.5 -53t-149 54.5zM230 676.5q-13 12.5 -13 31.5t13 31.5t33 12.5q19 0 31 -12.5t12 -31.5t-12 -31.5t-31 -12.5q-20 0 -33 12.5z" />
    <glyph glyph-name="d.sc" horiz-adv-x="529" 
d="M76 13v551q0 13 13 13h200q86 0 138 -44.5t52 -118.5v-251q0 -75 -51.5 -119t-138.5 -44h-200q-13 0 -13 13zM152 62h140q53 0 84.5 30t31.5 80v232q0 51 -31.5 80.5t-84.5 29.5h-140q-5 0 -5 -5v-442q0 -5 5 -5z" />
    <glyph glyph-name="eth.sc" horiz-adv-x="583" 
d="M481 532.5q52 -44.5 52 -118.5v-251q0 -75 -51.5 -119t-138.5 -44h-200q-13 0 -13 13v255q0 5 -5 5h-36q-13 0 -13 13v24q0 13 13 13h36q5 0 5 5v236q0 13 13 13h200q86 0 138 -44.5zM462 404q0 51 -31.5 80.5t-84.5 29.5h-140q-5 0 -5 -5v-181q0 -5 5 -5h90q13 0 13 -13
v-24q0 -13 -13 -13h-90q-5 0 -5 -5v-201q0 -5 5 -5h140q53 0 84.5 30t31.5 80v232z" />
    <glyph glyph-name="dcaron.sc" horiz-adv-x="529" 
d="M76 13v551q0 13 13 13h200q86 0 138 -44.5t52 -118.5v-251q0 -75 -51.5 -119t-138.5 -44h-200q-13 0 -13 13zM152 62h140q53 0 84.5 30t31.5 80v232q0 51 -31.5 80.5t-84.5 29.5h-140q-5 0 -5 -5v-442q0 -5 5 -5zM222 642l-75 103q-3 5 -3 7q0 9 12 9h30q10 0 16 -8
l59 -80q1 -2 3 -2t4 2l59 80q6 8 16 8h30q11 0 11 -8q0 -3 -3 -8l-75 -103q-6 -8 -16 -8h-52q-10 0 -16 8z" />
    <glyph glyph-name="dcroat.sc" horiz-adv-x="583" 
d="M481 532.5q52 -44.5 52 -118.5v-251q0 -75 -51.5 -119t-138.5 -44h-200q-13 0 -13 13v255q0 5 -5 5h-36q-13 0 -13 13v24q0 13 13 13h36q5 0 5 5v236q0 13 13 13h200q86 0 138 -44.5zM462 404q0 51 -31.5 80.5t-84.5 29.5h-140q-5 0 -5 -5v-181q0 -5 5 -5h90q13 0 13 -13
v-24q0 -13 -13 -13h-90q-5 0 -5 -5v-201q0 -5 5 -5h140q53 0 84.5 30t31.5 80v232z" />
    <glyph glyph-name="e.sc" horiz-adv-x="515" 
d="M455 514h-303q-5 0 -5 -5v-183q0 -5 5 -5h209q13 0 13 -13v-36q0 -13 -13 -13h-209q-5 0 -5 -5v-187q0 -5 5 -5h303q13 0 13 -13v-36q0 -13 -13 -13h-366q-13 0 -13 13v550q0 13 13 13h366q13 0 13 -13v-36q0 -13 -13 -13z" />
    <glyph glyph-name="eacute.sc" horiz-adv-x="515" 
d="M455 514h-303q-5 0 -5 -5v-183q0 -5 5 -5h209q13 0 13 -13v-36q0 -13 -13 -13h-209q-5 0 -5 -5v-187q0 -5 5 -5h303q13 0 13 -13v-36q0 -13 -13 -13h-366q-13 0 -13 13v550q0 13 13 13h366q13 0 13 -13v-36q0 -13 -13 -13zM218.5 661.5q-2.5 4.5 1.5 11.5l57 103
q4 9 15 9h43q10 0 10 -8q0 -5 -2 -8l-64 -103q-6 -9 -15 -9h-35q-8 0 -10.5 4.5z" />
    <glyph glyph-name="ecaron.sc" horiz-adv-x="515" 
d="M455 514h-303q-5 0 -5 -5v-183q0 -5 5 -5h209q13 0 13 -13v-36q0 -13 -13 -13h-209q-5 0 -5 -5v-187q0 -5 5 -5h303q13 0 13 -13v-36q0 -13 -13 -13h-366q-13 0 -13 13v550q0 13 13 13h366q13 0 13 -13v-36q0 -13 -13 -13zM215 647l-75 103q-3 5 -3 7q0 9 12 9h30
q10 0 16 -8l59 -80q1 -2 3 -2t4 2l59 80q6 8 16 8h30q11 0 11 -8q0 -3 -3 -8l-75 -103q-6 -8 -16 -8h-52q-10 0 -16 8z" />
    <glyph glyph-name="uni0229.sc" horiz-adv-x="515" 
d="M455 514h-303q-5 0 -5 -5v-183q0 -5 5 -5h209q13 0 13 -13v-36q0 -13 -13 -13h-209q-5 0 -5 -5v-187q0 -5 5 -5h303q13 0 13 -13v-36q0 -13 -13 -13h-165q-3 0 -3.5 -2t1.5 -4q48 -44 48 -90q0 -12 -3 -22q-8 -32 -31.5 -46t-54.5 -14q-19 0 -39 5q-12 3 -10 15l3 16
q1 13 15 10q12 -2 18 -2q22 0 36 11.5t14 35.5q0 39 -53 85q-4 2 -6 2h-136q-13 0 -13 13v550q0 13 13 13h366q13 0 13 -13v-36q0 -13 -13 -13z" />
    <glyph glyph-name="ecircumflex.sc" horiz-adv-x="515" 
d="M455 514h-303q-5 0 -5 -5v-183q0 -5 5 -5h209q13 0 13 -13v-36q0 -13 -13 -13h-209q-5 0 -5 -5v-187q0 -5 5 -5h303q13 0 13 -13v-36q0 -13 -13 -13h-366q-13 0 -13 13v550q0 13 13 13h366q13 0 13 -13v-36q0 -13 -13 -13zM136 658q0 4 3 8l78 102q5 8 16 8h47
q11 0 16 -8l79 -102q3 -4 3 -8q0 -8 -11 -8h-32q-10 0 -16 8l-58 80q-2 2 -4 2t-3 -2l-59 -80q-6 -8 -16 -8h-32q-11 0 -11 8z" />
    <glyph glyph-name="edieresis.sc" horiz-adv-x="515" 
d="M455 514h-303q-5 0 -5 -5v-183q0 -5 5 -5h209q13 0 13 -13v-36q0 -13 -13 -13h-209q-5 0 -5 -5v-187q0 -5 5 -5h303q13 0 13 -13v-36q0 -13 -13 -13h-366q-13 0 -13 13v550q0 13 13 13h366q13 0 13 -13v-36q0 -13 -13 -13zM140.5 693q-13.5 13 -13.5 33t13.5 33.5
t34.5 13.5q20 0 33 -13.5t13 -33.5t-13 -33t-33 -13q-21 0 -34.5 13zM309 693q-13 13 -13 33t13 33.5t34 13.5t34 -13.5t13 -33.5t-13 -33t-34 -13t-34 13z" />
    <glyph glyph-name="edotaccent.sc" horiz-adv-x="515" 
d="M455 514h-303q-5 0 -5 -5v-183q0 -5 5 -5h209q13 0 13 -13v-36q0 -13 -13 -13h-209q-5 0 -5 -5v-187q0 -5 5 -5h303q13 0 13 -13v-36q0 -13 -13 -13h-366q-13 0 -13 13v550q0 13 13 13h366q13 0 13 -13v-36q0 -13 -13 -13zM225 678.5q-13 12.5 -13 31.5t13 31.5t33 12.5
q19 0 31 -12.5t12 -31.5t-12 -31.5t-31 -12.5q-20 0 -33 12.5z" />
    <glyph glyph-name="egrave.sc" horiz-adv-x="515" 
d="M455 514h-303q-5 0 -5 -5v-183q0 -5 5 -5h209q13 0 13 -13v-36q0 -13 -13 -13h-209q-5 0 -5 -5v-187q0 -5 5 -5h303q13 0 13 -13v-36q0 -13 -13 -13h-366q-13 0 -13 13v550q0 13 13 13h366q13 0 13 -13v-36q0 -13 -13 -13zM281 666q0 -4 -3 -6.5t-8 -2.5h-35q-9 0 -15 9
l-64 103q-2 3 -2 8q0 8 10 8h43q10 0 15 -9l57 -103q2 -6 2 -7z" />
    <glyph glyph-name="emacron.sc" horiz-adv-x="515" 
d="M455 514h-303q-5 0 -5 -5v-183q0 -5 5 -5h209q13 0 13 -13v-36q0 -13 -13 -13h-209q-5 0 -5 -5v-187q0 -5 5 -5h303q13 0 13 -13v-36q0 -13 -13 -13h-366q-13 0 -13 13v550q0 13 13 13h366q13 0 13 -13v-36q0 -13 -13 -13zM124 687v25q0 13 13 13h243q13 0 13 -13v-25
q0 -13 -13 -13h-243q-13 0 -13 13z" />
    <glyph glyph-name="eogonek.sc" horiz-adv-x="515" 
d="M455 514h-303q-5 0 -5 -5v-183q0 -5 5 -5h209q13 0 13 -13v-36q0 -13 -13 -13h-209q-5 0 -5 -5v-187q0 -5 5 -5h303q13 0 13 -13v-36q0 -13 -13 -13h-172q-2 0 -6 -2q-53 -46 -53 -85q0 -23 14 -35t36 -12q6 0 18 2l4 1q9 0 11 -11l3 -16v-3q0 -9 -10 -12q-20 -5 -39 -5
q-31 0 -54.5 14t-31.5 46q-3 10 -3 22q0 46 48 90q2 2 1.5 4t-3.5 2h-129q-13 0 -13 13v550q0 13 13 13h366q13 0 13 -13v-36q0 -13 -13 -13z" />
    <glyph glyph-name="f.sc" horiz-adv-x="484" 
d="M454 514h-302q-5 0 -5 -5v-183q0 -5 5 -5h208q13 0 13 -13v-36q0 -13 -13 -13h-208q-5 0 -5 -5v-241q0 -13 -13 -13h-45q-13 0 -13 13v551q0 13 13 13h365q13 0 13 -13v-37q0 -13 -13 -13z" />
    <glyph glyph-name="g.sc" horiz-adv-x="553" 
d="M123 47.5q-59 54.5 -59 151.5v179q0 97 59 151.5t159 54.5q97 0 155.5 -54t58.5 -148q0 -11 -13 -11h-44q-6 0 -9.5 2t-3.5 4v5q0 67 -39 103.5t-105 36.5q-68 0 -108 -38t-40 -108v-178q0 -69 40 -106t108 -37q67 0 105.5 37t38.5 106v29q0 5 -5 5h-120q-13 0 -13 13v35
q0 13 13 13h182q13 0 13 -13v-81q0 -96 -58.5 -151t-155.5 -55q-100 0 -159 54.5z" />
    <glyph glyph-name="gbreve.sc" horiz-adv-x="553" 
d="M123 47.5q-59 54.5 -59 151.5v179q0 97 59 151.5t159 54.5q97 0 155.5 -54t58.5 -148q0 -11 -13 -11h-44q-6 0 -9.5 2t-3.5 4v5q0 67 -39 103.5t-105 36.5q-68 0 -108 -38t-40 -108v-178q0 -69 40 -106t108 -37q67 0 105.5 37t38.5 106v29q0 5 -5 5h-120q-13 0 -13 13v35
q0 13 13 13h182q13 0 13 -13v-81q0 -96 -58.5 -151t-155.5 -55q-100 0 -159 54.5zM207 648.5q-31 26.5 -36 66.5v2q0 11 12 11h18q11 0 13 -12q5 -24 23 -40t43 -16q24 0 42 16t23 40q1 12 13 12h19q6 0 9.5 -3.5t2.5 -9.5q-4 -40 -35.5 -66.5t-73.5 -26.5t-73 26.5z" />
    <glyph glyph-name="uni0123.sc" horiz-adv-x="553" 
d="M123 47.5q-59 54.5 -59 151.5v179q0 97 59 151.5t159 54.5q97 0 155.5 -54t58.5 -148q0 -11 -13 -11h-44q-6 0 -9.5 2t-3.5 4v5q0 67 -39 103.5t-105 36.5q-68 0 -108 -38t-40 -108v-178q0 -69 40 -106t108 -37q67 0 105.5 37t38.5 106v29q0 5 -5 5h-120q-13 0 -13 13v35
q0 13 13 13h182q13 0 13 -13v-81q0 -96 -58.5 -151t-155.5 -55q-100 0 -159 54.5zM211.5 -187.5q-2.5 4.5 1.5 11.5l57 103q4 9 15 9h43q10 0 10 -8q0 -5 -2 -8l-64 -103q-6 -9 -15 -9h-35q-8 0 -10.5 4.5z" />
    <glyph glyph-name="gdotaccent.sc" horiz-adv-x="553" 
d="M123 47.5q-59 54.5 -59 151.5v179q0 97 59 151.5t159 54.5q97 0 155.5 -54t58.5 -148q0 -11 -13 -11h-44q-6 0 -9.5 2t-3.5 4v5q0 67 -39 103.5t-105 36.5q-68 0 -108 -38t-40 -108v-178q0 -69 40 -106t108 -37q67 0 105.5 37t38.5 106v29q0 5 -5 5h-120q-13 0 -13 13v35
q0 13 13 13h182q13 0 13 -13v-81q0 -96 -58.5 -151t-155.5 -55q-100 0 -159 54.5zM247 676.5q-13 12.5 -13 31.5t13 31.5t33 12.5q19 0 31 -12.5t12 -31.5t-12 -31.5t-31 -12.5q-20 0 -33 12.5z" />
    <glyph glyph-name="h.sc" horiz-adv-x="556" 
d="M426 577h45q13 0 13 -13v-551q0 -13 -13 -13h-45q-13 0 -13 13v241q0 5 -5 5h-256q-5 0 -5 -5v-241q0 -13 -13 -13h-45q-13 0 -13 13v551q0 13 13 13h45q13 0 13 -13v-238q0 -5 5 -5h256q5 0 5 5v238q0 13 13 13z" />
    <glyph glyph-name="hbar.sc" horiz-adv-x="556" 
d="M576 457v-25q0 -13 -13 -13h-74q-5 0 -5 -5v-401q0 -13 -13 -13h-45q-13 0 -13 13v241q0 5 -5 5h-256q-5 0 -5 -5v-241q0 -13 -13 -13h-45q-13 0 -13 13v401q0 5 -5 5h-73q-13 0 -13 13v25q0 13 13 13h73q5 0 5 5v89q0 13 13 13h45q13 0 13 -13v-89q0 -5 5 -5h256
q5 0 5 5v89q0 13 13 13h45q13 0 13 -13v-89q0 -5 5 -5h74q13 0 13 -13zM413 326v88q0 5 -5 5h-256q-5 0 -5 -5v-88q0 -5 5 -5h256q5 0 5 5z" />
    <glyph glyph-name="i.sc" horiz-adv-x="223" 
d="M76 13v550q0 13 13 13h45q13 0 13 -13v-550q0 -13 -13 -13h-45q-13 0 -13 13z" />
    <glyph glyph-name="iacute.sc" horiz-adv-x="223" 
d="M76 13v550q0 13 13 13h45q13 0 13 -13v-550q0 -13 -13 -13h-45q-13 0 -13 13zM71.5 661.5q-2.5 4.5 1.5 11.5l57 103q4 9 15 9h43q10 0 10 -8q0 -5 -2 -8l-64 -103q-6 -9 -15 -9h-35q-8 0 -10.5 4.5z" />
    <glyph glyph-name="icircumflex.sc" horiz-adv-x="223" 
d="M76 13v550q0 13 13 13h45q13 0 13 -13v-550q0 -13 -13 -13h-45q-13 0 -13 13zM-11 658q0 4 3 8l78 102q5 8 16 8h47q11 0 16 -8l79 -102q3 -4 3 -8q0 -8 -11 -8h-32q-10 0 -16 8l-58 80q-2 2 -4 2t-3 -2l-59 -80q-6 -8 -16 -8h-32q-11 0 -11 8z" />
    <glyph glyph-name="idieresis.sc" horiz-adv-x="223" 
d="M76 13v550q0 13 13 13h45q13 0 13 -13v-550q0 -13 -13 -13h-45q-13 0 -13 13zM-7.5 693q-13.5 13 -13.5 33t13.5 33.5t34.5 13.5q20 0 33 -13.5t13 -33.5t-13 -33t-33 -13q-21 0 -34.5 13zM161 693q-13 13 -13 33t13 33.5t34 13.5t34 -13.5t13 -33.5t-13 -33t-34 -13
t-34 13z" />
    <glyph glyph-name="i.sc.loclTRK" horiz-adv-x="223" 
d="M76 13v550q0 13 13 13h45q13 0 13 -13v-550q0 -13 -13 -13h-45q-13 0 -13 13zM78 678.5q-13 12.5 -13 31.5t13 31.5t33 12.5q19 0 31 -12.5t12 -31.5t-12 -31.5t-31 -12.5q-20 0 -33 12.5z" />
    <glyph glyph-name="igrave.sc" horiz-adv-x="223" 
d="M76 13v550q0 13 13 13h45q13 0 13 -13v-550q0 -13 -13 -13h-45q-13 0 -13 13zM134 666q0 -4 -3 -6.5t-8 -2.5h-35q-9 0 -15 9l-64 103q-2 3 -2 8q0 8 10 8h43q10 0 15 -9l57 -103q2 -6 2 -7z" />
    <glyph glyph-name="ij.sc" horiz-adv-x="721" 
d="M76 13v550q0 13 13 13h45q13 0 13 -13v-550q0 -13 -13 -13h-45q-13 0 -13 13zM300.5 46q-54.5 53 -54.5 141v25q0 13 13 13h45q13 0 13 -13v-25q0 -60 35 -96t93 -36t93.5 36t35.5 96v377q0 13 13 13h45q13 0 13 -13v-377q0 -88 -55 -141t-145 -53t-144.5 53z" />
    <glyph glyph-name="imacron.sc" horiz-adv-x="223" 
d="M76 13v550q0 13 13 13h45q13 0 13 -13v-550q0 -13 -13 -13h-45q-13 0 -13 13zM-23 687v25q0 13 13 13h243q13 0 13 -13v-25q0 -13 -13 -13h-243q-13 0 -13 13z" />
    <glyph glyph-name="iogonek.sc" horiz-adv-x="240" 
d="M76 13v550q0 13 13 13h45q13 0 13 -13v-550q0 -13 -13 -13h-45q-13 0 -13 13zM169 -169q0 -9 -10 -12q-20 -5 -39 -5q-31 0 -54.5 14t-31.5 46q-3 10 -3 22q0 52 58 98q6 6 16 6h19q11 0 11 -7q0 -4 -5 -9q-47 -42 -47 -78q0 -8 1 -12q7 -36 49 -36q6 0 18 2l4 1
q9 0 11 -11l3 -16v-3z" />
    <glyph glyph-name="j.sc" horiz-adv-x="498" 
d="M77.5 46q-54.5 53 -54.5 141v25q0 13 13 13h45q13 0 13 -13v-25q0 -60 35 -96t93 -36t93.5 36t35.5 96v377q0 13 13 13h45q13 0 13 -13v-377q0 -88 -55 -141t-145 -53t-144.5 53z" />
    <glyph glyph-name="k.sc" horiz-adv-x="525" 
d="M76 13v551q0 13 13 13h45q13 0 13 -13v-265q0 -3 2 -4t4 2l255 273q6 7 16 7h48q11 0 11 -8q0 -4 -4 -8l-199 -222q-2 -3 0 -7l217 -316q3 -4 3 -8q0 -8 -11 -8h-51q-10 0 -16 8l-191 274q-4 6 -7 1l-75 -80q-2 -4 -2 -7v-183q0 -13 -13 -13h-45q-13 0 -13 13z" />
    <glyph glyph-name="uni0137.sc" horiz-adv-x="524" 
d="M76 13v551q0 13 13 13h45q13 0 13 -13v-265q0 -3 2 -4t4 2l255 273q6 7 16 7h48q11 0 11 -8q0 -4 -4 -8l-199 -222q-2 -3 0 -7l217 -316q3 -4 3 -8q0 -8 -11 -8h-51q-10 0 -16 8l-191 274q-4 6 -7 1l-75 -80q-2 -4 -2 -7v-183q0 -13 -13 -13h-45q-13 0 -13 13z
M209.5 -180.5q-2.5 4.5 1.5 11.5l57 103q4 9 15 9h43q10 0 10 -8q0 -5 -2 -8l-64 -103q-6 -9 -15 -9h-35q-8 0 -10.5 4.5z" />
    <glyph glyph-name="l.sc" horiz-adv-x="486" 
d="M76 13v551q0 13 13 13h45q13 0 13 -13v-497q0 -5 5 -5h292q13 0 13 -13v-36q0 -13 -13 -13h-355q-13 0 -13 13z" />
    <glyph glyph-name="lacute.sc" horiz-adv-x="486" 
d="M76 13v551q0 13 13 13h45q13 0 13 -13v-497q0 -5 5 -5h292q13 0 13 -13v-36q0 -13 -13 -13h-355q-13 0 -13 13zM71.5 652.5q-2.5 4.5 1.5 11.5l57 103q4 9 15 9h43q10 0 10 -8q0 -5 -2 -8l-64 -103q-6 -9 -15 -9h-35q-8 0 -10.5 4.5z" />
    <glyph glyph-name="lcaron.sc" horiz-adv-x="486" 
d="M76 13v551q0 13 13 13h45q13 0 13 -13v-497q0 -5 5 -5h292q13 0 13 -13v-36q0 -13 -13 -13h-355q-13 0 -13 13zM68 638l-75 103q-3 5 -3 7q0 9 12 9h30q10 0 16 -8l59 -80q1 -2 3 -2t4 2l59 80q6 8 16 8h30q11 0 11 -8q0 -3 -3 -8l-75 -103q-6 -8 -16 -8h-52q-10 0 -16 8
z" />
    <glyph glyph-name="uni013C.sc" horiz-adv-x="486" 
d="M76 13v551q0 13 13 13h45q13 0 13 -13v-497q0 -5 5 -5h292q13 0 13 -13v-36q0 -13 -13 -13h-355q-13 0 -13 13zM176.5 -180.5q-2.5 4.5 1.5 11.5l57 103q4 9 15 9h43q10 0 10 -8q0 -5 -2 -8l-64 -103q-6 -9 -15 -9h-35q-8 0 -10.5 4.5z" />
    <glyph glyph-name="lslash.sc" horiz-adv-x="529" 
d="M152 62h292q13 0 13 -13v-36q0 -13 -13 -13h-355q-13 0 -13 13v157q0 3 -2 4t-4 -1l-49 -36q-4 -3 -8 -3q-5 0 -10 5l-18 22q-3 5 -3 8q0 6 6 10l85 64q3 2 3 6v315q0 13 13 13h45q13 0 13 -13v-257q0 -3 2 -4t4 1l246 184q5 3 8 3q5 0 10 -5l17 -21q3 -4 3 -8
q0 -5 -6 -10l-281 -213q-3 -1 -3 -6v-161q0 -5 5 -5z" />
    <glyph glyph-name="m.sc" horiz-adv-x="612" 
d="M76 13v551q0 13 13 13h47q9 0 15 -9l152 -235q3 -6 6 0l152 235q6 9 16 9h46q13 0 13 -13v-551q0 -13 -13 -13h-45q-13 0 -13 13v451q0 4 -2 4.5t-4 -2.5l-131 -204q-6 -9 -15 -9h-12q-11 0 -16 8l-132 205q-2 3 -4 2.5t-2 -4.5v-451q0 -13 -13 -13h-45q-13 0 -13 13z
" />
    <glyph glyph-name="n.sc" horiz-adv-x="578" 
d="M76 13v550q0 13 13 13h48q9 0 15 -9l274 -442q2 -3 4 -2.5t2 4.5l-1 436q0 13 13 13h45q13 0 13 -13v-550q0 -13 -13 -13h-48q-9 0 -15 9l-274 444q-2 3 -4 2.5t-2 -4.5l1 -438q0 -13 -13 -13h-45q-13 0 -13 13z" />
    <glyph glyph-name="nacute.sc" horiz-adv-x="578" 
d="M76 13v550q0 13 13 13h48q9 0 15 -9l274 -442q2 -3 4 -2.5t2 4.5l-1 436q0 13 13 13h45q13 0 13 -13v-550q0 -13 -13 -13h-48q-9 0 -15 9l-274 444q-2 3 -4 2.5t-2 -4.5l1 -438q0 -13 -13 -13h-45q-13 0 -13 13zM246.5 661.5q-2.5 4.5 1.5 11.5l57 103q4 9 15 9h43
q10 0 10 -8q0 -5 -2 -8l-64 -103q-6 -9 -15 -9h-35q-8 0 -10.5 4.5z" />
    <glyph glyph-name="ncaron.sc" horiz-adv-x="578" 
d="M76 13v550q0 13 13 13h48q9 0 15 -9l274 -442q2 -3 4 -2.5t2 4.5l-1 436q0 13 13 13h45q13 0 13 -13v-550q0 -13 -13 -13h-48q-9 0 -15 9l-274 444q-2 3 -4 2.5t-2 -4.5l1 -438q0 -13 -13 -13h-45q-13 0 -13 13zM243 647l-75 103q-3 5 -3 7q0 9 12 9h30q10 0 16 -8
l59 -80q1 -2 3 -2t4 2l59 80q6 8 16 8h30q11 0 11 -8q0 -3 -3 -8l-75 -103q-6 -8 -16 -8h-52q-10 0 -16 8z" />
    <glyph glyph-name="uni0146.sc" horiz-adv-x="578" 
d="M76 13v550q0 13 13 13h48q9 0 15 -9l274 -442q2 -3 4 -2.5t2 4.5l-1 436q0 13 13 13h45q13 0 13 -13v-550q0 -13 -13 -13h-48q-9 0 -15 9l-274 444q-2 3 -4 2.5t-2 -4.5l1 -438q0 -13 -13 -13h-45q-13 0 -13 13zM222.5 -180.5q-2.5 4.5 1.5 11.5l57 103q4 9 15 9h43
q10 0 10 -8q0 -5 -2 -8l-64 -103q-6 -9 -15 -9h-35q-8 0 -10.5 4.5z" />
    <glyph glyph-name="eng.sc" horiz-adv-x="578" 
d="M502 563v-555v-8h-1q-2 -72 -34 -103.5t-113 -31.5q-13 0 -13 13v35q0 13 13 13q40 1 57 18.5t19 54.5q0 2 -2 6l-276 448q-2 3 -4 2.5t-2 -4.5l1 -438q0 -13 -13 -13h-45q-13 0 -13 13v550q0 13 13 13h48q9 0 15 -9l272 -439q2 -3 4 -2.5t2 4.5v317v4q1 2 1 6v106
q0 13 13 13h45q13 0 13 -13z" />
    <glyph glyph-name="ntilde.sc" horiz-adv-x="578" 
d="M76 13v550q0 13 13 13h48q9 0 15 -9l274 -442q2 -3 4 -2.5t2 4.5l-1 436q0 13 13 13h45q13 0 13 -13v-550q0 -13 -13 -13h-48q-9 0 -15 9l-274 444q-2 3 -4 2.5t-2 -4.5l1 -438q0 -13 -13 -13h-45q-13 0 -13 13zM319.5 678.5q-14.5 6.5 -30.5 17.5t-25 15.5t-20 4.5
q-15 0 -25.5 -5t-21.5 -19q-7 -7 -11 -7t-8 3l-14 10q-5 3 -6 8t2 10q30 50 80 50q16 0 29 -5.5t32 -17.5q17 -11 27.5 -16t21.5 -5q29 0 47 27q7 10 18 4l15 -9q6 -4 6 -10t-6 -15q-16 -24 -37.5 -35.5t-41.5 -11.5q-17 0 -31.5 6.5z" />
    <glyph glyph-name="o.sc" horiz-adv-x="539" 
d="M115.5 50q-57.5 57 -57.5 153v170q0 96 57.5 153.5t153.5 57.5q63 0 110.5 -26t74 -73.5t26.5 -111.5v-170q0 -96 -58 -153t-153 -57q-96 0 -153.5 57zM370.5 93.5q38.5 39.5 38.5 107.5v173q0 68 -38.5 107.5t-101.5 39.5q-64 0 -102 -39.5t-38 -107.5v-173
q0 -68 38 -107.5t102 -39.5q63 0 101.5 39.5z" />
    <glyph glyph-name="oacute.sc" horiz-adv-x="539" 
d="M115.5 50q-57.5 57 -57.5 153v170q0 96 57.5 153.5t153.5 57.5q63 0 110.5 -26t74 -73.5t26.5 -111.5v-170q0 -96 -58 -153t-153 -57q-96 0 -153.5 57zM370.5 93.5q38.5 39.5 38.5 107.5v173q0 68 -38.5 107.5t-101.5 39.5q-64 0 -102 -39.5t-38 -107.5v-173
q0 -68 38 -107.5t102 -39.5q63 0 101.5 39.5zM229.5 659.5q-2.5 4.5 1.5 11.5l57 103q4 9 15 9h43q10 0 10 -8q0 -5 -2 -8l-64 -103q-6 -9 -15 -9h-35q-8 0 -10.5 4.5z" />
    <glyph glyph-name="ocircumflex.sc" horiz-adv-x="539" 
d="M115.5 50q-57.5 57 -57.5 153v170q0 96 57.5 153.5t153.5 57.5q63 0 110.5 -26t74 -73.5t26.5 -111.5v-170q0 -96 -58 -153t-153 -57q-96 0 -153.5 57zM370.5 93.5q38.5 39.5 38.5 107.5v173q0 68 -38.5 107.5t-101.5 39.5q-64 0 -102 -39.5t-38 -107.5v-173
q0 -68 38 -107.5t102 -39.5q63 0 101.5 39.5zM147 656q0 4 3 8l78 102q5 8 16 8h47q11 0 16 -8l79 -102q3 -4 3 -8q0 -8 -11 -8h-32q-10 0 -16 8l-58 80q-2 2 -4 2t-3 -2l-59 -80q-6 -8 -16 -8h-32q-11 0 -11 8z" />
    <glyph glyph-name="odieresis.sc" horiz-adv-x="539" 
d="M115.5 50q-57.5 57 -57.5 153v170q0 96 57.5 153.5t153.5 57.5q63 0 110.5 -26t74 -73.5t26.5 -111.5v-170q0 -96 -58 -153t-153 -57q-96 0 -153.5 57zM370.5 93.5q38.5 39.5 38.5 107.5v173q0 68 -38.5 107.5t-101.5 39.5q-64 0 -102 -39.5t-38 -107.5v-173
q0 -68 38 -107.5t102 -39.5q63 0 101.5 39.5zM151.5 691q-13.5 13 -13.5 33t13.5 33.5t34.5 13.5q20 0 33 -13.5t13 -33.5t-13 -33t-33 -13q-21 0 -34.5 13zM320 691q-13 13 -13 33t13 33.5t34 13.5t34 -13.5t13 -33.5t-13 -33t-34 -13t-34 13z" />
    <glyph glyph-name="ograve.sc" horiz-adv-x="539" 
d="M115.5 50q-57.5 57 -57.5 153v170q0 96 57.5 153.5t153.5 57.5q63 0 110.5 -26t74 -73.5t26.5 -111.5v-170q0 -96 -58 -153t-153 -57q-96 0 -153.5 57zM370.5 93.5q38.5 39.5 38.5 107.5v173q0 68 -38.5 107.5t-101.5 39.5q-64 0 -102 -39.5t-38 -107.5v-173
q0 -68 38 -107.5t102 -39.5q63 0 101.5 39.5zM292 664q0 -4 -3 -6.5t-8 -2.5h-35q-9 0 -15 9l-64 103q-2 3 -2 8q0 8 10 8h43q10 0 15 -9l57 -103q2 -6 2 -7z" />
    <glyph glyph-name="ohungarumlaut.sc" horiz-adv-x="539" 
d="M115.5 50q-57.5 57 -57.5 153v170q0 96 57.5 153.5t153.5 57.5q63 0 110.5 -26t74 -73.5t26.5 -111.5v-170q0 -96 -58 -153t-153 -57q-96 0 -153.5 57zM370.5 93.5q38.5 39.5 38.5 107.5v173q0 68 -38.5 107.5t-101.5 39.5q-64 0 -102 -39.5t-38 -107.5v-173
q0 -68 38 -107.5t102 -39.5q63 0 101.5 39.5zM158.5 657q-2.5 4 0.5 11l53 104q4 9 16 9h39q8 0 10.5 -4.5t-1.5 -11.5l-57 -103q-5 -9 -15 -9h-36q-7 0 -9.5 4zM321 657q-3 4 1 11l56 104q4 9 15 9h37q8 0 10.5 -4.5t-1.5 -11.5l-58 -103q-5 -9 -15 -9h-34q-8 0 -11 4z" />
    <glyph glyph-name="omacron.sc" horiz-adv-x="539" 
d="M115.5 50q-57.5 57 -57.5 153v170q0 96 57.5 153.5t153.5 57.5q63 0 110.5 -26t74 -73.5t26.5 -111.5v-170q0 -96 -58 -153t-153 -57q-96 0 -153.5 57zM370.5 93.5q38.5 39.5 38.5 107.5v173q0 68 -38.5 107.5t-101.5 39.5q-64 0 -102 -39.5t-38 -107.5v-173
q0 -68 38 -107.5t102 -39.5q63 0 101.5 39.5zM135 685v25q0 13 13 13h243q13 0 13 -13v-25q0 -13 -13 -13h-243q-13 0 -13 13z" />
    <glyph glyph-name="oslash.sc" horiz-adv-x="539" 
d="M501.5 687q2.5 -4 -0.5 -11l-72 -151q-2 -4 1 -7q50 -56 50 -145v-170q0 -96 -58 -153t-153 -57q-47 0 -82 13q-5 2 -6 -2l-41 -87q-5 -10 -16 -10h-29q-7 0 -10 4t0 11l50 106q2 4 -2 7q-36 27 -55.5 70t-19.5 98v170q0 96 57.5 153.5t153.5 57.5q63 0 112 -26
q2 -1 3.5 -0.5t2.5 2.5l58 121q5 10 16 10h30q8 0 10.5 -4zM163 99q1 -2 3.5 -1.5t3.5 2.5l185 390q2 4 -2 7q-34 24 -84 24q-64 0 -102 -39.5t-38 -107.5v-173q0 -65 34 -102zM396 442q-1 3 -2.5 3t-3.5 -3l-178 -372q-2 -5 3 -7q24 -9 54 -9q63 0 101.5 39.5t38.5 107.5
v173q0 36 -13 68z" />
    <glyph glyph-name="otilde.sc" horiz-adv-x="539" 
d="M115.5 50q-57.5 57 -57.5 153v170q0 96 57.5 153.5t153.5 57.5q63 0 110.5 -26t74 -73.5t26.5 -111.5v-170q0 -96 -58 -153t-153 -57q-96 0 -153.5 57zM370.5 93.5q38.5 39.5 38.5 107.5v173q0 68 -38.5 107.5t-101.5 39.5q-64 0 -102 -39.5t-38 -107.5v-173
q0 -68 38 -107.5t102 -39.5q63 0 101.5 39.5zM302.5 676.5q-14.5 6.5 -30.5 17.5t-25 15.5t-20 4.5q-15 0 -25.5 -5t-21.5 -19q-7 -7 -11 -7t-8 3l-14 10q-5 3 -6 8t2 10q30 50 80 50q16 0 29 -5.5t32 -17.5q17 -11 27.5 -16t21.5 -5q29 0 47 27q7 10 18 4l15 -9q6 -4 6 -10
t-6 -15q-16 -24 -37.5 -35.5t-41.5 -11.5q-17 0 -31.5 6.5z" />
    <glyph glyph-name="oe.sc" horiz-adv-x="789" 
d="M729 514h-271q-5 0 -5 -5v-183q0 -5 5 -5h177q13 0 13 -13v-36q0 -13 -13 -13h-177q-5 0 -5 -5v-187q0 -5 5 -5h271q13 0 13 -13v-36q0 -13 -13 -13h-334q-13 0 -13 13v30q0 3 -2 4t-4 -1q-27 -25 -62 -39t-76 -14q-51 0 -92 24t-64.5 67.5t-23.5 99.5v208
q0 56 23.5 99.5t64.5 68t92 24.5q41 0 76 -14t62 -40q2 -2 4 -1t2 4v31q0 13 13 13h334q13 0 13 -13v-37q0 -13 -13 -13zM347 89q35 35 35 92v212q0 58 -35 93t-93 35q-56 0 -90.5 -35t-34.5 -93v-212q0 -57 34.5 -92t90.5 -35q58 0 93 35z" />
    <glyph glyph-name="p.sc" horiz-adv-x="507" 
d="M429.5 532.5q47.5 -45.5 47.5 -119.5q0 -73 -48 -118t-126 -45h-157q-5 0 -5 -5v-232q0 -13 -13 -13h-45q-13 0 -13 13v552q0 13 13 13h223q76 0 123.5 -45.5zM377.5 336.5q29.5 28.5 29.5 74.5q0 47 -29.5 76t-76.5 29h-155q-5 0 -5 -5v-198q0 -5 5 -5h155
q47 0 76.5 28.5z" />
    <glyph glyph-name="thorn.sc" horiz-adv-x="486" 
d="M410.5 406q46.5 -45 46.5 -119q0 -73 -47.5 -117t-125.5 -44h-138q-5 0 -5 -5v-108q0 -13 -13 -13h-45q-13 0 -13 13v551q0 13 13 13h45q13 0 13 -13v-108q0 -5 5 -5h140q78 0 124.5 -45zM358 212q28 28 28 74t-28 74.5t-73 28.5h-139q-5 0 -5 -5v-195q0 -5 5 -5h139
q45 0 73 28z" />
    <glyph glyph-name="q.sc" horiz-adv-x="497" 
d="M394 528.5q55 -55.5 55 -148.5v-188q0 -80 -43 -132.5t-116 -63.5q-5 -2 -5 -6v-68q0 -13 -13 -13h-45q-13 0 -13 13v68q0 4 -5 6q-74 11 -117.5 63.5t-43.5 132.5v188q0 93 55 148.5t146 55.5q90 0 145 -55.5zM378 384q0 63 -35.5 100t-93.5 37q-59 0 -94.5 -37
t-35.5 -100v-191q0 -63 35.5 -100.5t94.5 -37.5q58 0 93.5 37.5t35.5 100.5v191z" />
    <glyph glyph-name="r.sc" horiz-adv-x="520" 
d="M406 9l-120 242q-2 4 -6 4h-128q-5 0 -5 -5v-237q0 -13 -13 -13h-45q-13 0 -13 13v552q0 13 13 13h218q76 0 122 -45t46 -118q0 -59 -31.5 -99.5t-85.5 -54.5q-5 -1 -3 -6l123 -240q2 -6 2 -7q0 -8 -11 -8h-47q-11 0 -16 9zM147 511v-194q0 -5 5 -5h148q47 0 76 28t29 73
q0 46 -29 74.5t-76 28.5h-148q-5 0 -5 -5z" />
    <glyph glyph-name="racute.sc" horiz-adv-x="520" 
d="M406 9l-120 242q-2 4 -6 4h-128q-5 0 -5 -5v-237q0 -13 -13 -13h-45q-13 0 -13 13v552q0 13 13 13h218q76 0 122 -45t46 -118q0 -59 -31.5 -99.5t-85.5 -54.5q-5 -1 -3 -6l123 -240q2 -6 2 -7q0 -8 -11 -8h-47q-11 0 -16 9zM147 511v-194q0 -5 5 -5h148q47 0 76 28t29 73
q0 46 -29 74.5t-76 28.5h-148q-5 0 -5 -5zM214.5 652.5q-2.5 4.5 1.5 11.5l57 103q4 9 15 9h43q10 0 10 -8q0 -5 -2 -8l-64 -103q-6 -9 -15 -9h-35q-8 0 -10.5 4.5z" />
    <glyph glyph-name="rcaron.sc" horiz-adv-x="520" 
d="M406 9l-120 242q-2 4 -6 4h-128q-5 0 -5 -5v-237q0 -13 -13 -13h-45q-13 0 -13 13v552q0 13 13 13h218q76 0 122 -45t46 -118q0 -59 -31.5 -99.5t-85.5 -54.5q-5 -1 -3 -6l123 -240q2 -6 2 -7q0 -8 -11 -8h-47q-11 0 -16 9zM147 511v-194q0 -5 5 -5h148q47 0 76 28t29 73
q0 46 -29 74.5t-76 28.5h-148q-5 0 -5 -5zM211 638l-75 103q-3 5 -3 7q0 9 12 9h30q10 0 16 -8l59 -80q1 -2 3 -2t4 2l59 80q6 8 16 8h30q11 0 11 -8q0 -3 -3 -8l-75 -103q-6 -8 -16 -8h-52q-10 0 -16 8z" />
    <glyph glyph-name="uni0157.sc" horiz-adv-x="520" 
d="M406 9l-120 242q-2 4 -6 4h-128q-5 0 -5 -5v-237q0 -13 -13 -13h-45q-13 0 -13 13v552q0 13 13 13h218q76 0 122 -45t46 -118q0 -59 -31.5 -99.5t-85.5 -54.5q-5 -1 -3 -6l123 -240q2 -6 2 -7q0 -8 -11 -8h-47q-11 0 -16 9zM147 511v-194q0 -5 5 -5h148q47 0 76 28t29 73
q0 46 -29 74.5t-76 28.5h-148q-5 0 -5 -5zM196.5 -180.5q-2.5 4.5 1.5 11.5l57 103q4 9 15 9h43q10 0 10 -8q0 -5 -2 -8l-64 -103q-6 -9 -15 -9h-35q-8 0 -10.5 4.5z" />
    <glyph glyph-name="s.sc" horiz-adv-x="503" 
d="M103 35q-55 42 -55 115v18q0 13 13 13h43q13 0 13 -12v-13q0 -45 37.5 -73t104.5 -28q62 0 95.5 25t33.5 68q0 37 -33 62t-114 57q-69 24 -104.5 41t-58.5 46.5t-23 76.5q0 73 50.5 113t143.5 40q97 0 151 -43.5t54 -118.5v-10q0 -13 -13 -13h-45q-13 0 -13 10v10
q0 45 -35 73.5t-102 28.5q-59 0 -90 -22.5t-31 -65.5q0 -27 14.5 -44.5t39 -29t81.5 -33.5q68 -24 108.5 -44t65.5 -51.5t25 -79.5q0 -73 -53.5 -115.5t-151.5 -42.5q-96 0 -151 42z" />
    <glyph glyph-name="sacute.sc" horiz-adv-x="503" 
d="M103 35q-55 42 -55 115v18q0 13 13 13h43q13 0 13 -12v-13q0 -45 37.5 -73t104.5 -28q62 0 95.5 25t33.5 68q0 37 -33 62t-114 57q-69 24 -104.5 41t-58.5 46.5t-23 76.5q0 73 50.5 113t143.5 40q97 0 151 -43.5t54 -118.5v-10q0 -13 -13 -13h-45q-13 0 -13 10v10
q0 45 -35 73.5t-102 28.5q-59 0 -90 -22.5t-31 -65.5q0 -27 14.5 -44.5t39 -29t81.5 -33.5q68 -24 108.5 -44t65.5 -51.5t25 -79.5q0 -73 -53.5 -115.5t-151.5 -42.5q-96 0 -151 42zM207.5 659.5q-2.5 4.5 1.5 11.5l57 103q4 9 15 9h43q10 0 10 -8q0 -5 -2 -8l-64 -103
q-6 -9 -15 -9h-35q-8 0 -10.5 4.5z" />
    <glyph glyph-name="scaron.sc" horiz-adv-x="503" 
d="M103 35q-55 42 -55 115v18q0 13 13 13h43q13 0 13 -12v-13q0 -45 37.5 -73t104.5 -28q62 0 95.5 25t33.5 68q0 37 -33 62t-114 57q-69 24 -104.5 41t-58.5 46.5t-23 76.5q0 73 50.5 113t143.5 40q97 0 151 -43.5t54 -118.5v-10q0 -13 -13 -13h-45q-13 0 -13 10v10
q0 45 -35 73.5t-102 28.5q-59 0 -90 -22.5t-31 -65.5q0 -27 14.5 -44.5t39 -29t81.5 -33.5q68 -24 108.5 -44t65.5 -51.5t25 -79.5q0 -73 -53.5 -115.5t-151.5 -42.5q-96 0 -151 42zM204 645l-75 103q-3 5 -3 7q0 9 12 9h30q10 0 16 -8l59 -80q1 -2 3 -2t4 2l59 80q6 8 16 8
h30q11 0 11 -8q0 -3 -3 -8l-75 -103q-6 -8 -16 -8h-52q-10 0 -16 8z" />
    <glyph glyph-name="scedilla.sc" horiz-adv-x="503" 
d="M414 43.5q-45 -41.5 -128 -48.5q-4 -1 -4.5 -3t2.5 -4q49 -43 49 -91q0 -12 -3 -22q-8 -32 -31.5 -46t-54.5 -14q-19 0 -39 5q-12 3 -10 15l3 16q1 13 15 10q12 -2 18 -2q22 0 36 11.5t14 35.5q0 41 -54 86q-4 2 -6 2q-81 8 -127 49t-46 107v18q0 13 13 13h43
q13 0 13 -12v-13q0 -45 37.5 -73t104.5 -28q62 0 95.5 25t33.5 68q0 37 -33 62t-114 57q-69 24 -104.5 41t-58.5 46.5t-23 76.5q0 73 50.5 113t143.5 40q97 0 151 -43.5t54 -118.5v-10q0 -13 -13 -13h-45q-13 0 -13 10v10q0 45 -35 73.5t-102 28.5q-59 0 -90 -22.5
t-31 -65.5q0 -27 14.5 -44.5t39 -29t81.5 -33.5q68 -24 108.5 -44t65.5 -51.5t25 -79.5q0 -66 -45 -107.5z" />
    </font>
</defs>
</svg>
