<?xml version="1.0" standalone="no"?>
<!DOCTYPE svg PUBLIC "-//W3C//DTD SVG 1.1//EN" "http://www.w3.org/Graphics/SVG/1.1/DTD/svg11.dtd" >
<svg xmlns="http://www.w3.org/2000/svg" xmlns:xlink="http://www.w3.org/1999/xlink" version="1.1">
<metadata>
Created by FontForge 20170731 at Thu Oct 26 18:32:06 2017
 By Aleksey,,,
Copyright 2017 The Barlow Project Authors (https://github.com/jpt/barlow)
</metadata>
<defs>
<font id="BarlowSemiCondensed-Bold" horiz-adv-x="0" >
  <font-face 
    font-family="Barlow Semi Condensed"
    font-weight="700"
    font-stretch="semi-condensed"
    units-per-em="1000"
    panose-1="0 0 8 6 0 0 0 0 0 0"
    ascent="800"
    descent="-200"
    x-height="514"
    cap-height="700"
    bbox="-558 -210 1080 981"
    underline-thickness="50"
    underline-position="-150"
    unicode-range="U+000D-25CA"
  />
<missing-glyph horiz-adv-x="439" 
d="M5 0h429q5 0 5 5v690q0 5 -5 5h-429q-5 0 -5 -5v-690q0 -5 5 -5zM165.5 253.5q-3.5 3.5 -3.5 8.5v19q0 36 16 57.5t48 46.5q26 20 38 34.5t12 35.5q0 23 -14 37t-38 14q-25 0 -40 -15t-15 -39v-8q0 -11 -12 -11l-77 3q-5 0 -8.5 2.5t-3.5 6.5v7q0 65 44 105.5t115 40.5
q68 0 109.5 -38.5t41.5 -100.5q0 -45 -19 -71.5t-52 -50.5q-23 -17 -34 -30t-11 -32v-13q0 -5 -3.5 -8.5t-8.5 -3.5h-76q-5 0 -8.5 3.5zM175 106.5q-17 16.5 -17 40.5q0 23 17.5 40t40.5 17q24 0 41.5 -17t17.5 -40q0 -24 -17.5 -40.5t-41.5 -16.5t-41 16.5z" />
    <glyph glyph-name="I_J.liga" unicode="IJ" horiz-adv-x="767" 
d="M56.5 3.5q-3.5 3.5 -3.5 8.5v676q0 5 3.5 8.5t8.5 3.5h117q5 0 8.5 -3.5t3.5 -8.5v-676q0 -5 -3.5 -8.5t-8.5 -3.5h-117q-5 0 -8.5 3.5zM370 18q-51 26 -79.5 73t-28.5 109v54q0 5 3.5 8.5t8.5 3.5h117q5 0 8.5 -3.5t3.5 -8.5v-55q0 -38 23.5 -62t61.5 -24t62 24t24 62
v489q0 5 3.5 8.5t8.5 3.5h116q5 0 8.5 -3.5t3.5 -8.5v-488q0 -62 -28.5 -109t-79.5 -73t-118 -26t-118 26z" />
    <glyph glyph-name="f_f_i.liga" unicode="ffi" horiz-adv-x="882" 
d="M699.5 585.5q-23.5 23.5 -23.5 60.5t23.5 60t60.5 23q38 0 61 -23t23 -60q0 -38 -23 -61t-61 -23q-37 0 -60.5 23.5zM523 519q0 -5 5 -5h77q5 0 8.5 -3.5t3.5 -8.5v-82q0 -5 -3.5 -8.5t-8.5 -3.5h-77q-5 0 -5 -5v-391q0 -5 -3.5 -8.5t-8.5 -3.5h-117q-5 0 -8.5 3.5
t-3.5 8.5v391q0 5 -5 5h-149q-5 0 -5 -5v-391q0 -5 -3.5 -8.5t-8.5 -3.5h-117q-5 0 -8.5 3.5t-3.5 8.5v391q0 5 -5 5h-43q-5 0 -8.5 3.5t-3.5 8.5v82q0 5 3.5 8.5t8.5 3.5h43q5 0 5 5v34q0 85 46 119t149 29h19q5 0 8.5 -3.5t3.5 -8.5v-71q0 -5 -3.5 -8.5t-8.5 -3.5h-19
q-30 -1 -42 -17.5t-12 -47.5v-22q0 -5 5 -5h149q5 0 5 5v34q0 84 46.5 118.5t149.5 29.5h19q5 0 8.5 -3.5t3.5 -8.5v-71q0 -5 -3.5 -8.5t-8.5 -3.5h-19q-30 -1 -42.5 -17.5t-12.5 -47.5v-22zM693.5 3.5q-3.5 3.5 -3.5 8.5v490q0 5 3.5 8.5t8.5 3.5h117q5 0 8.5 -3.5
t3.5 -8.5v-490q0 -5 -3.5 -8.5t-8.5 -3.5h-117q-5 0 -8.5 3.5z" />
    <glyph glyph-name="f_f_l.liga" unicode="ffl" horiz-adv-x="869" 
d="M526 519q0 -5 5 -5h77q5 0 8.5 -3.5t3.5 -8.5v-82q0 -5 -3.5 -8.5t-8.5 -3.5h-77q-5 0 -5 -5v-391q0 -5 -3.5 -8.5t-8.5 -3.5h-117q-5 0 -8.5 3.5t-3.5 8.5v391q0 5 -5 5h-152q-5 0 -5 -5v-391q0 -5 -3.5 -8.5t-8.5 -3.5h-117q-5 0 -8.5 3.5t-3.5 8.5v391q0 5 -5 5h-43
q-5 0 -8.5 3.5t-3.5 8.5v82q0 5 3.5 8.5t8.5 3.5h43q5 0 5 5v34q0 85 46 119t149 29h19q5 0 8.5 -3.5t3.5 -8.5v-71q0 -5 -3.5 -8.5t-8.5 -3.5h-19q-30 -1 -42 -17.5t-12 -47.5v-22q0 -5 5 -5h152q5 0 5 5v34q0 85 46 119t149 29h19q5 0 8.5 -3.5t3.5 -8.5v-71
q0 -5 -3.5 -8.5t-8.5 -3.5h-19q-29 -1 -41.5 -17.5t-12.5 -47.5v-22zM687.5 696.5q3.5 3.5 8.5 3.5h117q5 0 8.5 -3.5t3.5 -8.5v-676q0 -5 -3.5 -8.5t-8.5 -3.5h-117q-5 0 -8.5 3.5t-3.5 8.5v676q0 5 3.5 8.5z" />
    <glyph glyph-name="f_i.liga" unicode="fi" horiz-adv-x="586" 
d="M313.5 510.5q3.5 -3.5 3.5 -8.5v-85q0 -5 -3.5 -8.5t-8.5 -3.5h-76q-5 0 -5 -5v-388q0 -5 -3.5 -8.5t-8.5 -3.5h-117q-5 0 -8.5 3.5t-3.5 8.5v388q0 5 -5 5h-44q-5 0 -8.5 3.5t-3.5 8.5v85q0 5 3.5 8.5t8.5 3.5h44q5 0 5 5v25q0 61 20 96t62.5 49t112.5 12h20
q5 0 8.5 -3.5t3.5 -8.5v-80q0 -5 -3.5 -8.5t-8.5 -3.5h-18q-30 -1 -43 -15.5t-13 -47.5v-15q0 -5 5 -5h76q5 0 8.5 -3.5zM403.5 586.5q-23.5 23.5 -23.5 60.5t23.5 60t60.5 23t60.5 -23t23.5 -60t-23 -60.5t-61 -23.5q-37 0 -60.5 23.5zM396.5 3.5q-3.5 3.5 -3.5 8.5v490
q0 5 3.5 8.5t8.5 3.5h117q5 0 8.5 -3.5t3.5 -8.5v-490q0 -5 -3.5 -8.5t-8.5 -3.5h-117q-5 0 -8.5 3.5z" />
    <glyph glyph-name="f_l.liga" unicode="fl" horiz-adv-x="571" 
d="M313.5 510.5q3.5 -3.5 3.5 -8.5v-85q0 -5 -3.5 -8.5t-8.5 -3.5h-76q-5 0 -5 -5v-388q0 -5 -3.5 -8.5t-8.5 -3.5h-117q-5 0 -8.5 3.5t-3.5 8.5v388q0 5 -5 5h-44q-5 0 -8.5 3.5t-3.5 8.5v85q0 5 3.5 8.5t8.5 3.5h44q5 0 5 5v25q0 61 20 96t62.5 49t112.5 12h20
q5 0 8.5 -3.5t3.5 -8.5v-80q0 -5 -3.5 -8.5t-8.5 -3.5h-18q-30 -1 -43 -15.5t-13 -47.5v-15q0 -5 5 -5h76q5 0 8.5 -3.5zM389.5 3.5q-3.5 3.5 -3.5 8.5v676q0 5 3.5 8.5t8.5 3.5h117q5 0 8.5 -3.5t3.5 -8.5v-676q0 -5 -3.5 -8.5t-8.5 -3.5h-117q-5 0 -8.5 3.5z" />
    <glyph glyph-name="g_j.liga" unicode="gj" horiz-adv-x="725" 
d="M550 585.5q-23 23.5 -23 59.5q0 35 25 59.5t58 24.5q34 0 59 -24.5t25 -59.5q0 -36 -23.5 -59.5t-60.5 -23.5t-60 23.5zM453.5 510.5q3.5 -3.5 3.5 -8.5v-467q0 -120 -66.5 -178.5t-190.5 -58.5q-27 0 -57 3q-12 1 -12 13l3 101q0 11 13 11q15 -2 42 -2q67 0 97 28.5
t30 90.5v0q0 3 -2 4t-4 -2q-37 -43 -102 -43t-110 38t-57 113q-7 26 -7 106t9 112q11 71 53 111t109 40q66 0 105 -45q2 -3 4 -2t2 4v23q0 5 3.5 8.5t8.5 3.5h117q5 0 8.5 -3.5zM540 502q0 5 3.5 8.5t8.5 3.5h117q5 0 8.5 -3.5t3.5 -8.5v-503q0 -106 -43 -153.5t-148 -47.5
l-27 1q-13 2 -10 14l19 91q1 8 8 10h5q29 1 42 21.5t13 62.5v504zM316 259q0 51 -4 83q-5 27 -22 43t-43 16q-25 0 -42.5 -16.5t-22.5 -42.5q-6 -36 -6 -83q0 -44 5 -81q5 -27 22.5 -43t44.5 -16q26 0 43 16t21 42q4 32 4 82z" />
    <glyph glyph-name="i_j.liga" unicode="ij" horiz-adv-x="468" 
d="M61.5 586.5q-23.5 23.5 -23.5 60.5t23.5 60t60.5 23t60.5 -23t23.5 -60t-23 -60.5t-61 -23.5q-37 0 -60.5 23.5zM54.5 3.5q-3.5 3.5 -3.5 8.5v490q0 5 3.5 8.5t8.5 3.5h117q5 0 8.5 -3.5t3.5 -8.5v-490q0 -5 -3.5 -8.5t-8.5 -3.5h-117q-5 0 -8.5 3.5zM292.5 586
q-23.5 24 -23.5 60q0 35 25 59t59 24q33 0 58.5 -24.5t25.5 -58.5q0 -36 -24 -60t-60 -24q-37 0 -60.5 24zM176 -192v96q0 13 13 11q52 -1 72.5 19t20.5 65v503q0 5 3.5 8.5t8.5 3.5h117q5 0 8.5 -3.5t3.5 -8.5v-502q0 -77 -18 -120.5t-68.5 -64t-148.5 -19.5q-12 0 -12 12z
" />
    <glyph glyph-name="hyphen_hyphen.liga" unicode="&#x2d;&#x2d;" horiz-adv-x="626" 
d="M29.5 235.5q-3.5 3.5 -3.5 8.5v97q0 5 3.5 8.5t8.5 3.5h550q5 0 8.5 -3.5t3.5 -8.5v-97q0 -5 -3.5 -8.5t-8.5 -3.5h-550q-5 0 -8.5 3.5z" />
    <glyph glyph-name=".notdef" horiz-adv-x="439" 
d="M5 0h429q5 0 5 5v690q0 5 -5 5h-429q-5 0 -5 -5v-690q0 -5 5 -5zM165.5 253.5q-3.5 3.5 -3.5 8.5v19q0 36 16 57.5t48 46.5q26 20 38 34.5t12 35.5q0 23 -14 37t-38 14q-25 0 -40 -15t-15 -39v-8q0 -11 -12 -11l-77 3q-5 0 -8.5 2.5t-3.5 6.5v7q0 65 44 105.5t115 40.5
q68 0 109.5 -38.5t41.5 -100.5q0 -45 -19 -71.5t-52 -50.5q-23 -17 -34 -30t-11 -32v-13q0 -5 -3.5 -8.5t-8.5 -3.5h-76q-5 0 -8.5 3.5zM175 106.5q-17 16.5 -17 40.5q0 23 17.5 40t40.5 17q24 0 41.5 -17t17.5 -40q0 -24 -17.5 -40.5t-41.5 -16.5t-41 16.5z" />
    <glyph glyph-name=".null" 
 />
    <glyph glyph-name="nonmarkingreturn" unicode="&#xd;" horiz-adv-x="200" 
 />
    <glyph glyph-name="space" unicode=" " horiz-adv-x="200" 
 />
    <glyph glyph-name="exclam" unicode="!" horiz-adv-x="315" 
d="M104.5 243.5q-3.5 3.5 -3.5 8.5l-14 436q0 5 3.5 8.5t8.5 3.5h117q5 0 8.5 -3.5t3.5 -8.5l-15 -436q0 -5 -3.5 -8.5t-8.5 -3.5h-88q-5 0 -8.5 3.5zM93 26q-25 25 -25 62q0 35 27 60.5t61 25.5t61 -25.5t27 -60.5q0 -36 -25 -61.5t-63 -25.5t-63 25z" />
    <glyph glyph-name="quotedbl" unicode="&#x22;" horiz-adv-x="352" 
d="M32 474.5q-4 3.5 -4 8.5l-13 203q0 12 11 12h111q13 0 11 -12l-13 -203q0 -6 -3.5 -9t-9.5 -3h-81q-5 0 -9 3.5zM222 474.5q-4 3.5 -4 8.5l-13 203q0 12 11 12h111q13 0 11 -12l-13 -203q0 -6 -3.5 -9t-9.5 -3h-81q-5 0 -9 3.5z" />
    <glyph glyph-name="numbersign" unicode="#" horiz-adv-x="651" 
d="M607.5 407.5q-3.5 -3.5 -8.5 -3.5h-68q-6 0 -6 -5l-15 -99q0 -5 4 -5h49q5 0 8.5 -3.5t3.5 -8.5v-96q0 -5 -3.5 -8.5t-8.5 -3.5h-67q-6 0 -6 -5l-19 -132q-1 -11 -13 -11h-117q-12 0 -11 13l19 130q0 5 -4 5h-92q-6 0 -6 -5l-19 -132q-1 -11 -13 -11h-117q-12 0 -11 13
l19 130q0 5 -4 5h-49q-5 0 -8.5 3.5t-3.5 8.5v96q0 5 3.5 8.5t8.5 3.5h68q6 0 6 5l14 99q0 5 -4 5h-49q-5 0 -8.5 3.5t-3.5 8.5v97q0 5 3.5 8.5t8.5 3.5h68q6 0 6 5l19 132q1 11 13 11h117q12 0 11 -13l-19 -130q0 -5 4 -5h91q6 0 6 5l19 132q1 11 13 11h117q12 0 11 -13
l-19 -130q0 -5 4 -5h50q5 0 8.5 -3.5t3.5 -8.5v-97q0 -5 -3.5 -8.5zM369 300l15 99q0 5 -4 5h-92q-6 0 -6 -5l-14 -99q0 -5 4 -5h91q6 0 6 5z" />
    <glyph glyph-name="dollar" unicode="$" horiz-adv-x="500" 
d="M422.5 59q-45.5 -52 -125.5 -63q-5 -2 -5 -6l1 -52q0 -5 -3.5 -8.5t-8.5 -3.5h-68q-5 0 -8.5 3.5t-3.5 8.5l2 53q0 4 -5 6q-75 13 -117.5 60t-42.5 118v40q0 5 3.5 8.5t8.5 3.5h115q5 0 8.5 -3.5t3.5 -8.5v-20q0 -36 21 -59t57 -23q35 0 54.5 20.5t19.5 51.5
q0 26 -20.5 43.5t-66.5 41.5t-75 44q-62 42 -96.5 87t-34.5 113q0 76 43 126t118 63q5 2 5 6l-1 61q0 5 3.5 8.5t8.5 3.5h66q5 0 8.5 -3.5t3.5 -8.5l-1 -59q0 -4 5 -6q79 -11 124 -61.5t45 -127.5v-31q0 -5 -3.5 -8.5t-8.5 -3.5h-115q-5 0 -8.5 3.5t-3.5 8.5v18
q0 36 -20.5 60t-57.5 24q-32 0 -52 -19t-20 -51q0 -29 20.5 -46.5t71.5 -44.5q9 -5 21 -11.5t26 -14.5q82 -48 118 -94.5t36 -114.5q0 -80 -45.5 -132z" />
    <glyph glyph-name="percent" unicode="%" horiz-adv-x="795" 
d="M131 414q-36 21 -57 57.5t-21 79.5t21 79t57 57.5t79 21.5t79 -21.5t57 -57.5t21 -79t-21 -79.5t-57 -57.5t-79 -21t-79 21zM161 4q-2 4 1 10l370 678q5 8 15 8h75q7 0 9 -4t-1 -10l-370 -678q-5 -8 -15 -8h-75q-7 0 -9 4zM268 491q24 25 24 60t-24 59.5t-58 24.5
t-58 -24.5t-24 -59.5q0 -36 23.5 -60.5t58.5 -24.5q34 0 58 25zM510 12.5q-36 21.5 -57 58t-21 79.5t21 79t57 57t79 21t79 -21t57 -57t21 -79t-21 -79.5t-57 -58t-79 -21.5t-79 21.5zM647 90q24 25 24 60t-24 59.5t-58 24.5t-58 -24.5t-24 -59.5q0 -36 23.5 -60.5
t58.5 -24.5q34 0 58 25z" />
    <glyph glyph-name="ampersand" unicode="&#x26;" horiz-adv-x="655" 
d="M616 7q0 -7 -11 -7h-129q-9 0 -15 7l-16 18l-16 18q-3 4 -7 1q-84 -53 -182 -53q-92 0 -148.5 45t-56.5 132q0 66 31.5 111.5t86.5 83.5q3 3 1 7q-47 61 -62 91.5t-15 64.5q0 82 53 132t141 50q58 0 104 -23t72 -64.5t26 -95.5q0 -62 -32.5 -105.5t-89.5 -79.5
q-3 -3 -1 -7l85 -101q2 -4 7 1q32 40 51 74q3 5 7.5 6.5t9.5 -1.5l87 -49q10 -7 4 -17q-39 -66 -79 -114q-3 -3 0 -6l35 -43l55 -68q4 -6 4 -8zM233.5 564.5q-15.5 -15.5 -15.5 -41.5q0 -16 8.5 -32t37.5 -54q3 -4 7 -1q30 21 45.5 41.5t15.5 45.5q0 26 -16 41.5t-41 15.5
q-26 0 -41.5 -15.5zM339 140q5 4 2 7l-41 48q-29 33 -59 70q-3 4 -7 1q-28 -22 -43 -43t-15 -47q0 -29 19.5 -47.5t53.5 -18.5q40 0 90 30z" />
    <glyph glyph-name="quotesingle" unicode="'" horiz-adv-x="169" 
d="M32 476.5q-4 3.5 -4 8.5l-13 202q0 12 11 12h118q13 0 11 -12l-13 -202q0 -6 -3.5 -9t-9.5 -3h-88q-5 0 -9 3.5z" />
    <glyph glyph-name="parenleft" unicode="(" horiz-adv-x="329" 
d="M120 -84q-54 76 -87 181t-33 235q0 131 33 237.5t88 182.5q4 7 14 7h114q7 0 9.5 -4t-0.5 -10q-100 -192 -100 -412q0 -218 99 -410q2 -4 2 -7q0 -7 -10 -7h-115q-10 0 -14 7z" />
    <glyph glyph-name="parenright" unicode=")" horiz-adv-x="329" 
d="M195 -91h-115q-7 0 -9.5 4t1.5 10q99 192 99 410q0 220 -100 412q-2 4 -2 6q0 8 11 8h114q10 0 14 -7q55 -76 88 -182.5t33 -237.5q0 -130 -33 -235t-87 -181q-4 -7 -14 -7z" />
    <glyph glyph-name="asterisk" unicode="*" horiz-adv-x="380" 
d="M153.5 397.5q-3.5 3.5 -3.5 8.5l1 87q0 3 -2 4t-4 -1l-78 -46q-4 -2 -6 -2q-7 0 -11 7l-28 51q-2 4 -2 7q0 6 6 10l82 45q5 3 0 6l-81 43q-5 2 -6.5 7t1.5 10l28 52q3 5 7.5 6.5t9.5 -1.5l78 -46q2 -2 4 -1t2 4l-1 86q0 5 3.5 8.5t8.5 3.5h56q5 0 8.5 -3.5t3.5 -8.5v-86
q0 -3 2 -4t4 1l77 46q4 2 6 2q7 0 11 -7l28 -52q2 -4 2 -7q0 -7 -7 -10l-81 -43q-5 -3 0 -6l82 -45q5 -3 6 -8t-2 -9l-28 -52q-3 -5 -7.5 -6.5t-9.5 1.5l-77 47q-2 2 -4 1t-2 -4v-87q0 -5 -3.5 -8.5t-8.5 -3.5h-56q-5 0 -8.5 3.5z" />
    <glyph glyph-name="plus" unicode="+" horiz-adv-x="462" 
d="M432.5 358.5q3.5 -3.5 3.5 -8.5v-89q0 -5 -3.5 -8.5t-8.5 -3.5h-131q-5 0 -5 -5v-130q0 -5 -3.5 -8.5t-8.5 -3.5h-90q-5 0 -8.5 3.5t-3.5 8.5v130q0 5 -5 5h-131q-5 0 -8.5 3.5t-3.5 8.5v89q0 5 3.5 8.5t8.5 3.5h131q5 0 5 5v132q0 5 3.5 8.5t8.5 3.5h90q5 0 8.5 -3.5
t3.5 -8.5v-132q0 -5 5 -5h131q5 0 8.5 -3.5z" />
    <glyph glyph-name="comma" unicode="," horiz-adv-x="238" 
d="M36 -85l28 232q1 11 12 11h101q14 0 11 -13l-57 -233q-3 -10 -14 -10h-70q-13 0 -11 13z" />
    <glyph glyph-name="hyphen" unicode="-" horiz-adv-x="370" 
d="M29.5 238.5q-3.5 3.5 -3.5 8.5v97q0 5 3.5 8.5t8.5 3.5h294q5 0 8.5 -3.5t3.5 -8.5v-97q0 -5 -3.5 -8.5t-8.5 -3.5h-294q-5 0 -8.5 3.5z" />
    <glyph glyph-name="period" unicode="." horiz-adv-x="268" 
d="M68 21.5q-25 25.5 -25 61.5q0 35 27 60.5t61 25.5q35 0 62 -25.5t27 -60.5q0 -36 -25 -61.5t-64 -25.5q-38 0 -63 25.5z" />
    <glyph glyph-name="slash" unicode="/" horiz-adv-x="420" 
d="M22 3.5q-3 3.5 -1 10.5l239 676q3 10 13 10h115q6 0 9 -3.5t1 -10.5l-238 -676q-3 -10 -13 -10h-116q-6 0 -9 3.5z" />
    <glyph glyph-name="zero" unicode="0" horiz-adv-x="505" 
d="M94 47.5q-59 58.5 -59 157.5v290q0 98 59 156.5t158 58.5t158.5 -58.5t59.5 -156.5v-290q0 -99 -59.5 -157.5t-158.5 -58.5t-158 58.5zM308 133.5q21 23.5 21 63.5v305q0 40 -21 63t-56 23t-55.5 -23t-20.5 -63v-305q0 -40 20.5 -63.5t55.5 -23.5t56 23.5z" />
    <glyph glyph-name="one" unicode="1" horiz-adv-x="307" 
d="M129 700h121q5 0 8.5 -3.5t3.5 -8.5v-676q0 -5 -3.5 -8.5t-8.5 -3.5h-117q-5 0 -8.5 3.5t-3.5 8.5v551q0 2 -1.5 4t-3.5 1l-82 -16l-4 -1q-9 0 -9 11v85q0 10 9 14l84 36q8 3 15 3z" />
    <glyph glyph-name="two" unicode="2" horiz-adv-x="499" 
d="M39.5 3.5q-3.5 3.5 -3.5 8.5v97q0 8 6 14q121 139 201 241q72 93 72 147q0 35 -19 55.5t-51 20.5q-31 0 -50.5 -20.5t-19.5 -53.5v-33q0 -5 -3.5 -8.5t-8.5 -3.5h-119q-5 0 -8.5 3.5t-3.5 8.5v47q5 82 65 131.5t151 49.5q63 0 110.5 -25t73.5 -70t26 -101
q0 -47 -19 -92.5t-58 -97.5q-29 -39 -69 -86.5t-80 -92.5l-14 -16q-2 -2 -1 -4t4 -2h237q5 0 8.5 -3.5t3.5 -8.5v-97q0 -5 -3.5 -8.5t-8.5 -3.5h-410q-5 0 -8.5 3.5z" />
    <glyph glyph-name="three" unicode="3" horiz-adv-x="499" 
d="M462 225q0 -60 -20 -108q-21 -59 -72.5 -92t-123.5 -33q-82 0 -138.5 42t-70.5 112q-7 26 -9 68q0 12 12 12h117q12 0 12 -12q2 -25 6 -42q6 -27 25 -43t46 -16q26 0 44.5 15t25.5 40q8 30 8 66q0 38 -8 67q-8 27 -26.5 42t-43.5 15q-19 0 -40 -15q-3 -2 -7 -2
q-6 0 -10 4l-59 66q-4 4 -4 9q0 4 4 8l149 145q2 2 1 4t-4 2h-223q-5 0 -8.5 3.5t-3.5 8.5v97q0 5 3.5 8.5t8.5 3.5h391q5 0 8.5 -3.5t3.5 -8.5v-100q0 -7 -6 -15l-124 -131q-4 -4 2 -6q44 -7 75.5 -36.5t44.5 -75.5q14 -44 14 -99z" />
    <glyph glyph-name="four" unicode="4" horiz-adv-x="542" 
d="M507.5 301.5q3.5 -3.5 3.5 -8.5v-103q0 -5 -3.5 -8.5t-8.5 -3.5h-36q-5 0 -5 -5v-161q0 -5 -3.5 -8.5t-8.5 -3.5h-117q-5 0 -8.5 3.5t-3.5 8.5v161q0 5 -5 5h-277q-5 0 -8.5 3.5t-3.5 8.5v81q0 6 3 15l157 405q3 9 14 9h125q15 0 10 -14l-144 -375q-1 -6 4 -6h120
q5 0 5 5v114q0 5 3.5 8.5t8.5 3.5h117q5 0 8.5 -3.5t3.5 -8.5v-114q0 -5 5 -5h36q5 0 8.5 -3.5z" />
    <glyph glyph-name="five" unicode="5" horiz-adv-x="488" 
d="M461 221q0 -73 -31 -129q-25 -48 -71.5 -73.5t-110.5 -25.5q-78 0 -131 38t-71 109q-7 21 -8 43v2q0 10 11 10h119q12 0 13 -12q2 -12 4 -16q7 -26 23 -39.5t40 -13.5t41 14.5t22 39.5q7 21 7 52q0 32 -7 56t-23 36t-40 12q-47 0 -64 -39q-3 -10 -13 -10h-121
q-5 0 -8.5 3.5t-3.5 8.5v401q0 5 3.5 8.5t8.5 3.5h382q5 0 8.5 -3.5t3.5 -8.5v-97q0 -5 -3.5 -8.5t-8.5 -3.5h-248q-5 0 -5 -5l-1 -156q0 -4 2 -4.5t4 1.5q40 31 96 31q51 0 88.5 -21t59.5 -62q33 -60 33 -142z" />
    <glyph glyph-name="six" unicode="6" horiz-adv-x="488" 
d="M461 221q0 -69 -28 -119q-22 -53 -69 -81t-115 -28q-65 0 -112 27.5t-70 79.5q0 1 -0.5 2.5t-2.5 3.5q-26 44 -26 109l-1 313q0 82 57 131t151 49q90 0 146 -49t56 -130v-29q0 -5 -3.5 -8.5t-8.5 -3.5h-117q-5 0 -8.5 3.5t-3.5 8.5v15q0 31 -17.5 50.5t-43.5 19.5
q-29 0 -47.5 -20t-18.5 -51v-98q0 -3 2 -3.5t4 1.5q36 33 91 33q53 0 92 -25.5t59 -70.5q34 -54 34 -130zM318 224q0 40 -10 67q-16 42 -60 42q-43 0 -59 -42q-10 -25 -10 -68q0 -34 7 -59q14 -50 62 -50q47 0 63 51q7 27 7 59z" />
    <glyph glyph-name="seven" unicode="7" horiz-adv-x="451" 
d="M99.5 3.5q-2.5 3.5 -0.5 10.5l190 559q2 6 -4 6h-149q-5 0 -5 -5v-40q0 -5 -3.5 -8.5t-8.5 -3.5h-91q-5 0 -8.5 3.5t-3.5 8.5l1 154q0 5 3.5 8.5t8.5 3.5h398q5 0 8.5 -3.5t3.5 -8.5v-101q0 -9 -2 -15l-191 -562q-3 -10 -13 -10h-125q-6 0 -8.5 3.5z" />
    <glyph glyph-name="eight" unicode="8" horiz-adv-x="491" 
d="M456 203q0 -54 -20 -97q-24 -53 -74 -83.5t-118 -30.5q-66 0 -116 30t-75 85q-19 42 -19 97q0 58 20 101q17 37 51 60q5 3 0 6q-32 22 -48 55q-21 39 -21 92q0 60 25 101q26 44 74 69t110 25q66 0 115 -26t74 -77q21 -42 21 -93q0 -50 -22 -89q-19 -34 -50 -55
q-4 -4 0 -7q35 -22 52 -60q21 -47 21 -103zM175 503q0 -30 10 -50q7 -19 23 -30t37 -11t37.5 11.5t24.5 31.5q9 20 9 48q0 26 -8 45q-8 21 -24.5 32.5t-38.5 11.5t-38 -11.5t-24 -31.5q-8 -22 -8 -46zM316 215q0 28 -8 52q-8 23 -24 35.5t-39 12.5q-46 0 -62 -49
q-8 -24 -8 -51q0 -31 10 -58q8 -21 23.5 -33t36.5 -12t36.5 12t23.5 32q11 25 11 59z" />
    <glyph glyph-name="nine" unicode="9" horiz-adv-x="479" 
d="M442 172q0 -82 -57 -131t-151 -49q-90 0 -146 49t-56 130v29q0 5 3.5 8.5t8.5 3.5h117q5 0 8.5 -3.5t3.5 -8.5v-15q0 -31 17.5 -50.5t43.5 -19.5q29 0 47.5 20t18.5 51v98q0 3 -2 3.5t-4 -1.5q-36 -33 -91 -33q-53 0 -92 25.5t-59 70.5q-34 54 -34 130q0 69 28 119
q22 53 69 81t115 28q65 0 112 -27.5t70 -79.5l2 -5q27 -45 27 -110zM300 477q0 34 -7 59q-14 50 -62 50q-47 0 -63 -51q-7 -27 -7 -59q0 -40 10 -67q16 -42 60 -42q43 0 59 42q10 25 10 68z" />
    <glyph glyph-name="colon" unicode=":" horiz-adv-x="319" 
d="M98 356q-25 25 -25 62q0 35 27 60.5t61 25.5t61 -25.5t27 -60.5q0 -36 -25 -61.5t-63 -25.5t-63 25zM98 29q-25 25 -25 62q0 35 27 60.5t61 25.5t61 -25.5t27 -60.5q0 -36 -25 -61.5t-63 -25.5t-63 25z" />
    <glyph glyph-name="semicolon" unicode=";" horiz-adv-x="274" 
d="M75 338q-25 25 -25 62q0 35 27 60.5t61 25.5t61 -25.5t27 -60.5q0 -36 -25 -61.5t-63 -25.5t-63 25zM58.5 -93.5q-3.5 3.5 -2.5 9.5l21 229q2 11 12 11h102q14 0 11 -13l-51 -229q-2 -11 -13 -11h-70q-6 0 -9.5 3.5z" />
    <glyph glyph-name="less" unicode="&#x3c;" horiz-adv-x="462" 
d="M432 41.5q-4 -2.5 -10 0.5l-387 175q-9 5 -9 14v101q0 10 9 14l387 175q4 2 6 2q8 0 8 -11v-110q0 -9 -9 -14l-254 -104q-6 -3 0 -6l254 -103q9 -4 9 -14v-110q0 -7 -4 -9.5z" />
    <glyph glyph-name="equal" unicode="=" horiz-adv-x="462" 
d="M29.5 346.5q-3.5 3.5 -3.5 8.5v89q0 5 3.5 8.5t8.5 3.5h386q5 0 8.5 -3.5t3.5 -8.5v-89q0 -5 -3.5 -8.5t-8.5 -3.5h-386q-5 0 -8.5 3.5zM29.5 158.5q-3.5 3.5 -3.5 8.5v89q0 5 3.5 8.5t8.5 3.5h386q5 0 8.5 -3.5t3.5 -8.5v-89q0 -5 -3.5 -8.5t-8.5 -3.5h-386
q-5 0 -8.5 3.5z" />
    <glyph glyph-name="greater" unicode="&#x3e;" horiz-adv-x="462" 
d="M34 40q-8 0 -8 11v110q0 10 9 14l254 103q6 3 0 6l-254 104q-9 5 -9 14v110q0 7 4 9.5t10 -0.5l387 -175q9 -4 9 -14v-101q0 -9 -9 -14l-387 -175q-4 -2 -6 -2z" />
    <glyph glyph-name="question" unicode="?" horiz-adv-x="479" 
d="M157.5 225.5q-3.5 3.5 -3.5 8.5v32q0 50 23 81t67 64q35 27 52 48t17 51q0 32 -19.5 51.5t-52.5 19.5q-35 0 -56 -20.5t-21 -54.5v-16q0 -11 -12 -11l-117 5q-12 0 -12 11v11q0 60 28 106.5t78.5 72t115.5 25.5q96 0 153.5 -53.5t57.5 -141.5q0 -44 -14 -75.5t-34 -51.5
t-51 -44q-33 -25 -48 -43t-15 -44v-23q0 -5 -3.5 -8.5t-8.5 -3.5h-116q-5 0 -8.5 3.5zM172.5 21.5q-23.5 23.5 -23.5 56.5t24 56.5t57 23.5t57.5 -23.5t24.5 -56.5t-24 -56.5t-58 -23.5t-57.5 23.5z" />
    <glyph glyph-name="at" unicode="@" horiz-adv-x="786" 
d="M600.5 619q71.5 -37 111 -104.5t39.5 -156.5q0 -26 -3 -53q-13 -99 -63 -153.5t-129 -54.5q-70 0 -105 40q-4 3 -7 0q-35 -40 -103 -40q-49 0 -79.5 28.5t-33.5 78.5q-2 22 4 81q6 41 15 71q14 53 46.5 81.5t79.5 28.5q43 0 68 -24q2 -1 4 -0.5t2 2.5l1 6q1 11 12 11h71
q12 0 11 -13l-24 -179q-1 -6 -1 -17q0 -31 13.5 -48.5t37.5 -17.5q32 0 52.5 32t27.5 86q3 24 3 46q0 104 -59.5 161.5t-162.5 57.5q-74 0 -138.5 -36.5t-106.5 -102.5t-51 -151q-3 -22 -3 -43q0 -71 29 -123t78 -79t109 -27q44 0 80.5 11.5t60.5 28.5q3 2 8 2q7 0 9 -5
l35 -50q3 -5 3 -8q0 -6 -5 -9q-38 -27 -92 -43.5t-114 -16.5q-85 0 -152 39.5t-105.5 111t-38.5 164.5q0 26 3 53q13 110 70 194.5t143.5 130.5t185.5 46q92 0 163.5 -37zM394.5 188.5q13.5 11.5 18.5 30.5q8 29 12 62q2 20 3 37.5t1 24.5q0 19 -10.5 30t-29.5 11
q-18 0 -32 -11.5t-19 -29.5q-8 -25 -12 -64q-4 -28 -4 -50q0 -25 10.5 -38.5t30.5 -13.5q18 0 31.5 11.5z" />
    <glyph glyph-name="A" unicode="A" horiz-adv-x="586" 
d="M414 10l-23 98q-1 4 -5 4h-187q-4 0 -5 -4l-23 -98q-3 -10 -14 -10h-121q-13 0 -10 13l180 677q3 10 14 10h145q11 0 14 -10l181 -677l1 -4q0 -9 -11 -9h-123q-10 0 -13 10zM223 222.5q2 -1.5 4 -1.5h132q2 0 4 1.5t1 4.5l-67 284q-1 4 -3 3.5t-3 -3.5l-69 -284
q-1 -3 1 -4.5z" />
    <glyph glyph-name="B" unicode="B" horiz-adv-x="545" 
d="M447.5 49.5q-61.5 -49.5 -158.5 -49.5h-224q-5 0 -8.5 3.5t-3.5 8.5v676q0 5 3.5 8.5t8.5 3.5h209q107 0 166 -47.5t59 -144.5q0 -99 -77 -143q-5 -3 -1 -6q88 -50 88 -165q0 -95 -61.5 -144.5zM194 574v-157q0 -5 5 -5h76q40 0 63 22t23 61q0 40 -22.5 62t-63.5 22h-76
q-5 0 -5 -5zM345.5 145.5q22.5 23.5 22.5 66.5t-22.5 67.5t-62.5 24.5h-84q-5 0 -5 -5v-172q0 -5 5 -5h84q40 0 62.5 23.5z" />
    <glyph glyph-name="C" unicode="C" horiz-adv-x="536" 
d="M150 19q-52 27 -80.5 77t-28.5 116v278q0 65 28.5 114.5t80.5 76.5t120 27t120 -26.5t80.5 -74.5t28.5 -112v-5q0 -5 -3.5 -9t-8.5 -4l-117 -5q-12 0 -12 11v13q0 41 -24 66t-64 25t-64 -25t-24 -66v-293q0 -41 24 -65.5t64 -24.5t64 24.5t24 65.5v13q0 11 12 11l117 -5
q12 0 12 -7v-8q0 -64 -28.5 -113t-80.5 -75.5t-120 -26.5t-120 27z" />
    <glyph glyph-name="D" unicode="D" horiz-adv-x="547" 
d="M56.5 3.5q-3.5 3.5 -3.5 8.5v676q0 5 3.5 8.5t8.5 3.5h215q67 0 118.5 -25t79.5 -71t28 -107v-294q0 -61 -28 -107t-79.5 -71t-118.5 -25h-215q-5 0 -8.5 3.5zM199 121l82 1q37 0 60 26.5t24 70.5v262q0 45 -23 71.5t-61 26.5h-82q-5 0 -5 -5v-448q0 -5 5 -5z" />
    <glyph glyph-name="E" unicode="E" horiz-adv-x="511" 
d="M475.5 582.5q-3.5 -3.5 -8.5 -3.5h-268q-5 0 -5 -5v-156q0 -5 5 -5h167q5 0 8.5 -3.5t3.5 -8.5v-97q0 -5 -3.5 -8.5t-8.5 -3.5h-167q-5 0 -5 -5v-161q0 -5 5 -5h268q5 0 8.5 -3.5t3.5 -8.5v-97q0 -5 -3.5 -8.5t-8.5 -3.5h-402q-5 0 -8.5 3.5t-3.5 8.5v676q0 5 3.5 8.5
t8.5 3.5h402q5 0 8.5 -3.5t3.5 -8.5v-97q0 -5 -3.5 -8.5z" />
    <glyph glyph-name="F" unicode="F" horiz-adv-x="490" 
d="M474.5 582.5q-3.5 -3.5 -8.5 -3.5h-267q-5 0 -5 -5v-156q0 -5 5 -5h166q5 0 8.5 -3.5t3.5 -8.5v-97q0 -5 -3.5 -8.5t-8.5 -3.5h-166q-5 0 -5 -5v-275q0 -5 -3.5 -8.5t-8.5 -3.5h-117q-5 0 -8.5 3.5t-3.5 8.5v676q0 5 3.5 8.5t8.5 3.5h401q5 0 8.5 -3.5t3.5 -8.5v-97
q0 -5 -3.5 -8.5z" />
    <glyph glyph-name="G" unicode="G" horiz-adv-x="535" 
d="M150 19q-52 27 -80.5 76.5t-28.5 114.5v281q0 65 28.5 114t80.5 76t120 27q67 0 119.5 -26.5t81 -74t28.5 -107.5v-22q0 -5 -3.5 -8.5t-8.5 -3.5h-117q-5 0 -8.5 3.5t-3.5 8.5v21q0 38 -24 63t-64 25t-64.5 -26t-24.5 -68v-286q0 -42 25.5 -68t66.5 -26q39 0 62.5 23
t23.5 63v62q0 5 -5 5h-78q-5 0 -8.5 3.5t-3.5 8.5v91q0 5 3.5 8.5t8.5 3.5h211q5 0 8.5 -3.5t3.5 -8.5v-159q0 -100 -62.5 -159t-166.5 -59q-68 0 -120 27z" />
    <glyph glyph-name="H" unicode="H" horiz-adv-x="554" 
d="M367.5 696.5q3.5 3.5 8.5 3.5h117q5 0 8.5 -3.5t3.5 -8.5v-676q0 -5 -3.5 -8.5t-8.5 -3.5h-117q-5 0 -8.5 3.5t-3.5 8.5v274q0 5 -5 5h-160q-5 0 -5 -5v-274q0 -5 -3.5 -8.5t-8.5 -3.5h-117q-5 0 -8.5 3.5t-3.5 8.5v676q0 5 3.5 8.5t8.5 3.5h117q5 0 8.5 -3.5t3.5 -8.5
v-270q0 -5 5 -5h160q5 0 5 5v270q0 5 3.5 8.5z" />
    <glyph glyph-name="I" unicode="I" horiz-adv-x="246" 
d="M56.5 3.5q-3.5 3.5 -3.5 8.5v676q0 5 3.5 8.5t8.5 3.5h117q5 0 8.5 -3.5t3.5 -8.5v-676q0 -5 -3.5 -8.5t-8.5 -3.5h-117q-5 0 -8.5 3.5z" />
    <glyph glyph-name="J" unicode="J" horiz-adv-x="521" 
d="M124 18q-51 26 -79.5 73t-28.5 109v54q0 5 3.5 8.5t8.5 3.5h117q5 0 8.5 -3.5t3.5 -8.5v-55q0 -38 23.5 -62t61.5 -24t62 24t24 62v489q0 5 3.5 8.5t8.5 3.5h116q5 0 8.5 -3.5t3.5 -8.5v-488q0 -62 -28.5 -109t-79.5 -73t-118 -26t-118 26z" />
    <glyph glyph-name="K" unicode="K" horiz-adv-x="558" 
d="M56.5 3.5q-3.5 3.5 -3.5 8.5v676q0 5 3.5 8.5t8.5 3.5h117q5 0 8.5 -3.5t3.5 -8.5v-266q0 -3 2.5 -4t3.5 2l179 272q5 8 14 8h129q7 0 9.5 -4t-1.5 -10l-185 -287q-1 -3 0 -7l196 -378q2 -4 2 -6q0 -8 -11 -8h-128q-9 0 -14 9l-142 274q-1 3 -3 3t-4 -3l-45 -65
q-2 -4 -2 -6v-200q0 -5 -3.5 -8.5t-8.5 -3.5h-117q-5 0 -8.5 3.5z" />
    <glyph glyph-name="L" unicode="L" horiz-adv-x="499" 
d="M56.5 3.5q-3.5 3.5 -3.5 8.5v676q0 5 3.5 8.5t8.5 3.5h117q5 0 8.5 -3.5t3.5 -8.5v-562q0 -5 5 -5h268q5 0 8.5 -3.5t3.5 -8.5v-97q0 -5 -3.5 -8.5t-8.5 -3.5h-402q-5 0 -8.5 3.5z" />
    <glyph glyph-name="M" unicode="M" horiz-adv-x="624" 
d="M56.5 3.5q-3.5 3.5 -3.5 8.5v676q0 5 3.5 8.5t8.5 3.5h115q10 0 15 -8l114 -209q3 -4 6 0l115 209q5 8 15 8h115q5 0 8.5 -3.5t3.5 -8.5v-676q0 -5 -3.5 -8.5t-8.5 -3.5h-117q-5 0 -8.5 3.5t-3.5 8.5v434q0 4 -2 4t-4 -3l-81 -148q-5 -8 -15 -8h-34q-11 0 -15 8l-80 149
q-2 3 -4 2.5t-2 -4.5v-434q0 -5 -3.5 -8.5t-8.5 -3.5h-117q-5 0 -8.5 3.5z" />
    <glyph glyph-name="N" unicode="N" horiz-adv-x="586" 
d="M56.5 3.5q-3.5 3.5 -3.5 8.5v676q0 5 3.5 8.5t8.5 3.5h118q10 0 14 -9l192 -399q2 -3 4 -2.5t2 4.5l-1 394q0 5 3.5 8.5t8.5 3.5h116q5 0 8.5 -3.5t3.5 -8.5v-676q0 -5 -3.5 -8.5t-8.5 -3.5h-119q-9 0 -14 9l-192 402q-2 3 -4 2.5t-2 -4.5l2 -397q0 -5 -3.5 -8.5
t-8.5 -3.5h-116q-5 0 -8.5 3.5z" />
    <glyph glyph-name="O" unicode="O" horiz-adv-x="547" 
d="M151.5 19q-52.5 28 -81.5 79t-29 119v266q0 67 29 118t81.5 79t121.5 28t122 -28t82 -79t29 -118v-266q0 -68 -29 -119t-82 -79t-122 -28t-121.5 28zM340 139.5q25 27.5 25 71.5v276q0 45 -25 72.5t-67 27.5q-41 0 -66 -27.5t-25 -72.5v-276q0 -44 25 -71.5t66 -27.5
q42 0 67 27.5z" />
    <glyph glyph-name="P" unicode="P" horiz-adv-x="531" 
d="M410.5 674q46.5 -27 72 -76t25.5 -112q0 -62 -25.5 -109.5t-72 -73.5t-106.5 -26h-108q-5 0 -5 -5v-260q0 -5 -3.5 -8.5t-8.5 -3.5h-117q-5 0 -8.5 3.5t-3.5 8.5v677q0 5 3.5 8.5t8.5 3.5h242q60 0 106.5 -27zM343.5 414.5q23.5 25.5 23.5 68.5q0 44 -23.5 70t-62.5 26
h-85q-5 0 -5 -5v-180q0 -5 5 -5h85q39 0 62.5 25.5z" />
    <glyph glyph-name="Q" unicode="Q" horiz-adv-x="527" 
d="M381.5 679.5q51.5 -28.5 80 -80t28.5 -119.5v-265q0 -80 -40.5 -136.5t-111.5 -76.5q-4 -1 -4 -5v-83q0 -5 -3.5 -8.5t-8.5 -3.5h-117q-5 0 -8.5 3.5t-3.5 8.5v83q0 4 -4 5q-70 20 -110.5 76.5t-40.5 136.5v265q0 68 28 119.5t79 80t118 28.5t118.5 -28.5zM349 491
q0 43 -23.5 69.5t-62.5 26.5q-37 0 -60.5 -26.5t-23.5 -69.5v-282q0 -43 23.5 -69.5t60.5 -26.5q39 0 62.5 26.5t23.5 69.5v282z" />
    <glyph glyph-name="R" unicode="R" horiz-adv-x="543" 
d="M368 10l-101 276q-2 4 -5 4h-63q-5 0 -5 -5v-273q0 -5 -3.5 -8.5t-8.5 -3.5h-117q-5 0 -8.5 3.5t-3.5 8.5v677q0 5 3.5 8.5t8.5 3.5h244q59 0 105 -26.5t71 -74.5t25 -110q0 -64 -28.5 -111.5t-79.5 -70.5q-4 -2 -2 -7l114 -287q1 -2 1 -5q0 -9 -11 -9h-122q-11 0 -14 10
zM194 574v-170q0 -5 5 -5h87q37 0 60 24.5t23 64.5q0 42 -23 66.5t-60 24.5h-87q-5 0 -5 -5z" />
    <glyph glyph-name="S" unicode="S" horiz-adv-x="520" 
d="M143.5 16.5q-51.5 24.5 -79.5 69t-28 102.5v27q0 5 3.5 8.5t8.5 3.5h115q5 0 8.5 -3.5t3.5 -8.5v-20q0 -35 26 -58.5t68 -23.5q39 0 59.5 20t20.5 51q0 23 -13 39.5t-36.5 31t-72.5 39.5q-60 30 -98 56t-65 67t-27 99q0 88 60 140t158 52q67 0 119 -25.5t81 -71.5
t29 -106v-20q0 -5 -3.5 -8.5t-8.5 -3.5h-115q-5 0 -8.5 3.5t-3.5 8.5v18q0 36 -25 60t-67 24q-36 0 -56.5 -18.5t-20.5 -51.5q0 -23 12 -40t37 -32.5t75 -40.5l22 -12q58 -33 90.5 -56.5t54.5 -59t22 -86.5q0 -90 -62 -144t-164 -54q-68 0 -119.5 24.5z" />
    <glyph glyph-name="T" unicode="T" horiz-adv-x="526" 
d="M496.5 696.5q3.5 -3.5 3.5 -8.5v-98q0 -5 -3.5 -8.5t-8.5 -3.5h-152q-5 0 -5 -5v-561q0 -5 -3.5 -8.5t-8.5 -3.5h-117q-5 0 -8.5 3.5t-3.5 8.5v561q0 5 -5 5h-147q-5 0 -8.5 3.5t-3.5 8.5v98q0 5 3.5 8.5t8.5 3.5h450q5 0 8.5 -3.5z" />
    <glyph glyph-name="U" unicode="U" horiz-adv-x="554" 
d="M157 20q-52 28 -80.5 78.5t-28.5 116.5v473q0 5 3.5 8.5t8.5 3.5h117q5 0 8.5 -3.5t3.5 -8.5v-480q0 -43 24 -69t64 -26t64 26t24 69v480q0 5 3.5 8.5t8.5 3.5h117q5 0 8.5 -3.5t3.5 -8.5v-473q0 -66 -28.5 -116.5t-80.5 -78.5t-120 -28t-120 28z" />
    <glyph glyph-name="V" unicode="V" horiz-adv-x="555" 
d="M199 10l-174 677v4q0 9 11 9h127q11 0 13 -11l101 -465q1 -4 3 -4t3 4l100 465q2 11 13 11h123q14 0 11 -13l-176 -677q-3 -10 -14 -10h-127q-11 0 -14 10z" />
    <glyph glyph-name="W" unicode="W" horiz-adv-x="776" 
d="M176 10l-157 677v4q0 9 11 9h123q12 0 13 -11l76 -384q1 -3 3 -3t3 3l73 384q1 11 13 11h111q11 0 13 -11l80 -384q1 -3 3 -3t3 3l71 384q1 11 13 11h119q13 0 10 -13l-146 -676q-2 -11 -13 -11h-113q-11 0 -13 11l-81 402q-1 3 -3 3t-3 -3l-74 -402q-1 -11 -13 -11h-109
q-10 0 -13 10z" />
    <glyph glyph-name="X" unicode="X" horiz-adv-x="553" 
d="M28.5 3.5q-2.5 3.5 0.5 10.5l165 333q1 3 0 6l-165 333q-2 4 -2 6q0 8 11 8h123q10 0 14 -9l99 -211q3 -6 6 0l98 211q4 9 14 9h123q7 0 9.5 -3.5t-0.5 -10.5l-164 -333q-1 -3 0 -6l164 -333q2 -4 2 -6q0 -8 -11 -8h-122q-10 0 -14 9l-99 210q-3 6 -6 0l-99 -210
q-4 -9 -14 -9h-123q-7 0 -9.5 3.5z" />
    <glyph glyph-name="Y" unicode="Y" horiz-adv-x="546" 
d="M205.5 4.5q-3.5 3.5 -3.5 8.5v256l-1 6l-173 411q-1 2 -1 6q0 8 10 8h126q11 0 14 -10l93 -253q1 -3 3 -3t3 3l93 253q3 10 14 10h126q7 0 9 -4t0 -10l-174 -411l-1 -6v-256q0 -5 -3.5 -8.5t-8.5 -3.5h-117q-5 0 -8.5 3.5z" />
    <glyph glyph-name="Z" unicode="Z" horiz-adv-x="485" 
d="M29.5 3.5q-3.5 3.5 -3.5 8.5v105q0 8 4 15l268 441q3 6 -3 6h-257q-5 0 -8.5 3.5t-3.5 8.5v97q0 5 3.5 8.5t8.5 3.5h404q5 0 8.5 -3.5t3.5 -8.5v-105q0 -8 -4 -15l-268 -441q-3 -6 3 -6h257q5 0 8.5 -3.5t3.5 -8.5v-97q0 -5 -3.5 -8.5t-8.5 -3.5h-404q-5 0 -8.5 3.5z" />
    <glyph glyph-name="bracketleft" unicode="[" horiz-adv-x="381" 
d="M34.5 -143.5q-3.5 3.5 -3.5 8.5v923q0 5 3.5 8.5t8.5 3.5h221q5 0 8.5 -3.5t3.5 -8.5v-97q0 -5 -3.5 -8.5t-8.5 -3.5h-87q-5 0 -5 -5v-694q0 -5 5 -5h88q5 0 8.5 -3.5t3.5 -8.5v-98q0 -5 -3.5 -8.5t-8.5 -3.5h-222q-5 0 -8.5 3.5z" />
    <glyph glyph-name="backslash" unicode="\" horiz-adv-x="420" 
d="M400 9q0 -9 -11 -9h-116q-10 0 -13 10l-238 676q-1 2 -1 5q0 9 11 9h115q10 0 13 -10l239 -676q1 -2 1 -5z" />
    <glyph glyph-name="bracketright" unicode="]" horiz-adv-x="381" 
d="M346.5 -143.5q-3.5 -3.5 -8.5 -3.5h-222q-5 0 -8.5 3.5t-3.5 8.5v98q0 5 3.5 8.5t8.5 3.5h88q5 0 5 5v694q0 5 -5 5h-87q-5 0 -8.5 3.5t-3.5 8.5v97q0 5 3.5 8.5t8.5 3.5h221q5 0 8.5 -3.5t3.5 -8.5v-923q0 -5 -3.5 -8.5z" />
    <glyph glyph-name="asciicircum" unicode="^" horiz-adv-x="448" 
d="M31.5 301.5q-2.5 3.5 -0.5 10.5l130 378q3 10 13 10h98q10 0 13 -10l131 -378q1 -2 1 -5q0 -9 -11 -9h-94q-10 0 -13 10l-72 237q-1 4 -3 4t-3 -4l-72 -237q-3 -10 -13 -10h-96q-6 0 -8.5 3.5z" />
    <glyph glyph-name="underscore" unicode="_" horiz-adv-x="472" 
d="M19.5 3.5q-3.5 3.5 -3.5 8.5v83q0 5 3.5 8.5t8.5 3.5h416q5 0 8.5 -3.5t3.5 -8.5v-83q0 -5 -3.5 -8.5t-8.5 -3.5h-416q-5 0 -8.5 3.5z" />
    <glyph glyph-name="grave" unicode="`" horiz-adv-x="239" 
d="M217 582q0 -8 -11 -8h-92q-9 0 -14 7l-73 101q-3 5 -3 8q0 7 10 7h109q10 0 15 -8l57 -101z" />
    <glyph glyph-name="a" unicode="a" horiz-adv-x="486" 
d="M348 500.5q47 -21.5 73.5 -60t26.5 -87.5v-341q0 -5 -3.5 -8.5t-8.5 -3.5h-117q-5 0 -8.5 3.5t-3.5 8.5v27q0 3 -2 4t-4 -2q-40 -49 -120 -49q-67 0 -112 35t-45 117q0 163 204 163h74q5 0 5 5v23q0 30 -17.5 48t-48.5 18q-23 0 -39 -11t-20 -30q-3 -10 -14 -10l-121 7
q-5 0 -8.5 3t-2.5 8q5 69 61.5 111.5t142.5 42.5q61 0 108 -21.5zM283 118q24 19 24 50v42q0 5 -5 5h-57q-36 0 -57 -16t-21 -46q0 -26 16 -40t42 -14q34 0 58 19z" />
    <glyph glyph-name="b" unicode="b" horiz-adv-x="501" 
d="M466 262q0 -63 -11 -111q-33 -159 -156 -159q-69 0 -106 43q-2 3 -4 2t-2 -4v-21q0 -5 -3.5 -8.5t-8.5 -3.5h-117q-5 0 -8.5 3.5t-3.5 8.5v676q0 5 3.5 8.5t8.5 3.5h117q5 0 8.5 -3.5t3.5 -8.5v-206q0 -3 2 -4t4 2q19 23 44 32.5t60 9.5q129 0 160 -155q9 -51 9 -105z
M324 258q0 60 -9 89q-16 54 -61 54q-23 0 -38 -14.5t-20 -40.5q-8 -30 -8 -88t7 -87q13 -58 60 -58t62 59q7 35 7 86z" />
    <glyph glyph-name="c" unicode="c" horiz-adv-x="486" 
d="M110.5 34.5q-54.5 42.5 -67.5 116.5q-8 41 -8 108q0 50 8 106q13 72 68 114.5t138 42.5q81 0 136.5 -41t68.5 -108q2 -9 4 -29q0 -11 -12 -13l-115 -11h-2q-9 0 -11 11q0 7 -1 10q-2 8 -4 14q-6 20 -23 33t-42 13q-27 0 -44 -16t-22 -44q-6 -33 -6 -83q0 -55 7 -86
q5 -27 21.5 -43t43.5 -16q29 0 46.5 16t20.5 40l2 12q1 5 4.5 8.5t8.5 2.5l116 -10q11 -2 11 -13q0 -6 -2 -20q-10 -73 -65.5 -115t-140.5 -42q-84 0 -138.5 42.5z" />
    <glyph glyph-name="d" unicode="d" horiz-adv-x="501" 
d="M317.5 696.5q3.5 3.5 8.5 3.5h117q5 0 8.5 -3.5t3.5 -8.5v-676q0 -5 -3.5 -8.5t-8.5 -3.5h-117q-5 0 -8.5 3.5t-3.5 8.5v21q0 3 -2 4t-4 -2q-37 -43 -106 -43q-123 0 -156 159q-11 48 -11 111q0 54 9 105q31 155 160 155q35 0 60 -9.5t44 -32.5q2 -3 4 -2t2 4v206
q0 5 3.5 8.5zM313 258q0 58 -8 88q-5 26 -20 40.5t-38 14.5q-45 0 -61 -54q-9 -29 -9 -89q0 -51 7 -86q15 -59 62 -59t60 58q7 29 7 87z" />
    <glyph glyph-name="e" unicode="e" horiz-adv-x="492" 
d="M304 126q18 13 28 34q5 11 15 8l95 -20q12 -3 9 -15q-20 -66 -71.5 -103.5t-127.5 -37.5q-79 0 -132 40.5t-69 107.5q-14 50 -14 125q0 50 4 82q10 82 63.5 129t143.5 47q96 0 147.5 -50.5t60.5 -143.5q5 -53 5 -103q0 -12 -12 -12h-266q-5 0 -5 -5q0 -21 3 -36
q5 -28 26 -44.5t52 -16.5q27 1 45 14zM182 343q-2 -10 -4 -36q0 -5 5 -5h130q5 0 5 5q0 12 -4 34q-4 28 -21 44t-46 16q-54 0 -65 -58z" />
    <glyph glyph-name="f" unicode="f" horiz-adv-x="342" 
d="M313.5 510.5q3.5 -3.5 3.5 -8.5v-85q0 -5 -3.5 -8.5t-8.5 -3.5h-76q-5 0 -5 -5v-388q0 -5 -3.5 -8.5t-8.5 -3.5h-117q-5 0 -8.5 3.5t-3.5 8.5v388q0 5 -5 5h-44q-5 0 -8.5 3.5t-3.5 8.5v85q0 5 3.5 8.5t8.5 3.5h44q5 0 5 5v25q0 61 20 96t62.5 49t112.5 12h20
q5 0 8.5 -3.5t3.5 -8.5v-80q0 -5 -3.5 -8.5t-8.5 -3.5h-18q-30 -1 -43 -15.5t-13 -47.5v-15q0 -5 5 -5h76q5 0 8.5 -3.5z" />
    <glyph glyph-name="g" unicode="g" horiz-adv-x="498" 
d="M319.5 510.5q3.5 3.5 8.5 3.5h117q5 0 8.5 -3.5t3.5 -8.5v-467q0 -120 -66.5 -178.5t-190.5 -58.5q-27 0 -57 3q-12 1 -12 13l3 101q0 11 13 11q15 -2 42 -2q67 0 97 28.5t30 90.5v0q0 3 -2 4t-4 -2q-37 -43 -102 -43t-110 38t-57 113q-7 26 -7 106t9 112q11 71 53 111
t109 40q66 0 105 -45q2 -3 4 -2t2 4v23q0 5 3.5 8.5zM316 259q0 51 -4 83q-5 27 -22 43t-43 16q-25 0 -42.5 -16.5t-22.5 -42.5q-6 -36 -6 -83q0 -44 5 -81q5 -27 22.5 -43t44.5 -16q26 0 43 16t21 42q4 32 4 82z" />
    <glyph glyph-name="h" unicode="h" horiz-adv-x="497" 
d="M413.5 475.5q41.5 -46.5 41.5 -129.5v-334q0 -5 -3.5 -8.5t-8.5 -3.5h-117q-5 0 -8.5 3.5t-3.5 8.5v314q0 35 -17 55t-46 20q-30 0 -47.5 -20.5t-17.5 -55.5v-313q0 -5 -3.5 -8.5t-8.5 -3.5h-117q-5 0 -8.5 3.5t-3.5 8.5v676q0 5 3.5 8.5t8.5 3.5h117q5 0 8.5 -3.5
t3.5 -8.5v-213q0 -3 2 -3.5t5 2.5q37 48 106 48q73 0 114.5 -46.5z" />
    <glyph glyph-name="i" unicode="i" horiz-adv-x="244" 
d="M61.5 586.5q-23.5 23.5 -23.5 60.5t23.5 60t60.5 23t60.5 -23t23.5 -60t-23 -60.5t-61 -23.5q-37 0 -60.5 23.5zM54.5 3.5q-3.5 3.5 -3.5 8.5v490q0 5 3.5 8.5t8.5 3.5h117q5 0 8.5 -3.5t3.5 -8.5v-490q0 -5 -3.5 -8.5t-8.5 -3.5h-117q-5 0 -8.5 3.5z" />
    <glyph glyph-name="j" unicode="j" horiz-adv-x="234" 
d="M58.5 586q-23.5 24 -23.5 60q0 35 25 59t59 24q33 0 58.5 -24.5t25.5 -58.5q0 -36 -24 -60t-60 -24q-37 0 -60.5 24zM-58 -192v96q0 13 13 11q52 -1 72.5 19t20.5 65v503q0 5 3.5 8.5t8.5 3.5h117q5 0 8.5 -3.5t3.5 -8.5v-502q0 -77 -18 -120.5t-68.5 -64t-148.5 -19.5
q-12 0 -12 12z" />
    <glyph glyph-name="k" unicode="k" horiz-adv-x="491" 
d="M48.5 3.5q-3.5 3.5 -3.5 8.5v676q0 5 3.5 8.5t8.5 3.5h117q5 0 8.5 -3.5t3.5 -8.5v-334q0 -3 2 -4t4 2l112 155q5 7 14 7h127q10 0 10 -7q0 -3 -3 -8l-118 -164q-2 -3 0 -7l136 -314q1 -2 1 -6q0 -8 -10 -8h-123q-11 0 -14 10l-81 215q-1 3 -3 3t-4 -2l-48 -66
q-2 -4 -2 -6v-142q0 -5 -3.5 -8.5t-8.5 -3.5h-117q-5 0 -8.5 3.5z" />
    <glyph glyph-name="l" unicode="l" horiz-adv-x="229" 
d="M47.5 3.5q-3.5 3.5 -3.5 8.5v676q0 5 3.5 8.5t8.5 3.5h117q5 0 8.5 -3.5t3.5 -8.5v-676q0 -5 -3.5 -8.5t-8.5 -3.5h-117q-5 0 -8.5 3.5z" />
    <glyph glyph-name="m" unicode="m" horiz-adv-x="755" 
d="M675.5 475.5q38.5 -46.5 38.5 -130.5v-333q0 -5 -3.5 -8.5t-8.5 -3.5h-116q-5 0 -8.5 3.5t-3.5 8.5v313q0 35 -16.5 55.5t-44.5 20.5q-29 0 -46 -20.5t-17 -54.5v-314q0 -5 -3.5 -8.5t-8.5 -3.5h-116q-5 0 -8.5 3.5t-3.5 8.5v313q0 35 -17 55.5t-45 20.5q-29 0 -46 -20.5
t-17 -54.5v-314q0 -5 -3.5 -8.5t-8.5 -3.5h-116q-5 0 -8.5 3.5t-3.5 8.5v490q0 5 3.5 8.5t8.5 3.5h116q5 0 8.5 -3.5t3.5 -8.5v-26q0 -3 2 -4t4 2q21 25 49 36.5t60 11.5q45 0 77.5 -18.5t50.5 -53.5q1 -2 3 -1.5t4 3.5q22 37 56 53.5t73 16.5q73 0 111.5 -46.5z" />
    <glyph glyph-name="n" unicode="n" horiz-adv-x="497" 
d="M413.5 475.5q41.5 -46.5 41.5 -129.5v-334q0 -5 -3.5 -8.5t-8.5 -3.5h-117q-5 0 -8.5 3.5t-3.5 8.5v314q0 35 -17 55t-46 20q-30 0 -47.5 -20.5t-17.5 -55.5v-313q0 -5 -3.5 -8.5t-8.5 -3.5h-117q-5 0 -8.5 3.5t-3.5 8.5v490q0 5 3.5 8.5t8.5 3.5h117q5 0 8.5 -3.5
t3.5 -8.5v-27q0 -3 2 -3.5t5 2.5q37 48 106 48q73 0 114.5 -46.5z" />
    <glyph glyph-name="o" unicode="o" horiz-adv-x="500" 
d="M108 36q-55 44 -66 122q-7 49 -7 100q0 62 7 101q12 75 67 119t142 44q85 0 140 -44t66 -118q8 -46 8 -101q0 -50 -7 -99q-11 -79 -66 -123.5t-142 -44.5t-142 44zM296 131q18 18 23 48q4 32 4 79t-4 78q-5 30 -23 47.5t-46 17.5t-46 -17.5t-23 -47.5q-5 -38 -5 -78
q0 -31 4 -79q5 -30 24 -48t46 -18q28 0 46 18z" />
    <glyph glyph-name="p" unicode="p" horiz-adv-x="504" 
d="M469 252q0 -54 -9 -105q-31 -155 -160 -155q-35 0 -60 9.5t-44 32.5q-2 3 -4 2t-2 -4v-206q0 -5 -3.5 -8.5t-8.5 -3.5h-117q-5 0 -8.5 3.5t-3.5 8.5v676q0 5 3.5 8.5t8.5 3.5h117q5 0 8.5 -3.5t3.5 -8.5v-21q0 -3 2 -4t4 2q37 43 106 43q123 0 156 -159q11 -48 11 -111z
M327 256q0 51 -7 86q-15 59 -62 59t-60 -58q-7 -29 -7 -87t8 -88q5 -26 20 -40.5t38 -14.5q45 0 61 54q9 29 9 89z" />
    <glyph glyph-name="q" unicode="q" horiz-adv-x="504" 
d="M317.5 510.5q3.5 3.5 8.5 3.5h117q5 0 8.5 -3.5t3.5 -8.5v-676q0 -5 -3.5 -8.5t-8.5 -3.5h-117q-5 0 -8.5 3.5t-3.5 8.5v206q0 3 -2 4t-4 -2q-19 -23 -44 -32.5t-60 -9.5q-129 0 -160 155q-9 51 -9 105q0 63 11 111q33 159 156 159q69 0 106 -43q2 -3 4 -2t2 4v21
q0 5 3.5 8.5zM313 256q0 58 -7 87q-13 58 -60 58t-62 -59q-7 -35 -7 -86q0 -60 9 -89q16 -54 61 -54q23 0 38 14.5t20 40.5q8 30 8 88z" />
    <glyph glyph-name="r" unicode="r" horiz-adv-x="354" 
d="M337 509q8 -5 6 -15l-19 -116q-1 -12 -14 -7q-16 4 -30 4q-12 0 -26 -3q-29 -4 -48.5 -28t-19.5 -58v-274q0 -5 -3.5 -8.5t-8.5 -3.5h-117q-5 0 -8.5 3.5t-3.5 8.5v490q0 5 3.5 8.5t8.5 3.5h117q5 0 8.5 -3.5t3.5 -8.5v-39q0 -4 1.5 -4.5t3.5 2.5q35 60 97 60
q29 0 49 -12z" />
    <glyph glyph-name="s" unicode="s" horiz-adv-x="457" 
d="M85.5 34q-55.5 41 -55.5 108v8q0 5 3.5 8.5t8.5 3.5h111q5 0 8.5 -2t3.5 -5v-7q0 -22 19.5 -36t48.5 -14q27 0 43.5 12.5t16.5 31.5t-18 29.5t-57 22.5q-29 8 -48 16q-60 20 -97.5 54t-37.5 98q0 73 53 116t140 43q90 0 143.5 -44.5t53.5 -118.5q0 -11 -12 -11h-107
q-5 0 -8.5 2.5t-3.5 5.5v7q0 21 -17.5 35t-46.5 14q-27 0 -43.5 -13t-16.5 -32q0 -21 20 -32.5t61 -23.5q9 -3 17.5 -5.5t15.5 -5.5q68 -23 109 -55.5t41 -96.5q0 -72 -54.5 -113t-145.5 -41q-93 0 -148.5 41z" />
    <glyph glyph-name="t" unicode="t" horiz-adv-x="335" 
d="M306.5 411.5q-3.5 -3.5 -8.5 -3.5h-77q-5 0 -5 -5v-223q0 -31 12.5 -44.5t38.5 -12.5h20q5 0 8.5 -3.5t3.5 -8.5v-97q0 -12 -12 -12q-17 -1 -50 -1q-79 0 -117.5 26t-38.5 98v278q0 5 -5 5h-46q-5 0 -8.5 3.5t-3.5 8.5v82q0 5 3.5 8.5t8.5 3.5h46q5 0 5 5v115
q0 5 3.5 8.5t8.5 3.5h111q5 0 8.5 -3.5t3.5 -8.5v-115q0 -5 5 -5h77q5 0 8.5 -3.5t3.5 -8.5v-82q0 -5 -3.5 -8.5z" />
    <glyph glyph-name="u" unicode="u" horiz-adv-x="496" 
d="M313.5 510.5q3.5 3.5 8.5 3.5h117q5 0 8.5 -3.5t3.5 -8.5v-490q0 -5 -3.5 -8.5t-8.5 -3.5h-117q-5 0 -8.5 3.5t-3.5 8.5v25q0 3 -2 3.5t-4 -1.5q-34 -46 -107 -46q-68 0 -112 41t-44 121v347q0 5 3.5 8.5t8.5 3.5h117q5 0 8.5 -3.5t3.5 -8.5v-314q0 -35 16.5 -55
t46.5 -20t47.5 21t17.5 56v312q0 5 3.5 8.5z" />
    <glyph glyph-name="v" unicode="v" horiz-adv-x="478" 
d="M159 10l-139 491l-1 4q0 9 11 9h129q11 0 13 -11l64 -300q1 -4 3 -4t3 4l64 300q2 11 13 11l129 -1q13 0 10 -13l-139 -490q-3 -10 -14 -10h-132q-11 0 -14 10z" />
    <glyph glyph-name="w" unicode="w" horiz-adv-x="698" 
d="M145 10l-126 491v4q0 9 11 9h116q12 0 13 -11l57 -299q1 -3 3 -3t3 3l60 299q2 11 13 11h103q11 0 13 -11l63 -299q1 -4 3 -4t3 4l60 299q2 11 13 11l115 -1q14 0 11 -13l-126 -490q-3 -10 -14 -10h-117q-10 0 -13 10l-61 262q-1 4 -3 4t-3 -4l-55 -261q-2 -11 -13 -11
h-115q-11 0 -14 10z" />
    <glyph glyph-name="x" unicode="x" horiz-adv-x="488" 
d="M19 4q-3 4 1 10l138 240q2 3 0 6l-138 240l-2 6q0 8 11 8h126q10 0 15 -8l69 -126q3 -4 6 0l69 126q5 8 15 8h130q7 0 10 -4t-1 -10l-138 -240q-1 -3 0 -6l138 -240l2 -6q0 -8 -11 -8h-125q-10 0 -15 8l-70 128q-3 5 -6 0l-69 -128q-4 -8 -15 -8h-130q-7 0 -10 4z" />
    <glyph glyph-name="y" unicode="y" horiz-adv-x="463" 
d="M39 -195.5q-2 3.5 -2 8.5v92q0 5 2 8.5t4 3.5h5q56 0 80.5 16t32.5 64l-1 6l-144 497l-1 4q0 10 11 10h125q11 0 13 -11l66 -301q1 -4 3 -4t3 4l62 301q2 11 13 11h126q6 0 9 -4t1 -10l-152 -519q-22 -73 -46.5 -109.5t-69.5 -53.5t-129 -17h-6q-3 0 -5 3.5z" />
    <glyph glyph-name="z" unicode="z" horiz-adv-x="416" 
d="M24.5 3.5q-3.5 3.5 -3.5 8.5v108q0 8 5 15l190 246q2 2 1 4t-4 2h-174q-5 0 -8.5 3.5t-3.5 8.5v103q0 5 3.5 8.5t8.5 3.5h338q5 0 8.5 -3.5t3.5 -8.5v-107q0 -8 -5 -15l-197 -246q-2 -2 -1 -4t4 -2h192q5 0 8.5 -3.5t3.5 -8.5v-104q0 -5 -3.5 -8.5t-8.5 -3.5h-349
q-5 0 -8.5 3.5z" />
    <glyph glyph-name="braceleft" unicode="{" horiz-adv-x="360" 
d="M135 -115q-33 32 -33 92v207q0 82 -59 89q-12 2 -12 13v87q0 12 12 13q30 4 44.5 25.5t14.5 62.5v203q0 60 32.5 91.5t94.5 31.5h88q5 0 8.5 -3.5t3.5 -8.5v-97q0 -5 -3.5 -8.5t-8.5 -3.5h-23q-23 0 -37 -17t-14 -46v-161q0 -48 -13.5 -78t-42.5 -44q-6 -3 -1 -6
q29 -15 43 -45.5t14 -78.5v-165q0 -29 14 -46t37 -17h23q5 0 8.5 -3.5t3.5 -8.5v-98q0 -5 -3.5 -8.5t-8.5 -3.5h-88q-61 0 -94 32z" />
    <glyph glyph-name="bar" unicode="|" horiz-adv-x="194" 
d="M30.5 -76.5q-3.5 3.5 -3.5 8.5v816q0 5 3.5 8.5t8.5 3.5h117q5 0 8.5 -3.5t3.5 -8.5v-816q0 -5 -3.5 -8.5t-8.5 -3.5h-117q-5 0 -8.5 3.5z" />
    <glyph glyph-name="braceright" unicode="}" horiz-adv-x="360" 
d="M43 -147q-5 0 -8.5 3.5t-3.5 8.5v98q0 5 3.5 8.5t8.5 3.5h23q23 0 37 17t14 46v165q0 48 14 78.5t43 45.5q5 3 -1 6q-29 14 -42.5 44t-13.5 78v161q0 29 -14 46t-37 17h-23q-5 0 -8.5 3.5t-3.5 8.5v97q0 5 3.5 8.5t8.5 3.5h88q62 0 94.5 -31.5t32.5 -91.5v-203
q0 -41 14.5 -62.5t44.5 -25.5q12 -1 12 -13v-87q0 -11 -12 -13q-59 -7 -59 -89v-207q0 -60 -33 -92t-94 -32h-88z" />
    <glyph glyph-name="asciitilde" unicode="~" horiz-adv-x="512" 
d="M299.5 208q-18.5 7 -42.5 21q-4 3 -19.5 11.5t-30 13.5t-27.5 5q-38 0 -64 -36q-7 -10 -16 -4l-65 41q-9 6 -6 16q17 45 56.5 74.5t86.5 29.5q23 0 41.5 -6.5t39.5 -18.5q7 -4 23 -13t29.5 -14t26.5 -5q32 0 56 35q7 10 17 4l71 -44q9 -5 6 -13q0 -2 -2 -6
q-21 -43 -58 -70.5t-80 -27.5q-24 0 -42.5 7z" />
    <glyph glyph-name="uni00A0" unicode="&#xa0;" horiz-adv-x="200" 
 />
    <glyph glyph-name="exclamdown" unicode="&#xa1;" horiz-adv-x="315" 
d="M219 682.5q25 -25.5 25 -61.5q0 -35 -27 -60.5t-61 -25.5t-61 25.5t-27 60.5q0 37 25 62t63 25t63 -25.5zM104.5 465.5q3.5 3.5 8.5 3.5h88q5 0 8.5 -3.5t3.5 -8.5l15 -436q0 -5 -3.5 -8.5t-8.5 -3.5h-117q-5 0 -8.5 3.5t-3.5 8.5l14 436q0 5 3.5 8.5z" />
    <glyph glyph-name="cent" unicode="&#xa2;" horiz-adv-x="486" 
d="M317 271q1 5 4.5 8.5t8.5 2.5l116 -10q11 -2 11 -13q0 -6 -2 -20q-9 -60 -48.5 -99.5t-101.5 -52.5q-5 -2 -5 -6l3 -68q0 -12 -11 -12h-95q-11 0 -11 12l3 70q0 5 -4 6q-58 14 -94.5 53.5t-47.5 98.5q-8 41 -8 108q0 50 8 106q11 57 47.5 96t94.5 53q4 1 4 6l-3 71
q0 12 11 12h95q11 0 11 -12l-3 -69q0 -4 5 -6q59 -13 99 -50.5t50 -92.5q2 -9 4 -29q0 -11 -12 -13l-115 -11h-2q-9 0 -11 11q0 7 -1 10q-2 8 -4 14q-6 20 -23 33t-42 13q-27 0 -44 -16t-22 -44q-6 -33 -6 -83q0 -55 7 -86q5 -27 21.5 -43t43.5 -16q29 0 46.5 16t20.5 40z
" />
    <glyph glyph-name="sterling" unicode="&#xa3;" horiz-adv-x="565" 
d="M238 123q1 -2 4 -2h285q5 0 8.5 -3.5t3.5 -8.5v-97q0 -5 -3.5 -8.5t-8.5 -3.5h-430q-5 0 -8.5 3.5t-3.5 8.5v100q0 8 7 15q20 16 28 39t8 56v60q0 5 -5 5h-58q-5 0 -8.5 3.5t-3.5 8.5v90q0 5 3.5 8.5t8.5 3.5h58q5 0 5 5v84q0 103 56.5 160.5t152.5 57.5q78 0 128 -42
t70 -119l1 -4q0 -8 -10 -10l-111 -16h-3q-8 0 -11 9q-9 32 -25 46.5t-38 14.5q-69 0 -69 -92v-89q0 -5 5 -5h157q5 0 8.5 -3.5t3.5 -8.5v-90q0 -5 -3.5 -8.5t-8.5 -3.5h-157q-5 0 -5 -5v-60q0 -60 -30 -95q-2 -2 -1 -4z" />
    <glyph glyph-name="currency" unicode="&#xa4;" horiz-adv-x="570" 
d="M477 200q-1 -4 1 -7l65 -65q4 -4 4 -9q0 -4 -4 -8l-73 -63q-4 -4 -9 -4q-4 0 -8 4l-61 60q-3 3 -7 1q-48 -25 -103 -25q-53 0 -99 23q-4 2 -7 -1l-59 -58q-4 -4 -8 -4q-5 0 -9 4l-73 63q-4 3 -4 8t4 9l61 61q3 3 1 7q-28 50 -28 107t26 103q2 5 -1 7l-65 65q-4 4 -4 9
q0 4 4 8l73 63q4 4 9 4t8 -4l60 -60q3 -2 7 -1q47 26 104 26q59 0 108 -29q5 -1 7 1l63 63q4 4 9 4t8 -4l72 -63q4 -4 4 -8q0 -5 -4 -9l-69 -69q-2 -2 -1 -7q24 -45 24 -99q0 -56 -26 -103zM211.5 232.5q29.5 -29.5 70.5 -29.5t70.5 29.5t29.5 70.5q0 42 -29.5 71.5
t-70.5 29.5t-70.5 -29.5t-29.5 -71.5q0 -41 29.5 -70.5z" />
    <glyph glyph-name="yen" unicode="&#xa5;" horiz-adv-x="608" 
d="M550 696q2 -4 0 -10l-146 -345q-1 -2 0.5 -4t3.5 -2h92q5 0 8.5 -3.5t3.5 -8.5v-54q0 -5 -3.5 -8.5t-8.5 -3.5h-120q-5 0 -5 -5v-44q0 -5 5 -5h120q5 0 8.5 -3.5t3.5 -8.5v-54q0 -5 -3.5 -8.5t-8.5 -3.5h-120q-5 0 -5 -5v-107q0 -5 -3.5 -8.5t-8.5 -3.5h-117
q-5 0 -8.5 3.5t-3.5 8.5v107q0 5 -5 5h-120q-5 0 -8.5 3.5t-3.5 8.5v54q0 5 3.5 8.5t8.5 3.5h120q5 0 5 5v44q0 5 -5 5h-120q-5 0 -8.5 3.5t-3.5 8.5v54q0 5 3.5 8.5t8.5 3.5h93q2 0 3.5 2t0.5 4l-146 345q-1 2 -1 6q0 8 10 8h126q11 0 14 -10l93 -253q1 -3 3 -3t3 3l93 253
q3 10 14 10h126q7 0 9 -4z" />
    <glyph glyph-name="brokenbar" unicode="&#xa6;" horiz-adv-x="194" 
d="M30.5 397.5q-3.5 3.5 -3.5 8.5v342q0 5 3.5 8.5t8.5 3.5h117q5 0 8.5 -3.5t3.5 -8.5v-342q0 -5 -3.5 -8.5t-8.5 -3.5h-117q-5 0 -8.5 3.5zM30.5 -76.5q-3.5 3.5 -3.5 8.5v341q0 5 3.5 8.5t8.5 3.5h117q5 0 8.5 -3.5t3.5 -8.5v-341q0 -5 -3.5 -8.5t-8.5 -3.5h-117
q-5 0 -8.5 3.5z" />
    <glyph glyph-name="section" unicode="&#xa7;" horiz-adv-x="469" 
d="M94.5 -160q-51.5 45 -53.5 121l-1 27q0 5 3.5 8.5t8.5 3.5h117q12 0 12 -11v-11q0 -28 15.5 -45.5t40.5 -17.5q24 0 40 16.5t16 40.5q0 31 -27 50t-89 46q-47 21 -75.5 42.5t-45.5 52.5q-19 34 -19 81q0 55 28 95q21 30 57 48q2 2 2 4t-2 3q-85 56 -85 144q0 47 25.5 86
t70.5 61.5t103 22.5q56 0 100.5 -22t69.5 -61t25 -90v-18q0 -5 -3.5 -8.5t-8.5 -3.5h-117q-5 0 -8.5 3t-3.5 7v9q0 28 -15.5 45.5t-40.5 17.5q-24 0 -39.5 -17t-15.5 -43q0 -31 23.5 -50t75.5 -40q45 -19 74.5 -36t50.5 -41q34 -41 34 -99q0 -52 -24 -91q-22 -42 -62 -59
q-3 -1 -3 -2.5t2 -3.5q42 -27 63 -60.5t21 -80.5q0 -77 -56.5 -123t-144.5 -46q-87 0 -138.5 45zM286 211q10 14 10 40t-13 44q-16 21 -46 21q-16 0 -29 -7.5t-20 -19.5q-10 -16 -10 -39q0 -25 11 -40q7 -12 19.5 -18.5t28.5 -6.5q34 0 49 26z" />
    <glyph glyph-name="dieresis" unicode="&#xa8;" horiz-adv-x="352" 
d="M35.5 589q-19.5 20 -19.5 51q0 32 19.5 51.5t51.5 19.5q31 0 49.5 -19.5t18.5 -51.5t-18.5 -51.5t-49.5 -19.5q-32 0 -51.5 20zM215.5 589q-19.5 20 -19.5 51t19.5 51t50.5 20t50.5 -19.5t19.5 -51.5t-19.5 -51.5t-50.5 -19.5t-50.5 20z" />
    <glyph glyph-name="copyright" unicode="&#xa9;" horiz-adv-x="804" 
d="M216.5 39q-82.5 47 -129 129t-46.5 185q0 100 47 181t129 127.5t184 46.5q103 0 185.5 -46.5t129.5 -127.5t47 -181q0 -103 -47 -185t-129.5 -129t-185.5 -47q-102 0 -184.5 47zM546 106.5q65 36.5 101.5 101.5t36.5 145q0 78 -36.5 141.5t-101.5 99.5t-145 36t-144 -36
t-100.5 -99.5t-36.5 -141.5q0 -80 36.5 -145t100.5 -101.5t144 -36.5t145 36.5zM322.5 205.5q-30.5 28.5 -30.5 76.5v137q0 48 30.5 76t80.5 28q51 0 81.5 -27.5t30.5 -73.5q0 -4 -3.5 -7t-8.5 -3l-50 -2q-12 0 -12 6v7q0 17 -10.5 27t-27.5 10q-16 0 -26 -10t-10 -27v-146
q0 -16 10 -26t26 -10q17 0 27.5 10t10.5 26v2q0 5 3.5 8.5t8.5 3.5l50 -2q12 0 12 -5v-5q0 -46 -31 -74t-81 -28t-80.5 28.5z" />
    <glyph glyph-name="ordfeminine" unicode="&#xaa;" horiz-adv-x="310" 
d="M194 566q5 0 5 5v15q0 22 -13 36t-36 14q-16 0 -28 -7t-16 -20q-3 -11 -13 -10l-61 4q-12 2 -11 13q4 40 40 66t88 26q59 0 96.5 -31t37.5 -80v-221q0 -5 -3.5 -8.5t-8.5 -3.5h-60q-5 0 -8.5 3.5t-3.5 8.5v4q0 3 -2 4t-4 -1q-25 -24 -69 -24q-48 0 -79.5 23.5t-31.5 76.5
q0 55 36 81t100 26h45zM182 439.5q17 13.5 17 34.5v22q0 5 -5 5h-39q-58 0 -58 -39q0 -36 43 -36q25 0 42 13.5zM15.5 309.5q3.5 3.5 8.5 3.5h255q5 0 8.5 -3.5t3.5 -8.5v-49q0 -5 -3.5 -8.5t-8.5 -3.5h-255q-5 0 -8.5 3.5t-3.5 8.5v49q0 5 3.5 8.5z" />
    <glyph glyph-name="guillemotleft" unicode="&#xab;" horiz-adv-x="484" 
d="M261 115q0 -8 -11 -8h-96q-10 0 -15 8l-88 158q-2 6 -2 8q0 4 2 8l88 158q5 8 15 8h96q7 0 10 -4t-1 -10l-91 -157q-1 -3 0 -6l91 -157zM428 115q0 -8 -11 -8h-96q-10 0 -15 8l-88 158q-2 6 -2 8q0 4 2 8l88 158q5 8 15 8h96q7 0 10 -4t-1 -10l-91 -157q-1 -3 0 -6
l91 -157z" />
    <glyph glyph-name="logicalnot" unicode="&#xac;" horiz-adv-x="462" 
d="M432.5 357.5q3.5 -3.5 3.5 -8.5v-94v-7h-1v-90q0 -5 -3.5 -8.5t-8.5 -3.5h-89q-5 0 -8.5 3.5t-3.5 8.5v85q0 5 -5 5h-279q-5 0 -8.5 3.5t-3.5 8.5v89q0 5 3.5 8.5t8.5 3.5h386q5 0 8.5 -3.5z" />
    <glyph glyph-name="uni00AD" unicode="&#xad;" horiz-adv-x="370" 
d="M29.5 238.5q-3.5 3.5 -3.5 8.5v97q0 5 3.5 8.5t8.5 3.5h294q5 0 8.5 -3.5t3.5 -8.5v-97q0 -5 -3.5 -8.5t-8.5 -3.5h-294q-5 0 -8.5 3.5z" />
    <glyph glyph-name="registered" unicode="&#xae;" horiz-adv-x="439" 
d="M323.5 684q46.5 -26 73 -71t26.5 -101q0 -58 -26.5 -105t-73 -73.5t-103.5 -26.5t-104 26.5t-73.5 73.5t-26.5 105q0 56 26.5 101t73.5 71t104 26t103.5 -26zM325 404.5q42 42.5 42 107.5q0 40 -19 73t-53 52t-75 19t-75 -19t-53 -52t-19 -73q0 -65 42 -107.5t105 -42.5
t105 42.5zM267 497q-4 -1 -2 -6l20 -59q1 -2 1 -5q0 -9 -11 -9h-24q-10 0 -13 10l-19 56q-2 4 -5 4h-2q-5 0 -5 -5v-53q0 -5 -3.5 -8.5t-8.5 -3.5h-23q-5 0 -8.5 3.5t-3.5 8.5v161q0 5 3.5 8.5t8.5 3.5h60q26 0 42.5 -17t16.5 -42q0 -33 -24 -47zM207 558v-30q0 -5 5 -5h13
q8 0 13.5 6t5.5 14q0 9 -5.5 14.5t-13.5 5.5h-13q-5 0 -5 -5z" />
    <glyph glyph-name="macron" unicode="&#xaf;" horiz-adv-x="315" 
d="M32.5 583.5q-3.5 3.5 -3.5 8.5v71q0 5 3.5 8.5t8.5 3.5h233q5 0 8.5 -3.5t3.5 -8.5v-71q0 -5 -3.5 -8.5t-8.5 -3.5h-233q-5 0 -8.5 3.5z" />
    <glyph glyph-name="degree" unicode="&#xb0;" horiz-adv-x="367" 
d="M99 493.5q-38 22.5 -60.5 61.5t-22.5 85t22.5 84.5t60.5 61t84 22.5t84.5 -22.5t61 -61t22.5 -84.5t-22.5 -85t-61 -61.5t-84.5 -22.5t-84 22.5zM236.5 586q21.5 22 21.5 54q0 33 -21.5 55t-53.5 22q-31 0 -53 -22t-22 -55q0 -32 22 -54t53 -22q32 0 53.5 22z" />
    <glyph glyph-name="plusminus" unicode="&#xb1;" horiz-adv-x="462" 
d="M432.5 444.5q3.5 -3.5 3.5 -8.5v-89q0 -5 -3.5 -8.5t-8.5 -3.5h-131q-5 0 -5 -5v-130q0 -5 -3.5 -8.5t-8.5 -3.5h-90q-5 0 -8.5 3.5t-3.5 8.5v130q0 5 -5 5h-131q-5 0 -8.5 3.5t-3.5 8.5v89q0 5 3.5 8.5t8.5 3.5h131q5 0 5 5v132q0 5 3.5 8.5t8.5 3.5h90q5 0 8.5 -3.5
t3.5 -8.5v-132q0 -5 5 -5h131q5 0 8.5 -3.5zM29.5 8.5q-3.5 3.5 -3.5 8.5v89q0 5 3.5 8.5t8.5 3.5h386q5 0 8.5 -3.5t3.5 -8.5v-89q0 -5 -3.5 -8.5t-8.5 -3.5h-386q-5 0 -8.5 3.5z" />
    <glyph glyph-name="uni00B2" unicode="&#xb2;" horiz-adv-x="305" 
d="M26.5 419.5q-3.5 3.5 -3.5 8.5v57q0 9 6 15q68 76 118 136q43 55 43 85q0 19 -11 30.5t-28 11.5t-28 -11t-11 -30v-15q0 -5 -3.5 -8.5t-8.5 -3.5h-68q-5 0 -8.5 3.5t-3.5 8.5v24q3 51 39.5 80.5t92.5 29.5q59 0 94.5 -32.5t35.5 -89.5q0 -27 -9.5 -52t-29.5 -54
q-25 -34 -93 -113q-2 -2 -1 -4t4 -2h123q5 0 8.5 -3.5t3.5 -8.5v-54q0 -5 -3.5 -8.5t-8.5 -3.5h-241q-5 0 -8.5 3.5z" />
    <glyph glyph-name="uni00B3" unicode="&#xb3;" horiz-adv-x="303" 
d="M283 551q0 -28 -6 -51q-11 -43 -42.5 -66.5t-79.5 -23.5q-49 0 -82.5 25.5t-42.5 68.5q-4 16 -6 36q0 12 12 12h67q12 0 13 -12q0 -10 3 -19q4 -15 13.5 -23.5t22.5 -8.5q25 0 34 25q6 17 6 43q0 30 -7 47q-9 23 -33 23q-11 0 -21 -7q-3 -2 -7 -2q-6 0 -10 4l-32 37
q-4 4 -4 9q0 4 4 8l80 76q2 2 1 4t-4 2h-117q-5 0 -8.5 3.5t-3.5 8.5v53q0 5 3.5 8.5t8.5 3.5h222q5 0 8.5 -3.5t3.5 -8.5v-56q0 -9 -6 -15l-62 -65q-3 -5 1 -6q44 -13 62 -69q9 -27 9 -61z" />
    <glyph glyph-name="acute" unicode="&#xb4;" horiz-adv-x="239" 
d="M23 578q-3 4 1 10l57 101q5 8 15 8h109q10 0 10 -7q0 -3 -3 -8l-73 -101q-5 -7 -14 -7h-92q-7 0 -10 4z" />
    <glyph glyph-name="uni00B5" unicode="&#xb5;" horiz-adv-x="501" 
d="M317.5 510.5q3.5 3.5 8.5 3.5h117q5 0 8.5 -3.5t3.5 -8.5v-490q0 -5 -3.5 -8.5t-8.5 -3.5h-117q-5 0 -8.5 3.5t-3.5 8.5v25q0 3 -2 3.5t-4 -1.5q-34 -46 -107 -46h-10q-5 2 -5 -4v-177q0 -5 -3.5 -8.5t-8.5 -3.5h-117q-5 0 -8.5 3.5t-3.5 8.5v690q0 5 3.5 8.5t8.5 3.5
h117q5 0 8.5 -3.5t3.5 -8.5v-314q0 -35 16.5 -55t46.5 -20t47.5 21t17.5 56v312q0 5 3.5 8.5z" />
    <glyph glyph-name="paragraph" unicode="&#xb6;" horiz-adv-x="569" 
d="M508 700q5 0 8.5 -3.5t3.5 -8.5v-876q0 -5 -3.5 -8.5t-8.5 -3.5h-86q-5 0 -8.5 3.5t-3.5 8.5v776q0 5 -5 5h-72q-5 0 -5 -5v-776q0 -5 -3.5 -8.5t-8.5 -3.5h-87q-5 0 -8.5 3.5t-3.5 8.5v434q0 4 -5 6q-86 11 -137.5 71.5t-51.5 151.5q0 65 27 116t77 80t117 29h264z" />
    <glyph glyph-name="periodcentered" unicode="&#xb7;" horiz-adv-x="177" 
d="M21 21.5q-25 25.5 -25 61.5q0 35 27 60.5t61 25.5q35 0 62 -25.5t27 -60.5q0 -36 -25 -61.5t-64 -25.5q-38 0 -63 25.5z" />
    <glyph glyph-name="cedilla" unicode="&#xb8;" horiz-adv-x="160" 
d="M3 -168l7 48q1 6 4.5 8t10.5 0q8 -2 12 -2q12 0 20 6t10 18q1 3 1 10q0 31 -42 65q-5 5 -5 9q0 6 10 6h64q8 0 12 -4q3 -1 4 -4q49 -45 49 -96q0 -13 -3 -25q-8 -34 -32.5 -48.5t-57.5 -14.5q-30 0 -55 9q-11 3 -9 15z" />
    <glyph glyph-name="uni00B9" unicode="&#xb9;" horiz-adv-x="175" 
d="M68 836h71q5 0 8.5 -3.5t3.5 -8.5v-396q0 -5 -3.5 -8.5t-8.5 -3.5h-67q-5 0 -8.5 3.5t-3.5 8.5v323q0 4 -5 4l-20 -2h-2q-11 0 -11 12v43q0 10 9 14l22 11q5 3 15 3z" />
    <glyph glyph-name="ordmasculine" unicode="&#xba;" horiz-adv-x="326" 
d="M74 387.5q-35 27.5 -44 76.5q-7 28 -7 70q0 43 6 71q8 48 43.5 75.5t90.5 27.5q52 0 87 -27.5t44 -74.5q7 -37 7 -71t-7 -71q-9 -49 -43.5 -76.5t-87.5 -27.5q-54 0 -89 27.5zM190.5 448.5q11.5 10.5 15.5 29.5q4 23 4 56t-4 56q-4 19 -16 30t-28 11t-28 -11t-16 -30
q-4 -23 -4 -56t4 -56q3 -19 15.5 -29.5t29.5 -10.5q16 0 27.5 10.5zM24.5 243.5q-3.5 3.5 -3.5 8.5v50q0 5 3.5 8.5t8.5 3.5h262q5 0 8.5 -3.5t3.5 -8.5v-50q0 -5 -3.5 -8.5t-8.5 -3.5h-262q-5 0 -8.5 3.5z" />
    <glyph glyph-name="guillemotright" unicode="&#xbb;" horiz-adv-x="484" 
d="M60 111q-3 4 1 10l91 157q2 3 0 6l-91 157l-2 6q0 8 11 8h96q10 0 15 -8l88 -158q2 -2 2 -8q0 -5 -2 -8l-88 -158q-5 -8 -15 -8h-96q-7 0 -10 4zM227 111q-3 4 1 10l91 157q2 3 0 6l-91 157l-2 6q0 8 11 8h96q10 0 15 -8l88 -158q2 -2 2 -8q0 -5 -2 -8l-88 -158
q-5 -8 -15 -8h-96q-7 0 -10 4z" />
    <glyph glyph-name="onequarter" unicode="&#xbc;" horiz-adv-x="770" 
d="M68 700h71q5 0 8.5 -3.5t3.5 -8.5v-396q0 -5 -3.5 -8.5t-8.5 -3.5h-67q-5 0 -8.5 3.5t-3.5 8.5v323q0 4 -5 4l-20 -2h-2q-11 0 -11 12v43q0 10 9 14l22 11q5 3 15 3zM83.5 3.5q-2.5 3.5 1.5 10.5l401 678q4 8 14 8h76q7 0 9.5 -3.5t-1.5 -10.5l-401 -678q-4 -8 -14 -8
h-76q-7 0 -9.5 3.5zM749.5 183.5q3.5 -3.5 3.5 -8.5v-58q0 -5 -3.5 -8.5t-8.5 -3.5h-15q-5 0 -5 -5v-88q0 -5 -3.5 -8.5t-8.5 -3.5h-67q-5 0 -8.5 3.5t-3.5 8.5v88q0 5 -5 5h-161q-5 0 -8.5 3.5t-3.5 8.5v46q0 6 3 15l89 233q3 9 14 9h71q15 0 10 -14l-80 -213q-1 -6 4 -6
h62q5 0 5 5v58q0 5 3.5 8.5t8.5 3.5h67q5 0 8.5 -3.5t3.5 -8.5v-58q0 -5 5 -5h15q5 0 8.5 -3.5z" />
    <glyph glyph-name="onehalf" unicode="&#xbd;" horiz-adv-x="745" 
d="M68 700h71q5 0 8.5 -3.5t3.5 -8.5v-396q0 -5 -3.5 -8.5t-8.5 -3.5h-67q-5 0 -8.5 3.5t-3.5 8.5v323q0 4 -5 4l-20 -2h-2q-11 0 -11 12v43q0 10 9 14l22 11q5 3 15 3zM83.5 3.5q-2.5 3.5 1.5 10.5l401 678q4 8 14 8h76q7 0 9.5 -3.5t-1.5 -10.5l-401 -678q-4 -8 -14 -8
h-76q-7 0 -9.5 3.5zM466.5 3.5q-3.5 3.5 -3.5 8.5v57q0 9 6 15q68 76 118 136q43 55 43 85q0 19 -11 30.5t-28 11.5t-28 -11t-11 -30v-15q0 -5 -3.5 -8.5t-8.5 -3.5h-68q-5 0 -8.5 3.5t-3.5 8.5v24q3 51 39.5 80.5t92.5 29.5q59 0 94.5 -32.5t35.5 -89.5q0 -27 -9.5 -52
t-29.5 -54q-25 -34 -93 -113q-2 -2 -1 -4t4 -2h123q5 0 8.5 -3.5t3.5 -8.5v-54q0 -5 -3.5 -8.5t-8.5 -3.5h-241q-5 0 -8.5 3.5z" />
    <glyph glyph-name="threequarters" unicode="&#xbe;" horiz-adv-x="854" 
d="M283 417q0 -28 -6 -51q-11 -43 -42.5 -66.5t-79.5 -23.5q-49 0 -82.5 25.5t-42.5 68.5q-4 16 -6 36q0 12 12 12h67q12 0 13 -12q0 -10 3 -19q4 -15 13.5 -23.5t22.5 -8.5q25 0 34 25q6 17 6 43q0 30 -7 47q-9 23 -33 23q-11 0 -21 -7q-3 -2 -7 -2q-6 0 -10 4l-32 37
q-4 4 -4 9q0 4 4 8l80 76q2 2 1 4t-4 2h-117q-5 0 -8.5 3.5t-3.5 8.5v53q0 5 3.5 8.5t8.5 3.5h222q5 0 8.5 -3.5t3.5 -8.5v-56q0 -9 -6 -15l-62 -65q-3 -5 1 -6q44 -13 62 -69q9 -27 9 -61zM167.5 3.5q-2.5 3.5 1.5 10.5l401 678q4 8 14 8h76q7 0 9.5 -3.5t-1.5 -10.5
l-401 -678q-4 -8 -14 -8h-76q-7 0 -9.5 3.5zM833.5 183.5q3.5 -3.5 3.5 -8.5v-58q0 -5 -3.5 -8.5t-8.5 -3.5h-15q-5 0 -5 -5v-88q0 -5 -3.5 -8.5t-8.5 -3.5h-67q-5 0 -8.5 3.5t-3.5 8.5v88q0 5 -5 5h-161q-5 0 -8.5 3.5t-3.5 8.5v46q0 6 3 15l89 233q3 9 14 9h71
q15 0 10 -14l-80 -213q-1 -6 4 -6h62q5 0 5 5v58q0 5 3.5 8.5t8.5 3.5h67q5 0 8.5 -3.5t3.5 -8.5v-58q0 -5 5 -5h15q5 0 8.5 -3.5z" />
    <glyph glyph-name="questiondown" unicode="&#xbf;" horiz-adv-x="479" 
d="M306.5 478.5q23.5 -23.5 23.5 -56.5t-24 -56.5t-57 -23.5t-57.5 23.5t-24.5 56.5t24 56.5t58 23.5t57.5 -23.5zM321.5 274.5q3.5 -3.5 3.5 -8.5v-32q0 -50 -23 -81t-67 -64q-35 -27 -52 -48t-17 -51q0 -32 19.5 -51.5t52.5 -19.5q36 0 56.5 20.5t20.5 54.5v16q0 11 12 11
l117 -5q12 0 12 -11v-11q0 -60 -28 -106.5t-78.5 -72t-115.5 -25.5q-96 0 -153.5 53.5t-57.5 141.5q0 44 14 75.5t34 51.5t51 44q33 25 48 43t15 44v23q0 5 3.5 8.5t8.5 3.5h116q5 0 8.5 -3.5z" />
    <glyph glyph-name="Agrave" unicode="&#xc0;" horiz-adv-x="586" 
d="M414 10l-23 98q-1 4 -5 4h-187q-4 0 -5 -4l-23 -98q-3 -10 -14 -10h-121q-13 0 -10 13l180 677q3 10 14 10h145q11 0 14 -10l181 -677l1 -4q0 -9 -11 -9h-123q-10 0 -13 10zM223 222.5q2 -1.5 4 -1.5h132q2 0 4 1.5t1 4.5l-67 284q-1 4 -3 3.5t-3 -3.5l-69 -284
q-1 -3 1 -4.5zM348 768q0 -8 -11 -8h-92q-9 0 -14 7l-73 101q-3 5 -3 8q0 7 10 7h109q10 0 15 -8l57 -101z" />
    <glyph glyph-name="Aacute" unicode="&#xc1;" horiz-adv-x="586" 
d="M414 10l-23 98q-1 4 -5 4h-187q-4 0 -5 -4l-23 -98q-3 -10 -14 -10h-121q-13 0 -10 13l180 677q3 10 14 10h145q11 0 14 -10l181 -677l1 -4q0 -9 -11 -9h-123q-10 0 -13 10zM223 222.5q2 -1.5 4 -1.5h132q2 0 4 1.5t1 4.5l-67 284q-1 4 -3 3.5t-3 -3.5l-69 -284
q-1 -3 1 -4.5zM224 764q-3 4 1 10l57 101q5 8 15 8h109q10 0 10 -7q0 -3 -3 -8l-73 -101q-5 -7 -14 -7h-92q-7 0 -10 4z" />
    <glyph glyph-name="Acircumflex" unicode="&#xc2;" horiz-adv-x="586" 
d="M414 10l-23 98q-1 4 -5 4h-187q-4 0 -5 -4l-23 -98q-3 -10 -14 -10h-121q-13 0 -10 13l180 677q3 10 14 10h145q11 0 14 -10l181 -677l1 -4q0 -9 -11 -9h-123q-10 0 -13 10zM223 222.5q2 -1.5 4 -1.5h132q2 0 4 1.5t1 4.5l-67 284q-1 4 -3 3.5t-3 -3.5l-69 -284
q-1 -3 1 -4.5zM143.5 761.5q-2.5 4.5 1.5 10.5l71 104q5 8 14 8h119q9 0 14 -8l74 -104q3 -4 3 -7q0 -8 -11 -8h-85q-11 0 -15 8l-35 59q-3 6 -6 0l-35 -59q-4 -8 -15 -8h-85q-7 0 -9.5 4.5z" />
    <glyph glyph-name="Atilde" unicode="&#xc3;" horiz-adv-x="586" 
d="M414 10l-23 98q-1 4 -5 4h-187q-4 0 -5 -4l-23 -98q-3 -10 -14 -10h-121q-13 0 -10 13l180 677q3 10 14 10h145q11 0 14 -10l181 -677l1 -4q0 -9 -11 -9h-123q-10 0 -13 10zM223 222.5q2 -1.5 4 -1.5h132q2 0 4 1.5t1 4.5l-67 284q-1 4 -3 3.5t-3 -3.5l-69 -284
q-1 -3 1 -4.5zM299 784q-4 2 -13 7.5t-15 8t-13 2.5q-23 0 -37 -22q-7 -10 -17 -4l-42 30q-9 7 -5 16q14 35 38 52.5t53 17.5q17 0 31 -5.5t33 -17.5q15 -9 24.5 -13.5t19.5 -4.5q24 0 37 21q6 11 16 4l43 -29q5 -3 5 -10q0 -6 -4 -13q-17 -31 -43 -46t-51 -15q-26 0 -60 21
z" />
    <glyph glyph-name="Adieresis" unicode="&#xc4;" horiz-adv-x="586" 
d="M414 10l-23 98q-1 4 -5 4h-187q-4 0 -5 -4l-23 -98q-3 -10 -14 -10h-121q-13 0 -10 13l180 677q3 10 14 10h145q11 0 14 -10l181 -677l1 -4q0 -9 -11 -9h-123q-10 0 -13 10zM223 222.5q2 -1.5 4 -1.5h132q2 0 4 1.5t1 4.5l-67 284q-1 4 -3 3.5t-3 -3.5l-69 -284
q-1 -3 1 -4.5zM152.5 775q-19.5 20 -19.5 51q0 32 19.5 51.5t51.5 19.5q31 0 49.5 -19.5t18.5 -51.5t-18.5 -51.5t-49.5 -19.5q-32 0 -51.5 20zM332.5 775q-19.5 20 -19.5 51t19.5 51t50.5 20t50.5 -19.5t19.5 -51.5t-19.5 -51.5t-50.5 -19.5t-50.5 20z" />
    <glyph glyph-name="Aring" unicode="&#xc5;" horiz-adv-x="586" 
d="M414 10l-23 98q-1 4 -5 4h-187q-4 0 -5 -4l-23 -98q-3 -10 -14 -10h-121q-13 0 -10 13l180 677q3 10 14 10h145q11 0 14 -10l181 -677l1 -4q0 -9 -11 -9h-123q-10 0 -13 10zM223 222.5q2 -1.5 4 -1.5h132q2 0 4 1.5t1 4.5l-67 284q-1 4 -3 3.5t-3 -3.5l-69 -284
q-1 -3 1 -4.5zM213 779q-32 32 -32 79t32 79t79 32t79 -32t32 -79t-32 -79t-79 -32t-79 32zM325.5 824.5q13.5 13.5 13.5 33.5t-13.5 34t-33.5 14t-33.5 -14t-13.5 -34t13.5 -33.5t33.5 -13.5t33.5 13.5z" />
    <glyph glyph-name="AE" unicode="&#xc6;" horiz-adv-x="862" 
d="M826.5 582.5q-3.5 -3.5 -8.5 -3.5h-264q-5 0 -5 -5v-156q0 -5 5 -5h163q5 0 8.5 -3.5t3.5 -8.5v-97q0 -5 -3.5 -8.5t-8.5 -3.5h-163q-5 0 -5 -5v-161q0 -5 5 -5h264q5 0 8.5 -3.5t3.5 -8.5v-97q0 -5 -3.5 -8.5t-8.5 -3.5h-398q-5 0 -8.5 3.5t-3.5 8.5v95q0 5 -5 5h-176
q-4 0 -6 -4l-43 -99q-4 -9 -14 -9h-126q-7 0 -10 3.5t0 10.5l312 677q4 9 14 9h464q5 0 8.5 -3.5t3.5 -8.5v-97q0 -5 -3.5 -8.5zM274 223q1 -2 3 -2h126q5 0 5 5v291q0 4 -2 4t-4 -3l-128 -291q-1 -2 0 -4z" />
    <glyph glyph-name="Ccedilla" unicode="&#xc7;" horiz-adv-x="536" 
d="M495.5 480q-3.5 -3 -8.5 -3l-117 -5q-12 0 -12 11v13q0 41 -24 66t-64 25t-64 -25t-24 -66v-293q0 -41 24 -65.5t64 -24.5t64 24.5t24 65.5v13q0 11 12 11l117 -5q12 0 12 -7v-8q0 -87 -50 -143.5t-136 -68.5q-6 -2 -2 -6q40 -41 40 -86q0 -8 -4 -26q-8 -34 -32.5 -48.5
t-57.5 -14.5q-30 0 -55 9q-10 3 -9 15l7 48q1 6 4.5 8t10.5 0q8 -2 12 -2q12 0 20 6t10 18q1 3 1 9q0 33 -47 71l-6 3q-76 18 -120 74t-44 139v278q0 65 28.5 114.5t80.5 76.5t120 27t120 -26.5t80.5 -74.5t28.5 -112v-8q0 -4 -3.5 -7z" />
    <glyph glyph-name="Egrave" unicode="&#xc8;" horiz-adv-x="511" 
d="M475.5 582.5q-3.5 -3.5 -8.5 -3.5h-268q-5 0 -5 -5v-156q0 -5 5 -5h167q5 0 8.5 -3.5t3.5 -8.5v-97q0 -5 -3.5 -8.5t-8.5 -3.5h-167q-5 0 -5 -5v-161q0 -5 5 -5h268q5 0 8.5 -3.5t3.5 -8.5v-97q0 -5 -3.5 -8.5t-8.5 -3.5h-402q-5 0 -8.5 3.5t-3.5 8.5v676q0 5 3.5 8.5
t8.5 3.5h402q5 0 8.5 -3.5t3.5 -8.5v-97q0 -5 -3.5 -8.5zM321 780q0 -8 -11 -8h-92q-9 0 -14 7l-73 101q-3 5 -3 8q0 7 10 7h109q10 0 15 -8l57 -101z" />
    <glyph glyph-name="Eacute" unicode="&#xc9;" horiz-adv-x="511" 
d="M475.5 582.5q-3.5 -3.5 -8.5 -3.5h-268q-5 0 -5 -5v-156q0 -5 5 -5h167q5 0 8.5 -3.5t3.5 -8.5v-97q0 -5 -3.5 -8.5t-8.5 -3.5h-167q-5 0 -5 -5v-161q0 -5 5 -5h268q5 0 8.5 -3.5t3.5 -8.5v-97q0 -5 -3.5 -8.5t-8.5 -3.5h-402q-5 0 -8.5 3.5t-3.5 8.5v676q0 5 3.5 8.5
t8.5 3.5h402q5 0 8.5 -3.5t3.5 -8.5v-97q0 -5 -3.5 -8.5zM197 776q-3 4 1 10l57 101q5 8 15 8h109q10 0 10 -7q0 -3 -3 -8l-73 -101q-5 -7 -14 -7h-92q-7 0 -10 4z" />
    <glyph glyph-name="Ecircumflex" unicode="&#xca;" horiz-adv-x="511" 
d="M475.5 582.5q-3.5 -3.5 -8.5 -3.5h-268q-5 0 -5 -5v-156q0 -5 5 -5h167q5 0 8.5 -3.5t3.5 -8.5v-97q0 -5 -3.5 -8.5t-8.5 -3.5h-167q-5 0 -5 -5v-161q0 -5 5 -5h268q5 0 8.5 -3.5t3.5 -8.5v-97q0 -5 -3.5 -8.5t-8.5 -3.5h-402q-5 0 -8.5 3.5t-3.5 8.5v676q0 5 3.5 8.5
t8.5 3.5h402q5 0 8.5 -3.5t3.5 -8.5v-97q0 -5 -3.5 -8.5zM116.5 773.5q-2.5 4.5 1.5 10.5l71 104q5 8 14 8h119q9 0 14 -8l74 -104q3 -4 3 -7q0 -8 -11 -8h-85q-11 0 -15 8l-35 59q-3 6 -6 0l-35 -59q-4 -8 -15 -8h-85q-7 0 -9.5 4.5z" />
    <glyph glyph-name="Edieresis" unicode="&#xcb;" horiz-adv-x="511" 
d="M475.5 582.5q-3.5 -3.5 -8.5 -3.5h-268q-5 0 -5 -5v-156q0 -5 5 -5h167q5 0 8.5 -3.5t3.5 -8.5v-97q0 -5 -3.5 -8.5t-8.5 -3.5h-167q-5 0 -5 -5v-161q0 -5 5 -5h268q5 0 8.5 -3.5t3.5 -8.5v-97q0 -5 -3.5 -8.5t-8.5 -3.5h-402q-5 0 -8.5 3.5t-3.5 8.5v676q0 5 3.5 8.5
t8.5 3.5h402q5 0 8.5 -3.5t3.5 -8.5v-97q0 -5 -3.5 -8.5zM125.5 787q-19.5 20 -19.5 51q0 32 19.5 51.5t51.5 19.5q31 0 49.5 -19.5t18.5 -51.5t-18.5 -51.5t-49.5 -19.5q-32 0 -51.5 20zM305.5 787q-19.5 20 -19.5 51t19.5 51t50.5 20t50.5 -19.5t19.5 -51.5t-19.5 -51.5
t-50.5 -19.5t-50.5 20z" />
    <glyph glyph-name="Igrave" unicode="&#xcc;" horiz-adv-x="246" 
d="M56.5 3.5q-3.5 3.5 -3.5 8.5v676q0 5 3.5 8.5t8.5 3.5h117q5 0 8.5 -3.5t3.5 -8.5v-676q0 -5 -3.5 -8.5t-8.5 -3.5h-117q-5 0 -8.5 3.5zM179 780q0 -8 -11 -8h-92q-9 0 -14 7l-73 101q-3 5 -3 8q0 7 10 7h109q10 0 15 -8l57 -101z" />
    <glyph glyph-name="Iacute" unicode="&#xcd;" horiz-adv-x="246" 
d="M56.5 3.5q-3.5 3.5 -3.5 8.5v676q0 5 3.5 8.5t8.5 3.5h117q5 0 8.5 -3.5t3.5 -8.5v-676q0 -5 -3.5 -8.5t-8.5 -3.5h-117q-5 0 -8.5 3.5zM55 776q-3 4 1 10l57 101q5 8 15 8h109q10 0 10 -7q0 -3 -3 -8l-73 -101q-5 -7 -14 -7h-92q-7 0 -10 4z" />
    <glyph glyph-name="Icircumflex" unicode="&#xce;" horiz-adv-x="246" 
d="M56.5 3.5q-3.5 3.5 -3.5 8.5v676q0 5 3.5 8.5t8.5 3.5h117q5 0 8.5 -3.5t3.5 -8.5v-676q0 -5 -3.5 -8.5t-8.5 -3.5h-117q-5 0 -8.5 3.5zM-25.5 773.5q-2.5 4.5 1.5 10.5l71 104q5 8 14 8h119q9 0 14 -8l74 -104q3 -4 3 -7q0 -8 -11 -8h-85q-11 0 -15 8l-35 59q-3 6 -6 0
l-35 -59q-4 -8 -15 -8h-85q-7 0 -9.5 4.5z" />
    <glyph glyph-name="Idieresis" unicode="&#xcf;" horiz-adv-x="246" 
d="M56.5 3.5q-3.5 3.5 -3.5 8.5v676q0 5 3.5 8.5t8.5 3.5h117q5 0 8.5 -3.5t3.5 -8.5v-676q0 -5 -3.5 -8.5t-8.5 -3.5h-117q-5 0 -8.5 3.5zM-16.5 787q-19.5 20 -19.5 51q0 32 19.5 51.5t51.5 19.5q31 0 49.5 -19.5t18.5 -51.5t-18.5 -51.5t-49.5 -19.5q-32 0 -51.5 20z
M163.5 787q-19.5 20 -19.5 51t19.5 51t50.5 20t50.5 -19.5t19.5 -51.5t-19.5 -51.5t-50.5 -19.5t-50.5 20z" />
    <glyph glyph-name="Eth" unicode="&#xd0;" horiz-adv-x="588" 
d="M439.5 675q51.5 -25 79.5 -71t28 -107v-294q0 -61 -28 -107t-79.5 -71t-118.5 -25h-215q-5 0 -8.5 3.5t-3.5 8.5v302q0 5 -5 5h-24q-5 0 -8.5 3.5t-3.5 8.5v65q0 5 3.5 8.5t8.5 3.5h24q5 0 5 5v275q0 5 3.5 8.5t8.5 3.5h215q67 0 118.5 -25zM406 481q0 45 -23 71.5
t-61 26.5h-82q-5 0 -5 -5v-161q0 -5 5 -5h58q5 0 8.5 -3.5t3.5 -8.5v-65q0 -5 -3.5 -8.5t-8.5 -3.5h-58q-5 0 -5 -5v-188q0 -5 5 -5l82 1q37 0 60 26.5t24 70.5v262z" />
    <glyph glyph-name="Ntilde" unicode="&#xd1;" horiz-adv-x="586" 
d="M56.5 3.5q-3.5 3.5 -3.5 8.5v676q0 5 3.5 8.5t8.5 3.5h118q10 0 14 -9l192 -399q2 -3 4 -2.5t2 4.5l-1 394q0 5 3.5 8.5t8.5 3.5h116q5 0 8.5 -3.5t3.5 -8.5v-676q0 -5 -3.5 -8.5t-8.5 -3.5h-119q-9 0 -14 9l-192 402q-2 3 -4 2.5t-2 -4.5l2 -397q0 -5 -3.5 -8.5
t-8.5 -3.5h-116q-5 0 -8.5 3.5zM296 797q-4 2 -13 7.5t-15 8t-13 2.5q-23 0 -37 -22q-7 -10 -17 -4l-42 30q-9 7 -5 16q14 35 38 52.5t53 17.5q17 0 31 -5.5t33 -17.5q15 -9 24.5 -13.5t19.5 -4.5q24 0 37 21q6 11 16 4l43 -29q5 -3 5 -10q0 -6 -4 -13q-17 -31 -43 -46
t-51 -15q-26 0 -60 21z" />
    <glyph glyph-name="Ograve" unicode="&#xd2;" horiz-adv-x="547" 
d="M151.5 19q-52.5 28 -81.5 79t-29 119v266q0 67 29 118t81.5 79t121.5 28t122 -28t82 -79t29 -118v-266q0 -68 -29 -119t-82 -79t-122 -28t-121.5 28zM340 139.5q25 27.5 25 71.5v276q0 45 -25 72.5t-67 27.5q-41 0 -66 -27.5t-25 -72.5v-276q0 -44 25 -71.5t66 -27.5
q42 0 67 27.5zM329 775q0 -8 -11 -8h-92q-9 0 -14 7l-73 101q-3 5 -3 8q0 7 10 7h109q10 0 15 -8l57 -101z" />
    <glyph glyph-name="Oacute" unicode="&#xd3;" horiz-adv-x="547" 
d="M151.5 19q-52.5 28 -81.5 79t-29 119v266q0 67 29 118t81.5 79t121.5 28t122 -28t82 -79t29 -118v-266q0 -68 -29 -119t-82 -79t-122 -28t-121.5 28zM340 139.5q25 27.5 25 71.5v276q0 45 -25 72.5t-67 27.5q-41 0 -66 -27.5t-25 -72.5v-276q0 -44 25 -71.5t66 -27.5
q42 0 67 27.5zM205 771q-3 4 1 10l57 101q5 8 15 8h109q10 0 10 -7q0 -3 -3 -8l-73 -101q-5 -7 -14 -7h-92q-7 0 -10 4z" />
    <glyph glyph-name="Ocircumflex" unicode="&#xd4;" horiz-adv-x="547" 
d="M151.5 19q-52.5 28 -81.5 79t-29 119v266q0 67 29 118t81.5 79t121.5 28t122 -28t82 -79t29 -118v-266q0 -68 -29 -119t-82 -79t-122 -28t-121.5 28zM340 139.5q25 27.5 25 71.5v276q0 45 -25 72.5t-67 27.5q-41 0 -66 -27.5t-25 -72.5v-276q0 -44 25 -71.5t66 -27.5
q42 0 67 27.5zM124.5 768.5q-2.5 4.5 1.5 10.5l71 104q5 8 14 8h119q9 0 14 -8l74 -104q3 -4 3 -7q0 -8 -11 -8h-85q-11 0 -15 8l-35 59q-3 6 -6 0l-35 -59q-4 -8 -15 -8h-85q-7 0 -9.5 4.5z" />
    <glyph glyph-name="Otilde" unicode="&#xd5;" horiz-adv-x="547" 
d="M151.5 19q-52.5 28 -81.5 79t-29 119v266q0 67 29 118t81.5 79t121.5 28t122 -28t82 -79t29 -118v-266q0 -68 -29 -119t-82 -79t-122 -28t-121.5 28zM340 139.5q25 27.5 25 71.5v276q0 45 -25 72.5t-67 27.5q-41 0 -66 -27.5t-25 -72.5v-276q0 -44 25 -71.5t66 -27.5
q42 0 67 27.5zM280 791q-4 2 -13 7.5t-15 8t-13 2.5q-23 0 -37 -22q-7 -10 -17 -4l-42 30q-9 7 -5 16q14 35 38 52.5t53 17.5q17 0 31 -5.5t33 -17.5q15 -9 24.5 -13.5t19.5 -4.5q24 0 37 21q6 11 16 4l43 -29q5 -3 5 -10q0 -6 -4 -13q-17 -31 -43 -46t-51 -15q-26 0 -60 21
z" />
    <glyph glyph-name="Odieresis" unicode="&#xd6;" horiz-adv-x="547" 
d="M151.5 19q-52.5 28 -81.5 79t-29 119v266q0 67 29 118t81.5 79t121.5 28t122 -28t82 -79t29 -118v-266q0 -68 -29 -119t-82 -79t-122 -28t-121.5 28zM340 139.5q25 27.5 25 71.5v276q0 45 -25 72.5t-67 27.5q-41 0 -66 -27.5t-25 -72.5v-276q0 -44 25 -71.5t66 -27.5
q42 0 67 27.5zM133.5 782q-19.5 20 -19.5 51q0 32 19.5 51.5t51.5 19.5q31 0 49.5 -19.5t18.5 -51.5t-18.5 -51.5t-49.5 -19.5q-32 0 -51.5 20zM313.5 782q-19.5 20 -19.5 51t19.5 51t50.5 20t50.5 -19.5t19.5 -51.5t-19.5 -51.5t-50.5 -19.5t-50.5 20z" />
    <glyph glyph-name="multiply" unicode="&#xd7;" horiz-adv-x="422" 
d="M392 417q0 -4 -4 -8l-92 -92q-2 -2 -2 -4t2 -4l92 -92q4 -3 4 -8q0 -4 -4 -8l-65 -65q-4 -4 -8 -4q-2 0 -8 4l-92 92q-2 2 -4 2t-4 -2l-93 -93q-4 -4 -8 -4q-2 0 -8 4l-64 64q-4 6 -4 8q0 4 4 8l93 93q2 2 2 4t-2 4l-93 93q-4 6 -4 8q0 3 4 9l64 64q4 4 9 4q4 0 8 -4
l93 -93q2 -2 4 -2t4 2l92 92q4 4 8 4q5 0 8 -4l64 -64q4 -3 4 -8z" />
    <glyph glyph-name="Oslash" unicode="&#xd8;" horiz-adv-x="560" 
d="M454 639q27 -30 41.5 -70t14.5 -86v-266q0 -68 -29 -119t-82 -79t-122 -28q-65 0 -117 26q-5 2 -7 -3l-20 -42q-4 -9 -14 -9h-51q-7 0 -9.5 3.5t0.5 10.5l38 82q2 4 -1 7q-51 59 -51 151v266q0 67 29 118t81.5 79t121.5 28q61 0 111 -22q5 -2 6 2l21 43q5 9 14 9h52
q7 0 9.5 -3.5t-0.5 -10.5l-37 -80q-2 -4 1 -7zM186 261q0 -4 2 -4.5t4 2.5l143 303q2 4 -1 7q-22 18 -57 18q-41 0 -66 -27.5t-25 -72.5v-226zM344 139.5q25 27.5 25 71.5v245q0 4 -2 4.5t-4 -2.5l-149 -316q-2 -4 1 -7q25 -23 62 -23q42 0 67 27.5z" />
    <glyph glyph-name="Ugrave" unicode="&#xd9;" horiz-adv-x="554" 
d="M157 20q-52 28 -80.5 78.5t-28.5 116.5v473q0 5 3.5 8.5t8.5 3.5h117q5 0 8.5 -3.5t3.5 -8.5v-480q0 -43 24 -69t64 -26t64 26t24 69v480q0 5 3.5 8.5t8.5 3.5h117q5 0 8.5 -3.5t3.5 -8.5v-473q0 -66 -28.5 -116.5t-80.5 -78.5t-120 -28t-120 28zM333 780q0 -8 -11 -8
h-92q-9 0 -14 7l-73 101q-3 5 -3 8q0 7 10 7h109q10 0 15 -8l57 -101z" />
    <glyph glyph-name="Uacute" unicode="&#xda;" horiz-adv-x="554" 
d="M157 20q-52 28 -80.5 78.5t-28.5 116.5v473q0 5 3.5 8.5t8.5 3.5h117q5 0 8.5 -3.5t3.5 -8.5v-480q0 -43 24 -69t64 -26t64 26t24 69v480q0 5 3.5 8.5t8.5 3.5h117q5 0 8.5 -3.5t3.5 -8.5v-473q0 -66 -28.5 -116.5t-80.5 -78.5t-120 -28t-120 28zM209 776q-3 4 1 10
l57 101q5 8 15 8h109q10 0 10 -7q0 -3 -3 -8l-73 -101q-5 -7 -14 -7h-92q-7 0 -10 4z" />
    <glyph glyph-name="Ucircumflex" unicode="&#xdb;" horiz-adv-x="554" 
d="M157 20q-52 28 -80.5 78.5t-28.5 116.5v473q0 5 3.5 8.5t8.5 3.5h117q5 0 8.5 -3.5t3.5 -8.5v-480q0 -43 24 -69t64 -26t64 26t24 69v480q0 5 3.5 8.5t8.5 3.5h117q5 0 8.5 -3.5t3.5 -8.5v-473q0 -66 -28.5 -116.5t-80.5 -78.5t-120 -28t-120 28zM128.5 773.5
q-2.5 4.5 1.5 10.5l71 104q5 8 14 8h119q9 0 14 -8l74 -104q3 -4 3 -7q0 -8 -11 -8h-85q-11 0 -15 8l-35 59q-3 6 -6 0l-35 -59q-4 -8 -15 -8h-85q-7 0 -9.5 4.5z" />
    <glyph glyph-name="Udieresis" unicode="&#xdc;" horiz-adv-x="554" 
d="M157 20q-52 28 -80.5 78.5t-28.5 116.5v473q0 5 3.5 8.5t8.5 3.5h117q5 0 8.5 -3.5t3.5 -8.5v-480q0 -43 24 -69t64 -26t64 26t24 69v480q0 5 3.5 8.5t8.5 3.5h117q5 0 8.5 -3.5t3.5 -8.5v-473q0 -66 -28.5 -116.5t-80.5 -78.5t-120 -28t-120 28zM137.5 787
q-19.5 20 -19.5 51q0 32 19.5 51.5t51.5 19.5q31 0 49.5 -19.5t18.5 -51.5t-18.5 -51.5t-49.5 -19.5q-32 0 -51.5 20zM317.5 787q-19.5 20 -19.5 51t19.5 51t50.5 20t50.5 -19.5t19.5 -51.5t-19.5 -51.5t-50.5 -19.5t-50.5 20z" />
    <glyph glyph-name="Yacute" unicode="&#xdd;" horiz-adv-x="546" 
d="M205.5 4.5q-3.5 3.5 -3.5 8.5v256l-1 6l-173 411q-1 2 -1 6q0 8 10 8h126q11 0 14 -10l93 -253q1 -3 3 -3t3 3l93 253q3 10 14 10h126q7 0 9 -4t0 -10l-174 -411l-1 -6v-256q0 -5 -3.5 -8.5t-8.5 -3.5h-117q-5 0 -8.5 3.5zM205 764q-3 4 1 10l57 101q5 8 15 8h109
q10 0 10 -7q0 -3 -3 -8l-73 -101q-5 -7 -14 -7h-92q-7 0 -10 4z" />
    <glyph glyph-name="Thorn" unicode="&#xde;" horiz-adv-x="523" 
d="M401.5 534q46.5 -27 72.5 -75.5t26 -110.5q0 -61 -26 -108.5t-72.5 -73.5t-105.5 -26h-100q-5 0 -5 -5v-123q0 -5 -3.5 -8.5t-8.5 -3.5h-117q-5 0 -8.5 3.5t-3.5 8.5v676q0 5 3.5 8.5t8.5 3.5h117q5 0 8.5 -3.5t3.5 -8.5v-122q0 -5 5 -5h99q60 0 106.5 -27zM335.5 277.5
q23.5 24.5 23.5 67.5q0 44 -23.5 69t-62.5 25h-77q-5 0 -5 -5v-176q0 -5 5 -5h77q39 0 62.5 24.5z" />
    <glyph glyph-name="germandbls" unicode="&#xdf;" horiz-adv-x="535" 
d="M49.5 4.5q-3.5 3.5 -3.5 8.5v471q0 106 57 165t159 59q104 0 164.5 -51.5t61.5 -140.5q0 -92 -68 -134q-6 -3 0 -6q37 -23 58 -67.5t21 -103.5q0 -98 -62 -151.5t-181 -53.5h-20q-5 0 -8.5 3.5t-3.5 8.5v96q0 5 3.5 8.5t8.5 3.5l30 1q44 0 68.5 26t24.5 73q0 48 -22.5 74
t-63.5 27h-29q-5 0 -8.5 3.5t-3.5 8.5v86q0 5 3.5 8.5t8.5 3.5h30q34 0 54 21t20 56q0 36 -20 58t-60 22q-35 0 -58 -23t-23 -63v-490q0 -5 -3.5 -8.5t-8.5 -3.5l-117 1q-5 0 -8.5 3.5z" />
    <glyph glyph-name="agrave" unicode="&#xe0;" horiz-adv-x="486" 
d="M348 500.5q47 -21.5 73.5 -60t26.5 -87.5v-341q0 -5 -3.5 -8.5t-8.5 -3.5h-117q-5 0 -8.5 3.5t-3.5 8.5v27q0 3 -2 4t-4 -2q-40 -49 -120 -49q-67 0 -112 35t-45 117q0 163 204 163h74q5 0 5 5v23q0 30 -17.5 48t-48.5 18q-23 0 -39 -11t-20 -30q-3 -10 -14 -10l-121 7
q-5 0 -8.5 3t-2.5 8q5 69 61.5 111.5t142.5 42.5q61 0 108 -21.5zM283 118q24 19 24 50v42q0 5 -5 5h-57q-36 0 -57 -16t-21 -46q0 -26 16 -40t42 -14q34 0 58 19zM297 590q0 -8 -11 -8h-92q-9 0 -14 7l-73 101q-3 5 -3 8q0 7 10 7h109q10 0 15 -8l57 -101z" />
    <glyph glyph-name="aacute" unicode="&#xe1;" horiz-adv-x="486" 
d="M348 500.5q47 -21.5 73.5 -60t26.5 -87.5v-341q0 -5 -3.5 -8.5t-8.5 -3.5h-117q-5 0 -8.5 3.5t-3.5 8.5v27q0 3 -2 4t-4 -2q-40 -49 -120 -49q-67 0 -112 35t-45 117q0 163 204 163h74q5 0 5 5v23q0 30 -17.5 48t-48.5 18q-23 0 -39 -11t-20 -30q-3 -10 -14 -10l-121 7
q-5 0 -8.5 3t-2.5 8q5 69 61.5 111.5t142.5 42.5q61 0 108 -21.5zM283 118q24 19 24 50v42q0 5 -5 5h-57q-36 0 -57 -16t-21 -46q0 -26 16 -40t42 -14q34 0 58 19zM173 586q-3 4 1 10l57 101q5 8 15 8h109q10 0 10 -7q0 -3 -3 -8l-73 -101q-5 -7 -14 -7h-92q-7 0 -10 4z" />
    <glyph glyph-name="acircumflex" unicode="&#xe2;" horiz-adv-x="486" 
d="M348 500.5q47 -21.5 73.5 -60t26.5 -87.5v-341q0 -5 -3.5 -8.5t-8.5 -3.5h-117q-5 0 -8.5 3.5t-3.5 8.5v27q0 3 -2 4t-4 -2q-40 -49 -120 -49q-67 0 -112 35t-45 117q0 163 204 163h74q5 0 5 5v23q0 30 -17.5 48t-48.5 18q-23 0 -39 -11t-20 -30q-3 -10 -14 -10l-121 7
q-5 0 -8.5 3t-2.5 8q5 69 61.5 111.5t142.5 42.5q61 0 108 -21.5zM283 118q24 19 24 50v42q0 5 -5 5h-57q-36 0 -57 -16t-21 -46q0 -26 16 -40t42 -14q34 0 58 19zM92.5 583.5q-2.5 4.5 1.5 10.5l71 104q5 8 14 8h119q9 0 14 -8l74 -104q3 -4 3 -7q0 -8 -11 -8h-85
q-11 0 -15 8l-35 59q-3 6 -6 0l-35 -59q-4 -8 -15 -8h-85q-7 0 -9.5 4.5z" />
    <glyph glyph-name="atilde" unicode="&#xe3;" horiz-adv-x="486" 
d="M348 500.5q47 -21.5 73.5 -60t26.5 -87.5v-341q0 -5 -3.5 -8.5t-8.5 -3.5h-117q-5 0 -8.5 3.5t-3.5 8.5v27q0 3 -2 4t-4 -2q-40 -49 -120 -49q-67 0 -112 35t-45 117q0 163 204 163h74q5 0 5 5v23q0 30 -17.5 48t-48.5 18q-23 0 -39 -11t-20 -30q-3 -10 -14 -10l-121 7
q-5 0 -8.5 3t-2.5 8q5 69 61.5 111.5t142.5 42.5q61 0 108 -21.5zM283 118q24 19 24 50v42q0 5 -5 5h-57q-36 0 -57 -16t-21 -46q0 -26 16 -40t42 -14q34 0 58 19zM248 606q-4 2 -13 7.5t-15 8t-13 2.5q-23 0 -37 -22q-7 -10 -17 -4l-42 30q-9 7 -5 16q14 35 38 52.5
t53 17.5q17 0 31 -5.5t33 -17.5q15 -9 24.5 -13.5t19.5 -4.5q24 0 37 21q6 11 16 4l43 -29q5 -3 5 -10q0 -6 -4 -13q-17 -31 -43 -46t-51 -15q-26 0 -60 21z" />
    <glyph glyph-name="adieresis" unicode="&#xe4;" horiz-adv-x="486" 
d="M348 500.5q47 -21.5 73.5 -60t26.5 -87.5v-341q0 -5 -3.5 -8.5t-8.5 -3.5h-117q-5 0 -8.5 3.5t-3.5 8.5v27q0 3 -2 4t-4 -2q-40 -49 -120 -49q-67 0 -112 35t-45 117q0 163 204 163h74q5 0 5 5v23q0 30 -17.5 48t-48.5 18q-23 0 -39 -11t-20 -30q-3 -10 -14 -10l-121 7
q-5 0 -8.5 3t-2.5 8q5 69 61.5 111.5t142.5 42.5q61 0 108 -21.5zM283 118q24 19 24 50v42q0 5 -5 5h-57q-36 0 -57 -16t-21 -46q0 -26 16 -40t42 -14q34 0 58 19zM101.5 597q-19.5 20 -19.5 51q0 32 19.5 51.5t51.5 19.5q31 0 49.5 -19.5t18.5 -51.5t-18.5 -51.5
t-49.5 -19.5q-32 0 -51.5 20zM281.5 597q-19.5 20 -19.5 51t19.5 51t50.5 20t50.5 -19.5t19.5 -51.5t-19.5 -51.5t-50.5 -19.5t-50.5 20z" />
    <glyph glyph-name="aring" unicode="&#xe5;" horiz-adv-x="486" 
d="M348 500.5q47 -21.5 73.5 -60t26.5 -87.5v-341q0 -5 -3.5 -8.5t-8.5 -3.5h-117q-5 0 -8.5 3.5t-3.5 8.5v27q0 3 -2 4t-4 -2q-40 -49 -120 -49q-67 0 -112 35t-45 117q0 163 204 163h74q5 0 5 5v23q0 30 -17.5 48t-48.5 18q-23 0 -39 -11t-20 -30q-3 -10 -14 -10l-121 7
q-5 0 -8.5 3t-2.5 8q5 69 61.5 111.5t142.5 42.5q61 0 108 -21.5zM283 118q24 19 24 50v42q0 5 -5 5h-57q-36 0 -57 -16t-21 -46q0 -26 16 -40t42 -14q34 0 58 19zM162 601q-32 32 -32 79t32 79t79 32t79 -32t32 -79t-32 -79t-79 -32t-79 32zM274.5 646.5
q13.5 13.5 13.5 33.5t-13.5 34t-33.5 14t-33.5 -14t-13.5 -34t13.5 -33.5t33.5 -13.5t33.5 13.5z" />
    <glyph glyph-name="ae" unicode="&#xe6;" horiz-adv-x="762" 
d="M73 26.5q-49 34.5 -49 117.5q0 158 201 158h76q5 0 5 5v26q0 31 -17.5 49.5t-49.5 18.5q-24 0 -41.5 -11t-21.5 -30q-3 -12 -14 -10l-118 9q-12 2 -11 13q4 44 31.5 78t72 53t96.5 19q46 0 83.5 -17.5t60.5 -45.5q3 -3 6 0q22 27 59.5 45t83.5 18q76 0 131.5 -43.5
t66.5 -114.5q7 -59 7 -143q0 -12 -12 -12h-261q-5 0 -5 -5q0 -15 1 -27q4 -29 26 -45t54 -16q51 0 76 42q7 10 16 6l86 -35q11 -5 8 -15q-19 -57 -67.5 -89.5t-118.5 -32.5q-56 0 -98 20t-56 49q-4 6 -5 3q-16 -31 -64.5 -51.5t-113.5 -20.5q-75 0 -124 34.5zM457 302h127
q5 0 5 5q0 12 -2 34q-5 27 -22.5 43.5t-43.5 16.5q-27 0 -44.5 -16.5t-21.5 -43.5q-1 -4 -3 -34q0 -5 5 -5zM282 113.5q24 18.5 24 49.5v41q0 5 -5 5h-57q-36 0 -57 -15t-21 -43q0 -26 16.5 -41t44.5 -15q31 0 55 18.5z" />
    <glyph glyph-name="ccedilla" unicode="&#xe7;" horiz-adv-x="486" 
d="M317 181q1 5 4.5 8.5t8.5 2.5l116 -10q11 -2 11 -13q0 -6 -2 -20q-9 -61 -50 -101t-105 -52q-6 -2 -2 -6q41 -41 41 -87q0 -8 -4 -26q-8 -34 -32.5 -48.5t-57.5 -14.5q-30 0 -55 9q-11 3 -9 15l7 48q1 6 4.5 8t10.5 0q8 -2 12 -2q12 0 20 6t10 18q1 3 1 9q0 33 -45 69
l-6 3q-62 12 -101.5 52t-50.5 102q-8 41 -8 108q0 50 8 106q13 72 68 114.5t138 42.5q81 0 136.5 -41t68.5 -108q2 -9 4 -29q0 -11 -12 -13l-115 -11h-2q-9 0 -11 11q0 7 -1 10q-2 8 -4 14q-6 20 -23 33t-42 13q-27 0 -44 -16t-22 -44q-6 -33 -6 -83q0 -55 7 -86
q5 -27 21.5 -43t43.5 -16q29 0 46.5 16t20.5 40z" />
    <glyph glyph-name="egrave" unicode="&#xe8;" horiz-adv-x="492" 
d="M304 126q18 13 28 34q5 11 15 8l95 -20q12 -3 9 -15q-20 -66 -71.5 -103.5t-127.5 -37.5q-79 0 -132 40.5t-69 107.5q-14 50 -14 125q0 50 4 82q10 82 63.5 129t143.5 47q96 0 147.5 -50.5t60.5 -143.5q5 -53 5 -103q0 -12 -12 -12h-266q-5 0 -5 -5q0 -21 3 -36
q5 -28 26 -44.5t52 -16.5q27 1 45 14zM182 343q-2 -10 -4 -36q0 -5 5 -5h130q5 0 5 5q0 12 -4 34q-4 28 -21 44t-46 16q-54 0 -65 -58zM303 591q0 -8 -11 -8h-92q-9 0 -14 7l-73 101q-3 5 -3 8q0 7 10 7h109q10 0 15 -8l57 -101z" />
    <glyph glyph-name="eacute" unicode="&#xe9;" horiz-adv-x="492" 
d="M304 126q18 13 28 34q5 11 15 8l95 -20q12 -3 9 -15q-20 -66 -71.5 -103.5t-127.5 -37.5q-79 0 -132 40.5t-69 107.5q-14 50 -14 125q0 50 4 82q10 82 63.5 129t143.5 47q96 0 147.5 -50.5t60.5 -143.5q5 -53 5 -103q0 -12 -12 -12h-266q-5 0 -5 -5q0 -21 3 -36
q5 -28 26 -44.5t52 -16.5q27 1 45 14zM182 343q-2 -10 -4 -36q0 -5 5 -5h130q5 0 5 5q0 12 -4 34q-4 28 -21 44t-46 16q-54 0 -65 -58zM179 587q-3 4 1 10l57 101q5 8 15 8h109q10 0 10 -7q0 -3 -3 -8l-73 -101q-5 -7 -14 -7h-92q-7 0 -10 4z" />
    <glyph glyph-name="ecircumflex" unicode="&#xea;" horiz-adv-x="492" 
d="M304 126q18 13 28 34q5 11 15 8l95 -20q12 -3 9 -15q-20 -66 -71.5 -103.5t-127.5 -37.5q-79 0 -132 40.5t-69 107.5q-14 50 -14 125q0 50 4 82q10 82 63.5 129t143.5 47q96 0 147.5 -50.5t60.5 -143.5q5 -53 5 -103q0 -12 -12 -12h-266q-5 0 -5 -5q0 -21 3 -36
q5 -28 26 -44.5t52 -16.5q27 1 45 14zM182 343q-2 -10 -4 -36q0 -5 5 -5h130q5 0 5 5q0 12 -4 34q-4 28 -21 44t-46 16q-54 0 -65 -58zM98.5 584.5q-2.5 4.5 1.5 10.5l71 104q5 8 14 8h119q9 0 14 -8l74 -104q3 -4 3 -7q0 -8 -11 -8h-85q-11 0 -15 8l-35 59q-3 6 -6 0
l-35 -59q-4 -8 -15 -8h-85q-7 0 -9.5 4.5z" />
    <glyph glyph-name="edieresis" unicode="&#xeb;" horiz-adv-x="492" 
d="M304 126q18 13 28 34q5 11 15 8l95 -20q12 -3 9 -15q-20 -66 -71.5 -103.5t-127.5 -37.5q-79 0 -132 40.5t-69 107.5q-14 50 -14 125q0 50 4 82q10 82 63.5 129t143.5 47q96 0 147.5 -50.5t60.5 -143.5q5 -53 5 -103q0 -12 -12 -12h-266q-5 0 -5 -5q0 -21 3 -36
q5 -28 26 -44.5t52 -16.5q27 1 45 14zM182 343q-2 -10 -4 -36q0 -5 5 -5h130q5 0 5 5q0 12 -4 34q-4 28 -21 44t-46 16q-54 0 -65 -58zM107.5 598q-19.5 20 -19.5 51q0 32 19.5 51.5t51.5 19.5q31 0 49.5 -19.5t18.5 -51.5t-18.5 -51.5t-49.5 -19.5q-32 0 -51.5 20z
M287.5 598q-19.5 20 -19.5 51t19.5 51t50.5 20t50.5 -19.5t19.5 -51.5t-19.5 -51.5t-50.5 -19.5t-50.5 20z" />
    <glyph glyph-name="igrave" unicode="&#xec;" horiz-adv-x="229" 
d="M46.5 3.5q-3.5 3.5 -3.5 8.5v490q0 5 3.5 8.5t8.5 3.5h117q5 0 8.5 -3.5t3.5 -8.5v-490q0 -5 -3.5 -8.5t-8.5 -3.5h-117q-5 0 -8.5 3.5zM168 594q0 -8 -11 -8h-92q-9 0 -14 7l-73 101q-3 5 -3 8q0 7 10 7h109q10 0 15 -8l57 -101z" />
    <glyph glyph-name="iacute" unicode="&#xed;" horiz-adv-x="229" 
d="M46.5 3.5q-3.5 3.5 -3.5 8.5v490q0 5 3.5 8.5t8.5 3.5h117q5 0 8.5 -3.5t3.5 -8.5v-490q0 -5 -3.5 -8.5t-8.5 -3.5h-117q-5 0 -8.5 3.5zM44 590q-3 4 1 10l57 101q5 8 15 8h109q10 0 10 -7q0 -3 -3 -8l-73 -101q-5 -7 -14 -7h-92q-7 0 -10 4z" />
    <glyph glyph-name="icircumflex" unicode="&#xee;" horiz-adv-x="229" 
d="M46.5 3.5q-3.5 3.5 -3.5 8.5v490q0 5 3.5 8.5t8.5 3.5h117q5 0 8.5 -3.5t3.5 -8.5v-490q0 -5 -3.5 -8.5t-8.5 -3.5h-117q-5 0 -8.5 3.5zM-36.5 587.5q-2.5 4.5 1.5 10.5l71 104q5 8 14 8h119q9 0 14 -8l74 -104q3 -4 3 -7q0 -8 -11 -8h-85q-11 0 -15 8l-35 59q-3 6 -6 0
l-35 -59q-4 -8 -15 -8h-85q-7 0 -9.5 4.5z" />
    <glyph glyph-name="idieresis" unicode="&#xef;" horiz-adv-x="229" 
d="M46.5 3.5q-3.5 3.5 -3.5 8.5v490q0 5 3.5 8.5t8.5 3.5h117q5 0 8.5 -3.5t3.5 -8.5v-490q0 -5 -3.5 -8.5t-8.5 -3.5h-117q-5 0 -8.5 3.5zM-27.5 601q-19.5 20 -19.5 51q0 32 19.5 51.5t51.5 19.5q31 0 49.5 -19.5t18.5 -51.5t-18.5 -51.5t-49.5 -19.5q-32 0 -51.5 20z
M152.5 601q-19.5 20 -19.5 51t19.5 51t50.5 20t50.5 -19.5t19.5 -51.5t-19.5 -51.5t-50.5 -19.5t-50.5 20z" />
    <glyph glyph-name="eth" unicode="&#xf0;" horiz-adv-x="495" 
d="M453 239q0 -52 -8 -95q-12 -70 -66 -111t-137 -41t-137 40.5t-67 111.5q-8 39 -8 94q0 49 8 95q7 55 44.5 92t91.5 42q25 5 46 5q40 0 66 -14q7 -3 4 4q-13 38 -36 76q-1 2 -2.5 3t-3.5 0l-88 -23l-4 -1q-8 0 -11 10l-11 43l-1 4q0 8 10 11l62 16q5 2 2 7q-28 37 -62 77
q-4 4 -4 8q0 7 10 7h117q9 0 15 -7l43 -57q1 -2 2.5 -2.5t3.5 0.5l80 21l4 1q8 0 11 -10l10 -44l1 -4q0 -8 -10 -11l-53 -14q-6 -2 -3 -6q33 -54 51.5 -107t22.5 -114q7 -48 7 -107zM311 236q0 44 -5 71t-22 42.5t-42 15.5q-26 0 -43 -15.5t-22 -42.5q-5 -29 -5 -71
q0 -34 5 -72q5 -27 22 -42.5t43 -15.5q25 0 42 15.5t22 42.5q5 29 5 72z" />
    <glyph glyph-name="ntilde" unicode="&#xf1;" horiz-adv-x="497" 
d="M184 595q-8 -11 -17 -4l-41 30q-8 6 -5 16q14 35 37.5 52.5t52.5 17.5q16 0 29 -5.5t33 -17.5q2 -1 10.5 -6.5t17 -8.5t15.5 -3q22 0 36 21q6 11 16 4l41 -29q9 -6 5 -16q-17 -35 -43 -51.5t-52 -16.5q-16 0 -29 5.5t-30 15.5q-3 2 -11.5 7.5t-15 8t-13.5 2.5
q-22 0 -36 -22zM413.5 475.5q41.5 -46.5 41.5 -129.5v-334q0 -5 -3.5 -8.5t-8.5 -3.5h-117q-5 0 -8.5 3.5t-3.5 8.5v314q0 35 -17 55t-46 20q-30 0 -47.5 -20.5t-17.5 -55.5v-313q0 -5 -3.5 -8.5t-8.5 -3.5h-117q-5 0 -8.5 3.5t-3.5 8.5v490q0 5 3.5 8.5t8.5 3.5h117
q5 0 8.5 -3.5t3.5 -8.5v-27q0 -3 2 -3.5t5 2.5q37 48 106 48q73 0 114.5 -46.5z" />
    <glyph glyph-name="ograve" unicode="&#xf2;" horiz-adv-x="500" 
d="M108 36q-55 44 -66 122q-7 49 -7 100q0 62 7 101q12 75 67 119t142 44q85 0 140 -44t66 -118q8 -46 8 -101q0 -50 -7 -99q-11 -79 -66 -123.5t-142 -44.5t-142 44zM296 131q18 18 23 48q4 32 4 79t-4 78q-5 30 -23 47.5t-46 17.5t-46 -17.5t-23 -47.5q-5 -38 -5 -78
q0 -31 4 -79q5 -30 24 -48t46 -18q28 0 46 18zM306 590q0 -8 -11 -8h-92q-9 0 -14 7l-73 101q-3 5 -3 8q0 7 10 7h109q10 0 15 -8l57 -101z" />
    <glyph glyph-name="oacute" unicode="&#xf3;" horiz-adv-x="500" 
d="M108 36q-55 44 -66 122q-7 49 -7 100q0 62 7 101q12 75 67 119t142 44q85 0 140 -44t66 -118q8 -46 8 -101q0 -50 -7 -99q-11 -79 -66 -123.5t-142 -44.5t-142 44zM296 131q18 18 23 48q4 32 4 79t-4 78q-5 30 -23 47.5t-46 17.5t-46 -17.5t-23 -47.5q-5 -38 -5 -78
q0 -31 4 -79q5 -30 24 -48t46 -18q28 0 46 18zM182 586q-3 4 1 10l57 101q5 8 15 8h109q10 0 10 -7q0 -3 -3 -8l-73 -101q-5 -7 -14 -7h-92q-7 0 -10 4z" />
    <glyph glyph-name="ocircumflex" unicode="&#xf4;" horiz-adv-x="500" 
d="M108 36q-55 44 -66 122q-7 49 -7 100q0 62 7 101q12 75 67 119t142 44q85 0 140 -44t66 -118q8 -46 8 -101q0 -50 -7 -99q-11 -79 -66 -123.5t-142 -44.5t-142 44zM296 131q18 18 23 48q4 32 4 79t-4 78q-5 30 -23 47.5t-46 17.5t-46 -17.5t-23 -47.5q-5 -38 -5 -78
q0 -31 4 -79q5 -30 24 -48t46 -18q28 0 46 18zM101.5 583.5q-2.5 4.5 1.5 10.5l71 104q5 8 14 8h119q9 0 14 -8l74 -104q3 -4 3 -7q0 -8 -11 -8h-85q-11 0 -15 8l-35 59q-3 6 -6 0l-35 -59q-4 -8 -15 -8h-85q-7 0 -9.5 4.5z" />
    <glyph glyph-name="otilde" unicode="&#xf5;" horiz-adv-x="500" 
d="M108 36q-55 44 -66 122q-7 49 -7 100q0 62 7 101q12 75 67 119t142 44q85 0 140 -44t66 -118q8 -46 8 -101q0 -50 -7 -99q-11 -79 -66 -123.5t-142 -44.5t-142 44zM296 131q18 18 23 48q4 32 4 79t-4 78q-5 30 -23 47.5t-46 17.5t-46 -17.5t-23 -47.5q-5 -38 -5 -78
q0 -31 4 -79q5 -30 24 -48t46 -18q28 0 46 18zM257 606q-4 2 -13 7.5t-15 8t-13 2.5q-23 0 -37 -22q-7 -10 -17 -4l-42 30q-9 7 -5 16q14 35 38 52.5t53 17.5q17 0 31 -5.5t33 -17.5q15 -9 24.5 -13.5t19.5 -4.5q24 0 37 21q6 11 16 4l43 -29q5 -3 5 -10q0 -6 -4 -13
q-17 -31 -43 -46t-51 -15q-26 0 -60 21z" />
    <glyph glyph-name="odieresis" unicode="&#xf6;" horiz-adv-x="500" 
d="M108 36q-55 44 -66 122q-7 49 -7 100q0 62 7 101q12 75 67 119t142 44q85 0 140 -44t66 -118q8 -46 8 -101q0 -50 -7 -99q-11 -79 -66 -123.5t-142 -44.5t-142 44zM296 131q18 18 23 48q4 32 4 79t-4 78q-5 30 -23 47.5t-46 17.5t-46 -17.5t-23 -47.5q-5 -38 -5 -78
q0 -31 4 -79q5 -30 24 -48t46 -18q28 0 46 18zM110.5 597q-19.5 20 -19.5 51q0 32 19.5 51.5t51.5 19.5q31 0 49.5 -19.5t18.5 -51.5t-18.5 -51.5t-49.5 -19.5q-32 0 -51.5 20zM290.5 597q-19.5 20 -19.5 51t19.5 51t50.5 20t50.5 -19.5t19.5 -51.5t-19.5 -51.5t-50.5 -19.5
t-50.5 20z" />
    <glyph glyph-name="divide" unicode="&#xf7;" horiz-adv-x="462" 
d="M182.5 434.5q-20.5 20.5 -20.5 48.5t20.5 48t48.5 20t48.5 -20t20.5 -48t-20.5 -48.5t-48.5 -20.5t-48.5 20.5zM29.5 258.5q-3.5 3.5 -3.5 8.5v89q0 5 3.5 8.5t8.5 3.5h386q5 0 8.5 -3.5t3.5 -8.5v-89q0 -5 -3.5 -8.5t-8.5 -3.5h-386q-5 0 -8.5 3.5zM182.5 98.5
q-20.5 20.5 -20.5 48.5t20.5 48t48.5 20t48.5 -20t20.5 -48t-20.5 -48.5t-48.5 -20.5t-48.5 20.5z" />
    <glyph glyph-name="oslash" unicode="&#xf8;" horiz-adv-x="509" 
d="M471 259q0 -50 -7 -99q-11 -79 -66 -123.5t-142 -44.5q-62 0 -106 22q-5 2 -7 -2l-26 -42q-7 -10 -16 -3l-40 27q-10 7 -4 17l30 46q2 4 -1 7q-29 40 -38 94q-7 49 -7 100q0 62 7 101q12 75 67 119t142 44q58 0 101 -20q4 -1 6 2l26 41q3 6 9 6q3 0 8 -3l40 -27
q10 -7 4 -17l-29 -44q-2 -4 1 -7q31 -38 40 -93q8 -46 8 -101zM183 224q0 -4 2 -4.5t4 2.5l102 164q4 4 -1 7q-16 8 -34 8q-28 0 -46 -17.5t-23 -47.5q-5 -38 -5 -78zM329 258v38q-1 4 -3 4.5t-4 -2.5l-104 -168q-2 -5 1 -7q17 -10 37 -10q28 0 46 18t23 48q4 32 4 79z" />
    <glyph glyph-name="ugrave" unicode="&#xf9;" horiz-adv-x="496" 
d="M313.5 510.5q3.5 3.5 8.5 3.5h117q5 0 8.5 -3.5t3.5 -8.5v-490q0 -5 -3.5 -8.5t-8.5 -3.5h-117q-5 0 -8.5 3.5t-3.5 8.5v25q0 3 -2 3.5t-4 -1.5q-34 -46 -107 -46q-68 0 -112 41t-44 121v347q0 5 3.5 8.5t8.5 3.5h117q5 0 8.5 -3.5t3.5 -8.5v-314q0 -35 16.5 -55
t46.5 -20t47.5 21t17.5 56v312q0 5 3.5 8.5zM301 582q0 -8 -11 -8h-92q-9 0 -14 7l-73 101q-3 5 -3 8q0 7 10 7h109q10 0 15 -8l57 -101z" />
    <glyph glyph-name="uacute" unicode="&#xfa;" horiz-adv-x="496" 
d="M313.5 510.5q3.5 3.5 8.5 3.5h117q5 0 8.5 -3.5t3.5 -8.5v-490q0 -5 -3.5 -8.5t-8.5 -3.5h-117q-5 0 -8.5 3.5t-3.5 8.5v25q0 3 -2 3.5t-4 -1.5q-34 -46 -107 -46q-68 0 -112 41t-44 121v347q0 5 3.5 8.5t8.5 3.5h117q5 0 8.5 -3.5t3.5 -8.5v-314q0 -35 16.5 -55
t46.5 -20t47.5 21t17.5 56v312q0 5 3.5 8.5zM177 578q-3 4 1 10l57 101q5 8 15 8h109q10 0 10 -7q0 -3 -3 -8l-73 -101q-5 -7 -14 -7h-92q-7 0 -10 4z" />
    <glyph glyph-name="ucircumflex" unicode="&#xfb;" horiz-adv-x="496" 
d="M313.5 510.5q3.5 3.5 8.5 3.5h117q5 0 8.5 -3.5t3.5 -8.5v-490q0 -5 -3.5 -8.5t-8.5 -3.5h-117q-5 0 -8.5 3.5t-3.5 8.5v25q0 3 -2 3.5t-4 -1.5q-34 -46 -107 -46q-68 0 -112 41t-44 121v347q0 5 3.5 8.5t8.5 3.5h117q5 0 8.5 -3.5t3.5 -8.5v-314q0 -35 16.5 -55
t46.5 -20t47.5 21t17.5 56v312q0 5 3.5 8.5zM96.5 575.5q-2.5 4.5 1.5 10.5l71 104q5 8 14 8h119q9 0 14 -8l74 -104q3 -4 3 -7q0 -8 -11 -8h-85q-11 0 -15 8l-35 59q-3 6 -6 0l-35 -59q-4 -8 -15 -8h-85q-7 0 -9.5 4.5z" />
    <glyph glyph-name="udieresis" unicode="&#xfc;" horiz-adv-x="496" 
d="M313.5 510.5q3.5 3.5 8.5 3.5h117q5 0 8.5 -3.5t3.5 -8.5v-490q0 -5 -3.5 -8.5t-8.5 -3.5h-117q-5 0 -8.5 3.5t-3.5 8.5v25q0 3 -2 3.5t-4 -1.5q-34 -46 -107 -46q-68 0 -112 41t-44 121v347q0 5 3.5 8.5t8.5 3.5h117q5 0 8.5 -3.5t3.5 -8.5v-314q0 -35 16.5 -55
t46.5 -20t47.5 21t17.5 56v312q0 5 3.5 8.5zM105.5 589q-19.5 20 -19.5 51q0 32 19.5 51.5t51.5 19.5q31 0 49.5 -19.5t18.5 -51.5t-18.5 -51.5t-49.5 -19.5q-32 0 -51.5 20zM285.5 589q-19.5 20 -19.5 51t19.5 51t50.5 20t50.5 -19.5t19.5 -51.5t-19.5 -51.5t-50.5 -19.5
t-50.5 20z" />
    <glyph glyph-name="yacute" unicode="&#xfd;" horiz-adv-x="463" 
d="M39 -195.5q-2 3.5 -2 8.5v92q0 5 2 8.5t4 3.5h5q56 0 80.5 16t32.5 64l-1 6l-144 497l-1 4q0 10 11 10h125q11 0 13 -11l66 -301q1 -4 3 -4t3 4l62 301q2 11 13 11h126q6 0 9 -4t1 -10l-152 -519q-22 -73 -46.5 -109.5t-69.5 -53.5t-129 -17h-6q-3 0 -5 3.5zM163 583
q-3 4 1 10l57 101q5 8 15 8h109q10 0 10 -7q0 -3 -3 -8l-73 -101q-5 -7 -14 -7h-92q-7 0 -10 4z" />
    <glyph glyph-name="thorn" unicode="&#xfe;" horiz-adv-x="493" 
d="M458 262q0 -63 -11 -111q-33 -159 -156 -159q-64 0 -100 37q-2 2 -4 1t-2 -4v-214q0 -5 -3.5 -8.5t-8.5 -3.5h-117q-5 0 -8.5 3.5t-3.5 8.5v876q0 5 3.5 8.5t8.5 3.5h117q5 0 8.5 -3.5t3.5 -8.5v-199q0 -3 2 -4t4 2q34 35 98 35q129 0 160 -155q9 -51 9 -105zM316 258
q0 60 -9 89q-16 54 -61 54q-23 0 -38 -14.5t-20 -40.5l-2 -10l-1 -6v-147q0 -4 1 -6q0 -4 1 -6q13 -58 60 -58t62 59q7 35 7 86z" />
    <glyph glyph-name="ydieresis" unicode="&#xff;" horiz-adv-x="463" 
d="M39 -195.5q-2 3.5 -2 8.5v92q0 5 2 8.5t4 3.5h5q56 0 80.5 16t32.5 64l-1 6l-144 497l-1 4q0 10 11 10h125q11 0 13 -11l66 -301q1 -4 3 -4t3 4l62 301q2 11 13 11h126q6 0 9 -4t1 -10l-152 -519q-22 -73 -46.5 -109.5t-69.5 -53.5t-129 -17h-6q-3 0 -5 3.5zM91.5 594
q-19.5 20 -19.5 51q0 32 19.5 51.5t51.5 19.5q31 0 49.5 -19.5t18.5 -51.5t-18.5 -51.5t-49.5 -19.5q-32 0 -51.5 20zM271.5 594q-19.5 20 -19.5 51t19.5 51t50.5 20t50.5 -19.5t19.5 -51.5t-19.5 -51.5t-50.5 -19.5t-50.5 20z" />
    <glyph glyph-name="Amacron" unicode="&#x100;" horiz-adv-x="586" 
d="M414 10l-23 98q-1 4 -5 4h-187q-4 0 -5 -4l-23 -98q-3 -10 -14 -10h-121q-13 0 -10 13l180 677q3 10 14 10h145q11 0 14 -10l181 -677l1 -4q0 -9 -11 -9h-123q-10 0 -13 10zM223 222.5q2 -1.5 4 -1.5h132q2 0 4 1.5t1 4.5l-67 284q-1 4 -3 3.5t-3 -3.5l-69 -284
q-1 -3 1 -4.5zM165.5 769.5q-3.5 3.5 -3.5 8.5v71q0 5 3.5 8.5t8.5 3.5h233q5 0 8.5 -3.5t3.5 -8.5v-71q0 -5 -3.5 -8.5t-8.5 -3.5h-233q-5 0 -8.5 3.5z" />
    <glyph glyph-name="amacron" unicode="&#x101;" horiz-adv-x="486" 
d="M348 500.5q47 -21.5 73.5 -60t26.5 -87.5v-341q0 -5 -3.5 -8.5t-8.5 -3.5h-117q-5 0 -8.5 3.5t-3.5 8.5v27q0 3 -2 4t-4 -2q-40 -49 -120 -49q-67 0 -112 35t-45 117q0 163 204 163h74q5 0 5 5v23q0 30 -17.5 48t-48.5 18q-23 0 -39 -11t-20 -30q-3 -10 -14 -10l-121 7
q-5 0 -8.5 3t-2.5 8q5 69 61.5 111.5t142.5 42.5q61 0 108 -21.5zM283 118q24 19 24 50v42q0 5 -5 5h-57q-36 0 -57 -16t-21 -46q0 -26 16 -40t42 -14q34 0 58 19zM114.5 591.5q-3.5 3.5 -3.5 8.5v71q0 5 3.5 8.5t8.5 3.5h233q5 0 8.5 -3.5t3.5 -8.5v-71q0 -5 -3.5 -8.5
t-8.5 -3.5h-233q-5 0 -8.5 3.5z" />
    <glyph glyph-name="Abreve" unicode="&#x102;" horiz-adv-x="586" 
d="M414 10l-23 98q-1 4 -5 4h-187q-4 0 -5 -4l-23 -98q-3 -10 -14 -10h-121q-13 0 -10 13l180 677q3 10 14 10h145q11 0 14 -10l181 -677l1 -4q0 -9 -11 -9h-123q-10 0 -13 10zM223 222.5q2 -1.5 4 -1.5h132q2 0 4 1.5t1 4.5l-67 284q-1 4 -3 3.5t-3 -3.5l-69 -284
q-1 -3 1 -4.5zM209 764.5q-34 29.5 -39 76.5v2q0 10 11 10h51q11 0 12 -12q4 -19 17 -31t31 -12q19 0 32 12t16 31q2 12 12 12h51q13 0 11 -12q-4 -47 -38 -76.5t-84 -29.5q-49 0 -83 29.5z" />
    <glyph glyph-name="abreve" unicode="&#x103;" horiz-adv-x="486" 
d="M348 500.5q47 -21.5 73.5 -60t26.5 -87.5v-341q0 -5 -3.5 -8.5t-8.5 -3.5h-117q-5 0 -8.5 3.5t-3.5 8.5v27q0 3 -2 4t-4 -2q-40 -49 -120 -49q-67 0 -112 35t-45 117q0 163 204 163h74q5 0 5 5v23q0 30 -17.5 48t-48.5 18q-23 0 -39 -11t-20 -30q-3 -10 -14 -10l-121 7
q-5 0 -8.5 3t-2.5 8q5 69 61.5 111.5t142.5 42.5q61 0 108 -21.5zM283 118q24 19 24 50v42q0 5 -5 5h-57q-36 0 -57 -16t-21 -46q0 -26 16 -40t42 -14q34 0 58 19zM158 586.5q-34 29.5 -39 76.5v2q0 10 11 10h51q11 0 12 -12q4 -19 17 -31t31 -12q19 0 32 12t16 31
q2 12 12 12h51q13 0 11 -12q-4 -47 -38 -76.5t-84 -29.5q-49 0 -83 29.5z" />
    <glyph glyph-name="Aogonek" unicode="&#x104;" horiz-adv-x="594" 
d="M414 10l-23 98q-1 4 -5 4h-187q-4 0 -5 -4l-23 -98q-3 -10 -14 -10h-121q-13 0 -10 13l180 677q3 10 14 10h145q11 0 14 -10l181 -677l1 -4q0 -9 -11 -9h-123q-10 0 -13 10zM223 222.5q2 -1.5 4 -1.5h132q2 0 4 1.5t1 4.5l-67 284q-1 4 -3 3.5t-3 -3.5l-69 -284
q-1 -3 1 -4.5zM549 -171q0 -9 -9 -12q-25 -9 -55 -9q-33 0 -57.5 14.5t-32.5 48.5q-3 12 -3 25q0 51 49 96l4 4t12 4h64q10 0 10 -6q0 -4 -5 -9q-42 -34 -42 -65q0 -7 1 -10q2 -12 10 -18t20 -6q4 0 12 2q2 1 6 1q8 0 9 -9l7 -48v-3z" />
    <glyph glyph-name="aogonek" unicode="&#x105;" horiz-adv-x="600" 
d="M440 -111q8 0 9 -9l7 -48v-3q0 -9 -9 -12q-25 -9 -55 -9q-33 0 -57.5 14.5t-32.5 48.5q-3 13 -3 26q0 51 50 97q2 2 1.5 4t-3.5 2h-28q-5 0 -8.5 3.5t-3.5 8.5v27q0 3 -2 4t-4 -2q-40 -49 -120 -49q-67 0 -112 35t-45 117q0 163 204 163h74q5 0 5 5v23q0 30 -17.5 48
t-48.5 18q-23 0 -39 -11t-20 -30q-3 -10 -14 -10l-121 7q-5 0 -8.5 3.5t-2.5 9.5q6 68 62.5 110t141.5 42q61 0 108 -21.5t73.5 -60t26.5 -87.5v-350q0 -4 -2 -6q-3 -2 -13 -12q-42 -34 -42 -65q0 -7 1 -10q2 -12 10 -18t20 -6q4 0 12 2q2 1 6 1zM283 118q24 19 24 50v42
q0 5 -5 5h-57q-36 0 -57 -16t-21 -46q0 -26 16 -40t42 -14q34 0 58 19z" />
    <glyph glyph-name="Cacute" unicode="&#x106;" horiz-adv-x="536" 
d="M150 19q-52 27 -80.5 77t-28.5 116v278q0 65 28.5 114.5t80.5 76.5t120 27t120 -26.5t80.5 -74.5t28.5 -112v-5q0 -5 -3.5 -9t-8.5 -4l-117 -5q-12 0 -12 11v13q0 41 -24 66t-64 25t-64 -25t-24 -66v-293q0 -41 24 -65.5t64 -24.5t64 24.5t24 65.5v13q0 11 12 11l117 -5
q12 0 12 -7v-8q0 -64 -28.5 -113t-80.5 -75.5t-120 -26.5t-120 27zM202 772q-3 4 1 10l57 101q5 8 15 8h109q10 0 10 -7q0 -3 -3 -8l-73 -101q-5 -7 -14 -7h-92q-7 0 -10 4z" />
    <glyph glyph-name="cacute" unicode="&#x107;" horiz-adv-x="486" 
d="M110.5 34.5q-54.5 42.5 -67.5 116.5q-8 41 -8 108q0 50 8 106q13 72 68 114.5t138 42.5q81 0 136.5 -41t68.5 -108q2 -9 4 -29q0 -11 -12 -13l-115 -11h-2q-9 0 -11 11q0 7 -1 10q-2 8 -4 14q-6 20 -23 33t-42 13q-27 0 -44 -16t-22 -44q-6 -33 -6 -83q0 -55 7 -86
q5 -27 21.5 -43t43.5 -16q29 0 46.5 16t20.5 40l2 12q1 5 4.5 8.5t8.5 2.5l116 -10q11 -2 11 -13q0 -6 -2 -20q-10 -73 -65.5 -115t-140.5 -42q-84 0 -138.5 42.5zM180 588q-3 4 1 10l57 101q5 8 15 8h109q10 0 10 -7q0 -3 -3 -8l-73 -101q-5 -7 -14 -7h-92q-7 0 -10 4z" />
    <glyph glyph-name="Cdotaccent" unicode="&#x10a;" horiz-adv-x="536" 
d="M150 19q-52 27 -80.5 77t-28.5 116v278q0 65 28.5 114.5t80.5 76.5t120 27t120 -26.5t80.5 -74.5t28.5 -112v-5q0 -5 -3.5 -9t-8.5 -4l-117 -5q-12 0 -12 11v13q0 41 -24 66t-64 25t-64 -25t-24 -66v-293q0 -41 24 -65.5t64 -24.5t64 24.5t24 65.5v13q0 11 12 11l117 -5
q12 0 12 -7v-8q0 -64 -28.5 -113t-80.5 -75.5t-120 -26.5t-120 27zM223.5 776q-17.5 18 -17.5 47t17.5 47t46.5 18q28 0 45.5 -18t17.5 -47t-17.5 -47t-45.5 -18q-29 0 -46.5 18z" />
    <glyph glyph-name="cdotaccent" unicode="&#x10b;" horiz-adv-x="486" 
d="M110.5 34.5q-54.5 42.5 -67.5 116.5q-8 41 -8 108q0 50 8 106q13 72 68 114.5t138 42.5q81 0 136.5 -41t68.5 -108q2 -9 4 -29q0 -11 -12 -13l-115 -11h-2q-9 0 -11 11q0 7 -1 10q-2 8 -4 14q-6 20 -23 33t-42 13q-27 0 -44 -16t-22 -44q-6 -33 -6 -83q0 -55 7 -86
q5 -27 21.5 -43t43.5 -16q29 0 46.5 16t20.5 40l2 12q1 5 4.5 8.5t8.5 2.5l116 -10q11 -2 11 -13q0 -6 -2 -20q-10 -73 -65.5 -115t-140.5 -42q-84 0 -138.5 42.5zM201.5 592q-17.5 18 -17.5 47t17.5 47t46.5 18q28 0 45.5 -18t17.5 -47t-17.5 -47t-45.5 -18q-29 0 -46.5 18
z" />
    <glyph glyph-name="Ccaron" unicode="&#x10c;" horiz-adv-x="536" 
d="M150 19q-52 27 -80.5 77t-28.5 116v278q0 65 28.5 114.5t80.5 76.5t120 27t120 -26.5t80.5 -74.5t28.5 -112v-5q0 -5 -3.5 -9t-8.5 -4l-117 -5q-12 0 -12 11v13q0 41 -24 66t-64 25t-64 -25t-24 -66v-293q0 -41 24 -65.5t64 -24.5t64 24.5t24 65.5v13q0 11 12 11l117 -5
q12 0 12 -7v-8q0 -64 -28.5 -113t-80.5 -75.5t-120 -26.5t-120 27zM192 767l-68 105q-2 4 -2 7q0 7 10 7h84q10 0 14 -8l36 -58q2 -3 4 -3t3 3l35 58q4 8 14 8h81q7 0 9 -4.5t-2 -10.5l-69 -104q-5 -8 -14 -8h-121q-9 0 -14 8z" />
    <glyph glyph-name="ccaron" unicode="&#x10d;" horiz-adv-x="486" 
d="M110.5 34.5q-54.5 42.5 -67.5 116.5q-8 41 -8 108q0 50 8 106q13 72 68 114.5t138 42.5q81 0 136.5 -41t68.5 -108q2 -9 4 -29q0 -11 -12 -13l-115 -11h-2q-9 0 -11 11q0 7 -1 10q-2 8 -4 14q-6 20 -23 33t-42 13q-27 0 -44 -16t-22 -44q-6 -33 -6 -83q0 -55 7 -86
q5 -27 21.5 -43t43.5 -16q29 0 46.5 16t20.5 40l2 12q1 5 4.5 8.5t8.5 2.5l116 -10q11 -2 11 -13q0 -6 -2 -20q-10 -73 -65.5 -115t-140.5 -42q-84 0 -138.5 42.5zM170 583l-68 105q-2 4 -2 7q0 7 10 7h84q10 0 14 -8l36 -58q2 -3 4 -3t3 3l35 58q4 8 14 8h81q7 0 9 -4.5
t-2 -10.5l-69 -104q-5 -8 -14 -8h-121q-9 0 -14 8z" />
    <glyph glyph-name="Dcaron" unicode="&#x10e;" horiz-adv-x="547" 
d="M56.5 3.5q-3.5 3.5 -3.5 8.5v676q0 5 3.5 8.5t8.5 3.5h215q67 0 118.5 -25t79.5 -71t28 -107v-294q0 -61 -28 -107t-79.5 -71t-118.5 -25h-215q-5 0 -8.5 3.5zM199 121l82 1q37 0 60 26.5t24 70.5v262q0 45 -23 71.5t-61 26.5h-82q-5 0 -5 -5v-448q0 -5 5 -5zM188 762
l-68 105q-2 4 -2 7q0 7 10 7h84q10 0 14 -8l36 -59q1 -3 3 -3t4 3l35 59q4 8 15 8h80q7 0 9 -4.5t-2 -10.5l-69 -104q-5 -8 -14 -8h-121q-9 0 -14 8z" />
    <glyph glyph-name="dcaron" unicode="&#x10f;" horiz-adv-x="676" 
d="M317.5 696.5q3.5 3.5 8.5 3.5h117q5 0 8.5 -3.5t3.5 -8.5v-676q0 -5 -3.5 -8.5t-8.5 -3.5h-117q-5 0 -8.5 3.5t-3.5 8.5v21q0 3 -2 4t-4 -2q-37 -43 -106 -43q-123 0 -156 159q-11 48 -11 111q0 54 9 105q31 155 160 155q35 0 60 -9.5t44 -32.5q2 -3 4 -2t2 4v206
q0 5 3.5 8.5zM313 258q0 58 -8 88q-5 26 -20 40.5t-38 14.5q-45 0 -61 -54q-9 -29 -9 -89q0 -51 7 -86q15 -59 62 -59t60 58q7 29 7 87zM484 578q-3 4 1 10l57 101q5 8 15 8h109q10 0 10 -7q0 -3 -3 -8l-73 -101q-5 -7 -14 -7h-92q-7 0 -10 4z" />
    <glyph glyph-name="Dcroat" unicode="&#x110;" horiz-adv-x="588" 
d="M439.5 675q51.5 -25 79.5 -71t28 -107v-294q0 -61 -28 -107t-79.5 -71t-118.5 -25h-215q-5 0 -8.5 3.5t-3.5 8.5v302q0 5 -5 5h-24q-5 0 -8.5 3.5t-3.5 8.5v65q0 5 3.5 8.5t8.5 3.5h24q5 0 5 5v275q0 5 3.5 8.5t8.5 3.5h215q67 0 118.5 -25zM406 481q0 45 -23 71.5
t-61 26.5h-82q-5 0 -5 -5v-161q0 -5 5 -5h58q5 0 8.5 -3.5t3.5 -8.5v-65q0 -5 -3.5 -8.5t-8.5 -3.5h-58q-5 0 -5 -5v-188q0 -5 5 -5l82 1q37 0 60 26.5t24 70.5v262z" />
    <glyph glyph-name="dcroat" unicode="&#x111;" horiz-adv-x="600" 
d="M506.5 637.5q3.5 -3.5 3.5 -8.5v-60q0 -5 -3.5 -8.5t-8.5 -3.5h-38q-5 0 -5 -5v-540q0 -5 -3.5 -8.5t-8.5 -3.5h-117q-5 0 -8.5 3.5t-3.5 8.5v21q0 3 -2 4t-4 -2q-37 -43 -106 -43q-123 0 -156 159q-11 48 -11 111q0 54 9 105q31 155 160 155q35 0 60 -9.5t44 -32.5
q2 -3 4 -2t2 4v70q0 5 -5 5h-113q-5 0 -8.5 3.5t-3.5 8.5v60q0 5 3.5 8.5t8.5 3.5h113q5 0 5 5v42q0 5 3.5 8.5t8.5 3.5h117q5 0 8.5 -3.5t3.5 -8.5v-42q0 -5 5 -5h38q5 0 8.5 -3.5zM313 258q0 58 -8 88q-5 26 -20 40.5t-38 14.5q-45 0 -61 -54q-9 -29 -9 -89q0 -51 7 -86
q15 -59 62 -59t60 58q7 29 7 87z" />
    <glyph glyph-name="Emacron" unicode="&#x112;" horiz-adv-x="511" 
d="M475.5 582.5q-3.5 -3.5 -8.5 -3.5h-268q-5 0 -5 -5v-156q0 -5 5 -5h167q5 0 8.5 -3.5t3.5 -8.5v-97q0 -5 -3.5 -8.5t-8.5 -3.5h-167q-5 0 -5 -5v-161q0 -5 5 -5h268q5 0 8.5 -3.5t3.5 -8.5v-97q0 -5 -3.5 -8.5t-8.5 -3.5h-402q-5 0 -8.5 3.5t-3.5 8.5v676q0 5 3.5 8.5
t8.5 3.5h402q5 0 8.5 -3.5t3.5 -8.5v-97q0 -5 -3.5 -8.5zM138.5 781.5q-3.5 3.5 -3.5 8.5v71q0 5 3.5 8.5t8.5 3.5h233q5 0 8.5 -3.5t3.5 -8.5v-71q0 -5 -3.5 -8.5t-8.5 -3.5h-233q-5 0 -8.5 3.5z" />
    <glyph glyph-name="emacron" unicode="&#x113;" horiz-adv-x="492" 
d="M304 126q18 13 28 34q5 11 15 8l95 -20q12 -3 9 -15q-20 -66 -71.5 -103.5t-127.5 -37.5q-79 0 -132 40.5t-69 107.5q-14 50 -14 125q0 50 4 82q10 82 63.5 129t143.5 47q96 0 147.5 -50.5t60.5 -143.5q5 -53 5 -103q0 -12 -12 -12h-266q-5 0 -5 -5q0 -21 3 -36
q5 -28 26 -44.5t52 -16.5q27 1 45 14zM182 343q-2 -10 -4 -36q0 -5 5 -5h130q5 0 5 5q0 12 -4 34q-4 28 -21 44t-46 16q-54 0 -65 -58zM120.5 592.5q-3.5 3.5 -3.5 8.5v71q0 5 3.5 8.5t8.5 3.5h233q5 0 8.5 -3.5t3.5 -8.5v-71q0 -5 -3.5 -8.5t-8.5 -3.5h-233q-5 0 -8.5 3.5z
" />
    <glyph glyph-name="Edotaccent" unicode="&#x116;" horiz-adv-x="511" 
d="M475.5 582.5q-3.5 -3.5 -8.5 -3.5h-268q-5 0 -5 -5v-156q0 -5 5 -5h167q5 0 8.5 -3.5t3.5 -8.5v-97q0 -5 -3.5 -8.5t-8.5 -3.5h-167q-5 0 -5 -5v-161q0 -5 5 -5h268q5 0 8.5 -3.5t3.5 -8.5v-97q0 -5 -3.5 -8.5t-8.5 -3.5h-402q-5 0 -8.5 3.5t-3.5 8.5v676q0 5 3.5 8.5
t8.5 3.5h402q5 0 8.5 -3.5t3.5 -8.5v-97q0 -5 -3.5 -8.5zM218.5 780q-17.5 18 -17.5 47t17.5 47t46.5 18q28 0 45.5 -18t17.5 -47t-17.5 -47t-45.5 -18q-29 0 -46.5 18z" />
    <glyph glyph-name="edotaccent" unicode="&#x117;" horiz-adv-x="492" 
d="M304 126q18 13 28 34q5 11 15 8l95 -20q12 -3 9 -15q-20 -66 -71.5 -103.5t-127.5 -37.5q-79 0 -132 40.5t-69 107.5q-14 50 -14 125q0 50 4 82q10 82 63.5 129t143.5 47q96 0 147.5 -50.5t60.5 -143.5q5 -53 5 -103q0 -12 -12 -12h-266q-5 0 -5 -5q0 -21 3 -36
q5 -28 26 -44.5t52 -16.5q27 1 45 14zM182 343q-2 -10 -4 -36q0 -5 5 -5h130q5 0 5 5q0 12 -4 34q-4 28 -21 44t-46 16q-54 0 -65 -58zM200.5 591q-17.5 18 -17.5 47t17.5 47t46.5 18q28 0 45.5 -18t17.5 -47t-17.5 -47t-45.5 -18q-29 0 -46.5 18z" />
    <glyph glyph-name="Eogonek" unicode="&#x118;" horiz-adv-x="511" 
d="M475.5 582.5q-3.5 -3.5 -8.5 -3.5h-268q-5 0 -5 -5v-156q0 -5 5 -5h167q5 0 8.5 -3.5t3.5 -8.5v-97q0 -5 -3.5 -8.5t-8.5 -3.5h-167q-5 0 -5 -5v-161q0 -5 5 -5h268q5 0 8.5 -3.5t3.5 -8.5v-97q0 -5 -3.5 -8.5t-8.5 -3.5h-152q-3 0 -7 -2q-43 -37 -43 -68q0 -6 1 -9
q2 -12 10 -18t20 -6q4 0 12 2q2 1 6 1q8 0 9 -9l7 -48v-3q0 -9 -9 -12q-25 -9 -55 -9q-33 0 -57.5 14.5t-32.5 48.5q-3 12 -3 26q0 46 39 86q2 2 1 4t-4 2h-144q-5 0 -8.5 3.5t-3.5 8.5v676q0 5 3.5 8.5t8.5 3.5h402q5 0 8.5 -3.5t3.5 -8.5v-97q0 -5 -3.5 -8.5z" />
    <glyph glyph-name="eogonek" unicode="&#x119;" horiz-adv-x="492" 
d="M304 126q18 13 28 34q5 11 15 8l95 -20q12 -3 9 -15q-17 -53 -52.5 -87.5t-87.5 -46.5l-6 -3q-52 -41 -52 -74q0 -7 1 -10q2 -12 10 -18t20 -6q4 0 12 2q2 1 6 1q8 0 9 -9l7 -48v-3q0 -9 -9 -12q-25 -9 -55 -9q-33 0 -57.5 14.5t-32.5 48.5q-3 13 -3 26q0 47 44 91
q2 2 1.5 4t-3.5 2q-59 12 -99 50.5t-53 93.5q-14 50 -14 125q0 50 4 82q10 82 63.5 129t143.5 47q96 0 147.5 -50.5t60.5 -143.5q5 -53 5 -103q0 -12 -12 -12h-266q-5 0 -5 -5q0 -21 3 -36q5 -28 26 -44.5t52 -16.5q27 1 45 14zM182 343q-2 -10 -4 -36q0 -5 5 -5h130
q5 0 5 5q0 12 -4 34q-4 28 -21 44t-46 16q-54 0 -65 -58z" />
    <glyph glyph-name="Ecaron" unicode="&#x11a;" horiz-adv-x="511" 
d="M475.5 582.5q-3.5 -3.5 -8.5 -3.5h-268q-5 0 -5 -5v-156q0 -5 5 -5h167q5 0 8.5 -3.5t3.5 -8.5v-97q0 -5 -3.5 -8.5t-8.5 -3.5h-167q-5 0 -5 -5v-161q0 -5 5 -5h268q5 0 8.5 -3.5t3.5 -8.5v-97q0 -5 -3.5 -8.5t-8.5 -3.5h-402q-5 0 -8.5 3.5t-3.5 8.5v676q0 5 3.5 8.5
t8.5 3.5h402q5 0 8.5 -3.5t3.5 -8.5v-97q0 -5 -3.5 -8.5zM187 771l-68 105q-2 4 -2 7q0 7 10 7h84q10 0 14 -8l36 -58q2 -3 4 -3t3 3l35 58q4 8 14 8h81q7 0 9 -4.5t-2 -10.5l-69 -104q-5 -8 -14 -8h-121q-9 0 -14 8z" />
    <glyph glyph-name="ecaron" unicode="&#x11b;" horiz-adv-x="492" 
d="M304 126q18 13 28 34q5 11 15 8l95 -20q12 -3 9 -15q-20 -66 -71.5 -103.5t-127.5 -37.5q-79 0 -132 40.5t-69 107.5q-14 50 -14 125q0 50 4 82q10 82 63.5 129t143.5 47q96 0 147.5 -50.5t60.5 -143.5q5 -53 5 -103q0 -12 -12 -12h-266q-5 0 -5 -5q0 -21 3 -36
q5 -28 26 -44.5t52 -16.5q27 1 45 14zM182 343q-2 -10 -4 -36q0 -5 5 -5h130q5 0 5 5q0 12 -4 34q-4 28 -21 44t-46 16q-54 0 -65 -58zM169 580l-68 105q-2 4 -2 7q0 7 10 7h84q10 0 14 -8l36 -59q1 -3 3 -3t4 3l35 59q4 8 15 8h80q7 0 9 -4.5t-2 -10.5l-69 -104
q-5 -8 -14 -8h-121q-9 0 -14 8z" />
    <glyph glyph-name="Gbreve" unicode="&#x11e;" horiz-adv-x="535" 
d="M150 19q-52 27 -80.5 76.5t-28.5 114.5v281q0 65 28.5 114t80.5 76t120 27q67 0 119.5 -26.5t81 -74t28.5 -107.5v-22q0 -5 -3.5 -8.5t-8.5 -3.5h-117q-5 0 -8.5 3.5t-3.5 8.5v21q0 38 -24 63t-64 25t-64.5 -26t-24.5 -68v-286q0 -42 25.5 -68t66.5 -26q39 0 62.5 23
t23.5 63v62q0 5 -5 5h-78q-5 0 -8.5 3.5t-3.5 8.5v91q0 5 3.5 8.5t8.5 3.5h211q5 0 8.5 -3.5t3.5 -8.5v-159q0 -100 -62.5 -159t-166.5 -59q-68 0 -120 27zM187 772.5q-34 29.5 -39 76.5v2q0 10 11 10h51q11 0 12 -12q4 -19 17 -31t31 -12q19 0 32 12t16 31q2 12 12 12h51
q13 0 11 -12q-4 -47 -38 -76.5t-84 -29.5q-49 0 -83 29.5z" />
    <glyph glyph-name="gbreve" unicode="&#x11f;" horiz-adv-x="498" 
d="M319.5 510.5q3.5 3.5 8.5 3.5h117q5 0 8.5 -3.5t3.5 -8.5v-467q0 -120 -66.5 -178.5t-190.5 -58.5q-27 0 -57 3q-12 1 -12 13l3 101q0 11 13 11q15 -2 42 -2q67 0 97 28.5t30 90.5v0q0 3 -2 4t-4 -2q-37 -43 -102 -43t-110 38t-57 113q-7 26 -7 106t9 112q11 71 53 111
t109 40q66 0 105 -45q2 -3 4 -2t2 4v23q0 5 3.5 8.5zM316 259q0 51 -4 83q-5 27 -22 43t-43 16q-25 0 -42.5 -16.5t-22.5 -42.5q-6 -36 -6 -83q0 -44 5 -81q5 -27 22.5 -43t44.5 -16q26 0 43 16t21 42q4 32 4 82zM173 584.5q-34 29.5 -39 76.5v2q0 10 11 10h51q11 0 12 -12
q4 -19 17 -31t31 -12q19 0 32 12t16 31q2 12 12 12h51q13 0 11 -12q-4 -47 -38 -76.5t-84 -29.5q-49 0 -83 29.5z" />
    <glyph glyph-name="Gdotaccent" unicode="&#x120;" horiz-adv-x="535" 
d="M150 19q-52 27 -80.5 76.5t-28.5 114.5v281q0 65 28.5 114t80.5 76t120 27q67 0 119.5 -26.5t81 -74t28.5 -107.5v-22q0 -5 -3.5 -8.5t-8.5 -3.5h-117q-5 0 -8.5 3.5t-3.5 8.5v21q0 38 -24 63t-64 25t-64.5 -26t-24.5 -68v-286q0 -42 25.5 -68t66.5 -26q39 0 62.5 23
t23.5 63v62q0 5 -5 5h-78q-5 0 -8.5 3.5t-3.5 8.5v91q0 5 3.5 8.5t8.5 3.5h211q5 0 8.5 -3.5t3.5 -8.5v-159q0 -100 -62.5 -159t-166.5 -59q-68 0 -120 27zM223.5 776q-17.5 18 -17.5 47t17.5 47t46.5 18q28 0 45.5 -18t17.5 -47t-17.5 -47t-45.5 -18q-29 0 -46.5 18z" />
    <glyph glyph-name="gdotaccent" unicode="&#x121;" horiz-adv-x="498" 
d="M319.5 510.5q3.5 3.5 8.5 3.5h117q5 0 8.5 -3.5t3.5 -8.5v-467q0 -120 -66.5 -178.5t-190.5 -58.5q-27 0 -57 3q-12 1 -12 13l3 101q0 11 13 11q15 -2 42 -2q67 0 97 28.5t30 90.5v0q0 3 -2 4t-4 -2q-37 -43 -102 -43t-110 38t-57 113q-7 26 -7 106t9 112q11 71 53 111
t109 40q66 0 105 -45q2 -3 4 -2t2 4v23q0 5 3.5 8.5zM316 259q0 51 -4 83q-5 27 -22 43t-43 16q-25 0 -42.5 -16.5t-22.5 -42.5q-6 -36 -6 -83q0 -44 5 -81q5 -27 22.5 -43t44.5 -16q26 0 43 16t21 42q4 32 4 82zM209.5 588q-17.5 18 -17.5 47t17.5 47t46.5 18
q28 0 45.5 -18t17.5 -47t-17.5 -47t-45.5 -18q-29 0 -46.5 18z" />
    <glyph glyph-name="uni0122" unicode="&#x122;" horiz-adv-x="535" 
d="M150 19q-52 27 -80.5 76.5t-28.5 114.5v281q0 65 28.5 114t80.5 76t120 27q67 0 119.5 -26.5t81 -74t28.5 -107.5v-22q0 -5 -3.5 -8.5t-8.5 -3.5h-117q-5 0 -8.5 3.5t-3.5 8.5v21q0 38 -24 63t-64 25t-64.5 -26t-24.5 -68v-286q0 -42 25.5 -68t66.5 -26q39 0 62.5 23
t23.5 63v62q0 5 -5 5h-78q-5 0 -8.5 3.5t-3.5 8.5v91q0 5 3.5 8.5t8.5 3.5h211q5 0 8.5 -3.5t3.5 -8.5v-159q0 -100 -62.5 -159t-166.5 -59q-68 0 -120 27zM170 -180q-3 4 1 10l57 101q5 8 15 8h109q10 0 10 -7q0 -3 -3 -8l-73 -101q-5 -7 -14 -7h-92q-7 0 -10 4z" />
    <glyph glyph-name="uni0123" unicode="&#x123;" horiz-adv-x="498" 
d="M354 692q3 -4 -1 -10l-57 -101q-5 -8 -15 -8h-109q-10 0 -10 7q0 4 3 8l73 101q5 7 14 7h92q7 0 10 -4zM319.5 510.5q3.5 3.5 8.5 3.5h117q5 0 8.5 -3.5t3.5 -8.5v-467q0 -120 -66.5 -178.5t-190.5 -58.5q-27 0 -57 3q-12 1 -12 13l3 101q0 11 13 11q15 -2 42 -2
q67 0 97 28.5t30 90.5v0q0 3 -2 4t-4 -2q-37 -43 -102 -43t-110 38t-57 113q-7 26 -7 106t9 112q11 71 53 111t109 40q66 0 105 -45q2 -3 4 -2t2 4v23q0 5 3.5 8.5zM316 259q0 51 -4 83q-5 27 -22 43t-43 16q-25 0 -42.5 -16.5t-22.5 -42.5q-6 -36 -6 -83q0 -44 5 -81
q5 -27 22.5 -43t44.5 -16q26 0 43 16t21 42q4 32 4 82z" />
    <glyph glyph-name="Hbar" unicode="&#x126;" horiz-adv-x="554" 
d="M554.5 599.5q3.5 -3.5 3.5 -8.5v-72q0 -5 -3.5 -8.5t-8.5 -3.5h-36q-5 0 -5 -5v-490q0 -5 -3.5 -8.5t-8.5 -3.5h-117q-5 0 -8.5 3.5t-3.5 8.5v274q0 5 -5 5h-160q-5 0 -5 -5v-274q0 -5 -3.5 -8.5t-8.5 -3.5h-117q-5 0 -8.5 3.5t-3.5 8.5v490q0 5 -5 5h-36q-5 0 -8.5 3.5
t-3.5 8.5v72q0 5 3.5 8.5t8.5 3.5h36q5 0 5 5v80q0 5 3.5 8.5t8.5 3.5h117q5 0 8.5 -3.5t3.5 -8.5v-80q0 -5 5 -5h160q5 0 5 5v80q0 5 3.5 8.5t8.5 3.5h117q5 0 8.5 -3.5t3.5 -8.5v-80q0 -5 5 -5h36q5 0 8.5 -3.5zM364 418v84q0 5 -5 5h-160q-5 0 -5 -5v-84q0 -5 5 -5h160
q5 0 5 5z" />
    <glyph glyph-name="hbar" unicode="&#x127;" horiz-adv-x="497" 
d="M413.5 475.5q41.5 -46.5 41.5 -129.5v-334q0 -5 -3.5 -8.5t-8.5 -3.5h-117q-5 0 -8.5 3.5t-3.5 8.5v314q0 35 -17 55t-46 20q-30 0 -47.5 -20.5t-17.5 -55.5v-313q0 -5 -3.5 -8.5t-8.5 -3.5h-117q-5 0 -8.5 3.5t-3.5 8.5v529q0 5 -5 5h-40q-5 0 -8.5 3.5t-3.5 8.5v60
q0 5 3.5 8.5t8.5 3.5h40q5 0 5 5v53q0 5 3.5 8.5t8.5 3.5h117q5 0 8.5 -3.5t3.5 -8.5v-53q0 -5 5 -5h111q5 0 8.5 -3.5t3.5 -8.5v-60q0 -5 -3.5 -8.5t-8.5 -3.5h-111q-5 0 -5 -5v-66q0 -3 2 -3.5t5 2.5q37 48 106 48q73 0 114.5 -46.5z" />
    <glyph glyph-name="Imacron" unicode="&#x12a;" horiz-adv-x="246" 
d="M56.5 3.5q-3.5 3.5 -3.5 8.5v676q0 5 3.5 8.5t8.5 3.5h117q5 0 8.5 -3.5t3.5 -8.5v-676q0 -5 -3.5 -8.5t-8.5 -3.5h-117q-5 0 -8.5 3.5zM-3.5 781.5q-3.5 3.5 -3.5 8.5v71q0 5 3.5 8.5t8.5 3.5h233q5 0 8.5 -3.5t3.5 -8.5v-71q0 -5 -3.5 -8.5t-8.5 -3.5h-233
q-5 0 -8.5 3.5z" />
    <glyph glyph-name="imacron" unicode="&#x12b;" horiz-adv-x="229" 
d="M46.5 3.5q-3.5 3.5 -3.5 8.5v490q0 5 3.5 8.5t8.5 3.5h117q5 0 8.5 -3.5t3.5 -8.5v-490q0 -5 -3.5 -8.5t-8.5 -3.5h-117q-5 0 -8.5 3.5zM-14.5 595.5q-3.5 3.5 -3.5 8.5v71q0 5 3.5 8.5t8.5 3.5h233q5 0 8.5 -3.5t3.5 -8.5v-71q0 -5 -3.5 -8.5t-8.5 -3.5h-233
q-5 0 -8.5 3.5z" />
    <glyph glyph-name="Iogonek" unicode="&#x12e;" horiz-adv-x="272" 
d="M73.5 3.5q-3.5 3.5 -3.5 8.5v676q0 5 3.5 8.5t8.5 3.5h117q5 0 8.5 -3.5t3.5 -8.5v-676q0 -5 -3.5 -8.5t-8.5 -3.5h-117q-5 0 -8.5 3.5zM216 -171q0 -9 -9 -12q-25 -9 -55 -9q-33 0 -57.5 14.5t-32.5 48.5q-3 12 -3 25q0 51 49 96l4 4t12 4h64q10 0 10 -6q0 -4 -5 -9
q-42 -34 -42 -65q0 -7 1 -10q2 -12 10 -18t20 -6q4 0 12 2q2 1 6 1q8 0 9 -9l7 -48v-3z" />
    <glyph glyph-name="iogonek" unicode="&#x12f;" horiz-adv-x="242" 
d="M59.5 3.5q-3.5 3.5 -3.5 8.5v490q0 5 3.5 8.5t8.5 3.5h117q5 0 8.5 -3.5t3.5 -8.5v-490q0 -5 -3.5 -8.5t-8.5 -3.5h-117q-5 0 -8.5 3.5zM78.5 594q-17.5 18 -17.5 47t17.5 47t46.5 18q28 0 45.5 -18t17.5 -47t-17.5 -47t-45.5 -18q-29 0 -46.5 18zM200 -171q0 -9 -9 -12
q-25 -9 -55 -9q-33 0 -57.5 14.5t-32.5 48.5q-3 12 -3 25q0 51 49 96l4 4t12 4h64q10 0 10 -6q0 -4 -5 -9q-42 -34 -42 -65q0 -7 1 -10q2 -12 10 -18t20 -6q4 0 12 2q2 1 6 1q8 0 9 -9l7 -48v-3z" />
    <glyph glyph-name="Idotaccent" unicode="&#x130;" horiz-adv-x="246" 
d="M56.5 3.5q-3.5 3.5 -3.5 8.5v676q0 5 3.5 8.5t8.5 3.5h117q5 0 8.5 -3.5t3.5 -8.5v-676q0 -5 -3.5 -8.5t-8.5 -3.5h-117q-5 0 -8.5 3.5zM76.5 780q-17.5 18 -17.5 47t17.5 47t46.5 18q28 0 45.5 -18t17.5 -47t-17.5 -47t-45.5 -18q-29 0 -46.5 18z" />
    <glyph glyph-name="dotlessi" unicode="&#x131;" horiz-adv-x="229" 
d="M46.5 3.5q-3.5 3.5 -3.5 8.5v490q0 5 3.5 8.5t8.5 3.5h117q5 0 8.5 -3.5t3.5 -8.5v-490q0 -5 -3.5 -8.5t-8.5 -3.5h-117q-5 0 -8.5 3.5z" />
    <glyph glyph-name="ij" unicode="&#x133;" horiz-adv-x="468" 
d="M61.5 586.5q-23.5 23.5 -23.5 60.5t23.5 60t60.5 23t60.5 -23t23.5 -60t-23 -60.5t-61 -23.5q-37 0 -60.5 23.5zM54.5 3.5q-3.5 3.5 -3.5 8.5v490q0 5 3.5 8.5t8.5 3.5h117q5 0 8.5 -3.5t3.5 -8.5v-490q0 -5 -3.5 -8.5t-8.5 -3.5h-117q-5 0 -8.5 3.5zM292.5 586
q-23.5 24 -23.5 60q0 35 25 59t59 24q33 0 58.5 -24.5t25.5 -58.5q0 -36 -24 -60t-60 -24q-37 0 -60.5 24zM176 -192v96q0 13 13 11q52 -1 72.5 19t20.5 65v503q0 5 3.5 8.5t8.5 3.5h117q5 0 8.5 -3.5t3.5 -8.5v-502q0 -77 -18 -120.5t-68.5 -64t-148.5 -19.5q-12 0 -12 12z
" />
    <glyph glyph-name="uni0136" unicode="&#x136;" horiz-adv-x="558" 
d="M56.5 3.5q-3.5 3.5 -3.5 8.5v676q0 5 3.5 8.5t8.5 3.5h117q5 0 8.5 -3.5t3.5 -8.5v-266q0 -3 2.5 -4t3.5 2l179 272q5 8 14 8h129q7 0 9.5 -4t-1.5 -10l-185 -287q-1 -3 0 -7l196 -378q2 -4 2 -6q0 -8 -11 -8h-128q-9 0 -14 9l-142 274q-1 3 -3 3t-4 -3l-45 -65
q-2 -4 -2 -6v-200q0 -5 -3.5 -8.5t-8.5 -3.5h-117q-5 0 -8.5 3.5zM190 -172q-3 4 1 10l57 101q5 8 15 8h109q10 0 10 -7q0 -3 -3 -8l-73 -101q-5 -7 -14 -7h-92q-7 0 -10 4z" />
    <glyph glyph-name="uni0137" unicode="&#x137;" horiz-adv-x="491" 
d="M48.5 3.5q-3.5 3.5 -3.5 8.5v676q0 5 3.5 8.5t8.5 3.5h117q5 0 8.5 -3.5t3.5 -8.5v-334q0 -3 2 -4t4 2l112 155q5 7 14 7h127q10 0 10 -7q0 -3 -3 -8l-118 -164q-2 -3 0 -7l136 -314q1 -2 1 -6q0 -8 -10 -8h-123q-11 0 -14 10l-81 215q-1 3 -3 3t-4 -2l-48 -66
q-2 -4 -2 -6v-142q0 -5 -3.5 -8.5t-8.5 -3.5h-117q-5 0 -8.5 3.5zM156 -172q-3 4 1 10l57 101q5 8 15 8h109q10 0 10 -7q0 -3 -3 -8l-73 -101q-5 -7 -14 -7h-92q-7 0 -10 4z" />
    <glyph glyph-name="Lacute" unicode="&#x139;" horiz-adv-x="499" 
d="M56.5 3.5q-3.5 3.5 -3.5 8.5v676q0 5 3.5 8.5t8.5 3.5h117q5 0 8.5 -3.5t3.5 -8.5v-562q0 -5 5 -5h268q5 0 8.5 -3.5t3.5 -8.5v-97q0 -5 -3.5 -8.5t-8.5 -3.5h-402q-5 0 -8.5 3.5zM56 764q-3 4 1 10l57 101q5 8 15 8h109q10 0 10 -7q0 -3 -3 -8l-73 -101q-5 -7 -14 -7
h-92q-7 0 -10 4z" />
    <glyph glyph-name="lacute" unicode="&#x13a;" horiz-adv-x="229" 
d="M47.5 3.5q-3.5 3.5 -3.5 8.5v676q0 5 3.5 8.5t8.5 3.5h117q5 0 8.5 -3.5t3.5 -8.5v-676q0 -5 -3.5 -8.5t-8.5 -3.5h-117q-5 0 -8.5 3.5zM48 764q-3 4 1 10l57 101q5 8 15 8h109q10 0 10 -7q0 -3 -3 -8l-73 -101q-5 -7 -14 -7h-92q-7 0 -10 4z" />
    <glyph glyph-name="uni013B" unicode="&#x13b;" horiz-adv-x="499" 
d="M56.5 3.5q-3.5 3.5 -3.5 8.5v676q0 5 3.5 8.5t8.5 3.5h117q5 0 8.5 -3.5t3.5 -8.5v-562q0 -5 5 -5h268q5 0 8.5 -3.5t3.5 -8.5v-97q0 -5 -3.5 -8.5t-8.5 -3.5h-402q-5 0 -8.5 3.5zM143 -172q-3 4 1 10l57 101q5 8 15 8h109q10 0 10 -7q0 -3 -3 -8l-73 -101q-5 -7 -14 -7
h-92q-7 0 -10 4z" />
    <glyph glyph-name="uni013C" unicode="&#x13c;" horiz-adv-x="230" 
d="M47.5 3.5q-3.5 3.5 -3.5 8.5v676q0 5 3.5 8.5t8.5 3.5h117q5 0 8.5 -3.5t3.5 -8.5v-676q0 -5 -3.5 -8.5t-8.5 -3.5h-117q-5 0 -8.5 3.5zM-17 -172q-3 4 1 10l57 101q5 8 15 8h109q10 0 10 -7q0 -3 -3 -8l-73 -101q-5 -7 -14 -7h-92q-7 0 -10 4z" />
    <glyph glyph-name="Lcaron" unicode="&#x13d;" horiz-adv-x="499" 
d="M56.5 3.5q-3.5 3.5 -3.5 8.5v676q0 5 3.5 8.5t8.5 3.5h117q5 0 8.5 -3.5t3.5 -8.5v-562q0 -5 5 -5h268q5 0 8.5 -3.5t3.5 -8.5v-97q0 -5 -3.5 -8.5t-8.5 -3.5h-402q-5 0 -8.5 3.5zM46 757l-68 105q-2 4 -2 7q0 7 10 7h84q10 0 14 -8l36 -59q1 -3 3 -3t4 3l35 59q4 8 15 8
h80q7 0 9 -4.5t-2 -10.5l-69 -104q-5 -8 -14 -8h-121q-9 0 -14 8z" />
    <glyph glyph-name="lcaron" unicode="&#x13e;" horiz-adv-x="229" 
d="M47.5 3.5q-3.5 3.5 -3.5 8.5v676q0 5 3.5 8.5t8.5 3.5h117q5 0 8.5 -3.5t3.5 -8.5v-676q0 -5 -3.5 -8.5t-8.5 -3.5h-117q-5 0 -8.5 3.5zM38 757l-68 105q-2 4 -2 7q0 7 10 7h84q10 0 14 -8l36 -59q1 -3 3 -3t4 3l35 59q4 8 15 8h80q7 0 9 -4.5t-2 -10.5l-69 -104
q-5 -8 -14 -8h-121q-9 0 -14 8z" />
    <glyph glyph-name="Lslash" unicode="&#x141;" horiz-adv-x="499" 
d="M199 121h268q5 0 8.5 -3.5t3.5 -8.5v-97q0 -5 -3.5 -8.5t-8.5 -3.5h-402q-5 0 -8.5 3.5t-3.5 8.5v177q0 3 -2 4t-4 -1l-60 -49q-6 -4 -8 -4q-4 0 -9 5l-53 63q-4 6 -4 8q0 4 5 9l132 110q3 2 3 6v348q0 5 3.5 8.5t8.5 3.5h117q5 0 8.5 -3.5t3.5 -8.5v-227q0 -3 2 -4t4 1
l148 122q6 4 8 4q4 0 9 -5l53 -63q4 -6 4 -8q0 -4 -5 -9l-220 -183q-3 -1 -3 -6v-184q0 -5 5 -5z" />
    <glyph glyph-name="lslash" unicode="&#x142;" horiz-adv-x="229" 
d="M320 400q0 -7 -7 -11l-124 -68q-4 -3 -4 -6v-303q0 -5 -3.5 -8.5t-8.5 -3.5h-117q-5 0 -8.5 3.5t-3.5 8.5v222q0 3 -2 4.5t-4 -0.5l-42 -23q-4 -2 -7 -2q-7 0 -10 7l-36 70q-2 4 -2 6q0 6 6 10l94 52q3 2 3 6v324q0 5 3.5 8.5t8.5 3.5h117q5 0 8.5 -3.5t3.5 -8.5v-243
q0 -3 2 -4t4 0l72 40q4 2 6 2q6 0 10 -6l39 -71q2 -4 2 -6z" />
    <glyph glyph-name="Nacute" unicode="&#x143;" horiz-adv-x="586" 
d="M56.5 3.5q-3.5 3.5 -3.5 8.5v676q0 5 3.5 8.5t8.5 3.5h118q10 0 14 -9l192 -399q2 -3 4 -2.5t2 4.5l-1 394q0 5 3.5 8.5t8.5 3.5h116q5 0 8.5 -3.5t3.5 -8.5v-676q0 -5 -3.5 -8.5t-8.5 -3.5h-119q-9 0 -14 9l-192 402q-2 3 -4 2.5t-2 -4.5l2 -397q0 -5 -3.5 -8.5
t-8.5 -3.5h-116q-5 0 -8.5 3.5zM221 777q-3 4 1 10l57 101q5 8 15 8h109q10 0 10 -7q0 -3 -3 -8l-73 -101q-5 -7 -14 -7h-92q-7 0 -10 4z" />
    <glyph glyph-name="nacute" unicode="&#x144;" horiz-adv-x="497" 
d="M413.5 475.5q41.5 -46.5 41.5 -129.5v-334q0 -5 -3.5 -8.5t-8.5 -3.5h-117q-5 0 -8.5 3.5t-3.5 8.5v314q0 35 -17 55t-46 20q-30 0 -47.5 -20.5t-17.5 -55.5v-313q0 -5 -3.5 -8.5t-8.5 -3.5h-117q-5 0 -8.5 3.5t-3.5 8.5v490q0 5 3.5 8.5t8.5 3.5h117q5 0 8.5 -3.5
t3.5 -8.5v-27q0 -3 2 -3.5t5 2.5q37 48 106 48q73 0 114.5 -46.5zM185 579q-3 4 1 10l57 101q5 8 15 8h109q10 0 10 -7q0 -3 -3 -8l-73 -101q-5 -7 -14 -7h-92q-7 0 -10 4z" />
    <glyph glyph-name="uni0145" unicode="&#x145;" horiz-adv-x="586" 
d="M56.5 3.5q-3.5 3.5 -3.5 8.5v676q0 5 3.5 8.5t8.5 3.5h118q10 0 14 -9l192 -399q2 -3 4 -2.5t2 4.5l-1 394q0 5 3.5 8.5t8.5 3.5h116q5 0 8.5 -3.5t3.5 -8.5v-676q0 -5 -3.5 -8.5t-8.5 -3.5h-119q-9 0 -14 9l-192 402q-2 3 -4 2.5t-2 -4.5l2 -397q0 -5 -3.5 -8.5
t-8.5 -3.5h-116q-5 0 -8.5 3.5zM209 -172q-3 4 1 10l57 101q5 8 15 8h109q10 0 10 -7q0 -3 -3 -8l-73 -101q-5 -7 -14 -7h-92q-7 0 -10 4z" />
    <glyph glyph-name="uni0146" unicode="&#x146;" horiz-adv-x="497" 
d="M413.5 475.5q41.5 -46.5 41.5 -129.5v-334q0 -5 -3.5 -8.5t-8.5 -3.5h-117q-5 0 -8.5 3.5t-3.5 8.5v314q0 35 -17 55t-46 20q-30 0 -47.5 -20.5t-17.5 -55.5v-313q0 -5 -3.5 -8.5t-8.5 -3.5h-117q-5 0 -8.5 3.5t-3.5 8.5v490q0 5 3.5 8.5t8.5 3.5h117q5 0 8.5 -3.5
t3.5 -8.5v-27q0 -3 2 -3.5t5 2.5q37 48 106 48q73 0 114.5 -46.5zM155 -172q-3 4 1 10l57 101q5 8 15 8h109q10 0 10 -7q0 -3 -3 -8l-73 -101q-5 -7 -14 -7h-92q-7 0 -10 4z" />
    <glyph glyph-name="Ncaron" unicode="&#x147;" horiz-adv-x="586" 
d="M56.5 3.5q-3.5 3.5 -3.5 8.5v676q0 5 3.5 8.5t8.5 3.5h118q10 0 14 -9l192 -399q2 -3 4 -2.5t2 4.5l-1 394q0 5 3.5 8.5t8.5 3.5h116q5 0 8.5 -3.5t3.5 -8.5v-676q0 -5 -3.5 -8.5t-8.5 -3.5h-119q-9 0 -14 9l-192 402q-2 3 -4 2.5t-2 -4.5l2 -397q0 -5 -3.5 -8.5
t-8.5 -3.5h-116q-5 0 -8.5 3.5zM211 772l-68 105q-2 4 -2 7q0 7 10 7h84q10 0 14 -8l36 -58q2 -3 4 -3t3 3l35 58q4 8 14 8h81q7 0 9 -4.5t-2 -10.5l-69 -104q-5 -8 -14 -8h-121q-9 0 -14 8z" />
    <glyph glyph-name="ncaron" unicode="&#x148;" horiz-adv-x="497" 
d="M413.5 475.5q41.5 -46.5 41.5 -129.5v-334q0 -5 -3.5 -8.5t-8.5 -3.5h-117q-5 0 -8.5 3.5t-3.5 8.5v314q0 35 -17 55t-46 20q-30 0 -47.5 -20.5t-17.5 -55.5v-313q0 -5 -3.5 -8.5t-8.5 -3.5h-117q-5 0 -8.5 3.5t-3.5 8.5v490q0 5 3.5 8.5t8.5 3.5h117q5 0 8.5 -3.5
t3.5 -8.5v-27q0 -3 2 -3.5t5 2.5q37 48 106 48q73 0 114.5 -46.5zM175 574l-68 105q-2 4 -2 7q0 7 10 7h84q10 0 14 -8l36 -58q2 -3 4 -3t3 3l35 58q4 8 14 8h81q7 0 9 -4.5t-2 -10.5l-69 -104q-5 -8 -14 -8h-121q-9 0 -14 8z" />
    <glyph glyph-name="Eng" unicode="&#x14a;" horiz-adv-x="590" 
d="M536 422q1 -3 1 -10v-395q0 -79 -15.5 -121.5t-64 -62.5t-145.5 -19q-12 0 -12 12v95q0 13 13 11q45 -1 60 15.5t17 55.5l-1 6l-192 402q-2 3 -4 2.5t-2 -4.5l2 -397q0 -5 -3.5 -8.5t-8.5 -3.5h-116q-5 0 -8.5 3.5t-3.5 8.5v676q0 5 3.5 8.5t8.5 3.5h118q10 0 14 -9
l187 -389q2 -3 4 -2.5t2 4.5v108q0 5 1 8t2 4q2 0 2 5l-1 259q0 5 3.5 8.5t8.5 3.5h116q5 0 8.5 -3.5t3.5 -8.5v-261q0 -1 2 -5z" />
    <glyph glyph-name="eng" unicode="&#x14b;" horiz-adv-x="497" 
d="M455.5 222.5l0.5 -1.5h1v-207q0 -73 -13.5 -114.5t-59 -64.5t-138.5 -23q-16 0 -16 12v91q0 12 12 12q40 1 56 17t18 51q0 2 -0.5 3.5l-0.5 1.5h-1v326q0 35 -17 55t-46 20q-30 0 -47.5 -20.5t-17.5 -55.5v-313q0 -5 -3.5 -8.5t-8.5 -3.5h-117q-5 0 -8.5 3.5t-3.5 8.5
v490q0 5 3.5 8.5t8.5 3.5h117q5 0 8.5 -3.5t3.5 -8.5v-27q0 -3 2 -3.5t4 2.5q37 48 107 48q73 0 114.5 -46.5t41.5 -129.5v-120q0 -2 0.5 -3.5z" />
    <glyph glyph-name="Omacron" unicode="&#x14c;" horiz-adv-x="547" 
d="M151.5 19q-52.5 28 -81.5 79t-29 119v266q0 67 29 118t81.5 79t121.5 28t122 -28t82 -79t29 -118v-266q0 -68 -29 -119t-82 -79t-122 -28t-121.5 28zM340 139.5q25 27.5 25 71.5v276q0 45 -25 72.5t-67 27.5q-41 0 -66 -27.5t-25 -72.5v-276q0 -44 25 -71.5t66 -27.5
q42 0 67 27.5zM146.5 776.5q-3.5 3.5 -3.5 8.5v71q0 5 3.5 8.5t8.5 3.5h233q5 0 8.5 -3.5t3.5 -8.5v-71q0 -5 -3.5 -8.5t-8.5 -3.5h-233q-5 0 -8.5 3.5z" />
    <glyph glyph-name="omacron" unicode="&#x14d;" horiz-adv-x="500" 
d="M108 36q-55 44 -66 122q-7 49 -7 100q0 62 7 101q12 75 67 119t142 44q85 0 140 -44t66 -118q8 -46 8 -101q0 -50 -7 -99q-11 -79 -66 -123.5t-142 -44.5t-142 44zM296 131q18 18 23 48q4 32 4 79t-4 78q-5 30 -23 47.5t-46 17.5t-46 -17.5t-23 -47.5q-5 -38 -5 -78
q0 -31 4 -79q5 -30 24 -48t46 -18q28 0 46 18zM123.5 591.5q-3.5 3.5 -3.5 8.5v71q0 5 3.5 8.5t8.5 3.5h233q5 0 8.5 -3.5t3.5 -8.5v-71q0 -5 -3.5 -8.5t-8.5 -3.5h-233q-5 0 -8.5 3.5z" />
    <glyph glyph-name="Ohungarumlaut" unicode="&#x150;" horiz-adv-x="547" 
d="M151.5 19q-52.5 28 -81.5 79t-29 119v266q0 67 29 118t81.5 79t121.5 28t122 -28t82 -79t29 -118v-266q0 -68 -29 -119t-82 -79t-122 -28t-121.5 28zM340 139.5q25 27.5 25 71.5v276q0 45 -25 72.5t-67 27.5q-41 0 -66 -27.5t-25 -72.5v-276q0 -44 25 -71.5t66 -27.5
q42 0 67 27.5zM139.5 768.5q-2.5 3.5 0.5 10.5l47 100q4 9 14 9h99q7 0 9 -4t-1 -10l-53 -100q-5 -9 -14 -9h-92q-7 0 -9.5 3.5zM308 769q-2 4 1 10l53 100q4 9 14 9h93q7 0 9 -4t-1 -10l-53 -100q-5 -9 -15 -9h-92q-7 0 -9 4z" />
    <glyph glyph-name="ohungarumlaut" unicode="&#x151;" horiz-adv-x="500" 
d="M108 36q-55 44 -66 122q-7 49 -7 100q0 62 7 101q12 75 67 119t142 44q85 0 140 -44t66 -118q8 -46 8 -101q0 -50 -7 -99q-11 -79 -66 -123.5t-142 -44.5t-142 44zM296 131q18 18 23 48q4 32 4 79t-4 78q-5 30 -23 47.5t-46 17.5t-46 -17.5t-23 -47.5q-5 -38 -5 -78
q0 -31 4 -79q5 -30 24 -48t46 -18q28 0 46 18zM116.5 583.5q-2.5 3.5 0.5 10.5l47 100q4 9 14 9h99q7 0 9 -4t-1 -10l-53 -100q-5 -9 -14 -9h-92q-7 0 -9.5 3.5zM285 584q-2 4 1 10l53 100q4 9 14 9h93q7 0 9 -4t-1 -10l-53 -100q-5 -9 -15 -9h-92q-7 0 -9 4z" />
    <glyph glyph-name="OE" unicode="&#x152;" horiz-adv-x="811" 
d="M774.5 582.5q-3.5 -3.5 -8.5 -3.5h-260q-5 0 -5 -5v-156q0 -5 5 -5h159q5 0 8.5 -3.5t3.5 -8.5v-97q0 -5 -3.5 -8.5t-8.5 -3.5h-159q-5 0 -5 -5v-161q0 -5 5 -5h260q5 0 8.5 -3.5t3.5 -8.5v-97q0 -5 -3.5 -8.5t-8.5 -3.5h-394q-5 0 -8.5 3.5t-3.5 8.5v14q0 3 -2 4t-4 -1
q-52 -38 -120 -38q-52 0 -96.5 28t-70.5 79t-26 116v272q0 65 26 115.5t70.5 78.5t96.5 28q70 0 120 -38q2 -2 4 -1t2 4v15q0 5 3.5 8.5t8.5 3.5h394q5 0 8.5 -3.5t3.5 -8.5v-97q0 -5 -3.5 -8.5zM335 138.5q25 26.5 25 69.5v282q0 43 -25 70t-65 27t-64 -27t-24 -70v-282
q0 -43 24 -69.5t64 -26.5t65 26.5z" />
    <glyph glyph-name="oe" unicode="&#x153;" horiz-adv-x="781" 
d="M593 124q19 13 29 33q6 11 16 7l91 -34q11 -5 7 -15q-21 -59 -69.5 -91t-122.5 -32q-93 0 -148 66q-3 3 -7 0q-56 -66 -143 -66q-83 0 -137 42.5t-66 116.5q-8 41 -8 107q0 67 8 107q11 72 65.5 114.5t137.5 42.5q87 0 143 -66q4 -3 8 0q56 66 142 66q83 0 138 -43.5
t66 -114.5q8 -61 8 -143q0 -12 -12 -12h-263q-5 0 -5 -5l3 -31q5 -29 25.5 -45.5t53.5 -16.5q21 0 40 13zM316 258q0 45 -5 83q-5 27 -22.5 43.5t-42.5 16.5q-26 0 -43 -16.5t-22 -43.5q-5 -40 -5 -83q0 -47 6 -85q4 -27 21 -43.5t43 -16.5q25 0 42.5 16.5t22.5 43.5
q5 40 5 85zM496.5 384.5q-17.5 -16.5 -22.5 -43.5l-3 -32q0 -5 5 -5h128q5 0 5 5q0 17 -3 32q-5 27 -22.5 43.5t-43.5 16.5t-43.5 -16.5z" />
    <glyph glyph-name="Racute" unicode="&#x154;" horiz-adv-x="543" 
d="M368 10l-101 276q-2 4 -5 4h-63q-5 0 -5 -5v-273q0 -5 -3.5 -8.5t-8.5 -3.5h-117q-5 0 -8.5 3.5t-3.5 8.5v677q0 5 3.5 8.5t8.5 3.5h244q59 0 105 -26.5t71 -74.5t25 -110q0 -64 -28.5 -111.5t-79.5 -70.5q-4 -2 -2 -7l114 -287q1 -2 1 -5q0 -9 -11 -9h-122q-11 0 -14 10
zM194 574v-170q0 -5 5 -5h87q37 0 60 24.5t23 64.5q0 42 -23 66.5t-60 24.5h-87q-5 0 -5 -5zM190 764q-3 4 1 10l57 101q5 8 15 8h109q10 0 10 -7q0 -3 -3 -8l-73 -101q-5 -7 -14 -7h-92q-7 0 -10 4z" />
    <glyph glyph-name="racute" unicode="&#x155;" horiz-adv-x="354" 
d="M337 509q8 -5 6 -15l-19 -116q-1 -12 -14 -7q-16 4 -30 4q-12 0 -26 -3q-29 -4 -48.5 -28t-19.5 -58v-274q0 -5 -3.5 -8.5t-8.5 -3.5h-117q-5 0 -8.5 3.5t-3.5 8.5v490q0 5 3.5 8.5t8.5 3.5h117q5 0 8.5 -3.5t3.5 -8.5v-39q0 -4 1.5 -4.5t3.5 2.5q35 60 97 60
q29 0 49 -12zM129 582q-3 4 1 10l57 101q5 8 15 8h109q10 0 10 -7q0 -3 -3 -8l-73 -101q-5 -7 -14 -7h-92q-7 0 -10 4z" />
    <glyph glyph-name="uni0156" unicode="&#x156;" horiz-adv-x="543" 
d="M368 10l-101 276q-2 4 -5 4h-63q-5 0 -5 -5v-273q0 -5 -3.5 -8.5t-8.5 -3.5h-117q-5 0 -8.5 3.5t-3.5 8.5v677q0 5 3.5 8.5t8.5 3.5h244q59 0 105 -26.5t71 -74.5t25 -110q0 -64 -28.5 -111.5t-79.5 -70.5q-4 -2 -2 -7l114 -287q1 -2 1 -5q0 -9 -11 -9h-122q-11 0 -14 10
zM194 574v-170q0 -5 5 -5h87q37 0 60 24.5t23 64.5q0 42 -23 66.5t-60 24.5h-87q-5 0 -5 -5zM172 -172q-3 4 1 10l57 101q5 8 15 8h109q10 0 10 -7q0 -3 -3 -8l-73 -101q-5 -7 -14 -7h-92q-7 0 -10 4z" />
    <glyph glyph-name="uni0157" unicode="&#x157;" horiz-adv-x="356" 
d="M337 509q8 -5 6 -15l-19 -116q-1 -12 -14 -7q-16 4 -30 4q-12 0 -26 -3q-29 -4 -48.5 -28t-19.5 -58v-274q0 -5 -3.5 -8.5t-8.5 -3.5h-117q-5 0 -8.5 3.5t-3.5 8.5v490q0 5 3.5 8.5t8.5 3.5h117q5 0 8.5 -3.5t3.5 -8.5v-39q0 -4 1.5 -4.5t3.5 2.5q35 60 97 60
q29 0 49 -12zM-20 -172q-3 4 1 10l57 101q5 8 15 8h109q10 0 10 -7q0 -3 -3 -8l-73 -101q-5 -7 -14 -7h-92q-7 0 -10 4z" />
    <glyph glyph-name="Rcaron" unicode="&#x158;" horiz-adv-x="543" 
d="M368 10l-101 276q-2 4 -5 4h-63q-5 0 -5 -5v-273q0 -5 -3.5 -8.5t-8.5 -3.5h-117q-5 0 -8.5 3.5t-3.5 8.5v677q0 5 3.5 8.5t8.5 3.5h244q59 0 105 -26.5t71 -74.5t25 -110q0 -64 -28.5 -111.5t-79.5 -70.5q-4 -2 -2 -7l114 -287q1 -2 1 -5q0 -9 -11 -9h-122q-11 0 -14 10
zM194 574v-170q0 -5 5 -5h87q37 0 60 24.5t23 64.5q0 42 -23 66.5t-60 24.5h-87q-5 0 -5 -5zM180 759l-68 105q-2 4 -2 7q0 7 10 7h84q10 0 14 -8l36 -58q2 -3 4 -3t3 3l35 58q4 8 14 8h81q7 0 9 -4.5t-2 -10.5l-69 -104q-5 -8 -14 -8h-121q-9 0 -14 8z" />
    <glyph glyph-name="rcaron" unicode="&#x159;" horiz-adv-x="354" 
d="M337 509q8 -5 6 -15l-19 -116q-1 -12 -14 -7q-16 4 -30 4q-12 0 -26 -3q-29 -4 -48.5 -28t-19.5 -58v-274q0 -5 -3.5 -8.5t-8.5 -3.5h-117q-5 0 -8.5 3.5t-3.5 8.5v490q0 5 3.5 8.5t8.5 3.5h117q5 0 8.5 -3.5t3.5 -8.5v-39q0 -4 1.5 -4.5t3.5 2.5q35 60 97 60
q29 0 49 -12zM119 577l-68 105q-2 4 -2 7q0 7 10 7h84q10 0 14 -8l36 -58q2 -3 4 -3t3 3l35 58q4 8 14 8h81q7 0 9 -4.5t-2 -10.5l-69 -104q-5 -8 -14 -8h-121q-9 0 -14 8z" />
    <glyph glyph-name="Sacute" unicode="&#x15a;" horiz-adv-x="520" 
d="M143.5 16.5q-51.5 24.5 -79.5 69t-28 102.5v27q0 5 3.5 8.5t8.5 3.5h115q5 0 8.5 -3.5t3.5 -8.5v-20q0 -35 26 -58.5t68 -23.5q39 0 59.5 20t20.5 51q0 23 -13 39.5t-36.5 31t-72.5 39.5q-60 30 -98 56t-65 67t-27 99q0 88 60 140t158 52q67 0 119 -25.5t81 -71.5
t29 -106v-20q0 -5 -3.5 -8.5t-8.5 -3.5h-115q-5 0 -8.5 3.5t-3.5 8.5v18q0 36 -25 60t-67 24q-36 0 -56.5 -18.5t-20.5 -51.5q0 -23 12 -40t37 -32.5t75 -40.5l22 -12q58 -33 90.5 -56.5t54.5 -59t22 -86.5q0 -90 -62 -144t-164 -54q-68 0 -119.5 24.5zM190 772q-3 4 1 10
l57 101q5 8 15 8h109q10 0 10 -7q0 -3 -3 -8l-73 -101q-5 -7 -14 -7h-92q-7 0 -10 4z" />
    <glyph glyph-name="sacute" unicode="&#x15b;" horiz-adv-x="457" 
d="M85.5 34q-55.5 41 -55.5 108v8q0 5 3.5 8.5t8.5 3.5h111q5 0 8.5 -2t3.5 -5v-7q0 -22 19.5 -36t48.5 -14q27 0 43.5 12.5t16.5 31.5t-18 29.5t-57 22.5q-29 8 -48 16q-60 20 -97.5 54t-37.5 98q0 73 53 116t140 43q90 0 143.5 -44.5t53.5 -118.5q0 -11 -12 -11h-107
q-5 0 -8.5 2.5t-3.5 5.5v7q0 21 -17.5 35t-46.5 14q-27 0 -43.5 -13t-16.5 -32q0 -21 20 -32.5t61 -23.5q9 -3 17.5 -5.5t15.5 -5.5q68 -23 109 -55.5t41 -96.5q0 -72 -54.5 -113t-145.5 -41q-93 0 -148.5 41zM160 585q-3 4 1 10l57 101q5 8 15 8h109q10 0 10 -7q0 -3 -3 -8
l-73 -101q-5 -7 -14 -7h-92q-7 0 -10 4z" />
    <glyph glyph-name="Scedilla" unicode="&#x15e;" horiz-adv-x="520" 
d="M442.5 61q-46.5 -51 -126.5 -65q-6 -2 -2 -6q41 -41 41 -87q0 -8 -4 -26q-8 -34 -32.5 -48.5t-57.5 -14.5q-30 0 -55 9q-10 3 -9 15l7 48q1 6 4.5 8t10.5 0q8 -2 12 -2q12 0 20 6t10 18q1 3 1 9q0 31 -43 68l-6 3q-81 13 -129 64.5t-48 127.5v27q0 5 3.5 8.5t8.5 3.5h115
q5 0 8.5 -3.5t3.5 -8.5v-20q0 -35 26 -58.5t68 -23.5q39 0 59.5 20t20.5 51q0 23 -13 39.5t-36.5 31t-72.5 39.5q-60 30 -98 56t-65 67t-27 99q0 88 60 140t158 52q67 0 119 -25.5t81 -71.5t29 -106v-20q0 -5 -3.5 -8.5t-8.5 -3.5h-115q-5 0 -8.5 3.5t-3.5 8.5v18
q0 36 -25 60t-67 24q-36 0 -56.5 -18.5t-20.5 -51.5q0 -23 12 -40t37 -32.5t75 -40.5l22 -12q58 -33 90.5 -56.5t54.5 -59t22 -86.5q0 -78 -46.5 -129z" />
    <glyph glyph-name="scedilla" unicode="&#x15f;" horiz-adv-x="457" 
d="M395 47q-39 -39 -108 -50q-6 -2 -2 -6q41 -41 41 -87q0 -8 -4 -26q-8 -34 -32.5 -48.5t-57.5 -14.5q-30 0 -55 9q-10 3 -9 15l7 48q1 6 4.5 8t10.5 0q8 -2 12 -2q12 0 20 6t10 18q1 3 1 9q0 31 -43 68l-6 3q-71 10 -112.5 49.5t-41.5 95.5v8q0 5 3.5 8.5t8.5 3.5h111
q5 0 8.5 -2t3.5 -5v-7q0 -22 19.5 -36t48.5 -14q27 0 43.5 12.5t16.5 31.5t-18 29.5t-57 22.5q-29 8 -48 16q-60 20 -97.5 54t-37.5 98q0 73 53 116t140 43q90 0 143.5 -44.5t53.5 -118.5q0 -11 -12 -11h-107q-5 0 -8.5 2.5t-3.5 5.5v7q0 21 -17.5 35t-46.5 14
q-27 0 -43.5 -13t-16.5 -32q0 -21 20 -32.5t61 -23.5q9 -3 17.5 -5.5t15.5 -5.5q68 -23 109 -55.5t41 -96.5q0 -61 -39 -100z" />
    <glyph glyph-name="Scaron" unicode="&#x160;" horiz-adv-x="520" 
d="M143.5 16.5q-51.5 24.5 -79.5 69t-28 102.5v27q0 5 3.5 8.5t8.5 3.5h115q5 0 8.5 -3.5t3.5 -8.5v-20q0 -35 26 -58.5t68 -23.5q39 0 59.5 20t20.5 51q0 23 -13 39.5t-36.5 31t-72.5 39.5q-60 30 -98 56t-65 67t-27 99q0 88 60 140t158 52q67 0 119 -25.5t81 -71.5
t29 -106v-20q0 -5 -3.5 -8.5t-8.5 -3.5h-115q-5 0 -8.5 3.5t-3.5 8.5v18q0 36 -25 60t-67 24q-36 0 -56.5 -18.5t-20.5 -51.5q0 -23 12 -40t37 -32.5t75 -40.5l22 -12q58 -33 90.5 -56.5t54.5 -59t22 -86.5q0 -90 -62 -144t-164 -54q-68 0 -119.5 24.5zM180 767l-68 105
q-2 4 -2 7q0 7 10 7h84q10 0 14 -8l36 -58q2 -3 4 -3t3 3l35 58q4 8 14 8h81q7 0 9 -4.5t-2 -10.5l-69 -104q-5 -8 -14 -8h-121q-9 0 -14 8z" />
    <glyph glyph-name="scaron" unicode="&#x161;" horiz-adv-x="457" 
d="M85.5 34q-55.5 41 -55.5 108v8q0 5 3.5 8.5t8.5 3.5h111q5 0 8.5 -2t3.5 -5v-7q0 -22 19.5 -36t48.5 -14q27 0 43.5 12.5t16.5 31.5t-18 29.5t-57 22.5q-29 8 -48 16q-60 20 -97.5 54t-37.5 98q0 73 53 116t140 43q90 0 143.5 -44.5t53.5 -118.5q0 -11 -12 -11h-107
q-5 0 -8.5 2.5t-3.5 5.5v7q0 21 -17.5 35t-46.5 14q-27 0 -43.5 -13t-16.5 -32q0 -21 20 -32.5t61 -23.5q9 -3 17.5 -5.5t15.5 -5.5q68 -23 109 -55.5t41 -96.5q0 -72 -54.5 -113t-145.5 -41q-93 0 -148.5 41zM150 580l-68 105q-2 4 -2 7q0 7 10 7h84q10 0 14 -8l36 -58
q2 -3 4 -3t3 3l35 58q4 8 14 8h81q7 0 9 -4.5t-2 -10.5l-69 -104q-5 -8 -14 -8h-121q-9 0 -14 8z" />
    <glyph glyph-name="uni0162" unicode="&#x162;" horiz-adv-x="526" 
d="M331 573v-561q0 -12 -11 -12h-2q-3 0 -4 -2t1 -4q37 -41 37 -85q0 -13 -3 -25q-8 -34 -32.5 -48.5t-57.5 -14.5q-30 0 -55 9q-11 3 -9 15l7 48q1 6 4.5 8t10.5 0q8 -2 12 -2q12 0 20 6t10 18q1 3 1 9q0 30 -41 66q-4 2 -7 2h-10q-5 0 -8.5 3.5t-3.5 8.5v561q0 5 -5 5
h-147q-5 0 -8.5 3.5t-3.5 8.5v98q0 5 3.5 8.5t8.5 3.5h450q5 0 8.5 -3.5t3.5 -8.5v-98q0 -5 -3.5 -8.5t-8.5 -3.5h-152q-5 0 -5 -5z" />
    <glyph glyph-name="uni0163" unicode="&#x163;" horiz-adv-x="335" 
d="M306.5 411.5q-3.5 -3.5 -8.5 -3.5h-77q-5 0 -5 -5v-223q0 -31 12.5 -44.5t38.5 -12.5h20q5 0 8.5 -3.5t3.5 -8.5v-97q0 -12 -12 -12q-17 -1 -50 -1q-79 0 -117.5 26t-38.5 98v278q0 5 -5 5h-46q-5 0 -8.5 3.5t-3.5 8.5v82q0 5 3.5 8.5t8.5 3.5h46q5 0 5 5v115
q0 5 3.5 8.5t8.5 3.5h111q5 0 8.5 -3.5t3.5 -8.5v-115q0 -5 5 -5h77q5 0 8.5 -3.5t3.5 -8.5v-82q0 -5 -3.5 -8.5zM145 -183l7 48q1 6 4.5 8t10.5 0q8 -2 12 -2q12 0 20 6t10 18q1 3 1 10q0 31 -42 65q-5 5 -5 9q0 6 10 6h64q8 0 12 -4q3 -1 4 -4q49 -45 49 -96q0 -13 -3 -25
q-8 -34 -32.5 -48.5t-57.5 -14.5q-30 0 -55 9q-10 3 -9 15z" />
    <glyph glyph-name="Tcaron" unicode="&#x164;" horiz-adv-x="526" 
d="M496.5 696.5q3.5 -3.5 3.5 -8.5v-98q0 -5 -3.5 -8.5t-8.5 -3.5h-152q-5 0 -5 -5v-561q0 -5 -3.5 -8.5t-8.5 -3.5h-117q-5 0 -8.5 3.5t-3.5 8.5v561q0 5 -5 5h-147q-5 0 -8.5 3.5t-3.5 8.5v98q0 5 3.5 8.5t8.5 3.5h450q5 0 8.5 -3.5zM185 757l-68 105q-2 4 -2 7q0 7 10 7
h84q10 0 14 -8l36 -59q1 -3 3 -3t4 3l35 59q4 8 15 8h80q7 0 9 -4.5t-2 -10.5l-69 -104q-5 -8 -14 -8h-121q-9 0 -14 8z" />
    <glyph glyph-name="tcaron" unicode="&#x165;" horiz-adv-x="335" 
d="M306.5 411.5q-3.5 -3.5 -8.5 -3.5h-77q-5 0 -5 -5v-223q0 -31 12.5 -44.5t38.5 -12.5h20q5 0 8.5 -3.5t3.5 -8.5v-97q0 -12 -12 -12q-17 -1 -50 -1q-79 0 -117.5 26t-38.5 98v278q0 5 -5 5h-46q-5 0 -8.5 3.5t-3.5 8.5v82q0 5 3.5 8.5t8.5 3.5h46q5 0 5 5v115
q0 5 3.5 8.5t8.5 3.5h111q5 0 8.5 -3.5t3.5 -8.5v-115q0 -5 5 -5h77q5 0 8.5 -3.5t3.5 -8.5v-82q0 -5 -3.5 -8.5zM75 703l-68 105q-2 4 -2 7q0 7 10 7h84q10 0 14 -8l36 -59q1 -3 3 -3t4 3l35 59q4 8 15 8h80q7 0 9 -4.5t-2 -10.5l-69 -104q-5 -8 -14 -8h-121q-9 0 -14 8z
" />
    <glyph glyph-name="Tbar" unicode="&#x166;" horiz-adv-x="600" 
d="M496.5 581.5q-3.5 -3.5 -8.5 -3.5h-152q-5 0 -5 -5v-159q0 -5 5 -5h77q5 0 8.5 -3.5t3.5 -8.5v-60q0 -5 -3.5 -8.5t-8.5 -3.5h-77q-5 0 -5 -5v-308q0 -5 -3.5 -8.5t-8.5 -3.5h-117q-5 0 -8.5 3.5t-3.5 8.5v308q0 5 -5 5h-74q-5 0 -8.5 3.5t-3.5 8.5v60q0 5 3.5 8.5
t8.5 3.5h74q5 0 5 5v159q0 5 -5 5h-147q-5 0 -8.5 3.5t-3.5 8.5v98q0 5 3.5 8.5t8.5 3.5h450q5 0 8.5 -3.5t3.5 -8.5v-98q0 -5 -3.5 -8.5z" />
    <glyph glyph-name="tbar" unicode="&#x167;" horiz-adv-x="600" 
d="M311.5 377.5q-3.5 -3.5 -8.5 -3.5h-82q-5 0 -5 -5v-189q0 -31 12.5 -44.5t38.5 -12.5h20q5 0 8.5 -3.5t3.5 -8.5v-97q0 -12 -12 -12q-17 -1 -50 -1q-79 0 -117.5 26t-38.5 98v244q0 5 -5 5h-45q-5 0 -8.5 3.5t-3.5 8.5v19v3h-1v94q0 5 3.5 8.5t8.5 3.5h46q5 0 5 5v115
q0 5 3.5 8.5t8.5 3.5h111q5 0 8.5 -3.5t3.5 -8.5v-115q0 -5 5 -5h77q5 0 8.5 -3.5t3.5 -8.5v-40q0 -2 1 -3.5t2 -2.5q2 -4 2 -10v-60q0 -5 -3.5 -8.5z" />
    <glyph glyph-name="Umacron" unicode="&#x16a;" horiz-adv-x="554" 
d="M157 20q-52 28 -80.5 78.5t-28.5 116.5v473q0 5 3.5 8.5t8.5 3.5h117q5 0 8.5 -3.5t3.5 -8.5v-480q0 -43 24 -69t64 -26t64 26t24 69v480q0 5 3.5 8.5t8.5 3.5h117q5 0 8.5 -3.5t3.5 -8.5v-473q0 -66 -28.5 -116.5t-80.5 -78.5t-120 -28t-120 28zM150.5 781.5
q-3.5 3.5 -3.5 8.5v71q0 5 3.5 8.5t8.5 3.5h233q5 0 8.5 -3.5t3.5 -8.5v-71q0 -5 -3.5 -8.5t-8.5 -3.5h-233q-5 0 -8.5 3.5z" />
    <glyph glyph-name="umacron" unicode="&#x16b;" horiz-adv-x="496" 
d="M313.5 510.5q3.5 3.5 8.5 3.5h117q5 0 8.5 -3.5t3.5 -8.5v-490q0 -5 -3.5 -8.5t-8.5 -3.5h-117q-5 0 -8.5 3.5t-3.5 8.5v25q0 3 -2 3.5t-4 -1.5q-34 -46 -107 -46q-68 0 -112 41t-44 121v347q0 5 3.5 8.5t8.5 3.5h117q5 0 8.5 -3.5t3.5 -8.5v-314q0 -35 16.5 -55
t46.5 -20t47.5 21t17.5 56v312q0 5 3.5 8.5zM118.5 583.5q-3.5 3.5 -3.5 8.5v71q0 5 3.5 8.5t8.5 3.5h233q5 0 8.5 -3.5t3.5 -8.5v-71q0 -5 -3.5 -8.5t-8.5 -3.5h-233q-5 0 -8.5 3.5z" />
    <glyph glyph-name="Uring" unicode="&#x16e;" horiz-adv-x="554" 
d="M157 20q-52 28 -80.5 78.5t-28.5 116.5v473q0 5 3.5 8.5t8.5 3.5h117q5 0 8.5 -3.5t3.5 -8.5v-480q0 -43 24 -69t64 -26t64 26t24 69v480q0 5 3.5 8.5t8.5 3.5h117q5 0 8.5 -3.5t3.5 -8.5v-473q0 -66 -28.5 -116.5t-80.5 -78.5t-120 -28t-120 28zM198 791q-32 32 -32 79
t32 79t79 32t79 -32t32 -79t-32 -79t-79 -32t-79 32zM310.5 836.5q13.5 13.5 13.5 33.5t-13.5 34t-33.5 14t-33.5 -14t-13.5 -34t13.5 -33.5t33.5 -13.5t33.5 13.5z" />
    <glyph glyph-name="uring" unicode="&#x16f;" horiz-adv-x="496" 
d="M313.5 510.5q3.5 3.5 8.5 3.5h117q5 0 8.5 -3.5t3.5 -8.5v-490q0 -5 -3.5 -8.5t-8.5 -3.5h-117q-5 0 -8.5 3.5t-3.5 8.5v25q0 3 -2 3.5t-4 -1.5q-34 -46 -107 -46q-68 0 -112 41t-44 121v347q0 5 3.5 8.5t8.5 3.5h117q5 0 8.5 -3.5t3.5 -8.5v-314q0 -35 16.5 -55
t46.5 -20t47.5 21t17.5 56v312q0 5 3.5 8.5zM166 593q-32 32 -32 79t32 79t79 32t79 -32t32 -79t-32 -79t-79 -32t-79 32zM278.5 638.5q13.5 13.5 13.5 33.5t-13.5 34t-33.5 14t-33.5 -14t-13.5 -34t13.5 -33.5t33.5 -13.5t33.5 13.5z" />
    <glyph glyph-name="Uhungarumlaut" unicode="&#x170;" horiz-adv-x="554" 
d="M157 20q-52 28 -80.5 78.5t-28.5 116.5v473q0 5 3.5 8.5t8.5 3.5h117q5 0 8.5 -3.5t3.5 -8.5v-480q0 -43 24 -69t64 -26t64 26t24 69v480q0 5 3.5 8.5t8.5 3.5h117q5 0 8.5 -3.5t3.5 -8.5v-473q0 -66 -28.5 -116.5t-80.5 -78.5t-120 -28t-120 28zM143.5 773.5
q-2.5 3.5 0.5 10.5l47 100q4 9 14 9h99q7 0 9 -4t-1 -10l-53 -100q-5 -9 -14 -9h-92q-7 0 -9.5 3.5zM312 774q-2 4 1 10l53 100q4 9 14 9h93q7 0 9 -4t-1 -10l-53 -100q-5 -9 -15 -9h-92q-7 0 -9 4z" />
    <glyph glyph-name="uhungarumlaut" unicode="&#x171;" horiz-adv-x="496" 
d="M313.5 510.5q3.5 3.5 8.5 3.5h117q5 0 8.5 -3.5t3.5 -8.5v-490q0 -5 -3.5 -8.5t-8.5 -3.5h-117q-5 0 -8.5 3.5t-3.5 8.5v25q0 3 -2 3.5t-4 -1.5q-34 -46 -107 -46q-68 0 -112 41t-44 121v347q0 5 3.5 8.5t8.5 3.5h117q5 0 8.5 -3.5t3.5 -8.5v-314q0 -35 16.5 -55
t46.5 -20t47.5 21t17.5 56v312q0 5 3.5 8.5zM111.5 575.5q-2.5 3.5 0.5 10.5l47 100q4 9 14 9h99q7 0 9 -4t-1 -10l-53 -100q-5 -9 -14 -9h-92q-7 0 -9.5 3.5zM280 576q-2 4 1 10l53 100q4 9 14 9h93q7 0 9 -4t-1 -10l-53 -100q-5 -9 -15 -9h-92q-7 0 -9 4z" />
    <glyph glyph-name="Uogonek" unicode="&#x172;" horiz-adv-x="554" 
d="M368.5 696.5q3.5 3.5 8.5 3.5h117q5 0 8.5 -3.5t3.5 -8.5v-473q0 -89 -50 -147.5t-135 -72.5q-2 0 -6 -2q-37 -35 -37 -62q0 -7 1 -10q2 -12 10 -18t20 -6q4 0 12 2q2 1 6 1q8 0 9 -9l7 -48v-3q0 -9 -9 -12q-25 -9 -55 -9q-33 0 -57.5 14.5t-32.5 48.5q-4 18 -4 26
q0 41 37 83q4 4 -2 6q-79 17 -125.5 74.5t-46.5 143.5v473q0 5 3.5 8.5t8.5 3.5h117q5 0 8.5 -3.5t3.5 -8.5v-480q0 -43 24 -69t64 -26t64 26t24 69v480q0 5 3.5 8.5z" />
    <glyph glyph-name="uogonek" unicode="&#x173;" horiz-adv-x="497" 
d="M441 -111q8 0 9 -9l7 -48v-3q0 -9 -9 -12q-25 -9 -55 -9q-33 0 -57.5 14.5t-32.5 48.5q-3 13 -3 26q0 51 50 97q2 2 1.5 4t-3.5 2h-26q-5 0 -8.5 3.5t-3.5 8.5v25q0 3 -2 3.5t-4 -1.5q-34 -46 -107 -46q-68 0 -112 41t-44 121v347q0 5 3.5 8.5t8.5 3.5h117q5 0 8.5 -3.5
t3.5 -8.5v-314q0 -35 16.5 -55t46.5 -20t47.5 21t17.5 56v312q0 5 3.5 8.5t8.5 3.5h117q5 0 8.5 -3.5t3.5 -8.5v-502l-1.5 -1.5l-4.5 -4.5q-53 -40 -53 -74q0 -7 1 -10q2 -12 10 -18t20 -6q4 0 12 2q2 1 6 1z" />
    <glyph glyph-name="Wcircumflex" unicode="&#x174;" horiz-adv-x="776" 
d="M176 10l-157 677v4q0 9 11 9h123q12 0 13 -11l76 -384q1 -3 3 -3t3 3l73 384q1 11 13 11h111q11 0 13 -11l80 -384q1 -3 3 -3t3 3l71 384q1 11 13 11h119q13 0 10 -13l-146 -676q-2 -11 -13 -11h-113q-11 0 -13 11l-81 402q-1 3 -3 3t-3 -3l-74 -402q-1 -11 -13 -11h-109
q-10 0 -13 10zM236.5 761.5q-2.5 4.5 1.5 10.5l71 104q5 8 14 8h119q9 0 14 -8l74 -104q3 -4 3 -7q0 -8 -11 -8h-85q-11 0 -15 8l-35 59q-3 6 -6 0l-35 -59q-4 -8 -15 -8h-85q-7 0 -9.5 4.5z" />
    <glyph glyph-name="wcircumflex" unicode="&#x175;" horiz-adv-x="698" 
d="M145 10l-126 491v4q0 9 11 9h116q12 0 13 -11l57 -299q1 -3 3 -3t3 3l60 299q2 11 13 11h103q11 0 13 -11l63 -299q1 -4 3 -4t3 4l60 299q2 11 13 11l115 -1q14 0 11 -13l-126 -490q-3 -10 -14 -10h-117q-10 0 -13 10l-61 262q-1 4 -3 4t-3 -4l-55 -261q-2 -11 -13 -11
h-115q-11 0 -14 10zM195.5 575.5q-2.5 4.5 1.5 10.5l71 104q5 8 14 8h119q9 0 14 -8l74 -104q3 -4 3 -7q0 -8 -11 -8h-85q-11 0 -15 8l-35 59q-3 6 -6 0l-35 -59q-4 -8 -15 -8h-85q-7 0 -9.5 4.5z" />
    <glyph glyph-name="Ycircumflex" unicode="&#x176;" horiz-adv-x="546" 
d="M205.5 4.5q-3.5 3.5 -3.5 8.5v256l-1 6l-173 411q-1 2 -1 6q0 8 10 8h126q11 0 14 -10l93 -253q1 -3 3 -3t3 3l93 253q3 10 14 10h126q7 0 9 -4t0 -10l-174 -411l-1 -6v-256q0 -5 -3.5 -8.5t-8.5 -3.5h-117q-5 0 -8.5 3.5zM124.5 761.5q-2.5 4.5 1.5 10.5l71 104
q5 8 14 8h119q9 0 14 -8l74 -104q3 -4 3 -7q0 -8 -11 -8h-85q-11 0 -15 8l-35 59q-3 6 -6 0l-35 -59q-4 -8 -15 -8h-85q-7 0 -9.5 4.5z" />
    <glyph glyph-name="ycircumflex" unicode="&#x177;" horiz-adv-x="463" 
d="M39 -195.5q-2 3.5 -2 8.5v92q0 5 2 8.5t4 3.5h5q56 0 80.5 16t32.5 64l-1 6l-144 497l-1 4q0 10 11 10h125q11 0 13 -11l66 -301q1 -4 3 -4t3 4l62 301q2 11 13 11h126q6 0 9 -4t1 -10l-152 -519q-22 -73 -46.5 -109.5t-69.5 -53.5t-129 -17h-6q-3 0 -5 3.5zM82.5 580.5
q-2.5 4.5 1.5 10.5l71 104q5 8 14 8h119q9 0 14 -8l74 -104q3 -4 3 -7q0 -8 -11 -8h-85q-11 0 -15 8l-35 59q-3 6 -6 0l-35 -59q-4 -8 -15 -8h-85q-7 0 -9.5 4.5z" />
    <glyph glyph-name="Ydieresis" unicode="&#x178;" horiz-adv-x="546" 
d="M205.5 4.5q-3.5 3.5 -3.5 8.5v256l-1 6l-173 411q-1 2 -1 6q0 8 10 8h126q11 0 14 -10l93 -253q1 -3 3 -3t3 3l93 253q3 10 14 10h126q7 0 9 -4t0 -10l-174 -411l-1 -6v-256q0 -5 -3.5 -8.5t-8.5 -3.5h-117q-5 0 -8.5 3.5zM133.5 775q-19.5 20 -19.5 51q0 32 19.5 51.5
t51.5 19.5q31 0 49.5 -19.5t18.5 -51.5t-18.5 -51.5t-49.5 -19.5q-32 0 -51.5 20zM313.5 775q-19.5 20 -19.5 51t19.5 51t50.5 20t50.5 -19.5t19.5 -51.5t-19.5 -51.5t-50.5 -19.5t-50.5 20z" />
    <glyph glyph-name="Zacute" unicode="&#x179;" horiz-adv-x="485" 
d="M29.5 3.5q-3.5 3.5 -3.5 8.5v105q0 8 4 15l268 441q3 6 -3 6h-257q-5 0 -8.5 3.5t-3.5 8.5v97q0 5 3.5 8.5t8.5 3.5h404q5 0 8.5 -3.5t3.5 -8.5v-105q0 -8 -4 -15l-268 -441q-3 -6 3 -6h257q5 0 8.5 -3.5t3.5 -8.5v-97q0 -5 -3.5 -8.5t-8.5 -3.5h-404q-5 0 -8.5 3.5z
M173 777q-3 4 1 10l57 101q5 8 15 8h109q10 0 10 -7q0 -3 -3 -8l-73 -101q-5 -7 -14 -7h-92q-7 0 -10 4z" />
    <glyph glyph-name="zacute" unicode="&#x17a;" horiz-adv-x="416" 
d="M24.5 3.5q-3.5 3.5 -3.5 8.5v108q0 8 5 15l190 246q2 2 1 4t-4 2h-174q-5 0 -8.5 3.5t-3.5 8.5v103q0 5 3.5 8.5t8.5 3.5h338q5 0 8.5 -3.5t3.5 -8.5v-107q0 -8 -5 -15l-197 -246q-2 -2 -1 -4t4 -2h192q5 0 8.5 -3.5t3.5 -8.5v-104q0 -5 -3.5 -8.5t-8.5 -3.5h-349
q-5 0 -8.5 3.5zM139 590q-3 4 1 10l57 101q5 8 15 8h109q10 0 10 -7q0 -3 -3 -8l-73 -101q-5 -7 -14 -7h-92q-7 0 -10 4z" />
    <glyph glyph-name="Zdotaccent" unicode="&#x17b;" horiz-adv-x="485" 
d="M29.5 3.5q-3.5 3.5 -3.5 8.5v105q0 8 4 15l268 441q3 6 -3 6h-257q-5 0 -8.5 3.5t-3.5 8.5v97q0 5 3.5 8.5t8.5 3.5h404q5 0 8.5 -3.5t3.5 -8.5v-105q0 -8 -4 -15l-268 -441q-3 -6 3 -6h257q5 0 8.5 -3.5t3.5 -8.5v-97q0 -5 -3.5 -8.5t-8.5 -3.5h-404q-5 0 -8.5 3.5z
M194.5 781q-17.5 18 -17.5 47t17.5 47t46.5 18q28 0 45.5 -18t17.5 -47t-17.5 -47t-45.5 -18q-29 0 -46.5 18z" />
    <glyph glyph-name="zdotaccent" unicode="&#x17c;" horiz-adv-x="416" 
d="M24.5 3.5q-3.5 3.5 -3.5 8.5v108q0 8 5 15l190 246q2 2 1 4t-4 2h-174q-5 0 -8.5 3.5t-3.5 8.5v103q0 5 3.5 8.5t8.5 3.5h338q5 0 8.5 -3.5t3.5 -8.5v-107q0 -8 -5 -15l-197 -246q-2 -2 -1 -4t4 -2h192q5 0 8.5 -3.5t3.5 -8.5v-104q0 -5 -3.5 -8.5t-8.5 -3.5h-349
q-5 0 -8.5 3.5zM160.5 594q-17.5 18 -17.5 47t17.5 47t46.5 18q28 0 45.5 -18t17.5 -47t-17.5 -47t-45.5 -18q-29 0 -46.5 18z" />
    <glyph glyph-name="Zcaron" unicode="&#x17d;" horiz-adv-x="485" 
d="M29.5 3.5q-3.5 3.5 -3.5 8.5v105q0 8 4 15l268 441q3 6 -3 6h-257q-5 0 -8.5 3.5t-3.5 8.5v97q0 5 3.5 8.5t8.5 3.5h404q5 0 8.5 -3.5t3.5 -8.5v-105q0 -8 -4 -15l-268 -441q-3 -6 3 -6h257q5 0 8.5 -3.5t3.5 -8.5v-97q0 -5 -3.5 -8.5t-8.5 -3.5h-404q-5 0 -8.5 3.5z
M163 772l-68 105q-2 4 -2 7q0 7 10 7h84q10 0 14 -8l36 -58q2 -3 4 -3t3 3l35 58q4 8 14 8h81q7 0 9 -4.5t-2 -10.5l-69 -104q-5 -8 -14 -8h-121q-9 0 -14 8z" />
    <glyph glyph-name="zcaron" unicode="&#x17e;" horiz-adv-x="416" 
d="M24.5 3.5q-3.5 3.5 -3.5 8.5v108q0 8 5 15l190 246q2 2 1 4t-4 2h-174q-5 0 -8.5 3.5t-3.5 8.5v103q0 5 3.5 8.5t8.5 3.5h338q5 0 8.5 -3.5t3.5 -8.5v-107q0 -8 -5 -15l-197 -246q-2 -2 -1 -4t4 -2h192q5 0 8.5 -3.5t3.5 -8.5v-104q0 -5 -3.5 -8.5t-8.5 -3.5h-349
q-5 0 -8.5 3.5zM129 585l-68 105q-2 4 -2 7q0 7 10 7h84q10 0 14 -8l36 -58q2 -3 4 -3t3 3l35 58q4 8 14 8h81q7 0 9 -4.5t-2 -10.5l-69 -104q-5 -8 -14 -8h-121q-9 0 -14 8z" />
    <glyph glyph-name="florin" unicode="&#x192;" horiz-adv-x="515" 
d="M264.5 641q21.5 33 62.5 47.5t111 14.5q26 0 40 -1q12 -1 12 -13v-81q0 -5 -3.5 -8.5t-8.5 -3.5h-40q-30 -1 -45.5 -17t-20.5 -50l-17 -104q0 -5 4 -5h66q5 0 8.5 -3.5t3.5 -8.5v-89q0 -5 -3.5 -8.5t-8.5 -3.5h-84q-6 0 -6 -5l-56 -350q-9 -59 -31 -92t-63.5 -48
t-112.5 -15q-25 0 -38 1q-12 1 -12 13l1 81q0 5 3.5 8.5t8.5 3.5h38q29 1 45.5 17t21.5 50l53 331q0 5 -4 5h-53q-5 0 -8.5 3.5t-3.5 8.5v89q0 5 3.5 8.5t8.5 3.5h71q6 0 6 5l20 123q10 60 31.5 93z" />
    <glyph glyph-name="uni01CD" unicode="&#x1cd;" horiz-adv-x="586" 
d="M414 10l-23 98q-1 4 -5 4h-187q-4 0 -5 -4l-23 -98q-3 -10 -14 -10h-121q-13 0 -10 13l180 677q3 10 14 10h145q11 0 14 -10l181 -677l1 -4q0 -9 -11 -9h-123q-10 0 -13 10zM223 222.5q2 -1.5 4 -1.5h132q2 0 4 1.5t1 4.5l-67 284q-1 4 -3 3.5t-3 -3.5l-69 -284
q-1 -3 1 -4.5zM214 757l-68 105q-2 4 -2 7q0 7 10 7h84q10 0 14 -8l36 -59q1 -3 3 -3t4 3l35 59q4 8 15 8h80q7 0 9 -4.5t-2 -10.5l-69 -104q-5 -8 -14 -8h-121q-9 0 -14 8z" />
    <glyph glyph-name="uni01CE" unicode="&#x1ce;" horiz-adv-x="486" 
d="M348 500.5q47 -21.5 73.5 -60t26.5 -87.5v-341q0 -5 -3.5 -8.5t-8.5 -3.5h-117q-5 0 -8.5 3.5t-3.5 8.5v27q0 3 -2 4t-4 -2q-40 -49 -120 -49q-67 0 -112 35t-45 117q0 163 204 163h74q5 0 5 5v23q0 30 -17.5 48t-48.5 18q-23 0 -39 -11t-20 -30q-3 -10 -14 -10l-121 7
q-5 0 -8.5 3t-2.5 8q5 69 61.5 111.5t142.5 42.5q61 0 108 -21.5zM283 118q24 19 24 50v42q0 5 -5 5h-57q-36 0 -57 -16t-21 -46q0 -26 16 -40t42 -14q34 0 58 19zM163 579l-68 105q-2 4 -2 7q0 7 10 7h84q10 0 14 -8l36 -59q1 -3 3 -3t4 3l35 59q4 8 15 8h80q7 0 9 -4.5
t-2 -10.5l-69 -104q-5 -8 -14 -8h-121q-9 0 -14 8z" />
    <glyph glyph-name="uni0218" unicode="&#x218;" horiz-adv-x="520" 
d="M143.5 16.5q-51.5 24.5 -79.5 69t-28 102.5v27q0 5 3.5 8.5t8.5 3.5h115q5 0 8.5 -3.5t3.5 -8.5v-20q0 -35 26 -58.5t68 -23.5q39 0 59.5 20t20.5 51q0 23 -13 39.5t-36.5 31t-72.5 39.5q-60 30 -98 56t-65 67t-27 99q0 88 60 140t158 52q67 0 119 -25.5t81 -71.5
t29 -106v-20q0 -5 -3.5 -8.5t-8.5 -3.5h-115q-5 0 -8.5 3.5t-3.5 8.5v18q0 36 -25 60t-67 24q-36 0 -56.5 -18.5t-20.5 -51.5q0 -23 12 -40t37 -32.5t75 -40.5l22 -12q58 -33 90.5 -56.5t54.5 -59t22 -86.5q0 -90 -62 -144t-164 -54q-68 0 -119.5 24.5zM164 -180q-3 4 1 10
l57 101q5 8 15 8h109q10 0 10 -7q0 -3 -3 -8l-73 -101q-5 -7 -14 -7h-92q-7 0 -10 4z" />
    <glyph glyph-name="uni0219" unicode="&#x219;" horiz-adv-x="457" 
d="M85.5 34q-55.5 41 -55.5 108v8q0 5 3.5 8.5t8.5 3.5h111q5 0 8.5 -2t3.5 -5v-7q0 -22 19.5 -36t48.5 -14q27 0 43.5 12.5t16.5 31.5t-18 29.5t-57 22.5q-29 8 -48 16q-60 20 -97.5 54t-37.5 98q0 73 53 116t140 43q90 0 143.5 -44.5t53.5 -118.5q0 -11 -12 -11h-107
q-5 0 -8.5 2.5t-3.5 5.5v7q0 21 -17.5 35t-46.5 14q-27 0 -43.5 -13t-16.5 -32q0 -21 20 -32.5t61 -23.5q9 -3 17.5 -5.5t15.5 -5.5q68 -23 109 -55.5t41 -96.5q0 -72 -54.5 -113t-145.5 -41q-93 0 -148.5 41zM135 -179q-3 4 1 10l57 101q5 8 15 8h109q10 0 10 -7
q0 -3 -3 -8l-73 -101q-5 -7 -14 -7h-92q-7 0 -10 4z" />
    <glyph glyph-name="uni021A" unicode="&#x21a;" horiz-adv-x="527" 
d="M496.5 696.5q3.5 -3.5 3.5 -8.5v-98q0 -5 -3.5 -8.5t-8.5 -3.5h-152q-5 0 -5 -5v-561q0 -5 -3.5 -8.5t-8.5 -3.5h-117q-5 0 -8.5 3.5t-3.5 8.5v561q0 5 -5 5h-147q-5 0 -8.5 3.5t-3.5 8.5v98q0 5 3.5 8.5t8.5 3.5h450q5 0 8.5 -3.5zM127 -173q-3 4 1 10l57 101q5 8 15 8
h109q10 0 10 -7q0 -3 -3 -8l-73 -101q-5 -7 -14 -7h-92q-7 0 -10 4z" />
    <glyph glyph-name="uni021B" unicode="&#x21b;" horiz-adv-x="335" 
d="M306.5 411.5q-3.5 -3.5 -8.5 -3.5h-77q-5 0 -5 -5v-223q0 -31 12.5 -44.5t38.5 -12.5h20q5 0 8.5 -3.5t3.5 -8.5v-97q0 -12 -12 -12q-17 -1 -50 -1q-79 0 -117.5 26t-38.5 98v278q0 5 -5 5h-46q-5 0 -8.5 3.5t-3.5 8.5v82q0 5 3.5 8.5t8.5 3.5h46q5 0 5 5v115
q0 5 3.5 8.5t8.5 3.5h111q5 0 8.5 -3.5t3.5 -8.5v-115q0 -5 5 -5h77q5 0 8.5 -3.5t3.5 -8.5v-82q0 -5 -3.5 -8.5zM112 -201q-3 4 1 10l57 101q5 8 15 8h109q10 0 10 -7q0 -3 -3 -8l-73 -101q-5 -7 -14 -7h-92q-7 0 -10 4z" />
    <glyph glyph-name="uni0228" unicode="&#x228;" horiz-adv-x="511" 
d="M475.5 582.5q-3.5 -3.5 -8.5 -3.5h-268q-5 0 -5 -5v-156q0 -5 5 -5h167q5 0 8.5 -3.5t3.5 -8.5v-97q0 -5 -3.5 -8.5t-8.5 -3.5h-167q-5 0 -5 -5v-161q0 -5 5 -5h268q5 0 8.5 -3.5t3.5 -8.5v-97q0 -5 -3.5 -8.5t-8.5 -3.5h-144q-3 0 -3.5 -2t1.5 -4q36 -39 36 -84
q0 -13 -3 -25q-8 -34 -32.5 -48.5t-57.5 -14.5q-30 0 -55 9q-10 3 -9 15l7 48q1 6 4.5 8t10.5 0q8 -2 12 -2q12 0 20 6t10 18q1 3 1 10q0 30 -39 64q-4 2 -7 2h-154q-5 0 -8.5 3.5t-3.5 8.5v676q0 5 3.5 8.5t8.5 3.5h402q5 0 8.5 -3.5t3.5 -8.5v-97q0 -5 -3.5 -8.5z" />
    <glyph glyph-name="uni0229" unicode="&#x229;" horiz-adv-x="492" 
d="M304 126q18 13 28 34q5 11 15 8l95 -20q12 -3 9 -15q-17 -54 -54 -89t-92 -47q-3 0 -3.5 -2t1.5 -4q42 -42 42 -89q0 -13 -3 -26q-8 -34 -32.5 -48.5t-57.5 -14.5q-30 0 -55 9q-11 3 -9 15l7 48q1 6 4.5 8t10.5 0q8 -2 12 -2q12 0 20 6t10 18q1 3 1 9q0 32 -46 70l-6 3
q-58 12 -97 50t-53 93q-14 50 -14 125q0 50 4 82q10 82 63.5 129t143.5 47q96 0 147.5 -50.5t60.5 -143.5q5 -53 5 -103q0 -12 -12 -12h-266q-5 0 -5 -5q0 -21 3 -36q5 -28 26 -44.5t52 -16.5q27 1 45 14zM182 343q-2 -10 -4 -36q0 -5 5 -5h130q5 0 5 5q0 12 -4 34
q-4 28 -21 44t-46 16q-54 0 -65 -58z" />
    <glyph glyph-name="circumflex" unicode="&#x2c6;" horiz-adv-x="312" 
d="M8.5 575.5q-2.5 4.5 1.5 10.5l71 104q5 8 14 8h119q9 0 14 -8l74 -104q3 -4 3 -7q0 -8 -11 -8h-85q-11 0 -15 8l-35 59q-3 6 -6 0l-35 -59q-4 -8 -15 -8h-85q-7 0 -9.5 4.5z" />
    <glyph glyph-name="caron" unicode="&#x2c7;" horiz-adv-x="337" 
d="M93 574l-68 105q-2 4 -2 7q0 7 10 7h84q10 0 14 -8l36 -58q2 -3 4 -3t3 3l35 58q4 8 14 8h81q7 0 9 -4.5t-2 -10.5l-69 -104q-5 -8 -14 -8h-121q-9 0 -14 8z" />
    <glyph glyph-name="uni02C9" unicode="&#x2c9;" horiz-adv-x="315" 
d="M32.5 583.5q-3.5 3.5 -3.5 8.5v71q0 5 3.5 8.5t8.5 3.5h233q5 0 8.5 -3.5t3.5 -8.5v-71q0 -5 -3.5 -8.5t-8.5 -3.5h-233q-5 0 -8.5 3.5z" />
    <glyph glyph-name="breve" unicode="&#x2d8;" horiz-adv-x="279" 
d="M56 578.5q-34 29.5 -39 76.5v2q0 10 11 10h51q11 0 12 -12q4 -19 17 -31t31 -12q19 0 32 12t16 31q2 12 12 12h51q13 0 11 -12q-4 -47 -38 -76.5t-84 -29.5q-49 0 -83 29.5z" />
    <glyph glyph-name="dotaccent" unicode="&#x2d9;" horiz-adv-x="160" 
d="M33.5 582q-17.5 18 -17.5 47t17.5 47t46.5 18q28 0 45.5 -18t17.5 -47t-17.5 -47t-45.5 -18q-29 0 -46.5 18z" />
    <glyph glyph-name="ring" unicode="&#x2da;" horiz-adv-x="255" 
d="M48 593q-32 32 -32 79t32 79t79 32t79 -32t32 -79t-32 -79t-79 -32t-79 32zM160.5 638.5q13.5 13.5 13.5 33.5t-13.5 34t-33.5 14t-33.5 -14t-13.5 -34t13.5 -33.5t33.5 -13.5t33.5 13.5z" />
    <glyph glyph-name="ogonek" unicode="&#x2db;" horiz-adv-x="160" 
d="M157 -171q0 -9 -9 -12q-25 -9 -55 -9q-33 0 -57.5 14.5t-32.5 48.5q-3 12 -3 25q0 51 49 96l4 4t12 4h64q10 0 10 -6q0 -4 -5 -9q-42 -34 -42 -65q0 -7 1 -10q2 -12 10 -18t20 -6q4 0 12 2q2 1 6 1q8 0 9 -9l7 -48v-3z" />
    <glyph glyph-name="tilde" unicode="&#x2dc;" horiz-adv-x="340" 
d="M162 598q-4 2 -13 7.5t-15 8t-13 2.5q-23 0 -37 -22q-7 -10 -17 -4l-42 30q-9 7 -5 16q14 35 38 52.5t53 17.5q17 0 31 -5.5t33 -17.5q15 -9 24.5 -13.5t19.5 -4.5q24 0 37 21q6 11 16 4l43 -29q5 -3 5 -10q0 -6 -4 -13q-17 -31 -43 -46t-51 -15q-26 0 -60 21z" />
    <glyph glyph-name="hungarumlaut" unicode="&#x2dd;" horiz-adv-x="407" 
d="M23 586q-2 4 1 10l56 101q5 8 15 8h107q8 0 10 -4.5t-2 -10.5l-73 -101q-5 -7 -14 -7h-91q-7 0 -9 4zM195 586q-2 4 1 10l56 101q5 8 15 8h107q8 0 10 -4.5t-2 -10.5l-73 -101q-5 -7 -14 -7h-91q-7 0 -9 4z" />
    <glyph glyph-name="gravecomb" unicode="&#x300;" 
d="M-6 582q0 -8 -11 -8h-92q-9 0 -14 7l-73 101q-3 5 -3 8q0 7 10 7h109q10 0 15 -8l57 -101z" />
    <glyph glyph-name="acutecomb" unicode="&#x301;" 
d="M-210 578q-3 4 1 10l57 101q5 8 15 8h109q10 0 10 -7q0 -3 -3 -8l-73 -101q-5 -7 -14 -7h-92q-7 0 -10 4z" />
    <glyph glyph-name="uni0302" unicode="&#x302;" 
d="M-304.5 575.5q-2.5 4.5 1.5 10.5l71 104q5 8 14 8h119q9 0 14 -8l74 -104q3 -4 3 -7q0 -8 -11 -8h-85q-11 0 -15 8l-35 59q-3 6 -6 0l-35 -59q-4 -8 -15 -8h-85q-7 0 -9.5 4.5z" />
    <glyph glyph-name="tildecomb" unicode="&#x303;" 
d="M-168 598q-4 2 -13 7.5t-15 8t-13 2.5q-23 0 -37 -22q-7 -10 -17 -4l-42 30q-9 7 -5 16q14 35 38 52.5t53 17.5q17 0 31 -5.5t33 -17.5q15 -9 24.5 -13.5t19.5 -4.5q24 0 37 21q6 11 16 4l43 -29q5 -3 5 -10q0 -6 -4 -13q-17 -31 -43 -46t-51 -15q-26 0 -60 21z" />
    <glyph glyph-name="uni0304" unicode="&#x304;" 
d="M-282.5 583.5q-3.5 3.5 -3.5 8.5v71q0 5 3.5 8.5t8.5 3.5h233q5 0 8.5 -3.5t3.5 -8.5v-71q0 -5 -3.5 -8.5t-8.5 -3.5h-233q-5 0 -8.5 3.5z" />
    <glyph glyph-name="uni0306" unicode="&#x306;" 
d="M-224 573q-34 30 -38 77v2q0 10 11 10h51q10 0 12 -12q4 -20 17 -32t31 -12q19 0 32 12t16 32q1 12 13 12h50q12 0 11 -12q-4 -47 -38 -77t-84 -30t-84 30z" />
    <glyph glyph-name="uni0307" unicode="&#x307;" 
d="M-109.5 582q-17.5 18 -17.5 47t17.5 47t46.5 18q28 0 45.5 -18t17.5 -47t-17.5 -47t-45.5 -18q-29 0 -46.5 18z" />
    <glyph glyph-name="uni0308" unicode="&#x308;" 
d="M-300.5 589q-19.5 20 -19.5 51q0 32 19.5 51.5t51.5 19.5q31 0 49.5 -19.5t18.5 -51.5t-18.5 -51.5t-49.5 -19.5q-32 0 -51.5 20zM-120.5 589q-19.5 20 -19.5 51t19.5 51t50.5 20t50.5 -19.5t19.5 -51.5t-19.5 -51.5t-50.5 -19.5t-50.5 20z" />
    <glyph glyph-name="uni030A" unicode="&#x30a;" 
d="M-188 593q-32 32 -32 79t32 79t79 32t79 -32t32 -79t-32 -79t-79 -32t-79 32zM-75.5 638.5q13.5 13.5 13.5 33.5t-13.5 34t-33.5 14t-33.5 -14t-13.5 -34t13.5 -33.5t33.5 -13.5t33.5 13.5z" />
    <glyph glyph-name="uni030B" unicode="&#x30b;" 
d="M-361.5 575.5q-2.5 3.5 0.5 10.5l47 100q4 9 14 9h99q7 0 9 -4t-1 -10l-53 -100q-5 -9 -14 -9h-92q-7 0 -9.5 3.5zM-193 576q-2 4 1 10l53 100q4 9 14 9h93q7 0 9 -4t-1 -10l-53 -100q-5 -9 -15 -9h-92q-7 0 -9 4z" />
    <glyph glyph-name="uni030C" unicode="&#x30c;" 
d="M-244 572l-68 105q-2 4 -2 7q0 7 10 7h84q10 0 14 -8l36 -59q1 -3 3 -3t4 3l35 59q4 8 15 8h80q7 0 9 -4.5t-2 -10.5l-69 -104q-5 -8 -14 -8h-121q-9 0 -14 8z" />
    <glyph glyph-name="uni0312" unicode="&#x312;" 
d="M-23 688q3 -4 -1 -10l-57 -101q-5 -8 -15 -8h-109q-10 0 -10 7q0 4 3 8l73 101q5 7 14 7h92q7 0 10 -4z" />
    <glyph glyph-name="uni0313" unicode="&#x313;" 
d="M-200 578q-3 4 1 10l57 101q5 8 15 8h109q10 0 10 -7q0 -3 -3 -8l-73 -101q-5 -7 -14 -7h-92q-7 0 -10 4z" />
    <glyph glyph-name="uni0326" unicode="&#x326;" 
d="M-216 -172q-3 4 1 10l57 101q5 8 15 8h109q10 0 10 -7q0 -3 -3 -8l-73 -101q-5 -7 -14 -7h-92q-7 0 -10 4z" />
    <glyph glyph-name="uni0327" unicode="&#x327;" 
d="M-157 -168l7 48q1 6 4.5 8t10.5 0q8 -2 12 -2q12 0 20 6t10 18q1 3 1 10q0 31 -42 65q-5 5 -5 9q0 6 10 6h64q8 0 12 -4q3 -1 4 -4q49 -45 49 -96q0 -13 -3 -25q-8 -34 -32.5 -48.5t-57.5 -14.5q-30 0 -55 9q-10 3 -9 15z" />
    <glyph glyph-name="uni0328" unicode="&#x328;" 
d="M-3 -171q0 -9 -9 -12q-25 -9 -55 -9q-33 0 -57.5 14.5t-32.5 48.5q-3 12 -3 25q0 51 49 96l4 4t12 4h64q10 0 10 -6q0 -4 -5 -9q-42 -34 -42 -65q0 -7 1 -10q2 -12 10 -18t20 -6q4 0 12 2q2 1 6 1q8 0 9 -9l7 -48v-3z" />
    <glyph glyph-name="uni0335" unicode="&#x335;" 
d="M-322.5 637.5q3.5 3.5 8.5 3.5h302q5 0 8.5 -3.5t3.5 -8.5v-60q0 -5 -3.5 -8.5t-8.5 -3.5h-302q-5 0 -8.5 3.5t-3.5 8.5v60q0 5 3.5 8.5z" />
    <glyph glyph-name="uni0336" unicode="&#x336;" 
d="M-554.5 512.5q-3.5 3.5 -3.5 8.5v72q0 5 3.5 8.5t8.5 3.5h534q5 0 8.5 -3.5t3.5 -8.5v-72q0 -5 -3.5 -8.5t-8.5 -3.5h-534q-5 0 -8.5 3.5z" />
    <glyph glyph-name="uni0337" unicode="&#x337;" 
d="M-382 44q-4 0 -9 5l-53 63q-4 6 -4 8q0 4 5 9l430 356q6 4 8 4q4 0 9 -5l53 -63q4 -6 4 -8q0 -4 -5 -9l-430 -356q-6 -4 -8 -4z" />
    <glyph glyph-name="uni0338" unicode="&#x338;" 
d="M-438.5 -33.5q-2.5 3.5 0.5 10.5l356 754q4 9 14 9h52q7 0 9.5 -3.5t-0.5 -10.5l-357 -754q-5 -9 -14 -9h-51q-7 0 -9.5 3.5z" />
    <glyph glyph-name="uni0394" unicode="&#x394;" horiz-adv-x="610" 
d="M25.5 3.5q-3.5 3.5 -3.5 8.5v101q0 6 3 15l225 563q3 9 14 9h81q11 0 14 -9l225 -564q3 -9 3 -15v-100q0 -5 -3.5 -8.5t-8.5 -3.5h-541q-5 0 -8.5 3.5zM165 122h279q6 0 4 6l-140 383q-1 3 -3 3t-3 -3l-141 -383q-1 -6 4 -6z" />
    <glyph glyph-name="uni03A9" unicode="&#x3a9;" horiz-adv-x="565" 
d="M44.5 3.5q-3.5 3.5 -3.5 8.5v97q0 5 3.5 8.5t8.5 3.5h39q3 0 4 2t-1 4q-45 53 -45 131v225q0 67 29 118t82 79t122 28t122 -28t82 -79t29 -118v-225q0 -79 -44 -131q-2 -2 -1.5 -4t3.5 -2h39q5 0 8.5 -3.5t3.5 -8.5v-97q0 -5 -3.5 -8.5t-8.5 -3.5h-197q-5 0 -8.5 3.5
t-3.5 8.5v99q0 10 10 13q27 8 44 34t17 63v267q0 44 -25 71.5t-67 27.5q-41 0 -66.5 -27.5t-25.5 -71.5v-267q0 -36 17 -61.5t43 -34.5q10 -4 10 -14v-99q0 -5 -3.5 -8.5t-8.5 -3.5h-196q-5 0 -8.5 3.5z" />
    <glyph glyph-name="uni03BC" unicode="&#x3bc;" horiz-adv-x="501" 
d="M317.5 510.5q3.5 3.5 8.5 3.5h117q5 0 8.5 -3.5t3.5 -8.5v-490q0 -5 -3.5 -8.5t-8.5 -3.5h-117q-5 0 -8.5 3.5t-3.5 8.5v25q0 3 -2 3.5t-4 -1.5q-34 -46 -107 -46h-10q-5 2 -5 -4v-177q0 -5 -3.5 -8.5t-8.5 -3.5h-117q-5 0 -8.5 3.5t-3.5 8.5v690q0 5 3.5 8.5t8.5 3.5
h117q5 0 8.5 -3.5t3.5 -8.5v-314q0 -35 16.5 -55t46.5 -20t47.5 21t17.5 56v312q0 5 3.5 8.5z" />
    <glyph glyph-name="pi" unicode="&#x3c0;" horiz-adv-x="600" 
d="M570.5 397.5q-3.5 -3.5 -8.5 -3.5h-50q-5 0 -5 -5v-203q0 -30 5.5 -44.5t15 -18.5t25.5 -4h2q10 0 10 -11v-96q0 -12 -12 -12q-30 -2 -51 -2q-62 0 -99.5 22.5t-36.5 88.5v280q0 5 -5 5h-120q-5 0 -5 -5v-377q0 -5 -3.5 -8.5t-8.5 -3.5h-117q-5 0 -8.5 3.5t-3.5 8.5v377
q0 5 -5 5h-52q-5 0 -8.5 3.5t-3.5 8.5v96q0 5 3.5 8.5t8.5 3.5h524q5 0 8.5 -3.5t3.5 -8.5v-96q0 -5 -3.5 -8.5z" />
    <glyph glyph-name="Wgrave" unicode="&#x1e80;" horiz-adv-x="776" 
d="M176 10l-157 677v4q0 9 11 9h123q12 0 13 -11l76 -384q1 -3 3 -3t3 3l73 384q1 11 13 11h111q11 0 13 -11l80 -384q1 -3 3 -3t3 3l71 384q1 11 13 11h119q13 0 10 -13l-146 -676q-2 -11 -13 -11h-113q-11 0 -13 11l-81 402q-1 3 -3 3t-3 -3l-74 -402q-1 -11 -13 -11h-109
q-10 0 -13 10zM441 768q0 -8 -11 -8h-92q-9 0 -14 7l-73 101q-3 5 -3 8q0 7 10 7h109q10 0 15 -8l57 -101z" />
    <glyph glyph-name="wgrave" unicode="&#x1e81;" horiz-adv-x="698" 
d="M145 10l-126 491v4q0 9 11 9h116q12 0 13 -11l57 -299q1 -3 3 -3t3 3l60 299q2 11 13 11h103q11 0 13 -11l63 -299q1 -4 3 -4t3 4l60 299q2 11 13 11l115 -1q14 0 11 -13l-126 -490q-3 -10 -14 -10h-117q-10 0 -13 10l-61 262q-1 4 -3 4t-3 -4l-55 -261q-2 -11 -13 -11
h-115q-11 0 -14 10zM400 582q0 -8 -11 -8h-92q-9 0 -14 7l-73 101q-3 5 -3 8q0 7 10 7h109q10 0 15 -8l57 -101z" />
    <glyph glyph-name="Wacute" unicode="&#x1e82;" horiz-adv-x="776" 
d="M176 10l-157 677v4q0 9 11 9h123q12 0 13 -11l76 -384q1 -3 3 -3t3 3l73 384q1 11 13 11h111q11 0 13 -11l80 -384q1 -3 3 -3t3 3l71 384q1 11 13 11h119q13 0 10 -13l-146 -676q-2 -11 -13 -11h-113q-11 0 -13 11l-81 402q-1 3 -3 3t-3 -3l-74 -402q-1 -11 -13 -11h-109
q-10 0 -13 10zM317 764q-3 4 1 10l57 101q5 8 15 8h109q10 0 10 -7q0 -3 -3 -8l-73 -101q-5 -7 -14 -7h-92q-7 0 -10 4z" />
    <glyph glyph-name="wacute" unicode="&#x1e83;" horiz-adv-x="698" 
d="M145 10l-126 491v4q0 9 11 9h116q12 0 13 -11l57 -299q1 -3 3 -3t3 3l60 299q2 11 13 11h103q11 0 13 -11l63 -299q1 -4 3 -4t3 4l60 299q2 11 13 11l115 -1q14 0 11 -13l-126 -490q-3 -10 -14 -10h-117q-10 0 -13 10l-61 262q-1 4 -3 4t-3 -4l-55 -261q-2 -11 -13 -11
h-115q-11 0 -14 10zM276 578q-3 4 1 10l57 101q5 8 15 8h109q10 0 10 -7q0 -3 -3 -8l-73 -101q-5 -7 -14 -7h-92q-7 0 -10 4z" />
    <glyph glyph-name="Wdieresis" unicode="&#x1e84;" horiz-adv-x="776" 
d="M176 10l-157 677v4q0 9 11 9h123q12 0 13 -11l76 -384q1 -3 3 -3t3 3l73 384q1 11 13 11h111q11 0 13 -11l80 -384q1 -3 3 -3t3 3l71 384q1 11 13 11h119q13 0 10 -13l-146 -676q-2 -11 -13 -11h-113q-11 0 -13 11l-81 402q-1 3 -3 3t-3 -3l-74 -402q-1 -11 -13 -11h-109
q-10 0 -13 10zM245.5 775q-19.5 20 -19.5 51q0 32 19.5 51.5t51.5 19.5q31 0 49.5 -19.5t18.5 -51.5t-18.5 -51.5t-49.5 -19.5q-32 0 -51.5 20zM425.5 775q-19.5 20 -19.5 51t19.5 51t50.5 20t50.5 -19.5t19.5 -51.5t-19.5 -51.5t-50.5 -19.5t-50.5 20z" />
    <glyph glyph-name="wdieresis" unicode="&#x1e85;" horiz-adv-x="698" 
d="M145 10l-126 491v4q0 9 11 9h116q12 0 13 -11l57 -299q1 -3 3 -3t3 3l60 299q2 11 13 11h103q11 0 13 -11l63 -299q1 -4 3 -4t3 4l60 299q2 11 13 11l115 -1q14 0 11 -13l-126 -490q-3 -10 -14 -10h-117q-10 0 -13 10l-61 262q-1 4 -3 4t-3 -4l-55 -261q-2 -11 -13 -11
h-115q-11 0 -14 10zM204.5 589q-19.5 20 -19.5 51q0 32 19.5 51.5t51.5 19.5q31 0 49.5 -19.5t18.5 -51.5t-18.5 -51.5t-49.5 -19.5q-32 0 -51.5 20zM384.5 589q-19.5 20 -19.5 51t19.5 51t50.5 20t50.5 -19.5t19.5 -51.5t-19.5 -51.5t-50.5 -19.5t-50.5 20z" />
    <glyph glyph-name="Ygrave" unicode="&#x1ef2;" horiz-adv-x="546" 
d="M205.5 4.5q-3.5 3.5 -3.5 8.5v256l-1 6l-173 411q-1 2 -1 6q0 8 10 8h126q11 0 14 -10l93 -253q1 -3 3 -3t3 3l93 253q3 10 14 10h126q7 0 9 -4t0 -10l-174 -411l-1 -6v-256q0 -5 -3.5 -8.5t-8.5 -3.5h-117q-5 0 -8.5 3.5zM329 768q0 -8 -11 -8h-92q-9 0 -14 7l-73 101
q-3 5 -3 8q0 7 10 7h109q10 0 15 -8l57 -101z" />
    <glyph glyph-name="ygrave" unicode="&#x1ef3;" horiz-adv-x="463" 
d="M39 -195.5q-2 3.5 -2 8.5v92q0 5 2 8.5t4 3.5h5q56 0 80.5 16t32.5 64l-1 6l-144 497l-1 4q0 10 11 10h125q11 0 13 -11l66 -301q1 -4 3 -4t3 4l62 301q2 11 13 11h126q6 0 9 -4t1 -10l-152 -519q-22 -73 -46.5 -109.5t-69.5 -53.5t-129 -17h-6q-3 0 -5 3.5zM287 587
q0 -8 -11 -8h-92q-9 0 -14 7l-73 101q-3 5 -3 8q0 7 10 7h109q10 0 15 -8l57 -101z" />
    <glyph glyph-name="endash" unicode="&#x2013;" horiz-adv-x="428" 
d="M29.5 227.5q-3.5 3.5 -3.5 8.5v97q0 5 3.5 8.5t8.5 3.5h352q5 0 8.5 -3.5t3.5 -8.5v-97q0 -5 -3.5 -8.5t-8.5 -3.5h-352q-5 0 -8.5 3.5z" />
    <glyph glyph-name="emdash" unicode="&#x2014;" horiz-adv-x="626" 
d="M29.5 227.5q-3.5 3.5 -3.5 8.5v97q0 5 3.5 8.5t8.5 3.5h550q5 0 8.5 -3.5t3.5 -8.5v-97q0 -5 -3.5 -8.5t-8.5 -3.5h-550q-5 0 -8.5 3.5z" />
    <glyph glyph-name="quoteleft" unicode="&#x2018;" horiz-adv-x="196" 
d="M5 488l75 202q3 10 14 10h88q14 0 11 -13l-49 -203q-3 -10 -13 -10h-116q-15 0 -10 14z" />
    <glyph glyph-name="quoteright" unicode="&#x2019;" horiz-adv-x="196" 
d="M191 686l-75 -202q-3 -10 -14 -10h-88q-14 0 -11 13l49 203q3 10 13 10h116q15 0 10 -14z" />
    <glyph glyph-name="quotesinglbase" unicode="&#x201a;" horiz-adv-x="600" 
d="M36 -85l28 232q1 11 12 11h101q14 0 11 -13l-57 -233q-3 -10 -14 -10h-70q-13 0 -11 13z" />
    <glyph glyph-name="quotedblleft" unicode="&#x201c;" horiz-adv-x="358" 
d="M6 477.5q-3 3.5 -1 10.5l71 202q3 10 13 10h84q13 0 10 -13l-44 -202q-2 -11 -13 -11h-111q-6 0 -9 3.5zM178.5 477.5q-2.5 3.5 -0.5 10.5l69 202q3 10 13 10h85q13 0 10 -13l-43 -202q-2 -11 -13 -11h-112q-6 0 -8.5 3.5z" />
    <glyph glyph-name="quotedblright" unicode="&#x201d;" horiz-adv-x="358" 
d="M179.5 696.5q2.5 -3.5 0.5 -10.5l-69 -202q-3 -10 -13 -10h-85q-13 0 -10 13l43 202q2 11 13 11h112q6 0 8.5 -3.5zM352 696.5q3 -3.5 1 -10.5l-71 -202q-3 -10 -13 -10h-84q-13 0 -10 13l44 202q2 11 13 11h111q6 0 9 -3.5z" />
    <glyph glyph-name="quotedblbase" unicode="&#x201e;" horiz-adv-x="366" 
d="M179.5 124.5q2.5 -3.5 0.5 -10.5l-69 -202q-3 -10 -13 -10h-85q-13 0 -10 13l43 202q2 11 13 11h112q6 0 8.5 -3.5zM352 124.5q3 -3.5 1 -10.5l-71 -202q-3 -10 -13 -10h-84q-13 0 -10 13l44 202q2 11 13 11h111q6 0 9 -3.5z" />
    <glyph glyph-name="dagger" unicode="&#x2020;" horiz-adv-x="408" 
d="M378.5 456.5q3.5 -3.5 3.5 -8.5v-83q0 -5 -3.5 -8.5t-8.5 -3.5h-91q-5 0 -5 -5v-536q0 -5 -3.5 -8.5t-8.5 -3.5h-117q-5 0 -8.5 3.5t-3.5 8.5v536q0 5 -5 5h-90q-5 0 -8.5 3.5t-3.5 8.5v83q0 5 3.5 8.5t8.5 3.5h90q5 0 5 5v223q0 5 3.5 8.5t8.5 3.5h117q5 0 8.5 -3.5
t3.5 -8.5v-223q0 -5 5 -5h91q5 0 8.5 -3.5z" />
    <glyph glyph-name="daggerdbl" unicode="&#x2021;" horiz-adv-x="408" 
d="M378.5 356.5q-3.5 -3.5 -8.5 -3.5h-91q-5 0 -5 -5v-196q0 -5 5 -5h91q5 0 8.5 -3.5t3.5 -8.5v-83q0 -5 -3.5 -8.5t-8.5 -3.5h-91q-5 0 -5 -5v-223q0 -5 -3.5 -8.5t-8.5 -3.5h-117q-5 0 -8.5 3.5t-3.5 8.5v223q0 5 -5 5h-90q-5 0 -8.5 3.5t-3.5 8.5v83q0 5 3.5 8.5
t8.5 3.5h90q5 0 5 5v196q0 5 -5 5h-90q-5 0 -8.5 3.5t-3.5 8.5v83q0 5 3.5 8.5t8.5 3.5h90q5 0 5 5v223q0 5 3.5 8.5t8.5 3.5h117q5 0 8.5 -3.5t3.5 -8.5v-223q0 -5 5 -5h91q5 0 8.5 -3.5t3.5 -8.5v-83q0 -5 -3.5 -8.5z" />
    <glyph glyph-name="bullet" unicode="&#x2022;" horiz-adv-x="311" 
d="M91 163.5q-30 17.5 -47.5 48t-17.5 65.5q0 54 38 91.5t93 37.5q35 0 64 -17t46.5 -47t17.5 -65t-17.5 -65.5t-47 -48t-63.5 -17.5q-36 0 -66 17.5z" />
    <glyph glyph-name="ellipsis" unicode="&#x2026;" horiz-adv-x="801" 
d="M68 21.5q-25 25.5 -25 61.5q0 35 27 60.5t61 25.5q35 0 62 -25.5t27 -60.5q0 -36 -25 -61.5t-64 -25.5q-38 0 -63 25.5zM335 21.5q-25 25.5 -25 61.5q0 35 27 60.5t61 25.5q35 0 62 -25.5t27 -60.5q0 -36 -25 -61.5t-64 -25.5q-38 0 -63 25.5zM602 21.5
q-25 25.5 -25 61.5q0 35 27 60.5t61 25.5q35 0 62 -25.5t27 -60.5q0 -36 -25 -61.5t-64 -25.5q-38 0 -63 25.5z" />
    <glyph glyph-name="perthousand" unicode="&#x2030;" horiz-adv-x="1097" 
d="M54 311q-36 36 -36 96v170q0 59 36 95t97 36q60 0 96.5 -36t36.5 -95v-170q0 -60 -36.5 -96t-96.5 -36q-61 0 -97 36zM181.5 367q11.5 13 11.5 35v179q0 22 -11.5 35.5t-30.5 13.5t-30.5 -13t-11.5 -36v-179q0 -22 11 -35t31 -13q19 0 30.5 13zM148.5 3.5
q-2.5 3.5 1.5 10.5l401 678q4 8 14 8h76q7 0 9.5 -3.5t-1.5 -10.5l-401 -678q-4 -8 -14 -8h-76q-7 0 -9.5 3.5zM549 28q-36 36 -36 96v170q0 59 36 95t97 36q60 0 96.5 -36t36.5 -95v-170q0 -60 -36.5 -96t-96.5 -36q-61 0 -97 36zM676.5 84q11.5 13 11.5 35v179
q0 22 -11.5 35.5t-30.5 13.5t-30.5 -13t-11.5 -36v-179q0 -22 11 -35t31 -13q19 0 30.5 13zM850 28q-36 36 -36 96v170q0 59 36 95t97 36q60 0 96.5 -36t36.5 -95v-170q0 -60 -36.5 -96t-96.5 -36q-61 0 -97 36zM977.5 84q11.5 13 11.5 35v179q0 22 -11.5 35.5t-30.5 13.5
t-30.5 -13t-11.5 -36v-179q0 -22 11 -35t31 -13q19 0 30.5 13z" />
    <glyph glyph-name="guilsinglleft" unicode="&#x2039;" horiz-adv-x="313" 
d="M254 115q0 -8 -11 -8h-96q-10 0 -15 8l-88 158q-2 6 -2 8q0 4 2 8l88 158q5 8 15 8h96q7 0 10 -4t-1 -10l-91 -157q-1 -3 0 -6l91 -157z" />
    <glyph glyph-name="guilsinglright" unicode="&#x203a;" horiz-adv-x="324" 
d="M60 111q-3 4 1 10l91 157q2 3 0 6l-91 157l-2 6q0 8 11 8h96q10 0 15 -8l88 -158q2 -2 2 -8q0 -5 -2 -8l-88 -158q-5 -8 -15 -8h-96q-7 0 -10 4z" />
    <glyph glyph-name="fraction" unicode="&#x2044;" horiz-adv-x="221" 
d="M-135.5 3.5q-2.5 3.5 1.5 10.5l401 678q4 8 14 8h76q7 0 9.5 -3.5t-1.5 -10.5l-401 -678q-4 -8 -14 -8h-76q-7 0 -9.5 3.5z" />
    <glyph glyph-name="uni2074" unicode="&#x2074;" horiz-adv-x="331" 
d="M310.5 600.5q3.5 -3.5 3.5 -8.5v-58q0 -5 -3.5 -8.5t-8.5 -3.5h-15q-5 0 -5 -5v-88q0 -5 -3.5 -8.5t-8.5 -3.5h-67q-5 0 -8.5 3.5t-3.5 8.5v88q0 5 -5 5h-161q-5 0 -8.5 3.5t-3.5 8.5v46q0 6 3 15l89 233q3 9 14 9h71q15 0 10 -14l-80 -213q-1 -6 4 -6h62q5 0 5 5v58
q0 5 3.5 8.5t8.5 3.5h67q5 0 8.5 -3.5t3.5 -8.5v-58q0 -5 5 -5h15q5 0 8.5 -3.5z" />
    <glyph glyph-name="uni2075" unicode="&#x2075;" horiz-adv-x="287" 
d="M272 548q0 -51 -20 -82q-34 -56 -110 -56q-48 0 -81 23.5t-43 66.5q-4 16 -4 25v2q0 10 11 10h68q11 0 13 -11q0 -4 2 -10q4 -13 13 -20t21 -7t20.5 6.5t12.5 17.5q6 15 6 34q0 18 -5 33q-4 11 -12.5 18t-20.5 7q-11 0 -20 -4.5t-13 -12.5q-6 -9 -14 -9h-71
q-5 0 -8.5 3.5t-3.5 8.5v232q0 5 3.5 8.5t8.5 3.5h227q5 0 8.5 -3.5t3.5 -8.5v-54q0 -5 -3.5 -8.5t-8.5 -3.5h-143q-5 0 -5 -5v-81q0 -3 2 -4t4 1q22 16 54 16q59 0 90 -55q18 -33 18 -81z" />
    <glyph glyph-name="uni2076" unicode="&#x2076;" horiz-adv-x="295" 
d="M280 548q0 -42 -15 -74q-15 -31 -44.5 -47.5t-70.5 -16.5q-47 0 -79 23t-44 65q-7 21 -7 47v185q0 51 35 80.5t93 29.5q55 0 89.5 -29.5t34.5 -78.5v-14q0 -5 -3.5 -8.5t-8.5 -3.5h-67q-12 0 -12 8v8q0 16 -10 27.5t-24 11.5q-16 0 -26 -11.5t-10 -28.5v-57q0 -3 2 -3.5
t4 1.5q23 20 54 20t54 -14t36 -39q19 -32 19 -81zM188 550q0 25 -6 38q-8 23 -32 23q-12 0 -21 -6.5t-13 -18.5q-5 -12 -5 -36q0 -21 5 -36q8 -25 34 -25q23 0 32 22q6 15 6 39z" />
    <glyph glyph-name="uni2077" unicode="&#x2077;" horiz-adv-x="272" 
d="M58.5 420.5q-2.5 3.5 -0.5 10.5l109 322q2 6 -4 6h-78q-5 0 -5 -5v-31q0 -5 -3.5 -8.5t-8.5 -3.5h-49q-5 0 -8.5 3.5t-3.5 8.5v102q0 5 3.5 8.5t8.5 3.5h234q5 0 8.5 -3.5t3.5 -8.5v-58q0 -9 -2 -15l-112 -325q-3 -10 -13 -10h-71q-6 0 -8.5 3.5z" />
    <glyph glyph-name="uni2078" unicode="&#x2078;" horiz-adv-x="296" 
d="M236 632q21 -15 31 -39t10 -55q0 -28 -9 -52q-13 -34 -45 -55t-75 -21q-42 0 -73.5 20t-46.5 56q-10 24 -10 52t11 55q10 24 30 38q4 3 0 7q-20 15 -29 38q-10 21 -10 48q0 29 10 50q14 33 45 51t73 18t73.5 -18t45.5 -51q10 -27 10 -49q0 -27 -11 -49q-11 -23 -30 -37
q-4 -4 0 -7zM109 717q0 -11 3 -20q8 -29 36 -29q25 0 34 22q2 6 4 14q1 4 1 12q0 11 -3 20q-4 14 -13.5 21.5t-22.5 7.5q-14 0 -23.5 -7.5t-12.5 -21.5q-3 -9 -3 -19zM186 544q0 8 -2 24q-3 15 -12.5 23.5t-23.5 8.5t-23.5 -8.5t-12.5 -23.5q-2 -16 -2 -23q0 -14 3 -26
q3 -14 12.5 -22.5t22.5 -8.5t22.5 8.5t12.5 22.5q3 12 3 25z" />
    <glyph glyph-name="uni2079" unicode="&#x2079;" horiz-adv-x="295" 
d="M275 705v-185q0 -51 -35 -80.5t-93 -29.5q-55 0 -89.5 29.5t-34.5 78.5v14q0 5 3.5 8.5t8.5 3.5h67q12 0 12 -8v-8q0 -16 10 -27.5t24 -11.5q16 0 26 11.5t10 28.5v57q0 3 -2 3.5t-4 -1.5q-23 -20 -54 -20t-54 14t-36 39q-19 32 -19 81q0 43 15 74t44.5 47.5t70.5 16.5
q47 0 79 -23t44 -65q7 -21 7 -47zM184 700q0 21 -5 36q-8 25 -34 25q-23 0 -32 -22q-6 -15 -6 -39t6 -38q8 -23 32 -23q12 0 21 6.5t13 18.5q5 13 5 36z" />
    <glyph glyph-name="franc" unicode="&#x20a3;" horiz-adv-x="554" 
d="M537.5 582.5q-3.5 -3.5 -8.5 -3.5h-267q-5 0 -5 -5v-156q0 -5 5 -5h166q5 0 8.5 -3.5t3.5 -8.5v-97q0 -5 -3.5 -8.5t-8.5 -3.5h-166q-5 0 -5 -5v-81q0 -5 5 -5h105q5 0 8.5 -3.5t3.5 -8.5v-60q0 -5 -3.5 -8.5t-8.5 -3.5h-105q-5 0 -5 -5v-100q0 -5 -3.5 -8.5t-8.5 -3.5
h-117q-5 0 -8.5 3.5t-3.5 8.5v100q0 5 -5 5h-46q-5 0 -8.5 3.5t-3.5 8.5v60q0 5 3.5 8.5t8.5 3.5h46q5 0 5 5v482q0 5 3.5 8.5t8.5 3.5h401q5 0 8.5 -3.5t3.5 -8.5v-97q0 -5 -3.5 -8.5z" />
    <glyph glyph-name="Euro" unicode="&#x20ac;" horiz-adv-x="567" 
d="M367.5 130q18.5 17 22.5 45q1 12 13 10l115 -18q6 -1 8.5 -4.5t1.5 -9.5q-14 -75 -68 -118t-137 -43q-95 0 -152 57t-57 153v49q0 5 -5 5h-56q-5 0 -8.5 3.5t-3.5 8.5v50q0 5 3.5 8.5t8.5 3.5h56q5 0 5 5v30q0 5 -5 5h-56q-5 0 -8.5 3.5t-3.5 8.5v49q0 5 3.5 8.5t8.5 3.5
h56q5 0 5 5v52q0 95 57 151.5t152 56.5q85 0 140 -44t66 -121v-3q0 -8 -10 -10l-117 -15h-2q-9 0 -11 11q-5 28 -22.5 44.5t-43.5 16.5q-31 0 -49.5 -22t-18.5 -59v-58q0 -5 5 -5h170q6 0 9 -4t1 -10l-15 -49q-3 -10 -13 -10h-152q-5 0 -5 -5v-30q0 -5 5 -5h137q6 0 9 -4
t1 -10l-15 -50q-3 -10 -13 -10h-119q-5 0 -5 -5v-58q0 -36 18.5 -58t49.5 -22q26 0 44.5 17z" />
    <glyph glyph-name="uni20BA" unicode="&#x20ba;" horiz-adv-x="614" 
d="M577 270q-2 -72 -34 -131.5t-96.5 -96.5t-157.5 -40q-86 -2 -130 -2q-12 0 -12 12v256q0 2 -2 3.5t-4 0.5l-66 -19l-5 -1q-6 0 -9 9l-17 54l-1 4q0 8 10 11l90 27q4 2 4 5v41q0 2 -2 3.5t-4 0.5l-66 -19l-5 -1q-6 0 -9 9l-17 55l-1 4q0 8 10 11l90 27q4 2 4 5v190
q0 5 3.5 8.5t8.5 3.5h117q5 0 8.5 -3.5t3.5 -8.5v-147q0 -2 2 -3.5t4 -0.5l135 39l5 1q7 0 10 -9l16 -54l1 -5q0 -7 -9 -10l-160 -47q-4 -2 -4 -5v-42q0 -2 2 -3.5t4 -0.5l135 39l5 1q7 0 10 -9l16 -54l1 -5q0 -7 -9 -10l-160 -47q-4 -2 -4 -5v-185q0 -5 5 -5q71 7 106 45
t37 104q0 12 12 12h117q12 0 12 -12z" />
    <glyph glyph-name="uni20BD" unicode="&#x20bd;" horiz-adv-x="615" 
d="M280 281q-5 0 -5 -5v-49q0 -5 5 -5h172q5 0 8.5 -3.5t3.5 -8.5v-56q0 -5 -3.5 -8.5t-8.5 -3.5h-172q-5 0 -5 -5v-125q0 -5 -3.5 -8.5t-8.5 -3.5h-117q-5 0 -8.5 3.5t-3.5 8.5v125q0 5 -5 5h-64q-5 0 -8.5 3.5t-3.5 8.5v56q0 5 3.5 8.5t8.5 3.5h64q5 0 5 5v49q0 5 -5 5
h-64q-5 0 -8.5 3.5t-3.5 8.5v88q0 5 3.5 8.5t8.5 3.5h64q5 0 5 5v291q0 5 3.5 8.5t8.5 3.5h241q60 0 106.5 -27t72.5 -75.5t26 -110.5q0 -61 -26 -108t-72.5 -73t-105.5 -26h-108zM275 574v-176q0 -5 5 -5h85q40 0 63 24t23 68q0 45 -23 69.5t-63 24.5h-85q-5 0 -5 -5z" />
    <glyph glyph-name="uni2113" unicode="&#x2113;" horiz-adv-x="467" 
d="M351 130q5 0 8 -5l55 -60q4 -4 4 -9q0 -3 -3 -8q-25 -29 -59.5 -42.5t-84.5 -13.5q-74 0 -116 45.5t-42 126.5v25q0 3 -2 4t-4 -1l-20 -13q-2 -2 -7 -2q-6 0 -9 8l-24 69l-1 4q0 7 7 12q24 14 56 37q3 2 3 6l-1 190q0 47 19 94t57.5 78.5t93.5 31.5q61 0 98.5 -41
t37.5 -106q0 -81 -49 -149t-137 -135q-3 -1 -3 -6v-85q0 -45 15 -66t41 -21q35 0 58 27q5 5 9 5zM227 406q0 -3 2 -4t4 1q80 77 80 145q0 28 -9.5 44.5t-29.5 15.5q-48 -5 -47 -127v-75z" />
    <glyph glyph-name="trademark" unicode="&#x2122;" horiz-adv-x="606" 
d="M16.5 637.5q-3.5 3.5 -3.5 8.5v42q0 5 3.5 8.5t8.5 3.5h229q5 0 8.5 -3.5t3.5 -8.5v-42q0 -5 -3.5 -8.5t-8.5 -3.5h-73q-5 0 -5 -5v-268q0 -5 -3.5 -8.5t-8.5 -3.5h-52q-5 0 -8.5 3.5t-3.5 8.5v268q0 5 -5 5h-70q-5 0 -8.5 3.5zM515 700h53q5 0 8.5 -3.5t3.5 -8.5v-327
q0 -5 -3.5 -8.5t-8.5 -3.5h-53q-5 0 -8.5 3.5t-3.5 8.5v214q0 4 -2 4t-4 -3l-38 -60q-4 -8 -14 -8h-1q-9 0 -14 8l-39 61q-2 3 -4 2.5t-2 -4.5v-214q0 -5 -3.5 -8.5t-8.5 -3.5h-53q-5 0 -8.5 3.5t-3.5 8.5v327q0 5 3.5 8.5t8.5 3.5h54q9 0 14 -8l53 -81q3 -6 7 0l53 81
q5 8 14 8z" />
    <glyph glyph-name="uni2126" unicode="&#x2126;" horiz-adv-x="565" 
d="M44.5 3.5q-3.5 3.5 -3.5 8.5v97q0 5 3.5 8.5t8.5 3.5h39q3 0 4 2t-1 4q-45 53 -45 131v225q0 67 29 118t82 79t122 28t122 -28t82 -79t29 -118v-225q0 -79 -44 -131q-2 -2 -1.5 -4t3.5 -2h39q5 0 8.5 -3.5t3.5 -8.5v-97q0 -5 -3.5 -8.5t-8.5 -3.5h-197q-5 0 -8.5 3.5
t-3.5 8.5v99q0 10 10 13q27 8 44 34t17 63v267q0 44 -25 71.5t-67 27.5q-41 0 -66.5 -27.5t-25.5 -71.5v-267q0 -36 17 -61.5t43 -34.5q10 -4 10 -14v-99q0 -5 -3.5 -8.5t-8.5 -3.5h-196q-5 0 -8.5 3.5z" />
    <glyph glyph-name="estimated" unicode="&#x212e;" horiz-adv-x="820" 
d="M600 661q84 -47 132 -129t48 -185q0 -2 -3.5 -3t-8.5 -1h-607q-5 0 -5 -5v-200q0 -3 2 -7q46 -50 110.5 -77t141.5 -27q91 0 171 46.5t121 120.5q6 9 15 9h16q7 0 9.5 -4t-0.5 -10q-44 -88 -135.5 -142.5t-196.5 -54.5q-106 0 -190 46t-131.5 127t-47.5 182
q0 103 47.5 185.5t131.5 129t190 46.5t190 -47zM157 562v-179q0 -5 5 -5h497q5 0 5 5v178q0 3 -2 7q-46 50 -110.5 77.5t-141.5 27.5q-76 0 -140.5 -27t-110.5 -77q-2 -4 -2 -7z" />
    <glyph glyph-name="oneeighth" unicode="&#x215b;" horiz-adv-x="748" 
d="M68 700h71q5 0 8.5 -3.5t3.5 -8.5v-396q0 -5 -3.5 -8.5t-8.5 -3.5h-67q-5 0 -8.5 3.5t-3.5 8.5v323q0 4 -5 4l-20 -2h-2q-11 0 -11 12v43q0 10 9 14l22 11q5 3 15 3zM83.5 3.5q-2.5 3.5 1.5 10.5l401 678q4 8 14 8h76q7 0 9.5 -3.5t-1.5 -10.5l-401 -678q-4 -8 -14 -8
h-76q-7 0 -9.5 3.5zM688 215q21 -15 31 -39t10 -55q0 -28 -9 -52q-13 -34 -45 -55t-75 -21q-42 0 -73.5 20t-46.5 56q-10 24 -10 52t11 55q10 24 30 38q4 3 0 7q-20 15 -29 38q-10 21 -10 48q0 29 10 50q14 33 45 51t73 18t73.5 -18t45.5 -51q10 -27 10 -49q0 -27 -11 -49
q-11 -23 -30 -37q-4 -4 0 -7zM561 300q0 -11 3 -20q8 -29 36 -29q25 0 34 22q2 6 4 14q1 4 1 12q0 11 -3 20q-4 14 -13.5 21.5t-22.5 7.5q-14 0 -23.5 -7.5t-12.5 -21.5q-3 -9 -3 -19zM638 127q0 8 -2 24q-3 15 -12.5 23.5t-23.5 8.5t-23.5 -8.5t-12.5 -23.5q-2 -16 -2 -23
q0 -14 3 -26q3 -14 12.5 -22.5t22.5 -8.5t22.5 8.5t12.5 22.5q3 12 3 25z" />
    <glyph glyph-name="threeeighths" unicode="&#x215c;" horiz-adv-x="832" 
d="M283 417q0 -28 -6 -51q-11 -43 -42.5 -66.5t-79.5 -23.5q-49 0 -82.5 25.5t-42.5 68.5q-4 16 -6 36q0 12 12 12h67q12 0 13 -12q0 -10 3 -19q4 -15 13.5 -23.5t22.5 -8.5q25 0 34 25q6 17 6 43q0 30 -7 47q-9 23 -33 23q-11 0 -21 -7q-3 -2 -7 -2q-6 0 -10 4l-32 37
q-4 4 -4 9q0 4 4 8l80 76q2 2 1 4t-4 2h-117q-5 0 -8.5 3.5t-3.5 8.5v53q0 5 3.5 8.5t8.5 3.5h222q5 0 8.5 -3.5t3.5 -8.5v-56q0 -9 -6 -15l-62 -65q-3 -5 1 -6q44 -13 62 -69q9 -27 9 -61zM167.5 3.5q-2.5 3.5 1.5 10.5l401 678q4 8 14 8h76q7 0 9.5 -3.5t-1.5 -10.5
l-401 -678q-4 -8 -14 -8h-76q-7 0 -9.5 3.5zM772 215q21 -15 31 -39t10 -55q0 -28 -9 -52q-13 -34 -45 -55t-75 -21q-42 0 -73.5 20t-46.5 56q-10 24 -10 52t11 55q10 24 30 38q4 3 0 7q-20 15 -29 38q-10 21 -10 48q0 29 10 50q14 33 45 51t73 18t73.5 -18t45.5 -51
q10 -27 10 -49q0 -27 -11 -49q-11 -23 -30 -37q-4 -4 0 -7zM645 300q0 -11 3 -20q8 -29 36 -29q25 0 34 22q2 6 4 14q1 4 1 12q0 11 -3 20q-4 14 -13.5 21.5t-22.5 7.5q-14 0 -23.5 -7.5t-12.5 -21.5q-3 -9 -3 -19zM722 127q0 8 -2 24q-3 15 -12.5 23.5t-23.5 8.5
t-23.5 -8.5t-12.5 -23.5q-2 -16 -2 -23q0 -14 3 -26q3 -14 12.5 -22.5t22.5 -8.5t22.5 8.5t12.5 22.5q3 12 3 25z" />
    <glyph glyph-name="fiveeighths" unicode="&#x215d;" horiz-adv-x="810" 
d="M272 411q0 -51 -20 -82q-34 -56 -110 -56q-48 0 -81 23.5t-43 66.5q-4 16 -4 25v2q0 10 11 10h68q11 0 13 -11q0 -4 2 -10q4 -13 13 -20t21 -7t20.5 6.5t12.5 17.5q6 15 6 34q0 18 -5 33q-4 11 -12.5 18t-20.5 7q-11 0 -20 -4.5t-13 -12.5q-6 -9 -14 -9h-71
q-5 0 -8.5 3.5t-3.5 8.5v232q0 5 3.5 8.5t8.5 3.5h227q5 0 8.5 -3.5t3.5 -8.5v-54q0 -5 -3.5 -8.5t-8.5 -3.5h-143q-5 0 -5 -5v-81q0 -3 2 -4t4 1q22 16 54 16q59 0 90 -55q18 -33 18 -81zM145.5 3.5q-2.5 3.5 1.5 10.5l401 678q4 8 14 8h76q7 0 9.5 -3.5t-1.5 -10.5
l-401 -678q-4 -8 -14 -8h-76q-7 0 -9.5 3.5zM750 215q21 -15 31 -39t10 -55q0 -28 -9 -52q-13 -34 -45 -55t-75 -21q-42 0 -73.5 20t-46.5 56q-10 24 -10 52t11 55q10 24 30 38q4 3 0 7q-20 15 -29 38q-10 21 -10 48q0 29 10 50q14 33 45 51t73 18t73.5 -18t45.5 -51
q10 -27 10 -49q0 -27 -11 -49q-11 -23 -30 -37q-4 -4 0 -7zM623 300q0 -11 3 -20q8 -29 36 -29q25 0 34 22q2 6 4 14q1 4 1 12q0 11 -3 20q-4 14 -13.5 21.5t-22.5 7.5q-14 0 -23.5 -7.5t-12.5 -21.5q-3 -9 -3 -19zM700 127q0 8 -2 24q-3 15 -12.5 23.5t-23.5 8.5
t-23.5 -8.5t-12.5 -23.5q-2 -16 -2 -23q0 -14 3 -26q3 -14 12.5 -22.5t22.5 -8.5t22.5 8.5t12.5 22.5q3 12 3 25z" />
    <glyph glyph-name="seveneighths" unicode="&#x215e;" horiz-adv-x="769" 
d="M58.5 283.5q-2.5 3.5 -0.5 10.5l109 322q2 6 -4 6h-78q-5 0 -5 -5v-31q0 -5 -3.5 -8.5t-8.5 -3.5h-49q-5 0 -8.5 3.5t-3.5 8.5v102q0 5 3.5 8.5t8.5 3.5h234q5 0 8.5 -3.5t3.5 -8.5v-58q0 -9 -2 -15l-112 -325q-3 -10 -13 -10h-71q-6 0 -8.5 3.5zM104.5 3.5
q-2.5 3.5 1.5 10.5l401 678q4 8 14 8h76q7 0 9.5 -3.5t-1.5 -10.5l-401 -678q-4 -8 -14 -8h-76q-7 0 -9.5 3.5zM709 215q21 -15 31 -39t10 -55q0 -28 -9 -52q-13 -34 -45 -55t-75 -21q-42 0 -73.5 20t-46.5 56q-10 24 -10 52t11 55q10 24 30 38q4 3 0 7q-20 15 -29 38
q-10 21 -10 48q0 29 10 50q14 33 45 51t73 18t73.5 -18t45.5 -51q10 -27 10 -49q0 -27 -11 -49q-11 -23 -30 -37q-4 -4 0 -7zM582 300q0 -11 3 -20q8 -29 36 -29q25 0 34 22q2 6 4 14q1 4 1 12q0 11 -3 20q-4 14 -13.5 21.5t-22.5 7.5q-14 0 -23.5 -7.5t-12.5 -21.5
q-3 -9 -3 -19zM659 127q0 8 -2 24q-3 15 -12.5 23.5t-23.5 8.5t-23.5 -8.5t-12.5 -23.5q-2 -16 -2 -23q0 -14 3 -26q3 -14 12.5 -22.5t22.5 -8.5t22.5 8.5t12.5 22.5q3 12 3 25z" />
    <glyph glyph-name="partialdiff" unicode="&#x2202;" horiz-adv-x="558" 
d="M489.5 485.5q21.5 -80.5 21.5 -162.5q0 -32 -3 -61q-12 -118 -74.5 -194t-179.5 -76q-100 0 -162 58.5t-62 167.5q0 76 31.5 128t81.5 77t106 25q53 0 106 -24q6 -3 6 4q-16 68 -40 98q-29 39 -76 45q-23 2 -52 -5t-57 -24q-5 -3 -7 -3q-6 0 -9 8l-39 101q-1 2 -1 6
q0 7 7 10q85 41 156 41q56 0 102.5 -22t79.5 -64q43 -53 64.5 -133.5zM338 154.5q26 41.5 32 115.5q0 4 -2 6q-15 27 -42 42.5t-57 15.5q-41 -1 -69.5 -32t-28.5 -82q0 -48 26 -77.5t67 -29.5q48 0 74 41.5z" />
    <glyph glyph-name="uni2206" unicode="&#x2206;" horiz-adv-x="610" 
d="M25.5 3.5q-3.5 3.5 -3.5 8.5v100q0 6 3 15l225 564q3 9 14 9h81q11 0 14 -9l225 -565q3 -9 3 -15v-99q0 -5 -3.5 -8.5t-8.5 -3.5h-541q-5 0 -8.5 3.5zM165 121h279q6 0 4 6l-140 384q-1 3 -3 3t-3 -3l-141 -384q-1 -6 4 -6z" />
    <glyph glyph-name="product" unicode="&#x220f;" horiz-adv-x="555" 
d="M502.5 796.5q3.5 -3.5 3.5 -8.5v-976q0 -5 -3.5 -8.5t-8.5 -3.5h-117q-5 0 -8.5 3.5t-3.5 8.5v862q0 5 -5 5h-161q-5 0 -5 -5v-862q0 -5 -3.5 -8.5t-8.5 -3.5h-117q-5 0 -8.5 3.5t-3.5 8.5v976q0 5 3.5 8.5t8.5 3.5h429q5 0 8.5 -3.5z" />
    <glyph glyph-name="summation" unicode="&#x2211;" horiz-adv-x="548" 
d="M56.5 -196.5q-3.5 3.5 -3.5 8.5v101q0 8 4 15l207 387q1 4 0 7l-207 321q-4 7 -4 15v101q0 5 3.5 8.5t8.5 3.5h439q5 0 8.5 -3.5t3.5 -8.5v-97q0 -5 -3.5 -8.5t-8.5 -3.5h-309q-3 0 -4 -2t1 -4l213 -317q3 -3 3 -7t-3 -9l-214 -384q-3 -6 4 -6h309q5 0 8.5 -3.5t3.5 -8.5
v-97q0 -5 -3.5 -8.5t-8.5 -3.5h-439q-5 0 -8.5 3.5z" />
    <glyph glyph-name="minus" unicode="&#x2212;" horiz-adv-x="462" 
d="M29.5 251.5q-3.5 3.5 -3.5 8.5v89q0 5 3.5 8.5t8.5 3.5h386q5 0 8.5 -3.5t3.5 -8.5v-89q0 -5 -3.5 -8.5t-8.5 -3.5h-386q-5 0 -8.5 3.5z" />
    <glyph glyph-name="uni2215" unicode="&#x2215;" horiz-adv-x="492" 
d="M22.5 3.5q-2.5 3.5 0.5 10.5l319 677q5 9 14 9h104q7 0 9.5 -3.5t-0.5 -10.5l-318 -677q-4 -9 -14 -9h-105q-7 0 -9.5 3.5z" />
    <glyph glyph-name="uni2219" unicode="&#x2219;" horiz-adv-x="311" 
d="M91 184.5q-30 17.5 -47.5 47.5t-17.5 65q0 55 38 92t93 37q35 0 64 -17t46.5 -46.5t17.5 -65.5q0 -35 -17.5 -65t-47 -47.5t-63.5 -17.5q-36 0 -66 17.5z" />
    <glyph glyph-name="radical" unicode="&#x221a;" horiz-adv-x="769" 
d="M159 -190l-139 387q-1 2 -1 5q0 7 9 10l109 36q2 1 6 1q7 0 9 -8l66 -205q1 -3 3.5 -3t3.5 3l181 749q3 10 14 10h292q5 0 8.5 -3.5t3.5 -8.5v-97q0 -5 -3.5 -8.5t-8.5 -3.5h-191q-4 0 -5 -4l-213 -860q-3 -10 -14 -10h-117q-10 0 -13 10z" />
    <glyph glyph-name="infinity" unicode="&#x221e;" horiz-adv-x="713" 
d="M601.5 480q39.5 -24 62 -66.5t22.5 -94.5q0 -53 -22.5 -95t-63 -66t-91.5 -24q-46 0 -82.5 22.5t-71.5 65.5q-4 3 -7 0q-32 -40 -69 -64t-83 -24q-47 0 -86 25t-61.5 67.5t-22.5 94.5t23 93.5t62.5 65.5t86.5 24q48 0 84 -23t68 -64q3 -4 7 -1q34 42 71.5 65t83.5 23
q50 0 89.5 -24zM237 259.5q18 16.5 48 57.5q1 4 0 8q-27 39 -44 54.5t-41 15.5q-29 0 -47 -20.5t-18 -53.5q0 -34 18 -56t44 -22q22 0 40 16.5zM559 263.5q18 20.5 18 55.5q0 34 -17.5 55t-45.5 21q-24 0 -47 -17t-50 -55q-3 -5 1 -10q26 -38 46.5 -54t46.5 -16
q30 0 48 20.5z" />
    <glyph glyph-name="integral" unicode="&#x222b;" horiz-adv-x="379" 
d="M22 -189v81q0 5 3.5 8.5t8.5 3.5h24q31 1 44 17.5t13 49.5l4 577q0 63 20.5 96t67.5 45.5t135 11.5q12 0 12 -12v-81q0 -5 -3.5 -8.5t-8.5 -3.5h-25q-30 -1 -43 -17t-14 -50l-3 -577q-1 -63 -21 -96t-67 -45.5t-135 -11.5q-12 0 -12 12z" />
    <glyph glyph-name="approxequal" unicode="&#x2248;" horiz-adv-x="512" 
d="M299.5 330q-18.5 7 -42.5 21q-4 3 -19.5 11.5t-30 13.5t-27.5 5q-38 0 -64 -36q-7 -10 -16 -4l-65 41q-9 6 -6 16q17 45 56.5 74.5t86.5 29.5q23 0 41.5 -6.5t39.5 -18.5q7 -4 23 -13t29.5 -14t26.5 -5q32 0 56 35q7 10 17 4l71 -44q9 -5 6 -13q0 -2 -2 -6
q-21 -43 -58 -70.5t-80 -27.5q-24 0 -42.5 7zM299.5 118q-18.5 7 -42.5 21q-4 3 -19.5 11.5t-30 13.5t-27.5 5q-38 0 -64 -36q-7 -10 -16 -4l-65 41q-9 6 -6 16q17 45 56.5 74.5t86.5 29.5q23 0 41.5 -6.5t39.5 -18.5q7 -4 23 -13t29.5 -14t26.5 -5q32 0 56 35q7 10 17 4
l71 -44q9 -5 6 -13q0 -2 -2 -6q-21 -43 -58 -70.5t-80 -27.5q-24 0 -42.5 7z" />
    <glyph glyph-name="notequal" unicode="&#x2260;" horiz-adv-x="462" 
d="M432.5 354.5q-3.5 -3.5 -8.5 -3.5h-131q-4 0 -6 -4l-28 -65q-1 -2 0.5 -4t3.5 -2h161q5 0 8.5 -3.5t3.5 -8.5v-89q0 -5 -3.5 -8.5t-8.5 -3.5h-212q-4 0 -6 -4l-35 -81q-4 -9 -14 -9h-60q-7 0 -9 4t0 10l32 74q1 2 0 4t-3 2h-79q-5 0 -8.5 3.5t-3.5 8.5v89q0 5 3.5 8.5
t8.5 3.5h130q4 0 6 4l28 65q1 2 -0.5 4t-3.5 2h-160q-5 0 -8.5 3.5t-3.5 8.5v89q0 5 3.5 8.5t8.5 3.5h211q4 0 6 4l34 79q4 9 14 9h60q7 0 9 -4t0 -10l-31 -72q-1 -2 0 -4t3 -2h80q5 0 8.5 -3.5t3.5 -8.5v-89q0 -5 -3.5 -8.5z" />
    <glyph glyph-name="lessequal" unicode="&#x2264;" horiz-adv-x="462" 
d="M432 150.5q-4 -2.5 -10 0.5l-387 175q-9 5 -9 14v101q0 10 9 14l387 175q4 2 6 2q8 0 8 -11v-110q0 -9 -9 -14l-254 -104q-6 -3 0 -6l254 -103q9 -4 9 -14v-110q0 -7 -4 -9.5zM432.5 8.5q-3.5 -3.5 -8.5 -3.5h-386q-5 0 -8.5 3.5t-3.5 8.5v89q0 5 3.5 8.5t8.5 3.5h386
q5 0 8.5 -3.5t3.5 -8.5v-89q0 -5 -3.5 -8.5z" />
    <glyph glyph-name="greaterequal" unicode="&#x2265;" horiz-adv-x="462" 
d="M29.5 8.5q-3.5 3.5 -3.5 8.5v89q0 5 3.5 8.5t8.5 3.5h386q5 0 8.5 -3.5t3.5 -8.5v-89q0 -5 -3.5 -8.5t-8.5 -3.5h-386q-5 0 -8.5 3.5zM34 149q-8 0 -8 11v110q0 10 9 14l254 103q6 3 0 6l-254 104q-9 5 -9 14v110q0 7 4 9.5t10 -0.5l387 -175q9 -4 9 -14v-101
q0 -9 -9 -14l-387 -175q-4 -2 -6 -2z" />
    <glyph glyph-name="lozenge" unicode="&#x25ca;" horiz-adv-x="493" 
d="M195 -45l-166 387q-1 3 -1 8t1 8l167 387q4 9 14 9h74q10 0 14 -9l166 -387q2 -6 2 -8l-2 -8l-165 -387q-4 -9 -14 -9h-76q-10 0 -14 9zM250 99l97 248q1 3 0 6l-97 245q-3 8 -6 0l-97 -245q-1 -3 0 -6l97 -248q3 -7 6 0z" />
    <glyph glyph-name="NULL" 
 />
    <glyph glyph-name="i.loclTRK" horiz-adv-x="229" 
d="M46.5 3.5q-3.5 3.5 -3.5 8.5v490q0 5 3.5 8.5t8.5 3.5h117q5 0 8.5 -3.5t3.5 -8.5v-490q0 -5 -3.5 -8.5t-8.5 -3.5h-117q-5 0 -8.5 3.5zM65.5 594q-17.5 18 -17.5 47t17.5 47t46.5 18q28 0 45.5 -18t17.5 -47t-17.5 -47t-45.5 -18q-29 0 -46.5 18z" />
    <glyph glyph-name="a.alt" horiz-adv-x="500" 
d="M317.5 510.5q3.5 3.5 8.5 3.5h117q5 0 8.5 -3.5t3.5 -8.5v-490q0 -5 -3.5 -8.5t-8.5 -3.5h-117q-5 0 -8.5 3.5t-3.5 8.5v21q0 3 -2 4t-4 -2q-37 -43 -106 -43q-123 0 -156 159q-11 48 -11 111q0 54 9 105q31 155 160 155q35 0 60 -9.5t44 -32.5q2 -3 4 -2t2 4v20
q0 5 3.5 8.5zM313 258q0 58 -8 88q-5 26 -20 40.5t-38 14.5q-45 0 -61 -54q-9 -29 -9 -89q0 -51 7 -86q15 -59 62 -59t60 58q7 29 7 87z" />
    <glyph glyph-name="a.sc" horiz-adv-x="522" 
d="M358 10l-16 69q-1 4 -5 4h-154q-4 0 -5 -4l-16 -69q-3 -10 -14 -10h-116q-13 0 -10 13l157 554q3 10 14 10h135q11 0 14 -10l158 -554l1 -4q0 -9 -11 -9h-118q-11 0 -14 10zM208 193.5q2 -1.5 4 -1.5h98q2 0 4 1.5t1 4.5l-50 209q-1 3 -3 3t-3 -3l-52 -209q-1 -3 1 -4.5z
" />
    <glyph glyph-name="aacute.sc" horiz-adv-x="522" 
d="M358 10l-16 69q-1 4 -5 4h-154q-4 0 -5 -4l-16 -69q-3 -10 -14 -10h-116q-13 0 -10 13l157 554q3 10 14 10h135q11 0 14 -10l158 -554l1 -4q0 -9 -11 -9h-118q-11 0 -14 10zM208 193.5q2 -1.5 4 -1.5h98q2 0 4 1.5t1 4.5l-50 209q-1 3 -3 3t-3 -3l-52 -209q-1 -3 1 -4.5z
M192 641q-3 4 1 10l57 101q5 8 15 8h109q10 0 10 -7q0 -3 -3 -8l-73 -101q-5 -7 -14 -7h-92q-7 0 -10 4z" />
    <glyph glyph-name="abreve.sc" horiz-adv-x="522" 
d="M358 10l-16 69q-1 4 -5 4h-154q-4 0 -5 -4l-16 -69q-3 -10 -14 -10h-116q-13 0 -10 13l157 554q3 10 14 10h135q11 0 14 -10l158 -554l1 -4q0 -9 -11 -9h-118q-11 0 -14 10zM208 193.5q2 -1.5 4 -1.5h98q2 0 4 1.5t1 4.5l-50 209q-1 3 -3 3t-3 -3l-52 -209q-1 -3 1 -4.5z
M176 636q-34 30 -38 77v2q0 10 11 10h51q10 0 12 -12q4 -20 17 -32t31 -12q19 0 32 12t16 32q1 12 13 12h50q12 0 11 -12q-4 -47 -38 -77t-84 -30t-84 30z" />
    <glyph glyph-name="uni01CE.sc" horiz-adv-x="522" 
d="M358 10l-16 69q-1 4 -5 4h-154q-4 0 -5 -4l-16 -69q-3 -10 -14 -10h-116q-13 0 -10 13l157 554q3 10 14 10h135q11 0 14 -10l158 -554l1 -4q0 -9 -11 -9h-118q-11 0 -14 10zM208 193.5q2 -1.5 4 -1.5h98q2 0 4 1.5t1 4.5l-50 209q-1 3 -3 3t-3 -3l-52 -209q-1 -3 1 -4.5z
M182 634l-68 105q-2 4 -2 7q0 7 10 7h84q10 0 14 -8l36 -59q1 -3 3 -3t4 3l35 59q4 8 15 8h80q7 0 9 -4.5t-2 -10.5l-69 -104q-5 -8 -14 -8h-121q-9 0 -14 8z" />
    <glyph glyph-name="acircumflex.sc" horiz-adv-x="522" 
d="M358 10l-16 69q-1 4 -5 4h-154q-4 0 -5 -4l-16 -69q-3 -10 -14 -10h-116q-13 0 -10 13l157 554q3 10 14 10h135q11 0 14 -10l158 -554l1 -4q0 -9 -11 -9h-118q-11 0 -14 10zM208 193.5q2 -1.5 4 -1.5h98q2 0 4 1.5t1 4.5l-50 209q-1 3 -3 3t-3 -3l-52 -209q-1 -3 1 -4.5z
M111.5 638.5q-2.5 4.5 1.5 10.5l71 104q5 8 14 8h119q9 0 14 -8l74 -104q3 -4 3 -7q0 -8 -11 -8h-85q-11 0 -15 8l-35 59q-3 6 -6 0l-35 -59q-4 -8 -15 -8h-85q-7 0 -9.5 4.5z" />
    <glyph glyph-name="adieresis.sc" horiz-adv-x="522" 
d="M358 10l-16 69q-1 4 -5 4h-154q-4 0 -5 -4l-16 -69q-3 -10 -14 -10h-116q-13 0 -10 13l157 554q3 10 14 10h135q11 0 14 -10l158 -554l1 -4q0 -9 -11 -9h-118q-11 0 -14 10zM208 193.5q2 -1.5 4 -1.5h98q2 0 4 1.5t1 4.5l-50 209q-1 3 -3 3t-3 -3l-52 -209q-1 -3 1 -4.5z
M120.5 652q-19.5 20 -19.5 51q0 32 19.5 51.5t51.5 19.5q31 0 49.5 -19.5t18.5 -51.5t-18.5 -51.5t-49.5 -19.5q-32 0 -51.5 20zM300.5 652q-19.5 20 -19.5 51t19.5 51t50.5 20t50.5 -19.5t19.5 -51.5t-19.5 -51.5t-50.5 -19.5t-50.5 20z" />
    <glyph glyph-name="agrave.sc" horiz-adv-x="522" 
d="M358 10l-16 69q-1 4 -5 4h-154q-4 0 -5 -4l-16 -69q-3 -10 -14 -10h-116q-13 0 -10 13l157 554q3 10 14 10h135q11 0 14 -10l158 -554l1 -4q0 -9 -11 -9h-118q-11 0 -14 10zM208 193.5q2 -1.5 4 -1.5h98q2 0 4 1.5t1 4.5l-50 209q-1 3 -3 3t-3 -3l-52 -209q-1 -3 1 -4.5z
M316 645q0 -8 -11 -8h-92q-9 0 -14 7l-73 101q-3 5 -3 8q0 7 10 7h109q10 0 15 -8l57 -101z" />
    <glyph glyph-name="amacron.sc" horiz-adv-x="522" 
d="M358 10l-16 69q-1 4 -5 4h-154q-4 0 -5 -4l-16 -69q-3 -10 -14 -10h-116q-13 0 -10 13l157 554q3 10 14 10h135q11 0 14 -10l158 -554l1 -4q0 -9 -11 -9h-118q-11 0 -14 10zM208 193.5q2 -1.5 4 -1.5h98q2 0 4 1.5t1 4.5l-50 209q-1 3 -3 3t-3 -3l-52 -209q-1 -3 1 -4.5z
M133.5 646.5q-3.5 3.5 -3.5 8.5v71q0 5 3.5 8.5t8.5 3.5h233q5 0 8.5 -3.5t3.5 -8.5v-71q0 -5 -3.5 -8.5t-8.5 -3.5h-233q-5 0 -8.5 3.5z" />
    <glyph glyph-name="aogonek.sc" horiz-adv-x="530" 
d="M358 10l-16 69q-1 4 -5 4h-154q-4 0 -5 -4l-16 -69q-3 -10 -14 -10h-116q-13 0 -10 13l157 554q3 10 14 10h135q11 0 14 -10l158 -554l1 -4q0 -9 -11 -9h-118q-11 0 -14 10zM208 193.5q2 -1.5 4 -1.5h98q2 0 4 1.5t1 4.5l-50 209q-1 3 -3 3t-3 -3l-52 -209q-1 -3 1 -4.5z
M507 -171q0 -9 -9 -12q-25 -9 -55 -9q-33 0 -57.5 14.5t-32.5 48.5q-3 12 -3 25q0 51 49 96l4 4t12 4h64q10 0 10 -6q0 -4 -5 -9q-42 -34 -42 -65q0 -7 1 -10q2 -12 10 -18t20 -6q4 0 12 2q2 1 6 1q8 0 9 -9l7 -48v-3z" />
    <glyph glyph-name="aring.sc" horiz-adv-x="522" 
d="M358 10l-16 69q-1 4 -5 4h-154q-4 0 -5 -4l-16 -69q-3 -10 -14 -10h-116q-13 0 -10 13l157 554q3 10 14 10h135q11 0 14 -10l158 -554l1 -4q0 -9 -11 -9h-118q-11 0 -14 10zM208 193.5q2 -1.5 4 -1.5h98q2 0 4 1.5t1 4.5l-50 209q-1 3 -3 3t-3 -3l-52 -209q-1 -3 1 -4.5z
M181 656q-32 32 -32 79t32 79t79 32t79 -32t32 -79t-32 -79t-79 -32t-79 32zM293.5 701.5q13.5 13.5 13.5 33.5t-13.5 34t-33.5 14t-33.5 -14t-13.5 -34t13.5 -33.5t33.5 -13.5t33.5 13.5z" />
    <glyph glyph-name="atilde.sc" horiz-adv-x="522" 
d="M358 10l-16 69q-1 4 -5 4h-154q-4 0 -5 -4l-16 -69q-3 -10 -14 -10h-116q-13 0 -10 13l157 554q3 10 14 10h135q11 0 14 -10l158 -554l1 -4q0 -9 -11 -9h-118q-11 0 -14 10zM208 193.5q2 -1.5 4 -1.5h98q2 0 4 1.5t1 4.5l-50 209q-1 3 -3 3t-3 -3l-52 -209q-1 -3 1 -4.5z
M267 661q-4 2 -13 7.5t-15 8t-13 2.5q-23 0 -37 -22q-7 -10 -17 -4l-42 30q-9 7 -5 16q14 35 38 52.5t53 17.5q17 0 31 -5.5t33 -17.5q15 -9 24.5 -13.5t19.5 -4.5q24 0 37 21q6 11 16 4l43 -29q5 -3 5 -10q0 -6 -4 -13q-17 -31 -43 -46t-51 -15q-26 0 -60 21z" />
    <glyph glyph-name="ae.sc" horiz-adv-x="773" 
d="M745.5 459.5q-3.5 -3.5 -8.5 -3.5h-227q-5 0 -5 -5v-95q0 -5 5 -5h136q5 0 8.5 -3.5t3.5 -8.5v-97q0 -5 -3.5 -8.5t-8.5 -3.5h-136q-5 0 -5 -5v-99q0 -5 5 -5h227q5 0 8.5 -3.5t3.5 -8.5v-97q0 -5 -3.5 -8.5t-8.5 -3.5h-361q-5 0 -8.5 3.5t-3.5 8.5v66q0 5 -5 5h-146
q-4 0 -6 -4l-33 -70q-4 -9 -14 -9h-126q-7 0 -9.5 3.5t0.5 10.5l272 554q5 9 14 9h426q5 0 8.5 -3.5t3.5 -8.5v-97q0 -5 -3.5 -8.5zM264.5 194q1.5 -2 3.5 -2h91q5 0 5 5v198q0 4 -2 4.5t-4 -2.5l-94 -199q-1 -2 0.5 -4z" />
    <glyph glyph-name="b.sc" horiz-adv-x="484" 
d="M401 40.5q-56 -40.5 -145 -40.5h-204q-5 0 -8.5 3.5t-3.5 8.5v553q0 5 3.5 8.5t8.5 3.5h189q207 0 207 -161q0 -80 -63 -115q-5 -3 -1 -6q73 -41 73 -133q0 -81 -56 -121.5zM181 451v-101q0 -5 5 -5h63q29 0 45.5 15t16.5 41t-16.5 40.5t-45.5 14.5h-63q-5 0 -5 -5z
M299.5 137.5q16.5 15.5 16.5 43.5q0 27 -16.5 43.5t-43.5 16.5h-70q-5 0 -5 -5v-109q0 -5 5 -5h69q28 0 44.5 15.5z" />
    <glyph glyph-name="c.sc" horiz-adv-x="477" 
d="M88 48q-57 55 -57 148v187q0 93 57 147t152 54t152 -52.5t57 -143.5v-1q0 -5 -3.5 -9t-8.5 -4l-117 -5q-12 0 -12 10v11q0 35 -19 54t-51 19q-30 0 -48 -19.5t-18 -53.5v-203q0 -34 18.5 -53.5t49.5 -19.5t49.5 19.5t18.5 53.5v10q0 11 12 11l117 -5q12 0 12 -6v-6
q0 -91 -57.5 -144.5t-151.5 -53.5q-95 0 -152 55z" />
    <glyph glyph-name="cacute.sc" horiz-adv-x="477" 
d="M88 48q-57 55 -57 148v187q0 93 57 147t152 54t152 -52.5t57 -143.5v-1q0 -5 -3.5 -9t-8.5 -4l-117 -5q-12 0 -12 10v11q0 35 -19 54t-51 19q-30 0 -48 -19.5t-18 -53.5v-203q0 -34 18.5 -53.5t49.5 -19.5t49.5 19.5t18.5 53.5v10q0 11 12 11l117 -5q12 0 12 -6v-6
q0 -91 -57.5 -144.5t-151.5 -53.5q-95 0 -152 55zM172 648q-3 4 1 10l57 101q5 8 15 8h109q10 0 10 -7q0 -3 -3 -8l-73 -101q-5 -7 -14 -7h-92q-7 0 -10 4z" />
    <glyph glyph-name="ccaron.sc" horiz-adv-x="477" 
d="M88 48q-57 55 -57 148v187q0 93 57 147t152 54t152 -52.5t57 -143.5v-1q0 -5 -3.5 -9t-8.5 -4l-117 -5q-12 0 -12 10v11q0 35 -19 54t-51 19q-30 0 -48 -19.5t-18 -53.5v-203q0 -34 18.5 -53.5t49.5 -19.5t49.5 19.5t18.5 53.5v10q0 11 12 11l117 -5q12 0 12 -6v-6
q0 -91 -57.5 -144.5t-151.5 -53.5q-95 0 -152 55zM162 641l-68 105q-2 4 -2 7q0 7 10 7h84q10 0 14 -8l36 -59q1 -3 3 -3t4 3l35 59q4 8 15 8h80q7 0 9 -4.5t-2 -10.5l-69 -104q-5 -8 -14 -8h-121q-9 0 -14 8z" />
    <glyph glyph-name="ccedilla.sc" horiz-adv-x="477" 
d="M445.5 376.5q-3.5 -2.5 -8.5 -2.5l-117 -5q-12 0 -12 10v11q0 35 -19 54t-51 19q-30 0 -48 -19.5t-18 -53.5v-203q0 -34 18.5 -53.5t49.5 -19.5t49.5 19.5t18.5 53.5v10q0 11 12 11l117 -5q12 0 12 -6v-6q0 -79 -44 -130.5t-119 -63.5q-6 -2 -2 -6q40 -41 40 -87
q0 -8 -4 -26q-8 -34 -32.5 -48.5t-57.5 -14.5q-30 0 -55 9q-11 3 -9 15l7 48q1 6 4.5 8t10.5 0q8 -2 12 -2q12 0 20 6t10 18q1 3 1 9q0 33 -47 71l-6 3q-68 17 -107.5 68.5t-39.5 127.5v187q0 93 57 147t152 54t152 -52.5t57 -143.5v-6q0 -3 -3.5 -5.5z" />
    <glyph glyph-name="cdotaccent.sc" horiz-adv-x="477" 
d="M88 48q-57 55 -57 148v187q0 93 57 147t152 54t152 -52.5t57 -143.5v-1q0 -5 -3.5 -9t-8.5 -4l-117 -5q-12 0 -12 10v11q0 35 -19 54t-51 19q-30 0 -48 -19.5t-18 -53.5v-203q0 -34 18.5 -53.5t49.5 -19.5t49.5 19.5t18.5 53.5v10q0 11 12 11l117 -5q12 0 12 -6v-6
q0 -91 -57.5 -144.5t-151.5 -53.5q-95 0 -152 55zM193.5 652q-17.5 18 -17.5 47t17.5 47t46.5 18q28 0 45.5 -18t17.5 -47t-17.5 -47t-45.5 -18q-29 0 -46.5 18z" />
    <glyph glyph-name="d.sc" horiz-adv-x="485" 
d="M43.5 3.5q-3.5 3.5 -3.5 8.5v553q0 5 3.5 8.5t8.5 3.5h193q62 0 109 -21.5t73 -60.5t26 -90v-232q0 -78 -57 -125.5t-151 -47.5h-193q-5 0 -8.5 3.5zM186 121l61 1q28 0 46 18.5t19 48.5v200q0 30 -18 48.5t-48 18.5h-60q-5 0 -5 -5v-325q0 -5 5 -5z" />
    <glyph glyph-name="eth.sc" horiz-adv-x="518" 
d="M387 555.5q47 -21.5 73 -60.5t26 -90v-232q0 -78 -57 -125.5t-151 -47.5h-193q-5 0 -8.5 3.5t-3.5 8.5v238q0 5 -5 5h-16q-5 0 -8.5 3.5t-3.5 8.5v63q0 5 3.5 8.5t8.5 3.5h16q5 0 5 5v218q0 5 3.5 8.5t8.5 3.5h193q62 0 109 -21.5zM345 389q0 30 -18 48.5t-48 18.5h-60
q-5 0 -5 -5v-104q0 -5 5 -5h41q5 0 8.5 -3.5t3.5 -8.5v-63q0 -5 -3.5 -8.5t-8.5 -3.5h-41q-5 0 -5 -5v-124q0 -5 5 -5l61 1q28 0 46 18.5t19 48.5v200z" />
    <glyph glyph-name="dcaron.sc" horiz-adv-x="485" 
d="M43.5 3.5q-3.5 3.5 -3.5 8.5v553q0 5 3.5 8.5t8.5 3.5h193q62 0 109 -21.5t73 -60.5t26 -90v-232q0 -78 -57 -125.5t-151 -47.5h-193q-5 0 -8.5 3.5zM186 121l61 1q28 0 46 18.5t19 48.5v200q0 30 -18 48.5t-48 18.5h-60q-5 0 -5 -5v-325q0 -5 5 -5zM156 638l-68 105
q-2 4 -2 7q0 7 10 7h84q10 0 14 -8l36 -59q1 -3 3 -3t4 3l35 59q4 8 15 8h80q7 0 9 -4.5t-2 -10.5l-69 -104q-5 -8 -14 -8h-121q-9 0 -14 8z" />
    <glyph glyph-name="dcroat.sc" horiz-adv-x="518" 
d="M387 555.5q47 -21.5 73 -60.5t26 -90v-232q0 -78 -57 -125.5t-151 -47.5h-193q-5 0 -8.5 3.5t-3.5 8.5v238q0 5 -5 5h-16q-5 0 -8.5 3.5t-3.5 8.5v63q0 5 3.5 8.5t8.5 3.5h16q5 0 5 5v218q0 5 3.5 8.5t8.5 3.5h193q62 0 109 -21.5zM345 389q0 30 -18 48.5t-48 18.5h-60
q-5 0 -5 -5v-104q0 -5 5 -5h41q5 0 8.5 -3.5t3.5 -8.5v-63q0 -5 -3.5 -8.5t-8.5 -3.5h-41q-5 0 -5 -5v-124q0 -5 5 -5l61 1q28 0 46 18.5t19 48.5v200z" />
    <glyph glyph-name="e.sc" horiz-adv-x="450" 
d="M421.5 459.5q-3.5 -3.5 -8.5 -3.5h-227q-5 0 -5 -5v-95q0 -5 5 -5h137q5 0 8.5 -3.5t3.5 -8.5v-97q0 -5 -3.5 -8.5t-8.5 -3.5h-137q-5 0 -5 -5v-99q0 -5 5 -5h227q5 0 8.5 -3.5t3.5 -8.5v-97q0 -5 -3.5 -8.5t-8.5 -3.5h-361q-5 0 -8.5 3.5t-3.5 8.5v553q0 5 3.5 8.5
t8.5 3.5h361q5 0 8.5 -3.5t3.5 -8.5v-97q0 -5 -3.5 -8.5z" />
    <glyph glyph-name="eacute.sc" horiz-adv-x="450" 
d="M421.5 459.5q-3.5 -3.5 -8.5 -3.5h-227q-5 0 -5 -5v-95q0 -5 5 -5h137q5 0 8.5 -3.5t3.5 -8.5v-97q0 -5 -3.5 -8.5t-8.5 -3.5h-137q-5 0 -5 -5v-99q0 -5 5 -5h227q5 0 8.5 -3.5t3.5 -8.5v-97q0 -5 -3.5 -8.5t-8.5 -3.5h-361q-5 0 -8.5 3.5t-3.5 8.5v553q0 5 3.5 8.5
t8.5 3.5h361q5 0 8.5 -3.5t3.5 -8.5v-97q0 -5 -3.5 -8.5zM166 652q-3 4 1 10l57 101q5 8 15 8h109q10 0 10 -7q0 -3 -3 -8l-73 -101q-5 -7 -14 -7h-92q-7 0 -10 4z" />
    <glyph glyph-name="ecaron.sc" horiz-adv-x="450" 
d="M421.5 459.5q-3.5 -3.5 -8.5 -3.5h-227q-5 0 -5 -5v-95q0 -5 5 -5h137q5 0 8.5 -3.5t3.5 -8.5v-97q0 -5 -3.5 -8.5t-8.5 -3.5h-137q-5 0 -5 -5v-99q0 -5 5 -5h227q5 0 8.5 -3.5t3.5 -8.5v-97q0 -5 -3.5 -8.5t-8.5 -3.5h-361q-5 0 -8.5 3.5t-3.5 8.5v553q0 5 3.5 8.5
t8.5 3.5h361q5 0 8.5 -3.5t3.5 -8.5v-97q0 -5 -3.5 -8.5zM156 645l-68 105q-2 4 -2 7q0 7 10 7h84q10 0 14 -8l36 -59q1 -3 3 -3t4 3l35 59q4 8 15 8h80q7 0 9 -4.5t-2 -10.5l-69 -104q-5 -8 -14 -8h-121q-9 0 -14 8z" />
    <glyph glyph-name="uni0229.sc" horiz-adv-x="450" 
d="M421.5 459.5q-3.5 -3.5 -8.5 -3.5h-227q-5 0 -5 -5v-95q0 -5 5 -5h137q5 0 8.5 -3.5t3.5 -8.5v-97q0 -5 -3.5 -8.5t-8.5 -3.5h-137q-5 0 -5 -5v-99q0 -5 5 -5h227q5 0 8.5 -3.5t3.5 -8.5v-97q0 -5 -3.5 -8.5t-8.5 -3.5h-129q-3 0 -3.5 -2t1.5 -4q36 -39 36 -84
q0 -13 -3 -25q-8 -34 -32.5 -48.5t-57.5 -14.5q-30 0 -55 9q-10 3 -9 15l7 48q1 6 4.5 8t10.5 0q8 -2 12 -2q12 0 20 6t10 18q1 3 1 10q0 30 -39 64q-4 2 -7 2h-128q-5 0 -8.5 3.5t-3.5 8.5v553q0 5 3.5 8.5t8.5 3.5h361q5 0 8.5 -3.5t3.5 -8.5v-97q0 -5 -3.5 -8.5z" />
    <glyph glyph-name="ecircumflex.sc" horiz-adv-x="450" 
d="M421.5 459.5q-3.5 -3.5 -8.5 -3.5h-227q-5 0 -5 -5v-95q0 -5 5 -5h137q5 0 8.5 -3.5t3.5 -8.5v-97q0 -5 -3.5 -8.5t-8.5 -3.5h-137q-5 0 -5 -5v-99q0 -5 5 -5h227q5 0 8.5 -3.5t3.5 -8.5v-97q0 -5 -3.5 -8.5t-8.5 -3.5h-361q-5 0 -8.5 3.5t-3.5 8.5v553q0 5 3.5 8.5
t8.5 3.5h361q5 0 8.5 -3.5t3.5 -8.5v-97q0 -5 -3.5 -8.5zM85.5 649.5q-2.5 4.5 1.5 10.5l71 104q5 8 14 8h119q9 0 14 -8l74 -104q3 -4 3 -7q0 -8 -11 -8h-85q-11 0 -15 8l-35 59q-3 6 -6 0l-35 -59q-4 -8 -15 -8h-85q-7 0 -9.5 4.5z" />
    <glyph glyph-name="edieresis.sc" horiz-adv-x="450" 
d="M421.5 459.5q-3.5 -3.5 -8.5 -3.5h-227q-5 0 -5 -5v-95q0 -5 5 -5h137q5 0 8.5 -3.5t3.5 -8.5v-97q0 -5 -3.5 -8.5t-8.5 -3.5h-137q-5 0 -5 -5v-99q0 -5 5 -5h227q5 0 8.5 -3.5t3.5 -8.5v-97q0 -5 -3.5 -8.5t-8.5 -3.5h-361q-5 0 -8.5 3.5t-3.5 8.5v553q0 5 3.5 8.5
t8.5 3.5h361q5 0 8.5 -3.5t3.5 -8.5v-97q0 -5 -3.5 -8.5zM94.5 663q-19.5 20 -19.5 51q0 32 19.5 51.5t51.5 19.5q31 0 49.5 -19.5t18.5 -51.5t-18.5 -51.5t-49.5 -19.5q-32 0 -51.5 20zM274.5 663q-19.5 20 -19.5 51t19.5 51t50.5 20t50.5 -19.5t19.5 -51.5t-19.5 -51.5
t-50.5 -19.5t-50.5 20z" />
    <glyph glyph-name="edotaccent.sc" horiz-adv-x="450" 
d="M421.5 459.5q-3.5 -3.5 -8.5 -3.5h-227q-5 0 -5 -5v-95q0 -5 5 -5h137q5 0 8.5 -3.5t3.5 -8.5v-97q0 -5 -3.5 -8.5t-8.5 -3.5h-137q-5 0 -5 -5v-99q0 -5 5 -5h227q5 0 8.5 -3.5t3.5 -8.5v-97q0 -5 -3.5 -8.5t-8.5 -3.5h-361q-5 0 -8.5 3.5t-3.5 8.5v553q0 5 3.5 8.5
t8.5 3.5h361q5 0 8.5 -3.5t3.5 -8.5v-97q0 -5 -3.5 -8.5zM187.5 656q-17.5 18 -17.5 47t17.5 47t46.5 18q28 0 45.5 -18t17.5 -47t-17.5 -47t-45.5 -18q-29 0 -46.5 18z" />
    <glyph glyph-name="egrave.sc" horiz-adv-x="450" 
d="M421.5 459.5q-3.5 -3.5 -8.5 -3.5h-227q-5 0 -5 -5v-95q0 -5 5 -5h137q5 0 8.5 -3.5t3.5 -8.5v-97q0 -5 -3.5 -8.5t-8.5 -3.5h-137q-5 0 -5 -5v-99q0 -5 5 -5h227q5 0 8.5 -3.5t3.5 -8.5v-97q0 -5 -3.5 -8.5t-8.5 -3.5h-361q-5 0 -8.5 3.5t-3.5 8.5v553q0 5 3.5 8.5
t8.5 3.5h361q5 0 8.5 -3.5t3.5 -8.5v-97q0 -5 -3.5 -8.5zM290 656q0 -8 -11 -8h-92q-9 0 -14 7l-73 101q-3 5 -3 8q0 7 10 7h109q10 0 15 -8l57 -101z" />
    <glyph glyph-name="emacron.sc" horiz-adv-x="450" 
d="M421.5 459.5q-3.5 -3.5 -8.5 -3.5h-227q-5 0 -5 -5v-95q0 -5 5 -5h137q5 0 8.5 -3.5t3.5 -8.5v-97q0 -5 -3.5 -8.5t-8.5 -3.5h-137q-5 0 -5 -5v-99q0 -5 5 -5h227q5 0 8.5 -3.5t3.5 -8.5v-97q0 -5 -3.5 -8.5t-8.5 -3.5h-361q-5 0 -8.5 3.5t-3.5 8.5v553q0 5 3.5 8.5
t8.5 3.5h361q5 0 8.5 -3.5t3.5 -8.5v-97q0 -5 -3.5 -8.5zM107.5 657.5q-3.5 3.5 -3.5 8.5v71q0 5 3.5 8.5t8.5 3.5h233q5 0 8.5 -3.5t3.5 -8.5v-71q0 -5 -3.5 -8.5t-8.5 -3.5h-233q-5 0 -8.5 3.5z" />
    <glyph glyph-name="eogonek.sc" horiz-adv-x="450" 
d="M421.5 459.5q-3.5 -3.5 -8.5 -3.5h-227q-5 0 -5 -5v-95q0 -5 5 -5h137q5 0 8.5 -3.5t3.5 -8.5v-97q0 -5 -3.5 -8.5t-8.5 -3.5h-137q-5 0 -5 -5v-99q0 -5 5 -5h227q5 0 8.5 -3.5t3.5 -8.5v-97q0 -5 -3.5 -8.5t-8.5 -3.5h-137q-3 0 -7 -2q-43 -37 -43 -68q0 -6 1 -9
q2 -12 10 -18t20 -6q4 0 12 2q2 1 6 1q8 0 9 -9l7 -48v-3q0 -9 -9 -12q-25 -9 -55 -9q-33 0 -57.5 14.5t-32.5 48.5q-3 12 -3 26q0 46 39 86q2 2 1 4t-4 2h-118q-5 0 -8.5 3.5t-3.5 8.5v553q0 5 3.5 8.5t8.5 3.5h361q5 0 8.5 -3.5t3.5 -8.5v-97q0 -5 -3.5 -8.5z" />
    <glyph glyph-name="f.sc" horiz-adv-x="433" 
d="M421.5 459.5q-3.5 -3.5 -8.5 -3.5h-227q-5 0 -5 -5v-95q0 -5 5 -5h137q5 0 8.5 -3.5t3.5 -8.5v-97q0 -5 -3.5 -8.5t-8.5 -3.5h-137q-5 0 -5 -5v-213q0 -5 -3.5 -8.5t-8.5 -3.5h-117q-5 0 -8.5 3.5t-3.5 8.5v553q0 5 3.5 8.5t8.5 3.5h361q5 0 8.5 -3.5t3.5 -8.5v-97
q0 -5 -3.5 -8.5z" />
    <glyph glyph-name="g.sc" horiz-adv-x="504" 
d="M94.5 46q-59.5 53 -59.5 145v196q0 91 59.5 144t159.5 53q98 0 158 -53t60 -142v-10q0 -5 -3.5 -8.5t-8.5 -3.5h-116q-12 0 -12 11v11q0 35 -21 54.5t-57 19.5t-57 -20t-21 -58v-196q0 -35 21 -55t57 -20t57 20t21 55v20q0 5 -5 5h-57q-5 0 -8.5 3.5t-3.5 8.5v75
q0 5 3.5 8.5t8.5 3.5h190q5 0 8.5 -3.5t3.5 -8.5v-110q0 -91 -60 -144.5t-158 -53.5q-100 0 -159.5 53z" />
    <glyph glyph-name="gbreve.sc" horiz-adv-x="504" 
d="M94.5 46q-59.5 53 -59.5 145v196q0 91 59.5 144t159.5 53q98 0 158 -53t60 -142v-10q0 -5 -3.5 -8.5t-8.5 -3.5h-116q-12 0 -12 11v11q0 35 -21 54.5t-57 19.5t-57 -20t-21 -58v-196q0 -35 21 -55t57 -20t57 20t21 55v20q0 5 -5 5h-57q-5 0 -8.5 3.5t-3.5 8.5v75
q0 5 3.5 8.5t8.5 3.5h190q5 0 8.5 -3.5t3.5 -8.5v-110q0 -91 -60 -144.5t-158 -53.5q-100 0 -159.5 53zM170 643q-34 30 -38 77v2q0 10 11 10h51q10 0 12 -12q4 -20 17 -32t31 -12q19 0 32 12t16 32q1 12 13 12h50q12 0 11 -12q-4 -47 -38 -77t-84 -30t-84 30z" />
    <glyph glyph-name="uni0123.sc" horiz-adv-x="504" 
d="M94.5 46q-59.5 53 -59.5 145v196q0 91 59.5 144t159.5 53q98 0 158 -53t60 -142v-10q0 -5 -3.5 -8.5t-8.5 -3.5h-116q-12 0 -12 11v11q0 35 -21 54.5t-57 19.5t-57 -20t-21 -58v-196q0 -35 21 -55t57 -20t57 20t21 55v20q0 5 -5 5h-57q-5 0 -8.5 3.5t-3.5 8.5v75
q0 5 3.5 8.5t8.5 3.5h190q5 0 8.5 -3.5t3.5 -8.5v-110q0 -91 -60 -144.5t-158 -53.5q-100 0 -159.5 53zM155 -179q-3 4 1 10l57 101q5 8 15 8h109q10 0 10 -7q0 -3 -3 -8l-73 -101q-5 -7 -14 -7h-92q-7 0 -10 4z" />
    <glyph glyph-name="gdotaccent.sc" horiz-adv-x="504" 
d="M94.5 46q-59.5 53 -59.5 145v196q0 91 59.5 144t159.5 53q98 0 158 -53t60 -142v-10q0 -5 -3.5 -8.5t-8.5 -3.5h-116q-12 0 -12 11v11q0 35 -21 54.5t-57 19.5t-57 -20t-21 -58v-196q0 -35 21 -55t57 -20t57 20t21 55v20q0 5 -5 5h-57q-5 0 -8.5 3.5t-3.5 8.5v75
q0 5 3.5 8.5t8.5 3.5h190q5 0 8.5 -3.5t3.5 -8.5v-110q0 -91 -60 -144.5t-158 -53.5q-100 0 -159.5 53zM207.5 652q-17.5 18 -17.5 47t17.5 47t46.5 18q28 0 45.5 -18t17.5 -47t-17.5 -47t-45.5 -18q-29 0 -46.5 18z" />
    <glyph glyph-name="h.sc" horiz-adv-x="487" 
d="M313.5 573.5q3.5 3.5 8.5 3.5h117q5 0 8.5 -3.5t3.5 -8.5v-553q0 -5 -3.5 -8.5t-8.5 -3.5h-117q-5 0 -8.5 3.5t-3.5 8.5v213q0 5 -5 5h-119q-5 0 -5 -5v-213q0 -5 -3.5 -8.5t-8.5 -3.5h-117q-5 0 -8.5 3.5t-3.5 8.5v553q0 5 3.5 8.5t8.5 3.5h117q5 0 8.5 -3.5t3.5 -8.5
v-209q0 -5 5 -5h119q5 0 5 5v209q0 5 3.5 8.5z" />
    <glyph glyph-name="hbar.sc" horiz-adv-x="487" 
d="M521.5 511.5q3.5 -3.5 3.5 -8.5v-72q0 -5 -3.5 -8.5t-8.5 -3.5h-57q-5 0 -5 -5v-402q0 -5 -3.5 -8.5t-8.5 -3.5h-117q-5 0 -8.5 3.5t-3.5 8.5v213q0 5 -5 5h-119q-5 0 -5 -5v-213q0 -5 -3.5 -8.5t-8.5 -3.5h-117q-5 0 -8.5 3.5t-3.5 8.5v402q0 5 -5 5h-56q-5 0 -8.5 3.5
t-3.5 8.5v72q0 5 3.5 8.5t8.5 3.5h56q5 0 5 5v45q0 5 3.5 8.5t8.5 3.5h117q5 0 8.5 -3.5t3.5 -8.5v-45q0 -5 5 -5h119q5 0 5 5v45q0 5 3.5 8.5t8.5 3.5h117q5 0 8.5 -3.5t3.5 -8.5v-45q0 -5 5 -5h57q5 0 8.5 -3.5zM310 356v58q0 5 -5 5h-119q-5 0 -5 -5v-58q0 -5 5 -5h119
q5 0 5 5z" />
    <glyph glyph-name="i.sc" horiz-adv-x="221" 
d="M43.5 3.5q-3.5 3.5 -3.5 8.5v553q0 5 3.5 8.5t8.5 3.5h117q5 0 8.5 -3.5t3.5 -8.5v-553q0 -5 -3.5 -8.5t-8.5 -3.5h-117q-5 0 -8.5 3.5z" />
    <glyph glyph-name="iacute.sc" horiz-adv-x="221" 
d="M43.5 3.5q-3.5 3.5 -3.5 8.5v553q0 5 3.5 8.5t8.5 3.5h117q5 0 8.5 -3.5t3.5 -8.5v-553q0 -5 -3.5 -8.5t-8.5 -3.5h-117q-5 0 -8.5 3.5zM42 652q-3 4 1 10l57 101q5 8 15 8h109q10 0 10 -7q0 -3 -3 -8l-73 -101q-5 -7 -14 -7h-92q-7 0 -10 4z" />
    <glyph glyph-name="icircumflex.sc" horiz-adv-x="221" 
d="M43.5 3.5q-3.5 3.5 -3.5 8.5v553q0 5 3.5 8.5t8.5 3.5h117q5 0 8.5 -3.5t3.5 -8.5v-553q0 -5 -3.5 -8.5t-8.5 -3.5h-117q-5 0 -8.5 3.5zM-38.5 649.5q-2.5 4.5 1.5 10.5l71 104q5 8 14 8h119q9 0 14 -8l74 -104q3 -4 3 -7q0 -8 -11 -8h-85q-11 0 -15 8l-35 59q-3 6 -6 0
l-35 -59q-4 -8 -15 -8h-85q-7 0 -9.5 4.5z" />
    <glyph glyph-name="idieresis.sc" horiz-adv-x="221" 
d="M43.5 3.5q-3.5 3.5 -3.5 8.5v553q0 5 3.5 8.5t8.5 3.5h117q5 0 8.5 -3.5t3.5 -8.5v-553q0 -5 -3.5 -8.5t-8.5 -3.5h-117q-5 0 -8.5 3.5zM-29.5 663q-19.5 20 -19.5 51q0 32 19.5 51.5t51.5 19.5q31 0 49.5 -19.5t18.5 -51.5t-18.5 -51.5t-49.5 -19.5q-32 0 -51.5 20z
M150.5 663q-19.5 20 -19.5 51t19.5 51t50.5 20t50.5 -19.5t19.5 -51.5t-19.5 -51.5t-50.5 -19.5t-50.5 20z" />
    <glyph glyph-name="i.sc.loclTRK" horiz-adv-x="221" 
d="M43.5 3.5q-3.5 3.5 -3.5 8.5v553q0 5 3.5 8.5t8.5 3.5h117q5 0 8.5 -3.5t3.5 -8.5v-553q0 -5 -3.5 -8.5t-8.5 -3.5h-117q-5 0 -8.5 3.5zM63.5 656q-17.5 18 -17.5 47t17.5 47t46.5 18q28 0 45.5 -18t17.5 -47t-17.5 -47t-45.5 -18q-29 0 -46.5 18z" />
    <glyph glyph-name="igrave.sc" horiz-adv-x="221" 
d="M43.5 3.5q-3.5 3.5 -3.5 8.5v553q0 5 3.5 8.5t8.5 3.5h117q5 0 8.5 -3.5t3.5 -8.5v-553q0 -5 -3.5 -8.5t-8.5 -3.5h-117q-5 0 -8.5 3.5zM166 656q0 -8 -11 -8h-92q-9 0 -14 7l-73 101q-3 5 -3 8q0 7 10 7h109q10 0 15 -8l57 -101z" />
    <glyph glyph-name="ij.sc" horiz-adv-x="686" 
d="M43.5 3.5q-3.5 3.5 -3.5 8.5v553q0 5 3.5 8.5t8.5 3.5h117q5 0 8.5 -3.5t3.5 -8.5v-553q0 -5 -3.5 -8.5t-8.5 -3.5h-117q-5 0 -8.5 3.5zM289.5 46.5q-56.5 53.5 -56.5 141.5v33q0 5 3.5 8.5t8.5 3.5h117q5 0 8.5 -3.5t3.5 -8.5v-34q0 -33 17.5 -53t46.5 -20q30 0 48.5 20
t18.5 53v378q0 5 3.5 8.5t8.5 3.5h117q5 0 8.5 -3.5t3.5 -8.5v-377q0 -88 -57 -141.5t-151 -53.5q-92 0 -148.5 53.5z" />
    <glyph glyph-name="imacron.sc" horiz-adv-x="221" 
d="M43.5 3.5q-3.5 3.5 -3.5 8.5v553q0 5 3.5 8.5t8.5 3.5h117q5 0 8.5 -3.5t3.5 -8.5v-553q0 -5 -3.5 -8.5t-8.5 -3.5h-117q-5 0 -8.5 3.5zM-16.5 657.5q-3.5 3.5 -3.5 8.5v71q0 5 3.5 8.5t8.5 3.5h233q5 0 8.5 -3.5t3.5 -8.5v-71q0 -5 -3.5 -8.5t-8.5 -3.5h-233
q-5 0 -8.5 3.5z" />
    <glyph glyph-name="iogonek.sc" horiz-adv-x="227" 
d="M43.5 3.5q-3.5 3.5 -3.5 8.5v553q0 5 3.5 8.5t8.5 3.5h117q5 0 8.5 -3.5t3.5 -8.5v-553q0 -5 -3.5 -8.5t-8.5 -3.5h-117q-5 0 -8.5 3.5zM186 -171q0 -9 -9 -12q-25 -9 -55 -9q-33 0 -57.5 14.5t-32.5 48.5q-3 12 -3 25q0 51 49 96l4 4t12 4h64q10 0 10 -6q0 -4 -5 -9
q-42 -34 -42 -65q0 -7 1 -10q2 -12 10 -18t20 -6q4 0 12 2q2 1 6 1q8 0 9 -9l7 -48v-3z" />
    <glyph glyph-name="j.sc" horiz-adv-x="465" 
d="M68.5 46.5q-56.5 53.5 -56.5 141.5v33q0 5 3.5 8.5t8.5 3.5h117q5 0 8.5 -3.5t3.5 -8.5v-34q0 -33 17.5 -53t46.5 -20q30 0 48.5 20t18.5 53v378q0 5 3.5 8.5t8.5 3.5h117q5 0 8.5 -3.5t3.5 -8.5v-377q0 -88 -57 -141.5t-151 -53.5q-92 0 -148.5 53.5z" />
    <glyph glyph-name="k.sc" horiz-adv-x="499" 
d="M43.5 3.5q-3.5 3.5 -3.5 8.5v553q0 5 3.5 8.5t8.5 3.5h117q5 0 8.5 -3.5t3.5 -8.5v-199q0 -3 2 -4t4 2l140 205q5 8 14 8h126q7 0 9.5 -4.5t-1.5 -10.5l-153 -228q-1 -3 0 -7l161 -313q2 -4 2 -6q0 -8 -11 -8h-126q-9 0 -14 9l-108 208q-1 3 -3 3t-4 -3l-36 -53
q-2 -4 -2 -6v-146q0 -5 -3.5 -8.5t-8.5 -3.5h-117q-5 0 -8.5 3.5z" />
    <glyph glyph-name="uni0137.sc" horiz-adv-x="499" 
d="M43.5 3.5q-3.5 3.5 -3.5 8.5v553q0 5 3.5 8.5t8.5 3.5h117q5 0 8.5 -3.5t3.5 -8.5v-199q0 -3 2 -4t4 2l140 205q5 8 14 8h126q7 0 9.5 -4.5t-1.5 -10.5l-153 -228q-1 -3 0 -7l161 -313q2 -4 2 -6q0 -8 -11 -8h-126q-9 0 -14 9l-108 208q-1 3 -3 3t-4 -3l-36 -53
q-2 -4 -2 -6v-146q0 -5 -3.5 -8.5t-8.5 -3.5h-117q-5 0 -8.5 3.5zM147 -172q-3 4 1 10l57 101q5 8 15 8h109q10 0 10 -7q0 -3 -3 -8l-73 -101q-5 -7 -14 -7h-92q-7 0 -10 4z" />
    <glyph glyph-name="l.sc" horiz-adv-x="444" 
d="M43.5 3.5q-3.5 3.5 -3.5 8.5v553q0 5 3.5 8.5t8.5 3.5h117q5 0 8.5 -3.5t3.5 -8.5v-439q0 -5 5 -5h230q5 0 8.5 -3.5t3.5 -8.5v-97q0 -5 -3.5 -8.5t-8.5 -3.5h-364q-5 0 -8.5 3.5z" />
    </font>
</defs>
</svg>
