<?xml version="1.0" standalone="no"?>
<!DOCTYPE svg PUBLIC "-//W3C//DTD SVG 1.1//EN" "http://www.w3.org/Graphics/SVG/1.1/DTD/svg11.dtd" >
<svg xmlns="http://www.w3.org/2000/svg" xmlns:xlink="http://www.w3.org/1999/xlink" version="1.1">
<metadata>
Created by FontForge 20170731 at Thu Oct 26 18:32:02 2017
 By Aleksey,,,
Copyright 2017 The Barlow Project Authors (https://github.com/jpt/barlow)
</metadata>
<defs>
<font id="BarlowSemiCondensed-Regular" horiz-adv-x="0" >
  <font-face 
    font-family="Barlow Semi Condensed"
    font-weight="400"
    font-stretch="semi-condensed"
    units-per-em="1000"
    panose-1="0 0 5 6 0 0 0 0 0 0"
    ascent="800"
    descent="-200"
    x-height="506"
    cap-height="700"
    bbox="-507 -209 1046 982"
    underline-thickness="50"
    underline-position="-150"
    unicode-range="U+000D-25CA"
  />
<missing-glyph horiz-adv-x="380" 
d="M4 0h372q4 0 4 4v692q0 4 -4 4h-372q-4 0 -4 -4v-692q0 -4 4 -4zM157 242v39q0 31 13.5 50.5t40.5 43.5t40.5 44t13.5 51q0 36 -19 57.5t-51 21.5q-34 0 -54 -22t-20 -58v-19q0 -10 -10 -10l-31 2q-10 0 -10 10v17q0 57 34.5 91.5t90.5 34.5t89 -34t33 -91q0 -45 -17 -71
t-48 -53q-22 -19 -32.5 -33.5t-10.5 -34.5v-36q0 -10 -10 -10h-32q-10 0 -10 10zM157.5 102q-11.5 12 -11.5 29t12 29t28 12t28 -12.5t12 -28.5q0 -17 -12 -29t-29 -12q-16 0 -27.5 12z" />
    <glyph glyph-name="I_J.liga" unicode="IJ" horiz-adv-x="740" 
d="M83 10v680q0 10 10 10h51q10 0 10 -10v-680q0 -10 -10 -10h-51q-10 0 -10 10zM316.5 44q-53.5 52 -53.5 137v66q0 10 10 10h51q10 0 10 -10v-67q0 -56 34.5 -91t90.5 -35q57 0 92 35t35 91v510q0 10 10 10h51q10 0 10 -10v-509q0 -85 -54.5 -137t-143.5 -52t-142.5 52z
" />
    <glyph glyph-name="f_f_i.liga" unicode="ffi" horiz-adv-x="837" 
d="M167 510q0 -4 4 -4h116q10 0 10 -10v-36q0 -10 -10 -10h-116q-4 0 -4 -4v-436q0 -10 -10 -10h-51q-10 0 -10 10v436q0 4 -4 4h-51q-10 0 -10 10v36q0 10 10 10h51q4 0 4 4v38q0 82 34.5 119.5t116.5 36.5h19q10 0 10 -10v-32q0 -10 -10 -10h-19q-46 -1 -63 -27.5
t-17 -81.5v-33zM466 510q0 -4 4 -4h97q10 0 10 -10v-36q0 -10 -10 -10h-97q-4 0 -4 -4v-436q0 -10 -10 -10h-50q-10 0 -10 10v436q0 4 -4 4h-81q-10 0 -10 10v36q0 10 10 10h81q4 0 4 4v38q0 82 34.5 119.5t115.5 36.5h20q10 0 10 -10v-32q0 -10 -10 -10h-19
q-47 -1 -64 -27.5t-17 -81.5v-33zM762.5 685.5q14.5 -14.5 14.5 -37.5t-14.5 -37.5t-36.5 -14.5t-37 15t-15 37q0 23 15 37.5t37 14.5t36.5 -14.5zM691 10v486q0 10 10 10h51q10 0 10 -10v-486q0 -10 -10 -10h-51q-10 0 -10 10z" />
    <glyph glyph-name="f_f_l.liga" unicode="ffl" horiz-adv-x="821" 
d="M467 510q0 -4 4 -4h97q10 0 10 -10v-36q0 -10 -10 -10h-97q-4 0 -4 -4v-436q0 -10 -10 -10h-50q-10 0 -10 10v436q0 4 -4 4h-222q-4 0 -4 -4v-436q0 -10 -10 -10h-51q-10 0 -10 10v436q0 4 -4 4h-51q-10 0 -10 10v36q0 10 10 10h51q4 0 4 4v38q0 82 34.5 119.5
t116.5 36.5h19q10 0 10 -10v-32q0 -10 -10 -10h-19q-46 -1 -63 -27.5t-17 -81.5v-33q0 -4 4 -4h222q4 0 4 4v38q0 82 34.5 119.5t115.5 36.5h20q10 0 10 -10v-32q0 -10 -10 -10h-19q-47 -1 -64 -27.5t-17 -81.5v-33zM693 700h51q10 0 10 -10v-680q0 -10 -10 -10h-51
q-10 0 -10 10v680q0 10 10 10z" />
    <glyph glyph-name="f_i.liga" unicode="fi" horiz-adv-x="540" 
d="M187 617q-18 -25 -18 -82v-25q0 -4 4 -4h94q10 0 10 -10v-39q0 -10 -10 -10h-94q-4 0 -4 -4v-433q0 -10 -10 -10h-51q-10 0 -10 10v433q0 4 -4 4h-53q-10 0 -10 10v39q0 10 10 10h53q4 0 4 4v28q0 89 33.5 127t116.5 38h21q10 0 10 -10v-41q0 -10 -10 -10h-18
q-46 0 -64 -25zM390.5 611.5q-14.5 14.5 -14.5 37.5q0 22 14.5 36.5t37.5 14.5t37 -14t14 -37t-14 -37.5t-37 -14.5t-37.5 14.5zM393 10v486q0 10 10 10h51q10 0 10 -10v-486q0 -10 -10 -10h-51q-10 0 -10 10z" />
    <glyph glyph-name="f_l.liga" unicode="fl" horiz-adv-x="523" 
d="M187 617q-18 -25 -18 -82v-25q0 -4 4 -4h94q10 0 10 -10v-39q0 -10 -10 -10h-94q-4 0 -4 -4v-433q0 -10 -10 -10h-51q-10 0 -10 10v433q0 4 -4 4h-53q-10 0 -10 10v39q0 10 10 10h53q4 0 4 4v28q0 89 33.5 127t116.5 38h21q10 0 10 -10v-41q0 -10 -10 -10h-18
q-46 0 -64 -25zM384 10v680q0 10 10 10h51q10 0 10 -10v-680q0 -10 -10 -10h-51q-10 0 -10 10z" />
    <glyph glyph-name="g_j.liga" unicode="gj" horiz-adv-x="686" 
d="M618 685q15 -14 15 -37t-14.5 -37.5t-37.5 -14.5t-37 14.5t-14 37.5t14.5 37t36.5 14t37 -14zM340.5 457.5q1.5 0.5 1.5 2.5v36q0 10 10 10h51q10 0 10 -10v-482q0 -226 -247 -215q-10 1 -10 11l1 45q0 5 3 7.5t7 1.5q94 -3 134.5 34.5t40.5 119.5v33q0 2 -1.5 3t-3.5 -1
q-39 -56 -116 -56q-64 0 -107 38.5t-53 104.5q-6 44 -6 113q0 75 7 118q8 65 50.5 104t106.5 39q78 0 118 -55q2 -2 3.5 -1.5zM546 496q0 10 10 10h50q10 0 10 -10v-540q0 -82 -38.5 -123t-120.5 -41q-10 0 -10 10v41q0 10 9 10q42 2 66 28.5t24 74.5v540zM342 254
q0 60 -3 102q-4 42 -31.5 69t-70.5 27t-71.5 -27t-34.5 -69q-4 -36 -4 -102q0 -50 4 -100q5 -42 34 -69t72 -27t70.5 27t31.5 69q3 39 3 100z" />
    <glyph glyph-name="i_j.liga" unicode="ij" horiz-adv-x="433" 
d="M74.5 611.5q-14.5 14.5 -14.5 37.5q0 22 14.5 36.5t37.5 14.5t37 -14t14 -37t-14 -37.5t-37 -14.5t-37.5 14.5zM77 10v486q0 10 10 10h51q10 0 10 -10v-486q0 -10 -10 -10h-51q-10 0 -10 10zM290.5 610.5q-14.5 14.5 -14.5 37.5t15 37.5t36 14.5q22 0 37.5 -14.5
t15.5 -37.5t-15 -37.5t-38 -14.5q-22 0 -36.5 14.5zM188 -198v42q0 10 10 10q47 1 70.5 27t23.5 75v540q0 10 10 10h51q10 0 10 -10v-540q0 -84 -37.5 -124t-127.5 -40q-10 0 -10 10z" />
    <glyph glyph-name="hyphen_hyphen.liga" unicode="&#x2d;&#x2d;" horiz-adv-x="639" 
d="M36 283v42q0 10 10 10h547q10 0 10 -10v-42q0 -10 -10 -10h-547q-10 0 -10 10z" />
    <glyph glyph-name=".notdef" horiz-adv-x="380" 
d="M4 0h372q4 0 4 4v692q0 4 -4 4h-372q-4 0 -4 -4v-692q0 -4 4 -4zM157 242v39q0 31 13.5 50.5t40.5 43.5t40.5 44t13.5 51q0 36 -19 57.5t-51 21.5q-34 0 -54 -22t-20 -58v-19q0 -10 -10 -10l-31 2q-10 0 -10 10v17q0 57 34.5 91.5t90.5 34.5t89 -34t33 -91q0 -45 -17 -71
t-48 -53q-22 -19 -32.5 -33.5t-10.5 -34.5v-36q0 -10 -10 -10h-32q-10 0 -10 10zM157.5 102q-11.5 12 -11.5 29t12 29t28 12t28 -12.5t12 -28.5q0 -17 -12 -29t-29 -12q-16 0 -27.5 12z" />
    <glyph glyph-name=".null" 
 />
    <glyph glyph-name="nonmarkingreturn" unicode="&#xd;" horiz-adv-x="200" 
 />
    <glyph glyph-name="space" unicode=" " horiz-adv-x="200" 
 />
    <glyph glyph-name="exclam" unicode="!" horiz-adv-x="289" 
d="M115 238l-6 452q0 10 10 10h51q10 0 10 -10l-6 -452q0 -10 -10 -10h-39q-10 0 -10 10zM100.5 21q-16.5 17 -16.5 42q0 24 17.5 41.5t40.5 17.5q24 0 41.5 -17.5t17.5 -41.5q0 -25 -17 -42t-42 -17t-41.5 17z" />
    <glyph glyph-name="quotedbl" unicode="&#x22;" horiz-adv-x="249" 
d="M34 498l-8 186q0 10 10 10h50q10 0 10 -10l-8 -186q0 -10 -10 -10h-34q-10 0 -10 10zM160 498l-8 186q0 10 10 10h51q10 0 10 -10l-8 -186q0 -10 -10 -10h-35q-10 0 -10 10z" />
    <glyph glyph-name="numbersign" unicode="#" horiz-adv-x="624" 
d="M550 429h-69q-5 0 -5 -4l-24 -159q0 -4 3 -4h61q10 0 10 -10v-42q0 -10 -10 -10h-70q-5 0 -5 -4l-26 -171q-1 -9 -10 -9l-51 2q-4 0 -7 3t-2 8l24 167q0 4 -3 4h-152q-5 0 -5 -4l-26 -171q-1 -9 -10 -9l-51 2q-4 0 -7 3t-2 8l25 167q0 4 -3 4h-61q-10 0 -10 10v42
q0 10 10 10h70q5 0 5 4l23 159q0 4 -3 4h-61q-10 0 -10 10l1 43q0 10 10 10h70q5 0 5 4l26 171q1 9 10 9l51 -2q4 0 7 -3t2 -8l-25 -167q0 -4 3 -4h152q5 0 5 4l26 171q1 9 10 9l52 -2q4 0 7 -3t2 -8l-25 -167q0 -4 3 -4h60q10 0 10 -10v-43q0 -10 -10 -10zM381 266l23 159
q0 4 -3 4h-152q-5 0 -5 -4l-24 -159q0 -4 3 -4h153q5 0 5 4z" />
    <glyph glyph-name="dollar" unicode="$" horiz-adv-x="486" 
d="M393.5 48.5q-44.5 -48.5 -124.5 -55.5q-4 0 -4 -4l1 -61q0 -10 -10 -10h-30q-10 0 -10 10l1 62q0 4 -4 4q-73 10 -115.5 56.5t-42.5 118.5v33q0 10 10 10h49q10 0 10 -10v-24q0 -56 33.5 -90t90.5 -34q56 0 87.5 32t31.5 84q0 32 -15.5 56t-41.5 43t-76 49l-29 18
q-52 32 -82 57t-47.5 59t-17.5 82q0 74 40 119t112 54q4 0 4 4l-1 67q0 10 10 10h29q10 0 10 -10l-1 -67q0 -4 4 -4q79 -7 123.5 -55t44.5 -125v-28q0 -10 -10 -10h-50q-10 0 -10 10v22q0 56 -33 90.5t-90 34.5q-52 0 -82 -29t-30 -81q0 -35 16 -58.5t41 -40t89 -53.5
q60 -36 94.5 -65t52 -63t17.5 -80q0 -79 -44.5 -127.5z" />
    <glyph glyph-name="percent" unicode="%" horiz-adv-x="815" 
d="M153.5 444q-32.5 19 -51.5 51.5t-19 71.5t19 71.5t51.5 51.5t71.5 19q38 0 70.5 -19t51.5 -51.5t19 -71.5t-19 -71.5t-51.5 -51.5t-70.5 -19q-39 0 -71.5 19zM194.5 3.5q-2.5 3.5 0.5 8.5l372 681q3 7 12 7h32q5 0 7.5 -3.5t-0.5 -8.5l-372 -681q-3 -7 -12 -7h-32
q-5 0 -7.5 3.5zM293.5 496.5q28.5 29.5 28.5 70.5q0 42 -28 71t-69 29t-69.5 -29t-28.5 -71t28.5 -71t69.5 -29q40 0 68.5 29.5zM520.5 10q-32.5 19 -51.5 52t-19 72q0 38 19 70.5t51.5 51.5t71.5 19q38 0 70.5 -19t51.5 -51.5t19 -70.5q0 -39 -19 -72t-51.5 -52t-70.5 -19
q-39 0 -71.5 19zM660.5 62.5q28.5 29.5 28.5 71.5q0 41 -28.5 70t-68.5 29q-41 0 -69.5 -29t-28.5 -70q0 -43 28.5 -72t69.5 -29q40 0 68.5 29.5z" />
    <glyph glyph-name="ampersand" unicode="&#x26;" horiz-adv-x="607" 
d="M552 6q0 -6 -8 -6h-57q-6 0 -12 6q-31 37 -51 64q-3 3 -6 0q-42 -41 -85.5 -59.5t-97.5 -18.5q-83 0 -132.5 42t-49.5 121q0 68 35.5 117t99.5 97q3 2 0 5q-55 75 -71.5 108.5t-16.5 69.5q0 71 43 113.5t114 42.5q70 0 115.5 -42.5t45.5 -110.5q0 -61 -34 -104.5
t-98 -90.5q-3 -1 -1 -5l88 -113l49 -62q3 -4 6 0q35 49 56 82q5 8 13 3l38 -22q8 -5 4 -14q-41 -65 -71 -102q-1 -3 0 -6l32 -42q10 -13 22.5 -29.5t27.5 -37.5q2 -2 2 -6zM195 618q-24 -25 -24 -67q0 -26 13 -52t57 -86q3 -3 6 -1q50 39 75 71t25 72q0 39 -25 63.5
t-64 24.5t-63 -25zM311 70q33 17 67 51q3 3 1 6q-22 27 -48 63l-13 17l-85 109q-2 3 -5 0q-50 -40 -76.5 -76t-26.5 -83q0 -48 30.5 -76t84.5 -28q38 0 71 17z" />
    <glyph glyph-name="quotesingle" unicode="'" horiz-adv-x="125" 
d="M34 503l-8 185q0 10 10 10h53q10 0 10 -10l-8 -185q0 -10 -10 -10h-37q-10 0 -10 10z" />
    <glyph glyph-name="parenleft" unicode="(" horiz-adv-x="241" 
d="M95 -97q-44 74 -71.5 186t-27.5 236q0 126 28 240.5t73 190.5q4 7 12 7h48q5 0 7 -3.5t0 -8.5q-38 -78 -62.5 -190.5t-24.5 -234.5q0 -119 24.5 -230t62.5 -188q1 -2 1 -5q0 -7 -8 -7h-50q-8 0 -12 7z" />
    <glyph glyph-name="parenright" unicode=")" horiz-adv-x="241" 
d="M134 -104h-50q-5 0 -7 3.5t0 8.5q38 77 62.5 188t24.5 230q0 122 -24.5 234.5t-62.5 190.5q-1 2 -1 5q0 7 8 7h48q8 0 12 -7q45 -76 73 -190.5t28 -240.5q0 -124 -27.5 -236t-71.5 -186q-4 -7 -12 -7z" />
    <glyph glyph-name="asterisk" unicode="*" horiz-adv-x="379" 
d="M166 404l1 120q0 6 -5 3l-105 -62l-5 -2q-5 0 -9 6l-12 23q-2 4 -2 6q0 5 5 8l106 61q2 1 2 3t-2 3l-106 61q-4 2 -4.5 6t1.5 8l12 24q5 10 14 4l105 -63q5 -2 5 3l-1 121q0 10 10 10h27q10 0 10 -10l-1 -121q0 -5 5 -3l105 63q4 2 6 2q5 0 8 -6l13 -24q1 -2 1 -5
q0 -6 -5 -9l-106 -61q-1 -1 -1 -3t1 -3l106 -61q4 -2 4.5 -6t-1.5 -8l-12 -24q-5 -10 -14 -4l-105 63q-5 3 -5 -3l1 -120q0 -10 -10 -10h-27q-10 0 -10 10z" />
    <glyph glyph-name="plus" unicode="+" horiz-adv-x="471" 
d="M435 335v-38q0 -10 -10 -10h-156q-4 0 -4 -4v-155q0 -10 -10 -10h-39q-10 0 -10 10v155q0 4 -4 4h-156q-10 0 -10 10v38q0 10 10 10h156q4 0 4 4v159q0 10 10 10h39q10 0 10 -10v-159q0 -4 4 -4h156q10 0 10 -10z" />
    <glyph glyph-name="comma" unicode="," horiz-adv-x="221" 
d="M54.5 -76q-2.5 3 -1.5 8l37 214q2 9 11 9h45q5 0 7.5 -3t0.5 -8l-50 -214q-2 -9 -11 -9h-31q-5 0 -7.5 3z" />
    <glyph glyph-name="hyphen" unicode="-" horiz-adv-x="354" 
d="M36 290v42q0 10 10 10h262q10 0 10 -10v-42q0 -10 -10 -10h-262q-10 0 -10 10z" />
    <glyph glyph-name="period" unicode="." horiz-adv-x="241" 
d="M77 20q-17 17 -17 42q0 24 17.5 41.5t41.5 17.5q23 0 40.5 -17.5t17.5 -41.5q0 -25 -17 -42t-41 -17q-25 0 -42 17z" />
    <glyph glyph-name="slash" unicode="/" horiz-adv-x="329" 
d="M30.5 3q-2.5 3 -1.5 8l202 681q3 8 11 8h49q5 0 7.5 -3t1.5 -8l-201 -681q-3 -8 -11 -8h-50q-5 0 -7.5 3z" />
    <glyph glyph-name="zero" unicode="0" horiz-adv-x="488" 
d="M105 42q-52 52 -52 139v338q0 86 52 138t138 52q87 0 139.5 -52t52.5 -138v-338q0 -87 -52.5 -139t-139.5 -52q-86 0 -138 52zM331 86q33 34 33 90v347q0 56 -33 90t-88 34q-53 0 -86 -34t-33 -90v-347q0 -55 33 -89.5t86 -34.5q55 0 88 34z" />
    <glyph glyph-name="one" unicode="1" horiz-adv-x="296" 
d="M158 700h54q10 0 10 -10v-680q0 -10 -10 -10h-51q-10 0 -10 10v613q0 2 -1.5 3t-3.5 0l-96 -41l-4 -1q-8 0 -8 9v36q0 7 7 12l100 56q5 3 13 3z" />
    <glyph glyph-name="two" unicode="2" horiz-adv-x="469" 
d="M50 10v44q0 6 4 13q90 122 201 280q79 115 79 184q0 52 -30 83.5t-79 31.5q-48 0 -77 -31.5t-28 -83.5v-34q0 -10 -10 -10h-52q-10 0 -10 10v40q2 77 51.5 124t127.5 47q80 0 129 -49t49 -128q0 -88 -82 -208q-53 -78 -154 -217l-28 -39q-2 -5 3 -5h272q10 0 10 -10v-42
q0 -10 -10 -10h-356q-10 0 -10 10z" />
    <glyph glyph-name="three" unicode="3" horiz-adv-x="463" 
d="M404 213q0 -63 -17 -109q-20 -55 -61 -83.5t-102 -28.5q-67 0 -112.5 36t-59.5 98q-7 28 -9 76q0 10 10 10h51q10 0 10 -10q2 -39 7 -59q9 -42 35.5 -65.5t67.5 -23.5q76 0 100 78q10 38 10 85q0 60 -15 99q-26 71 -95 71q-16 0 -29 -7q-2 -1 -5 -1q-5 0 -9 4l-25 28
q-6 6 -1 14l155 208q2 2 1 3.5t-3 1.5h-249q-10 0 -10 10v42q0 10 10 10h332q10 0 10 -10v-45q0 -8 -4 -13l-146 -199q-2 -2 -1 -3.5t3 -1.5q48 0 81 -23.5t50 -68.5q20 -49 20 -123z" />
    <glyph glyph-name="four" unicode="4" horiz-adv-x="476" 
d="M435 246v-44q0 -10 -10 -10h-37q-4 0 -4 -4v-178q0 -10 -10 -10h-51q-10 0 -10 10v178q0 4 -4 4h-264q-10 0 -10 10v38q0 7 2 12l178 440q3 8 11 8h56q5 0 7 -3.5t0 -8.5l-171 -427q-1 -2 0 -3.5t3 -1.5h188q4 0 4 4v158q0 10 10 10h51q10 0 10 -10v-158q0 -4 4 -4h37
q10 0 10 -10z" />
    <glyph glyph-name="five" unicode="5" horiz-adv-x="461" 
d="M418 215q0 -58 -17 -105q-17 -56 -59.5 -87t-103.5 -31q-68 0 -113 36t-59 101q-5 18 -6 37v2q0 8 9 8h52q9 0 10 -8v-4l4 -20q9 -43 35.5 -66t67.5 -23q40 0 66.5 23.5t35.5 66.5q7 28 7 69q0 38 -8 78q-9 40 -35 60.5t-66 20.5q-38 0 -65.5 -17.5t-38.5 -50.5l-2 -4
q-1 -7 -10 -7h-53q-10 0 -10 10v386q0 10 10 10h317q10 0 10 -10v-42q0 -10 -10 -10h-252q-4 0 -4 -4v-245q0 -2 1.5 -2.5t3.5 1.5q20 22 50.5 34.5t65.5 12.5q55 0 93.5 -25.5t54.5 -75.5q19 -56 19 -119z" />
    <glyph glyph-name="six" unicode="6" horiz-adv-x="462" 
d="M419 214q0 -63 -17 -103q-19 -58 -59.5 -88.5t-102.5 -30.5q-60 0 -102 30t-60 85q-19 47 -19 106v320q0 80 49.5 127.5t128.5 47.5q75 0 122 -47t47 -124v-15q0 -10 -10 -10h-51q-10 0 -10 10v11q0 50 -28 81t-71 31q-46 0 -76 -31.5t-30 -84.5v-152q0 -3 2 -3.5t3 2.5
q39 59 117 59q108 0 146 -106q21 -41 21 -115zM348 216q0 45 -9 79q-9 38 -35.5 60t-65.5 22t-65 -22.5t-35 -61.5q-8 -28 -8 -77q0 -43 6 -72q9 -42 35.5 -65.5t67.5 -23.5q39 0 66 23.5t37 68.5q6 34 6 69z" />
    <glyph glyph-name="seven" unicode="7" horiz-adv-x="419" 
d="M123 11l201 622q1 2 -0.5 3.5t-3.5 1.5h-226q-4 0 -4 -4v-43q0 -10 -10 -10h-40q-10 0 -10 10v99q0 10 10 10h350q10 0 10 -10v-46q0 -4 -2 -12l-200 -624q-3 -8 -12 -8h-55q-11 0 -8 11z" />
    <glyph glyph-name="eight" unicode="8" horiz-adv-x="471" 
d="M332 370q43 -24 61 -67q21 -43 21 -108q0 -59 -21 -106q-21 -46 -62 -71.5t-97 -25.5q-55 0 -96 26t-63 74q-20 46 -20 104q0 61 20 104q21 47 62 70q4 3 0 6q-34 18 -56 53q-26 44 -26 100q0 58 25 100q22 39 62 60t92 21q54 0 94.5 -21.5t62.5 -62.5q23 -43 23 -98
q0 -56 -25 -97q-22 -35 -57 -55q-5 -3 0 -6zM125 523q0 -42 19 -74q28 -50 90 -50q32 0 56 14t37 40q17 27 17 71q0 42 -16 70q-14 25 -38 39.5t-56 14.5t-56 -14.5t-37 -40.5q-16 -32 -16 -70zM343 200q0 48 -13 78q-11 32 -36 49t-60 17q-68 0 -95 -66q-13 -32 -13 -78
q0 -48 15 -83q26 -63 93 -63q33 0 57 16t36 47q16 35 16 83z" />
    <glyph glyph-name="nine" unicode="9" horiz-adv-x="464" 
d="M405 487v-320q0 -80 -49.5 -127.5t-128.5 -47.5q-75 0 -122 47t-47 124v15q0 10 10 10h51q10 0 10 -10v-11q0 -50 28 -81t71 -31q46 0 76 31.5t30 84.5v152q0 3 -2 3.5t-3 -2.5q-39 -59 -117 -59q-108 0 -146 106q-21 41 -21 115q0 63 17 103q19 58 59.5 88.5t102.5 30.5
q60 0 102 -30t60 -85q19 -47 19 -106zM291 345.5q26 22.5 35 61.5q8 28 8 77q0 44 -6 72q-9 42 -35.5 65.5t-67.5 23.5q-39 0 -66 -23.5t-37 -68.5q-6 -34 -6 -69q0 -45 9 -79q9 -38 35.5 -60t65.5 -22t65 22.5z" />
    <glyph glyph-name="colon" unicode=":" horiz-adv-x="275" 
d="M96 363.5q-17 17.5 -17 42.5q0 24 18 41.5t41 17.5t41 -17.5t18 -41.5q0 -25 -17 -42.5t-42 -17.5t-42 17.5zM96 27q-17 17 -17 42q0 24 18 41.5t41 17.5t41 -17.5t18 -41.5q0 -25 -17 -42t-42 -17t-42 17z" />
    <glyph glyph-name="semicolon" unicode=";" horiz-adv-x="252" 
d="M85.5 364q-16.5 17 -16.5 43q0 24 17.5 41t40.5 17q24 0 41.5 -17t17.5 -41q0 -25 -17 -42.5t-42 -17.5t-41.5 17zM74 -71.5q-3 3.5 -2 7.5l25 206q1 9 10 9h46q5 0 7.5 -3t1.5 -8l-38 -206q-1 -9 -11 -9h-31q-5 0 -8 3.5z" />
    <glyph glyph-name="less" unicode="&#x3c;" horiz-adv-x="471" 
d="M431.5 55.5q-3.5 -2.5 -8.5 0.5l-380 181q-7 4 -7 12v48q0 8 7 12l380 181q2 1 5 1q7 0 7 -8v-49q0 -7 -7 -11l-317 -147q-4 -3 0 -6l317 -147q7 -4 7 -11v-49q0 -5 -3.5 -7.5z" />
    <glyph glyph-name="equal" unicode="=" horiz-adv-x="471" 
d="M36 408v38q0 10 10 10h379q10 0 10 -10v-38q0 -10 -10 -10h-379q-10 0 -10 10zM36 201v38q0 10 10 10h379q10 0 10 -10v-38q0 -10 -10 -10h-379q-10 0 -10 10z" />
    <glyph glyph-name="greater" unicode="&#x3e;" horiz-adv-x="471" 
d="M43 54q-3 0 -5 2.5t-2 6.5v49q0 7 7 11l317 147q5 3 0 6l-317 147q-7 4 -7 11v49q0 5 3.5 7.5t8.5 -0.5l380 -181q7 -4 7 -12v-48q0 -8 -7 -12l-380 -181z" />
    <glyph glyph-name="question" unicode="?" horiz-adv-x="415" 
d="M156 210v59q0 43 18.5 70t56.5 61t57 61.5t19 71.5q0 50 -27.5 80.5t-71.5 30.5q-46 0 -74.5 -31t-28.5 -81v-31q0 -10 -10 -10l-51 3q-10 0 -10 10v28q0 79 48.5 128t126.5 49q77 0 123.5 -48t46.5 -128q0 -44 -13 -76t-31 -52t-47 -46q-30 -26 -45 -46t-15 -48v-55
q0 -10 -10 -10h-52q-10 0 -10 10zM156 18.5q-16 16.5 -16 40.5q0 23 16.5 40t39.5 17q22 0 39 -17t17 -40q0 -24 -17 -40.5t-40 -16.5t-39 16.5z" />
    <glyph glyph-name="at" unicode="@" horiz-adv-x="794" 
d="M595.5 581q67.5 -36 105 -100.5t37.5 -149.5q0 -17 -4 -53q-12 -93 -58 -145t-115 -52q-34 0 -60 13t-40 37q-3 5 -6 0q-16 -25 -43.5 -38t-61.5 -13q-46 0 -73 27.5t-28 73.5q-1 28 6 82q6 45 14 80q11 47 43.5 74.5t77.5 27.5q52 0 77 -35q1 -2 3 -1t2 3l2 19q1 9 10 9
h32q5 0 8 -3.5t2 -7.5l-27 -206q-1 -5 -1 -15q0 -36 18.5 -57.5t51.5 -21.5q42 0 72 39t40 108q3 26 3 49q0 74 -31 129t-87.5 84.5t-130.5 29.5q-79 0 -150.5 -38t-118.5 -110t-54 -168q-1 -12 -1 -34q0 -78 30 -136.5t85 -90t127 -31.5q49 0 93 12.5t69 31.5q3 3 7 3t7 -5
l15 -22q5 -9 -1 -14q-33 -25 -86.5 -40.5t-111.5 -15.5q-85 0 -150.5 38.5t-101 108t-35.5 158.5q0 12 2 40q9 110 64 192.5t139 126t177 43.5q89 0 156.5 -36zM450 242l5 38l4 54q2 29 -15 47t-46 18t-50.5 -18.5t-28.5 -46.5q-6 -20 -12 -72q-7 -53 -7 -73
q0 -29 17.5 -46.5t46.5 -17.5t49.5 18.5t27.5 47.5q6 28 9 51z" />
    <glyph glyph-name="A" unicode="A" horiz-adv-x="531" 
d="M423 9l-33 125q-1 3 -5 3h-239q-4 0 -5 -3l-33 -125q-2 -9 -11 -9h-52q-5 0 -7.5 3t-1.5 8l186 680q2 9 11 9h64q9 0 11 -9l187 -680l1 -3q0 -8 -10 -8h-52q-9 0 -11 9zM158.5 196.5q1.5 -1.5 3.5 -1.5h207q2 0 3.5 1.5t0.5 2.5l-105 400q-1 2 -2 2t-2 -2l-106 -400
q-1 -1 0.5 -2.5z" />
    <glyph glyph-name="B" unicode="B" horiz-adv-x="538" 
d="M386 360q47 -23 72.5 -66t26.5 -104q0 -90 -53.5 -140t-141.5 -50h-197q-10 0 -10 10v680q0 10 10 10h189q92 0 144 -47.5t52 -135.5q0 -56 -23.5 -94t-68.5 -58q-5 -2 0 -5zM154 634v-241q0 -4 4 -4h125q58 0 91.5 33t33.5 89q0 59 -33.5 93t-91.5 34h-125q-4 0 -4 -4z
M380 99q34 36 34 98q0 63 -34.5 99t-93.5 36h-128q-4 0 -4 -4v-261q0 -4 4 -4h130q58 0 92 36z" />
    <glyph glyph-name="C" unicode="C" horiz-adv-x="526" 
d="M119.5 46q-55.5 54 -55.5 143v323q0 89 55.5 142.5t146.5 53.5q92 0 147.5 -53t55.5 -141v-9q0 -10 -10 -10l-51 -2q-10 0 -10 9v14q0 58 -36.5 94t-95.5 36t-95 -35.5t-36 -94.5v-332q0 -59 36 -94.5t95 -35.5t95.5 36t36.5 94v14q0 9 10 9l51 -3q10 0 10 -8v-9
q0 -88 -55.5 -141.5t-147.5 -53.5q-91 0 -146.5 54z" />
    <glyph glyph-name="D" unicode="D" horiz-adv-x="542" 
d="M83 10v680q0 10 10 10h195q89 0 140.5 -51t51.5 -139v-320q0 -88 -51.5 -139t-140.5 -51h-195q-10 0 -10 10zM158 62h131q55 1 87 36.5t33 97.5v308q0 62 -32 98t-88 36h-131q-4 0 -4 -4v-568q0 -4 4 -4z" />
    <glyph glyph-name="E" unicode="E" horiz-adv-x="517" 
d="M458 638h-300q-4 0 -4 -4v-248q0 -4 4 -4h202q10 0 10 -10v-42q0 -10 -10 -10h-202q-4 0 -4 -4v-250q0 -4 4 -4h300q10 0 10 -10v-42q0 -10 -10 -10h-365q-10 0 -10 10v680q0 10 10 10h365q10 0 10 -10v-42q0 -10 -10 -10z" />
    <glyph glyph-name="F" unicode="F" horiz-adv-x="486" 
d="M457 638h-299q-4 0 -4 -4v-248q0 -4 4 -4h201q10 0 10 -10v-42q0 -10 -10 -10h-201q-4 0 -4 -4v-306q0 -10 -10 -10h-51q-10 0 -10 10v680q0 10 10 10h364q10 0 10 -10v-42q0 -10 -10 -10z" />
    <glyph glyph-name="G" unicode="G" horiz-adv-x="525" 
d="M119.5 45q-55.5 53 -55.5 141v328q0 88 55.5 141t146.5 53q60 0 105.5 -24t71 -67t25.5 -99v-28q0 -10 -10 -10h-51q-10 0 -10 10v28q0 57 -36 92.5t-95 35.5t-95 -35.5t-36 -94.5v-332q0 -58 36.5 -94t95.5 -36t94.5 34t35.5 92v109q0 4 -4 4h-117q-10 0 -10 10v42
q0 10 10 10h182q10 0 10 -10v-156q0 -91 -55 -144t-147 -53q-91 0 -146.5 53z" />
    <glyph glyph-name="H" unicode="H" horiz-adv-x="563" 
d="M420 700h51q10 0 10 -10v-680q0 -10 -10 -10h-51q-10 0 -10 10v306q0 4 -4 4h-248q-4 0 -4 -4v-306q0 -10 -10 -10h-51q-10 0 -10 10v680q0 10 10 10h51q10 0 10 -10v-304q0 -4 4 -4h248q4 0 4 4v304q0 10 10 10z" />
    <glyph glyph-name="I" unicode="I" horiz-adv-x="237" 
d="M83 10v680q0 10 10 10h51q10 0 10 -10v-680q0 -10 -10 -10h-51q-10 0 -10 10z" />
    <glyph glyph-name="J" unicode="J" horiz-adv-x="503" 
d="M79.5 44q-53.5 52 -53.5 137v66q0 10 10 10h51q10 0 10 -10v-67q0 -56 34.5 -91t90.5 -35q57 0 92 35t35 91v510q0 10 10 10h51q10 0 10 -10v-509q0 -85 -54.5 -137t-143.5 -52t-142.5 52z" />
    <glyph glyph-name="K" unicode="K" horiz-adv-x="531" 
d="M83 10v680q0 10 10 10h51q10 0 10 -10v-332q0 -2 2 -2.5t3 1.5l254 337q4 6 13 6h56q6 0 8 -3.5t-2 -8.5l-200 -274q-1 -3 0 -6l218 -396q2 -4 2 -6q0 -6 -9 -6h-58q-9 0 -12 7l-190 345q-2 5 -5 0l-78 -99q-2 -2 -2 -5v-238q0 -10 -10 -10h-51q-10 0 -10 10z" />
    <glyph glyph-name="L" unicode="L" horiz-adv-x="482" 
d="M83 10v680q0 10 10 10h51q10 0 10 -10v-624q0 -4 4 -4h291q10 0 10 -10v-42q0 -10 -10 -10h-356q-10 0 -10 10z" />
    <glyph glyph-name="M" unicode="M" horiz-adv-x="615" 
d="M83 10v680q0 10 10 10h51q9 0 12 -7l148 -296q1 -2 3 -2t3 2l149 296q3 7 12 7h52q10 0 10 -10v-680q0 -10 -10 -10h-51q-10 0 -10 10v529q0 3 -1.5 3.5t-3.5 -1.5l-125 -247q-3 -7 -12 -7h-23q-9 0 -12 7l-126 248q-2 2 -3.5 2t-1.5 -3v-531q0 -10 -10 -10h-51
q-10 0 -10 10z" />
    <glyph glyph-name="N" unicode="N" horiz-adv-x="583" 
d="M83 10v680q0 10 10 10h51q9 0 12 -7l269 -527q2 -2 3.5 -2t1.5 3v523q0 10 10 10h51q10 0 10 -10v-680q0 -10 -10 -10h-52q-9 0 -12 7l-269 529q-2 2 -3.5 1.5t-1.5 -3.5l1 -524q0 -10 -10 -10h-51q-10 0 -10 10z" />
    <glyph glyph-name="O" unicode="O" horiz-adv-x="539" 
d="M161.5 17.5q-46.5 25.5 -72 71.5t-25.5 106v309q0 60 25.5 106.5t72 72t107.5 25.5t107.5 -25.5t72.5 -72t26 -106.5v-309q0 -60 -26 -106t-72.5 -71.5t-107.5 -25.5t-107.5 25.5zM367 92q37 38 37 100v314q0 63 -37 101.5t-98 38.5q-60 0 -97 -38.5t-37 -101.5v-314
q0 -62 37 -100t97 -38q61 0 98 38z" />
    <glyph glyph-name="P" unicode="P" horiz-adv-x="517" 
d="M432.5 647.5q49.5 -53.5 49.5 -141.5q0 -87 -49.5 -139.5t-129.5 -52.5h-149q-4 0 -4 -4v-300q0 -10 -10 -10h-51q-10 0 -10 10v681q0 10 10 10h214q80 0 129.5 -53.5zM379 409q32 36 32 96q0 61 -32 97.5t-85 36.5h-140q-4 0 -4 -4v-258q0 -4 4 -4h140q53 0 85 36z" />
    <glyph glyph-name="Q" unicode="Q" horiz-adv-x="510" 
d="M398.5 652.5q54.5 -55.5 54.5 -146.5v-314q0 -79 -42.5 -132t-115.5 -64q-4 -1 -4 -5v-96q0 -10 -10 -10h-52q-10 0 -10 10v96q0 4 -4 5q-72 11 -115 64t-43 132v314q0 60 25 106t70 71t103 25q89 0 143.5 -55.5zM382 511q0 60 -35 97.5t-92 37.5t-92 -37.5t-35 -97.5
v-322q0 -60 35 -97.5t92 -37.5t92 37.5t35 97.5v322z" />
    <glyph glyph-name="R" unicode="R" horiz-adv-x="528" 
d="M415 8l-125 311q-1 3 -4 3h-128q-4 0 -4 -4v-308q0 -10 -10 -10h-51q-10 0 -10 10v681q0 10 10 10h212q80 0 129 -53t49 -139q0 -69 -33.5 -117t-90.5 -63q-4 -2 -2 -5l130 -312l1 -4q0 -8 -9 -8h-53q-8 0 -11 8zM154 635v-252q0 -4 4 -4h138q52 0 84 35.5t32 93.5
q0 59 -32 95t-84 36h-138q-4 0 -4 -4z" />
    <glyph glyph-name="S" unicode="S" horiz-adv-x="506" 
d="M109.5 41.5q-55.5 49.5 -55.5 132.5v28q0 10 10 10h49q10 0 10 -10v-24q0 -56 37.5 -90t99.5 -34q59 0 93 32t34 84q0 34 -16 59t-46.5 46t-88.5 53q-62 33 -97.5 58t-58 61t-22.5 88q0 81 52 127t139 46q93 0 148 -51t55 -135v-23q0 -10 -10 -10h-50q-10 0 -10 10v22
q0 56 -36 90.5t-98 34.5q-56 0 -88 -29t-32 -82q0 -34 15 -57t43.5 -42t87.5 -51q68 -38 104.5 -64.5t58 -61t21.5 -84.5q0 -83 -54.5 -133t-146.5 -50t-147.5 49.5z" />
    <glyph glyph-name="T" unicode="T" horiz-adv-x="496" 
d="M457 690v-42q0 -10 -10 -10h-163q-4 0 -4 -4v-624q0 -10 -10 -10h-51q-10 0 -10 10v624q0 4 -4 4h-157q-10 0 -10 10v42q0 10 10 10h399q10 0 10 -10z" />
    <glyph glyph-name="U" unicode="U" horiz-adv-x="562" 
d="M173.5 18q-46.5 26 -72 73t-25.5 109v490q0 10 10 10h51q10 0 10 -10v-494q0 -64 37 -103t97 -39t97 39t37 103v494q0 10 10 10h51q10 0 10 -10v-490q0 -62 -25.5 -109t-72 -73t-107.5 -26t-107.5 26z" />
    <glyph glyph-name="V" unicode="V" horiz-adv-x="514" 
d="M218 9l-182 680l-1 3q0 8 10 8h54q10 0 11 -9l146 -572q1 -2 2 -2t2 2l146 572q2 9 11 9h52q5 0 7.5 -3t1.5 -8l-182 -680q-2 -9 -11 -9h-56q-9 0 -11 9z" />
    <glyph glyph-name="W" unicode="W" horiz-adv-x="748" 
d="M189 9l-161 680l-1 4q0 7 9 7h54q9 0 11 -9l122 -537q1 -3 2.5 -3t2.5 3l110 537q2 9 11 9h50q10 0 11 -9l116 -537q1 -3 2 -3t2 3l119 537q2 9 11 9h52q10 0 8 -11l-156 -680q-2 -9 -11 -9h-51q-9 0 -11 9l-115 545q-1 3 -2 3t-2 -3l-112 -545q-1 -9 -11 -9h-49
q-9 0 -11 9z" />
    <glyph glyph-name="X" unicode="X" horiz-adv-x="511" 
d="M39 3.5q-2 3.5 0 8.5l176 335q2 3 0 6l-176 335q-1 2 -1 5q0 7 8 7h55q9 0 12 -7l140 -277q1 -2 3 -2t3 2l140 277q3 7 12 7h55q5 0 7 -3.5t0 -8.5l-177 -336q-1 -3 0 -6l177 -334q1 -2 1 -5q0 -7 -8 -7h-55q-9 0 -12 7l-140 276q-1 2 -3 2t-3 -2l-140 -276q-3 -7 -12 -7
h-55q-5 0 -7 3.5z" />
    <glyph glyph-name="Y" unicode="Y" horiz-adv-x="496" 
d="M212 11v298q0 4 -1 5l-173 374l-1 4q0 8 9 8h54q8 0 11 -8l134 -299q1 -2 3 -2t3 2l134 299q3 8 11 8h54q5 0 7.5 -3.5t0.5 -8.5l-174 -374q-1 -1 -1 -5v-298q0 -10 -10 -10h-51q-10 0 -10 10z" />
    <glyph glyph-name="Z" unicode="Z" horiz-adv-x="472" 
d="M39 10v47q0 6 3 13l304 563q2 5 -2 5h-295q-10 0 -10 10v42q0 10 10 10h367q10 0 10 -10v-47q0 -5 -3 -13l-304 -563q-2 -5 2 -5h295q10 0 10 -10v-42q0 -10 -10 -10h-367q-10 0 -10 10z" />
    <glyph glyph-name="bracketleft" unicode="[" horiz-adv-x="341" 
d="M29 -111v875q0 10 10 10h174q10 0 10 -10v-42q0 -10 -10 -10h-109q-4 0 -4 -4v-763q0 -4 4 -4h110q10 0 10 -10v-42q0 -10 -10 -10h-175q-10 0 -10 10z" />
    <glyph glyph-name="backslash" unicode="\" horiz-adv-x="329" 
d="M301 8q0 -8 -10 -8h-50q-8 0 -11 8l-201 681l-1 3q0 8 10 8h49q8 0 11 -8l202 -681z" />
    <glyph glyph-name="bracketright" unicode="]" horiz-adv-x="341" 
d="M302 -121h-175q-10 0 -10 10v42q0 10 10 10h110q4 0 4 4v763q0 4 -4 4h-109q-10 0 -10 10v42q0 10 10 10h174q10 0 10 -10v-875q0 -10 -10 -10z" />
    <glyph glyph-name="asciicircum" unicode="^" horiz-adv-x="423" 
d="M40 318l137 374q3 8 12 8h45q8 0 11 -8l139 -373l1 -4q0 -8 -9 -8h-42q-9 0 -12 8l-107 306q-1 2 -3 2t-3 -2l-108 -306q-3 -8 -12 -8h-41q-11 0 -8 11z" />
    <glyph glyph-name="underscore" unicode="_" horiz-adv-x="430" 
d="M26 10v37q0 10 10 10h359q10 0 10 -10v-37q0 -10 -10 -10h-359q-10 0 -10 10z" />
    <glyph glyph-name="grave" unicode="`" horiz-adv-x="193" 
d="M163 583q0 -6 -9 -6h-39q-7 0 -12 7l-69 109q-2 4 -2 6q0 6 8 6h48q7 0 12 -7l61 -109q2 -4 2 -6z" />
    <glyph glyph-name="a" unicode="a" horiz-adv-x="461" 
d="M357 468q46 -46 46 -122v-336q0 -10 -10 -10h-51q-10 0 -10 10v36q0 2 -1.5 3t-3.5 -1q-23 -28 -57.5 -42t-76.5 -14q-63 0 -107 34t-44 111q0 80 52 121.5t141 41.5h93q4 0 4 4v38q0 51 -26 80.5t-75 29.5q-39 0 -65.5 -19.5t-30.5 -51.5q-1 -9 -11 -9l-55 3
q-5 0 -7.5 3t-1.5 7q7 58 54 93.5t117 35.5q80 0 126 -46zM295.5 81.5q36.5 27.5 36.5 76.5v81q0 4 -4 4h-89q-56 0 -90.5 -26.5t-34.5 -75.5q0 -44 26.5 -65.5t68.5 -21.5q50 0 86.5 27.5z" />
    <glyph glyph-name="b" unicode="b" horiz-adv-x="482" 
d="M427 252q0 -74 -8 -116q-14 -70 -53.5 -107t-101.5 -37q-79 0 -117 58q-1 3 -3 2.5t-2 -3.5v-39q0 -10 -10 -10h-51q-10 0 -10 10v680q0 10 10 10h51q10 0 10 -10v-233q0 -3 1.5 -3t3.5 2q34 58 114 58q66 0 106.5 -38t52.5 -108q7 -41 7 -116zM356 253q0 72 -11 115
q-9 38 -35 61t-65 23t-63 -23t-31 -63q-9 -39 -9 -113q0 -72 8 -112t32.5 -63.5t63.5 -23.5q41 0 67 23.5t34 64.5q9 39 9 111z" />
    <glyph glyph-name="c" unicode="c" horiz-adv-x="461" 
d="M120 31.5q-47 39.5 -57 106.5q-6 51 -6 116q0 51 6 115q9 65 57 105t119 40t119.5 -38t56.5 -95l3 -21v-2q0 -4 -2.5 -6.5t-6.5 -2.5l-51 -3q-9 0 -11 9q0 9 -1 12q-5 35 -34.5 60t-72.5 25q-44 0 -72.5 -27t-33.5 -70t-5 -102q0 -60 5 -103q5 -44 33.5 -70t72.5 -26
t73.5 25t33.5 61l1 8q2 11 11 9l50 -4q9 -2 9 -9v-4q0 -4 -2 -12q-7 -59 -55.5 -97.5t-120.5 -38.5t-119 39.5z" />
    <glyph glyph-name="d" unicode="d" horiz-adv-x="482" 
d="M350 700h51q10 0 10 -10v-680q0 -10 -10 -10h-51q-10 0 -10 10v39q0 3 -2 3.5t-3 -2.5q-38 -58 -117 -58q-62 0 -101.5 37t-53.5 107q-8 42 -8 116q0 75 7 116q12 70 52.5 108t106.5 38q80 0 114 -58q2 -2 3.5 -2t1.5 3v233q0 10 10 10zM340 253q0 74 -9 113
q-7 40 -31 63t-63 23t-65 -23t-35 -61q-11 -43 -11 -115t9 -111q8 -41 34 -64.5t67 -23.5q39 0 63.5 23.5t32.5 63.5t8 112z" />
    <glyph glyph-name="e" unicode="e" horiz-adv-x="471" 
d="M309 74q28 20 40 53q3 10 12 7l41 -11q10 -3 7 -12q-15 -54 -60 -86.5t-110 -32.5q-70 0 -115.5 37.5t-56.5 101.5q-9 46 -9 123q0 79 4 112q8 67 55.5 107.5t119.5 40.5q79 0 125 -44t53 -118q4 -47 4 -114q0 -10 -10 -10h-277q-4 0 -4 -4q0 -43 3 -73q5 -44 35.5 -70.5
t75.5 -26.5q39 0 67 20zM165 426q-28 -26 -33 -69q-2 -21 -4 -68q0 -4 4 -4h212q4 0 4 4q-2 48 -4 66q-5 43 -34 70t-73 27t-72 -26z" />
    <glyph glyph-name="f" unicode="f" horiz-adv-x="316" 
d="M187 617q-18 -25 -18 -82v-25q0 -4 4 -4h94q10 0 10 -10v-39q0 -10 -10 -10h-94q-4 0 -4 -4v-433q0 -10 -10 -10h-51q-10 0 -10 10v433q0 4 -4 4h-53q-10 0 -10 10v39q0 10 10 10h53q4 0 4 4v28q0 89 33.5 127t116.5 38h21q10 0 10 -10v-41q0 -10 -10 -10h-18
q-46 0 -64 -25z" />
    <glyph glyph-name="g" unicode="g" horiz-adv-x="474" 
d="M352 506h51q10 0 10 -10v-482q0 -226 -247 -215q-10 1 -10 11l1 45q0 5 3 7.5t7 1.5q94 -3 134.5 34.5t40.5 119.5v33q0 2 -1.5 3t-3.5 -1q-39 -56 -116 -56q-64 0 -107 38.5t-53 104.5q-6 44 -6 113q0 75 7 118q8 65 50.5 104t106.5 39q78 0 118 -55q2 -2 3.5 -1.5
t1.5 2.5v36q0 10 10 10zM342 254q0 60 -3 102q-4 42 -31.5 69t-70.5 27t-71.5 -27t-34.5 -69q-4 -36 -4 -102q0 -50 4 -100q5 -42 34 -69t72 -27t70.5 27t31.5 69q3 39 3 100z" />
    <glyph glyph-name="h" unicode="h" horiz-adv-x="482" 
d="M375.5 468.5q40.5 -44.5 40.5 -121.5v-337q0 -10 -10 -10h-51q-10 0 -10 10v327q0 52 -27 83t-73 31q-47 0 -75.5 -31.5t-28.5 -84.5v-325q0 -10 -10 -10h-51q-10 0 -10 10v680q0 10 10 10h51q10 0 10 -10v-231q0 -2 1.5 -3t3.5 1q20 28 50.5 42t68.5 14
q70 0 110.5 -44.5z" />
    <glyph glyph-name="i" unicode="i" horiz-adv-x="224" 
d="M74.5 611.5q-14.5 14.5 -14.5 37.5q0 22 14.5 36.5t37.5 14.5t37 -14t14 -37t-14 -37.5t-37 -14.5t-37.5 14.5zM77 10v486q0 10 10 10h51q10 0 10 -10v-486q0 -10 -10 -10h-51q-10 0 -10 10z" />
    <glyph glyph-name="j" unicode="j" horiz-adv-x="213" 
d="M70.5 610.5q-14.5 14.5 -14.5 37.5t15 37.5t36 14.5q22 0 37.5 -14.5t15.5 -37.5t-15 -37.5t-38 -14.5q-22 0 -36.5 14.5zM-32 -198v42q0 10 10 10q47 1 70.5 27t23.5 75v540q0 10 10 10h51q10 0 10 -10v-540q0 -84 -37.5 -124t-127.5 -40q-10 0 -10 10z" />
    <glyph glyph-name="k" unicode="k" horiz-adv-x="453" 
d="M70 10v680q0 10 10 10h51q10 0 10 -10v-406q0 -2 2 -3t3 1l181 218q5 6 12 6h57q6 0 8 -3.5t-2 -8.5l-114 -142q-2 -3 -1 -5l135 -335l1 -4q0 -8 -9 -8h-53q-8 0 -11 8l-109 286q-1 2 -3 2.5t-3 -1.5l-92 -111q-2 -4 -2 -5v-169q0 -10 -10 -10h-51q-10 0 -10 10z" />
    <glyph glyph-name="l" unicode="l" horiz-adv-x="207" 
d="M68 10v680q0 10 10 10h51q10 0 10 -10v-680q0 -10 -10 -10h-51q-10 0 -10 10z" />
    <glyph glyph-name="m" unicode="m" horiz-adv-x="737" 
d="M634.5 468.5q38.5 -44.5 38.5 -122.5v-336q0 -10 -10 -10h-50q-10 0 -10 10v326q0 53 -26.5 84t-69.5 31q-45 0 -72.5 -30.5t-27.5 -82.5v-328q0 -10 -10 -10h-51q-10 0 -10 10v326q0 53 -26.5 84t-69.5 31q-45 0 -72 -30.5t-27 -82.5v-328q0 -10 -10 -10h-51
q-10 0 -10 10v486q0 10 10 10h51q10 0 10 -10v-35q0 -2 1.5 -2.5t3.5 1.5q20 27 51 40t66 13q44 0 77 -20t50 -56q2 -5 5 0q20 39 55.5 57.5t78.5 18.5q67 0 105.5 -44.5z" />
    <glyph glyph-name="n" unicode="n" horiz-adv-x="482" 
d="M375.5 468.5q40.5 -44.5 40.5 -121.5v-337q0 -10 -10 -10h-51q-10 0 -10 10v327q0 52 -27 83t-73 31q-47 0 -75.5 -31.5t-28.5 -84.5v-325q0 -10 -10 -10h-51q-10 0 -10 10v486q0 10 10 10h51q10 0 10 -10v-37q0 -2 1.5 -3t3.5 1q20 28 50.5 42t68.5 14q70 0 110.5 -44.5
z" />
    <glyph glyph-name="o" unicode="o" horiz-adv-x="480" 
d="M121 31.5q-47 39.5 -57 106.5q-7 46 -7 116q0 69 7 114q9 67 56.5 106.5t120.5 39.5q71 0 118.5 -39.5t56.5 -105.5q7 -48 7 -115q0 -68 -7 -116q-10 -67 -57 -106.5t-119 -39.5t-119 39.5zM312.5 80.5q29.5 26.5 35.5 70.5q4 39 4 102q0 65 -4 102q-6 44 -35.5 70.5
t-72.5 26.5t-72.5 -26.5t-35.5 -70.5q-4 -37 -4 -102t4 -102q6 -44 35.5 -70.5t72.5 -26.5t72.5 26.5z" />
    <glyph glyph-name="p" unicode="p" horiz-adv-x="488" 
d="M433 254q0 -75 -7 -116q-12 -70 -52.5 -108t-106.5 -38q-80 0 -114 58q-2 2 -3.5 2t-1.5 -3v-233q0 -10 -10 -10h-51q-10 0 -10 10v680q0 10 10 10h51q10 0 10 -10v-39q0 -3 2 -3.5t3 2.5q38 58 117 58q62 0 101.5 -37t53.5 -107q8 -42 8 -116zM362 253q0 72 -9 111
q-8 41 -34 64.5t-67 23.5q-39 0 -63.5 -23.5t-32.5 -63.5t-8 -112q0 -74 9 -113q7 -40 31 -63t63 -23t65 23t35 61q11 43 11 115z" />
    <glyph glyph-name="q" unicode="q" horiz-adv-x="488" 
d="M350 506h51q10 0 10 -10v-680q0 -10 -10 -10h-51q-10 0 -10 10v233q0 3 -1.5 3t-3.5 -2q-34 -58 -114 -58q-66 0 -106.5 38t-52.5 108q-7 41 -7 116q0 74 8 116q14 70 53.5 107t101.5 37q79 0 117 -58q1 -3 3 -2.5t2 3.5v39q0 10 10 10zM340 253q0 72 -8 112t-32.5 63.5
t-63.5 23.5q-41 0 -67 -23.5t-34 -64.5q-9 -39 -9 -111t11 -115q9 -38 35 -61t65 -23t63 23t31 63q9 39 9 113z" />
    <glyph glyph-name="r" unicode="r" horiz-adv-x="328" 
d="M309 499q7 -3 5 -12l-12 -51q-3 -9 -13 -6q-12 6 -32 6q-10 0 -15 -1q-44 -2 -72.5 -38t-28.5 -89v-298q0 -10 -10 -10h-51q-10 0 -10 10v486q0 10 10 10h51q10 0 10 -10v-63q0 -3 1.5 -3t2.5 2q17 37 45.5 58t67.5 21q29 0 51 -12z" />
    <glyph glyph-name="s" unicode="s" horiz-adv-x="428" 
d="M96 32q-47 37 -47 95v9q0 10 10 10h48q10 0 10 -8v-9q0 -32 29 -55.5t74 -23.5q44 0 70.5 23t26.5 58q0 25 -15 42t-37 27t-61 23q-47 16 -78 32t-52.5 44.5t-21.5 72.5q0 64 45.5 101.5t119.5 37.5q76 0 121.5 -39t45.5 -100v-2q0 -10 -10 -10h-47q-10 0 -10 7v7
q0 34 -27.5 56.5t-72.5 22.5q-44 0 -70 -21.5t-26 -55.5q0 -35 26.5 -53t83.5 -38q48 -16 80 -32t54.5 -44.5t22.5 -73.5q0 -64 -45.5 -102t-122.5 -38t-124 37z" />
    <glyph glyph-name="t" unicode="t" horiz-adv-x="315" 
d="M263 450h-95q-4 0 -4 -4v-299q0 -47 18.5 -65.5t59.5 -18.5h17q10 0 10 -10v-42q0 -10 -10 -10l-31 -1q-65 0 -99 26.5t-34 98.5v321q0 4 -4 4h-50q-10 0 -10 10v36q0 10 10 10h50q4 0 4 4v114q0 10 10 10h49q10 0 10 -10v-114q0 -4 4 -4h95q10 0 10 -10v-36
q0 -10 -10 -10z" />
    <glyph glyph-name="u" unicode="u" horiz-adv-x="480" 
d="M349 506h51q10 0 10 -10v-486q0 -10 -10 -10h-51q-10 0 -10 10v39q0 3 -1.5 3t-3.5 -2q-35 -57 -116 -57q-68 0 -111 40t-43 116v347q0 10 10 10h51q10 0 10 -10v-329q0 -53 26 -82.5t73 -29.5q49 0 77 31.5t28 84.5v325q0 10 10 10z" />
    <glyph glyph-name="v" unicode="v" horiz-adv-x="427" 
d="M174 8l-145 487l-1 3q0 8 10 8h56q9 0 11 -9l106 -391q1 -2 2.5 -2t2.5 2l106 391q2 9 11 9l57 -1q5 0 7.5 -3t1.5 -8l-145 -486q-3 -8 -11 -8h-58q-8 0 -11 8z" />
    <glyph glyph-name="w" unicode="w" horiz-adv-x="638" 
d="M152 9l-123 486l-1 4q0 7 9 7h50q9 0 11 -9l90 -392q1 -3 2 -3t2 3l91 392q2 9 11 9h46q9 0 11 -9l93 -393q1 -3 2 -3t2 3l92 393q2 9 11 9l50 -1q5 0 7.5 -3t0.5 -8l-125 -485q-1 -9 -11 -9h-52q-9 0 -11 9l-91 370q-1 3 -2.5 3t-2.5 -3l-88 -370q-2 -9 -11 -9h-52
q-9 0 -11 9z" />
    <glyph glyph-name="x" unicode="x" horiz-adv-x="426" 
d="M25 3.5q-2 3.5 1 8.5l144 238q2 3 0 6l-144 238q-2 4 -2 6q0 6 9 6h56q7 0 12 -7l109 -183q1 -1 3 -1t3 1l108 183q5 7 12 7h57q6 0 8 -3.5t-1 -8.5l-144 -238q-1 -3 0 -6l144 -238q2 -4 2 -6q0 -6 -9 -6h-55q-7 0 -12 7l-109 184q-1 2 -3 2t-3 -2l-109 -184
q-5 -7 -12 -7h-57q-6 0 -8 3.5z" />
    <glyph glyph-name="y" unicode="y" horiz-adv-x="414" 
d="M44 -190v41q0 10 6 10h6q35 0 54.5 11t32.5 39t28 86q1 1 0.5 3.5l-0.5 2.5l-149 492l-1 3q0 8 10 8h54q9 0 11 -8l109 -396q1 -2 2.5 -2t2.5 2l108 395q2 9 11 9h54q5 0 7.5 -3t1.5 -8l-163 -539q-20 -67 -39.5 -99t-49 -44.5t-83.5 -12.5h-6q-7 0 -7 10z" />
    <glyph glyph-name="z" unicode="z" horiz-adv-x="403" 
d="M33 10v48q0 8 4 13l245 365q1 1 0 3t-3 2h-232q-10 0 -10 10v45q0 10 10 10h311q10 0 10 -10v-48q0 -8 -4 -13l-247 -365q-1 -1 0 -3t3 -2h239q10 0 10 -10v-45q0 -10 -10 -10h-316q-10 0 -10 10z" />
    <glyph glyph-name="braceleft" unicode="{" horiz-adv-x="288" 
d="M114.5 -93q-24.5 28 -24.5 86v217q0 42 -12.5 64t-39.5 26q-9 2 -9 10v40q0 9 9 10q27 4 39.5 26t12.5 63v212q0 58 24.5 85.5t76.5 27.5h58q10 0 10 -10v-42q0 -10 -10 -10h-32q-56 0 -56 -74v-194q0 -46 -11.5 -72.5t-37.5 -39.5q-5 -2 0 -5q26 -13 37.5 -39.5
t11.5 -72.5v-199q0 -75 56 -75h32q10 0 10 -10v-42q0 -10 -10 -10h-58q-52 0 -76.5 28z" />
    <glyph glyph-name="bar" unicode="|" horiz-adv-x="155" 
d="M42 -70v820q0 10 10 10h51q10 0 10 -10v-820q0 -10 -10 -10h-51q-10 0 -10 10z" />
    <glyph glyph-name="braceright" unicode="}" horiz-adv-x="288" 
d="M39 -121q-10 0 -10 10v42q0 10 10 10h32q56 0 56 75v199q0 46 11.5 72.5t37.5 39.5q5 3 0 5q-26 13 -37.5 39.5t-11.5 72.5v194q0 74 -56 74h-32q-10 0 -10 10v42q0 10 10 10h58q52 0 76.5 -27.5t24.5 -85.5v-212q0 -41 12.5 -63t39.5 -26q9 -1 9 -10v-40q0 -8 -9 -10
q-27 -4 -39.5 -26t-12.5 -64v-217q0 -58 -24.5 -86t-76.5 -28h-58z" />
    <glyph glyph-name="asciitilde" unicode="~" horiz-adv-x="481" 
d="M283 240q-21 8 -50 25q-21 12 -38 19t-37 7q-45 0 -73 -38l-2 -4q-2 -3 -5.5 -3.5t-6.5 1.5l-27 18q-8 6 -5 13q15 34 46 55t69 21q25 0 44.5 -7t39.5 -19q29 -17 47.5 -25t43.5 -8q20 0 34 10t30 29q6 8 14 3l30 -20q8 -6 4 -13q-43 -72 -109 -72q-28 0 -49 8z" />
    <glyph glyph-name="uni00A0" unicode="&#xa0;" horiz-adv-x="200" 
 />
    <glyph glyph-name="exclamdown" unicode="&#xa1;" horiz-adv-x="289" 
d="M184 691q17 -17 17 -42q0 -24 -17.5 -41.5t-41.5 -17.5q-23 0 -40.5 17.5t-17.5 41.5q0 25 16.5 42t41.5 17t42 -17zM125 484h39q10 0 10 -10l6 -452q0 -10 -10 -10h-51q-10 0 -10 10l6 452q0 10 10 10z" />
    <glyph glyph-name="cent" unicode="&#xa2;" horiz-adv-x="461" 
d="M347 238q2 11 11 9l50 -4q9 -2 9 -9v-4q0 -4 -2 -12q-6 -53 -46.5 -90t-102.5 -45q-4 0 -4 -4l2 -68q0 -10 -10 -10h-42q-10 0 -10 10l2 70q0 4 -4 5q-57 10 -93 47.5t-44 94.5q-6 51 -6 116q0 51 6 115q8 56 44.5 93.5t92.5 47.5q4 1 4 5l-2 70q0 10 10 10h42
q10 0 10 -10l-2 -68q0 -4 4 -4q61 -8 101 -44t48 -88l3 -21v-2q0 -4 -2.5 -6.5t-6.5 -2.5l-51 -3q-9 0 -11 9q0 9 -1 12q-5 35 -34.5 60t-72.5 25q-44 0 -72.5 -27t-33.5 -70t-5 -102q0 -60 5 -103q5 -44 33.5 -70t72.5 -26t73.5 25t33.5 61z" />
    <glyph glyph-name="sterling" unicode="&#xa3;" horiz-adv-x="555" 
d="M195 63.5q1 -1.5 3 -1.5h313q10 0 10 -10v-42q0 -10 -10 -10h-389q-10 0 -10 10v44q0 8 7 12q21 16 33 47.5t12 73.5v117q0 4 -4 4h-67q-10 0 -10 10v39q0 10 10 10h67q4 0 4 4v141q0 92 49.5 144t134.5 52q63 0 104.5 -34t58.5 -100l1 -4q0 -6 -8 -8l-48 -8h-3
q-6 0 -9 7q-23 85 -97 85q-54 0 -83.5 -34t-29.5 -98v-143q0 -4 4 -4h168q10 0 10 -10v-39q0 -10 -10 -10h-168q-4 0 -4 -4v-115q0 -39 -10.5 -71t-28.5 -51q-1 -2 0 -3.5z" />
    <glyph glyph-name="currency" unicode="&#xa4;" horiz-adv-x="516" 
d="M417 188q-2 -3 1 -6l65 -64q3 -3 3 -6q0 -4 -4 -8l-31 -28q-3 -3 -6 -3q-4 0 -8 4l-63 62q-3 3 -6 1q-50 -36 -114 -36q-60 0 -109 33q-3 2 -6 -1l-59 -59q-3 -3 -7 -3.5t-7 2.5l-32 28q-7 8 -1 14l61 60q3 3 1 6q-40 53 -40 117q0 65 37 114q2 3 -1 6l-65 64q-3 3 -3 6
q0 4 4 8l32 28q3 3 6 3q4 0 8 -4l62 -62q3 -3 6 -1q50 36 113 36q67 0 118 -39q3 -2 6 1l65 65q3 3 7 3.5t7 -2.5l32 -28q8 -7 1 -14l-69 -68q-3 -3 -1 -6q33 -49 33 -110q0 -63 -36 -113zM136.5 233q18.5 -31 50 -49.5t67.5 -18.5q37 0 68.5 18.5t50 49.5t18.5 68
t-18.5 68.5t-50 50t-68.5 18.5q-36 0 -67.5 -18.5t-50 -50t-18.5 -68.5t18.5 -68z" />
    <glyph glyph-name="yen" unicode="&#xa5;" horiz-adv-x="606" 
d="M511.5 696.5q2.5 -3.5 0.5 -8.5l-160 -343q-1 -2 0 -3.5t3 -1.5h121q10 0 10 -10v-24q0 -10 -10 -10h-135q-4 0 -4 -4v-74q0 -4 4 -4h135q10 0 10 -10v-24q0 -10 -10 -10h-135q-4 0 -4 -4v-155q0 -10 -10 -10h-51q-10 0 -10 10v155q0 4 -4 4h-134q-10 0 -10 10v24
q0 10 10 10h134q4 0 4 4v74q0 4 -4 4h-134q-10 0 -10 10v24q0 10 10 10h120q2 0 3 1.5t0 3.5l-159 343l-1 4q0 8 9 8h54q8 0 11 -8l134 -299q1 -2 3 -2t3 2l134 299q3 8 11 8h54q5 0 7.5 -3.5z" />
    <glyph glyph-name="brokenbar" unicode="&#xa6;" horiz-adv-x="155" 
d="M42 401v349q0 10 10 10h51q10 0 10 -10v-349q0 -10 -10 -10h-51q-10 0 -10 10zM42 -70v345q0 10 10 10h51q10 0 10 -10v-345q0 -10 -10 -10h-51q-10 0 -10 10z" />
    <glyph glyph-name="section" unicode="&#xa7;" horiz-adv-x="427" 
d="M104.5 -163q-41.5 44 -42.5 117v18q0 10 10 10h51q10 0 10 -10v-12q0 -47 23 -76t61 -29t62 28.5t24 71.5q0 35 -17.5 58t-41 35.5t-60.5 26.5q-42 16 -68.5 34.5t-42.5 49.5q-19 39 -19 86q0 52 26 95q25 42 71 57q5 2 0 5q-41 20 -66.5 58.5t-25.5 89.5q0 44 20 80
t56 57t82 21q68 0 110.5 -44.5t43.5 -115.5v-14q0 -10 -10 -10h-51q-10 0 -10 10v10q0 45 -23.5 73.5t-60.5 28.5q-38 0 -62 -29.5t-24 -72.5q0 -46 28.5 -72.5t84.5 -47.5q38 -15 62.5 -29t43.5 -40q30 -38 30 -100q0 -54 -22 -96q-26 -49 -72 -61q-2 0 -2 -1.5t2 -2.5
q41 -21 65 -57t24 -87q0 -69 -44 -113t-114 -44t-111.5 44zM294 184q15 30 15 66q0 43 -21 72q-13 17 -31.5 26.5t-40.5 9.5q-25 0 -45.5 -14t-31.5 -35q-13 -27 -13 -63q0 -38 14 -63q24 -44 76 -44q54 0 78 45z" />
    <glyph glyph-name="dieresis" unicode="&#xa8;" horiz-adv-x="292" 
d="M39 610q-13 13 -13 34q0 20 13 33t33 13q19 0 32 -13t13 -33q0 -21 -12.5 -34t-32.5 -13t-33 13zM189 610q-13 13 -13 34q0 20 13 33t33 13q19 0 32 -13t13 -33q0 -21 -12.5 -34t-32.5 -13t-33 13z" />
    <glyph glyph-name="copyright" unicode="&#xa9;" horiz-adv-x="852" 
d="M240.5 39q-82.5 47 -129.5 129t-47 182t47 182t129.5 129t184.5 47q103 0 186 -47t130 -129t47 -182t-47 -182t-130 -129t-186 -47q-102 0 -184.5 47zM587 77q72 41 113.5 113t41.5 160t-41.5 160t-113.5 113t-162 41t-162 -41t-113 -113t-41 -160t41 -160t113 -113
t162 -41t162 41zM355 201q-27 25 -27 67v162q0 41 27 66t71 25q45 0 72 -24.5t27 -65.5v-3q0 -10 -10 -10h-23q-4 0 -7 2.5t-3 5.5v7q0 22 -15.5 36t-40.5 14t-39.5 -13.5t-14.5 -36.5v-169q0 -23 14.5 -36.5t39.5 -13.5t40.5 14t15.5 36v6q0 10 10 10l23 -1q10 0 10 -6v-7
q0 -40 -27.5 -65t-71.5 -25t-71 25z" />
    <glyph glyph-name="ordfeminine" unicode="&#xaa;" horiz-adv-x="299" 
d="M208 563q4 0 4 4v26q0 34 -17.5 54t-50.5 20q-23 0 -41 -12t-23 -32q-2 -10 -11 -8l-28 2q-4 0 -7 3t-2 8q6 36 37 58t76 22q53 0 84 -30t31 -80v-219q0 -10 -10 -10h-28q-10 0 -10 10v17q0 2 -1.5 3t-3.5 -1q-28 -34 -83 -34q-43 0 -72.5 22t-29.5 72q0 52 34 78.5
t93 26.5h59zM188.5 421q23.5 18 23.5 51v48q0 4 -4 4h-57q-37 0 -59 -16.5t-22 -47.5q0 -29 17 -43t45 -14q33 0 56.5 18zM31 308h228q10 0 10 -10v-29q0 -10 -10 -10h-228q-10 0 -10 10v29q0 10 10 10z" />
    <glyph glyph-name="guillemotleft" unicode="&#xab;" horiz-adv-x="506" 
d="M263 113q0 -2 -2 -4t-6 -2h-46q-9 0 -13 6l-117 161q-4 7 0 14l117 161q4 6 13 6h46q6 0 8 -3.5t-2 -8.5l-116 -159q-1 -3 0 -6l116 -159q2 -2 2 -6zM417 113q0 -2 -2 -4t-6 -2h-46q-9 0 -13 6l-117 161q-4 7 0 14l117 161q4 6 13 6h46q6 0 8 -3.5t-2 -8.5l-116 -159
q-1 -3 0 -6l116 -159q2 -2 2 -6z" />
    <glyph glyph-name="logicalnot" unicode="&#xac;" horiz-adv-x="471" 
d="M46 344h379q10 0 10 -10v-155q0 -10 -10 -10h-40q-10 0 -10 10v103q0 4 -4 4h-325q-10 0 -10 10v38q0 10 10 10z" />
    <glyph glyph-name="uni00AD" unicode="&#xad;" horiz-adv-x="354" 
d="M36 290v42q0 10 10 10h262q10 0 10 -10v-42q0 -10 -10 -10h-262q-10 0 -10 10z" />
    <glyph glyph-name="registered" unicode="&#xae;" horiz-adv-x="444" 
d="M321 688q45 -26 71.5 -70.5t26.5 -97.5q0 -54 -26 -99t-71.5 -71t-99.5 -26t-99 26t-71 71t-26 99q0 53 26 97.5t71 70.5t99 26t99 -26zM303 380.5q37 21.5 58.5 58.5t21.5 81q0 43 -21.5 79.5t-58.5 58t-81 21.5t-81 -21.5t-58 -58t-21 -79.5q0 -44 21 -81t58 -58.5
t81 -21.5t81 21.5zM279 526.5q-7 -12.5 -20 -17.5q-3 -2 -2 -6l26 -62l1 -4q0 -8 -9 -8h-13q-8 0 -11 8l-26 64q-1 3 -4 3h-15q-4 0 -4 -4v-61q0 -10 -10 -10h-11q-10 0 -10 10v159q0 10 10 10h52q24 0 38.5 -15t14.5 -38q0 -16 -7 -28.5zM202 577v-45q0 -4 4 -4h23
q11 0 18.5 7.5t7.5 18.5q0 13 -7 20t-19 7h-23q-4 0 -4 -4z" />
    <glyph glyph-name="macron" unicode="&#xaf;" horiz-adv-x="380" 
d="M72 605v31q0 10 10 10h215q10 0 10 -10v-31q0 -10 -10 -10h-215q-10 0 -10 10z" />
    <glyph glyph-name="degree" unicode="&#xb0;" horiz-adv-x="370" 
d="M104.5 509q-36.5 21 -57.5 58t-21 81t21 81t57.5 58t80.5 21t80.5 -21t57.5 -58t21 -81t-21 -81t-57.5 -58t-80.5 -21t-80.5 21zM261.5 570.5q31.5 31.5 31.5 77.5t-31.5 78t-76.5 32q-46 0 -77.5 -32t-31.5 -78t31.5 -77.5t77.5 -31.5q45 0 76.5 31.5z" />
    <glyph glyph-name="plusminus" unicode="&#xb1;" horiz-adv-x="471" 
d="M435 370v-38q0 -10 -10 -10h-156q-4 0 -4 -4v-155q0 -10 -10 -10h-39q-10 0 -10 10v155q0 4 -4 4h-156q-10 0 -10 10v38q0 10 10 10h156q4 0 4 4v159q0 10 10 10h39q10 0 10 -10v-159q0 -4 4 -4h156q10 0 10 -10zM36 24v38q0 10 10 10h379q10 0 10 -10v-38q0 -10 -10 -10
h-379q-10 0 -10 10z" />
    <glyph glyph-name="uni00B2" unicode="&#xb2;" horiz-adv-x="285" 
d="M29 452v27q0 6 4 13q54 70 120 160q46 67 46 106q0 30 -17 47t-44 17q-26 0 -42.5 -17.5t-16.5 -45.5v-17q0 -10 -10 -10h-31q-10 0 -10 10v21q1 47 32 75.5t79 28.5q50 0 80.5 -29.5t30.5 -80.5q0 -50 -45 -120q-17 -25 -32.5 -46t-28.5 -40q-12 -15 -44 -60q-3 -5 2 -5
h149q10 0 10 -10v-24q0 -10 -10 -10h-212q-10 0 -10 10z" />
    <glyph glyph-name="uni00B3" unicode="&#xb3;" horiz-adv-x="293" 
d="M256 570q0 -37 -11 -65q-11 -33 -37 -51t-65 -18q-42 0 -70.5 23.5t-36.5 62.5q-3 11 -5 38q0 10 10 10h31q10 0 10 -10q0 -15 3 -26q5 -24 20 -38.5t38 -14.5q37 0 54 35q9 23 9 57q0 36 -9 58q-15 38 -54 38q-8 0 -15 -3q-2 -1 -6 -1q-5 0 -8 4l-15 16q-6 6 0 14
l89 113q2 2 1 3.5t-3 1.5h-141q-10 0 -10 10v24q0 10 10 10h198q10 0 10 -10v-27q0 -7 -4 -12l-81 -104q-2 -2 -1 -3.5t3 -1.5q27 -3 46 -20t29 -44q11 -30 11 -69z" />
    <glyph glyph-name="acute" unicode="&#xb4;" horiz-adv-x="193" 
d="M31 580.5q-2 3.5 1 8.5l61 109q5 7 12 7h48q6 0 7.5 -3.5t-1.5 -8.5l-69 -109q-5 -7 -12 -7h-39q-6 0 -8 3.5z" />
    <glyph glyph-name="uni00B5" unicode="&#xb5;" horiz-adv-x="488" 
d="M355 506h51q10 0 10 -10v-486q0 -10 -10 -10h-51q-10 0 -10 10v39q0 3 -1.5 3t-3.5 -2q-35 -57 -116 -57q-43 0 -78 18q-5 2 -5 -3v-198q0 -10 -10 -10h-51q-10 0 -10 10v686q0 10 10 10h51q10 0 10 -10v-329q0 -53 26 -82.5t73 -29.5q49 0 77 31.5t28 84.5v325
q0 10 10 10z" />
    <glyph glyph-name="paragraph" unicode="&#xb6;" horiz-adv-x="523" 
d="M432 700q10 0 10 -10v-880q0 -10 -10 -10h-37q-10 0 -10 10v830q0 4 -4 4h-104q-4 0 -4 -4v-830q0 -10 -10 -10h-38q-10 0 -10 10v436q0 4 -4 4q-51 4 -91 34.5t-62.5 80.5t-22.5 110q0 63 24.5 114.5t69 81t101.5 29.5h202z" />
    <glyph glyph-name="periodcentered" unicode="&#xb7;" horiz-adv-x="117" 
d="M8 20q-17 17 -17 42q0 24 17.5 41.5t41.5 17.5q23 0 40.5 -17.5t17.5 -41.5q0 -25 -17 -42t-41 -17q-25 0 -42 17z" />
    <glyph glyph-name="cedilla" unicode="&#xb8;" horiz-adv-x="130" 
d="M3 -170l3 22q1 5 4.5 7t7.5 1q6 -2 18 -2q36 0 42 36q1 4 1 12q0 39 -45 82q-4 3 -4 7q0 5 8 5h26q8 0 13 -4q53 -46 53 -100q0 -8 -2 -22q-7 -32 -30 -46t-54 -14q-14 0 -34 4q-8 3 -7 12z" />
    <glyph glyph-name="uni00B9" unicode="&#xb9;" horiz-adv-x="165" 
d="M83 862h34q10 0 10 -10v-400q0 -10 -10 -10h-31q-10 0 -10 10v357q0 2 -1.5 3.5t-2.5 0.5l-29 -8l-3 -1q-8 0 -8 10v18q0 9 7 12l31 15q6 3 13 3z" />
    <glyph glyph-name="ordmasculine" unicode="&#xba;" horiz-adv-x="314" 
d="M79.5 391q-30.5 26 -37.5 71q-5 26 -5 75q0 47 4 75q7 44 38 70t78 26t77.5 -26t37.5 -70q5 -37 5 -75t-5 -75q-6 -44 -37 -70.5t-78 -26.5t-77.5 26zM201.5 425q18.5 17 22.5 45q3 29 3 67t-3 66q-4 28 -22 45t-45 17t-45 -17t-22 -45q-3 -28 -3 -66t3 -67q4 -28 22 -45
t45 -17q26 0 44.5 17zM29 270v30q0 10 10 10h236q10 0 10 -10v-30q0 -10 -10 -10h-236q-10 0 -10 10z" />
    <glyph glyph-name="guillemotright" unicode="&#xbb;" horiz-adv-x="506" 
d="M90 110.5q-2 3.5 2 8.5l116 159q2 3 0 6l-116 159q-2 2 -2 6q0 2 2 4t6 2h46q9 0 13 -6l117 -161q4 -7 0 -14l-117 -161q-4 -6 -13 -6h-46q-6 0 -8 3.5zM244 110.5q-2 3.5 2 8.5l116 159q2 3 0 6l-116 159q-2 2 -2 6q0 2 2 4t6 2h46q9 0 13 -6l117 -161q4 -7 0 -14
l-117 -161q-4 -6 -13 -6h-46q-6 0 -8 3.5z" />
    <glyph glyph-name="onequarter" unicode="&#xbc;" horiz-adv-x="729" 
d="M83 700h34q10 0 10 -10v-400q0 -10 -10 -10h-31q-10 0 -10 10v357q0 2 -1.5 3.5t-2.5 0.5l-29 -8l-3 -1q-8 0 -8 10v18q0 9 7 12l31 15q6 3 13 3zM87.5 3.5q-1.5 3.5 1.5 8.5l428 681q5 7 12 7h33q6 0 7.5 -3.5t-1.5 -8.5l-428 -681q-5 -7 -12 -7h-33q-6 0 -7.5 3.5z
M706 149v-26q0 -10 -10 -10h-17q-4 0 -4 -4v-99q0 -10 -10 -10h-31q-10 0 -10 10v99q0 4 -4 4h-154q-10 0 -10 10v23q0 7 2 12l102 254q3 8 11 8h34q5 0 7 -3.5t0 -8.5l-96 -244q-1 -2 0 -3.5t3 -1.5h101q4 0 4 4v84q0 10 10 10h31q10 0 10 -10v-84q0 -4 4 -4h17
q10 0 10 -10z" />
    <glyph glyph-name="onehalf" unicode="&#xbd;" horiz-adv-x="725" 
d="M83 700h34q10 0 10 -10v-400q0 -10 -10 -10h-31q-10 0 -10 10v357q0 2 -1.5 3.5t-2.5 0.5l-29 -8l-3 -1q-8 0 -8 10v18q0 9 7 12l31 15q6 3 13 3zM87.5 3.5q-1.5 3.5 1.5 8.5l428 681q5 7 12 7h33q6 0 7.5 -3.5t-1.5 -8.5l-428 -681q-5 -7 -12 -7h-33q-6 0 -7.5 3.5z
M469 10v27q0 6 4 13q54 70 120 160q46 67 46 106q0 30 -17 47t-44 17q-26 0 -42.5 -17.5t-16.5 -45.5v-17q0 -10 -10 -10h-31q-10 0 -10 10v21q1 47 32 75.5t79 28.5q50 0 80.5 -29.5t30.5 -80.5q0 -50 -45 -120q-17 -25 -32.5 -46t-28.5 -40q-12 -15 -44 -60q-3 -5 2 -5
h149q10 0 10 -10v-24q0 -10 -10 -10h-212q-10 0 -10 10z" />
    <glyph glyph-name="threequarters" unicode="&#xbe;" horiz-adv-x="813" 
d="M256 411q0 -37 -11 -65q-11 -33 -37 -51t-65 -18q-42 0 -70.5 23.5t-36.5 62.5q-3 11 -5 38q0 10 10 10h31q10 0 10 -10q0 -15 3 -26q5 -24 20 -38.5t38 -14.5q37 0 54 35q9 23 9 57q0 36 -9 58q-15 38 -54 38q-8 0 -15 -3q-2 -1 -6 -1q-5 0 -8 4l-15 16q-6 6 0 14
l89 113q2 2 1 3.5t-3 1.5h-141q-10 0 -10 10v24q0 10 10 10h198q10 0 10 -10v-27q0 -7 -4 -12l-81 -104q-2 -2 -1 -3.5t3 -1.5q27 -3 46 -20t29 -44q11 -30 11 -69zM171.5 3.5q-1.5 3.5 1.5 8.5l428 681q5 7 12 7h33q6 0 7.5 -3.5t-1.5 -8.5l-428 -681q-5 -7 -12 -7h-33
q-6 0 -7.5 3.5zM790 149v-26q0 -10 -10 -10h-17q-4 0 -4 -4v-99q0 -10 -10 -10h-31q-10 0 -10 10v99q0 4 -4 4h-154q-10 0 -10 10v23q0 7 2 12l102 254q3 8 11 8h34q5 0 7 -3.5t0 -8.5l-96 -244q-1 -2 0 -3.5t3 -1.5h101q4 0 4 4v84q0 10 10 10h31q10 0 10 -10v-84
q0 -4 4 -4h17q10 0 10 -10z" />
    <glyph glyph-name="questiondown" unicode="&#xbf;" horiz-adv-x="415" 
d="M259 481.5q16 -16.5 16 -40.5q0 -23 -16.5 -40t-39.5 -17q-22 0 -39 17t-17 40q0 24 17 40.5t40 16.5t39 -16.5zM259 290v-59q0 -43 -18.5 -70t-56.5 -61t-57 -61.5t-19 -71.5q0 -50 27.5 -80.5t71.5 -30.5q46 0 74.5 31t28.5 81v31q0 10 10 10l51 -3q10 0 10 -10v-28
q0 -79 -48.5 -128t-126.5 -49q-77 0 -123.5 48t-46.5 128q0 44 13 76t31 52t47 46q30 26 45 46t15 48v55q0 10 10 10h52q10 0 10 -10z" />
    <glyph glyph-name="Agrave" unicode="&#xc0;" horiz-adv-x="531" 
d="M423 9l-33 125q-1 3 -5 3h-239q-4 0 -5 -3l-33 -125q-2 -9 -11 -9h-52q-5 0 -7.5 3t-1.5 8l186 680q2 9 11 9h64q9 0 11 -9l187 -680l1 -3q0 -8 -10 -8h-52q-9 0 -11 9zM158.5 196.5q1.5 -1.5 3.5 -1.5h207q2 0 3.5 1.5t0.5 2.5l-105 400q-1 2 -2 2t-2 -2l-106 -400
q-1 -1 0.5 -2.5zM290 777q0 -6 -9 -6h-39q-7 0 -12 7l-69 109q-2 4 -2 6q0 6 8 6h48q7 0 12 -7l61 -109q2 -4 2 -6z" />
    <glyph glyph-name="Aacute" unicode="&#xc1;" horiz-adv-x="531" 
d="M423 9l-33 125q-1 3 -5 3h-239q-4 0 -5 -3l-33 -125q-2 -9 -11 -9h-52q-5 0 -7.5 3t-1.5 8l186 680q2 9 11 9h64q9 0 11 -9l187 -680l1 -3q0 -8 -10 -8h-52q-9 0 -11 9zM158.5 196.5q1.5 -1.5 3.5 -1.5h207q2 0 3.5 1.5t0.5 2.5l-105 400q-1 2 -2 2t-2 -2l-106 -400
q-1 -1 0.5 -2.5zM222 774.5q-2 3.5 1 8.5l61 109q5 7 12 7h48q6 0 7.5 -3.5t-1.5 -8.5l-69 -109q-5 -7 -12 -7h-39q-6 0 -8 3.5z" />
    <glyph glyph-name="Acircumflex" unicode="&#xc2;" horiz-adv-x="531" 
d="M423 9l-33 125q-1 3 -5 3h-239q-4 0 -5 -3l-33 -125q-2 -9 -11 -9h-52q-5 0 -7.5 3t-1.5 8l186 680q2 9 11 9h64q9 0 11 -9l187 -680l1 -3q0 -8 -10 -8h-52q-9 0 -11 9zM158.5 196.5q1.5 -1.5 3.5 -1.5h207q2 0 3.5 1.5t0.5 2.5l-105 400q-1 2 -2 2t-2 -2l-106 -400
q-1 -1 0.5 -2.5zM148 768q-2 4 2 8l74 106q4 6 12 6h54q8 0 12 -6l76 -106q2 -2 2 -6q0 -2 -2 -4t-6 -2h-41q-7 0 -12 6l-52 79q-1 2 -3 2t-3 -2l-52 -79q-4 -6 -12 -6h-41q-6 0 -8 4z" />
    <glyph glyph-name="Atilde" unicode="&#xc3;" horiz-adv-x="531" 
d="M423 9l-33 125q-1 3 -5 3h-239q-4 0 -5 -3l-33 -125q-2 -9 -11 -9h-52q-5 0 -7.5 3t-1.5 8l186 680q2 9 11 9h64q9 0 11 -9l187 -680l1 -3q0 -8 -10 -8h-52q-9 0 -11 9zM158.5 196.5q1.5 -1.5 3.5 -1.5h207q2 0 3.5 1.5t0.5 2.5l-105 400q-1 2 -2 2t-2 -2l-106 -400
q-1 -1 0.5 -2.5zM300 793q-13 6 -29 17q-3 2 -12.5 8t-17 9t-15.5 3q-15 0 -25.5 -5.5t-21.5 -20.5q-6 -9 -14 -3l-18 13q-9 5 -4 13q28 53 79 53q16 0 27.5 -5.5t31.5 -17.5q17 -11 26.5 -16t20.5 -5q27 0 46 28q5 10 14 4l19 -12q4 -3 4 -8t-4 -12q-15 -25 -36.5 -37
t-42.5 -12q-15 0 -28 6z" />
    <glyph glyph-name="Adieresis" unicode="&#xc4;" horiz-adv-x="531" 
d="M423 9l-33 125q-1 3 -5 3h-239q-4 0 -5 -3l-33 -125q-2 -9 -11 -9h-52q-5 0 -7.5 3t-1.5 8l186 680q2 9 11 9h64q9 0 11 -9l187 -680l1 -3q0 -8 -10 -8h-52q-9 0 -11 9zM158.5 196.5q1.5 -1.5 3.5 -1.5h207q2 0 3.5 1.5t0.5 2.5l-105 400q-1 2 -2 2t-2 -2l-106 -400
q-1 -1 0.5 -2.5zM158 804q-13 13 -13 34q0 20 13 33t33 13q19 0 32 -13t13 -33q0 -21 -12.5 -34t-32.5 -13t-33 13zM308 804q-13 13 -13 34q0 20 13 33t33 13q19 0 32 -13t13 -33q0 -21 -12.5 -34t-32.5 -13t-33 13z" />
    <glyph glyph-name="Aring" unicode="&#xc5;" horiz-adv-x="531" 
d="M423 9l-33 125q-1 3 -5 3h-239q-4 0 -5 -3l-33 -125q-2 -9 -11 -9h-52q-5 0 -7.5 3t-1.5 8l186 680q2 9 11 9h64q9 0 11 -9l187 -680l1 -3q0 -8 -10 -8h-52q-9 0 -11 9zM158.5 196.5q1.5 -1.5 3.5 -1.5h207q2 0 3.5 1.5t0.5 2.5l-105 400q-1 2 -2 2t-2 -2l-106 -400
q-1 -1 0.5 -2.5zM192 794.5q-30 29.5 -30 72.5q0 44 29.5 73.5t73.5 29.5q43 0 72.5 -30t29.5 -73t-29.5 -72.5t-72.5 -29.5t-73 29.5zM309.5 821.5q18.5 18.5 18.5 45.5t-18.5 46t-44.5 19q-27 0 -45.5 -18.5t-18.5 -46.5q0 -27 19 -45.5t45 -18.5t44.5 18.5z" />
    <glyph glyph-name="AE" unicode="&#xc6;" horiz-adv-x="821" 
d="M762 638h-286q-4 0 -4 -4v-248q0 -4 4 -4h188q10 0 10 -10v-42q0 -10 -10 -10h-188q-4 0 -4 -4v-250q0 -4 4 -4h286q10 0 10 -10v-42q0 -10 -10 -10h-352q-10 0 -10 10v123q0 4 -4 4h-219q-2 0 -4 -3l-60 -127q-3 -7 -12 -7h-55q-5 0 -7 3.5t0 8.5l327 681q3 7 12 7h384
q10 0 10 -10v-42q0 -10 -10 -10zM204 196.5q1 -1.5 3 -1.5h189q4 0 4 4l1 404q0 3 -1.5 3t-3.5 -2l-192 -404q-1 -2 0 -3.5z" />
    <glyph glyph-name="Ccedilla" unicode="&#xc7;" horiz-adv-x="526" 
d="M459 495l-51 -2q-10 0 -10 9v14q0 58 -36.5 94t-95.5 36t-95 -35.5t-36 -94.5v-332q0 -59 36 -94.5t95 -35.5t95.5 36t36.5 94v14q0 9 10 9l51 -3q10 0 10 -8v-9q0 -84 -50.5 -136.5t-134.5 -58.5q-7 0 -2 -5q45 -41 45 -91q0 -8 -2 -22q-7 -32 -30 -46t-54 -14
q-14 0 -34 4q-8 3 -7 12l3 22q1 5 4.5 7t7.5 1q6 -2 18 -2q36 0 42 36q1 4 1 12q0 43 -52 88q-1 2 -5 2q-71 13 -113 64.5t-42 128.5v323q0 89 55.5 142.5t146.5 53.5q92 0 147.5 -53t55.5 -141v-9q0 -10 -10 -10z" />
    <glyph glyph-name="Egrave" unicode="&#xc8;" horiz-adv-x="517" 
d="M458 638h-300q-4 0 -4 -4v-248q0 -4 4 -4h202q10 0 10 -10v-42q0 -10 -10 -10h-202q-4 0 -4 -4v-250q0 -4 4 -4h300q10 0 10 -10v-42q0 -10 -10 -10h-365q-10 0 -10 10v680q0 10 10 10h365q10 0 10 -10v-42q0 -10 -10 -10zM298 788q0 -6 -9 -6h-39q-7 0 -12 7l-69 109
q-2 4 -2 6q0 6 8 6h48q7 0 12 -7l61 -109q2 -4 2 -6z" />
    <glyph glyph-name="Eacute" unicode="&#xc9;" horiz-adv-x="517" 
d="M458 638h-300q-4 0 -4 -4v-248q0 -4 4 -4h202q10 0 10 -10v-42q0 -10 -10 -10h-202q-4 0 -4 -4v-250q0 -4 4 -4h300q10 0 10 -10v-42q0 -10 -10 -10h-365q-10 0 -10 10v680q0 10 10 10h365q10 0 10 -10v-42q0 -10 -10 -10zM230 785.5q-2 3.5 1 8.5l61 109q5 7 12 7h48
q6 0 7.5 -3.5t-1.5 -8.5l-69 -109q-5 -7 -12 -7h-39q-6 0 -8 3.5z" />
    <glyph glyph-name="Ecircumflex" unicode="&#xca;" horiz-adv-x="517" 
d="M458 638h-300q-4 0 -4 -4v-248q0 -4 4 -4h202q10 0 10 -10v-42q0 -10 -10 -10h-202q-4 0 -4 -4v-250q0 -4 4 -4h300q10 0 10 -10v-42q0 -10 -10 -10h-365q-10 0 -10 10v680q0 10 10 10h365q10 0 10 -10v-42q0 -10 -10 -10zM156 779q-2 4 2 8l74 106q4 6 12 6h54
q8 0 12 -6l76 -106q2 -2 2 -6q0 -2 -2 -4t-6 -2h-41q-7 0 -12 6l-52 79q-1 2 -3 2t-3 -2l-52 -79q-4 -6 -12 -6h-41q-6 0 -8 4z" />
    <glyph glyph-name="Edieresis" unicode="&#xcb;" horiz-adv-x="517" 
d="M458 638h-300q-4 0 -4 -4v-248q0 -4 4 -4h202q10 0 10 -10v-42q0 -10 -10 -10h-202q-4 0 -4 -4v-250q0 -4 4 -4h300q10 0 10 -10v-42q0 -10 -10 -10h-365q-10 0 -10 10v680q0 10 10 10h365q10 0 10 -10v-42q0 -10 -10 -10zM166 815q-13 13 -13 34q0 20 13 33t33 13
q19 0 32 -13t13 -33q0 -21 -12.5 -34t-32.5 -13t-33 13zM316 815q-13 13 -13 34q0 20 13 33t33 13q19 0 32 -13t13 -33q0 -21 -12.5 -34t-32.5 -13t-33 13z" />
    <glyph glyph-name="Igrave" unicode="&#xcc;" horiz-adv-x="237" 
d="M83 10v680q0 10 10 10h51q10 0 10 -10v-680q0 -10 -10 -10h-51q-10 0 -10 10zM143 788q0 -6 -9 -6h-39q-7 0 -12 7l-69 109q-2 4 -2 6q0 6 8 6h48q7 0 12 -7l61 -109q2 -4 2 -6z" />
    <glyph glyph-name="Iacute" unicode="&#xcd;" horiz-adv-x="237" 
d="M83 10v680q0 10 10 10h51q10 0 10 -10v-680q0 -10 -10 -10h-51q-10 0 -10 10zM75 785.5q-2 3.5 1 8.5l61 109q5 7 12 7h48q6 0 7.5 -3.5t-1.5 -8.5l-69 -109q-5 -7 -12 -7h-39q-6 0 -8 3.5z" />
    <glyph glyph-name="Icircumflex" unicode="&#xce;" horiz-adv-x="237" 
d="M83 10v680q0 10 10 10h51q10 0 10 -10v-680q0 -10 -10 -10h-51q-10 0 -10 10zM1 779q-2 4 2 8l74 106q4 6 12 6h54q8 0 12 -6l76 -106q2 -2 2 -6q0 -2 -2 -4t-6 -2h-41q-7 0 -12 6l-52 79q-1 2 -3 2t-3 -2l-52 -79q-4 -6 -12 -6h-41q-6 0 -8 4z" />
    <glyph glyph-name="Idieresis" unicode="&#xcf;" horiz-adv-x="237" 
d="M83 10v680q0 10 10 10h51q10 0 10 -10v-680q0 -10 -10 -10h-51q-10 0 -10 10zM11 815q-13 13 -13 34q0 20 13 33t33 13q19 0 32 -13t13 -33q0 -21 -12.5 -34t-32.5 -13t-33 13zM161 815q-13 13 -13 34q0 20 13 33t33 13q19 0 32 -13t13 -33q0 -21 -12.5 -34t-32.5 -13
t-33 13z" />
    <glyph glyph-name="Eth" unicode="&#xd0;" horiz-adv-x="596" 
d="M482.5 649q51.5 -51 51.5 -139v-320q0 -88 -51.5 -139t-140.5 -51h-195q-10 0 -10 10v327q0 4 -4 4h-40q-10 0 -10 10v28q0 10 10 10h40q4 0 4 4v297q0 10 10 10h195q89 0 140.5 -51zM463 504q0 62 -32 98t-88 36h-131q-4 0 -4 -4v-241q0 -4 4 -4h97q10 0 10 -10v-28
q0 -10 -10 -10h-97q-4 0 -4 -4v-271q0 -4 4 -4h131q55 1 87 36.5t33 97.5v308z" />
    <glyph glyph-name="Ntilde" unicode="&#xd1;" horiz-adv-x="583" 
d="M83 10v680q0 10 10 10h51q9 0 12 -7l269 -527q2 -2 3.5 -2t1.5 3v523q0 10 10 10h51q10 0 10 -10v-680q0 -10 -10 -10h-52q-9 0 -12 7l-269 529q-2 2 -3.5 1.5t-1.5 -3.5l1 -524q0 -10 -10 -10h-51q-10 0 -10 10zM326 804q-13 6 -29 17q-3 2 -12.5 8t-17 9t-15.5 3
q-15 0 -25.5 -5.5t-21.5 -20.5q-6 -9 -14 -3l-18 13q-9 5 -4 13q28 53 79 53q16 0 27.5 -5.5t31.5 -17.5q17 -11 26.5 -16t20.5 -5q27 0 46 28q5 10 14 4l19 -12q4 -3 4 -8t-4 -12q-15 -25 -36.5 -37t-42.5 -12q-15 0 -28 6z" />
    <glyph glyph-name="Ograve" unicode="&#xd2;" horiz-adv-x="539" 
d="M161.5 17.5q-46.5 25.5 -72 71.5t-25.5 106v309q0 60 25.5 106.5t72 72t107.5 25.5t107.5 -25.5t72.5 -72t26 -106.5v-309q0 -60 -26 -106t-72.5 -71.5t-107.5 -25.5t-107.5 25.5zM367 92q37 38 37 100v314q0 63 -37 101.5t-98 38.5q-60 0 -97 -38.5t-37 -101.5v-314
q0 -62 37 -100t97 -38q61 0 98 38zM294 782q0 -6 -9 -6h-39q-7 0 -12 7l-69 109q-2 4 -2 6q0 6 8 6h48q7 0 12 -7l61 -109q2 -4 2 -6z" />
    <glyph glyph-name="Oacute" unicode="&#xd3;" horiz-adv-x="539" 
d="M161.5 17.5q-46.5 25.5 -72 71.5t-25.5 106v309q0 60 25.5 106.5t72 72t107.5 25.5t107.5 -25.5t72.5 -72t26 -106.5v-309q0 -60 -26 -106t-72.5 -71.5t-107.5 -25.5t-107.5 25.5zM367 92q37 38 37 100v314q0 63 -37 101.5t-98 38.5q-60 0 -97 -38.5t-37 -101.5v-314
q0 -62 37 -100t97 -38q61 0 98 38zM226 779.5q-2 3.5 1 8.5l61 109q5 7 12 7h48q6 0 7.5 -3.5t-1.5 -8.5l-69 -109q-5 -7 -12 -7h-39q-6 0 -8 3.5z" />
    <glyph glyph-name="Ocircumflex" unicode="&#xd4;" horiz-adv-x="539" 
d="M161.5 17.5q-46.5 25.5 -72 71.5t-25.5 106v309q0 60 25.5 106.5t72 72t107.5 25.5t107.5 -25.5t72.5 -72t26 -106.5v-309q0 -60 -26 -106t-72.5 -71.5t-107.5 -25.5t-107.5 25.5zM367 92q37 38 37 100v314q0 63 -37 101.5t-98 38.5q-60 0 -97 -38.5t-37 -101.5v-314
q0 -62 37 -100t97 -38q61 0 98 38zM152 773q-2 4 2 8l74 106q4 6 12 6h54q8 0 12 -6l76 -106q2 -2 2 -6q0 -2 -2 -4t-6 -2h-41q-7 0 -12 6l-52 79q-1 2 -3 2t-3 -2l-52 -79q-4 -6 -12 -6h-41q-6 0 -8 4z" />
    <glyph glyph-name="Otilde" unicode="&#xd5;" horiz-adv-x="539" 
d="M161.5 17.5q-46.5 25.5 -72 71.5t-25.5 106v309q0 60 25.5 106.5t72 72t107.5 25.5t107.5 -25.5t72.5 -72t26 -106.5v-309q0 -60 -26 -106t-72.5 -71.5t-107.5 -25.5t-107.5 25.5zM367 92q37 38 37 100v314q0 63 -37 101.5t-98 38.5q-60 0 -97 -38.5t-37 -101.5v-314
q0 -62 37 -100t97 -38q61 0 98 38zM304 798q-13 6 -29 17q-3 2 -12.5 8t-17 9t-15.5 3q-15 0 -25.5 -5.5t-21.5 -20.5q-6 -9 -14 -3l-18 13q-9 5 -4 13q28 53 79 53q16 0 27.5 -5.5t31.5 -17.5q17 -11 26.5 -16t20.5 -5q27 0 46 28q5 10 14 4l19 -12q4 -3 4 -8t-4 -12
q-15 -25 -36.5 -37t-42.5 -12q-15 0 -28 6z" />
    <glyph glyph-name="Odieresis" unicode="&#xd6;" horiz-adv-x="539" 
d="M161.5 17.5q-46.5 25.5 -72 71.5t-25.5 106v309q0 60 25.5 106.5t72 72t107.5 25.5t107.5 -25.5t72.5 -72t26 -106.5v-309q0 -60 -26 -106t-72.5 -71.5t-107.5 -25.5t-107.5 25.5zM367 92q37 38 37 100v314q0 63 -37 101.5t-98 38.5q-60 0 -97 -38.5t-37 -101.5v-314
q0 -62 37 -100t97 -38q61 0 98 38zM162 809q-13 13 -13 34q0 20 13 33t33 13q19 0 32 -13t13 -33q0 -21 -12.5 -34t-32.5 -13t-33 13zM312 809q-13 13 -13 34q0 20 13 33t33 13q19 0 32 -13t13 -33q0 -21 -12.5 -34t-32.5 -13t-33 13z" />
    <glyph glyph-name="multiply" unicode="&#xd7;" horiz-adv-x="396" 
d="M357 436q0 -4 -3 -7l-110 -111q-3 -3 0 -6l109 -109q3 -3 3 -7t-3 -7l-28 -28q-3 -3 -7 -3t-7 3l-109 109q-3 3 -6 0l-110 -110q-3 -3 -7 -3t-7 3l-27 27q-3 3 -3 7t3 7l110 110q3 3 0 6l-113 113q-3 3 -3 7t3 7l28 28q3 3 7 3t7 -3l113 -113q3 -3 6 0l110 111q3 3 7 3
t7 -3l27 -27q3 -3 3 -7z" />
    <glyph glyph-name="Oslash" unicode="&#xd8;" horiz-adv-x="559" 
d="M431 645q51 -54 51 -141v-309q0 -60 -26 -106t-72.5 -71.5t-107.5 -25.5q-69 0 -119 33q-5 2 -6 -2l-25 -54q-3 -8 -11 -8h-34q-5 0 -7.5 3.5t-0.5 8.5l39 87q1 2 -1 6q-40 51 -40 129v309q0 60 25.5 106.5t72 72t107.5 25.5q62 0 108 -26q5 -2 6 2l24 53q3 8 11 8h35
q5 0 7.5 -3.5t0.5 -8.5l-38 -83q-1 -3 1 -5zM147 150q1 -2 2.5 -2t2.5 2l208 466q1 3 -2 5q-33 25 -82 25q-60 0 -97 -38.5t-37 -101.5v-314q0 -26 5 -42zM411 506q0 34 -11 62q-1 2 -3 2t-3 -2l-212 -475q-1 -3 1 -5q36 -34 93 -34q61 0 98 38t37 100v314z" />
    <glyph glyph-name="Ugrave" unicode="&#xd9;" horiz-adv-x="562" 
d="M173.5 18q-46.5 26 -72 73t-25.5 109v490q0 10 10 10h51q10 0 10 -10v-494q0 -64 37 -103t97 -39t97 39t37 103v494q0 10 10 10h51q10 0 10 -10v-490q0 -62 -25.5 -109t-72 -73t-107.5 -26t-107.5 26zM306 789q0 -6 -9 -6h-39q-7 0 -12 7l-69 109q-2 4 -2 6q0 6 8 6h48
q7 0 12 -7l61 -109q2 -4 2 -6z" />
    <glyph glyph-name="Uacute" unicode="&#xda;" horiz-adv-x="562" 
d="M173.5 18q-46.5 26 -72 73t-25.5 109v490q0 10 10 10h51q10 0 10 -10v-494q0 -64 37 -103t97 -39t97 39t37 103v494q0 10 10 10h51q10 0 10 -10v-490q0 -62 -25.5 -109t-72 -73t-107.5 -26t-107.5 26zM238 786.5q-2 3.5 1 8.5l61 109q5 7 12 7h48q6 0 7.5 -3.5t-1.5 -8.5
l-69 -109q-5 -7 -12 -7h-39q-6 0 -8 3.5z" />
    <glyph glyph-name="Ucircumflex" unicode="&#xdb;" horiz-adv-x="562" 
d="M173.5 18q-46.5 26 -72 73t-25.5 109v490q0 10 10 10h51q10 0 10 -10v-494q0 -64 37 -103t97 -39t97 39t37 103v494q0 10 10 10h51q10 0 10 -10v-490q0 -62 -25.5 -109t-72 -73t-107.5 -26t-107.5 26zM164 780q-2 4 2 8l74 106q4 6 12 6h54q8 0 12 -6l76 -106q2 -2 2 -6
q0 -2 -2 -4t-6 -2h-41q-7 0 -12 6l-52 79q-1 2 -3 2t-3 -2l-52 -79q-4 -6 -12 -6h-41q-6 0 -8 4z" />
    <glyph glyph-name="Udieresis" unicode="&#xdc;" horiz-adv-x="562" 
d="M173.5 18q-46.5 26 -72 73t-25.5 109v490q0 10 10 10h51q10 0 10 -10v-494q0 -64 37 -103t97 -39t97 39t37 103v494q0 10 10 10h51q10 0 10 -10v-490q0 -62 -25.5 -109t-72 -73t-107.5 -26t-107.5 26zM174 816q-13 13 -13 34q0 20 13 33t33 13q19 0 32 -13t13 -33
q0 -21 -12.5 -34t-32.5 -13t-33 13zM324 816q-13 13 -13 34q0 20 13 33t33 13q19 0 32 -13t13 -33q0 -21 -12.5 -34t-32.5 -13t-33 13z" />
    <glyph glyph-name="Yacute" unicode="&#xdd;" horiz-adv-x="496" 
d="M212 11v298q0 4 -1 5l-173 374l-1 4q0 8 9 8h54q8 0 11 -8l134 -299q1 -2 3 -2t3 2l134 299q3 8 11 8h54q5 0 7.5 -3.5t0.5 -8.5l-174 -374q-1 -1 -1 -5v-298q0 -10 -10 -10h-51q-10 0 -10 10zM205 774.5q-2 3.5 1 8.5l61 109q5 7 12 7h48q6 0 7.5 -3.5t-1.5 -8.5
l-69 -109q-5 -7 -12 -7h-39q-6 0 -8 3.5z" />
    <glyph glyph-name="Thorn" unicode="&#xde;" horiz-adv-x="505" 
d="M420.5 490q49.5 -54 49.5 -141q0 -57 -23 -100t-63.5 -67t-92.5 -24h-137q-4 0 -4 -4v-144q0 -10 -10 -10h-51q-10 0 -10 10v680q0 10 10 10h51q10 0 10 -10v-142q0 -4 4 -4h137q80 0 129.5 -54zM367 252q32 36 32 96q0 61 -32 97t-85 36h-128q-4 0 -4 -4v-257q0 -4 4 -4
h128q53 0 85 36z" />
    <glyph glyph-name="germandbls" unicode="&#xdf;" horiz-adv-x="510" 
d="M71 10v500q0 93 49 146t133 53q92 0 142 -51t50 -141q0 -51 -20.5 -88.5t-56.5 -54.5q-4 -1 -1 -5q40 -19 62.5 -64.5t22.5 -109.5q0 -92 -52.5 -143.5t-153.5 -51.5h-50q-10 0 -10 10v41q0 10 10 10l54 1q65 0 98.5 36t33.5 103t-29 104t-86 38h-52q-10 0 -10 10v37
q0 10 10 10h53q51 0 79 30.5t28 85.5q0 62 -30.5 96.5t-88.5 34.5q-50 0 -82 -34.5t-32 -95.5v-507q0 -10 -10 -10h-51q-10 0 -10 10z" />
    <glyph glyph-name="agrave" unicode="&#xe0;" horiz-adv-x="461" 
d="M357 468q46 -46 46 -122v-336q0 -10 -10 -10h-51q-10 0 -10 10v36q0 2 -1.5 3t-3.5 -1q-23 -28 -57.5 -42t-76.5 -14q-63 0 -107 34t-44 111q0 80 52 121.5t141 41.5h93q4 0 4 4v38q0 51 -26 80.5t-75 29.5q-39 0 -65.5 -19.5t-30.5 -51.5q-1 -9 -11 -9l-55 3
q-5 0 -7.5 3t-1.5 7q7 58 54 93.5t117 35.5q80 0 126 -46zM295.5 81.5q36.5 27.5 36.5 76.5v81q0 4 -4 4h-89q-56 0 -90.5 -26.5t-34.5 -75.5q0 -44 26.5 -65.5t68.5 -21.5q50 0 86.5 27.5zM256 591q0 -6 -9 -6h-39q-7 0 -12 7l-69 109q-2 4 -2 6q0 6 8 6h48q7 0 12 -7
l61 -109q2 -4 2 -6z" />
    <glyph glyph-name="aacute" unicode="&#xe1;" horiz-adv-x="461" 
d="M357 468q46 -46 46 -122v-336q0 -10 -10 -10h-51q-10 0 -10 10v36q0 2 -1.5 3t-3.5 -1q-23 -28 -57.5 -42t-76.5 -14q-63 0 -107 34t-44 111q0 80 52 121.5t141 41.5h93q4 0 4 4v38q0 51 -26 80.5t-75 29.5q-39 0 -65.5 -19.5t-30.5 -51.5q-1 -9 -11 -9l-55 3
q-5 0 -7.5 3t-1.5 7q7 58 54 93.5t117 35.5q80 0 126 -46zM295.5 81.5q36.5 27.5 36.5 76.5v81q0 4 -4 4h-89q-56 0 -90.5 -26.5t-34.5 -75.5q0 -44 26.5 -65.5t68.5 -21.5q50 0 86.5 27.5zM188 588.5q-2 3.5 1 8.5l61 109q5 7 12 7h48q6 0 7.5 -3.5t-1.5 -8.5l-69 -109
q-5 -7 -12 -7h-39q-6 0 -8 3.5z" />
    <glyph glyph-name="acircumflex" unicode="&#xe2;" horiz-adv-x="461" 
d="M357 468q46 -46 46 -122v-336q0 -10 -10 -10h-51q-10 0 -10 10v36q0 2 -1.5 3t-3.5 -1q-23 -28 -57.5 -42t-76.5 -14q-63 0 -107 34t-44 111q0 80 52 121.5t141 41.5h93q4 0 4 4v38q0 51 -26 80.5t-75 29.5q-39 0 -65.5 -19.5t-30.5 -51.5q-1 -9 -11 -9l-55 3
q-5 0 -7.5 3t-1.5 7q7 58 54 93.5t117 35.5q80 0 126 -46zM295.5 81.5q36.5 27.5 36.5 76.5v81q0 4 -4 4h-89q-56 0 -90.5 -26.5t-34.5 -75.5q0 -44 26.5 -65.5t68.5 -21.5q50 0 86.5 27.5zM114 582q-2 4 2 8l74 106q4 6 12 6h54q8 0 12 -6l76 -106q2 -2 2 -6q0 -2 -2 -4
t-6 -2h-41q-7 0 -12 6l-52 79q-1 2 -3 2t-3 -2l-52 -79q-4 -6 -12 -6h-41q-6 0 -8 4z" />
    <glyph glyph-name="atilde" unicode="&#xe3;" horiz-adv-x="461" 
d="M357 468q46 -46 46 -122v-336q0 -10 -10 -10h-51q-10 0 -10 10v36q0 2 -1.5 3t-3.5 -1q-23 -28 -57.5 -42t-76.5 -14q-63 0 -107 34t-44 111q0 80 52 121.5t141 41.5h93q4 0 4 4v38q0 51 -26 80.5t-75 29.5q-39 0 -65.5 -19.5t-30.5 -51.5q-1 -9 -11 -9l-55 3
q-5 0 -7.5 3t-1.5 7q7 58 54 93.5t117 35.5q80 0 126 -46zM295.5 81.5q36.5 27.5 36.5 76.5v81q0 4 -4 4h-89q-56 0 -90.5 -26.5t-34.5 -75.5q0 -44 26.5 -65.5t68.5 -21.5q50 0 86.5 27.5zM266 607q-13 6 -29 17q-3 2 -12.5 8t-17 9t-15.5 3q-15 0 -25.5 -5.5t-21.5 -20.5
q-6 -9 -14 -3l-18 13q-9 5 -4 13q28 53 79 53q16 0 27.5 -5.5t31.5 -17.5q17 -11 26.5 -16t20.5 -5q27 0 46 28q5 10 14 4l19 -12q4 -3 4 -8t-4 -12q-15 -25 -36.5 -37t-42.5 -12q-15 0 -28 6z" />
    <glyph glyph-name="adieresis" unicode="&#xe4;" horiz-adv-x="461" 
d="M357 468q46 -46 46 -122v-336q0 -10 -10 -10h-51q-10 0 -10 10v36q0 2 -1.5 3t-3.5 -1q-23 -28 -57.5 -42t-76.5 -14q-63 0 -107 34t-44 111q0 80 52 121.5t141 41.5h93q4 0 4 4v38q0 51 -26 80.5t-75 29.5q-39 0 -65.5 -19.5t-30.5 -51.5q-1 -9 -11 -9l-55 3
q-5 0 -7.5 3t-1.5 7q7 58 54 93.5t117 35.5q80 0 126 -46zM295.5 81.5q36.5 27.5 36.5 76.5v81q0 4 -4 4h-89q-56 0 -90.5 -26.5t-34.5 -75.5q0 -44 26.5 -65.5t68.5 -21.5q50 0 86.5 27.5zM124 618q-13 13 -13 34q0 20 13 33t33 13q19 0 32 -13t13 -33q0 -21 -12.5 -34
t-32.5 -13t-33 13zM274 618q-13 13 -13 34q0 20 13 33t33 13q19 0 32 -13t13 -33q0 -21 -12.5 -34t-32.5 -13t-33 13z" />
    <glyph glyph-name="aring" unicode="&#xe5;" horiz-adv-x="461" 
d="M357 468q46 -46 46 -122v-336q0 -10 -10 -10h-51q-10 0 -10 10v36q0 2 -1.5 3t-3.5 -1q-23 -28 -57.5 -42t-76.5 -14q-63 0 -107 34t-44 111q0 80 52 121.5t141 41.5h93q4 0 4 4v38q0 51 -26 80.5t-75 29.5q-39 0 -65.5 -19.5t-30.5 -51.5q-1 -9 -11 -9l-55 3
q-5 0 -7.5 3t-1.5 7q7 58 54 93.5t117 35.5q80 0 126 -46zM295.5 81.5q36.5 27.5 36.5 76.5v81q0 4 -4 4h-89q-56 0 -90.5 -26.5t-34.5 -75.5q0 -44 26.5 -65.5t68.5 -21.5q50 0 86.5 27.5zM158 608.5q-30 29.5 -30 72.5q0 44 29.5 73.5t73.5 29.5q43 0 72.5 -30t29.5 -73
t-29.5 -72.5t-72.5 -29.5t-73 29.5zM275.5 635.5q18.5 18.5 18.5 45.5t-18.5 46t-44.5 19q-27 0 -45.5 -18.5t-18.5 -46.5q0 -27 19 -45.5t45 -18.5t44.5 18.5z" />
    <glyph glyph-name="ae" unicode="&#xe6;" horiz-adv-x="742" 
d="M86.5 24q-44.5 32 -44.5 109q0 79 50 118t139 39h96q4 0 4 4v46q0 51 -26 81.5t-77 30.5q-39 0 -66.5 -19.5t-33.5 -51.5q-2 -11 -11 -9l-51 5q-10 2 -9 11q7 56 55 91t116 35q49 0 85 -21t54 -57q2 -5 5 0q19 34 56.5 56t84.5 22q68 0 116 -40.5t56 -105.5q5 -52 5 -129
q0 -10 -10 -10h-272q-4 0 -4 -4l1 -69q1 -45 32.5 -71t79.5 -26q39 0 65.5 19t38.5 51q3 9 12 6l43 -12q9 -3 7 -12q-15 -54 -59.5 -86.5t-108.5 -32.5q-52 0 -92 22t-55 57q-1 2 -2 3t-2 -1q-18 -38 -63 -59.5t-103 -21.5q-67 0 -111.5 32zM408 290h207q4 0 4 4q0 25 -2 61
q-5 43 -33.5 70t-72.5 27q-43 0 -71.5 -27t-33.5 -70q-2 -38 -2 -61q0 -4 4 -4zM295 76.5q36 26.5 36 75.5v73q0 4 -4 4h-89q-57 0 -90.5 -23t-33.5 -69q0 -43 26.5 -65t69.5 -22q49 0 85 26.5z" />
    <glyph glyph-name="ccedilla" unicode="&#xe7;" horiz-adv-x="461" 
d="M347 148q2 11 11 9l50 -4q9 -2 9 -9v-4q0 -4 -2 -12q-6 -53 -46.5 -90t-102.5 -44q-6 -2 -1 -5q45 -42 45 -92q0 -16 -2 -23q-7 -32 -30 -46t-54 -14q-14 0 -34 4q-8 3 -7 12l3 22q1 5 4.5 7t7.5 1q6 -2 18 -2q36 0 42 36q1 4 1 12q0 41 -50 86q-1 2 -5 2q-58 10 -95 48
t-46 96q-6 51 -6 116q0 51 6 115q9 65 57 105t119 40t119.5 -38t56.5 -95l3 -21v-2q0 -4 -2.5 -6.5t-6.5 -2.5l-51 -3q-9 0 -11 9q0 9 -1 12q-5 35 -34.5 60t-72.5 25q-44 0 -72.5 -27t-33.5 -70t-5 -102q0 -60 5 -103q5 -44 33.5 -70t72.5 -26t73.5 25t33.5 61z" />
    <glyph glyph-name="egrave" unicode="&#xe8;" horiz-adv-x="471" 
d="M309 74q28 20 40 53q3 10 12 7l41 -11q10 -3 7 -12q-15 -54 -60 -86.5t-110 -32.5q-70 0 -115.5 37.5t-56.5 101.5q-9 46 -9 123q0 79 4 112q8 67 55.5 107.5t119.5 40.5q79 0 125 -44t53 -118q4 -47 4 -114q0 -10 -10 -10h-277q-4 0 -4 -4q0 -43 3 -73q5 -44 35.5 -70.5
t75.5 -26.5q39 0 67 20zM165 426q-28 -26 -33 -69q-2 -21 -4 -68q0 -4 4 -4h212q4 0 4 4q-2 48 -4 66q-5 43 -34 70t-73 27t-72 -26zM262 591q0 -6 -9 -6h-39q-7 0 -12 7l-69 109q-2 4 -2 6q0 6 8 6h48q7 0 12 -7l61 -109q2 -4 2 -6z" />
    <glyph glyph-name="eacute" unicode="&#xe9;" horiz-adv-x="471" 
d="M309 74q28 20 40 53q3 10 12 7l41 -11q10 -3 7 -12q-15 -54 -60 -86.5t-110 -32.5q-70 0 -115.5 37.5t-56.5 101.5q-9 46 -9 123q0 79 4 112q8 67 55.5 107.5t119.5 40.5q79 0 125 -44t53 -118q4 -47 4 -114q0 -10 -10 -10h-277q-4 0 -4 -4q0 -43 3 -73q5 -44 35.5 -70.5
t75.5 -26.5q39 0 67 20zM165 426q-28 -26 -33 -69q-2 -21 -4 -68q0 -4 4 -4h212q4 0 4 4q-2 48 -4 66q-5 43 -34 70t-73 27t-72 -26zM194 588.5q-2 3.5 1 8.5l61 109q5 7 12 7h48q6 0 7.5 -3.5t-1.5 -8.5l-69 -109q-5 -7 -12 -7h-39q-6 0 -8 3.5z" />
    <glyph glyph-name="ecircumflex" unicode="&#xea;" horiz-adv-x="471" 
d="M309 74q28 20 40 53q3 10 12 7l41 -11q10 -3 7 -12q-15 -54 -60 -86.5t-110 -32.5q-70 0 -115.5 37.5t-56.5 101.5q-9 46 -9 123q0 79 4 112q8 67 55.5 107.5t119.5 40.5q79 0 125 -44t53 -118q4 -47 4 -114q0 -10 -10 -10h-277q-4 0 -4 -4q0 -43 3 -73q5 -44 35.5 -70.5
t75.5 -26.5q39 0 67 20zM165 426q-28 -26 -33 -69q-2 -21 -4 -68q0 -4 4 -4h212q4 0 4 4q-2 48 -4 66q-5 43 -34 70t-73 27t-72 -26zM120 582q-2 4 2 8l74 106q4 6 12 6h54q8 0 12 -6l76 -106q2 -2 2 -6q0 -2 -2 -4t-6 -2h-41q-7 0 -12 6l-52 79q-1 2 -3 2t-3 -2l-52 -79
q-4 -6 -12 -6h-41q-6 0 -8 4z" />
    <glyph glyph-name="edieresis" unicode="&#xeb;" horiz-adv-x="471" 
d="M309 74q28 20 40 53q3 10 12 7l41 -11q10 -3 7 -12q-15 -54 -60 -86.5t-110 -32.5q-70 0 -115.5 37.5t-56.5 101.5q-9 46 -9 123q0 79 4 112q8 67 55.5 107.5t119.5 40.5q79 0 125 -44t53 -118q4 -47 4 -114q0 -10 -10 -10h-277q-4 0 -4 -4q0 -43 3 -73q5 -44 35.5 -70.5
t75.5 -26.5q39 0 67 20zM165 426q-28 -26 -33 -69q-2 -21 -4 -68q0 -4 4 -4h212q4 0 4 4q-2 48 -4 66q-5 43 -34 70t-73 27t-72 -26zM130 618q-13 13 -13 34q0 20 13 33t33 13q19 0 32 -13t13 -33q0 -21 -12.5 -34t-32.5 -13t-33 13zM280 618q-13 13 -13 34q0 20 13 33
t33 13q19 0 32 -13t13 -33q0 -21 -12.5 -34t-32.5 -13t-33 13z" />
    <glyph glyph-name="igrave" unicode="&#xec;" horiz-adv-x="204" 
d="M65 10v486q0 10 10 10h51q10 0 10 -10v-486q0 -10 -10 -10h-51q-10 0 -10 10zM125 593q0 -6 -9 -6h-39q-7 0 -12 7l-69 109q-2 4 -2 6q0 6 8 6h48q7 0 12 -7l61 -109q2 -4 2 -6z" />
    <glyph glyph-name="iacute" unicode="&#xed;" horiz-adv-x="204" 
d="M65 10v486q0 10 10 10h51q10 0 10 -10v-486q0 -10 -10 -10h-51q-10 0 -10 10zM57 590.5q-2 3.5 1 8.5l61 109q5 7 12 7h48q6 0 7.5 -3.5t-1.5 -8.5l-69 -109q-5 -7 -12 -7h-39q-6 0 -8 3.5z" />
    <glyph glyph-name="icircumflex" unicode="&#xee;" horiz-adv-x="204" 
d="M65 10v486q0 10 10 10h51q10 0 10 -10v-486q0 -10 -10 -10h-51q-10 0 -10 10zM-17 584q-2 4 2 8l74 106q4 6 12 6h54q8 0 12 -6l76 -106q2 -2 2 -6q0 -2 -2 -4t-6 -2h-41q-7 0 -12 6l-52 79q-1 2 -3 2t-3 -2l-52 -79q-4 -6 -12 -6h-41q-6 0 -8 4z" />
    <glyph glyph-name="idieresis" unicode="&#xef;" horiz-adv-x="204" 
d="M65 10v486q0 10 10 10h51q10 0 10 -10v-486q0 -10 -10 -10h-51q-10 0 -10 10zM-7 620q-13 13 -13 34q0 20 13 33t33 13q19 0 32 -13t13 -33q0 -21 -12.5 -34t-32.5 -13t-33 13zM143 620q-13 13 -13 34q0 20 13 33t33 13q19 0 32 -13t13 -33q0 -21 -12.5 -34t-32.5 -13
t-33 13z" />
    <glyph glyph-name="eth" unicode="&#xf0;" horiz-adv-x="479" 
d="M412 245q0 -78 -5 -110q-8 -64 -55.5 -103.5t-118.5 -39.5t-117.5 39t-55.5 104q-5 33 -5 110q0 33 1 60.5t4 49.5q6 59 46 96.5t99 39.5q6 1 17 1q30 0 56.5 -9t43.5 -25q4 -3 3 2q-14 57 -53 114q-2 4 -5 2l-83 -24l-4 -1q-6 0 -9 8l-5 18l-1 4q0 6 8 9l66 20q5 2 2 5
q-28 35 -68 73q-4 3 -4 6q0 6 9 6h51q5 0 12 -5l19 -21l39 -43q2 -4 5 -2l80 24l4 1q6 0 9 -8l5 -20v-3q0 -6 -7 -9l-62 -19q-4 -2 -3 -4q71 -101 79 -239q3 -33 3 -107zM341 244q0 58 -3 97q-5 43 -33.5 69.5t-71.5 26.5t-71 -26.5t-33 -69.5q-3 -27 -3 -97q0 -56 3 -97
q5 -43 33 -69.5t71 -26.5t71.5 26.5t33.5 69.5q3 41 3 97z" />
    <glyph glyph-name="ntilde" unicode="&#xf1;" horiz-adv-x="482" 
d="M183.5 632.5q-9.5 -5.5 -19.5 -20.5q-6 -9 -14 -3l-17 13q-8 5 -3 13q27 53 74 53q14 0 25 -5t30 -18q16 -11 24.5 -16t19.5 -5q13 0 23 6t20 22q4 9 14 3l17 -11q8 -5 4 -14q-14 -28 -35.5 -41.5t-42.5 -13.5q-14 0 -26 6t-27 17l-12 8t-16.5 9t-14.5 3
q-14 0 -23.5 -5.5zM375.5 468.5q40.5 -44.5 40.5 -121.5v-337q0 -10 -10 -10h-51q-10 0 -10 10v327q0 52 -27 83t-73 31q-47 0 -75.5 -31.5t-28.5 -84.5v-325q0 -10 -10 -10h-51q-10 0 -10 10v486q0 10 10 10h51q10 0 10 -10v-37q0 -2 1.5 -3t3.5 1q20 28 50.5 42t68.5 14
q70 0 110.5 -44.5z" />
    <glyph glyph-name="ograve" unicode="&#xf2;" horiz-adv-x="480" 
d="M121 31.5q-47 39.5 -57 106.5q-7 46 -7 116q0 69 7 114q9 67 56.5 106.5t120.5 39.5q71 0 118.5 -39.5t56.5 -105.5q7 -48 7 -115q0 -68 -7 -116q-10 -67 -57 -106.5t-119 -39.5t-119 39.5zM312.5 80.5q29.5 26.5 35.5 70.5q4 39 4 102q0 65 -4 102q-6 44 -35.5 70.5
t-72.5 26.5t-72.5 -26.5t-35.5 -70.5q-4 -37 -4 -102t4 -102q6 -44 35.5 -70.5t72.5 -26.5t72.5 26.5zM265 591q0 -6 -9 -6h-39q-7 0 -12 7l-69 109q-2 4 -2 6q0 6 8 6h48q7 0 12 -7l61 -109q2 -4 2 -6z" />
    <glyph glyph-name="oacute" unicode="&#xf3;" horiz-adv-x="480" 
d="M121 31.5q-47 39.5 -57 106.5q-7 46 -7 116q0 69 7 114q9 67 56.5 106.5t120.5 39.5q71 0 118.5 -39.5t56.5 -105.5q7 -48 7 -115q0 -68 -7 -116q-10 -67 -57 -106.5t-119 -39.5t-119 39.5zM312.5 80.5q29.5 26.5 35.5 70.5q4 39 4 102q0 65 -4 102q-6 44 -35.5 70.5
t-72.5 26.5t-72.5 -26.5t-35.5 -70.5q-4 -37 -4 -102t4 -102q6 -44 35.5 -70.5t72.5 -26.5t72.5 26.5zM197 588.5q-2 3.5 1 8.5l61 109q5 7 12 7h48q6 0 7.5 -3.5t-1.5 -8.5l-69 -109q-5 -7 -12 -7h-39q-6 0 -8 3.5z" />
    <glyph glyph-name="ocircumflex" unicode="&#xf4;" horiz-adv-x="480" 
d="M121 31.5q-47 39.5 -57 106.5q-7 46 -7 116q0 69 7 114q9 67 56.5 106.5t120.5 39.5q71 0 118.5 -39.5t56.5 -105.5q7 -48 7 -115q0 -68 -7 -116q-10 -67 -57 -106.5t-119 -39.5t-119 39.5zM312.5 80.5q29.5 26.5 35.5 70.5q4 39 4 102q0 65 -4 102q-6 44 -35.5 70.5
t-72.5 26.5t-72.5 -26.5t-35.5 -70.5q-4 -37 -4 -102t4 -102q6 -44 35.5 -70.5t72.5 -26.5t72.5 26.5zM123 582q-2 4 2 8l74 106q4 6 12 6h54q8 0 12 -6l76 -106q2 -2 2 -6q0 -2 -2 -4t-6 -2h-41q-7 0 -12 6l-52 79q-1 2 -3 2t-3 -2l-52 -79q-4 -6 -12 -6h-41q-6 0 -8 4z
" />
    <glyph glyph-name="otilde" unicode="&#xf5;" horiz-adv-x="480" 
d="M121 31.5q-47 39.5 -57 106.5q-7 46 -7 116q0 69 7 114q9 67 56.5 106.5t120.5 39.5q71 0 118.5 -39.5t56.5 -105.5q7 -48 7 -115q0 -68 -7 -116q-10 -67 -57 -106.5t-119 -39.5t-119 39.5zM312.5 80.5q29.5 26.5 35.5 70.5q4 39 4 102q0 65 -4 102q-6 44 -35.5 70.5
t-72.5 26.5t-72.5 -26.5t-35.5 -70.5q-4 -37 -4 -102t4 -102q6 -44 35.5 -70.5t72.5 -26.5t72.5 26.5zM275 607q-13 6 -29 17q-3 2 -12.5 8t-17 9t-15.5 3q-15 0 -25.5 -5.5t-21.5 -20.5q-6 -9 -14 -3l-18 13q-9 5 -4 13q28 53 79 53q16 0 27.5 -5.5t31.5 -17.5
q17 -11 26.5 -16t20.5 -5q27 0 46 28q5 10 14 4l19 -12q4 -3 4 -8t-4 -12q-15 -25 -36.5 -37t-42.5 -12q-15 0 -28 6z" />
    <glyph glyph-name="odieresis" unicode="&#xf6;" horiz-adv-x="480" 
d="M121 31.5q-47 39.5 -57 106.5q-7 46 -7 116q0 69 7 114q9 67 56.5 106.5t120.5 39.5q71 0 118.5 -39.5t56.5 -105.5q7 -48 7 -115q0 -68 -7 -116q-10 -67 -57 -106.5t-119 -39.5t-119 39.5zM312.5 80.5q29.5 26.5 35.5 70.5q4 39 4 102q0 65 -4 102q-6 44 -35.5 70.5
t-72.5 26.5t-72.5 -26.5t-35.5 -70.5q-4 -37 -4 -102t4 -102q6 -44 35.5 -70.5t72.5 -26.5t72.5 26.5zM133 618q-13 13 -13 34q0 20 13 33t33 13q19 0 32 -13t13 -33q0 -21 -12.5 -34t-32.5 -13t-33 13zM283 618q-13 13 -13 34q0 20 13 33t33 13q19 0 32 -13t13 -33
q0 -21 -12.5 -34t-32.5 -13t-33 13z" />
    <glyph glyph-name="divide" unicode="&#xf7;" horiz-adv-x="471" 
d="M197.5 448.5q-15.5 15.5 -15.5 37.5q0 21 15.5 36t37.5 15q21 0 37 -15t16 -36q0 -22 -16 -37.5t-37 -15.5q-22 0 -37.5 15.5zM36 306v38q0 10 10 10h379q10 0 10 -10v-38q0 -10 -10 -10h-379q-10 0 -10 10zM197.5 138q-15.5 15 -15.5 37q0 21 15.5 36.5t37.5 15.5
q21 0 37 -15.5t16 -36.5t-16 -36.5t-37 -15.5q-22 0 -37.5 15z" />
    <glyph glyph-name="oslash" unicode="&#xf8;" horiz-adv-x="491" 
d="M431 254q0 -68 -7 -116q-10 -67 -57 -106.5t-119 -39.5q-59 0 -104 28q-3 2 -5 -2l-26 -44q-4 -9 -14 -3l-32 21q-8 5 -3 13l33 57q2 3 0 6q-19 29 -25 70q-7 46 -7 116q0 69 7 114q9 67 56.5 106.5t120.5 39.5q53 0 94 -23q4 -2 5 1l24 41q2 4 6 5t8 -1l32 -21
q8 -5 3 -13l-28 -50q-2 -3 0 -5q25 -34 31 -79q7 -48 7 -115zM141 147q0 -3 2 -3.5t3 2.5l165 283q1 4 -1 5q-27 18 -62 18q-43 0 -72.5 -26.5t-35.5 -70.5q-4 -37 -4 -102t4 -102zM360 253q0 65 -4 102q-2 12 -4 19q-2 5 -5 0l-170 -290q-2 -4 1 -5q28 -25 70 -25
q43 0 72.5 26.5t35.5 70.5q4 39 4 102z" />
    <glyph glyph-name="ugrave" unicode="&#xf9;" horiz-adv-x="480" 
d="M349 506h51q10 0 10 -10v-486q0 -10 -10 -10h-51q-10 0 -10 10v39q0 3 -1.5 3t-3.5 -2q-35 -57 -116 -57q-68 0 -111 40t-43 116v347q0 10 10 10h51q10 0 10 -10v-329q0 -53 26 -82.5t73 -29.5q49 0 77 31.5t28 84.5v325q0 10 10 10zM263 583q0 -6 -9 -6h-39q-7 0 -12 7
l-69 109q-2 4 -2 6q0 6 8 6h48q7 0 12 -7l61 -109q2 -4 2 -6z" />
    <glyph glyph-name="uacute" unicode="&#xfa;" horiz-adv-x="480" 
d="M349 506h51q10 0 10 -10v-486q0 -10 -10 -10h-51q-10 0 -10 10v39q0 3 -1.5 3t-3.5 -2q-35 -57 -116 -57q-68 0 -111 40t-43 116v347q0 10 10 10h51q10 0 10 -10v-329q0 -53 26 -82.5t73 -29.5q49 0 77 31.5t28 84.5v325q0 10 10 10zM195 580.5q-2 3.5 1 8.5l61 109
q5 7 12 7h48q6 0 7.5 -3.5t-1.5 -8.5l-69 -109q-5 -7 -12 -7h-39q-6 0 -8 3.5z" />
    <glyph glyph-name="ucircumflex" unicode="&#xfb;" horiz-adv-x="480" 
d="M349 506h51q10 0 10 -10v-486q0 -10 -10 -10h-51q-10 0 -10 10v39q0 3 -1.5 3t-3.5 -2q-35 -57 -116 -57q-68 0 -111 40t-43 116v347q0 10 10 10h51q10 0 10 -10v-329q0 -53 26 -82.5t73 -29.5q49 0 77 31.5t28 84.5v325q0 10 10 10zM121 574q-2 4 2 8l74 106q4 6 12 6
h54q8 0 12 -6l76 -106q2 -2 2 -6q0 -2 -2 -4t-6 -2h-41q-7 0 -12 6l-52 79q-1 2 -3 2t-3 -2l-52 -79q-4 -6 -12 -6h-41q-6 0 -8 4z" />
    <glyph glyph-name="udieresis" unicode="&#xfc;" horiz-adv-x="480" 
d="M349 506h51q10 0 10 -10v-486q0 -10 -10 -10h-51q-10 0 -10 10v39q0 3 -1.5 3t-3.5 -2q-35 -57 -116 -57q-68 0 -111 40t-43 116v347q0 10 10 10h51q10 0 10 -10v-329q0 -53 26 -82.5t73 -29.5q49 0 77 31.5t28 84.5v325q0 10 10 10zM131 610q-13 13 -13 34q0 20 13 33
t33 13q19 0 32 -13t13 -33q0 -21 -12.5 -34t-32.5 -13t-33 13zM281 610q-13 13 -13 34q0 20 13 33t33 13q19 0 32 -13t13 -33q0 -21 -12.5 -34t-32.5 -13t-33 13z" />
    <glyph glyph-name="yacute" unicode="&#xfd;" horiz-adv-x="414" 
d="M44 -190v41q0 10 6 10h6q35 0 54.5 11t32.5 39t28 86q1 1 0.5 3.5l-0.5 2.5l-149 492l-1 3q0 8 10 8h54q9 0 11 -8l109 -396q1 -2 2.5 -2t2.5 2l108 395q2 9 11 9h54q5 0 7.5 -3t1.5 -8l-163 -539q-20 -67 -39.5 -99t-49 -44.5t-83.5 -12.5h-6q-7 0 -7 10zM164 582.5
q-2 3.5 1 8.5l61 109q5 7 12 7h48q6 0 7.5 -3.5t-1.5 -8.5l-69 -109q-5 -7 -12 -7h-39q-6 0 -8 3.5z" />
    <glyph glyph-name="thorn" unicode="&#xfe;" horiz-adv-x="477" 
d="M422 252q0 -74 -8 -116q-14 -70 -53.5 -107t-101.5 -37q-77 0 -115 56q-1 2 -3 1t-2 -3v-236q0 -10 -10 -10h-51q-10 0 -10 10v880q0 10 10 10h51q10 0 10 -10v-229q0 -3 2 -3.5t3 2.5q36 54 112 54q66 0 106.5 -38t52.5 -108q7 -41 7 -116zM351 253q0 72 -11 115
q-9 38 -35 61t-65 23t-63 -23t-31 -63q-6 -30 -7 -47v-133q2 -24 6 -45q8 -40 32.5 -63.5t63.5 -23.5q41 0 67 23.5t34 64.5q9 39 9 111z" />
    <glyph glyph-name="ydieresis" unicode="&#xff;" horiz-adv-x="414" 
d="M44 -190v41q0 10 6 10h6q35 0 54.5 11t32.5 39t28 86q1 1 0.5 3.5l-0.5 2.5l-149 492l-1 3q0 8 10 8h54q9 0 11 -8l109 -396q1 -2 2.5 -2t2.5 2l108 395q2 9 11 9h54q5 0 7.5 -3t1.5 -8l-163 -539q-20 -67 -39.5 -99t-49 -44.5t-83.5 -12.5h-6q-7 0 -7 10zM100 612
q-13 13 -13 34q0 20 13 33t33 13q19 0 32 -13t13 -33q0 -21 -12.5 -34t-32.5 -13t-33 13zM250 612q-13 13 -13 34q0 20 13 33t33 13q19 0 32 -13t13 -33q0 -21 -12.5 -34t-32.5 -13t-33 13z" />
    <glyph glyph-name="Amacron" unicode="&#x100;" horiz-adv-x="531" 
d="M423 9l-33 125q-1 3 -5 3h-239q-4 0 -5 -3l-33 -125q-2 -9 -11 -9h-52q-5 0 -7.5 3t-1.5 8l186 680q2 9 11 9h64q9 0 11 -9l187 -680l1 -3q0 -8 -10 -8h-52q-9 0 -11 9zM158.5 196.5q1.5 -1.5 3.5 -1.5h207q2 0 3.5 1.5t0.5 2.5l-105 400q-1 2 -2 2t-2 -2l-106 -400
q-1 -1 0.5 -2.5zM147 799v31q0 10 10 10h215q10 0 10 -10v-31q0 -10 -10 -10h-215q-10 0 -10 10z" />
    <glyph glyph-name="amacron" unicode="&#x101;" horiz-adv-x="461" 
d="M357 468q46 -46 46 -122v-336q0 -10 -10 -10h-51q-10 0 -10 10v36q0 2 -1.5 3t-3.5 -1q-23 -28 -57.5 -42t-76.5 -14q-63 0 -107 34t-44 111q0 80 52 121.5t141 41.5h93q4 0 4 4v38q0 51 -26 80.5t-75 29.5q-39 0 -65.5 -19.5t-30.5 -51.5q-1 -9 -11 -9l-55 3
q-5 0 -7.5 3t-1.5 7q7 58 54 93.5t117 35.5q80 0 126 -46zM295.5 81.5q36.5 27.5 36.5 76.5v81q0 4 -4 4h-89q-56 0 -90.5 -26.5t-34.5 -75.5q0 -44 26.5 -65.5t68.5 -21.5q50 0 86.5 27.5zM113 613v31q0 10 10 10h215q10 0 10 -10v-31q0 -10 -10 -10h-215q-10 0 -10 10z
" />
    <glyph glyph-name="Abreve" unicode="&#x102;" horiz-adv-x="531" 
d="M423 9l-33 125q-1 3 -5 3h-239q-4 0 -5 -3l-33 -125q-2 -9 -11 -9h-52q-5 0 -7.5 3t-1.5 8l186 680q2 9 11 9h64q9 0 11 -9l187 -680l1 -3q0 -8 -10 -8h-52q-9 0 -11 9zM158.5 196.5q1.5 -1.5 3.5 -1.5h207q2 0 3.5 1.5t0.5 2.5l-105 400q-1 2 -2 2t-2 -2l-106 -400
q-1 -1 0.5 -2.5zM192 779.5q-30 27.5 -34 68.5q0 10 10 10h23q10 0 11 -10q3 -26 20.5 -42t42.5 -16q24 0 42 16.5t21 41.5q1 10 11 10h23q10 0 10 -10q-4 -42 -34 -69t-73 -27t-73 27.5z" />
    <glyph glyph-name="abreve" unicode="&#x103;" horiz-adv-x="461" 
d="M357 468q46 -46 46 -122v-336q0 -10 -10 -10h-51q-10 0 -10 10v36q0 2 -1.5 3t-3.5 -1q-23 -28 -57.5 -42t-76.5 -14q-63 0 -107 34t-44 111q0 80 52 121.5t141 41.5h93q4 0 4 4v38q0 51 -26 80.5t-75 29.5q-39 0 -65.5 -19.5t-30.5 -51.5q-1 -9 -11 -9l-55 3
q-5 0 -7.5 3t-1.5 7q7 58 54 93.5t117 35.5q80 0 126 -46zM295.5 81.5q36.5 27.5 36.5 76.5v81q0 4 -4 4h-89q-56 0 -90.5 -26.5t-34.5 -75.5q0 -44 26.5 -65.5t68.5 -21.5q50 0 86.5 27.5zM158 593.5q-30 27.5 -34 68.5q0 10 10 10h23q10 0 11 -10q3 -26 20.5 -42t42.5 -16
q24 0 42 16.5t21 41.5q1 10 11 10h23q10 0 10 -10q-4 -42 -34 -69t-73 -27t-73 27.5z" />
    <glyph glyph-name="Aogonek" unicode="&#x104;" horiz-adv-x="552" 
d="M423 9l-33 125q-1 3 -5 3h-239q-4 0 -5 -3l-33 -125q-2 -9 -11 -9h-52q-5 0 -7.5 3t-1.5 8l186 680q2 9 11 9h64q9 0 11 -9l187 -680l1 -3q0 -8 -10 -8h-52q-9 0 -11 9zM158.5 196.5q1.5 -1.5 3.5 -1.5h207q2 0 3.5 1.5t0.5 2.5l-105 400q-1 2 -2 2t-2 -2l-106 -400
q-1 -1 0.5 -2.5zM508 -173q0 -6 -7 -9q-20 -4 -34 -4q-36 0 -61 19t-25 63q0 54 53 100q5 4 13 4h26q8 0 8 -5q0 -4 -4 -7q-45 -43 -45 -82q0 -8 1 -12q6 -36 42 -36q12 0 18 2l3 1q7 0 9 -9l3 -22v-3z" />
    <glyph glyph-name="aogonek" unicode="&#x105;" horiz-adv-x="600" 
d="M410 -139q6 0 8 -8l4 -23v-2q0 -7 -8 -9q-18 -5 -36 -5q-35 0 -59.5 19t-24.5 63q0 53 53 99q2 1 2.5 3t-1.5 2h-6q-10 0 -10 10v36q0 2 -1.5 3t-3.5 -1q-23 -28 -57.5 -42t-76.5 -14q-63 0 -107 34t-44 111q0 80 52 121.5t141 41.5h93q4 0 4 4v38q0 51 -26 80.5
t-75 29.5q-39 0 -65.5 -19.5t-30.5 -51.5q-1 -9 -11 -9l-55 3q-4 0 -7 3t-2 8q7 58 54.5 93t116.5 35q80 0 126 -46t46 -122v-346l-5 -5q-53 -46 -53 -89q0 -8 1 -12q6 -36 42 -36q12 0 18 2zM295.5 81.5q36.5 27.5 36.5 76.5v81q0 4 -4 4h-89q-56 0 -90.5 -26.5
t-34.5 -75.5q0 -44 26.5 -65.5t68.5 -21.5q50 0 86.5 27.5z" />
    <glyph glyph-name="Cacute" unicode="&#x106;" horiz-adv-x="526" 
d="M119.5 46q-55.5 54 -55.5 143v323q0 89 55.5 142.5t146.5 53.5q92 0 147.5 -53t55.5 -141v-9q0 -10 -10 -10l-51 -2q-10 0 -10 9v14q0 58 -36.5 94t-95.5 36t-95 -35.5t-36 -94.5v-332q0 -59 36 -94.5t95 -35.5t95.5 36t36.5 94v14q0 9 10 9l51 -3q10 0 10 -8v-9
q0 -88 -55.5 -141.5t-147.5 -53.5q-91 0 -146.5 54zM223 782.5q-2 3.5 1 8.5l61 109q5 7 12 7h48q6 0 7.5 -3.5t-1.5 -8.5l-69 -109q-5 -7 -12 -7h-39q-6 0 -8 3.5z" />
    <glyph glyph-name="cacute" unicode="&#x107;" horiz-adv-x="461" 
d="M120 31.5q-47 39.5 -57 106.5q-6 51 -6 116q0 51 6 115q9 65 57 105t119 40t119.5 -38t56.5 -95l3 -21v-2q0 -4 -2.5 -6.5t-6.5 -2.5l-51 -3q-9 0 -11 9q0 9 -1 12q-5 35 -34.5 60t-72.5 25q-44 0 -72.5 -27t-33.5 -70t-5 -102q0 -60 5 -103q5 -44 33.5 -70t72.5 -26
t73.5 25t33.5 61l1 8q2 11 11 9l50 -4q9 -2 9 -9v-4q0 -4 -2 -12q-7 -59 -55.5 -97.5t-120.5 -38.5t-119 39.5zM195 588.5q-2 3.5 1 8.5l61 109q5 7 12 7h48q6 0 7.5 -3.5t-1.5 -8.5l-69 -109q-5 -7 -12 -7h-39q-6 0 -8 3.5z" />
    <glyph glyph-name="Cdotaccent" unicode="&#x10a;" horiz-adv-x="526" 
d="M119.5 46q-55.5 54 -55.5 143v323q0 89 55.5 142.5t146.5 53.5q92 0 147.5 -53t55.5 -141v-9q0 -10 -10 -10l-51 -2q-10 0 -10 9v14q0 58 -36.5 94t-95.5 36t-95 -35.5t-36 -94.5v-332q0 -59 36 -94.5t95 -35.5t95.5 36t36.5 94v14q0 9 10 9l51 -3q10 0 10 -8v-9
q0 -88 -55.5 -141.5t-147.5 -53.5q-91 0 -146.5 54zM234 797.5q-12 12.5 -12 31.5q0 20 12 32t32 12q19 0 30.5 -12t11.5 -32t-11.5 -32t-30.5 -12q-20 0 -32 12.5z" />
    <glyph glyph-name="cdotaccent" unicode="&#x10b;" horiz-adv-x="461" 
d="M120 31.5q-47 39.5 -57 106.5q-6 51 -6 116q0 51 6 115q9 65 57 105t119 40t119.5 -38t56.5 -95l3 -21v-2q0 -4 -2.5 -6.5t-6.5 -2.5l-51 -3q-9 0 -11 9q0 9 -1 12q-5 35 -34.5 60t-72.5 25q-44 0 -72.5 -27t-33.5 -70t-5 -102q0 -60 5 -103q5 -44 33.5 -70t72.5 -26
t73.5 25t33.5 61l1 8q2 11 11 9l50 -4q9 -2 9 -9v-4q0 -4 -2 -12q-7 -59 -55.5 -97.5t-120.5 -38.5t-119 39.5zM206 603.5q-12 12.5 -12 31.5q0 20 12 32t32 12q19 0 30.5 -12t11.5 -32t-11.5 -32t-30.5 -12q-20 0 -32 12.5z" />
    <glyph glyph-name="Ccaron" unicode="&#x10c;" horiz-adv-x="526" 
d="M119.5 46q-55.5 54 -55.5 143v323q0 89 55.5 142.5t146.5 53.5q92 0 147.5 -53t55.5 -141v-9q0 -10 -10 -10l-51 -2q-10 0 -10 9v14q0 58 -36.5 94t-95.5 36t-95 -35.5t-36 -94.5v-332q0 -59 36 -94.5t95 -35.5t95.5 36t36.5 94v14q0 9 10 9l51 -3q10 0 10 -8v-9
q0 -88 -55.5 -141.5t-147.5 -53.5q-91 0 -146.5 54zM225 775l-73 106l-2 5q0 7 9 7h39q8 0 12 -6l53 -79q1 -1 3 -1t3 1l52 79q4 6 12 6h38q6 0 8 -4t-2 -8l-74 -106q-4 -6 -12 -6h-54q-8 0 -12 6z" />
    <glyph glyph-name="ccaron" unicode="&#x10d;" horiz-adv-x="461" 
d="M120 31.5q-47 39.5 -57 106.5q-6 51 -6 116q0 51 6 115q9 65 57 105t119 40t119.5 -38t56.5 -95l3 -21v-2q0 -4 -2.5 -6.5t-6.5 -2.5l-51 -3q-9 0 -11 9q0 9 -1 12q-5 35 -34.5 60t-72.5 25q-44 0 -72.5 -27t-33.5 -70t-5 -102q0 -60 5 -103q5 -44 33.5 -70t72.5 -26
t73.5 25t33.5 61l1 8q2 11 11 9l50 -4q9 -2 9 -9v-4q0 -4 -2 -12q-7 -59 -55.5 -97.5t-120.5 -38.5t-119 39.5zM197 581l-73 106l-2 5q0 7 9 7h39q8 0 12 -6l53 -79q1 -1 3 -1t3 1l52 79q4 6 12 6h38q6 0 8 -4t-2 -8l-74 -106q-4 -6 -12 -6h-54q-8 0 -12 6z" />
    <glyph glyph-name="Dcaron" unicode="&#x10e;" horiz-adv-x="542" 
d="M83 10v680q0 10 10 10h195q89 0 140.5 -51t51.5 -139v-320q0 -88 -51.5 -139t-140.5 -51h-195q-10 0 -10 10zM158 62h131q55 1 87 36.5t33 97.5v308q0 62 -32 98t-88 36h-131q-4 0 -4 -4v-568q0 -4 4 -4zM229 764l-73 107l-2 5q0 7 9 7h39q8 0 12 -6l53 -79q1 -1 3 -1
t3 1l52 79q4 6 12 6h38q6 0 8 -3.5t-1 -8.5l-75 -107q-4 -6 -12 -6h-54q-8 0 -12 6z" />
    <glyph glyph-name="dcaron" unicode="&#x10f;" horiz-adv-x="597" 
d="M350 700h51q10 0 10 -10v-680q0 -10 -10 -10h-51q-10 0 -10 10v39q0 3 -2 3.5t-3 -2.5q-38 -58 -117 -58q-62 0 -101.5 37t-53.5 107q-8 42 -8 116q0 75 7 116q12 70 52.5 108t106.5 38q80 0 114 -58q2 -2 3.5 -2t1.5 3v233q0 10 10 10zM340 253q0 74 -9 113
q-7 40 -31 63t-63 23t-65 -23t-35 -61q-11 -43 -11 -115t9 -111q8 -41 34 -64.5t67 -23.5q39 0 63.5 23.5t32.5 63.5t8 112zM464 580.5q-2 3.5 1 8.5l61 109q5 7 12 7h48q6 0 7.5 -3.5t-1.5 -8.5l-69 -109q-5 -7 -12 -7h-39q-6 0 -8 3.5z" />
    <glyph glyph-name="Dcroat" unicode="&#x110;" horiz-adv-x="596" 
d="M482.5 649q51.5 -51 51.5 -139v-320q0 -88 -51.5 -139t-140.5 -51h-195q-10 0 -10 10v327q0 4 -4 4h-40q-10 0 -10 10v28q0 10 10 10h40q4 0 4 4v297q0 10 10 10h195q89 0 140.5 -51zM463 504q0 62 -32 98t-88 36h-131q-4 0 -4 -4v-241q0 -4 4 -4h97q10 0 10 -10v-28
q0 -10 -10 -10h-97q-4 0 -4 -4v-271q0 -4 4 -4h131q55 1 87 36.5t33 97.5v308z" />
    <glyph glyph-name="dcroat" unicode="&#x111;" horiz-adv-x="600" 
d="M475 607v-27q0 -10 -10 -10h-50q-4 0 -4 -4v-556q0 -10 -10 -10h-51q-10 0 -10 10v39q0 3 -2 3.5t-3 -2.5q-38 -58 -117 -58q-62 0 -101.5 37t-53.5 107q-8 42 -8 116q0 75 7 116q12 70 52.5 108t106.5 38q80 0 114 -58q2 -2 3.5 -2t1.5 3v109q0 4 -4 4h-145
q-10 0 -10 10v27q0 10 10 10h145q4 0 4 4v69q0 10 10 10h51q10 0 10 -10v-69q0 -4 4 -4h50q10 0 10 -10zM340 253q0 74 -9 113q-7 40 -31 63t-63 23t-65 -23t-35 -61q-11 -43 -11 -115t9 -111q8 -41 34 -64.5t67 -23.5q39 0 63.5 23.5t32.5 63.5t8 112z" />
    <glyph glyph-name="Emacron" unicode="&#x112;" horiz-adv-x="517" 
d="M458 638h-300q-4 0 -4 -4v-248q0 -4 4 -4h202q10 0 10 -10v-42q0 -10 -10 -10h-202q-4 0 -4 -4v-250q0 -4 4 -4h300q10 0 10 -10v-42q0 -10 -10 -10h-365q-10 0 -10 10v680q0 10 10 10h365q10 0 10 -10v-42q0 -10 -10 -10zM155 810v31q0 10 10 10h215q10 0 10 -10v-31
q0 -10 -10 -10h-215q-10 0 -10 10z" />
    <glyph glyph-name="emacron" unicode="&#x113;" horiz-adv-x="471" 
d="M309 74q28 20 40 53q3 10 12 7l41 -11q10 -3 7 -12q-15 -54 -60 -86.5t-110 -32.5q-70 0 -115.5 37.5t-56.5 101.5q-9 46 -9 123q0 79 4 112q8 67 55.5 107.5t119.5 40.5q79 0 125 -44t53 -118q4 -47 4 -114q0 -10 -10 -10h-277q-4 0 -4 -4q0 -43 3 -73q5 -44 35.5 -70.5
t75.5 -26.5q39 0 67 20zM165 426q-28 -26 -33 -69q-2 -21 -4 -68q0 -4 4 -4h212q4 0 4 4q-2 48 -4 66q-5 43 -34 70t-73 27t-72 -26zM119 613v31q0 10 10 10h215q10 0 10 -10v-31q0 -10 -10 -10h-215q-10 0 -10 10z" />
    <glyph glyph-name="Edotaccent" unicode="&#x116;" horiz-adv-x="517" 
d="M458 638h-300q-4 0 -4 -4v-248q0 -4 4 -4h202q10 0 10 -10v-42q0 -10 -10 -10h-202q-4 0 -4 -4v-250q0 -4 4 -4h300q10 0 10 -10v-42q0 -10 -10 -10h-365q-10 0 -10 10v680q0 10 10 10h365q10 0 10 -10v-42q0 -10 -10 -10zM241 800.5q-12 12.5 -12 31.5q0 20 12 32t32 12
q19 0 30.5 -12t11.5 -32t-11.5 -32t-30.5 -12q-20 0 -32 12.5z" />
    <glyph glyph-name="edotaccent" unicode="&#x117;" horiz-adv-x="471" 
d="M309 74q28 20 40 53q3 10 12 7l41 -11q10 -3 7 -12q-15 -54 -60 -86.5t-110 -32.5q-70 0 -115.5 37.5t-56.5 101.5q-9 46 -9 123q0 79 4 112q8 67 55.5 107.5t119.5 40.5q79 0 125 -44t53 -118q4 -47 4 -114q0 -10 -10 -10h-277q-4 0 -4 -4q0 -43 3 -73q5 -44 35.5 -70.5
t75.5 -26.5q39 0 67 20zM165 426q-28 -26 -33 -69q-2 -21 -4 -68q0 -4 4 -4h212q4 0 4 4q-2 48 -4 66q-5 43 -34 70t-73 27t-72 -26zM205 603.5q-12 12.5 -12 31.5q0 20 12 32t32 12q19 0 30.5 -12t11.5 -32t-11.5 -32t-30.5 -12q-20 0 -32 12.5z" />
    <glyph glyph-name="Eogonek" unicode="&#x118;" horiz-adv-x="517" 
d="M458 638h-300q-4 0 -4 -4v-248q0 -4 4 -4h202q10 0 10 -10v-42q0 -10 -10 -10h-202q-4 0 -4 -4v-250q0 -4 4 -4h300q10 0 10 -10v-42q0 -10 -10 -10h-155q-3 0 -5 -2q-49 -46 -49 -86q0 -24 12 -35.5t31 -11.5q12 0 18 2l4 1q6 0 8 -8l4 -23v-2q0 -7 -8 -9q-18 -5 -36 -5
q-30 0 -52.5 14t-29.5 46q-2 7 -2 22q0 50 45 92q2 2 1.5 3.5t-2.5 1.5h-149q-10 0 -10 10v680q0 10 10 10h365q10 0 10 -10v-42q0 -10 -10 -10z" />
    <glyph glyph-name="eogonek" unicode="&#x119;" horiz-adv-x="471" 
d="M309 74q28 20 40 53q3 10 12 7l41 -11q10 -3 7 -12q-14 -48 -49.5 -79t-88.5 -38q-3 0 -5 -2q-52 -45 -52 -88q0 -8 1 -12q6 -36 42 -36q12 0 18 2l4 1q6 0 8 -8l4 -23v-2q0 -7 -8 -9q-18 -5 -36 -5q-35 0 -59.5 19t-24.5 63q0 52 48 95q5 3 -1 5q-59 7 -96 43.5
t-47 93.5q-9 46 -9 123q0 79 4 112q8 67 55.5 107.5t119.5 40.5q79 0 125 -44t53 -118q4 -47 4 -114q0 -10 -10 -10h-277q-4 0 -4 -4q0 -43 3 -73q5 -44 35.5 -70.5t75.5 -26.5q39 0 67 20zM165 426q-28 -26 -33 -69q-2 -21 -4 -68q0 -4 4 -4h212q4 0 4 4q-2 48 -4 66
q-5 43 -34 70t-73 27t-72 -26z" />
    <glyph glyph-name="Ecaron" unicode="&#x11a;" horiz-adv-x="517" 
d="M458 638h-300q-4 0 -4 -4v-248q0 -4 4 -4h202q10 0 10 -10v-42q0 -10 -10 -10h-202q-4 0 -4 -4v-250q0 -4 4 -4h300q10 0 10 -10v-42q0 -10 -10 -10h-365q-10 0 -10 10v680q0 10 10 10h365q10 0 10 -10v-42q0 -10 -10 -10zM232 778l-73 106l-2 5q0 7 9 7h39q8 0 12 -6
l53 -79q1 -1 3 -1t3 1l52 79q4 6 12 6h38q6 0 8 -4t-2 -8l-74 -106q-4 -6 -12 -6h-54q-8 0 -12 6z" />
    <glyph glyph-name="ecaron" unicode="&#x11b;" horiz-adv-x="471" 
d="M309 74q28 20 40 53q3 10 12 7l41 -11q10 -3 7 -12q-15 -54 -60 -86.5t-110 -32.5q-70 0 -115.5 37.5t-56.5 101.5q-9 46 -9 123q0 79 4 112q8 67 55.5 107.5t119.5 40.5q79 0 125 -44t53 -118q4 -47 4 -114q0 -10 -10 -10h-277q-4 0 -4 -4q0 -43 3 -73q5 -44 35.5 -70.5
t75.5 -26.5q39 0 67 20zM165 426q-28 -26 -33 -69q-2 -21 -4 -68q0 -4 4 -4h212q4 0 4 4q-2 48 -4 66q-5 43 -34 70t-73 27t-72 -26zM196 573l-73 107l-2 5q0 7 9 7h39q8 0 12 -6l53 -79q1 -1 3 -1t3 1l52 79q4 6 12 6h38q6 0 8 -3.5t-1 -8.5l-75 -107q-4 -6 -12 -6h-54
q-8 0 -12 6z" />
    <glyph glyph-name="Gbreve" unicode="&#x11e;" horiz-adv-x="525" 
d="M119.5 45q-55.5 53 -55.5 141v328q0 88 55.5 141t146.5 53q60 0 105.5 -24t71 -67t25.5 -99v-28q0 -10 -10 -10h-51q-10 0 -10 10v28q0 57 -36 92.5t-95 35.5t-95 -35.5t-36 -94.5v-332q0 -58 36.5 -94t95.5 -36t94.5 34t35.5 92v109q0 4 -4 4h-117q-10 0 -10 10v42
q0 10 10 10h182q10 0 10 -10v-156q0 -91 -55 -144t-147 -53q-91 0 -146.5 53zM192 787.5q-30 27.5 -34 68.5q0 10 10 10h23q10 0 11 -10q3 -26 20.5 -42t42.5 -16q24 0 42 16.5t21 41.5q1 10 11 10h23q10 0 10 -10q-4 -42 -34 -69t-73 -27t-73 27.5z" />
    <glyph glyph-name="gbreve" unicode="&#x11f;" horiz-adv-x="474" 
d="M352 506h51q10 0 10 -10v-482q0 -226 -247 -215q-10 1 -10 11l1 45q0 5 3 7.5t7 1.5q94 -3 134.5 34.5t40.5 119.5v33q0 2 -1.5 3t-3.5 -1q-39 -56 -116 -56q-64 0 -107 38.5t-53 104.5q-6 44 -6 113q0 75 7 118q8 65 50.5 104t106.5 39q78 0 118 -55q2 -2 3.5 -1.5
t1.5 2.5v36q0 10 10 10zM342 254q0 60 -3 102q-4 42 -31.5 69t-70.5 27t-71.5 -27t-34.5 -69q-4 -36 -4 -102q0 -50 4 -100q5 -42 34 -69t72 -27t70.5 27t31.5 69q3 39 3 100zM169 592.5q-30 27.5 -34 68.5q0 10 10 10h23q10 0 11 -10q3 -26 20.5 -42t42.5 -16q24 0 42 16.5
t21 41.5q1 10 11 10h23q10 0 10 -10q-4 -42 -34 -69t-73 -27t-73 27.5z" />
    <glyph glyph-name="Gdotaccent" unicode="&#x120;" horiz-adv-x="525" 
d="M119.5 45q-55.5 53 -55.5 141v328q0 88 55.5 141t146.5 53q60 0 105.5 -24t71 -67t25.5 -99v-28q0 -10 -10 -10h-51q-10 0 -10 10v28q0 57 -36 92.5t-95 35.5t-95 -35.5t-36 -94.5v-332q0 -58 36.5 -94t95.5 -36t94.5 34t35.5 92v109q0 4 -4 4h-117q-10 0 -10 10v42
q0 10 10 10h182q10 0 10 -10v-156q0 -91 -55 -144t-147 -53q-91 0 -146.5 53zM233 797.5q-12 12.5 -12 31.5q0 20 12 32t32 12q19 0 30.5 -12t11.5 -32t-11.5 -32t-30.5 -12q-20 0 -32 12.5z" />
    <glyph glyph-name="gdotaccent" unicode="&#x121;" horiz-adv-x="474" 
d="M352 506h51q10 0 10 -10v-482q0 -226 -247 -215q-10 1 -10 11l1 45q0 5 3 7.5t7 1.5q94 -3 134.5 34.5t40.5 119.5v33q0 2 -1.5 3t-3.5 -1q-39 -56 -116 -56q-64 0 -107 38.5t-53 104.5q-6 44 -6 113q0 75 7 118q8 65 50.5 104t106.5 39q78 0 118 -55q2 -2 3.5 -1.5
t1.5 2.5v36q0 10 10 10zM342 254q0 60 -3 102q-4 42 -31.5 69t-70.5 27t-71.5 -27t-34.5 -69q-4 -36 -4 -102q0 -50 4 -100q5 -42 34 -69t72 -27t70.5 27t31.5 69q3 39 3 100zM210 602.5q-12 12.5 -12 31.5q0 20 12 32t32 12q19 0 30.5 -12t11.5 -32t-11.5 -32t-30.5 -12
q-20 0 -32 12.5z" />
    <glyph glyph-name="uni0122" unicode="&#x122;" horiz-adv-x="525" 
d="M119.5 45q-55.5 53 -55.5 141v328q0 88 55.5 141t146.5 53q60 0 105.5 -24t71 -67t25.5 -99v-28q0 -10 -10 -10h-51q-10 0 -10 10v28q0 57 -36 92.5t-95 35.5t-95 -35.5t-36 -94.5v-332q0 -58 36.5 -94t95.5 -36t94.5 34t35.5 92v109q0 4 -4 4h-117q-10 0 -10 10v42
q0 10 10 10h182q10 0 10 -10v-156q0 -91 -55 -144t-147 -53q-91 0 -146.5 53zM204 -189.5q-2 3.5 1 8.5l61 109q5 7 12 7h48q6 0 7.5 -3.5t-1.5 -8.5l-69 -109q-5 -7 -12 -7h-39q-6 0 -8 3.5z" />
    <glyph glyph-name="uni0123" unicode="&#x123;" horiz-adv-x="474" 
d="M302 694.5q2 -3.5 -1 -8.5l-61 -109q-5 -7 -12 -7h-48q-6 0 -7.5 3.5t1.5 8.5l69 109q5 7 12 7h39q6 0 8 -3.5zM352 506h51q10 0 10 -10v-482q0 -226 -247 -215q-10 1 -10 11l1 45q0 5 3 7.5t7 1.5q94 -3 134.5 34.5t40.5 119.5v33q0 2 -1.5 3t-3.5 -1q-39 -56 -116 -56
q-64 0 -107 38.5t-53 104.5q-6 44 -6 113q0 75 7 118q8 65 50.5 104t106.5 39q78 0 118 -55q2 -2 3.5 -1.5t1.5 2.5v36q0 10 10 10zM342 254q0 60 -3 102q-4 42 -31.5 69t-70.5 27t-71.5 -27t-34.5 -69q-4 -36 -4 -102q0 -50 4 -100q5 -42 34 -69t72 -27t70.5 27t31.5 69
q3 39 3 100z" />
    <glyph glyph-name="Hbar" unicode="&#x126;" horiz-adv-x="563" 
d="M535 549v-31q0 -10 -10 -10h-40q-4 0 -4 -4v-494q0 -10 -10 -10h-51q-10 0 -10 10v306q0 4 -4 4h-248q-4 0 -4 -4v-306q0 -10 -10 -10h-51q-10 0 -10 10v494q0 4 -4 4h-41q-10 0 -10 10v31q0 10 10 10h41q4 0 4 4v127q0 10 10 10h51q10 0 10 -10v-127q0 -4 4 -4h248
q4 0 4 4v127q0 10 10 10h51q10 0 10 -10v-127q0 -4 4 -4h40q10 0 10 -10zM410 386v118q0 4 -4 4h-248q-4 0 -4 -4v-118q0 -4 4 -4h248q4 0 4 4z" />
    <glyph glyph-name="hbar" unicode="&#x127;" horiz-adv-x="482" 
d="M375.5 468.5q40.5 -44.5 40.5 -121.5v-337q0 -10 -10 -10h-51q-10 0 -10 10v327q0 52 -27 83t-73 31q-47 0 -75.5 -31.5t-28.5 -84.5v-325q0 -10 -10 -10h-51q-10 0 -10 10v534q0 4 -4 4h-49q-10 0 -10 10v27q0 10 10 10h49q4 0 4 4v91q0 10 10 10h51q10 0 10 -10v-91
q0 -4 4 -4h146q10 0 10 -10v-27q0 -10 -10 -10h-146q-4 0 -4 -4v-85q0 -2 1.5 -3t3.5 1q20 28 50.5 42t68.5 14q70 0 110.5 -44.5z" />
    <glyph glyph-name="Imacron" unicode="&#x12a;" horiz-adv-x="237" 
d="M83 10v680q0 10 10 10h51q10 0 10 -10v-680q0 -10 -10 -10h-51q-10 0 -10 10zM0 810v31q0 10 10 10h215q10 0 10 -10v-31q0 -10 -10 -10h-215q-10 0 -10 10z" />
    <glyph glyph-name="imacron" unicode="&#x12b;" horiz-adv-x="204" 
d="M65 10v486q0 10 10 10h51q10 0 10 -10v-486q0 -10 -10 -10h-51q-10 0 -10 10zM-18 615v31q0 10 10 10h215q10 0 10 -10v-31q0 -10 -10 -10h-215q-10 0 -10 10z" />
    <glyph glyph-name="Iogonek" unicode="&#x12e;" horiz-adv-x="299" 
d="M125 10v680q0 10 10 10h51q10 0 10 -10v-680q0 -10 -10 -10h-51q-10 0 -10 10zM213 -173q0 -6 -7 -9q-20 -4 -34 -4q-36 0 -61 19t-25 63q0 54 53 100q5 4 13 4h26q8 0 8 -5q0 -4 -4 -7q-45 -43 -45 -82q0 -8 1 -12q6 -36 42 -36q12 0 18 2l3 1q7 0 9 -9l3 -22v-3z" />
    <glyph glyph-name="iogonek" unicode="&#x12f;" horiz-adv-x="254" 
d="M103 10v486q0 10 10 10h51q10 0 10 -10v-486q0 -10 -10 -10h-51q-10 0 -10 10zM106 605.5q-12 12.5 -12 31.5q0 20 12 32t32 12q19 0 30.5 -12t11.5 -32t-11.5 -32t-30.5 -12q-20 0 -32 12.5zM190 -173q0 -6 -7 -9q-20 -4 -34 -4q-36 0 -61 19t-25 63q0 54 53 100
q5 4 13 4h26q8 0 8 -5q0 -4 -4 -7q-45 -43 -45 -82q0 -8 1 -12q6 -36 42 -36q12 0 18 2l3 1q7 0 9 -9l3 -22v-3z" />
    <glyph glyph-name="Idotaccent" unicode="&#x130;" horiz-adv-x="237" 
d="M83 10v680q0 10 10 10h51q10 0 10 -10v-680q0 -10 -10 -10h-51q-10 0 -10 10zM86 800.5q-12 12.5 -12 31.5q0 20 12 32t32 12q19 0 30.5 -12t11.5 -32t-11.5 -32t-30.5 -12q-20 0 -32 12.5z" />
    <glyph glyph-name="dotlessi" unicode="&#x131;" horiz-adv-x="204" 
d="M65 10v486q0 10 10 10h51q10 0 10 -10v-486q0 -10 -10 -10h-51q-10 0 -10 10z" />
    <glyph glyph-name="ij" unicode="&#x133;" horiz-adv-x="433" 
d="M74.5 611.5q-14.5 14.5 -14.5 37.5q0 22 14.5 36.5t37.5 14.5t37 -14t14 -37t-14 -37.5t-37 -14.5t-37.5 14.5zM77 10v486q0 10 10 10h51q10 0 10 -10v-486q0 -10 -10 -10h-51q-10 0 -10 10zM290.5 610.5q-14.5 14.5 -14.5 37.5t15 37.5t36 14.5q22 0 37.5 -14.5
t15.5 -37.5t-15 -37.5t-38 -14.5q-22 0 -36.5 14.5zM188 -198v42q0 10 10 10q47 1 70.5 27t23.5 75v540q0 10 10 10h51q10 0 10 -10v-540q0 -84 -37.5 -124t-127.5 -40q-10 0 -10 10z" />
    <glyph glyph-name="uni0136" unicode="&#x136;" horiz-adv-x="531" 
d="M83 10v680q0 10 10 10h51q10 0 10 -10v-332q0 -2 2 -2.5t3 1.5l254 337q4 6 13 6h56q6 0 8 -3.5t-2 -8.5l-200 -274q-1 -3 0 -6l218 -396q2 -4 2 -6q0 -6 -9 -6h-58q-9 0 -12 7l-190 345q-2 5 -5 0l-78 -99q-2 -2 -2 -5v-238q0 -10 -10 -10h-51q-10 0 -10 10zM224 -181.5
q-2 3.5 1 8.5l61 109q5 7 12 7h48q6 0 7.5 -3.5t-1.5 -8.5l-69 -109q-5 -7 -12 -7h-39q-6 0 -8 3.5z" />
    <glyph glyph-name="uni0137" unicode="&#x137;" horiz-adv-x="453" 
d="M70 10v680q0 10 10 10h51q10 0 10 -10v-406q0 -2 2 -3t3 1l181 218q5 6 12 6h57q6 0 8 -3.5t-2 -8.5l-114 -142q-2 -3 -1 -5l135 -335l1 -4q0 -8 -9 -8h-53q-8 0 -11 8l-109 286q-1 2 -3 2.5t-3 -1.5l-92 -111q-2 -4 -2 -5v-169q0 -10 -10 -10h-51q-10 0 -10 10z
M181 -181.5q-2 3.5 1 8.5l61 109q5 7 12 7h48q6 0 7.5 -3.5t-1.5 -8.5l-69 -109q-5 -7 -12 -7h-39q-6 0 -8 3.5z" />
    <glyph glyph-name="Lacute" unicode="&#x139;" horiz-adv-x="482" 
d="M83 10v680q0 10 10 10h51q10 0 10 -10v-624q0 -4 4 -4h291q10 0 10 -10v-42q0 -10 -10 -10h-356q-10 0 -10 10zM75 774.5q-2 3.5 1 8.5l61 109q5 7 12 7h48q6 0 7.5 -3.5t-1.5 -8.5l-69 -109q-5 -7 -12 -7h-39q-6 0 -8 3.5z" />
    <glyph glyph-name="lacute" unicode="&#x13a;" horiz-adv-x="207" 
d="M68 10v680q0 10 10 10h51q10 0 10 -10v-680q0 -10 -10 -10h-51q-10 0 -10 10zM61 774.5q-2 3.5 1 8.5l61 109q5 7 12 7h48q6 0 7.5 -3.5t-1.5 -8.5l-69 -109q-5 -7 -12 -7h-39q-6 0 -8 3.5z" />
    <glyph glyph-name="uni013B" unicode="&#x13b;" horiz-adv-x="482" 
d="M83 10v680q0 10 10 10h51q10 0 10 -10v-624q0 -4 4 -4h291q10 0 10 -10v-42q0 -10 -10 -10h-356q-10 0 -10 10zM183 -181.5q-2 3.5 1 8.5l61 109q5 7 12 7h48q6 0 7.5 -3.5t-1.5 -8.5l-69 -109q-5 -7 -12 -7h-39q-6 0 -8 3.5z" />
    <glyph glyph-name="uni013C" unicode="&#x13c;" horiz-adv-x="207" 
d="M68 10v680q0 10 10 10h51q10 0 10 -10v-680q0 -10 -10 -10h-51q-10 0 -10 10zM1 -181.5q-2 3.5 1 8.5l61 109q5 7 12 7h48q6 0 7.5 -3.5t-1.5 -8.5l-69 -109q-5 -7 -12 -7h-39q-6 0 -8 3.5z" />
    <glyph glyph-name="Lcaron" unicode="&#x13d;" horiz-adv-x="482" 
d="M83 10v680q0 10 10 10h51q10 0 10 -10v-624q0 -4 4 -4h291q10 0 10 -10v-42q0 -10 -10 -10h-356q-10 0 -10 10zM77 759l-73 107l-2 5q0 7 9 7h39q8 0 12 -6l53 -79q1 -1 3 -1t3 1l52 79q4 6 12 6h38q6 0 8 -3.5t-1 -8.5l-75 -107q-4 -6 -12 -6h-54q-8 0 -12 6z" />
    <glyph glyph-name="lcaron" unicode="&#x13e;" horiz-adv-x="207" 
d="M68 10v680q0 10 10 10h51q10 0 10 -10v-680q0 -10 -10 -10h-51q-10 0 -10 10zM63 759l-73 107l-2 5q0 7 9 7h39q8 0 12 -6l53 -79q1 -1 3 -1t3 1l52 79q4 6 12 6h38q6 0 8 -3.5t-1 -8.5l-75 -107q-4 -6 -12 -6h-54q-8 0 -12 6z" />
    <glyph glyph-name="Lslash" unicode="&#x141;" horiz-adv-x="482" 
d="M158 62h291q10 0 10 -10v-42q0 -10 -10 -10h-356q-10 0 -10 10v235q0 2 -1.5 3t-3.5 -1l-85 -63q-2 -2 -6 -2q-5 0 -8 4l-23 28q-2 2 -2 6q0 5 4 8l123 91q2 2 2 5v366q0 10 10 10h51q10 0 10 -10v-310q0 -2 1.5 -3t3.5 1l192 142q2 2 6 2q5 0 8 -4l23 -28q2 -2 2 -6
q0 -5 -4 -8l-230 -170q-2 -2 -2 -5v-235q0 -4 4 -4z" />
    <glyph glyph-name="lslash" unicode="&#x142;" horiz-adv-x="207" 
d="M254 399q0 -4 -6 -9l-106 -63q-3 -1 -3 -5v-312q0 -10 -10 -10h-51q-10 0 -10 10v268q0 2 -1.5 3t-3.5 0l-48 -29l-5 -2q-5 0 -9 6l-17 30q-2 4 -2 6q0 6 5 8l78 46q3 2 3 5v339q0 10 10 10h51q10 0 10 -10v-294q0 -2 1.5 -3t3.5 0l76 45q4 2 6 2q5 0 8 -6l18 -30z" />
    <glyph glyph-name="Nacute" unicode="&#x143;" horiz-adv-x="583" 
d="M83 10v680q0 10 10 10h51q9 0 12 -7l269 -527q2 -2 3.5 -2t1.5 3v523q0 10 10 10h51q10 0 10 -10v-680q0 -10 -10 -10h-52q-9 0 -12 7l-269 529q-2 2 -3.5 1.5t-1.5 -3.5l1 -524q0 -10 -10 -10h-51q-10 0 -10 10zM248 785.5q-2 3.5 1 8.5l61 109q5 7 12 7h48
q6 0 7.5 -3.5t-1.5 -8.5l-69 -109q-5 -7 -12 -7h-39q-6 0 -8 3.5z" />
    <glyph glyph-name="nacute" unicode="&#x144;" horiz-adv-x="482" 
d="M375.5 468.5q40.5 -44.5 40.5 -121.5v-337q0 -10 -10 -10h-51q-10 0 -10 10v327q0 52 -27 83t-73 31q-47 0 -75.5 -31.5t-28.5 -84.5v-325q0 -10 -10 -10h-51q-10 0 -10 10v486q0 10 10 10h51q10 0 10 -10v-37q0 -2 1.5 -3t3.5 1q20 28 50.5 42t68.5 14q70 0 110.5 -44.5
zM201 582.5q-2 3.5 1 8.5l61 109q5 7 12 7h48q6 0 7.5 -3.5t-1.5 -8.5l-69 -109q-5 -7 -12 -7h-39q-6 0 -8 3.5z" />
    <glyph glyph-name="uni0145" unicode="&#x145;" horiz-adv-x="583" 
d="M83 10v680q0 10 10 10h51q9 0 12 -7l269 -527q2 -2 3.5 -2t1.5 3v523q0 10 10 10h51q10 0 10 -10v-680q0 -10 -10 -10h-52q-9 0 -12 7l-269 529q-2 2 -3.5 1.5t-1.5 -3.5l1 -524q0 -10 -10 -10h-51q-10 0 -10 10zM238 -181.5q-2 3.5 1 8.5l61 109q5 7 12 7h48
q6 0 7.5 -3.5t-1.5 -8.5l-69 -109q-5 -7 -12 -7h-39q-6 0 -8 3.5z" />
    <glyph glyph-name="uni0146" unicode="&#x146;" horiz-adv-x="482" 
d="M375.5 468.5q40.5 -44.5 40.5 -121.5v-337q0 -10 -10 -10h-51q-10 0 -10 10v327q0 52 -27 83t-73 31q-47 0 -75.5 -31.5t-28.5 -84.5v-325q0 -10 -10 -10h-51q-10 0 -10 10v486q0 10 10 10h51q10 0 10 -10v-37q0 -2 1.5 -3t3.5 1q20 28 50.5 42t68.5 14q70 0 110.5 -44.5
zM188 -181.5q-2 3.5 1 8.5l61 109q5 7 12 7h48q6 0 7.5 -3.5t-1.5 -8.5l-69 -109q-5 -7 -12 -7h-39q-6 0 -8 3.5z" />
    <glyph glyph-name="Ncaron" unicode="&#x147;" horiz-adv-x="583" 
d="M83 10v680q0 10 10 10h51q9 0 12 -7l269 -527q2 -2 3.5 -2t1.5 3v523q0 10 10 10h51q10 0 10 -10v-680q0 -10 -10 -10h-52q-9 0 -12 7l-269 529q-2 2 -3.5 1.5t-1.5 -3.5l1 -524q0 -10 -10 -10h-51q-10 0 -10 10zM250 778l-73 106l-2 5q0 7 9 7h39q8 0 12 -6l53 -79
q1 -1 3 -1t3 1l52 79q4 6 12 6h38q6 0 8 -4t-2 -8l-74 -106q-4 -6 -12 -6h-54q-8 0 -12 6z" />
    <glyph glyph-name="ncaron" unicode="&#x148;" horiz-adv-x="482" 
d="M375.5 468.5q40.5 -44.5 40.5 -121.5v-337q0 -10 -10 -10h-51q-10 0 -10 10v327q0 52 -27 83t-73 31q-47 0 -75.5 -31.5t-28.5 -84.5v-325q0 -10 -10 -10h-51q-10 0 -10 10v486q0 10 10 10h51q10 0 10 -10v-37q0 -2 1.5 -3t3.5 1q20 28 50.5 42t68.5 14q70 0 110.5 -44.5
zM203 575l-73 106l-2 5q0 7 9 7h39q8 0 12 -6l53 -79q1 -1 3 -1t3 1l52 79q4 6 12 6h38q6 0 8 -4t-2 -8l-74 -106q-4 -6 -12 -6h-54q-8 0 -12 6z" />
    <glyph glyph-name="Eng" unicode="&#x14a;" horiz-adv-x="585" 
d="M502 513v0v-505q0 -59 -11 -93.5t-43 -53t-95 -18.5q-10 0 -10 10v42q0 10 10 10q46 1 60.5 24t14.5 74q0 4 -1 5l-269 528q-2 2 -3.5 1.5t-1.5 -3.5l1 -524q0 -10 -10 -10h-51q-10 0 -10 10v680q0 10 10 10h51q9 0 12 -7l267 -523q2 -2 3.5 -2t1.5 3v332q0 4 0.5 6.5
t0.5 3.5h1v177q0 10 10 10h51q10 0 10 -10v-175z" />
    <glyph glyph-name="eng" unicode="&#x14b;" horiz-adv-x="482" 
d="M417 224h1v-232q0 -80 -31.5 -120t-116.5 -41q-10 0 -10 10v40q0 10 10 10q41 2 59 27.5t18 72.5v6l-1 5q-1 2 -1 8v327q0 52 -27 83t-73 31q-47 0 -75.5 -31.5t-28.5 -84.5v-325q0 -10 -10 -10h-51q-10 0 -10 10v486q0 10 10 10h51q10 0 10 -10v-37q0 -2 1.5 -3t3.5 1
q20 28 50.5 42t68.5 14q70 0 110.5 -44.5t40.5 -121.5v-119z" />
    <glyph glyph-name="Omacron" unicode="&#x14c;" horiz-adv-x="539" 
d="M161.5 17.5q-46.5 25.5 -72 71.5t-25.5 106v309q0 60 25.5 106.5t72 72t107.5 25.5t107.5 -25.5t72.5 -72t26 -106.5v-309q0 -60 -26 -106t-72.5 -71.5t-107.5 -25.5t-107.5 25.5zM367 92q37 38 37 100v314q0 63 -37 101.5t-98 38.5q-60 0 -97 -38.5t-37 -101.5v-314
q0 -62 37 -100t97 -38q61 0 98 38zM151 804v31q0 10 10 10h215q10 0 10 -10v-31q0 -10 -10 -10h-215q-10 0 -10 10z" />
    <glyph glyph-name="omacron" unicode="&#x14d;" horiz-adv-x="480" 
d="M121 31.5q-47 39.5 -57 106.5q-7 46 -7 116q0 69 7 114q9 67 56.5 106.5t120.5 39.5q71 0 118.5 -39.5t56.5 -105.5q7 -48 7 -115q0 -68 -7 -116q-10 -67 -57 -106.5t-119 -39.5t-119 39.5zM312.5 80.5q29.5 26.5 35.5 70.5q4 39 4 102q0 65 -4 102q-6 44 -35.5 70.5
t-72.5 26.5t-72.5 -26.5t-35.5 -70.5q-4 -37 -4 -102t4 -102q6 -44 35.5 -70.5t72.5 -26.5t72.5 26.5zM122 613v31q0 10 10 10h215q10 0 10 -10v-31q0 -10 -10 -10h-215q-10 0 -10 10z" />
    <glyph glyph-name="Ohungarumlaut" unicode="&#x150;" horiz-adv-x="539" 
d="M161.5 17.5q-46.5 25.5 -72 71.5t-25.5 106v309q0 60 25.5 106.5t72 72t107.5 25.5t107.5 -25.5t72.5 -72t26 -106.5v-309q0 -60 -26 -106t-72.5 -71.5t-107.5 -25.5t-107.5 25.5zM367 92q37 38 37 100v314q0 63 -37 101.5t-98 38.5q-60 0 -97 -38.5t-37 -101.5v-314
q0 -62 37 -100t97 -38q61 0 98 38zM170 777.5q-2 3.5 0 8.5l56 109q3 7 12 7h44q6 0 8 -3.5t-1 -8.5l-60 -109q-3 -7 -12 -7h-40q-5 0 -7 3.5zM313.5 777.5q-2.5 3.5 0.5 8.5l59 109q3 7 12 7h41q6 0 8 -3.5t-1 -8.5l-60 -109q-3 -7 -12 -7h-40q-5 0 -7.5 3.5z" />
    <glyph glyph-name="ohungarumlaut" unicode="&#x151;" horiz-adv-x="480" 
d="M121 31.5q-47 39.5 -57 106.5q-7 46 -7 116q0 69 7 114q9 67 56.5 106.5t120.5 39.5q71 0 118.5 -39.5t56.5 -105.5q7 -48 7 -115q0 -68 -7 -116q-10 -67 -57 -106.5t-119 -39.5t-119 39.5zM312.5 80.5q29.5 26.5 35.5 70.5q4 39 4 102q0 65 -4 102q-6 44 -35.5 70.5
t-72.5 26.5t-72.5 -26.5t-35.5 -70.5q-4 -37 -4 -102t4 -102q6 -44 35.5 -70.5t72.5 -26.5t72.5 26.5zM141 586.5q-2 3.5 0 8.5l56 109q3 7 12 7h44q6 0 8 -3.5t-1 -8.5l-60 -109q-3 -7 -12 -7h-40q-5 0 -7 3.5zM284.5 586.5q-2.5 3.5 0.5 8.5l59 109q3 7 12 7h41
q6 0 8 -3.5t-1 -8.5l-60 -109q-3 -7 -12 -7h-40q-5 0 -7.5 3.5z" />
    <glyph glyph-name="OE" unicode="&#x152;" horiz-adv-x="804" 
d="M744 638h-279q-4 0 -4 -4v-248q0 -4 4 -4h181q10 0 10 -10v-42q0 -10 -10 -10h-181q-4 0 -4 -4v-250q0 -4 4 -4h279q10 0 10 -10v-42q0 -10 -10 -10h-344q-10 0 -10 10v39q0 2 -1.5 2.5t-3.5 -1.5q-25 -27 -61 -42.5t-77 -15.5q-52 0 -94 25t-65.5 69.5t-23.5 101.5v323
q0 57 23.5 102t65.5 70t94 25q42 0 77.5 -15.5t60.5 -43.5q2 -2 3.5 -1t1.5 3v39q0 10 10 10h344q10 0 10 -10v-42q0 -10 -10 -10zM354.5 91q35.5 37 35.5 94v328q0 58 -35.5 95.5t-92.5 37.5t-92 -37.5t-35 -95.5v-328q0 -57 35 -94t92 -37t92.5 37z" />
    <glyph glyph-name="oe" unicode="&#x153;" horiz-adv-x="758" 
d="M596 73q28 20 40 53q3 9 12 6l40 -10q10 -3 7 -13q-15 -54 -58.5 -85.5t-107.5 -31.5q-48 0 -85 21t-59 58q-3 3 -6 0q-24 -37 -60.5 -58t-83.5 -21q-71 0 -117.5 40t-55.5 106q-5 34 -5 116t5 115q8 65 55 105t118 40q47 0 83.5 -21t60.5 -58q3 -3 6 0q23 37 59 58
t82 21q72 0 119.5 -40.5t55.5 -105.5q5 -42 5 -126q0 -10 -10 -10h-273q-4 0 -4 -4q0 -45 3 -77q5 -44 34.5 -71t75.5 -27q36 0 64 20zM343 253q0 75 -3 102q-5 43 -33.5 70t-71.5 27t-71 -27t-33 -70q-3 -27 -3 -102q0 -61 3 -102q5 -43 33 -70t71 -27t71.5 27t33.5 70
q3 27 3 102zM455 425q-28 -27 -33 -70l-3 -69q0 -4 4 -4h208q4 0 4 4q0 39 -3 69q-5 43 -33.5 70t-71.5 27q-44 0 -72 -27z" />
    <glyph glyph-name="Racute" unicode="&#x154;" horiz-adv-x="528" 
d="M415 8l-125 311q-1 3 -4 3h-128q-4 0 -4 -4v-308q0 -10 -10 -10h-51q-10 0 -10 10v681q0 10 10 10h212q80 0 129 -53t49 -139q0 -69 -33.5 -117t-90.5 -63q-4 -2 -2 -5l130 -312l1 -4q0 -8 -9 -8h-53q-8 0 -11 8zM154 635v-252q0 -4 4 -4h138q52 0 84 35.5t32 93.5
q0 59 -32 95t-84 36h-138q-4 0 -4 -4zM218 774.5q-2 3.5 1 8.5l61 109q5 7 12 7h48q6 0 7.5 -3.5t-1.5 -8.5l-69 -109q-5 -7 -12 -7h-39q-6 0 -8 3.5z" />
    <glyph glyph-name="racute" unicode="&#x155;" horiz-adv-x="328" 
d="M309 499q7 -3 5 -12l-12 -51q-3 -9 -13 -6q-12 6 -32 6q-10 0 -15 -1q-44 -2 -72.5 -38t-28.5 -89v-298q0 -10 -10 -10h-51q-10 0 -10 10v486q0 10 10 10h51q10 0 10 -10v-63q0 -3 1.5 -3t2.5 2q17 37 45.5 58t67.5 21q29 0 51 -12zM152 587.5q-2 3.5 1 8.5l61 109
q5 7 12 7h48q6 0 7.5 -3.5t-1.5 -8.5l-69 -109q-5 -7 -12 -7h-39q-6 0 -8 3.5z" />
    <glyph glyph-name="uni0156" unicode="&#x156;" horiz-adv-x="528" 
d="M415 8l-125 311q-1 3 -4 3h-128q-4 0 -4 -4v-308q0 -10 -10 -10h-51q-10 0 -10 10v681q0 10 10 10h212q80 0 129 -53t49 -139q0 -69 -33.5 -117t-90.5 -63q-4 -2 -2 -5l130 -312l1 -4q0 -8 -9 -8h-53q-8 0 -11 8zM154 635v-252q0 -4 4 -4h138q52 0 84 35.5t32 93.5
q0 59 -32 95t-84 36h-138q-4 0 -4 -4zM213 -181.5q-2 3.5 1 8.5l61 109q5 7 12 7h48q6 0 7.5 -3.5t-1.5 -8.5l-69 -109q-5 -7 -12 -7h-39q-6 0 -8 3.5z" />
    <glyph glyph-name="uni0157" unicode="&#x157;" horiz-adv-x="330" 
d="M309 499q7 -3 5 -12l-12 -51q-3 -9 -13 -6q-12 6 -32 6q-10 0 -15 -1q-44 -2 -72.5 -38t-28.5 -89v-298q0 -10 -10 -10h-51q-10 0 -10 10v486q0 10 10 10h51q10 0 10 -10v-63q0 -3 1.5 -3t2.5 2q17 37 45.5 58t67.5 21q29 0 51 -12zM3 -181.5q-2 3.5 1 8.5l61 109
q5 7 12 7h48q6 0 7.5 -3.5t-1.5 -8.5l-69 -109q-5 -7 -12 -7h-39q-6 0 -8 3.5z" />
    <glyph glyph-name="Rcaron" unicode="&#x158;" horiz-adv-x="528" 
d="M415 8l-125 311q-1 3 -4 3h-128q-4 0 -4 -4v-308q0 -10 -10 -10h-51q-10 0 -10 10v681q0 10 10 10h212q80 0 129 -53t49 -139q0 -69 -33.5 -117t-90.5 -63q-4 -2 -2 -5l130 -312l1 -4q0 -8 -9 -8h-53q-8 0 -11 8zM154 635v-252q0 -4 4 -4h138q52 0 84 35.5t32 93.5
q0 59 -32 95t-84 36h-138q-4 0 -4 -4zM220 767l-73 106l-2 5q0 7 9 7h39q8 0 12 -6l53 -79q1 -1 3 -1t3 1l52 79q4 6 12 6h38q6 0 8 -4t-2 -8l-74 -106q-4 -6 -12 -6h-54q-8 0 -12 6z" />
    <glyph glyph-name="rcaron" unicode="&#x159;" horiz-adv-x="328" 
d="M309 499q7 -3 5 -12l-12 -51q-3 -9 -13 -6q-12 6 -32 6q-10 0 -15 -1q-44 -2 -72.5 -38t-28.5 -89v-298q0 -10 -10 -10h-51q-10 0 -10 10v486q0 10 10 10h51q10 0 10 -10v-63q0 -3 1.5 -3t2.5 2q17 37 45.5 58t67.5 21q29 0 51 -12zM154 580l-73 106l-2 5q0 7 9 7h39
q8 0 12 -6l53 -79q1 -1 3 -1t3 1l52 79q4 6 12 6h38q6 0 8 -4t-2 -8l-74 -106q-4 -6 -12 -6h-54q-8 0 -12 6z" />
    <glyph glyph-name="Sacute" unicode="&#x15a;" horiz-adv-x="506" 
d="M109.5 41.5q-55.5 49.5 -55.5 132.5v28q0 10 10 10h49q10 0 10 -10v-24q0 -56 37.5 -90t99.5 -34q59 0 93 32t34 84q0 34 -16 59t-46.5 46t-88.5 53q-62 33 -97.5 58t-58 61t-22.5 88q0 81 52 127t139 46q93 0 148 -51t55 -135v-23q0 -10 -10 -10h-50q-10 0 -10 10v22
q0 56 -36 90.5t-98 34.5q-56 0 -88 -29t-32 -82q0 -34 15 -57t43.5 -42t87.5 -51q68 -38 104.5 -64.5t58 -61t21.5 -84.5q0 -83 -54.5 -133t-146.5 -50t-147.5 49.5zM207 782.5q-2 3.5 1 8.5l61 109q5 7 12 7h48q6 0 7.5 -3.5t-1.5 -8.5l-69 -109q-5 -7 -12 -7h-39
q-6 0 -8 3.5z" />
    <glyph glyph-name="sacute" unicode="&#x15b;" horiz-adv-x="428" 
d="M96 32q-47 37 -47 95v9q0 10 10 10h48q10 0 10 -8v-9q0 -32 29 -55.5t74 -23.5q44 0 70.5 23t26.5 58q0 25 -15 42t-37 27t-61 23q-47 16 -78 32t-52.5 44.5t-21.5 72.5q0 64 45.5 101.5t119.5 37.5q76 0 121.5 -39t45.5 -100v-2q0 -10 -10 -10h-47q-10 0 -10 7v7
q0 34 -27.5 56.5t-72.5 22.5q-44 0 -70 -21.5t-26 -55.5q0 -35 26.5 -53t83.5 -38q48 -16 80 -32t54.5 -44.5t22.5 -73.5q0 -64 -45.5 -102t-122.5 -38t-124 37zM174 585.5q-2 3.5 1 8.5l61 109q5 7 12 7h48q6 0 7.5 -3.5t-1.5 -8.5l-69 -109q-5 -7 -12 -7h-39q-6 0 -8 3.5z
" />
    <glyph glyph-name="Scedilla" unicode="&#x15e;" horiz-adv-x="506" 
d="M412.5 50.5q-45.5 -48.5 -125.5 -56.5q-6 -2 -1 -5q45 -42 45 -92q0 -16 -2 -23q-7 -32 -30 -46t-54 -14q-14 0 -34 4q-8 3 -7 12l3 22q1 5 4.5 7t7.5 1q6 -2 18 -2q19 0 31 11.5t12 35.5q0 40 -49 86q-1 2 -5 2q-79 9 -125.5 57.5t-46.5 123.5v28q0 10 10 10h49
q10 0 10 -10v-24q0 -56 37.5 -90t99.5 -34q59 0 93 32t34 84q0 34 -16 59t-46.5 46t-88.5 53q-62 33 -97.5 58t-58 61t-22.5 88q0 81 52 127t139 46q93 0 148 -51t55 -135v-23q0 -10 -10 -10h-50q-10 0 -10 10v22q0 56 -36 90.5t-98 34.5q-56 0 -88 -29t-32 -82
q0 -34 15 -57t43.5 -42t87.5 -51q68 -38 104.5 -64.5t58 -61t21.5 -84.5q0 -76 -45.5 -124.5z" />
    <glyph glyph-name="scedilla" unicode="&#x15f;" horiz-adv-x="428" 
d="M351.5 41.5q-36.5 -36.5 -100.5 -44.5q-6 -2 -1 -5q46 -42 46 -93q0 -15 -2 -22q-7 -32 -30 -46t-54 -14q-14 0 -34 4q-8 3 -7 12l3 22q1 5 4.5 7t7.5 1q6 -2 18 -2q19 0 31 11.5t12 35.5q0 40 -49 86q-1 2 -5 2q-65 7 -103.5 43.5t-38.5 87.5v9q0 10 10 10h48
q10 0 10 -8v-9q0 -32 29 -55.5t74 -23.5q44 0 70.5 23t26.5 58q0 25 -15 42t-37 27t-61 23q-47 16 -78 32t-52.5 44.5t-21.5 72.5q0 64 45.5 101.5t119.5 37.5q76 0 121.5 -39t45.5 -100v-2q0 -10 -10 -10h-47q-10 0 -10 7v7q0 34 -27.5 56.5t-72.5 22.5q-44 0 -70 -21.5
t-26 -55.5q0 -35 26.5 -53t83.5 -38q48 -16 80 -32t54.5 -44.5t22.5 -73.5q0 -57 -36.5 -93.5z" />
    <glyph glyph-name="Scaron" unicode="&#x160;" horiz-adv-x="506" 
d="M109.5 41.5q-55.5 49.5 -55.5 132.5v28q0 10 10 10h49q10 0 10 -10v-24q0 -56 37.5 -90t99.5 -34q59 0 93 32t34 84q0 34 -16 59t-46.5 46t-88.5 53q-62 33 -97.5 58t-58 61t-22.5 88q0 81 52 127t139 46q93 0 148 -51t55 -135v-23q0 -10 -10 -10h-50q-10 0 -10 10v22
q0 56 -36 90.5t-98 34.5q-56 0 -88 -29t-32 -82q0 -34 15 -57t43.5 -42t87.5 -51q68 -38 104.5 -64.5t58 -61t21.5 -84.5q0 -83 -54.5 -133t-146.5 -50t-147.5 49.5zM209 775l-73 106l-2 5q0 7 9 7h39q8 0 12 -6l53 -79q1 -1 3 -1t3 1l52 79q4 6 12 6h38q6 0 8 -4t-2 -8
l-74 -106q-4 -6 -12 -6h-54q-8 0 -12 6z" />
    <glyph glyph-name="scaron" unicode="&#x161;" horiz-adv-x="428" 
d="M96 32q-47 37 -47 95v9q0 10 10 10h48q10 0 10 -8v-9q0 -32 29 -55.5t74 -23.5q44 0 70.5 23t26.5 58q0 25 -15 42t-37 27t-61 23q-47 16 -78 32t-52.5 44.5t-21.5 72.5q0 64 45.5 101.5t119.5 37.5q76 0 121.5 -39t45.5 -100v-2q0 -10 -10 -10h-47q-10 0 -10 7v7
q0 34 -27.5 56.5t-72.5 22.5q-44 0 -70 -21.5t-26 -55.5q0 -35 26.5 -53t83.5 -38q48 -16 80 -32t54.5 -44.5t22.5 -73.5q0 -64 -45.5 -102t-122.5 -38t-124 37zM176 578l-73 106l-2 5q0 7 9 7h39q8 0 12 -6l53 -79q1 -1 3 -1t3 1l52 79q4 6 12 6h38q6 0 8 -4t-2 -8
l-74 -106q-4 -6 -12 -6h-54q-8 0 -12 6z" />
    <glyph glyph-name="uni0162" unicode="&#x162;" horiz-adv-x="496" 
d="M280 634v-624q0 -10 -4 -10q-2 0 -1.5 -1.5t2.5 -3.5q45 -42 45 -92q0 -15 -2 -22q-7 -32 -30 -46t-54 -14q-14 0 -34 4q-8 3 -7 12l3 22q1 5 4.5 7t7.5 1q6 -2 18 -2q19 0 31 11.5t12 35.5q0 40 -49 86l-1.5 1.5l-0.5 0.5h-1q-10 0 -10 10v624q0 4 -4 4h-157
q-10 0 -10 10v42q0 10 10 10h399q10 0 10 -10v-42q0 -10 -10 -10h-163q-4 0 -4 -4z" />
    <glyph glyph-name="uni0163" unicode="&#x163;" horiz-adv-x="315" 
d="M263 450h-95q-4 0 -4 -4v-299q0 -47 18.5 -65.5t59.5 -18.5h17q10 0 10 -10v-42q0 -10 -10 -10l-31 -1h-2q-2 0 -2.5 -1.5t1.5 -3.5q47 -43 47 -94q0 -15 -2 -22q-7 -32 -30 -46t-54 -14q-14 0 -34 4q-8 3 -7 12l3 22q1 5 4.5 7t7.5 1q6 -2 18 -2q36 0 42 36q1 4 1 12
q0 39 -45 82q-5 4 -7 8t0 4l-6 3q-33 11 -50.5 39t-17.5 78v321q0 4 -4 4h-50q-10 0 -10 10v36q0 10 10 10h50q4 0 4 4v114q0 10 10 10h49q10 0 10 -10v-114q0 -4 4 -4h95q10 0 10 -10v-36q0 -10 -10 -10z" />
    <glyph glyph-name="Tcaron" unicode="&#x164;" horiz-adv-x="496" 
d="M457 690v-42q0 -10 -10 -10h-163q-4 0 -4 -4v-624q0 -10 -10 -10h-51q-10 0 -10 10v624q0 4 -4 4h-157q-10 0 -10 10v42q0 10 10 10h399q10 0 10 -10zM204 759l-73 107l-2 5q0 7 9 7h39q8 0 12 -6l53 -79q1 -1 3 -1t3 1l52 79q4 6 12 6h38q6 0 8 -3.5t-1 -8.5l-75 -107
q-4 -6 -12 -6h-54q-8 0 -12 6z" />
    <glyph glyph-name="tcaron" unicode="&#x165;" horiz-adv-x="315" 
d="M263 450h-95q-4 0 -4 -4v-299q0 -47 18.5 -65.5t59.5 -18.5h17q10 0 10 -10v-42q0 -10 -10 -10l-31 -1q-65 0 -99 26.5t-34 98.5v321q0 4 -4 4h-50q-10 0 -10 10v36q0 10 10 10h50q4 0 4 4v114q0 10 10 10h49q10 0 10 -10v-114q0 -4 4 -4h95q10 0 10 -10v-36
q0 -10 -10 -10zM91 693l-73 107l-2 5q0 7 9 7h39q8 0 12 -6l53 -79q1 -1 3 -1t3 1l52 79q4 6 12 6h38q6 0 8 -3.5t-1 -8.5l-75 -107q-4 -6 -12 -6h-54q-8 0 -12 6z" />
    <glyph glyph-name="Tbar" unicode="&#x166;" horiz-adv-x="600" 
d="M447 638h-163q-4 0 -4 -4v-212q0 -4 4 -4h95q10 0 10 -10v-27q0 -10 -10 -10h-95q-4 0 -4 -4v-357q0 -10 -10 -10h-51q-10 0 -10 10v357q0 4 -4 4h-100q-10 0 -10 10v27q0 10 10 10h100q4 0 4 4v212q0 4 -4 4h-157q-10 0 -10 10v42q0 10 10 10h399q10 0 10 -10v-42
q0 -10 -10 -10z" />
    <glyph glyph-name="tbar" unicode="&#x167;" horiz-adv-x="600" 
d="M263 450h-95q-4 0 -4 -4v-50q0 -4 4 -4h93q10 0 10 -10v-27q0 -10 -10 -10h-93q-4 0 -4 -4v-194q0 -47 18.5 -65.5t59.5 -18.5h17q10 0 10 -10v-42q0 -10 -10 -10l-31 -1q-65 0 -99 26.5t-34 98.5v216q0 4 -4 4h-47q-10 0 -10 10v27q0 10 10 10h47q4 0 4 4v50q0 4 -4 4
h-50q-10 0 -10 10v36q0 10 10 10h50q4 0 4 4v114q0 10 10 10h49q10 0 10 -10v-114q0 -4 4 -4h95q10 0 10 -10v-36q0 -10 -10 -10z" />
    <glyph glyph-name="Umacron" unicode="&#x16a;" horiz-adv-x="562" 
d="M173.5 18q-46.5 26 -72 73t-25.5 109v490q0 10 10 10h51q10 0 10 -10v-494q0 -64 37 -103t97 -39t97 39t37 103v494q0 10 10 10h51q10 0 10 -10v-490q0 -62 -25.5 -109t-72 -73t-107.5 -26t-107.5 26zM163 811v31q0 10 10 10h215q10 0 10 -10v-31q0 -10 -10 -10h-215
q-10 0 -10 10z" />
    <glyph glyph-name="umacron" unicode="&#x16b;" horiz-adv-x="480" 
d="M349 506h51q10 0 10 -10v-486q0 -10 -10 -10h-51q-10 0 -10 10v39q0 3 -1.5 3t-3.5 -2q-35 -57 -116 -57q-68 0 -111 40t-43 116v347q0 10 10 10h51q10 0 10 -10v-329q0 -53 26 -82.5t73 -29.5q49 0 77 31.5t28 84.5v325q0 10 10 10zM120 605v31q0 10 10 10h215
q10 0 10 -10v-31q0 -10 -10 -10h-215q-10 0 -10 10z" />
    <glyph glyph-name="Uring" unicode="&#x16e;" horiz-adv-x="562" 
d="M173.5 18q-46.5 26 -72 73t-25.5 109v490q0 10 10 10h51q10 0 10 -10v-494q0 -64 37 -103t97 -39t97 39t37 103v494q0 10 10 10h51q10 0 10 -10v-490q0 -62 -25.5 -109t-72 -73t-107.5 -26t-107.5 26zM208 806.5q-30 29.5 -30 72.5q0 44 29.5 73.5t73.5 29.5
q43 0 72.5 -30t29.5 -73t-29.5 -72.5t-72.5 -29.5t-73 29.5zM325.5 833.5q18.5 18.5 18.5 45.5t-18.5 46t-44.5 19q-27 0 -45.5 -18.5t-18.5 -46.5q0 -27 19 -45.5t45 -18.5t44.5 18.5z" />
    <glyph glyph-name="uring" unicode="&#x16f;" horiz-adv-x="480" 
d="M349 506h51q10 0 10 -10v-486q0 -10 -10 -10h-51q-10 0 -10 10v39q0 3 -1.5 3t-3.5 -2q-35 -57 -116 -57q-68 0 -111 40t-43 116v347q0 10 10 10h51q10 0 10 -10v-329q0 -53 26 -82.5t73 -29.5q49 0 77 31.5t28 84.5v325q0 10 10 10zM165 600.5q-30 29.5 -30 72.5
q0 44 29.5 73.5t73.5 29.5q43 0 72.5 -30t29.5 -73t-29.5 -72.5t-72.5 -29.5t-73 29.5zM282.5 627.5q18.5 18.5 18.5 45.5t-18.5 46t-44.5 19q-27 0 -45.5 -18.5t-18.5 -46.5q0 -27 19 -45.5t45 -18.5t44.5 18.5z" />
    <glyph glyph-name="Uhungarumlaut" unicode="&#x170;" horiz-adv-x="562" 
d="M173.5 18q-46.5 26 -72 73t-25.5 109v490q0 10 10 10h51q10 0 10 -10v-494q0 -64 37 -103t97 -39t97 39t37 103v494q0 10 10 10h51q10 0 10 -10v-490q0 -62 -25.5 -109t-72 -73t-107.5 -26t-107.5 26zM182 784.5q-2 3.5 0 8.5l56 109q3 7 12 7h44q6 0 8 -3.5t-1 -8.5
l-60 -109q-3 -7 -12 -7h-40q-5 0 -7 3.5zM325.5 784.5q-2.5 3.5 0.5 8.5l59 109q3 7 12 7h41q6 0 8 -3.5t-1 -8.5l-60 -109q-3 -7 -12 -7h-40q-5 0 -7.5 3.5z" />
    <glyph glyph-name="uhungarumlaut" unicode="&#x171;" horiz-adv-x="480" 
d="M349 506h51q10 0 10 -10v-486q0 -10 -10 -10h-51q-10 0 -10 10v39q0 3 -1.5 3t-3.5 -2q-35 -57 -116 -57q-68 0 -111 40t-43 116v347q0 10 10 10h51q10 0 10 -10v-329q0 -53 26 -82.5t73 -29.5q49 0 77 31.5t28 84.5v325q0 10 10 10zM139 578.5q-2 3.5 0 8.5l56 109
q3 7 12 7h44q6 0 8 -3.5t-1 -8.5l-60 -109q-3 -7 -12 -7h-40q-5 0 -7 3.5zM282.5 578.5q-2.5 3.5 0.5 8.5l59 109q3 7 12 7h41q6 0 8 -3.5t-1 -8.5l-60 -109q-3 -7 -12 -7h-40q-5 0 -7.5 3.5z" />
    <glyph glyph-name="Uogonek" unicode="&#x172;" horiz-adv-x="562" 
d="M425 700h51q10 0 10 -10v-490q0 -88 -50 -144t-133 -63q-3 0 -5 -2q-41 -41 -41 -78q0 -8 1 -12q6 -36 42 -36q12 0 18 2l4 1q6 0 8 -8l4 -23v-2q0 -7 -8 -9q-18 -5 -36 -5q-35 0 -59.5 19t-24.5 64q0 47 40 86q3 3 -2 5q-77 11 -122.5 66t-45.5 139v490q0 10 10 10h51
q10 0 10 -10v-494q0 -64 37 -103t97 -39t97 39t37 103v494q0 10 10 10z" />
    <glyph glyph-name="uogonek" unicode="&#x173;" horiz-adv-x="481" 
d="M417 -139q6 0 8 -8l4 -23v-2q0 -7 -8 -9q-18 -5 -36 -5q-35 0 -59.5 19t-24.5 63q0 53 53 99q2 1 2.5 3t-1.5 2h-6q-10 0 -10 10v39q0 3 -1.5 3t-3.5 -2q-35 -57 -116 -57q-68 0 -111 40t-43 116v347q0 10 10 10h51q10 0 10 -10v-329q0 -53 26 -82.5t73 -29.5
q49 0 77 31.5t28 84.5v325q0 10 10 10h51q10 0 10 -10v-496l-5 -5q-53 -46 -53 -89q0 -8 1 -12q6 -36 42 -36q12 0 18 2z" />
    <glyph glyph-name="Wcircumflex" unicode="&#x174;" horiz-adv-x="748" 
d="M189 9l-161 680l-1 4q0 7 9 7h54q9 0 11 -9l122 -537q1 -3 2.5 -3t2.5 3l110 537q2 9 11 9h50q10 0 11 -9l116 -537q1 -3 2 -3t2 3l119 537q2 9 11 9h52q10 0 8 -11l-156 -680q-2 -9 -11 -9h-51q-9 0 -11 9l-115 545q-1 3 -2 3t-2 -3l-112 -545q-1 -9 -11 -9h-49
q-9 0 -11 9zM256 768q-2 4 2 8l74 106q4 6 12 6h54q8 0 12 -6l76 -106q2 -2 2 -6q0 -2 -2 -4t-6 -2h-41q-7 0 -12 6l-52 79q-1 2 -3 2t-3 -2l-52 -79q-4 -6 -12 -6h-41q-6 0 -8 4z" />
    <glyph glyph-name="wcircumflex" unicode="&#x175;" horiz-adv-x="638" 
d="M152 9l-123 486l-1 4q0 7 9 7h50q9 0 11 -9l90 -392q1 -3 2 -3t2 3l91 392q2 9 11 9h46q9 0 11 -9l93 -393q1 -3 2 -3t2 3l92 393q2 9 11 9l50 -1q5 0 7.5 -3t0.5 -8l-125 -485q-1 -9 -11 -9h-52q-9 0 -11 9l-91 370q-1 3 -2.5 3t-2.5 -3l-88 -370q-2 -9 -11 -9h-52
q-9 0 -11 9zM199 574q-2 4 2 8l74 106q4 6 12 6h54q8 0 12 -6l76 -106q2 -2 2 -6q0 -2 -2 -4t-6 -2h-41q-7 0 -12 6l-52 79q-1 2 -3 2t-3 -2l-52 -79q-4 -6 -12 -6h-41q-6 0 -8 4z" />
    <glyph glyph-name="Ycircumflex" unicode="&#x176;" horiz-adv-x="496" 
d="M212 11v298q0 4 -1 5l-173 374l-1 4q0 8 9 8h54q8 0 11 -8l134 -299q1 -2 3 -2t3 2l134 299q3 8 11 8h54q5 0 7.5 -3.5t0.5 -8.5l-174 -374q-1 -1 -1 -5v-298q0 -10 -10 -10h-51q-10 0 -10 10zM131 768q-2 4 2 8l74 106q4 6 12 6h54q8 0 12 -6l76 -106q2 -2 2 -6
q0 -2 -2 -4t-6 -2h-41q-7 0 -12 6l-52 79q-1 2 -3 2t-3 -2l-52 -79q-4 -6 -12 -6h-41q-6 0 -8 4z" />
    <glyph glyph-name="ycircumflex" unicode="&#x177;" horiz-adv-x="414" 
d="M44 -190v41q0 10 6 10h6q35 0 54.5 11t32.5 39t28 86q1 1 0.5 3.5l-0.5 2.5l-149 492l-1 3q0 8 10 8h54q9 0 11 -8l109 -396q1 -2 2.5 -2t2.5 2l108 395q2 9 11 9h54q5 0 7.5 -3t1.5 -8l-163 -539q-20 -67 -39.5 -99t-49 -44.5t-83.5 -12.5h-6q-7 0 -7 10zM90 576
q-2 4 2 8l74 106q4 6 12 6h54q8 0 12 -6l76 -106q2 -2 2 -6q0 -2 -2 -4t-6 -2h-41q-7 0 -12 6l-52 79q-1 2 -3 2t-3 -2l-52 -79q-4 -6 -12 -6h-41q-6 0 -8 4z" />
    <glyph glyph-name="Ydieresis" unicode="&#x178;" horiz-adv-x="496" 
d="M212 11v298q0 4 -1 5l-173 374l-1 4q0 8 9 8h54q8 0 11 -8l134 -299q1 -2 3 -2t3 2l134 299q3 8 11 8h54q5 0 7.5 -3.5t0.5 -8.5l-174 -374q-1 -1 -1 -5v-298q0 -10 -10 -10h-51q-10 0 -10 10zM141 804q-13 13 -13 34q0 20 13 33t33 13q19 0 32 -13t13 -33
q0 -21 -12.5 -34t-32.5 -13t-33 13zM291 804q-13 13 -13 34q0 20 13 33t33 13q19 0 32 -13t13 -33q0 -21 -12.5 -34t-32.5 -13t-33 13z" />
    <glyph glyph-name="Zacute" unicode="&#x179;" horiz-adv-x="472" 
d="M39 10v47q0 6 3 13l304 563q2 5 -2 5h-295q-10 0 -10 10v42q0 10 10 10h367q10 0 10 -10v-47q0 -5 -3 -13l-304 -563q-2 -5 2 -5h295q10 0 10 -10v-42q0 -10 -10 -10h-367q-10 0 -10 10zM189 787.5q-2 3.5 1 8.5l61 109q5 7 12 7h48q6 0 7.5 -3.5t-1.5 -8.5l-69 -109
q-5 -7 -12 -7h-39q-6 0 -8 3.5z" />
    <glyph glyph-name="zacute" unicode="&#x17a;" horiz-adv-x="403" 
d="M33 10v48q0 8 4 13l245 365q1 1 0 3t-3 2h-232q-10 0 -10 10v45q0 10 10 10h311q10 0 10 -10v-48q0 -8 -4 -13l-247 -365q-1 -1 0 -3t3 -2h239q10 0 10 -10v-45q0 -10 -10 -10h-316q-10 0 -10 10zM159 590.5q-2 3.5 1 8.5l61 109q5 7 12 7h48q6 0 7.5 -3.5t-1.5 -8.5
l-69 -109q-5 -7 -12 -7h-39q-6 0 -8 3.5z" />
    <glyph glyph-name="Zdotaccent" unicode="&#x17b;" horiz-adv-x="472" 
d="M39 10v47q0 6 3 13l304 563q2 5 -2 5h-295q-10 0 -10 10v42q0 10 10 10h367q10 0 10 -10v-47q0 -5 -3 -13l-304 -563q-2 -5 2 -5h295q10 0 10 -10v-42q0 -10 -10 -10h-367q-10 0 -10 10zM200 802.5q-12 12.5 -12 31.5q0 20 12 32t32 12q19 0 30.5 -12t11.5 -32t-11.5 -32
t-30.5 -12q-20 0 -32 12.5z" />
    <glyph glyph-name="zdotaccent" unicode="&#x17c;" horiz-adv-x="403" 
d="M33 10v48q0 8 4 13l245 365q1 1 0 3t-3 2h-232q-10 0 -10 10v45q0 10 10 10h311q10 0 10 -10v-48q0 -8 -4 -13l-247 -365q-1 -1 0 -3t3 -2h239q10 0 10 -10v-45q0 -10 -10 -10h-316q-10 0 -10 10zM170 605.5q-12 12.5 -12 31.5q0 20 12 32t32 12q19 0 30.5 -12t11.5 -32
t-11.5 -32t-30.5 -12q-20 0 -32 12.5z" />
    <glyph glyph-name="Zcaron" unicode="&#x17d;" horiz-adv-x="472" 
d="M39 10v47q0 6 3 13l304 563q2 5 -2 5h-295q-10 0 -10 10v42q0 10 10 10h367q10 0 10 -10v-47q0 -5 -3 -13l-304 -563q-2 -5 2 -5h295q10 0 10 -10v-42q0 -10 -10 -10h-367q-10 0 -10 10zM191 780l-73 106l-2 5q0 7 9 7h39q8 0 12 -6l53 -79q1 -1 3 -1t3 1l52 79q4 6 12 6
h38q6 0 8 -4t-2 -8l-74 -106q-4 -6 -12 -6h-54q-8 0 -12 6z" />
    <glyph glyph-name="zcaron" unicode="&#x17e;" horiz-adv-x="403" 
d="M33 10v48q0 8 4 13l245 365q1 1 0 3t-3 2h-232q-10 0 -10 10v45q0 10 10 10h311q10 0 10 -10v-48q0 -8 -4 -13l-247 -365q-1 -1 0 -3t3 -2h239q10 0 10 -10v-45q0 -10 -10 -10h-316q-10 0 -10 10zM161 583l-73 106l-2 5q0 7 9 7h39q8 0 12 -6l53 -79q1 -1 3 -1t3 1l52 79
q4 6 12 6h38q6 0 8 -4t-2 -8l-74 -106q-4 -6 -12 -6h-54q-8 0 -12 6z" />
    <glyph glyph-name="florin" unicode="&#x192;" horiz-adv-x="506" 
d="M292 644q21 35 60 48.5t107 10.5q10 0 10 -10l-1 -43q0 -10 -10 -10h-27q-48 0 -69 -25.5t-31 -82.5l-21 -132q0 -4 3 -4h82q10 0 10 -10v-39q0 -10 -10 -10h-91q-5 0 -5 -4l-60 -376q-10 -66 -31 -101t-60 -48.5t-107 -10.5q-10 0 -10 10l1 43q0 10 10 10h28
q47 0 68.5 25.5t30.5 82.5l58 365q0 4 -3 4h-66q-10 0 -10 10v39q0 10 10 10h75q5 0 5 4l23 143q10 66 31 101z" />
    <glyph glyph-name="uni01CD" unicode="&#x1cd;" horiz-adv-x="531" 
d="M423 9l-33 125q-1 3 -5 3h-239q-4 0 -5 -3l-33 -125q-2 -9 -11 -9h-52q-5 0 -7.5 3t-1.5 8l186 680q2 9 11 9h64q9 0 11 -9l187 -680l1 -3q0 -8 -10 -8h-52q-9 0 -11 9zM158.5 196.5q1.5 -1.5 3.5 -1.5h207q2 0 3.5 1.5t0.5 2.5l-105 400q-1 2 -2 2t-2 -2l-106 -400
q-1 -1 0.5 -2.5zM224 759l-73 107l-2 5q0 7 9 7h39q8 0 12 -6l53 -79q1 -1 3 -1t3 1l52 79q4 6 12 6h38q6 0 8 -3.5t-1 -8.5l-75 -107q-4 -6 -12 -6h-54q-8 0 -12 6z" />
    <glyph glyph-name="uni01CE" unicode="&#x1ce;" horiz-adv-x="461" 
d="M357 468q46 -46 46 -122v-336q0 -10 -10 -10h-51q-10 0 -10 10v36q0 2 -1.5 3t-3.5 -1q-23 -28 -57.5 -42t-76.5 -14q-63 0 -107 34t-44 111q0 80 52 121.5t141 41.5h93q4 0 4 4v38q0 51 -26 80.5t-75 29.5q-39 0 -65.5 -19.5t-30.5 -51.5q-1 -9 -11 -9l-55 3
q-5 0 -7.5 3t-1.5 7q7 58 54 93.5t117 35.5q80 0 126 -46zM295.5 81.5q36.5 27.5 36.5 76.5v81q0 4 -4 4h-89q-56 0 -90.5 -26.5t-34.5 -75.5q0 -44 26.5 -65.5t68.5 -21.5q50 0 86.5 27.5zM190 573l-73 107l-2 5q0 7 9 7h39q8 0 12 -6l53 -79q1 -1 3 -1t3 1l52 79q4 6 12 6
h38q6 0 8 -3.5t-1 -8.5l-75 -107q-4 -6 -12 -6h-54q-8 0 -12 6z" />
    <glyph glyph-name="uni0218" unicode="&#x218;" horiz-adv-x="506" 
d="M109.5 41.5q-55.5 49.5 -55.5 132.5v28q0 10 10 10h49q10 0 10 -10v-24q0 -56 37.5 -90t99.5 -34q59 0 93 32t34 84q0 34 -16 59t-46.5 46t-88.5 53q-62 33 -97.5 58t-58 61t-22.5 88q0 81 52 127t139 46q93 0 148 -51t55 -135v-23q0 -10 -10 -10h-50q-10 0 -10 10v22
q0 56 -36 90.5t-98 34.5q-56 0 -88 -29t-32 -82q0 -34 15 -57t43.5 -42t87.5 -51q68 -38 104.5 -64.5t58 -61t21.5 -84.5q0 -83 -54.5 -133t-146.5 -50t-147.5 49.5zM195 -189.5q-2 3.5 1 8.5l61 109q5 7 12 7h48q6 0 7.5 -3.5t-1.5 -8.5l-69 -109q-5 -7 -12 -7h-39
q-6 0 -8 3.5z" />
    <glyph glyph-name="uni0219" unicode="&#x219;" horiz-adv-x="428" 
d="M96 32q-47 37 -47 95v9q0 10 10 10h48q10 0 10 -8v-9q0 -32 29 -55.5t74 -23.5q44 0 70.5 23t26.5 58q0 25 -15 42t-37 27t-61 23q-47 16 -78 32t-52.5 44.5t-21.5 72.5q0 64 45.5 101.5t119.5 37.5q76 0 121.5 -39t45.5 -100v-2q0 -10 -10 -10h-47q-10 0 -10 7v7
q0 34 -27.5 56.5t-72.5 22.5q-44 0 -70 -21.5t-26 -55.5q0 -35 26.5 -53t83.5 -38q48 -16 80 -32t54.5 -44.5t22.5 -73.5q0 -64 -45.5 -102t-122.5 -38t-124 37zM160 -186.5q-2 3.5 1 8.5l61 109q5 7 12 7h48q6 0 7.5 -3.5t-1.5 -8.5l-69 -109q-5 -7 -12 -7h-39q-6 0 -8 3.5
z" />
    <glyph glyph-name="uni021A" unicode="&#x21a;" horiz-adv-x="492" 
d="M457 690v-42q0 -10 -10 -10h-163q-4 0 -4 -4v-624q0 -10 -10 -10h-51q-10 0 -10 10v624q0 4 -4 4h-157q-10 0 -10 10v42q0 10 10 10h399q10 0 10 -10zM140 -182.5q-2 3.5 1 8.5l61 109q5 7 12 7h48q6 0 7.5 -3.5t-1.5 -8.5l-69 -109q-5 -7 -12 -7h-39q-6 0 -8 3.5z" />
    <glyph glyph-name="uni021B" unicode="&#x21b;" horiz-adv-x="315" 
d="M263 450h-95q-4 0 -4 -4v-299q0 -47 18.5 -65.5t59.5 -18.5h17q10 0 10 -10v-42q0 -10 -10 -10l-31 -1q-65 0 -99 26.5t-34 98.5v321q0 4 -4 4h-50q-10 0 -10 10v36q0 10 10 10h50q4 0 4 4v114q0 10 10 10h49q10 0 10 -10v-114q0 -4 4 -4h95q10 0 10 -10v-36
q0 -10 -10 -10zM136 -184.5q-2 3.5 1 8.5l61 109q5 7 12 7h48q6 0 7.5 -3.5t-1.5 -8.5l-69 -109q-5 -7 -12 -7h-39q-6 0 -8 3.5z" />
    <glyph glyph-name="uni0228" unicode="&#x228;" horiz-adv-x="517" 
d="M458 638h-300q-4 0 -4 -4v-248q0 -4 4 -4h202q10 0 10 -10v-42q0 -10 -10 -10h-202q-4 0 -4 -4v-250q0 -4 4 -4h300q10 0 10 -10v-42q0 -10 -10 -10h-150q-5 0 -2 -5q44 -41 44 -91q0 -8 -2 -22q-7 -32 -30 -46t-54 -14q-14 0 -34 4q-8 3 -7 12l3 22q1 5 4.5 7t7.5 1
q6 -2 18 -2q19 0 31 11.5t12 35.5q0 40 -48 85q-2 2 -5 2h-153q-10 0 -10 10v680q0 10 10 10h365q10 0 10 -10v-42q0 -10 -10 -10z" />
    <glyph glyph-name="uni0229" unicode="&#x229;" horiz-adv-x="471" 
d="M309 74q28 20 40 53q3 10 12 7l41 -11q9 -3 8 -12q-14 -48 -50.5 -79t-90.5 -38q-6 -2 -1 -5q47 -41 47 -94q0 -15 -2 -22q-7 -32 -30 -46t-54 -14q-14 0 -34 4q-8 3 -7 12l3 22q1 5 4.5 7t7.5 1q6 -2 18 -2q36 0 42 36q1 4 1 12q0 41 -51 87q-1 2 -5 2q-57 7 -94 43.5
t-47 93.5q-9 46 -9 123q0 79 4 112q8 67 55.5 107.5t119.5 40.5q79 0 125 -44t53 -118q4 -47 4 -114q0 -10 -10 -10h-277q-4 0 -4 -4q0 -43 3 -73q5 -44 35.5 -70.5t75.5 -26.5q39 0 67 20zM165 426q-28 -26 -33 -69q-2 -21 -4 -68q0 -4 4 -4h212q4 0 4 4q-2 48 -4 66
q-5 43 -34 70t-73 27t-72 -26z" />
    <glyph glyph-name="circumflex" unicode="&#x2c6;" horiz-adv-x="246" 
d="M7 574q-2 4 2 8l74 106q4 6 12 6h54q8 0 12 -6l76 -106q2 -2 2 -6q0 -2 -2 -4t-6 -2h-41q-7 0 -12 6l-52 79q-1 2 -3 2t-3 -2l-52 -79q-4 -6 -12 -6h-41q-6 0 -8 4z" />
    <glyph glyph-name="caron" unicode="&#x2c7;" horiz-adv-x="294" 
d="M107 575l-73 106l-2 5q0 7 9 7h39q8 0 12 -6l53 -79q1 -1 3 -1t3 1l52 79q4 6 12 6h38q6 0 8 -4t-2 -8l-74 -106q-4 -6 -12 -6h-54q-8 0 -12 6z" />
    <glyph glyph-name="uni02C9" unicode="&#x2c9;" horiz-adv-x="380" 
d="M72 605v31q0 10 10 10h215q10 0 10 -10v-31q0 -10 -10 -10h-215q-10 0 -10 10z" />
    <glyph glyph-name="breve" unicode="&#x2d8;" horiz-adv-x="266" 
d="M60 585.5q-30 27.5 -34 68.5q0 10 10 10h23q10 0 11 -10q3 -26 20.5 -42t42.5 -16q24 0 42 16.5t21 41.5q1 10 11 10h23q10 0 10 -10q-4 -42 -34 -69t-73 -27t-73 27.5z" />
    <glyph glyph-name="dotaccent" unicode="&#x2d9;" horiz-adv-x="137" 
d="M38 595.5q-12 12.5 -12 31.5q0 20 12 32t32 12q19 0 30.5 -12t11.5 -32t-11.5 -32t-30.5 -12q-20 0 -32 12.5z" />
    <glyph glyph-name="ring" unicode="&#x2da;" horiz-adv-x="256" 
d="M55 600.5q-30 29.5 -30 72.5q0 44 29.5 73.5t73.5 29.5q43 0 72.5 -30t29.5 -73t-29.5 -72.5t-72.5 -29.5t-73 29.5zM172.5 627.5q18.5 18.5 18.5 45.5t-18.5 46t-44.5 19q-27 0 -45.5 -18.5t-18.5 -46.5q0 -27 19 -45.5t45 -18.5t44.5 18.5z" />
    <glyph glyph-name="ogonek" unicode="&#x2db;" horiz-adv-x="130" 
d="M127 -173q0 -6 -7 -9q-20 -4 -34 -4q-36 0 -61 19t-25 63q0 54 53 100q5 4 13 4h26q8 0 8 -5q0 -4 -4 -7q-45 -43 -45 -82q0 -8 1 -12q6 -36 42 -36q12 0 18 2l3 1q7 0 9 -9l3 -22v-3z" />
    <glyph glyph-name="tilde" unicode="&#x2dc;" horiz-adv-x="327" 
d="M187 599q-13 6 -29 17q-3 2 -12.5 8t-17 9t-15.5 3q-15 0 -25.5 -5.5t-21.5 -20.5q-6 -9 -14 -3l-18 13q-9 5 -4 13q28 53 79 53q16 0 27.5 -5.5t31.5 -17.5q17 -11 26.5 -16t20.5 -5q27 0 46 28q5 10 14 4l19 -12q4 -3 4 -8t-4 -12q-15 -25 -36.5 -37t-42.5 -12
q-15 0 -28 6z" />
    <glyph glyph-name="hungarumlaut" unicode="&#x2dd;" horiz-adv-x="337" 
d="M31 588.5q-2 3.5 1 8.5l60 109q3 7 12 7h48q6 0 7.5 -3.5t-1.5 -8.5l-69 -109q-5 -7 -12 -7h-38q-6 0 -8 3.5zM177 588.5q-2 3.5 1 8.5l60 109q3 7 12 7h48q6 0 7.5 -3.5t-1.5 -8.5l-69 -109q-5 -7 -12 -7h-38q-6 0 -8 3.5z" />
    <glyph glyph-name="gravecomb" unicode="&#x300;" 
d="M-5 583q0 -6 -9 -6h-39q-7 0 -12 7l-69 109q-2 4 -2 6q0 6 8 6h48q7 0 12 -7l61 -109q2 -4 2 -6z" />
    <glyph glyph-name="acutecomb" unicode="&#x301;" 
d="M-162 580.5q-2 3.5 1 8.5l61 109q5 7 12 7h48q6 0 7.5 -3.5t-1.5 -8.5l-69 -109q-5 -7 -12 -7h-39q-6 0 -8 3.5z" />
    <glyph glyph-name="uni0302" unicode="&#x302;" 
d="M-239 574q-2 4 2 8l74 106q4 6 12 6h54q8 0 12 -6l76 -106q2 -2 2 -6q0 -2 -2 -4t-6 -2h-41q-7 0 -12 6l-52 79q-1 2 -3 2t-3 -2l-52 -79q-4 -6 -12 -6h-41q-6 0 -8 4z" />
    <glyph glyph-name="tildecomb" unicode="&#x303;" 
d="M-117 599q-13 6 -29 17q-3 2 -12.5 8t-17 9t-15.5 3q-15 0 -25.5 -5.5t-21.5 -20.5q-6 -9 -14 -3l-18 13q-9 5 -4 13q28 53 79 53q16 0 27.5 -5.5t31.5 -17.5q17 -11 26.5 -16t20.5 -5q27 0 46 28q5 10 14 4l19 -12q4 -3 4 -8t-4 -12q-15 -25 -36.5 -37t-42.5 -12
q-15 0 -28 6z" />
    <glyph glyph-name="uni0304" unicode="&#x304;" 
d="M-308 605v31q0 10 10 10h215q10 0 10 -10v-31q0 -10 -10 -10h-215q-10 0 -10 10z" />
    <glyph glyph-name="uni0306" unicode="&#x306;" 
d="M-206 571.5q-30 27.5 -34 68.5q0 10 10 10h23q10 0 11 -10q3 -26 20.5 -42t42.5 -16q24 0 42 16.5t21 41.5q1 10 11 10h23q10 0 10 -10q-4 -42 -34 -69t-73 -27t-73 27.5z" />
    <glyph glyph-name="uni0307" unicode="&#x307;" 
d="M-74 595.5q-12 12.5 -12 31.5q0 20 12 32t32 12q19 0 30.5 -12t11.5 -32t-11.5 -32t-30.5 -12q-20 0 -32 12.5z" />
    <glyph glyph-name="uni0308" unicode="&#x308;" 
d="M-228 610q-13 13 -13 34q0 20 13 33t33 13q19 0 32 -13t13 -33q0 -21 -12.5 -34t-32.5 -13t-33 13zM-78 610q-13 13 -13 34q0 20 13 33t33 13q19 0 32 -13t13 -33q0 -21 -12.5 -34t-32.5 -13t-33 13z" />
    <glyph glyph-name="uni030A" unicode="&#x30a;" 
d="M-174 600.5q-30 29.5 -30 72.5q0 44 29.5 73.5t73.5 29.5q43 0 72.5 -30t29.5 -73t-29.5 -72.5t-72.5 -29.5t-73 29.5zM-56.5 627.5q18.5 18.5 18.5 45.5t-18.5 46t-44.5 19q-27 0 -45.5 -18.5t-18.5 -46.5q0 -27 19 -45.5t45 -18.5t44.5 18.5z" />
    <glyph glyph-name="uni030B" unicode="&#x30b;" 
d="M-296 578.5q-2 3.5 0 8.5l56 109q3 7 12 7h44q6 0 8 -3.5t-1 -8.5l-60 -109q-3 -7 -12 -7h-40q-5 0 -7 3.5zM-152.5 578.5q-2.5 3.5 0.5 8.5l59 109q3 7 12 7h41q6 0 8 -3.5t-1 -8.5l-60 -109q-3 -7 -12 -7h-40q-5 0 -7.5 3.5z" />
    <glyph glyph-name="uni030C" unicode="&#x30c;" 
d="M-187 567l-73 107l-2 5q0 7 9 7h39q8 0 12 -6l53 -79q1 -1 3 -1t3 1l52 79q4 6 12 6h38q6 0 8 -3.5t-1 -8.5l-75 -107q-4 -6 -12 -6h-54q-8 0 -12 6z" />
    <glyph glyph-name="uni0312" unicode="&#x312;" 
d="M-31 688.5q2 -3.5 -1 -8.5l-61 -109q-5 -7 -12 -7h-48q-6 0 -7.5 3.5t1.5 8.5l69 109q5 7 12 7h39q6 0 8 -3.5z" />
    <glyph glyph-name="uni0313" unicode="&#x313;" 
d="M-136 580.5q-2 3.5 1 8.5l61 109q5 7 12 7h48q6 0 7.5 -3.5t-1.5 -8.5l-69 -109q-5 -7 -12 -7h-39q-6 0 -8 3.5z" />
    <glyph glyph-name="uni0326" unicode="&#x326;" 
d="M-162 -181.5q-2 3.5 1 8.5l61 109q5 7 12 7h48q6 0 7.5 -3.5t-1.5 -8.5l-69 -109q-5 -7 -12 -7h-39q-6 0 -8 3.5z" />
    <glyph glyph-name="uni0327" unicode="&#x327;" 
d="M-127 -170l3 22q1 5 4.5 7t7.5 1q6 -2 18 -2q36 0 42 36q1 4 1 12q0 39 -45 82q-4 3 -4 7q0 5 8 5h26q8 0 13 -4q53 -46 53 -100q0 -8 -2 -22q-7 -32 -30 -46t-54 -14q-14 0 -34 4q-8 3 -7 12z" />
    <glyph glyph-name="uni0328" unicode="&#x328;" 
d="M-3 -173q0 -6 -7 -9q-20 -4 -34 -4q-36 0 -61 19t-25 63q0 54 53 100q5 4 13 4h26q8 0 8 -5q0 -4 -4 -7q-45 -43 -45 -82q0 -8 1 -12q6 -36 42 -36q12 0 18 2l3 1q7 0 9 -9l3 -22v-3z" />
    <glyph glyph-name="uni0335" unicode="&#x335;" 
d="M-284 617h274q10 0 10 -10v-27q0 -10 -10 -10h-274q-10 0 -10 10v27q0 10 10 10z" />
    <glyph glyph-name="uni0336" unicode="&#x336;" 
d="M-507 526v31q0 10 10 10h487q10 0 10 -10v-31q0 -10 -10 -10h-487q-10 0 -10 10z" />
    <glyph glyph-name="uni0337" unicode="&#x337;" 
d="M-341 87q-5 0 -8 4l-23 28q-2 2 -2 6q0 5 4 8l393 292q2 2 6 2q5 0 8 -4l23 -28q2 -2 2 -6q0 -5 -4 -8l-393 -292q-2 -2 -6 -2z" />
    <glyph glyph-name="uni0338" unicode="&#x338;" 
d="M-399.5 -35.5q-2.5 3.5 -0.5 8.5l341 764q3 8 11 8h35q5 0 7.5 -3.5t0.5 -8.5l-342 -764q-3 -8 -11 -8h-34q-5 0 -7.5 3.5z" />
    <glyph glyph-name="uni0394" unicode="&#x394;" horiz-adv-x="591" 
d="M33 10v46q0 4 2 12l230 624q3 8 12 8h37q9 0 12 -8l230 -625q2 -8 2 -12v-45q0 -10 -10 -10h-505q-10 0 -10 10zM104 63.5q1 -1.5 3 -1.5h377q2 0 3 1.5t0 3.5l-189 536q-1 2 -3 2t-3 -2l-188 -536q-1 -2 0 -3.5z" />
    <glyph glyph-name="uni03A9" unicode="&#x3a9;" horiz-adv-x="561" 
d="M64 10v42q0 10 10 10h69q2 0 2.5 1.5t-1.5 3.5q-33 23 -50.5 62t-17.5 88v287q0 60 25.5 106.5t72 72t107.5 25.5t107.5 -25.5t72.5 -72t26 -106.5v-287q0 -49 -18 -87.5t-51 -62.5q-2 -2 -1.5 -3.5t2.5 -1.5h69q10 0 10 -10v-42q0 -10 -10 -10h-165q-10 0 -10 10v44
q0 8 9 11q39 8 66.5 45.5t27.5 90.5v306q0 62 -37 100.5t-98 38.5q-60 0 -97 -38.5t-37 -100.5v-306q0 -52 27.5 -89.5t64.5 -46.5q9 -3 9 -11v-44q0 -10 -10 -10h-164q-10 0 -10 10z" />
    <glyph glyph-name="uni03BC" unicode="&#x3bc;" horiz-adv-x="488" 
d="M355 506h51q10 0 10 -10v-486q0 -10 -10 -10h-51q-10 0 -10 10v39q0 3 -1.5 3t-3.5 -2q-35 -57 -116 -57q-43 0 -78 18q-5 2 -5 -3v-198q0 -10 -10 -10h-51q-10 0 -10 10v686q0 10 10 10h51q10 0 10 -10v-329q0 -53 26 -82.5t73 -29.5q49 0 77 31.5t28 84.5v325
q0 10 10 10z" />
    <glyph glyph-name="pi" unicode="&#x3c0;" horiz-adv-x="577" 
d="M531 445h-60q-4 0 -4 -4v-311q0 -40 12.5 -53t42.5 -14q10 0 10 -10v-43q0 -10 -10 -10q-39 0 -65.5 6.5t-44 28t-16.5 64.5v342q0 4 -4 4h-201q-4 0 -4 -4v-431q0 -10 -10 -10h-51q-10 0 -10 10v431q0 4 -4 4h-66q-10 0 -10 10v41q0 10 10 10h485q10 0 10 -10v-41
q0 -10 -10 -10z" />
    <glyph glyph-name="Wgrave" unicode="&#x1e80;" horiz-adv-x="748" 
d="M189 9l-161 680l-1 4q0 7 9 7h54q9 0 11 -9l122 -537q1 -3 2.5 -3t2.5 3l110 537q2 9 11 9h50q10 0 11 -9l116 -537q1 -3 2 -3t2 3l119 537q2 9 11 9h52q10 0 8 -11l-156 -680q-2 -9 -11 -9h-51q-9 0 -11 9l-115 545q-1 3 -2 3t-2 -3l-112 -545q-1 -9 -11 -9h-49
q-9 0 -11 9zM398 777q0 -6 -9 -6h-39q-7 0 -12 7l-69 109q-2 4 -2 6q0 6 8 6h48q7 0 12 -7l61 -109q2 -4 2 -6z" />
    <glyph glyph-name="wgrave" unicode="&#x1e81;" horiz-adv-x="638" 
d="M152 9l-123 486l-1 4q0 7 9 7h50q9 0 11 -9l90 -392q1 -3 2 -3t2 3l91 392q2 9 11 9h46q9 0 11 -9l93 -393q1 -3 2 -3t2 3l92 393q2 9 11 9l50 -1q5 0 7.5 -3t0.5 -8l-125 -485q-1 -9 -11 -9h-52q-9 0 -11 9l-91 370q-1 3 -2.5 3t-2.5 -3l-88 -370q-2 -9 -11 -9h-52
q-9 0 -11 9zM341 583q0 -6 -9 -6h-39q-7 0 -12 7l-69 109q-2 4 -2 6q0 6 8 6h48q7 0 12 -7l61 -109q2 -4 2 -6z" />
    <glyph glyph-name="Wacute" unicode="&#x1e82;" horiz-adv-x="748" 
d="M189 9l-161 680l-1 4q0 7 9 7h54q9 0 11 -9l122 -537q1 -3 2.5 -3t2.5 3l110 537q2 9 11 9h50q10 0 11 -9l116 -537q1 -3 2 -3t2 3l119 537q2 9 11 9h52q10 0 8 -11l-156 -680q-2 -9 -11 -9h-51q-9 0 -11 9l-115 545q-1 3 -2 3t-2 -3l-112 -545q-1 -9 -11 -9h-49
q-9 0 -11 9zM330 774.5q-2 3.5 1 8.5l61 109q5 7 12 7h48q6 0 7.5 -3.5t-1.5 -8.5l-69 -109q-5 -7 -12 -7h-39q-6 0 -8 3.5z" />
    <glyph glyph-name="wacute" unicode="&#x1e83;" horiz-adv-x="638" 
d="M152 9l-123 486l-1 4q0 7 9 7h50q9 0 11 -9l90 -392q1 -3 2 -3t2 3l91 392q2 9 11 9h46q9 0 11 -9l93 -393q1 -3 2 -3t2 3l92 393q2 9 11 9l50 -1q5 0 7.5 -3t0.5 -8l-125 -485q-1 -9 -11 -9h-52q-9 0 -11 9l-91 370q-1 3 -2.5 3t-2.5 -3l-88 -370q-2 -9 -11 -9h-52
q-9 0 -11 9zM273 580.5q-2 3.5 1 8.5l61 109q5 7 12 7h48q6 0 7.5 -3.5t-1.5 -8.5l-69 -109q-5 -7 -12 -7h-39q-6 0 -8 3.5z" />
    <glyph glyph-name="Wdieresis" unicode="&#x1e84;" horiz-adv-x="748" 
d="M189 9l-161 680l-1 4q0 7 9 7h54q9 0 11 -9l122 -537q1 -3 2.5 -3t2.5 3l110 537q2 9 11 9h50q10 0 11 -9l116 -537q1 -3 2 -3t2 3l119 537q2 9 11 9h52q10 0 8 -11l-156 -680q-2 -9 -11 -9h-51q-9 0 -11 9l-115 545q-1 3 -2 3t-2 -3l-112 -545q-1 -9 -11 -9h-49
q-9 0 -11 9zM266 804q-13 13 -13 34q0 20 13 33t33 13q19 0 32 -13t13 -33q0 -21 -12.5 -34t-32.5 -13t-33 13zM416 804q-13 13 -13 34q0 20 13 33t33 13q19 0 32 -13t13 -33q0 -21 -12.5 -34t-32.5 -13t-33 13z" />
    <glyph glyph-name="wdieresis" unicode="&#x1e85;" horiz-adv-x="638" 
d="M152 9l-123 486l-1 4q0 7 9 7h50q9 0 11 -9l90 -392q1 -3 2 -3t2 3l91 392q2 9 11 9h46q9 0 11 -9l93 -393q1 -3 2 -3t2 3l92 393q2 9 11 9l50 -1q5 0 7.5 -3t0.5 -8l-125 -485q-1 -9 -11 -9h-52q-9 0 -11 9l-91 370q-1 3 -2.5 3t-2.5 -3l-88 -370q-2 -9 -11 -9h-52
q-9 0 -11 9zM209 610q-13 13 -13 34q0 20 13 33t33 13q19 0 32 -13t13 -33q0 -21 -12.5 -34t-32.5 -13t-33 13zM359 610q-13 13 -13 34q0 20 13 33t33 13q19 0 32 -13t13 -33q0 -21 -12.5 -34t-32.5 -13t-33 13z" />
    <glyph glyph-name="Ygrave" unicode="&#x1ef2;" horiz-adv-x="496" 
d="M212 11v298q0 4 -1 5l-173 374l-1 4q0 8 9 8h54q8 0 11 -8l134 -299q1 -2 3 -2t3 2l134 299q3 8 11 8h54q5 0 7.5 -3.5t0.5 -8.5l-174 -374q-1 -1 -1 -5v-298q0 -10 -10 -10h-51q-10 0 -10 10zM273 777q0 -6 -9 -6h-39q-7 0 -12 7l-69 109q-2 4 -2 6q0 6 8 6h48
q7 0 12 -7l61 -109q2 -4 2 -6z" />
    <glyph glyph-name="ygrave" unicode="&#x1ef3;" horiz-adv-x="414" 
d="M44 -190v41q0 10 6 10h6q35 0 54.5 11t32.5 39t28 86q1 1 0.5 3.5l-0.5 2.5l-149 492l-1 3q0 8 10 8h54q9 0 11 -8l109 -396q1 -2 2.5 -2t2.5 2l108 395q2 9 11 9h54q5 0 7.5 -3t1.5 -8l-163 -539q-20 -67 -39.5 -99t-49 -44.5t-83.5 -12.5h-6q-7 0 -7 10zM232 585
q0 -6 -9 -6h-39q-7 0 -12 7l-69 109q-2 4 -2 6q0 6 8 6h48q7 0 12 -7l61 -109q2 -4 2 -6z" />
    <glyph glyph-name="endash" unicode="&#x2013;" horiz-adv-x="411" 
d="M36 262v42q0 10 10 10h320q10 0 10 -10v-42q0 -10 -10 -10h-320q-10 0 -10 10z" />
    <glyph glyph-name="emdash" unicode="&#x2014;" horiz-adv-x="639" 
d="M36 262v42q0 10 10 10h547q10 0 10 -10v-42q0 -10 -10 -10h-547q-10 0 -10 10z" />
    <glyph glyph-name="quoteleft" unicode="&#x2018;" horiz-adv-x="132" 
d="M4 506l67 186q3 8 12 8h37q5 0 7.5 -3t1.5 -8l-53 -186q-3 -8 -11 -8h-53q-11 0 -8 11z" />
    <glyph glyph-name="quoteright" unicode="&#x2019;" horiz-adv-x="132" 
d="M128 689l-67 -186q-3 -8 -12 -8h-37q-5 0 -7.5 3t-1.5 8l53 186q3 8 11 8h53q11 0 8 -11z" />
    <glyph glyph-name="quotesinglbase" unicode="&#x201a;" horiz-adv-x="600" 
d="M54.5 -76q-2.5 3 -1.5 8l37 214q2 9 11 9h45q5 0 7.5 -3t0.5 -8l-50 -214q-2 -9 -11 -9h-31q-5 0 -7.5 3z" />
    <glyph glyph-name="quotedblleft" unicode="&#x201c;" horiz-adv-x="259" 
d="M4 506l68 186q3 8 12 8h35q5 0 7.5 -3t1.5 -8l-55 -186q-3 -8 -11 -8h-50q-11 0 -8 11zM132 506l68 186q3 8 12 8h35q5 0 7.5 -3t1.5 -8l-54 -186q-3 -8 -11 -8h-51q-11 0 -8 11z" />
    <glyph glyph-name="quotedblright" unicode="&#x201d;" horiz-adv-x="259" 
d="M127 689l-68 -186q-3 -8 -12 -8h-35q-5 0 -7.5 3t-1.5 8l54 186q3 8 11 8h51q11 0 8 -11zM255 689l-68 -186q-3 -8 -12 -8h-35q-5 0 -7.5 3t-1.5 8l55 186q3 8 11 8h50q11 0 8 -11z" />
    <glyph glyph-name="quotedblbase" unicode="&#x201e;" horiz-adv-x="256" 
d="M127 117l-68 -186q-3 -8 -12 -8h-35q-5 0 -7.5 3t-1.5 8l54 186q3 8 11 8h51q11 0 8 -11zM255 117l-68 -186q-3 -8 -12 -8h-35q-5 0 -7.5 3t-1.5 8l55 186q3 8 11 8h50q11 0 8 -11z" />
    <glyph glyph-name="dagger" unicode="&#x2020;" horiz-adv-x="382" 
d="M347 449v-36q0 -10 -10 -10h-106q-4 0 -4 -4v-589q0 -10 -10 -10h-51q-10 0 -10 10v589q0 4 -4 4h-106q-10 0 -10 10v36q0 10 10 10h106q4 0 4 4v227q0 10 10 10h51q10 0 10 -10v-227q0 -4 4 -4h106q10 0 10 -10z" />
    <glyph glyph-name="daggerdbl" unicode="&#x2021;" horiz-adv-x="382" 
d="M337 403h-106q-4 0 -4 -4v-298q0 -4 4 -4h106q10 0 10 -10v-36q0 -10 -10 -10h-106q-4 0 -4 -4v-227q0 -10 -10 -10h-51q-10 0 -10 10v227q0 4 -4 4h-106q-10 0 -10 10v36q0 10 10 10h106q4 0 4 4v298q0 4 -4 4h-106q-10 0 -10 10v36q0 10 10 10h106q4 0 4 4v227
q0 10 10 10h51q10 0 10 -10v-227q0 -4 4 -4h106q10 0 10 -10v-36q0 -10 -10 -10z" />
    <glyph glyph-name="bullet" unicode="&#x2022;" horiz-adv-x="302" 
d="M70 185.5q-34 34.5 -34 81.5q0 48 34 81.5t82 33.5q47 0 80.5 -33.5t33.5 -81.5q0 -47 -34 -81.5t-80 -34.5q-48 0 -82 34.5z" />
    <glyph glyph-name="ellipsis" unicode="&#x2026;" horiz-adv-x="717" 
d="M77 20q-17 17 -17 42q0 24 17.5 41.5t41.5 17.5q23 0 40.5 -17.5t17.5 -41.5q0 -25 -17 -42t-41 -17q-25 0 -42 17zM316 20q-17 17 -17 42q0 24 17.5 41.5t41.5 17.5q23 0 40.5 -17.5t17.5 -41.5q0 -25 -17 -42t-41 -17q-25 0 -42 17zM553 20q-17 17 -17 42
q0 24 17.5 41.5t41.5 17.5q23 0 40.5 -17.5t17.5 -41.5q0 -25 -17 -42t-41 -17q-25 0 -42 17z" />
    <glyph glyph-name="perthousand" unicode="&#x2030;" horiz-adv-x="1073" 
d="M62 308.5q-32 32.5 -32 85.5v197q0 53 32 85t85 32t85.5 -32t32.5 -85v-197q0 -53 -32.5 -85.5t-85.5 -32.5t-85 32.5zM196.5 340q18.5 19 18.5 51v203q0 32 -18.5 51t-49.5 19q-30 0 -48.5 -19.5t-18.5 -50.5v-203q0 -32 18.5 -51t48.5 -19q31 0 49.5 19zM154.5 3.5
q-1.5 3.5 1.5 8.5l428 681q5 7 12 7h33q6 0 7.5 -3.5t-1.5 -8.5l-428 -681q-5 -7 -12 -7h-33q-6 0 -7.5 3.5zM551 24.5q-32 32.5 -32 85.5v197q0 53 32 85t85 32t85.5 -32t32.5 -85v-197q0 -53 -32.5 -85.5t-85.5 -32.5t-85 32.5zM685.5 56q18.5 19 18.5 51v203
q0 32 -18.5 51t-49.5 19q-30 0 -48.5 -19.5t-18.5 -50.5v-203q0 -32 18.5 -51t48.5 -19q31 0 49.5 19zM843 24.5q-32 32.5 -32 85.5v197q0 53 32 85t85 32t85.5 -32t32.5 -85v-197q0 -53 -32.5 -85.5t-85.5 -32.5t-85 32.5zM977.5 56q18.5 19 18.5 51v203q0 32 -18.5 51
t-49.5 19q-30 0 -48.5 -19.5t-18.5 -50.5v-203q0 -32 18.5 -51t48.5 -19q31 0 49.5 19z" />
    <glyph glyph-name="guilsinglleft" unicode="&#x2039;" horiz-adv-x="336" 
d="M246 113q0 -2 -2 -4t-6 -2h-46q-9 0 -13 6l-117 161q-4 7 0 14l117 161q4 6 13 6h46q6 0 8 -3.5t-2 -8.5l-116 -159q-1 -3 0 -6l116 -159q2 -2 2 -6z" />
    <glyph glyph-name="guilsinglright" unicode="&#x203a;" horiz-adv-x="360" 
d="M90 110.5q-2 3.5 2 8.5l116 159q2 3 0 6l-116 159q-2 2 -2 6q0 2 2 4t6 2h46q9 0 13 -6l117 -161q4 -7 0 -14l-117 -161q-4 -6 -13 -6h-46q-6 0 -8 3.5z" />
    <glyph glyph-name="fraction" unicode="&#x2044;" horiz-adv-x="231" 
d="M-121.5 3.5q-1.5 3.5 1.5 8.5l428 681q5 7 12 7h33q6 0 7.5 -3.5t-1.5 -8.5l-428 -681q-5 -7 -12 -7h-33q-6 0 -7.5 3.5z" />
    <glyph glyph-name="uni2074" unicode="&#x2074;" horiz-adv-x="293" 
d="M270 591v-26q0 -10 -10 -10h-17q-4 0 -4 -4v-99q0 -10 -10 -10h-31q-10 0 -10 10v99q0 4 -4 4h-154q-10 0 -10 10v23q0 7 2 12l102 254q3 8 11 8h34q5 0 7 -3.5t0 -8.5l-96 -244q-1 -2 0 -3.5t3 -1.5h101q4 0 4 4v84q0 10 10 10h31q10 0 10 -10v-84q0 -4 4 -4h17
q10 0 10 -10z" />
    <glyph glyph-name="uni2075" unicode="&#x2075;" horiz-adv-x="269" 
d="M247 569q0 -45 -14 -73q-26 -62 -97 -62q-42 0 -70 22t-37 62q-2 10 -4 30q0 10 10 10h31q9 0 10 -8v-4l3 -17q4 -24 19 -37t38 -13q20 0 33.5 10.5t19.5 29.5q8 22 8 50t-8 50q-14 38 -53 38q-21 0 -35.5 -9t-21.5 -26q-3 -8 -11 -8h-33q-10 0 -10 10v225q0 10 10 10
h190q10 0 10 -10v-24q0 -10 -10 -10h-145q-4 0 -4 -4l-1 -129q0 -2 1.5 -3t3.5 1q25 22 67 22q60 0 87 -58q13 -29 13 -75z" />
    <glyph glyph-name="uni2076" unicode="&#x2076;" horiz-adv-x="280" 
d="M256 569q0 -43 -10 -67q-12 -32 -38.5 -50t-63.5 -18q-39 0 -66 20.5t-38 57.5q-7 21 -7 56v189q0 49 30.5 78t80.5 29q46 0 75.5 -28.5t29.5 -75.5v-6q0 -10 -10 -10h-31q-10 0 -10 7v6q0 27 -15.5 44.5t-38.5 17.5q-27 0 -44 -18t-17 -48v-79q0 -2 1.5 -3t3.5 1
q25 30 66 30q32 0 55.5 -16.5t34.5 -45.5q12 -28 12 -71zM205 570q0 30 -6 48q-5 20 -19.5 31t-35.5 11t-35.5 -12t-19.5 -32q-5 -15 -5 -46q0 -29 4 -45q5 -22 19.5 -34t36.5 -12q21 0 35 11.5t20 31.5q6 16 6 48z" />
    <glyph glyph-name="uni2077" unicode="&#x2077;" horiz-adv-x="249" 
d="M68 453l116 360q1 2 -0.5 3.5t-3.5 1.5h-123q-4 0 -4 -4v-32q0 -10 -10 -10h-22q-10 0 -10 10v70q0 10 10 10h208q10 0 10 -10v-28q0 -4 -2 -12l-117 -362q-3 -8 -12 -8h-32q-11 0 -8 11z" />
    <glyph glyph-name="uni2078" unicode="&#x2078;" horiz-adv-x="285" 
d="M206 659q31 -20 41 -54q6 -22 6 -47q0 -29 -6 -46q-10 -35 -38.5 -56.5t-66.5 -21.5t-65 21t-39 56q-8 23 -8 47q0 22 7 47q10 35 41 53q5 3 0 6q-30 20 -40 52q-7 18 -7 39q0 24 7 41q12 34 39 52t65 18t66 -19t39 -52q7 -20 7 -40q0 -14 -7 -39q-10 -31 -41 -51
q-5 -3 0 -6zM83 730q12 -48 59 -48q24 0 39 13t20 35q2 14 2 22q0 14 -2 21q-6 23 -21.5 36t-37.5 13t-37 -11.5t-20 -31.5l-3 -12q-1 -5 -1 -15q0 -14 2 -22zM202 575q0 29 -17 48.5t-43 19.5q-24 0 -39 -14.5t-19 -39.5q-3 -16 -3 -28q0 -14 3 -29q3 -24 19 -38.5
t39 -14.5t38.5 14.5t19.5 38.5q2 10 2 29v14z" />
    <glyph glyph-name="uni2079" unicode="&#x2079;" horiz-adv-x="280" 
d="M247 731v-189q0 -49 -30.5 -78t-80.5 -29q-46 0 -75.5 28.5t-29.5 75.5v6q0 10 10 10h31q10 0 10 -6v-7q0 -27 15.5 -44.5t38.5 -17.5q27 0 44 18t17 48v79q0 2 -1.5 3t-3.5 -1q-25 -30 -66 -30q-32 0 -55.5 16.5t-34.5 45.5q-12 28 -12 71t10 67q12 32 38.5 50t63.5 18
q39 0 66 -20.5t38 -57.5q7 -21 7 -56zM196 729q0 29 -4 45q-5 22 -19.5 34t-36.5 12q-21 0 -35 -11.5t-20 -31.5q-6 -16 -6 -48q0 -30 6 -48q5 -20 19.5 -31t35.5 -11t35.5 12t19.5 32q5 15 5 46z" />
    <glyph glyph-name="franc" unicode="&#x20a3;" horiz-adv-x="562" 
d="M533 638h-299q-4 0 -4 -4v-248q0 -4 4 -4h201q10 0 10 -10v-42q0 -10 -10 -10h-201q-4 0 -4 -4v-125q0 -4 4 -4h133q10 0 10 -10v-27q0 -10 -10 -10h-133q-4 0 -4 -4v-126q0 -10 -10 -10h-51q-10 0 -10 10v126q0 4 -4 4h-62q-10 0 -10 10v27q0 10 10 10h62q4 0 4 4v499
q0 10 10 10h364q10 0 10 -10v-42q0 -10 -10 -10z" />
    <glyph glyph-name="Euro" unicode="&#x20ac;" horiz-adv-x="561" 
d="M397.5 82q29.5 28 34.5 75q2 10 11 8l50 -8q10 -2 9 -11q-10 -71 -58 -112.5t-122 -41.5q-82 0 -132 51t-50 136v87q0 4 -4 4h-62q-10 0 -10 10v23q0 10 10 10h62q4 0 4 4v64q0 4 -4 4h-62q-10 0 -10 10v22q0 10 10 10h62q4 0 4 4v91q0 85 49.5 135.5t132.5 50.5
q75 0 123.5 -42.5t57.5 -114.5v-2q0 -7 -9 -9l-52 -7h-2q-7 0 -9 9q-4 47 -33.5 75.5t-75.5 28.5q-50 0 -80.5 -33t-30.5 -87v-95q0 -4 4 -4h206q11 0 8 -11l-8 -23q-3 -8 -12 -8h-194q-4 0 -4 -4v-64q0 -4 4 -4h174q5 0 7.5 -3.5t0.5 -8.5l-9 -23q-3 -8 -11 -8h-162
q-4 0 -4 -4v-92q0 -54 30.5 -87t80.5 -33q46 0 75.5 28z" />
    <glyph glyph-name="uni20BA" unicode="&#x20ba;" horiz-adv-x="599" 
d="M542 258q-2 -65 -31.5 -119t-85.5 -89.5t-134 -44.5q-52 -6 -99 -5q-10 0 -10 10v300q0 2 -1.5 3.5t-2.5 0.5l-91 -26q-2 -1 -5 -1q-7 0 -8 7l-7 24l-1 4q0 6 8 9l105 31q3 2 3 4v59q0 2 -2 3.5t-3 0.5l-90 -27l-4 -1q-6 0 -9 8l-7 24l-1 4q0 6 8 9l105 31q3 2 3 4v209
q0 10 10 10h51q10 0 10 -10v-187q0 -2 2 -3.5t3 -0.5l130 39l4 1q6 0 9 -8l7 -24l1 -4q0 -6 -8 -9l-145 -42q-3 -1 -3 -5v-59q0 -2 2 -3.5t3 -0.5l130 39l4 1q6 0 9 -8l7 -24l1 -4q0 -6 -8 -9l-145 -42q-3 -1 -3 -5v-266q0 -4 4 -4q96 5 153.5 59.5t60.5 136.5q0 10 10 10
h51q10 0 10 -10z" />
    <glyph glyph-name="uni20BD" unicode="&#x20bd;" horiz-adv-x="605" 
d="M242 316q-4 0 -4 -4v-84q0 -4 4 -4h202q10 0 10 -10v-25q0 -10 -10 -10h-202q-4 0 -4 -4v-165q0 -10 -10 -10h-51q-10 0 -10 10v165q0 4 -4 4h-70q-10 0 -10 10v25q0 10 10 10h70q4 0 4 4v84q0 4 -4 4h-70q-10 0 -10 10v38q0 10 10 10h70q4 0 4 4v313q0 10 10 10h214
q80 0 129.5 -53.5t49.5 -140.5q0 -86 -49.5 -138.5t-129.5 -52.5h-149zM238 635v-257q0 -4 4 -4h140q53 0 85 35.5t32 96.5t-32 97t-85 36h-140q-4 0 -4 -4z" />
    <glyph glyph-name="uni2113" unicode="&#x2113;" horiz-adv-x="462" 
d="M321 56q20 9 33 21q4 4 7 4q4 0 7 -5l19 -29q2 -4 2 -7q0 -2 -3 -7q-17 -19 -48.5 -30t-68.5 -11q-62 0 -96.5 41t-34.5 114l-1 97q0 5 -5 2l-33 -27q-4 -3 -7 -3q-4 0 -7 6l-13 28q-1 2 -1 6q0 5 4 8q1 1 17 14l43 33q2 2 2 5l-1 187q0 51 18 98.5t51 77t77 29.5
q48 0 79 -37t31 -94q0 -75 -50.5 -140t-141.5 -138q-2 -2 -2 -5v-138q0 -109 80 -109q23 0 43 9zM197 369q0 -5 5 -2q63 54 98.5 103.5t35.5 101.5q0 36 -15 59.5t-41 23.5q-35 0 -59.5 -44.5t-23.5 -116.5v-125z" />
    <glyph glyph-name="trademark" unicode="&#x2122;" horiz-adv-x="586" 
d="M19 671v19q0 10 10 10h206q10 0 10 -10v-19q0 -10 -10 -10h-79q-4 0 -4 -4v-298q0 -10 -10 -10h-24q-10 0 -10 10v298q0 4 -4 4h-75q-10 0 -10 10zM509 700h26q10 0 10 -10v-331q0 -10 -10 -10h-25q-10 0 -10 10v258q0 3 -2 4t-3 -2l-57 -100q-5 -7 -11 -7q-7 0 -12 7
l-59 100q-1 3 -3 2.5t-2 -3.5v-259q0 -10 -10 -10h-24q-10 0 -10 10v331q0 10 10 10h26q7 0 12 -7l67 -117q1 -1 3 -1t3 1l69 117q5 7 12 7z" />
    <glyph glyph-name="uni2126" unicode="&#x2126;" horiz-adv-x="561" 
d="M64 10v42q0 10 10 10h69q2 0 2.5 1.5t-1.5 3.5q-33 23 -50.5 62t-17.5 88v287q0 60 25.5 106.5t72 72t107.5 25.5t107.5 -25.5t72.5 -72t26 -106.5v-287q0 -49 -18 -87.5t-51 -62.5q-2 -2 -1.5 -3.5t2.5 -1.5h69q10 0 10 -10v-42q0 -10 -10 -10h-165q-10 0 -10 10v44
q0 8 9 11q39 8 66.5 45.5t27.5 90.5v306q0 62 -37 100.5t-98 38.5q-60 0 -97 -38.5t-37 -100.5v-306q0 -52 27.5 -89.5t64.5 -46.5q9 -3 9 -11v-44q0 -10 -10 -10h-164q-10 0 -10 10z" />
    <glyph glyph-name="estimated" unicode="&#x212e;" horiz-adv-x="858" 
d="M617.5 661q83.5 -47 130.5 -129t47 -185q0 -4 -10 -4h-628q-4 0 -4 -4v-184q0 -3 2 -5q45 -62 116 -96.5t158 -34.5q95 0 174.5 46t121.5 123q4 7 12 7h11q5 0 7.5 -3.5t-0.5 -8.5q-44 -87 -131.5 -139t-194.5 -52q-104 0 -187.5 46.5t-130.5 127.5t-47 181q0 103 47 185
t130 129t188 47t188.5 -47zM154 544v-170q0 -4 4 -4h541q4 0 4 4v172q0 3 -2 5q-46 61 -116.5 95.5t-155.5 34.5q-87 0 -157.5 -35t-115.5 -97q-2 -1 -2 -5z" />
    <glyph glyph-name="oneeighth" unicode="&#x215b;" horiz-adv-x="736" 
d="M83 700h34q10 0 10 -10v-400q0 -10 -10 -10h-31q-10 0 -10 10v357q0 2 -1.5 3.5t-2.5 0.5l-29 -8l-3 -1q-8 0 -8 10v18q0 9 7 12l31 15q6 3 13 3zM87.5 3.5q-1.5 3.5 1.5 8.5l428 681q5 7 12 7h33q6 0 7.5 -3.5t-1.5 -8.5l-428 -681q-5 -7 -12 -7h-33q-6 0 -7.5 3.5z
M657 217q31 -20 41 -54q6 -22 6 -47q0 -29 -6 -46q-10 -35 -38.5 -56.5t-66.5 -21.5t-65 21t-39 56q-8 23 -8 47q0 22 7 47q10 35 41 53q5 3 0 6q-30 20 -40 52q-7 18 -7 39q0 24 7 41q12 34 39 52t65 18t66 -19t39 -52q7 -20 7 -40q0 -14 -7 -39q-10 -31 -41 -51
q-5 -3 0 -6zM534 288q12 -48 59 -48q24 0 39 13t20 35q2 14 2 22q0 14 -2 21q-6 23 -21.5 36t-37.5 13t-37 -11.5t-20 -31.5l-3 -12q-1 -5 -1 -15q0 -14 2 -22zM653 133q0 29 -17 48.5t-43 19.5q-24 0 -39 -14.5t-19 -39.5q-3 -16 -3 -28q0 -14 3 -29q3 -24 19 -38.5
t39 -14.5t38.5 14.5t19.5 38.5q2 10 2 29v14z" />
    <glyph glyph-name="threeeighths" unicode="&#x215c;" horiz-adv-x="820" 
d="M256 411q0 -37 -11 -65q-11 -33 -37 -51t-65 -18q-42 0 -70.5 23.5t-36.5 62.5q-3 11 -5 38q0 10 10 10h31q10 0 10 -10q0 -15 3 -26q5 -24 20 -38.5t38 -14.5q37 0 54 35q9 23 9 57q0 36 -9 58q-15 38 -54 38q-8 0 -15 -3q-2 -1 -6 -1q-5 0 -8 4l-15 16q-6 6 0 14
l89 113q2 2 1 3.5t-3 1.5h-141q-10 0 -10 10v24q0 10 10 10h198q10 0 10 -10v-27q0 -7 -4 -12l-81 -104q-2 -2 -1 -3.5t3 -1.5q27 -3 46 -20t29 -44q11 -30 11 -69zM171.5 3.5q-1.5 3.5 1.5 8.5l428 681q5 7 12 7h33q6 0 7.5 -3.5t-1.5 -8.5l-428 -681q-5 -7 -12 -7h-33
q-6 0 -7.5 3.5zM741 217q31 -20 41 -54q6 -22 6 -47q0 -29 -6 -46q-10 -35 -38.5 -56.5t-66.5 -21.5t-65 21t-39 56q-8 23 -8 47q0 22 7 47q10 35 41 53q5 3 0 6q-30 20 -40 52q-7 18 -7 39q0 24 7 41q12 34 39 52t65 18t66 -19t39 -52q7 -20 7 -40q0 -14 -7 -39
q-10 -31 -41 -51q-5 -3 0 -6zM618 288q12 -48 59 -48q24 0 39 13t20 35q2 14 2 22q0 14 -2 21q-6 23 -21.5 36t-37.5 13t-37 -11.5t-20 -31.5l-3 -12q-1 -5 -1 -15q0 -14 2 -22zM737 133q0 29 -17 48.5t-43 19.5q-24 0 -39 -14.5t-19 -39.5q-3 -16 -3 -28q0 -14 3 -29
q3 -24 19 -38.5t39 -14.5t38.5 14.5t19.5 38.5q2 10 2 29v14z" />
    <glyph glyph-name="fiveeighths" unicode="&#x215d;" horiz-adv-x="782" 
d="M247 408q0 -45 -14 -73q-26 -62 -97 -62q-42 0 -70 22t-37 62q-2 10 -4 30q0 10 10 10h31q9 0 10 -8v-4l3 -17q4 -24 19 -37t38 -13q20 0 33.5 10.5t19.5 29.5q8 22 8 50t-8 50q-14 38 -53 38q-21 0 -35.5 -9t-21.5 -26q-3 -8 -11 -8h-33q-10 0 -10 10v225q0 10 10 10
h190q10 0 10 -10v-24q0 -10 -10 -10h-145q-4 0 -4 -4l-1 -129q0 -2 1.5 -3t3.5 1q25 22 67 22q60 0 87 -58q13 -29 13 -75zM133.5 3.5q-1.5 3.5 1.5 8.5l428 681q5 7 12 7h33q6 0 7.5 -3.5t-1.5 -8.5l-428 -681q-5 -7 -12 -7h-33q-6 0 -7.5 3.5zM703 217q31 -20 41 -54
q6 -22 6 -47q0 -29 -6 -46q-10 -35 -38.5 -56.5t-66.5 -21.5t-65 21t-39 56q-8 23 -8 47q0 22 7 47q10 35 41 53q5 3 0 6q-30 20 -40 52q-7 18 -7 39q0 24 7 41q12 34 39 52t65 18t66 -19t39 -52q7 -20 7 -40q0 -14 -7 -39q-10 -31 -41 -51q-5 -3 0 -6zM580 288
q12 -48 59 -48q24 0 39 13t20 35q2 14 2 22q0 14 -2 21q-6 23 -21.5 36t-37.5 13t-37 -11.5t-20 -31.5l-3 -12q-1 -5 -1 -15q0 -14 2 -22zM699 133q0 29 -17 48.5t-43 19.5q-24 0 -39 -14.5t-19 -39.5q-3 -16 -3 -28q0 -14 3 -29q3 -24 19 -38.5t39 -14.5t38.5 14.5
t19.5 38.5q2 10 2 29v14z" />
    <glyph glyph-name="seveneighths" unicode="&#x215e;" horiz-adv-x="734" 
d="M68 291l116 360q1 2 -0.5 3.5t-3.5 1.5h-123q-4 0 -4 -4v-32q0 -10 -10 -10h-22q-10 0 -10 10v70q0 10 10 10h208q10 0 10 -10v-28q0 -4 -2 -12l-117 -362q-3 -8 -12 -8h-32q-11 0 -8 11zM85.5 3.5q-1.5 3.5 1.5 8.5l428 681q5 7 12 7h33q6 0 7.5 -3.5t-1.5 -8.5
l-428 -681q-5 -7 -12 -7h-33q-6 0 -7.5 3.5zM655 217q31 -20 41 -54q6 -22 6 -47q0 -29 -6 -46q-10 -35 -38.5 -56.5t-66.5 -21.5t-65 21t-39 56q-8 23 -8 47q0 22 7 47q10 35 41 53q5 3 0 6q-30 20 -40 52q-7 18 -7 39q0 24 7 41q12 34 39 52t65 18t66 -19t39 -52
q7 -20 7 -40q0 -14 -7 -39q-10 -31 -41 -51q-5 -3 0 -6zM532 288q12 -48 59 -48q24 0 39 13t20 35q2 14 2 22q0 14 -2 21q-6 23 -21.5 36t-37.5 13t-37 -11.5t-20 -31.5l-3 -12q-1 -5 -1 -15q0 -14 2 -22zM651 133q0 29 -17 48.5t-43 19.5q-24 0 -39 -14.5t-19 -39.5
q-3 -16 -3 -28q0 -14 3 -29q3 -24 19 -38.5t39 -14.5t38.5 14.5t19.5 38.5q2 10 2 29v14z" />
    <glyph glyph-name="partialdiff" unicode="&#x2202;" horiz-adv-x="560" 
d="M470 497.5q18 -75.5 18 -156.5q0 -22 -1 -33q-4 -134 -55 -225t-172 -91q-60 0 -106.5 26t-72.5 75t-26 116q0 69 28.5 119.5t76 77.5t103.5 27q42 0 80.5 -15.5t68.5 -41.5q5 -5 5 2q-9 134 -57 201q-44 61 -116 61q-50 0 -98 -30q-2 -1 -5 -1q-6 0 -8 6l-17 42
q-1 1 -1 4q0 7 6 10q60 36 125 36q104 0 167 -83q39 -51 57 -126.5zM417 275q0 4 -1 5q-19 40 -58 66t-86 26q-40 0 -73.5 -20t-53 -57t-19.5 -85q0 -70 38.5 -113t100.5 -43q139 0 152 221z" />
    <glyph glyph-name="uni2206" unicode="&#x2206;" horiz-adv-x="591" 
d="M33 10v46q0 4 2 12l230 624q3 8 12 8h37q9 0 12 -8l230 -625q2 -8 2 -12v-45q0 -10 -10 -10h-505q-10 0 -10 10zM104 63.5q1 -1.5 3 -1.5h377q2 0 3 1.5t0 3.5l-189 536q-1 2 -3 2t-3 -2l-188 -536q-1 -2 0 -3.5z" />
    <glyph glyph-name="product" unicode="&#x220f;" horiz-adv-x="563" 
d="M481 790v-980q0 -10 -10 -10h-51q-10 0 -10 10v924q0 4 -4 4h-248q-4 0 -4 -4v-924q0 -10 -10 -10h-51q-10 0 -10 10v980q0 10 10 10h378q10 0 10 -10z" />
    <glyph glyph-name="summation" unicode="&#x2211;" horiz-adv-x="561" 
d="M83 -189v44q0 5 3 13l227 431q1 2 -1 6l-224 356q-4 8 -4 13v45q0 10 10 10h408q10 0 10 -10v-42q0 -10 -10 -10h-342q-2 0 -3 -2t0 -3l227 -353q2 -4 2 -6t-2 -8l-227 -428q-2 -5 2 -5h343q10 0 10 -10v-41q0 -10 -10 -10h-409q-10 0 -10 10z" />
    <glyph glyph-name="minus" unicode="&#x2212;" horiz-adv-x="471" 
d="M36 296v38q0 10 10 10h379q10 0 10 -10v-38q0 -10 -10 -10h-379q-10 0 -10 10z" />
    <glyph glyph-name="uni2215" unicode="&#x2215;" horiz-adv-x="447" 
d="M32 3.5q-2 3.5 0 8.5l321 681q3 7 11 7h45q5 0 7 -3.5t0 -8.5l-320 -681q-3 -7 -11 -7h-46q-5 0 -7 3.5z" />
    <glyph glyph-name="uni2219" unicode="&#x2219;" horiz-adv-x="302" 
d="M70 229.5q-34 34.5 -34 81.5q0 48 34 81.5t82 33.5q47 0 80.5 -33.5t33.5 -81.5q0 -47 -34 -81.5t-80 -34.5q-48 0 -82 34.5z" />
    <glyph glyph-name="radical" unicode="&#x221a;" horiz-adv-x="693" 
d="M152 -192l-123 354l-1 4q0 6 8 9l47 15q2 1 5 1q6 0 7 -7l87 -262q1 -2 2.5 -2t2.5 2l216 859q2 9 11 9h199q10 0 10 -10v-41q0 -10 -10 -10h-149q-5 0 -5 -3l-231 -917q-1 -9 -11 -9h-53q-9 0 -12 8z" />
    <glyph glyph-name="infinity" unicode="&#x221e;" horiz-adv-x="687" 
d="M580 457.5q34 -20.5 53 -57t19 -81.5q0 -70 -43 -114.5t-108 -44.5q-49 0 -87 28t-73 78q-3 3 -6 0q-73 -106 -155 -106q-40 0 -73 21t-52 57.5t-19 81.5q0 46 19.5 82t53 56t73.5 20q48 0 84 -28t70 -77q3 -3 6 1q38 50 77 77t85 27q42 0 76 -20.5zM240 241.5
q27 24.5 63 75.5q2 3 0 6q-35 52 -61 75t-59 23q-38 0 -64 -28t-26 -73q0 -44 25.5 -73.5t61.5 -29.5q33 0 60 24.5zM568.5 245q25.5 28 25.5 74q0 45 -25.5 73.5t-63.5 28.5q-35 0 -65.5 -24.5t-65.5 -74.5q-1 -3 0 -6q31 -48 60.5 -73.5t67.5 -25.5q41 0 66.5 28z" />
    <glyph glyph-name="integral" unicode="&#x222b;" horiz-adv-x="369" 
d="M31 -193v43q0 10 10 10h19q47 0 64.5 25.5t18.5 82.5l4 575q1 65 16.5 99t52 47t105.5 14q10 0 10 -10l1 -43q0 -10 -10 -10h-20q-47 0 -65 -26t-18 -82l-4 -575q-1 -65 -17 -99t-52 -47t-105 -14q-10 0 -10 10z" />
    <glyph glyph-name="approxequal" unicode="&#x2248;" horiz-adv-x="481" 
d="M283 372q-21 8 -50 25q-21 12 -38 19t-37 7q-45 0 -73 -38l-2 -4q-2 -3 -5.5 -3.5t-6.5 1.5l-27 18q-8 6 -5 13q15 34 46 55t69 21q25 0 44.5 -7t39.5 -19q29 -17 47.5 -25t43.5 -8q20 0 34 10t30 29q6 8 14 3l30 -20q8 -6 4 -13q-43 -72 -109 -72q-28 0 -49 8zM283 158
q-21 8 -50 25q-21 12 -38 19t-37 7q-45 0 -73 -38l-2 -4q-2 -3 -5.5 -3.5t-6.5 1.5l-27 18q-8 6 -5 13q15 34 46 55t69 21q25 0 44.5 -7t39.5 -19q29 -17 47.5 -25t43.5 -8q20 0 34 10t30 29q6 8 14 3l30 -20q8 -6 4 -13q-43 -72 -109 -72q-28 0 -49 8z" />
    <glyph glyph-name="notequal" unicode="&#x2260;" horiz-adv-x="471" 
d="M425 401h-136q-2 0 -4 -3l-67 -141q-1 -2 0 -3.5t3 -1.5h204q10 0 10 -10v-38q0 -10 -10 -10h-234q-2 0 -4 -3l-41 -86q-3 -7 -11 -7h-27q-5 0 -7 3.5t0 8.5l37 79q1 2 0 3.5t-3 1.5h-89q-10 0 -10 10v38q0 10 10 10h119q3 0 4 3l67 141q1 2 0 3.5t-3 1.5h-187
q-10 0 -10 10v38q0 10 10 10h216q3 0 4 3l43 91q3 7 12 7h27q5 0 7 -3.5t0 -8.5l-40 -84q-1 -2 0 -3.5t3 -1.5h107q10 0 10 -10v-38q0 -10 -10 -10z" />
    <glyph glyph-name="lessequal" unicode="&#x2264;" horiz-adv-x="471" 
d="M431.5 117.5q-3.5 -2.5 -8.5 0.5l-380 181q-7 4 -7 12v48q0 8 7 12l380 181q2 1 5 1q7 0 7 -8v-49q0 -7 -7 -11l-317 -147q-4 -3 0 -6l317 -147q7 -4 7 -11v-49q0 -5 -3.5 -7.5zM425 14h-379q-10 0 -10 10v38q0 10 10 10h379q10 0 10 -10v-38q0 -10 -10 -10z" />
    <glyph glyph-name="greaterequal" unicode="&#x2265;" horiz-adv-x="471" 
d="M36 24v38q0 10 10 10h379q10 0 10 -10v-38q0 -10 -10 -10h-379q-10 0 -10 10zM43 116q-3 0 -5 2.5t-2 6.5v49q0 7 7 11l317 147q5 3 0 6l-317 147q-7 4 -7 11v49q0 5 3.5 7.5t8.5 -0.5l380 -181q7 -4 7 -12v-48q0 -8 -7 -12l-380 -181z" />
    <glyph glyph-name="lozenge" unicode="&#x25ca;" horiz-adv-x="447" 
d="M193 -38l-154 381q-3 7 0 14l155 381q3 8 11 8h37q8 0 11 -8l155 -381q4 -7 0 -14l-154 -381q-3 -8 -11 -8h-39q-8 0 -11 8zM223 30q2 0 3 3l121 314q2 3 0 6l-121 313q-1 3 -3 3t-3 -3l-120 -313q-1 -3 0 -6l120 -314q1 -3 3 -3z" />
    <glyph glyph-name="NULL" 
 />
    <glyph glyph-name="i.loclTRK" horiz-adv-x="204" 
d="M65 10v486q0 10 10 10h51q10 0 10 -10v-486q0 -10 -10 -10h-51q-10 0 -10 10zM68 605.5q-12 12.5 -12 31.5q0 20 12 32t32 12q19 0 30.5 -12t11.5 -32t-11.5 -32t-30.5 -12q-20 0 -32 12.5z" />
    <glyph glyph-name="a.alt" horiz-adv-x="482" 
d="M351 506h51q10 0 10 -10v-486q0 -10 -10 -10h-51q-10 0 -10 10v41q0 3 -2 3.5t-3 -2.5q-38 -60 -118 -60q-62 0 -101.5 37t-53.5 107q-8 42 -8 116q0 75 7 116q12 70 52.5 108t106.5 38q80 0 115 -59q2 -2 3.5 -2t1.5 3v40q0 10 10 10zM340 253q0 74 -9 113q-7 40 -31 63
t-63 23t-65 -23t-35 -61q-11 -43 -11 -115t9 -111q8 -41 34 -64.5t67 -23.5q39 0 63.5 23.5t32.5 63.5t8 112z" />
    <glyph glyph-name="a.sc" horiz-adv-x="468" 
d="M365 9l-26 96q-1 3 -5 3h-201q-4 0 -5 -3l-26 -96q-2 -9 -11 -9h-50q-5 0 -7.5 3t-1.5 8l160 558q3 8 11 8h60q8 0 11 -8l162 -558l1 -3q0 -8 -10 -8h-51q-9 0 -11 9zM146.5 167.5q1.5 -1.5 3.5 -1.5h167q2 0 3.5 1.5t0.5 2.5l-85 313q-1 2 -2.5 2t-2.5 -2l-85 -313
q-1 -1 0.5 -2.5z" />
    <glyph glyph-name="aacute.sc" horiz-adv-x="468" 
d="M365 9l-26 96q-1 3 -5 3h-201q-4 0 -5 -3l-26 -96q-2 -9 -11 -9h-50q-5 0 -7.5 3t-1.5 8l160 558q3 8 11 8h60q8 0 11 -8l162 -558l1 -3q0 -8 -10 -8h-51q-9 0 -11 9zM146.5 167.5q1.5 -1.5 3.5 -1.5h167q2 0 3.5 1.5t0.5 2.5l-85 313q-1 2 -2.5 2t-2.5 -2l-85 -313
q-1 -1 0.5 -2.5zM190 651.5q-2 3.5 1 8.5l61 109q5 7 12 7h48q6 0 7.5 -3.5t-1.5 -8.5l-69 -109q-5 -7 -12 -7h-39q-6 0 -8 3.5z" />
    <glyph glyph-name="abreve.sc" horiz-adv-x="468" 
d="M365 9l-26 96q-1 3 -5 3h-201q-4 0 -5 -3l-26 -96q-2 -9 -11 -9h-50q-5 0 -7.5 3t-1.5 8l160 558q3 8 11 8h60q8 0 11 -8l162 -558l1 -3q0 -8 -10 -8h-51q-9 0 -11 9zM146.5 167.5q1.5 -1.5 3.5 -1.5h167q2 0 3.5 1.5t0.5 2.5l-85 313q-1 2 -2.5 2t-2.5 -2l-85 -313
q-1 -1 0.5 -2.5zM160 642.5q-30 27.5 -34 68.5q0 10 10 10h23q10 0 11 -10q3 -26 20.5 -42t42.5 -16q24 0 42 16.5t21 41.5q1 10 11 10h23q10 0 10 -10q-4 -42 -34 -69t-73 -27t-73 27.5z" />
    <glyph glyph-name="uni01CE.sc" horiz-adv-x="468" 
d="M365 9l-26 96q-1 3 -5 3h-201q-4 0 -5 -3l-26 -96q-2 -9 -11 -9h-50q-5 0 -7.5 3t-1.5 8l160 558q3 8 11 8h60q8 0 11 -8l162 -558l1 -3q0 -8 -10 -8h-51q-9 0 -11 9zM146.5 167.5q1.5 -1.5 3.5 -1.5h167q2 0 3.5 1.5t0.5 2.5l-85 313q-1 2 -2.5 2t-2.5 -2l-85 -313
q-1 -1 0.5 -2.5zM192 636l-73 107l-2 5q0 7 9 7h39q8 0 12 -6l53 -79q1 -1 3 -1t3 1l52 79q4 6 12 6h38q6 0 8 -3.5t-1 -8.5l-75 -107q-4 -6 -12 -6h-54q-8 0 -12 6z" />
    <glyph glyph-name="acircumflex.sc" horiz-adv-x="468" 
d="M365 9l-26 96q-1 3 -5 3h-201q-4 0 -5 -3l-26 -96q-2 -9 -11 -9h-50q-5 0 -7.5 3t-1.5 8l160 558q3 8 11 8h60q8 0 11 -8l162 -558l1 -3q0 -8 -10 -8h-51q-9 0 -11 9zM146.5 167.5q1.5 -1.5 3.5 -1.5h167q2 0 3.5 1.5t0.5 2.5l-85 313q-1 2 -2.5 2t-2.5 -2l-85 -313
q-1 -1 0.5 -2.5zM116 645q-2 4 2 8l74 106q4 6 12 6h54q8 0 12 -6l76 -106q2 -2 2 -6q0 -2 -2 -4t-6 -2h-41q-7 0 -12 6l-52 79q-1 2 -3 2t-3 -2l-52 -79q-4 -6 -12 -6h-41q-6 0 -8 4z" />
    <glyph glyph-name="adieresis.sc" horiz-adv-x="468" 
d="M365 9l-26 96q-1 3 -5 3h-201q-4 0 -5 -3l-26 -96q-2 -9 -11 -9h-50q-5 0 -7.5 3t-1.5 8l160 558q3 8 11 8h60q8 0 11 -8l162 -558l1 -3q0 -8 -10 -8h-51q-9 0 -11 9zM146.5 167.5q1.5 -1.5 3.5 -1.5h167q2 0 3.5 1.5t0.5 2.5l-85 313q-1 2 -2.5 2t-2.5 -2l-85 -313
q-1 -1 0.5 -2.5zM126 681q-13 13 -13 34q0 20 13 33t33 13q19 0 32 -13t13 -33q0 -21 -12.5 -34t-32.5 -13t-33 13zM276 681q-13 13 -13 34q0 20 13 33t33 13q19 0 32 -13t13 -33q0 -21 -12.5 -34t-32.5 -13t-33 13z" />
    <glyph glyph-name="agrave.sc" horiz-adv-x="468" 
d="M365 9l-26 96q-1 3 -5 3h-201q-4 0 -5 -3l-26 -96q-2 -9 -11 -9h-50q-5 0 -7.5 3t-1.5 8l160 558q3 8 11 8h60q8 0 11 -8l162 -558l1 -3q0 -8 -10 -8h-51q-9 0 -11 9zM146.5 167.5q1.5 -1.5 3.5 -1.5h167q2 0 3.5 1.5t0.5 2.5l-85 313q-1 2 -2.5 2t-2.5 -2l-85 -313
q-1 -1 0.5 -2.5zM258 654q0 -6 -9 -6h-39q-7 0 -12 7l-69 109q-2 4 -2 6q0 6 8 6h48q7 0 12 -7l61 -109q2 -4 2 -6z" />
    <glyph glyph-name="amacron.sc" horiz-adv-x="468" 
d="M365 9l-26 96q-1 3 -5 3h-201q-4 0 -5 -3l-26 -96q-2 -9 -11 -9h-50q-5 0 -7.5 3t-1.5 8l160 558q3 8 11 8h60q8 0 11 -8l162 -558l1 -3q0 -8 -10 -8h-51q-9 0 -11 9zM146.5 167.5q1.5 -1.5 3.5 -1.5h167q2 0 3.5 1.5t0.5 2.5l-85 313q-1 2 -2.5 2t-2.5 -2l-85 -313
q-1 -1 0.5 -2.5zM115 676v31q0 10 10 10h215q10 0 10 -10v-31q0 -10 -10 -10h-215q-10 0 -10 10z" />
    <glyph glyph-name="aogonek.sc" horiz-adv-x="487" 
d="M365 9l-26 96q-1 3 -5 3h-201q-4 0 -5 -3l-26 -96q-2 -9 -11 -9h-50q-5 0 -7.5 3t-1.5 8l160 558q3 8 11 8h60q8 0 11 -8l162 -558l1 -3q0 -8 -10 -8h-51q-9 0 -11 9zM146.5 167.5q1.5 -1.5 3.5 -1.5h167q2 0 3.5 1.5t0.5 2.5l-85 313q-1 2 -2.5 2t-2.5 -2l-85 -313
q-1 -1 0.5 -2.5zM454 -173q0 -6 -7 -9q-20 -4 -34 -4q-36 0 -61 19t-25 63q0 54 53 100q5 4 13 4h26q8 0 8 -5q0 -4 -4 -7q-45 -43 -45 -82q0 -8 1 -12q6 -36 42 -36q12 0 18 2l3 1q7 0 9 -9l3 -22v-3z" />
    <glyph glyph-name="aring.sc" horiz-adv-x="468" 
d="M365 9l-26 96q-1 3 -5 3h-201q-4 0 -5 -3l-26 -96q-2 -9 -11 -9h-50q-5 0 -7.5 3t-1.5 8l160 558q3 8 11 8h60q8 0 11 -8l162 -558l1 -3q0 -8 -10 -8h-51q-9 0 -11 9zM146.5 167.5q1.5 -1.5 3.5 -1.5h167q2 0 3.5 1.5t0.5 2.5l-85 313q-1 2 -2.5 2t-2.5 -2l-85 -313
q-1 -1 0.5 -2.5zM160 671.5q-30 29.5 -30 72.5q0 44 29.5 73.5t73.5 29.5q43 0 72.5 -30t29.5 -73t-29.5 -72.5t-72.5 -29.5t-73 29.5zM277.5 698.5q18.5 18.5 18.5 45.5t-18.5 46t-44.5 19q-27 0 -45.5 -18.5t-18.5 -46.5q0 -27 19 -45.5t45 -18.5t44.5 18.5z" />
    <glyph glyph-name="atilde.sc" horiz-adv-x="468" 
d="M365 9l-26 96q-1 3 -5 3h-201q-4 0 -5 -3l-26 -96q-2 -9 -11 -9h-50q-5 0 -7.5 3t-1.5 8l160 558q3 8 11 8h60q8 0 11 -8l162 -558l1 -3q0 -8 -10 -8h-51q-9 0 -11 9zM146.5 167.5q1.5 -1.5 3.5 -1.5h167q2 0 3.5 1.5t0.5 2.5l-85 313q-1 2 -2.5 2t-2.5 -2l-85 -313
q-1 -1 0.5 -2.5zM268 670q-13 6 -29 17q-3 2 -12.5 8t-17 9t-15.5 3q-15 0 -25.5 -5.5t-21.5 -20.5q-6 -9 -14 -3l-18 13q-9 5 -4 13q28 53 79 53q16 0 27.5 -5.5t31.5 -17.5q17 -11 26.5 -16t20.5 -5q27 0 46 28q5 10 14 4l19 -12q4 -3 4 -8t-4 -12q-15 -25 -36.5 -37
t-42.5 -12q-15 0 -28 6z" />
    <glyph glyph-name="ae.sc" horiz-adv-x="721" 
d="M670 514h-244q-4 0 -4 -4v-185q0 -4 4 -4h158q10 0 10 -10v-43q0 -10 -10 -10h-158q-4 0 -4 -4v-188q0 -4 4 -4h244q10 0 10 -10v-42q0 -10 -10 -10h-310q-10 0 -10 10v94q0 4 -4 4h-184q-2 0 -4 -3l-49 -98q-3 -7 -12 -7h-55q-5 0 -7 3.5t0 8.5l281 558q3 7 12 7h342
q10 0 10 -10v-43q0 -10 -10 -10zM193 166h153q4 0 4 4v310q0 3 -1.5 3.5t-3.5 -1.5l-155 -311q-2 -5 3 -5z" />
    <glyph glyph-name="b.sc" horiz-adv-x="468" 
d="M340 295q84 -38 85 -137q0 -75 -47.5 -116.5t-125.5 -41.5h-174q-10 0 -10 10v557q0 10 10 10h166q82 0 128.5 -39.5t46.5 -113.5q0 -90 -79 -124q-5 -2 0 -5zM139 510v-183q0 -4 4 -4h105q47 0 74 25.5t27 68.5q0 45 -27 71t-74 26h-105q-4 0 -4 -4zM326.5 90.5
q27.5 27.5 27.5 74.5t-28.5 75.5t-75.5 28.5h-107q-4 0 -4 -4v-198q0 -4 4 -4h109q47 0 74.5 27.5z" />
    <glyph glyph-name="c.sc" horiz-adv-x="458" 
d="M102 41q-49 48 -49 130v236q0 82 48.5 129.5t130.5 47.5t130.5 -47t48.5 -128v-5q0 -5 -3 -8t-7 -3l-51 -2q-10 0 -10 9v11q0 52 -30.5 81t-81.5 29q-47 0 -75.5 -30t-28.5 -80v-245q0 -51 29.5 -81t78.5 -30t78.5 30t29.5 81v10q0 10 10 10l51 -3q10 0 10 -7v-8
q0 -81 -49 -128t-130 -47t-130 48z" />
    <glyph glyph-name="cacute.sc" horiz-adv-x="458" 
d="M102 41q-49 48 -49 130v236q0 82 48.5 129.5t130.5 47.5t130.5 -47t48.5 -128v-5q0 -5 -3 -8t-7 -3l-51 -2q-10 0 -10 9v11q0 52 -30.5 81t-81.5 29q-47 0 -75.5 -30t-28.5 -80v-245q0 -51 29.5 -81t78.5 -30t78.5 30t29.5 81v10q0 10 10 10l51 -3q10 0 10 -7v-8
q0 -81 -49 -128t-130 -47t-130 48zM189 658.5q-2 3.5 1 8.5l61 109q5 7 12 7h48q6 0 7.5 -3.5t-1.5 -8.5l-69 -109q-5 -7 -12 -7h-39q-6 0 -8 3.5z" />
    <glyph glyph-name="ccaron.sc" horiz-adv-x="458" 
d="M102 41q-49 48 -49 130v236q0 82 48.5 129.5t130.5 47.5t130.5 -47t48.5 -128v-5q0 -5 -3 -8t-7 -3l-51 -2q-10 0 -10 9v11q0 52 -30.5 81t-81.5 29q-47 0 -75.5 -30t-28.5 -80v-245q0 -51 29.5 -81t78.5 -30t78.5 30t29.5 81v10q0 10 10 10l51 -3q10 0 10 -7v-8
q0 -81 -49 -128t-130 -47t-130 48zM191 643l-73 107l-2 5q0 7 9 7h39q8 0 12 -6l53 -79q1 -1 3 -1t3 1l52 79q4 6 12 6h38q6 0 8 -3.5t-1 -8.5l-75 -107q-4 -6 -12 -6h-54q-8 0 -12 6z" />
    <glyph glyph-name="ccedilla.sc" horiz-adv-x="458" 
d="M408 395.5q-3 -2.5 -7 -2.5l-51 -2q-10 0 -10 9v11q0 52 -30.5 81t-81.5 29q-47 0 -75.5 -30t-28.5 -80v-245q0 -51 29.5 -81t78.5 -30t78.5 30t29.5 81v10q0 10 10 10l51 -3q10 0 10 -7v-8q0 -76 -42.5 -122t-116.5 -53q-3 0 -3.5 -1t1.5 -3q46 -42 46 -91
q0 -45 -25.5 -64t-61.5 -19q-14 0 -34 4q-8 3 -7 12l3 22q1 5 4.5 7t7.5 1q6 -2 18 -2q36 0 42 36q1 4 1 12q0 43 -52 88q-1 2 -5 2q-62 12 -98 58t-36 116v236q0 82 48.5 129.5t130.5 47.5t130.5 -47t48.5 -128v-7q0 -4 -3 -6.5z" />
    <glyph glyph-name="cdotaccent.sc" horiz-adv-x="458" 
d="M102 41q-49 48 -49 130v236q0 82 48.5 129.5t130.5 47.5t130.5 -47t48.5 -128v-5q0 -5 -3 -8t-7 -3l-51 -2q-10 0 -10 9v11q0 52 -30.5 81t-81.5 29q-47 0 -75.5 -30t-28.5 -80v-245q0 -51 29.5 -81t78.5 -30t78.5 30t29.5 81v10q0 10 10 10l51 -3q10 0 10 -7v-8
q0 -81 -49 -128t-130 -47t-130 48zM200 673.5q-12 12.5 -12 31.5q0 20 12 32t32 12q19 0 30.5 -12t11.5 -32t-11.5 -32t-30.5 -12q-20 0 -32 12.5z" />
    <glyph glyph-name="d.sc" horiz-adv-x="470" 
d="M68 10v557q0 10 10 10h170q79 0 125.5 -43t46.5 -116v-259q0 -73 -46.5 -116t-125.5 -43h-170q-10 0 -10 10zM143 62h107q45 1 71.5 28.5t27.5 75.5v245q0 47 -27 75t-73 28h-106q-4 0 -4 -4v-444q0 -4 4 -4z" />
    <glyph glyph-name="eth.sc" horiz-adv-x="515" 
d="M418.5 534q46.5 -43 46.5 -116v-259q0 -73 -46.5 -116t-125.5 -43h-170q-10 0 -10 10v261q0 4 -4 4h-31q-10 0 -10 10v27q0 10 10 10h31q4 0 4 4v241q0 10 10 10h170q79 0 125.5 -43zM394 411q0 47 -27 75t-73 28h-106q-4 0 -4 -4v-184q0 -4 4 -4h78q10 0 10 -10v-27
q0 -10 -10 -10h-78q-4 0 -4 -4v-205q0 -4 4 -4h107q45 1 71.5 28.5t27.5 75.5v245z" />
    <glyph glyph-name="dcaron.sc" horiz-adv-x="470" 
d="M68 10v557q0 10 10 10h170q79 0 125.5 -43t46.5 -116v-259q0 -73 -46.5 -116t-125.5 -43h-170q-10 0 -10 10zM143 62h107q45 1 71.5 28.5t27.5 75.5v245q0 47 -27 75t-73 28h-106q-4 0 -4 -4v-444q0 -4 4 -4zM191 640l-73 107l-2 5q0 7 9 7h39q8 0 12 -6l53 -79
q1 -1 3 -1t3 1l52 79q4 6 12 6h38q6 0 8 -3.5t-1 -8.5l-75 -107q-4 -6 -12 -6h-54q-8 0 -12 6z" />
    <glyph glyph-name="dcroat.sc" horiz-adv-x="515" 
d="M418.5 534q46.5 -43 46.5 -116v-259q0 -73 -46.5 -116t-125.5 -43h-170q-10 0 -10 10v261q0 4 -4 4h-31q-10 0 -10 10v27q0 10 10 10h31q4 0 4 4v241q0 10 10 10h170q79 0 125.5 -43zM394 411q0 47 -27 75t-73 28h-106q-4 0 -4 -4v-184q0 -4 4 -4h78q10 0 10 -10v-27
q0 -10 -10 -10h-78q-4 0 -4 -4v-205q0 -4 4 -4h107q45 1 71.5 28.5t27.5 75.5v245z" />
    <glyph glyph-name="e.sc" horiz-adv-x="448" 
d="M397 514h-254q-4 0 -4 -4v-185q0 -4 4 -4h168q10 0 10 -10v-43q0 -10 -10 -10h-168q-4 0 -4 -4v-188q0 -4 4 -4h254q10 0 10 -10v-42q0 -10 -10 -10h-319q-10 0 -10 10v556q0 10 10 10h319q10 0 10 -10v-42q0 -10 -10 -10z" />
    <glyph glyph-name="eacute.sc" horiz-adv-x="448" 
d="M397 514h-254q-4 0 -4 -4v-185q0 -4 4 -4h168q10 0 10 -10v-43q0 -10 -10 -10h-168q-4 0 -4 -4v-188q0 -4 4 -4h254q10 0 10 -10v-42q0 -10 -10 -10h-319q-10 0 -10 10v556q0 10 10 10h319q10 0 10 -10v-42q0 -10 -10 -10zM187 660.5q-2 3.5 1 8.5l61 109q5 7 12 7h48
q6 0 7.5 -3.5t-1.5 -8.5l-69 -109q-5 -7 -12 -7h-39q-6 0 -8 3.5z" />
    <glyph glyph-name="ecaron.sc" horiz-adv-x="448" 
d="M397 514h-254q-4 0 -4 -4v-185q0 -4 4 -4h168q10 0 10 -10v-43q0 -10 -10 -10h-168q-4 0 -4 -4v-188q0 -4 4 -4h254q10 0 10 -10v-42q0 -10 -10 -10h-319q-10 0 -10 10v556q0 10 10 10h319q10 0 10 -10v-42q0 -10 -10 -10zM189 645l-73 107l-2 5q0 7 9 7h39q8 0 12 -6
l53 -79q1 -1 3 -1t3 1l52 79q4 6 12 6h38q6 0 8 -3.5t-1 -8.5l-75 -107q-4 -6 -12 -6h-54q-8 0 -12 6z" />
    <glyph glyph-name="uni0229.sc" horiz-adv-x="448" 
d="M397 514h-254q-4 0 -4 -4v-185q0 -4 4 -4h168q10 0 10 -10v-43q0 -10 -10 -10h-168q-4 0 -4 -4v-188q0 -4 4 -4h254q10 0 10 -10v-42q0 -10 -10 -10h-137q-5 0 -2 -5q44 -41 44 -91q0 -8 -2 -22q-7 -32 -30 -46t-54 -14q-14 0 -34 4q-8 3 -7 12l3 22q1 5 4.5 7t7.5 1
q6 -2 18 -2q19 0 31 11.5t12 35.5q0 40 -48 85q-2 2 -5 2h-120q-10 0 -10 10v556q0 10 10 10h319q10 0 10 -10v-42q0 -10 -10 -10z" />
    <glyph glyph-name="ecircumflex.sc" horiz-adv-x="448" 
d="M397 514h-254q-4 0 -4 -4v-185q0 -4 4 -4h168q10 0 10 -10v-43q0 -10 -10 -10h-168q-4 0 -4 -4v-188q0 -4 4 -4h254q10 0 10 -10v-42q0 -10 -10 -10h-319q-10 0 -10 10v556q0 10 10 10h319q10 0 10 -10v-42q0 -10 -10 -10zM113 654q-2 4 2 8l74 106q4 6 12 6h54
q8 0 12 -6l76 -106q2 -2 2 -6q0 -2 -2 -4t-6 -2h-41q-7 0 -12 6l-52 79q-1 2 -3 2t-3 -2l-52 -79q-4 -6 -12 -6h-41q-6 0 -8 4z" />
    <glyph glyph-name="edieresis.sc" horiz-adv-x="448" 
d="M397 514h-254q-4 0 -4 -4v-185q0 -4 4 -4h168q10 0 10 -10v-43q0 -10 -10 -10h-168q-4 0 -4 -4v-188q0 -4 4 -4h254q10 0 10 -10v-42q0 -10 -10 -10h-319q-10 0 -10 10v556q0 10 10 10h319q10 0 10 -10v-42q0 -10 -10 -10zM123 690q-13 13 -13 34q0 20 13 33t33 13
q19 0 32 -13t13 -33q0 -21 -12.5 -34t-32.5 -13t-33 13zM273 690q-13 13 -13 34q0 20 13 33t33 13q19 0 32 -13t13 -33q0 -21 -12.5 -34t-32.5 -13t-33 13z" />
    <glyph glyph-name="edotaccent.sc" horiz-adv-x="448" 
d="M397 514h-254q-4 0 -4 -4v-185q0 -4 4 -4h168q10 0 10 -10v-43q0 -10 -10 -10h-168q-4 0 -4 -4v-188q0 -4 4 -4h254q10 0 10 -10v-42q0 -10 -10 -10h-319q-10 0 -10 10v556q0 10 10 10h319q10 0 10 -10v-42q0 -10 -10 -10zM198 675.5q-12 12.5 -12 31.5q0 20 12 32t32 12
q19 0 30.5 -12t11.5 -32t-11.5 -32t-30.5 -12q-20 0 -32 12.5z" />
    <glyph glyph-name="egrave.sc" horiz-adv-x="448" 
d="M397 514h-254q-4 0 -4 -4v-185q0 -4 4 -4h168q10 0 10 -10v-43q0 -10 -10 -10h-168q-4 0 -4 -4v-188q0 -4 4 -4h254q10 0 10 -10v-42q0 -10 -10 -10h-319q-10 0 -10 10v556q0 10 10 10h319q10 0 10 -10v-42q0 -10 -10 -10zM255 663q0 -6 -9 -6h-39q-7 0 -12 7l-69 109
q-2 4 -2 6q0 6 8 6h48q7 0 12 -7l61 -109q2 -4 2 -6z" />
    <glyph glyph-name="emacron.sc" horiz-adv-x="448" 
d="M397 514h-254q-4 0 -4 -4v-185q0 -4 4 -4h168q10 0 10 -10v-43q0 -10 -10 -10h-168q-4 0 -4 -4v-188q0 -4 4 -4h254q10 0 10 -10v-42q0 -10 -10 -10h-319q-10 0 -10 10v556q0 10 10 10h319q10 0 10 -10v-42q0 -10 -10 -10zM112 685v31q0 10 10 10h215q10 0 10 -10v-31
q0 -10 -10 -10h-215q-10 0 -10 10z" />
    <glyph glyph-name="eogonek.sc" horiz-adv-x="448" 
d="M397 514h-254q-4 0 -4 -4v-185q0 -4 4 -4h168q10 0 10 -10v-43q0 -10 -10 -10h-168q-4 0 -4 -4v-188q0 -4 4 -4h254q10 0 10 -10v-42q0 -10 -10 -10h-142q-3 0 -5 -2q-49 -46 -49 -86q0 -24 12 -35.5t31 -11.5q12 0 18 2l4 1q6 0 8 -8l4 -23v-2q0 -7 -8 -9q-18 -5 -36 -5
q-30 0 -52.5 14t-29.5 46q-2 7 -2 22q0 50 45 92q2 2 1.5 3.5t-2.5 1.5h-116q-10 0 -10 10v556q0 10 10 10h319q10 0 10 -10v-42q0 -10 -10 -10z" />
    <glyph glyph-name="f.sc" horiz-adv-x="421" 
d="M396 514h-253q-4 0 -4 -4v-185q0 -4 4 -4h168q10 0 10 -10v-43q0 -10 -10 -10h-168q-4 0 -4 -4v-244q0 -10 -10 -10h-51q-10 0 -10 10v557q0 10 10 10h318q10 0 10 -10v-43q0 -10 -10 -10z" />
    <glyph glyph-name="g.sc" horiz-adv-x="475" 
d="M106 40.5q-50 47.5 -50 130.5v235q0 83 50 130.5t135 47.5q84 0 134.5 -47.5t50.5 -129.5v-12q0 -10 -10 -10h-51q-10 0 -10 10v13q0 54 -30.5 83.5t-83.5 29.5t-84 -30t-31 -86v-235q0 -55 31 -85t84 -30t83.5 30t30.5 85v61q0 4 -4 4h-94q-10 0 -10 10v37q0 10 10 10
h159q10 0 10 -10v-111q0 -83 -50.5 -130.5t-134.5 -47.5q-85 0 -135 47.5z" />
    <glyph glyph-name="gbreve.sc" horiz-adv-x="475" 
d="M106 40.5q-50 47.5 -50 130.5v235q0 83 50 130.5t135 47.5q84 0 134.5 -47.5t50.5 -129.5v-12q0 -10 -10 -10h-51q-10 0 -10 10v13q0 54 -30.5 83.5t-83.5 29.5t-84 -30t-31 -86v-235q0 -55 31 -85t84 -30t83.5 30t30.5 85v61q0 4 -4 4h-94q-10 0 -10 10v37q0 10 10 10
h159q10 0 10 -10v-111q0 -83 -50.5 -130.5t-134.5 -47.5q-85 0 -135 47.5zM168 649.5q-30 27.5 -34 68.5q0 10 10 10h23q10 0 11 -10q3 -26 20.5 -42t42.5 -16q24 0 42 16.5t21 41.5q1 10 11 10h23q10 0 10 -10q-4 -42 -34 -69t-73 -27t-73 27.5z" />
    <glyph glyph-name="uni0123.sc" horiz-adv-x="475" 
d="M106 40.5q-50 47.5 -50 130.5v235q0 83 50 130.5t135 47.5q84 0 134.5 -47.5t50.5 -129.5v-12q0 -10 -10 -10h-51q-10 0 -10 10v13q0 54 -30.5 83.5t-83.5 29.5t-84 -30t-31 -86v-235q0 -55 31 -85t84 -30t83.5 30t30.5 85v61q0 4 -4 4h-94q-10 0 -10 10v37q0 10 10 10
h159q10 0 10 -10v-111q0 -83 -50.5 -130.5t-134.5 -47.5q-85 0 -135 47.5zM180 -188.5q-2 3.5 1 8.5l61 109q5 7 12 7h48q6 0 7.5 -3.5t-1.5 -8.5l-69 -109q-5 -7 -12 -7h-39q-6 0 -8 3.5z" />
    <glyph glyph-name="gdotaccent.sc" horiz-adv-x="475" 
d="M106 40.5q-50 47.5 -50 130.5v235q0 83 50 130.5t135 47.5q84 0 134.5 -47.5t50.5 -129.5v-12q0 -10 -10 -10h-51q-10 0 -10 10v13q0 54 -30.5 83.5t-83.5 29.5t-84 -30t-31 -86v-235q0 -55 31 -85t84 -30t83.5 30t30.5 85v61q0 4 -4 4h-94q-10 0 -10 10v37q0 10 10 10
h159q10 0 10 -10v-111q0 -83 -50.5 -130.5t-134.5 -47.5q-85 0 -135 47.5zM209 673.5q-12 12.5 -12 31.5q0 20 12 32t32 12q19 0 30.5 -12t11.5 -32t-11.5 -32t-30.5 -12q-20 0 -32 12.5z" />
    <glyph glyph-name="h.sc" horiz-adv-x="487" 
d="M360 577h51q10 0 10 -10v-557q0 -10 -10 -10h-51q-10 0 -10 10v244q0 4 -4 4h-203q-4 0 -4 -4v-244q0 -10 -10 -10h-51q-10 0 -10 10v557q0 10 10 10h51q10 0 10 -10v-242q0 -4 4 -4h203q4 0 4 4v242q0 10 10 10z" />
    <glyph glyph-name="hbar.sc" horiz-adv-x="487" 
d="M497 460v-31q0 -10 -10 -10h-62q-4 0 -4 -4v-405q0 -10 -10 -10h-51q-10 0 -10 10v244q0 4 -4 4h-203q-4 0 -4 -4v-244q0 -10 -10 -10h-51q-10 0 -10 10v405q0 4 -4 4h-64q-10 0 -10 10v31q0 10 10 10h64q4 0 4 4v93q0 10 10 10h51q10 0 10 -10v-93q0 -4 4 -4h203
q4 0 4 4v93q0 10 10 10h51q10 0 10 -10v-93q0 -4 4 -4h62q10 0 10 -10zM350 325v90q0 4 -4 4h-203q-4 0 -4 -4v-90q0 -4 4 -4h203q4 0 4 4z" />
    <glyph glyph-name="i.sc" horiz-adv-x="207" 
d="M68 10v556q0 10 10 10h51q10 0 10 -10v-556q0 -10 -10 -10h-51q-10 0 -10 10z" />
    <glyph glyph-name="iacute.sc" horiz-adv-x="207" 
d="M68 10v556q0 10 10 10h51q10 0 10 -10v-556q0 -10 -10 -10h-51q-10 0 -10 10zM60 660.5q-2 3.5 1 8.5l61 109q5 7 12 7h48q6 0 7.5 -3.5t-1.5 -8.5l-69 -109q-5 -7 -12 -7h-39q-6 0 -8 3.5z" />
    <glyph glyph-name="icircumflex.sc" horiz-adv-x="207" 
d="M68 10v556q0 10 10 10h51q10 0 10 -10v-556q0 -10 -10 -10h-51q-10 0 -10 10zM-14 654q-2 4 2 8l74 106q4 6 12 6h54q8 0 12 -6l76 -106q2 -2 2 -6q0 -2 -2 -4t-6 -2h-41q-7 0 -12 6l-52 79q-1 2 -3 2t-3 -2l-52 -79q-4 -6 -12 -6h-41q-6 0 -8 4z" />
    <glyph glyph-name="idieresis.sc" horiz-adv-x="207" 
d="M68 10v556q0 10 10 10h51q10 0 10 -10v-556q0 -10 -10 -10h-51q-10 0 -10 10zM-4 690q-13 13 -13 34q0 20 13 33t33 13q19 0 32 -13t13 -33q0 -21 -12.5 -34t-32.5 -13t-33 13zM146 690q-13 13 -13 34q0 20 13 33t33 13q19 0 32 -13t13 -33q0 -21 -12.5 -34t-32.5 -13
t-33 13z" />
    <glyph glyph-name="i.sc.loclTRK" horiz-adv-x="207" 
d="M68 10v556q0 10 10 10h51q10 0 10 -10v-556q0 -10 -10 -10h-51q-10 0 -10 10zM71 675.5q-12 12.5 -12 31.5q0 20 12 32t32 12q19 0 30.5 -12t11.5 -32t-11.5 -32t-30.5 -12q-20 0 -32 12.5z" />
    <glyph glyph-name="igrave.sc" horiz-adv-x="207" 
d="M68 10v556q0 10 10 10h51q10 0 10 -10v-556q0 -10 -10 -10h-51q-10 0 -10 10zM128 663q0 -6 -9 -6h-39q-7 0 -12 7l-69 109q-2 4 -2 6q0 6 8 6h48q7 0 12 -7l61 -109q2 -4 2 -6z" />
    <glyph glyph-name="ij.sc" horiz-adv-x="645" 
d="M68 10v556q0 10 10 10h51q10 0 10 -10v-556q0 -10 -10 -10h-51q-10 0 -10 10zM275 40q-48 47 -48 125v43q0 10 10 10h51q10 0 10 -10v-44q0 -50 28.5 -79.5t75.5 -29.5t75.5 29.5t28.5 79.5v403q0 10 10 10h52q10 0 10 -10v-402q0 -78 -48.5 -125t-127.5 -47t-127 47z
" />
    <glyph glyph-name="imacron.sc" horiz-adv-x="207" 
d="M68 10v556q0 10 10 10h51q10 0 10 -10v-556q0 -10 -10 -10h-51q-10 0 -10 10zM-15 685v31q0 10 10 10h215q10 0 10 -10v-31q0 -10 -10 -10h-215q-10 0 -10 10z" />
    <glyph glyph-name="iogonek.sc" horiz-adv-x="220" 
d="M68 10v556q0 10 10 10h51q10 0 10 -10v-556q0 -10 -10 -10h-51q-10 0 -10 10zM156 -173q0 -6 -7 -9q-20 -4 -34 -4q-36 0 -61 19t-25 63q0 54 53 100q5 4 13 4h26q8 0 8 -5q0 -4 -4 -7q-45 -43 -45 -82q0 -8 1 -12q6 -36 42 -36q12 0 18 2l3 1q7 0 9 -9l3 -22v-3z" />
    <glyph glyph-name="j.sc" horiz-adv-x="438" 
d="M68 40q-48 47 -48 125v43q0 10 10 10h51q10 0 10 -10v-44q0 -50 28.5 -79.5t75.5 -29.5t75.5 29.5t28.5 79.5v403q0 10 10 10h52q10 0 10 -10v-402q0 -78 -48.5 -125t-127.5 -47t-127 47z" />
    <glyph glyph-name="k.sc" horiz-adv-x="464" 
d="M68 10v557q0 10 10 10h51q10 0 10 -10v-262q0 -2 2 -3t3 1l209 268q5 6 13 6h55q6 0 8 -3.5t-2 -8.5l-167 -222q-1 -3 0 -6l182 -325q2 -4 2 -6q0 -6 -9 -6h-57q-7 0 -12 7l-156 274q-2 5 -5 0l-64 -81q-2 -2 -2 -5v-185q0 -10 -10 -10h-51q-10 0 -10 10z" />
    <glyph glyph-name="uni0137.sc" horiz-adv-x="464" 
d="M68 10v557q0 10 10 10h51q10 0 10 -10v-262q0 -2 2 -3t3 1l209 268q5 6 13 6h55q6 0 8 -3.5t-2 -8.5l-167 -222q-1 -3 0 -6l182 -325q2 -4 2 -6q0 -6 -9 -6h-57q-7 0 -12 7l-156 274q-2 5 -5 0l-64 -81q-2 -2 -2 -5v-185q0 -10 -10 -10h-51q-10 0 -10 10zM181 -181.5
q-2 3.5 1 8.5l61 109q5 7 12 7h48q6 0 7.5 -3.5t-1.5 -8.5l-69 -109q-5 -7 -12 -7h-39q-6 0 -8 3.5z" />
    <glyph glyph-name="l.sc" horiz-adv-x="419" 
d="M68 10v557q0 10 10 10h51q10 0 10 -10v-501q0 -4 4 -4h247q10 0 10 -10v-42q0 -10 -10 -10h-312q-10 0 -10 10z" />
    <glyph glyph-name="lacute.sc" horiz-adv-x="419" 
d="M68 10v557q0 10 10 10h51q10 0 10 -10v-501q0 -4 4 -4h247q10 0 10 -10v-42q0 -10 -10 -10h-312q-10 0 -10 10zM60 651.5q-2 3.5 1 8.5l61 109q5 7 12 7h48q6 0 7.5 -3.5t-1.5 -8.5l-69 -109q-5 -7 -12 -7h-39q-6 0 -8 3.5z" />
    <glyph glyph-name="lcaron.sc" horiz-adv-x="419" 
d="M68 10v557q0 10 10 10h51q10 0 10 -10v-501q0 -4 4 -4h247q10 0 10 -10v-42q0 -10 -10 -10h-312q-10 0 -10 10zM62 636l-73 107l-2 5q0 7 9 7h39q8 0 12 -6l53 -79q1 -1 3 -1t3 1l52 79q4 6 12 6h38q6 0 8 -3.5t-1 -8.5l-75 -107q-4 -6 -12 -6h-54q-8 0 -12 6z" />
    <glyph glyph-name="uni013C.sc" horiz-adv-x="419" 
d="M68 10v557q0 10 10 10h51q10 0 10 -10v-501q0 -4 4 -4h247q10 0 10 -10v-42q0 -10 -10 -10h-312q-10 0 -10 10zM150 -181.5q-2 3.5 1 8.5l61 109q5 7 12 7h48q6 0 7.5 -3.5t-1.5 -8.5l-69 -109q-5 -7 -12 -7h-39q-6 0 -8 3.5z" />
    <glyph glyph-name="lslash.sc" horiz-adv-x="538" 
d="M143 62h247q10 0 10 -10v-42q0 -10 -10 -10h-312q-10 0 -10 10v164q0 2 -1.5 3t-3.5 -1l-43 -32q-2 -2 -6 -2q-5 0 -8 4l-21 26q-2 2 -2 6q0 5 4 8l79 58q2 2 2 5v318q0 10 10 10h51q10 0 10 -10v-262q0 -2 1.5 -3t3.5 1l212 157q2 2 6 2q5 0 8 -4l21 -26q2 -2 2 -6
q0 -5 -4 -8l-248 -184q-2 -2 -2 -5v-163q0 -4 4 -4z" />
    <glyph glyph-name="m.sc" horiz-adv-x="535" 
d="M68 10v557q0 10 10 10h51q7 0 12 -7l123 -221q1 -1 3 -1t3 1l123 221q5 7 12 7h52q10 0 10 -10v-557q0 -10 -10 -10h-51q-10 0 -10 10v454q0 3 -1.5 3t-3.5 -2l-108 -199q-3 -7 -12 -7h-6q-9 0 -12 7l-109 199q-2 2 -3.5 2t-1.5 -3v-454q0 -10 -10 -10h-51q-10 0 -10 10z
" />
    <glyph glyph-name="n.sc" horiz-adv-x="508" 
d="M68 10v556q0 10 10 10h52q9 0 12 -7l223 -434q2 -2 3.5 -2t1.5 3v430q0 10 10 10h50q10 0 10 -10v-556q0 -10 -10 -10h-53q-9 0 -12 7l-222 435q-2 2 -3.5 2t-1.5 -3l1 -431q0 -10 -10 -10h-51q-10 0 -10 10z" />
    <glyph glyph-name="nacute.sc" horiz-adv-x="508" 
d="M68 10v556q0 10 10 10h52q9 0 12 -7l223 -434q2 -2 3.5 -2t1.5 3v430q0 10 10 10h50q10 0 10 -10v-556q0 -10 -10 -10h-53q-9 0 -12 7l-222 435q-2 2 -3.5 2t-1.5 -3l1 -431q0 -10 -10 -10h-51q-10 0 -10 10zM209 660.5q-2 3.5 1 8.5l61 109q5 7 12 7h48q6 0 7.5 -3.5
t-1.5 -8.5l-69 -109q-5 -7 -12 -7h-39q-6 0 -8 3.5z" />
    <glyph glyph-name="ncaron.sc" horiz-adv-x="508" 
d="M68 10v556q0 10 10 10h52q9 0 12 -7l223 -434q2 -2 3.5 -2t1.5 3v430q0 10 10 10h50q10 0 10 -10v-556q0 -10 -10 -10h-53q-9 0 -12 7l-222 435q-2 2 -3.5 2t-1.5 -3l1 -431q0 -10 -10 -10h-51q-10 0 -10 10zM211 645l-73 107l-2 5q0 7 9 7h39q8 0 12 -6l53 -79
q1 -1 3 -1t3 1l52 79q4 6 12 6h38q6 0 8 -3.5t-1 -8.5l-75 -107q-4 -6 -12 -6h-54q-8 0 -12 6z" />
    <glyph glyph-name="uni0146.sc" horiz-adv-x="508" 
d="M68 10v556q0 10 10 10h52q9 0 12 -7l223 -434q2 -2 3.5 -2t1.5 3v430q0 10 10 10h50q10 0 10 -10v-556q0 -10 -10 -10h-53q-9 0 -12 7l-222 435q-2 2 -3.5 2t-1.5 -3l1 -431q0 -10 -10 -10h-51q-10 0 -10 10zM195 -181.5q-2 3.5 1 8.5l61 109q5 7 12 7h48q6 0 7.5 -3.5
t-1.5 -8.5l-69 -109q-5 -7 -12 -7h-39q-6 0 -8 3.5z" />
    <glyph glyph-name="eng.sc" horiz-adv-x="509" 
d="M380 576h50q10 0 10 -10v-566q-1 -48 -11.5 -76.5t-40.5 -43.5t-86 -15q-10 0 -10 10v41q0 10 10 10q39 1 51.5 19t12.5 58q0 4 -1 5l-222 434q-2 2 -3.5 2t-1.5 -3l1 -431q0 -10 -10 -10h-51q-10 0 -10 10v556q0 10 10 10h52q9 0 12 -7l219 -426q2 -2 3.5 -2t1.5 3v252
q0 10 2 10t2 4v156q0 10 10 10z" />
    <glyph glyph-name="ntilde.sc" horiz-adv-x="508" 
d="M68 10v556q0 10 10 10h52q9 0 12 -7l223 -434q2 -2 3.5 -2t1.5 3v430q0 10 10 10h50q10 0 10 -10v-556q0 -10 -10 -10h-53q-9 0 -12 7l-222 435q-2 2 -3.5 2t-1.5 -3l1 -431q0 -10 -10 -10h-51q-10 0 -10 10zM287 679q-13 6 -29 17q-3 2 -12.5 8t-17 9t-15.5 3
q-15 0 -25.5 -5.5t-21.5 -20.5q-6 -9 -14 -3l-18 13q-9 5 -4 13q28 53 79 53q16 0 27.5 -5.5t31.5 -17.5q17 -11 26.5 -16t20.5 -5q27 0 46 28q5 10 14 4l19 -12q4 -3 4 -8t-4 -12q-15 -25 -36.5 -37t-42.5 -12q-15 0 -28 6z" />
    <glyph glyph-name="o.sc" horiz-adv-x="472" 
d="M103 42.5q-50 49.5 -50 134.5v222q0 85 50 135t133 50t133 -50t50 -135v-222q0 -85 -50 -134.5t-133 -49.5t-133 49.5zM318 87q30 32 30 88v226q0 56 -30.5 88t-81.5 32t-81.5 -32t-30.5 -88v-226q0 -56 30.5 -88t81.5 -32q52 0 82 32z" />
    <glyph glyph-name="oacute.sc" horiz-adv-x="472" 
d="M103 42.5q-50 49.5 -50 134.5v222q0 85 50 135t133 50t133 -50t50 -135v-222q0 -85 -50 -134.5t-133 -49.5t-133 49.5zM318 87q30 32 30 88v226q0 56 -30.5 88t-81.5 32t-81.5 -32t-30.5 -88v-226q0 -56 30.5 -88t81.5 -32q52 0 82 32zM193 655.5q-2 3.5 1 8.5l61 109
q5 7 12 7h48q6 0 7.5 -3.5t-1.5 -8.5l-69 -109q-5 -7 -12 -7h-39q-6 0 -8 3.5z" />
    <glyph glyph-name="ocircumflex.sc" horiz-adv-x="472" 
d="M103 42.5q-50 49.5 -50 134.5v222q0 85 50 135t133 50t133 -50t50 -135v-222q0 -85 -50 -134.5t-133 -49.5t-133 49.5zM318 87q30 32 30 88v226q0 56 -30.5 88t-81.5 32t-81.5 -32t-30.5 -88v-226q0 -56 30.5 -88t81.5 -32q52 0 82 32zM119 649q-2 4 2 8l74 106q4 6 12 6
h54q8 0 12 -6l76 -106q2 -2 2 -6q0 -2 -2 -4t-6 -2h-41q-7 0 -12 6l-52 79q-1 2 -3 2t-3 -2l-52 -79q-4 -6 -12 -6h-41q-6 0 -8 4z" />
    <glyph glyph-name="odieresis.sc" horiz-adv-x="472" 
d="M103 42.5q-50 49.5 -50 134.5v222q0 85 50 135t133 50t133 -50t50 -135v-222q0 -85 -50 -134.5t-133 -49.5t-133 49.5zM318 87q30 32 30 88v226q0 56 -30.5 88t-81.5 32t-81.5 -32t-30.5 -88v-226q0 -56 30.5 -88t81.5 -32q52 0 82 32zM129 685q-13 13 -13 34q0 20 13 33
t33 13q19 0 32 -13t13 -33q0 -21 -12.5 -34t-32.5 -13t-33 13zM279 685q-13 13 -13 34q0 20 13 33t33 13q19 0 32 -13t13 -33q0 -21 -12.5 -34t-32.5 -13t-33 13z" />
    <glyph glyph-name="ograve.sc" horiz-adv-x="472" 
d="M103 42.5q-50 49.5 -50 134.5v222q0 85 50 135t133 50t133 -50t50 -135v-222q0 -85 -50 -134.5t-133 -49.5t-133 49.5zM318 87q30 32 30 88v226q0 56 -30.5 88t-81.5 32t-81.5 -32t-30.5 -88v-226q0 -56 30.5 -88t81.5 -32q52 0 82 32zM261 658q0 -6 -9 -6h-39
q-7 0 -12 7l-69 109q-2 4 -2 6q0 6 8 6h48q7 0 12 -7l61 -109q2 -4 2 -6z" />
    <glyph glyph-name="ohungarumlaut.sc" horiz-adv-x="472" 
d="M103 42.5q-50 49.5 -50 134.5v222q0 85 50 135t133 50t133 -50t50 -135v-222q0 -85 -50 -134.5t-133 -49.5t-133 49.5zM318 87q30 32 30 88v226q0 56 -30.5 88t-81.5 32t-81.5 -32t-30.5 -88v-226q0 -56 30.5 -88t81.5 -32q52 0 82 32zM137 653.5q-2 3.5 0 8.5l56 109
q3 7 12 7h44q6 0 8 -3.5t-1 -8.5l-60 -109q-3 -7 -12 -7h-40q-5 0 -7 3.5zM280.5 653.5q-2.5 3.5 0.5 8.5l59 109q3 7 12 7h41q6 0 8 -3.5t-1 -8.5l-60 -109q-3 -7 -12 -7h-40q-5 0 -7.5 3.5z" />
    <glyph glyph-name="omacron.sc" horiz-adv-x="472" 
d="M103 42.5q-50 49.5 -50 134.5v222q0 85 50 135t133 50t133 -50t50 -135v-222q0 -85 -50 -134.5t-133 -49.5t-133 49.5zM318 87q30 32 30 88v226q0 56 -30.5 88t-81.5 32t-81.5 -32t-30.5 -88v-226q0 -56 30.5 -88t81.5 -32q52 0 82 32zM118 680v31q0 10 10 10h215
q10 0 10 -10v-31q0 -10 -10 -10h-215q-10 0 -10 10z" />
    <glyph glyph-name="oslash.sc" horiz-adv-x="496" 
d="M464.5 683.5q2.5 -3.5 0.5 -8.5l-74 -164q-1 -2 1 -6q27 -42 27 -106v-222q0 -85 -50 -134.5t-133 -49.5q-34 0 -67 10q-5 2 -6 -2l-40 -90q-3 -8 -11 -8h-34q-5 0 -7.5 3.5t-0.5 8.5l49 110q1 3 -2 5q-31 24 -47.5 61.5t-16.5 85.5v222q0 85 50 135t133 50q66 0 112 -32
q4 -3 6 1l57 126q3 8 11 8h35q5 0 7.5 -3.5zM146 97q4 -3 5 1l171 382q1 3 -1 5q-30 36 -85 36q-51 0 -81.5 -32t-30.5 -88v-226q0 -47 22 -78zM346 405q-2 0 -3 -2l-150 -336q-2 -5 2 -5q18 -7 41 -7q52 0 82 32t30 88v227q0 3 -2 3z" />
    <glyph glyph-name="otilde.sc" horiz-adv-x="472" 
d="M103 42.5q-50 49.5 -50 134.5v222q0 85 50 135t133 50t133 -50t50 -135v-222q0 -85 -50 -134.5t-133 -49.5t-133 49.5zM318 87q30 32 30 88v226q0 56 -30.5 88t-81.5 32t-81.5 -32t-30.5 -88v-226q0 -56 30.5 -88t81.5 -32q52 0 82 32zM271 674q-13 6 -29 17
q-3 2 -12.5 8t-17 9t-15.5 3q-15 0 -25.5 -5.5t-21.5 -20.5q-6 -9 -14 -3l-18 13q-9 5 -4 13q28 53 79 53q16 0 27.5 -5.5t31.5 -17.5q17 -11 26.5 -16t20.5 -5q27 0 46 28q5 10 14 4l19 -12q4 -3 4 -8t-4 -12q-15 -25 -36.5 -37t-42.5 -12q-15 0 -28 6z" />
    <glyph glyph-name="oe.sc" horiz-adv-x="698" 
d="M648 514h-238q-4 0 -4 -4v-185q0 -4 4 -4h153q10 0 10 -10v-43q0 -10 -10 -10h-153q-4 0 -4 -4v-188q0 -4 4 -4h238q10 0 10 -10v-42q0 -10 -10 -10h-303q-10 0 -10 10v27q0 5 -5 2q-44 -46 -117 -46q-45 0 -81.5 21.5t-57.5 61.5t-21 92v240q0 52 21 92t57.5 62t81.5 22
q35 0 65 -12t52 -35q5 -3 5 2v28q0 10 10 10h303q10 0 10 -10v-43q0 -10 -10 -10zM306 84.5q29 29.5 29 80.5v245q0 51 -29 81t-77 30t-76.5 -30t-28.5 -81v-245q0 -51 28.5 -80.5t76.5 -29.5t77 29.5z" />
    <glyph glyph-name="p.sc" horiz-adv-x="448" 
d="M375 532.5q44 -45.5 44 -119.5q0 -72 -44 -116.5t-115 -44.5h-123q-4 0 -4 -4v-238q0 -10 -10 -10h-51q-10 0 -10 10v558q0 10 10 10h188q71 0 115 -45.5zM322 338q27 28 27 74q0 47 -27 75.5t-70 28.5h-115q-4 0 -4 -4v-198q0 -4 4 -4h115q43 0 70 28z" />
    <glyph glyph-name="thorn.sc" horiz-adv-x="438" 
d="M365.5 406q43.5 -45 43.5 -119q0 -73 -44 -117t-115 -44h-113q-4 0 -4 -4v-112q0 -10 -10 -10h-51q-10 0 -10 10v557q0 10 10 10h51q10 0 10 -10v-112q0 -4 4 -4h113q72 0 115.5 -45zM312 212.5q26 27.5 26 73.5q0 47 -26 75t-68 28h-107q-4 0 -4 -4v-196q0 -4 4 -4h107
q42 0 68 27.5z" />
    <glyph glyph-name="q.sc" horiz-adv-x="447" 
d="M351 534.5q48 -49.5 48 -133.5v-227q0 -73 -36 -119.5t-100 -57.5q-4 -1 -4 -5v-73q0 -10 -10 -10h-51q-10 0 -10 10v73q0 4 -4 5q-63 11 -99.5 57.5t-36.5 119.5v227q0 84 48 133.5t127 49.5q80 0 128 -49.5zM328 406q0 53 -28.5 84t-76.5 31q-47 0 -75.5 -31t-28.5 -84
v-235q0 -54 28.5 -85t75.5 -31q48 0 76.5 31t28.5 85v235z" />
    <glyph glyph-name="r.sc" horiz-adv-x="458" 
d="M352 8l-105 246q-1 3 -4 3h-100q-4 0 -4 -4v-243q0 -10 -10 -10h-51q-10 0 -10 10v558q0 10 10 10h185q71 0 114.5 -45t43.5 -118q0 -56 -28 -96t-76 -55q-3 -1 -2 -5l109 -247l1 -4q0 -8 -9 -8h-53q-8 0 -11 8zM139 512v-194q0 -4 4 -4h112q42 0 68.5 27.5t26.5 72.5
q0 46 -26.5 74t-68.5 28h-112q-4 0 -4 -4z" />
    <glyph glyph-name="racute.sc" horiz-adv-x="458" 
d="M352 8l-105 246q-1 3 -4 3h-100q-4 0 -4 -4v-243q0 -10 -10 -10h-51q-10 0 -10 10v558q0 10 10 10h185q71 0 114.5 -45t43.5 -118q0 -56 -28 -96t-76 -55q-3 -1 -2 -5l109 -247l1 -4q0 -8 -9 -8h-53q-8 0 -11 8zM139 512v-194q0 -4 4 -4h112q42 0 68.5 27.5t26.5 72.5
q0 46 -26.5 74t-68.5 28h-112q-4 0 -4 -4zM183 651.5q-2 3.5 1 8.5l61 109q5 7 12 7h48q6 0 7.5 -3.5t-1.5 -8.5l-69 -109q-5 -7 -12 -7h-39q-6 0 -8 3.5z" />
    <glyph glyph-name="rcaron.sc" horiz-adv-x="458" 
d="M352 8l-105 246q-1 3 -4 3h-100q-4 0 -4 -4v-243q0 -10 -10 -10h-51q-10 0 -10 10v558q0 10 10 10h185q71 0 114.5 -45t43.5 -118q0 -56 -28 -96t-76 -55q-3 -1 -2 -5l109 -247l1 -4q0 -8 -9 -8h-53q-8 0 -11 8zM139 512v-194q0 -4 4 -4h112q42 0 68.5 27.5t26.5 72.5
q0 46 -26.5 74t-68.5 28h-112q-4 0 -4 -4zM185 636l-73 107l-2 5q0 7 9 7h39q8 0 12 -6l53 -79q1 -1 3 -1t3 1l52 79q4 6 12 6h38q6 0 8 -3.5t-1 -8.5l-75 -107q-4 -6 -12 -6h-54q-8 0 -12 6z" />
    <glyph glyph-name="uni0157.sc" horiz-adv-x="458" 
d="M352 8l-105 246q-1 3 -4 3h-100q-4 0 -4 -4v-243q0 -10 -10 -10h-51q-10 0 -10 10v558q0 10 10 10h185q71 0 114.5 -45t43.5 -118q0 -56 -28 -96t-76 -55q-3 -1 -2 -5l109 -247l1 -4q0 -8 -9 -8h-53q-8 0 -11 8zM139 512v-194q0 -4 4 -4h112q42 0 68.5 27.5t26.5 72.5
q0 46 -26.5 74t-68.5 28h-112q-4 0 -4 -4zM177 -181.5q-2 3.5 1 8.5l61 109q5 7 12 7h48q6 0 7.5 -3.5t-1.5 -8.5l-69 -109q-5 -7 -12 -7h-39q-6 0 -8 3.5z" />
    <glyph glyph-name="s.sc" horiz-adv-x="443" 
d="M93.5 34.5q-48.5 41.5 -48.5 110.5v19q0 10 10 10h50q10 0 10 -10v-13q0 -43 30 -69.5t81 -26.5q49 0 77 24.5t28 65.5q0 37 -28 61t-97 59q-56 27 -87 46.5t-51 49.5t-20 75q0 69 46 108.5t125 39.5q83 0 130.5 -42.5t47.5 -114.5v-14q0 -10 -10 -10h-50q-10 0 -10 10
v12q0 44 -29 70.5t-81 26.5q-46 0 -72.5 -22.5t-26.5 -63.5q0 -25 12 -42t34 -31t71 -39q62 -31 95 -52.5t52.5 -51t19.5 -72.5q0 -71 -48 -113t-130 -42t-130.5 41.5z" />
    <glyph glyph-name="sacute.sc" horiz-adv-x="443" 
d="M93.5 34.5q-48.5 41.5 -48.5 110.5v19q0 10 10 10h50q10 0 10 -10v-13q0 -43 30 -69.5t81 -26.5q49 0 77 24.5t28 65.5q0 37 -28 61t-97 59q-56 27 -87 46.5t-51 49.5t-20 75q0 69 46 108.5t125 39.5q83 0 130.5 -42.5t47.5 -114.5v-14q0 -10 -10 -10h-50q-10 0 -10 10
v12q0 44 -29 70.5t-81 26.5q-46 0 -72.5 -22.5t-26.5 -63.5q0 -25 12 -42t34 -31t71 -39q62 -31 95 -52.5t52.5 -51t19.5 -72.5q0 -71 -48 -113t-130 -42t-130.5 41.5zM175 658.5q-2 3.5 1 8.5l61 109q5 7 12 7h48q6 0 7.5 -3.5t-1.5 -8.5l-69 -109q-5 -7 -12 -7h-39
q-6 0 -8 3.5z" />
    <glyph glyph-name="scaron.sc" horiz-adv-x="443" 
d="M93.5 34.5q-48.5 41.5 -48.5 110.5v19q0 10 10 10h50q10 0 10 -10v-13q0 -43 30 -69.5t81 -26.5q49 0 77 24.5t28 65.5q0 37 -28 61t-97 59q-56 27 -87 46.5t-51 49.5t-20 75q0 69 46 108.5t125 39.5q83 0 130.5 -42.5t47.5 -114.5v-14q0 -10 -10 -10h-50q-10 0 -10 10
v12q0 44 -29 70.5t-81 26.5q-46 0 -72.5 -22.5t-26.5 -63.5q0 -25 12 -42t34 -31t71 -39q62 -31 95 -52.5t52.5 -51t19.5 -72.5q0 -71 -48 -113t-130 -42t-130.5 41.5zM177 643l-73 107l-2 5q0 7 9 7h39q8 0 12 -6l53 -79q1 -1 3 -1t3 1l52 79q4 6 12 6h38q6 0 8 -3.5
t-1 -8.5l-75 -107q-4 -6 -12 -6h-54q-8 0 -12 6z" />
    <glyph glyph-name="scedilla.sc" horiz-adv-x="443" 
d="M363 43q-39 -41 -109 -48q-7 -2 -2 -5q46 -42 46 -93q0 -15 -2 -22q-7 -32 -30 -46t-54 -14q-14 0 -34 4q-8 3 -7 12l3 22q1 5 4.5 7t7.5 1q6 -2 18 -2q19 0 31 11.5t12 35.5q0 40 -49 86q-1 2 -5 2q-68 8 -108 48.5t-40 102.5v19q0 10 10 10h50q10 0 10 -10v-13
q0 -43 30 -69.5t81 -26.5q49 0 77 24.5t28 65.5q0 37 -28 61t-97 59q-56 27 -87 46.5t-51 49.5t-20 75q0 69 46 108.5t125 39.5q83 0 130.5 -42.5t47.5 -114.5v-14q0 -10 -10 -10h-50q-10 0 -10 10v12q0 44 -29 70.5t-81 26.5q-46 0 -72.5 -22.5t-26.5 -63.5q0 -25 12 -42
t34 -31t71 -39q62 -31 95 -52.5t52.5 -51t19.5 -72.5q0 -64 -39 -105z" />
    <glyph glyph-name="uni0219.sc" horiz-adv-x="443" 
d="M93.5 34.5q-48.5 41.5 -48.5 110.5v19q0 10 10 10h50q10 0 10 -10v-13q0 -43 30 -69.5t81 -26.5q49 0 77 24.5t28 65.5q0 37 -28 61t-97 59q-56 27 -87 46.5t-51 49.5t-20 75q0 69 46 108.5t125 39.5q83 0 130.5 -42.5t47.5 -114.5v-14q0 -10 -10 -10h-50q-10 0 -10 10
v12q0 44 -29 70.5t-81 26.5q-46 0 -72.5 -22.5t-26.5 -63.5q0 -25 12 -42t34 -31t71 -39q62 -31 95 -52.5t52.5 -51t19.5 -72.5q0 -71 -48 -113t-130 -42t-130.5 41.5zM162 -188.5q-2 3.5 1 8.5l61 109q5 7 12 7h48q6 0 7.5 -3.5t-1.5 -8.5l-69 -109q-5 -7 -12 -7h-39
q-6 0 -8 3.5z" />
    <glyph glyph-name="t.sc" horiz-adv-x="431" 
d="M402 567v-43q0 -10 -10 -10h-140q-4 0 -4 -4v-500q0 -10 -10 -10h-51q-10 0 -10 10v500q0 4 -4 4h-134q-10 0 -10 10v43q0 10 10 10h353q10 0 10 -10z" />
    <glyph glyph-name="tbar.sc" horiz-adv-x="431" 
d="M392 514h-140q-4 0 -4 -4v-142q0 -4 4 -4h100q10 0 10 -10v-27q0 -10 -10 -10h-100q-4 0 -4 -4v-303q0 -10 -10 -10h-51q-10 0 -10 10v303q0 4 -4 4h-95q-10 0 -10 10v27q0 10 10 10h95q4 0 4 4v142q0 4 -4 4h-134q-10 0 -10 10v43q0 10 10 10h353q10 0 10 -10v-43
q0 -10 -10 -10z" />
    <glyph glyph-name="tcaron.sc" horiz-adv-x="431" 
d="M402 567v-43q0 -10 -10 -10h-140q-4 0 -4 -4v-500q0 -10 -10 -10h-51q-10 0 -10 10v500q0 4 -4 4h-134q-10 0 -10 10v43q0 10 10 10h353q10 0 10 -10zM173 636l-73 107l-2 5q0 7 9 7h39q8 0 12 -6l53 -79q1 -1 3 -1t3 1l52 79q4 6 12 6h38q6 0 8 -3.5t-1 -8.5l-75 -107
q-4 -6 -12 -6h-54q-8 0 -12 6z" />
    <glyph glyph-name="uni0163.sc" horiz-adv-x="431" 
d="M248 510v-500q0 -10 -4 -10q-2 0 -1.5 -1.5t2.5 -3.5q45 -42 45 -92q0 -15 -2 -22q-7 -32 -30 -46t-54 -14q-14 0 -34 4q-8 3 -7 12l3 22q1 5 4.5 7t7.5 1q6 -2 18 -2q19 0 31 11.5t12 35.5q0 40 -49 86l-1.5 1.5l-0.5 0.5h-1q-10 0 -10 10v500q0 4 -4 4h-134
q-10 0 -10 10v43q0 10 10 10h353q10 0 10 -10v-43q0 -10 -10 -10h-140q-4 0 -4 -4z" />
    <glyph glyph-name="uni021B.sc" horiz-adv-x="431" 
d="M402 567v-43q0 -10 -10 -10h-140q-4 0 -4 -4v-500q0 -10 -10 -10h-51q-10 0 -10 10v500q0 4 -4 4h-134q-10 0 -10 10v43q0 10 10 10h353q10 0 10 -10zM150 -182.5q-2 3.5 1 8.5l61 109q5 7 12 7h48q6 0 7.5 -3.5t-1.5 -8.5l-69 -109q-5 -7 -12 -7h-39q-6 0 -8 3.5z" />
    <glyph glyph-name="u.sc" horiz-adv-x="486" 
d="M111.5 43q-49.5 50 -49.5 136v387q0 10 10 10h51q10 0 10 -10v-391q0 -55 30 -87.5t80 -32.5t79.5 32.5t29.5 87.5v391q0 10 10 10h51q10 0 10 -10v-387q0 -86 -49 -136t-131 -50t-131.5 50z" />
    <glyph glyph-name="uacute.sc" horiz-adv-x="486" 
d="M111.5 43q-49.5 50 -49.5 136v387q0 10 10 10h51q10 0 10 -10v-391q0 -55 30 -87.5t80 -32.5t79.5 32.5t29.5 87.5v391q0 10 10 10h51q10 0 10 -10v-387q0 -86 -49 -136t-131 -50t-131.5 50zM200 660.5q-2 3.5 1 8.5l61 109q5 7 12 7h48q6 0 7.5 -3.5t-1.5 -8.5l-69 -109
q-5 -7 -12 -7h-39q-6 0 -8 3.5z" />
    <glyph glyph-name="ucircumflex.sc" horiz-adv-x="486" 
d="M111.5 43q-49.5 50 -49.5 136v387q0 10 10 10h51q10 0 10 -10v-391q0 -55 30 -87.5t80 -32.5t79.5 32.5t29.5 87.5v391q0 10 10 10h51q10 0 10 -10v-387q0 -86 -49 -136t-131 -50t-131.5 50zM126 654q-2 4 2 8l74 106q4 6 12 6h54q8 0 12 -6l76 -106q2 -2 2 -6
q0 -2 -2 -4t-6 -2h-41q-7 0 -12 6l-52 79q-1 2 -3 2t-3 -2l-52 -79q-4 -6 -12 -6h-41q-6 0 -8 4z" />
    <glyph glyph-name="udieresis.sc" horiz-adv-x="486" 
d="M111.5 43q-49.5 50 -49.5 136v387q0 10 10 10h51q10 0 10 -10v-391q0 -55 30 -87.5t80 -32.5t79.5 32.5t29.5 87.5v391q0 10 10 10h51q10 0 10 -10v-387q0 -86 -49 -136t-131 -50t-131.5 50zM136 690q-13 13 -13 34q0 20 13 33t33 13q19 0 32 -13t13 -33q0 -21 -12.5 -34
t-32.5 -13t-33 13zM286 690q-13 13 -13 34q0 20 13 33t33 13q19 0 32 -13t13 -33q0 -21 -12.5 -34t-32.5 -13t-33 13z" />
    <glyph glyph-name="ugrave.sc" horiz-adv-x="486" 
d="M111.5 43q-49.5 50 -49.5 136v387q0 10 10 10h51q10 0 10 -10v-391q0 -55 30 -87.5t80 -32.5t79.5 32.5t29.5 87.5v391q0 10 10 10h51q10 0 10 -10v-387q0 -86 -49 -136t-131 -50t-131.5 50zM268 663q0 -6 -9 -6h-39q-7 0 -12 7l-69 109q-2 4 -2 6q0 6 8 6h48q7 0 12 -7
l61 -109q2 -4 2 -6z" />
    <glyph glyph-name="uhungarumlaut.sc" horiz-adv-x="486" 
d="M111.5 43q-49.5 50 -49.5 136v387q0 10 10 10h51q10 0 10 -10v-391q0 -55 30 -87.5t80 -32.5t79.5 32.5t29.5 87.5v391q0 10 10 10h51q10 0 10 -10v-387q0 -86 -49 -136t-131 -50t-131.5 50zM144 658.5q-2 3.5 0 8.5l56 109q3 7 12 7h44q6 0 8 -3.5t-1 -8.5l-60 -109
q-3 -7 -12 -7h-40q-5 0 -7 3.5zM287.5 658.5q-2.5 3.5 0.5 8.5l59 109q3 7 12 7h41q6 0 8 -3.5t-1 -8.5l-60 -109q-3 -7 -12 -7h-40q-5 0 -7.5 3.5z" />
    <glyph glyph-name="umacron.sc" horiz-adv-x="486" 
d="M111.5 43q-49.5 50 -49.5 136v387q0 10 10 10h51q10 0 10 -10v-391q0 -55 30 -87.5t80 -32.5t79.5 32.5t29.5 87.5v391q0 10 10 10h51q10 0 10 -10v-387q0 -86 -49 -136t-131 -50t-131.5 50zM125 685v31q0 10 10 10h215q10 0 10 -10v-31q0 -10 -10 -10h-215q-10 0 -10 10
z" />
    <glyph glyph-name="uogonek.sc" horiz-adv-x="486" 
d="M362 576h51q10 0 10 -10v-387q0 -80 -42.5 -129t-114.5 -56q-3 0 -5 -2q-42 -44 -42 -79q0 -8 1 -12q6 -36 42 -36q12 0 18 2l4 1q6 0 8 -8l4 -23v-2q0 -7 -8 -9q-18 -5 -36 -5q-35 0 -59.5 19t-24.5 63q0 47 41 88q3 3 -2 5q-67 11 -106 59t-39 124v387q0 10 10 10h51
q10 0 10 -10v-391q0 -55 30 -87.5t80 -32.5t79.5 32.5t29.5 87.5v391q0 10 10 10z" />
    <glyph glyph-name="uring.sc" horiz-adv-x="486" 
d="M111.5 43q-49.5 50 -49.5 136v387q0 10 10 10h51q10 0 10 -10v-391q0 -55 30 -87.5t80 -32.5t79.5 32.5t29.5 87.5v391q0 10 10 10h51q10 0 10 -10v-387q0 -86 -49 -136t-131 -50t-131.5 50zM170 680.5q-30 29.5 -30 72.5q0 44 29.5 73.5t73.5 29.5q43 0 72.5 -30
t29.5 -73t-29.5 -72.5t-72.5 -29.5t-73 29.5zM287.5 707.5q18.5 18.5 18.5 45.5t-18.5 46t-44.5 19q-27 0 -45.5 -18.5t-18.5 -46.5q0 -27 19 -45.5t45 -18.5t44.5 18.5z" />
    </font>
</defs>
</svg>
